G04 #@! TF.GenerationSoftware,KiCad,Pcbnew,(5.1.5)-3*
G04 #@! TF.CreationDate,2021-08-11T14:04:56+02:00*
G04 #@! TF.ProjectId,18650_UPS_PCB,31383635-305f-4555-9053-5f5043422e6b,rev?*
G04 #@! TF.SameCoordinates,Original*
G04 #@! TF.FileFunction,Copper,L3,Inr*
G04 #@! TF.FilePolarity,Positive*
%FSLAX46Y46*%
G04 Gerber Fmt 4.6, Leading zero omitted, Abs format (unit mm)*
G04 Created by KiCad (PCBNEW (5.1.5)-3) date 2021-08-11 14:04:56*
%MOMM*%
%LPD*%
G04 APERTURE LIST*
%ADD10O,1.200000X1.900000*%
%ADD11C,1.450000*%
%ADD12C,0.800000*%
G04 APERTURE END LIST*
D10*
X203120000Y-95687500D03*
X196120000Y-95687500D03*
D11*
X202120000Y-92987500D03*
X197120000Y-92987500D03*
D12*
X154850000Y-85300000D03*
X150825000Y-85325000D03*
X140600000Y-75550000D03*
X140600000Y-78150006D03*
X186325000Y-80950000D03*
X179575000Y-81550000D03*
X166449992Y-78075000D03*
X148800000Y-83850000D03*
X171400000Y-82300000D03*
X189900000Y-78800012D03*
X200610000Y-83385000D03*
X200600000Y-80400000D03*
X199610000Y-83385000D03*
X191100008Y-78800000D03*
X170700000Y-83100000D03*
X199600000Y-80400000D03*
X197210000Y-83385000D03*
X198210000Y-83385000D03*
X197710000Y-82485000D03*
X192799986Y-86500000D03*
X142925000Y-78125000D03*
X138172488Y-90985000D03*
X145600000Y-78125000D03*
X152800000Y-76000000D03*
X185300000Y-78400000D03*
X185300000Y-76400000D03*
X185300000Y-77400000D03*
X170200000Y-78100000D03*
X182600000Y-87500000D03*
X182600000Y-86500000D03*
X182600000Y-85500000D03*
X203500000Y-91100000D03*
X200900000Y-91100000D03*
X202200000Y-91100000D03*
X139600000Y-85600000D03*
X151000000Y-83850006D03*
X172450000Y-95200000D03*
X150825000Y-94225000D03*
X183650000Y-79910000D03*
X163650000Y-77150000D03*
X198510000Y-88085000D03*
X192875000Y-88100008D03*
X191750000Y-79700000D03*
X176150000Y-84450000D03*
X199610000Y-88085000D03*
X192875648Y-89425011D03*
M02*
