G04 #@! TF.GenerationSoftware,KiCad,Pcbnew,(5.1.5)-3*
G04 #@! TF.CreationDate,2021-05-18T14:06:46+02:00*
G04 #@! TF.ProjectId,18650_UPS_PCB,31383635-305f-4555-9053-5f5043422e6b,rev?*
G04 #@! TF.SameCoordinates,Original*
G04 #@! TF.FileFunction,Legend,Top*
G04 #@! TF.FilePolarity,Positive*
%FSLAX46Y46*%
G04 Gerber Fmt 4.6, Leading zero omitted, Abs format (unit mm)*
G04 Created by KiCad (PCBNEW (5.1.5)-3) date 2021-05-18 14:06:46*
%MOMM*%
%LPD*%
G04 APERTURE LIST*
%ADD10C,0.300000*%
%ADD11C,0.120000*%
%ADD12C,0.150000*%
G04 APERTURE END LIST*
D10*
X145992857Y-79475000D02*
X145850000Y-79403571D01*
X145635714Y-79403571D01*
X145421428Y-79475000D01*
X145278571Y-79617857D01*
X145207142Y-79760714D01*
X145135714Y-80046428D01*
X145135714Y-80260714D01*
X145207142Y-80546428D01*
X145278571Y-80689285D01*
X145421428Y-80832142D01*
X145635714Y-80903571D01*
X145778571Y-80903571D01*
X145992857Y-80832142D01*
X146064285Y-80760714D01*
X146064285Y-80260714D01*
X145778571Y-80260714D01*
X147492857Y-79475000D02*
X147350000Y-79403571D01*
X147135714Y-79403571D01*
X146921428Y-79475000D01*
X146778571Y-79617857D01*
X146707142Y-79760714D01*
X146635714Y-80046428D01*
X146635714Y-80260714D01*
X146707142Y-80546428D01*
X146778571Y-80689285D01*
X146921428Y-80832142D01*
X147135714Y-80903571D01*
X147278571Y-80903571D01*
X147492857Y-80832142D01*
X147564285Y-80760714D01*
X147564285Y-80260714D01*
X147278571Y-80260714D01*
X148992857Y-79475000D02*
X148850000Y-79403571D01*
X148635714Y-79403571D01*
X148421428Y-79475000D01*
X148278571Y-79617857D01*
X148207142Y-79760714D01*
X148135714Y-80046428D01*
X148135714Y-80260714D01*
X148207142Y-80546428D01*
X148278571Y-80689285D01*
X148421428Y-80832142D01*
X148635714Y-80903571D01*
X148778571Y-80903571D01*
X148992857Y-80832142D01*
X149064285Y-80760714D01*
X149064285Y-80260714D01*
X148778571Y-80260714D01*
X150492857Y-79475000D02*
X150350000Y-79403571D01*
X150135714Y-79403571D01*
X149921428Y-79475000D01*
X149778571Y-79617857D01*
X149707142Y-79760714D01*
X149635714Y-80046428D01*
X149635714Y-80260714D01*
X149707142Y-80546428D01*
X149778571Y-80689285D01*
X149921428Y-80832142D01*
X150135714Y-80903571D01*
X150278571Y-80903571D01*
X150492857Y-80832142D01*
X150564285Y-80760714D01*
X150564285Y-80260714D01*
X150278571Y-80260714D01*
X146064285Y-81953571D02*
X145350000Y-81953571D01*
X145278571Y-82667857D01*
X145350000Y-82596428D01*
X145492857Y-82525000D01*
X145850000Y-82525000D01*
X145992857Y-82596428D01*
X146064285Y-82667857D01*
X146135714Y-82810714D01*
X146135714Y-83167857D01*
X146064285Y-83310714D01*
X145992857Y-83382142D01*
X145850000Y-83453571D01*
X145492857Y-83453571D01*
X145350000Y-83382142D01*
X145278571Y-83310714D01*
X147492857Y-81953571D02*
X146778571Y-81953571D01*
X146707142Y-82667857D01*
X146778571Y-82596428D01*
X146921428Y-82525000D01*
X147278571Y-82525000D01*
X147421428Y-82596428D01*
X147492857Y-82667857D01*
X147564285Y-82810714D01*
X147564285Y-83167857D01*
X147492857Y-83310714D01*
X147421428Y-83382142D01*
X147278571Y-83453571D01*
X146921428Y-83453571D01*
X146778571Y-83382142D01*
X146707142Y-83310714D01*
X148064285Y-81953571D02*
X148992857Y-81953571D01*
X148492857Y-82525000D01*
X148707142Y-82525000D01*
X148850000Y-82596428D01*
X148921428Y-82667857D01*
X148992857Y-82810714D01*
X148992857Y-83167857D01*
X148921428Y-83310714D01*
X148850000Y-83382142D01*
X148707142Y-83453571D01*
X148278571Y-83453571D01*
X148135714Y-83382142D01*
X148064285Y-83310714D01*
X149492857Y-81953571D02*
X150421428Y-81953571D01*
X149921428Y-82525000D01*
X150135714Y-82525000D01*
X150278571Y-82596428D01*
X150350000Y-82667857D01*
X150421428Y-82810714D01*
X150421428Y-83167857D01*
X150350000Y-83310714D01*
X150278571Y-83382142D01*
X150135714Y-83453571D01*
X149707142Y-83453571D01*
X149564285Y-83382142D01*
X149492857Y-83310714D01*
D11*
X154950000Y-83435000D02*
X154950000Y-84705000D01*
X154950000Y-96135000D02*
X154950000Y-92325000D01*
X193050000Y-96135000D02*
X154950000Y-96135000D01*
X193050000Y-94865000D02*
X193050000Y-96135000D01*
X193050000Y-83435000D02*
X193050000Y-94865000D01*
X154950000Y-83435000D02*
X193050000Y-83435000D01*
X154950000Y-89785000D02*
X154950000Y-87245000D01*
X126690000Y-81575000D02*
X124260000Y-81575000D01*
X124930000Y-84645000D02*
X126690000Y-84645000D01*
X169037221Y-89110000D02*
X169362779Y-89110000D01*
X169037221Y-88090000D02*
X169362779Y-88090000D01*
X172990000Y-81337221D02*
X172990000Y-81662779D01*
X174010000Y-81337221D02*
X174010000Y-81662779D01*
X184590000Y-81324721D02*
X184590000Y-81650279D01*
X185610000Y-81324721D02*
X185610000Y-81650279D01*
X172850279Y-83990000D02*
X172524721Y-83990000D01*
X172850279Y-85010000D02*
X172524721Y-85010000D01*
X172862779Y-88090000D02*
X172537221Y-88090000D01*
X172862779Y-89110000D02*
X172537221Y-89110000D01*
X158820000Y-87755000D02*
X158820000Y-84645000D01*
X158820000Y-92835000D02*
X158820000Y-89275000D01*
X156160000Y-90295000D02*
X156160000Y-86735000D01*
X156160000Y-85215000D02*
X156160000Y-84645000D01*
X158820000Y-94925000D02*
X158820000Y-94355000D01*
X158820000Y-94355000D02*
X160340000Y-94355000D01*
X156160000Y-94925000D02*
X156160000Y-91815000D01*
X158820000Y-84645000D02*
X156160000Y-84645000D01*
X158820000Y-94925000D02*
X156160000Y-94925000D01*
X141710000Y-94385000D02*
X144110000Y-94385000D01*
X141710000Y-84985000D02*
X141710000Y-94385000D01*
X146110000Y-84985000D02*
X141710000Y-84985000D01*
X150710000Y-84985000D02*
X148310000Y-84985000D01*
X150710000Y-94385000D02*
X150710000Y-84985000D01*
X150710000Y-94385000D02*
X146260000Y-94385000D01*
D12*
X175810000Y-88735000D02*
X181785000Y-88735000D01*
X177335000Y-95635000D02*
X181785000Y-95635000D01*
D11*
X131440000Y-92300000D02*
X131440000Y-95750000D01*
X131440000Y-92300000D02*
X131440000Y-90350000D01*
X136560000Y-92300000D02*
X136560000Y-94250000D01*
X136560000Y-92300000D02*
X136560000Y-90350000D01*
X205428986Y-90109264D02*
X203767285Y-88447563D01*
X205428986Y-90109264D02*
X203590509Y-91947742D01*
X199135736Y-83816014D02*
X200797437Y-85477715D01*
X199135736Y-83816014D02*
X197403324Y-85548425D01*
X193691014Y-89260736D02*
X195317359Y-90887082D01*
X193691014Y-89260736D02*
X195564847Y-87386903D01*
X199984264Y-95553986D02*
X198357918Y-93927641D01*
X199984264Y-95553986D02*
X201858097Y-93680153D01*
X162962779Y-94390000D02*
X162637221Y-94390000D01*
X162962779Y-95410000D02*
X162637221Y-95410000D01*
X166037221Y-95410000D02*
X166362779Y-95410000D01*
X166037221Y-94390000D02*
X166362779Y-94390000D01*
X161030000Y-81535000D02*
X161030000Y-82895000D01*
X151890000Y-76335000D02*
X151320000Y-76335000D01*
X154430000Y-76335000D02*
X153410000Y-76335000D01*
X156970000Y-76335000D02*
X155950000Y-76335000D01*
X159510000Y-76335000D02*
X158490000Y-76335000D01*
X161600000Y-76335000D02*
X161030000Y-76335000D01*
X151320000Y-76335000D02*
X151320000Y-81535000D01*
X151890000Y-81535000D02*
X151320000Y-81535000D01*
X154430000Y-81535000D02*
X153410000Y-81535000D01*
X156970000Y-81535000D02*
X155950000Y-81535000D01*
X159510000Y-81535000D02*
X158490000Y-81535000D01*
X161600000Y-81535000D02*
X161030000Y-81535000D01*
X161600000Y-76335000D02*
X161600000Y-81535000D01*
X172312779Y-92675000D02*
X171987221Y-92675000D01*
X172312779Y-93695000D02*
X171987221Y-93695000D01*
X172312779Y-94675000D02*
X171987221Y-94675000D01*
X172312779Y-95695000D02*
X171987221Y-95695000D01*
X186472779Y-90675000D02*
X186147221Y-90675000D01*
X186472779Y-91695000D02*
X186147221Y-91695000D01*
X186472779Y-92675000D02*
X186147221Y-92675000D01*
X186472779Y-93695000D02*
X186147221Y-93695000D01*
X186472779Y-94675000D02*
X186147221Y-94675000D01*
X186472779Y-95695000D02*
X186147221Y-95695000D01*
X137290000Y-90237221D02*
X137290000Y-90562779D01*
X138310000Y-90237221D02*
X138310000Y-90562779D01*
X138310000Y-94062779D02*
X138310000Y-93737221D01*
X137290000Y-94062779D02*
X137290000Y-93737221D01*
X133000000Y-82922221D02*
X133000000Y-83247779D01*
X134020000Y-82922221D02*
X134020000Y-83247779D01*
X147010000Y-78997500D02*
X147010000Y-78547500D01*
X147010000Y-78997500D02*
X146560000Y-78997500D01*
X141410000Y-78447500D02*
X141860000Y-78447500D01*
X141410000Y-76597500D02*
X141410000Y-78447500D01*
X149210000Y-74047500D02*
X149210000Y-74297500D01*
X141410000Y-74047500D02*
X141410000Y-74297500D01*
X149210000Y-76597500D02*
X149210000Y-78447500D01*
X149210000Y-78447500D02*
X148760000Y-78447500D01*
X166220000Y-79390000D02*
X165990000Y-79390000D01*
X165990000Y-79390000D02*
X165990000Y-80365000D01*
X166220000Y-82610000D02*
X165990000Y-82610000D01*
X165990000Y-81635000D02*
X165990000Y-82610000D01*
X169210000Y-81635000D02*
X169210000Y-82610000D01*
X169210000Y-82610000D02*
X168980000Y-82610000D01*
X169210000Y-79360000D02*
X169210000Y-80365000D01*
X181110000Y-79360000D02*
X181110000Y-80365000D01*
X181110000Y-82610000D02*
X180880000Y-82610000D01*
X181110000Y-81635000D02*
X181110000Y-82610000D01*
X177890000Y-81635000D02*
X177890000Y-82610000D01*
X178120000Y-82610000D02*
X177890000Y-82610000D01*
X177890000Y-79390000D02*
X177890000Y-80365000D01*
X178120000Y-79390000D02*
X177890000Y-79390000D01*
D12*
X204223000Y-82778000D02*
X202873000Y-82778000D01*
X204223000Y-85928000D02*
X208873000Y-85928000D01*
X204223000Y-82678000D02*
X208873000Y-82678000D01*
X204223000Y-85928000D02*
X204223000Y-85728000D01*
X208873000Y-85928000D02*
X208873000Y-85728000D01*
X208873000Y-82678000D02*
X208873000Y-82878000D01*
X204223000Y-82678000D02*
X204223000Y-82778000D01*
D11*
X203510000Y-80150000D02*
X203510000Y-78350000D01*
X200290000Y-78350000D02*
X200290000Y-80800000D01*
X187585000Y-80765000D02*
X187520000Y-80765000D01*
X187585000Y-77235000D02*
X187520000Y-77235000D01*
X196530000Y-80765000D02*
X196465000Y-80765000D01*
X196530000Y-77235000D02*
X196465000Y-77235000D01*
X196465000Y-75910000D02*
X196465000Y-77235000D01*
X187520000Y-77235000D02*
X187520000Y-80765000D01*
X196530000Y-77235000D02*
X196530000Y-80765000D01*
X169362779Y-85010000D02*
X169037221Y-85010000D01*
X169362779Y-83990000D02*
X169037221Y-83990000D01*
X184262779Y-83990000D02*
X183937221Y-83990000D01*
X184262779Y-85010000D02*
X183937221Y-85010000D01*
X169362779Y-87010000D02*
X169037221Y-87010000D01*
X169362779Y-85990000D02*
X169037221Y-85990000D01*
X180737221Y-86410000D02*
X181062779Y-86410000D01*
X180737221Y-85390000D02*
X181062779Y-85390000D01*
X164510000Y-81337221D02*
X164510000Y-81662779D01*
X163490000Y-81337221D02*
X163490000Y-81662779D01*
X174990000Y-81337221D02*
X174990000Y-81662779D01*
X176010000Y-81337221D02*
X176010000Y-81662779D01*
X132247221Y-80695000D02*
X132572779Y-80695000D01*
X132247221Y-79675000D02*
X132572779Y-79675000D01*
X198240000Y-79537779D02*
X198240000Y-79212221D01*
X199260000Y-79537779D02*
X199260000Y-79212221D01*
X132137221Y-77410000D02*
X132462779Y-77410000D01*
X132137221Y-76390000D02*
X132462779Y-76390000D01*
X124557936Y-88795000D02*
X128662064Y-88795000D01*
X124557936Y-85375000D02*
X128662064Y-85375000D01*
X202112221Y-75935000D02*
X202437779Y-75935000D01*
X202112221Y-74915000D02*
X202437779Y-74915000D01*
X166997936Y-75140000D02*
X168202064Y-75140000D01*
X166997936Y-77860000D02*
X168202064Y-77860000D01*
X178797936Y-77860000D02*
X180002064Y-77860000D01*
X178797936Y-75140000D02*
X180002064Y-75140000D01*
X129835000Y-79885000D02*
X129835000Y-77600000D01*
X128365000Y-79885000D02*
X129835000Y-79885000D01*
X128365000Y-77600000D02*
X128365000Y-79885000D01*
X172990000Y-76662779D02*
X172990000Y-76337221D01*
X174010000Y-76662779D02*
X174010000Y-76337221D01*
X170990000Y-76662779D02*
X170990000Y-76337221D01*
X172010000Y-76662779D02*
X172010000Y-76337221D01*
X172010000Y-81337221D02*
X172010000Y-81662779D01*
X170990000Y-81337221D02*
X170990000Y-81662779D01*
X183510000Y-76662779D02*
X183510000Y-76337221D01*
X182490000Y-76662779D02*
X182490000Y-76337221D01*
X182490000Y-81324721D02*
X182490000Y-81650279D01*
X183510000Y-81324721D02*
X183510000Y-81650279D01*
X185610000Y-76662779D02*
X185610000Y-76337221D01*
X184590000Y-76662779D02*
X184590000Y-76337221D01*
X162937221Y-83990000D02*
X163262779Y-83990000D01*
X162937221Y-85010000D02*
X163262779Y-85010000D01*
X176450279Y-83990000D02*
X176124721Y-83990000D01*
X176450279Y-85010000D02*
X176124721Y-85010000D01*
X164510000Y-76337221D02*
X164510000Y-76662779D01*
X163490000Y-76337221D02*
X163490000Y-76662779D01*
X174990000Y-76337221D02*
X174990000Y-76662779D01*
X176010000Y-76337221D02*
X176010000Y-76662779D01*
X131000000Y-82922221D02*
X131000000Y-83247779D01*
X132020000Y-82922221D02*
X132020000Y-83247779D01*
X198637221Y-75935000D02*
X198962779Y-75935000D01*
X198637221Y-74915000D02*
X198962779Y-74915000D01*
D12*
X125048095Y-80087380D02*
X125048095Y-80896904D01*
X125095714Y-80992142D01*
X125143333Y-81039761D01*
X125238571Y-81087380D01*
X125429047Y-81087380D01*
X125524285Y-81039761D01*
X125571904Y-80992142D01*
X125619523Y-80896904D01*
X125619523Y-80087380D01*
X126000476Y-80087380D02*
X126619523Y-80087380D01*
X126286190Y-80468333D01*
X126429047Y-80468333D01*
X126524285Y-80515952D01*
X126571904Y-80563571D01*
X126619523Y-80658809D01*
X126619523Y-80896904D01*
X126571904Y-80992142D01*
X126524285Y-81039761D01*
X126429047Y-81087380D01*
X126143333Y-81087380D01*
X126048095Y-81039761D01*
X126000476Y-80992142D01*
X160418095Y-84522380D02*
X160418095Y-85331904D01*
X160465714Y-85427142D01*
X160513333Y-85474761D01*
X160608571Y-85522380D01*
X160799047Y-85522380D01*
X160894285Y-85474761D01*
X160941904Y-85427142D01*
X160989523Y-85331904D01*
X160989523Y-84522380D01*
X161608571Y-84950952D02*
X161513333Y-84903333D01*
X161465714Y-84855714D01*
X161418095Y-84760476D01*
X161418095Y-84712857D01*
X161465714Y-84617619D01*
X161513333Y-84570000D01*
X161608571Y-84522380D01*
X161799047Y-84522380D01*
X161894285Y-84570000D01*
X161941904Y-84617619D01*
X161989523Y-84712857D01*
X161989523Y-84760476D01*
X161941904Y-84855714D01*
X161894285Y-84903333D01*
X161799047Y-84950952D01*
X161608571Y-84950952D01*
X161513333Y-84998571D01*
X161465714Y-85046190D01*
X161418095Y-85141428D01*
X161418095Y-85331904D01*
X161465714Y-85427142D01*
X161513333Y-85474761D01*
X161608571Y-85522380D01*
X161799047Y-85522380D01*
X161894285Y-85474761D01*
X161941904Y-85427142D01*
X161989523Y-85331904D01*
X161989523Y-85141428D01*
X161941904Y-85046190D01*
X161894285Y-84998571D01*
X161799047Y-84950952D01*
X147466666Y-95704761D02*
X147609523Y-95752380D01*
X147847619Y-95752380D01*
X147942857Y-95704761D01*
X147990476Y-95657142D01*
X148038095Y-95561904D01*
X148038095Y-95466666D01*
X147990476Y-95371428D01*
X147942857Y-95323809D01*
X147847619Y-95276190D01*
X147657142Y-95228571D01*
X147561904Y-95180952D01*
X147514285Y-95133333D01*
X147466666Y-95038095D01*
X147466666Y-94942857D01*
X147514285Y-94847619D01*
X147561904Y-94800000D01*
X147657142Y-94752380D01*
X147895238Y-94752380D01*
X148038095Y-94800000D01*
X148371428Y-94752380D02*
X148609523Y-95752380D01*
X148800000Y-95038095D01*
X148990476Y-95752380D01*
X149228571Y-94752380D01*
X150133333Y-95752380D02*
X149561904Y-95752380D01*
X149847619Y-95752380D02*
X149847619Y-94752380D01*
X149752380Y-94895238D01*
X149657142Y-94990476D01*
X149561904Y-95038095D01*
X178338095Y-87352380D02*
X178338095Y-88161904D01*
X178385714Y-88257142D01*
X178433333Y-88304761D01*
X178528571Y-88352380D01*
X178719047Y-88352380D01*
X178814285Y-88304761D01*
X178861904Y-88257142D01*
X178909523Y-88161904D01*
X178909523Y-87352380D01*
X179433333Y-88352380D02*
X179623809Y-88352380D01*
X179719047Y-88304761D01*
X179766666Y-88257142D01*
X179861904Y-88114285D01*
X179909523Y-87923809D01*
X179909523Y-87542857D01*
X179861904Y-87447619D01*
X179814285Y-87400000D01*
X179719047Y-87352380D01*
X179528571Y-87352380D01*
X179433333Y-87400000D01*
X179385714Y-87447619D01*
X179338095Y-87542857D01*
X179338095Y-87780952D01*
X179385714Y-87876190D01*
X179433333Y-87923809D01*
X179528571Y-87971428D01*
X179719047Y-87971428D01*
X179814285Y-87923809D01*
X179861904Y-87876190D01*
X179909523Y-87780952D01*
X133238095Y-87252380D02*
X133238095Y-88061904D01*
X133285714Y-88157142D01*
X133333333Y-88204761D01*
X133428571Y-88252380D01*
X133619047Y-88252380D01*
X133714285Y-88204761D01*
X133761904Y-88157142D01*
X133809523Y-88061904D01*
X133809523Y-87252380D01*
X134190476Y-87252380D02*
X134857142Y-87252380D01*
X134428571Y-88252380D01*
X195726666Y-95453544D02*
X195869523Y-95501163D01*
X196107619Y-95501163D01*
X196202857Y-95453544D01*
X196250476Y-95405925D01*
X196298095Y-95310687D01*
X196298095Y-95215449D01*
X196250476Y-95120211D01*
X196202857Y-95072592D01*
X196107619Y-95024973D01*
X195917142Y-94977354D01*
X195821904Y-94929735D01*
X195774285Y-94882116D01*
X195726666Y-94786878D01*
X195726666Y-94691640D01*
X195774285Y-94596402D01*
X195821904Y-94548783D01*
X195917142Y-94501163D01*
X196155238Y-94501163D01*
X196298095Y-94548783D01*
X196631428Y-94501163D02*
X196869523Y-95501163D01*
X197060000Y-94786878D01*
X197250476Y-95501163D01*
X197488571Y-94501163D01*
X197821904Y-94596402D02*
X197869523Y-94548783D01*
X197964761Y-94501163D01*
X198202857Y-94501163D01*
X198298095Y-94548783D01*
X198345714Y-94596402D01*
X198393333Y-94691640D01*
X198393333Y-94786878D01*
X198345714Y-94929735D01*
X197774285Y-95501163D01*
X198393333Y-95501163D01*
X149802380Y-77333333D02*
X150516666Y-77333333D01*
X150659523Y-77380952D01*
X150754761Y-77476190D01*
X150802380Y-77619047D01*
X150802380Y-77714285D01*
X149897619Y-76904761D02*
X149850000Y-76857142D01*
X149802380Y-76761904D01*
X149802380Y-76523809D01*
X149850000Y-76428571D01*
X149897619Y-76380952D01*
X149992857Y-76333333D01*
X150088095Y-76333333D01*
X150230952Y-76380952D01*
X150802380Y-76952380D01*
X150802380Y-76333333D01*
X141266666Y-79202380D02*
X141266666Y-79916666D01*
X141219047Y-80059523D01*
X141123809Y-80154761D01*
X140980952Y-80202380D01*
X140885714Y-80202380D01*
X142266666Y-80202380D02*
X141695238Y-80202380D01*
X141980952Y-80202380D02*
X141980952Y-79202380D01*
X141885714Y-79345238D01*
X141790476Y-79440476D01*
X141695238Y-79488095D01*
X169652380Y-82061904D02*
X170461904Y-82061904D01*
X170557142Y-82014285D01*
X170604761Y-81966666D01*
X170652380Y-81871428D01*
X170652380Y-81680952D01*
X170604761Y-81585714D01*
X170557142Y-81538095D01*
X170461904Y-81490476D01*
X169652380Y-81490476D01*
X169652380Y-80585714D02*
X169652380Y-80776190D01*
X169700000Y-80871428D01*
X169747619Y-80919047D01*
X169890476Y-81014285D01*
X170080952Y-81061904D01*
X170461904Y-81061904D01*
X170557142Y-81014285D01*
X170604761Y-80966666D01*
X170652380Y-80871428D01*
X170652380Y-80680952D01*
X170604761Y-80585714D01*
X170557142Y-80538095D01*
X170461904Y-80490476D01*
X170223809Y-80490476D01*
X170128571Y-80538095D01*
X170080952Y-80585714D01*
X170033333Y-80680952D01*
X170033333Y-80871428D01*
X170080952Y-80966666D01*
X170128571Y-81014285D01*
X170223809Y-81061904D01*
X176452380Y-81961904D02*
X177261904Y-81961904D01*
X177357142Y-81914285D01*
X177404761Y-81866666D01*
X177452380Y-81771428D01*
X177452380Y-81580952D01*
X177404761Y-81485714D01*
X177357142Y-81438095D01*
X177261904Y-81390476D01*
X176452380Y-81390476D01*
X176452380Y-80438095D02*
X176452380Y-80914285D01*
X176928571Y-80961904D01*
X176880952Y-80914285D01*
X176833333Y-80819047D01*
X176833333Y-80580952D01*
X176880952Y-80485714D01*
X176928571Y-80438095D01*
X177023809Y-80390476D01*
X177261904Y-80390476D01*
X177357142Y-80438095D01*
X177404761Y-80485714D01*
X177452380Y-80580952D01*
X177452380Y-80819047D01*
X177404761Y-80914285D01*
X177357142Y-80961904D01*
X206040095Y-86549380D02*
X206040095Y-87358904D01*
X206087714Y-87454142D01*
X206135333Y-87501761D01*
X206230571Y-87549380D01*
X206421047Y-87549380D01*
X206516285Y-87501761D01*
X206563904Y-87454142D01*
X206611523Y-87358904D01*
X206611523Y-86549380D01*
X207516285Y-86882714D02*
X207516285Y-87549380D01*
X207278190Y-86501761D02*
X207040095Y-87216047D01*
X207659142Y-87216047D01*
X201238095Y-81352380D02*
X201238095Y-82161904D01*
X201285714Y-82257142D01*
X201333333Y-82304761D01*
X201428571Y-82352380D01*
X201619047Y-82352380D01*
X201714285Y-82304761D01*
X201761904Y-82257142D01*
X201809523Y-82161904D01*
X201809523Y-81352380D01*
X202238095Y-81447619D02*
X202285714Y-81400000D01*
X202380952Y-81352380D01*
X202619047Y-81352380D01*
X202714285Y-81400000D01*
X202761904Y-81447619D01*
X202809523Y-81542857D01*
X202809523Y-81638095D01*
X202761904Y-81780952D01*
X202190476Y-82352380D01*
X202809523Y-82352380D01*
X195038095Y-82952380D02*
X195038095Y-83761904D01*
X195085714Y-83857142D01*
X195133333Y-83904761D01*
X195228571Y-83952380D01*
X195419047Y-83952380D01*
X195514285Y-83904761D01*
X195561904Y-83857142D01*
X195609523Y-83761904D01*
X195609523Y-82952380D01*
X196609523Y-83952380D02*
X196038095Y-83952380D01*
X196323809Y-83952380D02*
X196323809Y-82952380D01*
X196228571Y-83095238D01*
X196133333Y-83190476D01*
X196038095Y-83238095D01*
X128633333Y-90352380D02*
X128300000Y-89876190D01*
X128061904Y-90352380D02*
X128061904Y-89352380D01*
X128442857Y-89352380D01*
X128538095Y-89400000D01*
X128585714Y-89447619D01*
X128633333Y-89542857D01*
X128633333Y-89685714D01*
X128585714Y-89780952D01*
X128538095Y-89828571D01*
X128442857Y-89876190D01*
X128061904Y-89876190D01*
X129014285Y-89447619D02*
X129061904Y-89400000D01*
X129157142Y-89352380D01*
X129395238Y-89352380D01*
X129490476Y-89400000D01*
X129538095Y-89447619D01*
X129585714Y-89542857D01*
X129585714Y-89638095D01*
X129538095Y-89780952D01*
X128966666Y-90352380D01*
X129585714Y-90352380D01*
M02*
