G04 #@! TF.GenerationSoftware,KiCad,Pcbnew,(5.1.5)-3*
G04 #@! TF.CreationDate,2021-08-11T14:04:56+02:00*
G04 #@! TF.ProjectId,18650_UPS_PCB,31383635-305f-4555-9053-5f5043422e6b,rev?*
G04 #@! TF.SameCoordinates,Original*
G04 #@! TF.FileFunction,Soldermask,Bot*
G04 #@! TF.FilePolarity,Negative*
%FSLAX46Y46*%
G04 Gerber Fmt 4.6, Leading zero omitted, Abs format (unit mm)*
G04 Created by KiCad (PCBNEW (5.1.5)-3) date 2021-08-11 14:04:56*
%MOMM*%
%LPD*%
G04 APERTURE LIST*
%ADD10C,0.100000*%
G04 APERTURE END LIST*
D10*
G36*
X203247617Y-94695920D02*
G01*
X203338403Y-94723460D01*
X203370335Y-94733146D01*
X203483424Y-94793594D01*
X203582554Y-94874947D01*
X203663906Y-94974075D01*
X203724354Y-95087164D01*
X203734040Y-95119096D01*
X203761580Y-95209882D01*
X203771000Y-95305527D01*
X203771000Y-96069473D01*
X203761580Y-96165118D01*
X203734040Y-96255904D01*
X203724354Y-96287836D01*
X203663906Y-96400925D01*
X203582554Y-96500054D01*
X203483425Y-96581406D01*
X203370336Y-96641854D01*
X203338404Y-96651540D01*
X203247618Y-96679080D01*
X203120000Y-96691649D01*
X202992383Y-96679080D01*
X202901597Y-96651540D01*
X202869665Y-96641854D01*
X202756576Y-96581406D01*
X202657447Y-96500054D01*
X202576095Y-96400925D01*
X202515648Y-96287837D01*
X202515645Y-96287832D01*
X202478420Y-96165118D01*
X202469000Y-96069473D01*
X202469000Y-95305528D01*
X202478420Y-95209883D01*
X202515645Y-95087169D01*
X202515646Y-95087165D01*
X202576094Y-94974076D01*
X202657447Y-94874946D01*
X202756575Y-94793594D01*
X202869664Y-94733146D01*
X202901596Y-94723460D01*
X202992382Y-94695920D01*
X203120000Y-94683351D01*
X203247617Y-94695920D01*
G37*
G36*
X196247618Y-94695920D02*
G01*
X196338404Y-94723460D01*
X196370336Y-94733146D01*
X196483425Y-94793594D01*
X196582554Y-94874946D01*
X196663906Y-94974075D01*
X196724354Y-95087164D01*
X196734040Y-95119096D01*
X196761580Y-95209882D01*
X196771000Y-95305527D01*
X196771000Y-96069473D01*
X196761580Y-96165118D01*
X196734040Y-96255904D01*
X196724354Y-96287836D01*
X196663906Y-96400925D01*
X196582554Y-96500053D01*
X196483424Y-96581406D01*
X196370335Y-96641854D01*
X196338403Y-96651540D01*
X196247617Y-96679080D01*
X196120000Y-96691649D01*
X195992382Y-96679080D01*
X195901596Y-96651540D01*
X195869664Y-96641854D01*
X195756575Y-96581406D01*
X195657447Y-96500054D01*
X195576094Y-96400924D01*
X195515646Y-96287835D01*
X195505960Y-96255903D01*
X195478420Y-96165117D01*
X195469000Y-96069472D01*
X195469000Y-95305527D01*
X195478420Y-95209882D01*
X195515645Y-95087168D01*
X195540608Y-95040466D01*
X195576095Y-94974075D01*
X195657447Y-94874946D01*
X195756576Y-94793594D01*
X195869665Y-94733146D01*
X195901597Y-94723460D01*
X195992383Y-94695920D01*
X196120000Y-94683351D01*
X196247618Y-94695920D01*
G37*
G36*
X193828039Y-91977250D02*
G01*
X193965045Y-92034000D01*
X194151251Y-92111129D01*
X194442134Y-92305491D01*
X194689509Y-92552866D01*
X194828679Y-92761149D01*
X194883871Y-92843749D01*
X195017750Y-93166960D01*
X195086000Y-93510078D01*
X195086000Y-93859921D01*
X195017750Y-94203039D01*
X194939325Y-94392372D01*
X194883871Y-94526251D01*
X194689509Y-94817134D01*
X194442134Y-95064509D01*
X194151251Y-95258871D01*
X194038613Y-95305527D01*
X193828039Y-95392750D01*
X193484922Y-95461000D01*
X193135078Y-95461000D01*
X192791961Y-95392750D01*
X192581387Y-95305527D01*
X192468749Y-95258871D01*
X192177866Y-95064509D01*
X191930491Y-94817134D01*
X191736129Y-94526251D01*
X191680675Y-94392372D01*
X191602250Y-94203039D01*
X191534000Y-93859921D01*
X191534000Y-93510078D01*
X191602250Y-93166960D01*
X191736129Y-92843749D01*
X191791321Y-92761149D01*
X191930491Y-92552866D01*
X192177866Y-92305491D01*
X192468749Y-92111129D01*
X192654955Y-92034000D01*
X192791961Y-91977250D01*
X193135078Y-91909000D01*
X193484922Y-91909000D01*
X193828039Y-91977250D01*
G37*
G36*
X124685256Y-92076298D02*
G01*
X124791579Y-92097447D01*
X125092042Y-92221903D01*
X125362451Y-92402585D01*
X125592415Y-92632549D01*
X125773097Y-92902958D01*
X125897553Y-93203421D01*
X125918702Y-93309744D01*
X125953000Y-93482169D01*
X125961000Y-93522391D01*
X125961000Y-93847609D01*
X125897553Y-94166579D01*
X125773097Y-94467042D01*
X125592415Y-94737451D01*
X125362451Y-94967415D01*
X125092042Y-95148097D01*
X124791579Y-95272553D01*
X124685256Y-95293702D01*
X124472611Y-95336000D01*
X124147389Y-95336000D01*
X123934744Y-95293702D01*
X123828421Y-95272553D01*
X123527958Y-95148097D01*
X123257549Y-94967415D01*
X123027585Y-94737451D01*
X122846903Y-94467042D01*
X122722447Y-94166579D01*
X122659000Y-93847609D01*
X122659000Y-93522391D01*
X122667001Y-93482169D01*
X122701298Y-93309744D01*
X122722447Y-93203421D01*
X122846903Y-92902958D01*
X123027585Y-92632549D01*
X123257549Y-92402585D01*
X123527958Y-92221903D01*
X123828421Y-92097447D01*
X123934744Y-92076298D01*
X124147389Y-92034000D01*
X124472611Y-92034000D01*
X124685256Y-92076298D01*
G37*
G36*
X207685256Y-92076298D02*
G01*
X207791579Y-92097447D01*
X208092042Y-92221903D01*
X208362451Y-92402585D01*
X208592415Y-92632549D01*
X208773097Y-92902958D01*
X208897553Y-93203421D01*
X208918702Y-93309744D01*
X208953000Y-93482169D01*
X208961000Y-93522391D01*
X208961000Y-93847609D01*
X208897553Y-94166579D01*
X208773097Y-94467042D01*
X208592415Y-94737451D01*
X208362451Y-94967415D01*
X208092042Y-95148097D01*
X207791579Y-95272553D01*
X207685256Y-95293702D01*
X207472611Y-95336000D01*
X207147389Y-95336000D01*
X206934744Y-95293702D01*
X206828421Y-95272553D01*
X206527958Y-95148097D01*
X206257549Y-94967415D01*
X206027585Y-94737451D01*
X205846903Y-94467042D01*
X205722447Y-94166579D01*
X205659000Y-93847609D01*
X205659000Y-93522391D01*
X205667001Y-93482169D01*
X205701298Y-93309744D01*
X205722447Y-93203421D01*
X205846903Y-92902958D01*
X206027585Y-92632549D01*
X206257549Y-92402585D01*
X206527958Y-92221903D01*
X206828421Y-92097447D01*
X206934744Y-92076298D01*
X207147389Y-92034000D01*
X207472611Y-92034000D01*
X207685256Y-92076298D01*
G37*
G36*
X202346348Y-92241320D02*
G01*
X202346350Y-92241321D01*
X202346351Y-92241321D01*
X202487574Y-92299817D01*
X202487577Y-92299819D01*
X202614669Y-92384739D01*
X202722761Y-92492831D01*
X202807681Y-92619923D01*
X202807683Y-92619926D01*
X202812912Y-92632551D01*
X202866180Y-92761152D01*
X202896000Y-92911069D01*
X202896000Y-93063931D01*
X202868254Y-93203422D01*
X202866179Y-93213851D01*
X202807683Y-93355074D01*
X202807681Y-93355077D01*
X202722761Y-93482169D01*
X202614669Y-93590261D01*
X202487577Y-93675181D01*
X202487574Y-93675183D01*
X202346351Y-93733679D01*
X202346350Y-93733679D01*
X202346348Y-93733680D01*
X202196431Y-93763500D01*
X202043569Y-93763500D01*
X201893652Y-93733680D01*
X201893650Y-93733679D01*
X201893649Y-93733679D01*
X201752426Y-93675183D01*
X201752423Y-93675181D01*
X201625331Y-93590261D01*
X201517239Y-93482169D01*
X201432319Y-93355077D01*
X201432317Y-93355074D01*
X201373821Y-93213851D01*
X201371747Y-93203422D01*
X201344000Y-93063931D01*
X201344000Y-92911069D01*
X201373820Y-92761152D01*
X201427088Y-92632551D01*
X201432317Y-92619926D01*
X201432319Y-92619923D01*
X201517239Y-92492831D01*
X201625331Y-92384739D01*
X201752423Y-92299819D01*
X201752426Y-92299817D01*
X201893649Y-92241321D01*
X201893650Y-92241321D01*
X201893652Y-92241320D01*
X202043569Y-92211500D01*
X202196431Y-92211500D01*
X202346348Y-92241320D01*
G37*
G36*
X197346348Y-92241320D02*
G01*
X197346350Y-92241321D01*
X197346351Y-92241321D01*
X197487574Y-92299817D01*
X197487577Y-92299819D01*
X197614669Y-92384739D01*
X197722761Y-92492831D01*
X197807681Y-92619923D01*
X197807683Y-92619926D01*
X197812912Y-92632551D01*
X197866180Y-92761152D01*
X197896000Y-92911069D01*
X197896000Y-93063931D01*
X197868254Y-93203422D01*
X197866179Y-93213851D01*
X197807683Y-93355074D01*
X197807681Y-93355077D01*
X197722761Y-93482169D01*
X197614669Y-93590261D01*
X197487577Y-93675181D01*
X197487574Y-93675183D01*
X197346351Y-93733679D01*
X197346350Y-93733679D01*
X197346348Y-93733680D01*
X197196431Y-93763500D01*
X197043569Y-93763500D01*
X196893652Y-93733680D01*
X196893650Y-93733679D01*
X196893649Y-93733679D01*
X196752426Y-93675183D01*
X196752423Y-93675181D01*
X196625331Y-93590261D01*
X196517239Y-93482169D01*
X196432319Y-93355077D01*
X196432317Y-93355074D01*
X196373821Y-93213851D01*
X196371747Y-93203422D01*
X196344000Y-93063931D01*
X196344000Y-92911069D01*
X196373820Y-92761152D01*
X196427088Y-92632551D01*
X196432317Y-92619926D01*
X196432319Y-92619923D01*
X196517239Y-92492831D01*
X196625331Y-92384739D01*
X196752423Y-92299819D01*
X196752426Y-92299817D01*
X196893649Y-92241321D01*
X196893650Y-92241321D01*
X196893652Y-92241320D01*
X197043569Y-92211500D01*
X197196431Y-92211500D01*
X197346348Y-92241320D01*
G37*
G36*
X130101000Y-88911000D02*
G01*
X122659000Y-88911000D01*
X122659000Y-82459000D01*
X130101000Y-82459000D01*
X130101000Y-88911000D01*
G37*
G36*
X208761000Y-88911000D02*
G01*
X201319000Y-88911000D01*
X201319000Y-82459000D01*
X208761000Y-82459000D01*
X208761000Y-88911000D01*
G37*
G36*
X138628039Y-75977250D02*
G01*
X138765045Y-76034000D01*
X138951251Y-76111129D01*
X139242134Y-76305491D01*
X139489509Y-76552866D01*
X139599292Y-76717168D01*
X139683871Y-76843749D01*
X139817750Y-77166960D01*
X139886000Y-77510078D01*
X139886000Y-77859921D01*
X139817750Y-78203039D01*
X139787859Y-78275201D01*
X139683871Y-78526251D01*
X139489509Y-78817134D01*
X139242134Y-79064509D01*
X138951251Y-79258871D01*
X138817372Y-79314325D01*
X138628039Y-79392750D01*
X138284922Y-79461000D01*
X137935078Y-79461000D01*
X137591961Y-79392750D01*
X137402628Y-79314325D01*
X137268749Y-79258871D01*
X136977866Y-79064509D01*
X136730491Y-78817134D01*
X136536129Y-78526251D01*
X136432141Y-78275201D01*
X136402250Y-78203039D01*
X136334000Y-77859921D01*
X136334000Y-77510078D01*
X136402250Y-77166960D01*
X136536129Y-76843749D01*
X136620708Y-76717168D01*
X136730491Y-76552866D01*
X136977866Y-76305491D01*
X137268749Y-76111129D01*
X137454955Y-76034000D01*
X137591961Y-75977250D01*
X137935078Y-75909000D01*
X138284922Y-75909000D01*
X138628039Y-75977250D01*
G37*
G36*
X207685256Y-76076298D02*
G01*
X207791579Y-76097447D01*
X208004037Y-76185450D01*
X208056817Y-76207312D01*
X208092042Y-76221903D01*
X208362451Y-76402585D01*
X208592415Y-76632549D01*
X208764920Y-76890721D01*
X208773098Y-76902960D01*
X208897553Y-77203422D01*
X208961000Y-77522389D01*
X208961000Y-77847611D01*
X208921051Y-78048445D01*
X208897553Y-78166579D01*
X208773097Y-78467042D01*
X208592415Y-78737451D01*
X208362451Y-78967415D01*
X208092042Y-79148097D01*
X207791579Y-79272553D01*
X207685256Y-79293702D01*
X207472611Y-79336000D01*
X207147389Y-79336000D01*
X206934744Y-79293702D01*
X206828421Y-79272553D01*
X206527958Y-79148097D01*
X206257549Y-78967415D01*
X206027585Y-78737451D01*
X205846903Y-78467042D01*
X205722447Y-78166579D01*
X205698949Y-78048445D01*
X205659000Y-77847611D01*
X205659000Y-77522389D01*
X205722447Y-77203422D01*
X205846902Y-76902960D01*
X205855080Y-76890721D01*
X206027585Y-76632549D01*
X206257549Y-76402585D01*
X206527958Y-76221903D01*
X206563184Y-76207312D01*
X206615963Y-76185450D01*
X206828421Y-76097447D01*
X206934744Y-76076298D01*
X207147389Y-76034000D01*
X207472611Y-76034000D01*
X207685256Y-76076298D01*
G37*
G36*
X124685256Y-76076298D02*
G01*
X124791579Y-76097447D01*
X125004037Y-76185450D01*
X125056817Y-76207312D01*
X125092042Y-76221903D01*
X125362451Y-76402585D01*
X125592415Y-76632549D01*
X125764920Y-76890721D01*
X125773098Y-76902960D01*
X125897553Y-77203422D01*
X125961000Y-77522389D01*
X125961000Y-77847611D01*
X125921051Y-78048445D01*
X125897553Y-78166579D01*
X125773097Y-78467042D01*
X125592415Y-78737451D01*
X125362451Y-78967415D01*
X125092042Y-79148097D01*
X124791579Y-79272553D01*
X124685256Y-79293702D01*
X124472611Y-79336000D01*
X124147389Y-79336000D01*
X123934744Y-79293702D01*
X123828421Y-79272553D01*
X123527958Y-79148097D01*
X123257549Y-78967415D01*
X123027585Y-78737451D01*
X122846903Y-78467042D01*
X122722447Y-78166579D01*
X122698949Y-78048445D01*
X122659000Y-77847611D01*
X122659000Y-77522389D01*
X122722447Y-77203422D01*
X122846902Y-76902960D01*
X122855080Y-76890721D01*
X123027585Y-76632549D01*
X123257549Y-76402585D01*
X123527958Y-76221903D01*
X123563184Y-76207312D01*
X123615963Y-76185450D01*
X123828421Y-76097447D01*
X123934744Y-76076298D01*
X124147389Y-76034000D01*
X124472611Y-76034000D01*
X124685256Y-76076298D01*
G37*
G36*
X202003444Y-76486882D02*
G01*
X202230201Y-76580808D01*
X202230202Y-76580809D01*
X202434279Y-76717168D01*
X202607832Y-76890721D01*
X202698944Y-77027081D01*
X202744192Y-77094799D01*
X202838118Y-77321556D01*
X202886000Y-77562278D01*
X202886000Y-77807722D01*
X202838118Y-78048444D01*
X202744192Y-78275201D01*
X202744191Y-78275202D01*
X202607832Y-78479279D01*
X202434279Y-78652832D01*
X202307640Y-78737449D01*
X202230201Y-78789192D01*
X202003444Y-78883118D01*
X201762722Y-78931000D01*
X201517278Y-78931000D01*
X201276556Y-78883118D01*
X201049799Y-78789192D01*
X200972360Y-78737449D01*
X200845721Y-78652832D01*
X200672168Y-78479279D01*
X200535809Y-78275202D01*
X200535808Y-78275201D01*
X200441882Y-78048444D01*
X200394000Y-77807722D01*
X200394000Y-77562278D01*
X200441882Y-77321556D01*
X200535808Y-77094799D01*
X200581056Y-77027081D01*
X200672168Y-76890721D01*
X200845721Y-76717168D01*
X201049798Y-76580809D01*
X201049799Y-76580808D01*
X201276556Y-76486882D01*
X201517278Y-76439000D01*
X201762722Y-76439000D01*
X202003444Y-76486882D01*
G37*
G36*
X159497740Y-75478626D02*
G01*
X159546136Y-75488253D01*
X159583902Y-75503896D01*
X159637311Y-75526019D01*
X159637312Y-75526020D01*
X159719369Y-75580848D01*
X159789152Y-75650631D01*
X159789153Y-75650633D01*
X159843981Y-75732689D01*
X159881747Y-75823865D01*
X159901000Y-75920655D01*
X159901000Y-76019345D01*
X159881747Y-76116135D01*
X159843981Y-76207311D01*
X159834231Y-76221903D01*
X159789152Y-76289369D01*
X159719369Y-76359152D01*
X159678062Y-76386752D01*
X159637311Y-76413981D01*
X159583902Y-76436104D01*
X159546136Y-76451747D01*
X159497740Y-76461374D01*
X159449345Y-76471000D01*
X159350655Y-76471000D01*
X159302260Y-76461373D01*
X159253864Y-76451747D01*
X159216098Y-76436104D01*
X159162689Y-76413981D01*
X159121938Y-76386752D01*
X159080631Y-76359152D01*
X159010848Y-76289369D01*
X158965769Y-76221903D01*
X158956019Y-76207311D01*
X158918253Y-76116135D01*
X158899000Y-76019345D01*
X158899000Y-75920655D01*
X158918253Y-75823865D01*
X158956019Y-75732689D01*
X159010847Y-75650633D01*
X159010848Y-75650631D01*
X159080631Y-75580848D01*
X159162688Y-75526020D01*
X159162689Y-75526019D01*
X159216098Y-75503896D01*
X159253864Y-75488253D01*
X159302260Y-75478626D01*
X159350655Y-75469000D01*
X159449345Y-75469000D01*
X159497740Y-75478626D01*
G37*
G36*
X156497740Y-75478626D02*
G01*
X156546136Y-75488253D01*
X156583902Y-75503896D01*
X156637311Y-75526019D01*
X156637312Y-75526020D01*
X156719369Y-75580848D01*
X156789152Y-75650631D01*
X156789153Y-75650633D01*
X156843981Y-75732689D01*
X156881747Y-75823865D01*
X156901000Y-75920655D01*
X156901000Y-76019345D01*
X156881747Y-76116135D01*
X156843981Y-76207311D01*
X156834231Y-76221903D01*
X156789152Y-76289369D01*
X156719369Y-76359152D01*
X156678062Y-76386752D01*
X156637311Y-76413981D01*
X156583902Y-76436104D01*
X156546136Y-76451747D01*
X156497740Y-76461374D01*
X156449345Y-76471000D01*
X156350655Y-76471000D01*
X156302260Y-76461373D01*
X156253864Y-76451747D01*
X156216098Y-76436104D01*
X156162689Y-76413981D01*
X156121938Y-76386752D01*
X156080631Y-76359152D01*
X156010848Y-76289369D01*
X155965769Y-76221903D01*
X155956019Y-76207311D01*
X155918253Y-76116135D01*
X155899000Y-76019345D01*
X155899000Y-75920655D01*
X155918253Y-75823865D01*
X155956019Y-75732689D01*
X156010847Y-75650633D01*
X156010848Y-75650631D01*
X156080631Y-75580848D01*
X156162688Y-75526020D01*
X156162689Y-75526019D01*
X156216098Y-75503896D01*
X156253864Y-75488253D01*
X156302260Y-75478626D01*
X156350655Y-75469000D01*
X156449345Y-75469000D01*
X156497740Y-75478626D01*
G37*
M02*
