G04 #@! TF.GenerationSoftware,KiCad,Pcbnew,(5.1.5)-3*
G04 #@! TF.CreationDate,2021-08-11T14:04:56+02:00*
G04 #@! TF.ProjectId,18650_UPS_PCB,31383635-305f-4555-9053-5f5043422e6b,rev?*
G04 #@! TF.SameCoordinates,Original*
G04 #@! TF.FileFunction,Legend,Top*
G04 #@! TF.FilePolarity,Positive*
%FSLAX46Y46*%
G04 Gerber Fmt 4.6, Leading zero omitted, Abs format (unit mm)*
G04 Created by KiCad (PCBNEW (5.1.5)-3) date 2021-08-11 14:04:56*
%MOMM*%
%LPD*%
G04 APERTURE LIST*
%ADD10C,0.120000*%
%ADD11C,0.150000*%
G04 APERTURE END LIST*
D10*
X162450000Y-70850000D02*
X162450000Y-105250000D01*
D11*
X127216785Y-90500000D02*
X127121547Y-90452380D01*
X126978690Y-90452380D01*
X126835833Y-90500000D01*
X126740595Y-90595238D01*
X126692976Y-90690476D01*
X126645357Y-90880952D01*
X126645357Y-91023809D01*
X126692976Y-91214285D01*
X126740595Y-91309523D01*
X126835833Y-91404761D01*
X126978690Y-91452380D01*
X127073928Y-91452380D01*
X127216785Y-91404761D01*
X127264404Y-91357142D01*
X127264404Y-91023809D01*
X127073928Y-91023809D01*
X127692976Y-91452380D02*
X127692976Y-90452380D01*
X128264404Y-91452380D01*
X128264404Y-90452380D01*
X128740595Y-91452380D02*
X128740595Y-90452380D01*
X128978690Y-90452380D01*
X129121547Y-90500000D01*
X129216785Y-90595238D01*
X129264404Y-90690476D01*
X129312023Y-90880952D01*
X129312023Y-91023809D01*
X129264404Y-91214285D01*
X129216785Y-91309523D01*
X129121547Y-91404761D01*
X128978690Y-91452380D01*
X128740595Y-91452380D01*
X126708452Y-86827380D02*
X127327500Y-86827380D01*
X126994166Y-87208333D01*
X127137023Y-87208333D01*
X127232261Y-87255952D01*
X127279880Y-87303571D01*
X127327500Y-87398809D01*
X127327500Y-87636904D01*
X127279880Y-87732142D01*
X127232261Y-87779761D01*
X127137023Y-87827380D01*
X126851309Y-87827380D01*
X126756071Y-87779761D01*
X126708452Y-87732142D01*
X127613214Y-86827380D02*
X127946547Y-87827380D01*
X128279880Y-86827380D01*
X128517976Y-86827380D02*
X129137023Y-86827380D01*
X128803690Y-87208333D01*
X128946547Y-87208333D01*
X129041785Y-87255952D01*
X129089404Y-87303571D01*
X129137023Y-87398809D01*
X129137023Y-87636904D01*
X129089404Y-87732142D01*
X129041785Y-87779761D01*
X128946547Y-87827380D01*
X128660833Y-87827380D01*
X128565595Y-87779761D01*
X128517976Y-87732142D01*
X126756071Y-84154761D02*
X126898928Y-84202380D01*
X127137023Y-84202380D01*
X127232261Y-84154761D01*
X127279880Y-84107142D01*
X127327500Y-84011904D01*
X127327500Y-83916666D01*
X127279880Y-83821428D01*
X127232261Y-83773809D01*
X127137023Y-83726190D01*
X126946547Y-83678571D01*
X126851309Y-83630952D01*
X126803690Y-83583333D01*
X126756071Y-83488095D01*
X126756071Y-83392857D01*
X126803690Y-83297619D01*
X126851309Y-83250000D01*
X126946547Y-83202380D01*
X127184642Y-83202380D01*
X127327500Y-83250000D01*
X128327500Y-84107142D02*
X128279880Y-84154761D01*
X128137023Y-84202380D01*
X128041785Y-84202380D01*
X127898928Y-84154761D01*
X127803690Y-84059523D01*
X127756071Y-83964285D01*
X127708452Y-83773809D01*
X127708452Y-83630952D01*
X127756071Y-83440476D01*
X127803690Y-83345238D01*
X127898928Y-83250000D01*
X128041785Y-83202380D01*
X128137023Y-83202380D01*
X128279880Y-83250000D01*
X128327500Y-83297619D01*
X129232261Y-84202380D02*
X128756071Y-84202380D01*
X128756071Y-83202380D01*
X126683452Y-80579761D02*
X126826309Y-80627380D01*
X127064404Y-80627380D01*
X127159642Y-80579761D01*
X127207261Y-80532142D01*
X127254880Y-80436904D01*
X127254880Y-80341666D01*
X127207261Y-80246428D01*
X127159642Y-80198809D01*
X127064404Y-80151190D01*
X126873928Y-80103571D01*
X126778690Y-80055952D01*
X126731071Y-80008333D01*
X126683452Y-79913095D01*
X126683452Y-79817857D01*
X126731071Y-79722619D01*
X126778690Y-79675000D01*
X126873928Y-79627380D01*
X127112023Y-79627380D01*
X127254880Y-79675000D01*
X127683452Y-80627380D02*
X127683452Y-79627380D01*
X127921547Y-79627380D01*
X128064404Y-79675000D01*
X128159642Y-79770238D01*
X128207261Y-79865476D01*
X128254880Y-80055952D01*
X128254880Y-80198809D01*
X128207261Y-80389285D01*
X128159642Y-80484523D01*
X128064404Y-80579761D01*
X127921547Y-80627380D01*
X127683452Y-80627380D01*
X128635833Y-80341666D02*
X129112023Y-80341666D01*
X128540595Y-80627380D02*
X128873928Y-79627380D01*
X129207261Y-80627380D01*
X154345357Y-80077380D02*
X153869166Y-80077380D01*
X153869166Y-79077380D01*
X154678690Y-80077380D02*
X154678690Y-79077380D01*
X154916785Y-79077380D01*
X155059642Y-79125000D01*
X155154880Y-79220238D01*
X155202500Y-79315476D01*
X155250119Y-79505952D01*
X155250119Y-79648809D01*
X155202500Y-79839285D01*
X155154880Y-79934523D01*
X155059642Y-80029761D01*
X154916785Y-80077380D01*
X154678690Y-80077380D01*
X155869166Y-79077380D02*
X156059642Y-79077380D01*
X156154880Y-79125000D01*
X156250119Y-79220238D01*
X156297738Y-79410714D01*
X156297738Y-79744047D01*
X156250119Y-79934523D01*
X156154880Y-80029761D01*
X156059642Y-80077380D01*
X155869166Y-80077380D01*
X155773928Y-80029761D01*
X155678690Y-79934523D01*
X155631071Y-79744047D01*
X155631071Y-79410714D01*
X155678690Y-79220238D01*
X155773928Y-79125000D01*
X155869166Y-79077380D01*
X156726309Y-79696428D02*
X157488214Y-79696428D01*
X158535833Y-79982142D02*
X158488214Y-80029761D01*
X158345357Y-80077380D01*
X158250119Y-80077380D01*
X158107261Y-80029761D01*
X158012023Y-79934523D01*
X157964404Y-79839285D01*
X157916785Y-79648809D01*
X157916785Y-79505952D01*
X157964404Y-79315476D01*
X158012023Y-79220238D01*
X158107261Y-79125000D01*
X158250119Y-79077380D01*
X158345357Y-79077380D01*
X158488214Y-79125000D01*
X158535833Y-79172619D01*
X158964404Y-79553571D02*
X159297738Y-79553571D01*
X159440595Y-80077380D02*
X158964404Y-80077380D01*
X158964404Y-79077380D01*
X159440595Y-79077380D01*
X160631071Y-79696428D02*
X161392976Y-79696428D01*
X161726309Y-79172619D02*
X161916785Y-79029761D01*
X162107261Y-79172619D01*
D10*
X203822500Y-88800279D02*
X203822500Y-88474721D01*
X202802500Y-88800279D02*
X202802500Y-88474721D01*
X174700000Y-86900000D02*
X164500000Y-86900000D01*
X164500000Y-97100000D02*
X174700000Y-97100000D01*
X182712779Y-81040000D02*
X182387221Y-81040000D01*
X182712779Y-82060000D02*
X182387221Y-82060000D01*
X178810000Y-77562779D02*
X178810000Y-77237221D01*
X177790000Y-77562779D02*
X177790000Y-77237221D01*
X151170000Y-90795000D02*
X152120000Y-90795000D01*
X152120000Y-90795000D02*
X152120000Y-89845000D01*
X142850000Y-90795000D02*
X141900000Y-90795000D01*
X141900000Y-90795000D02*
X141900000Y-89845000D01*
X151170000Y-80575000D02*
X152120000Y-80575000D01*
X152120000Y-80575000D02*
X152120000Y-81525000D01*
X142850000Y-80575000D02*
X141900000Y-80575000D01*
X141900000Y-80575000D02*
X141900000Y-81525000D01*
X141900000Y-81525000D02*
X140560000Y-81525000D01*
X193720000Y-79350000D02*
X193720000Y-76425000D01*
X193720000Y-79350000D02*
X193720000Y-80850000D01*
X190500000Y-79350000D02*
X190500000Y-77850000D01*
X190500000Y-79350000D02*
X190500000Y-80850000D01*
X143740000Y-76174721D02*
X143740000Y-76500279D01*
X144760000Y-76174721D02*
X144760000Y-76500279D01*
X147210000Y-76187221D02*
X147210000Y-76512779D01*
X146190000Y-76187221D02*
X146190000Y-76512779D01*
X188230000Y-97110000D02*
X183150000Y-97110000D01*
X188230000Y-90110000D02*
X188230000Y-97110000D01*
X183150000Y-90110000D02*
X183150000Y-97110000D01*
X183150000Y-90110000D02*
X188230000Y-90110000D01*
X181880000Y-97110000D02*
X176800000Y-97110000D01*
X181880000Y-90110000D02*
X181880000Y-97110000D01*
X176800000Y-90110000D02*
X176800000Y-97110000D01*
X176800000Y-90110000D02*
X181880000Y-90110000D01*
X133160000Y-90985000D02*
G75*
G03X133160000Y-90985000I-1450000J0D01*
G01*
X133160000Y-87385000D02*
G75*
G03X133160000Y-87385000I-1450000J0D01*
G01*
X133160000Y-83785000D02*
G75*
G03X133160000Y-83785000I-1450000J0D01*
G01*
X133160000Y-80185000D02*
G75*
G03X133160000Y-80185000I-1450000J0D01*
G01*
X154450000Y-75580000D02*
X154450000Y-76370000D01*
X161350000Y-76370000D02*
X161350000Y-75580000D01*
X159500000Y-77420000D02*
X157800000Y-77420000D01*
X160750000Y-74570000D02*
X155050000Y-74570000D01*
X158000000Y-73280000D02*
X158000000Y-74570000D01*
X159100000Y-73070000D02*
X158200000Y-73070000D01*
X159300000Y-74570000D02*
X159300000Y-73280000D01*
X158000000Y-73280000D02*
X158200000Y-73070000D01*
X159300000Y-73280000D02*
X159100000Y-73070000D01*
X156500000Y-77420000D02*
X156300000Y-77420000D01*
X188360000Y-77512779D02*
X188360000Y-77187221D01*
X187340000Y-77512779D02*
X187340000Y-77187221D01*
X192331078Y-84140000D02*
X191813922Y-84140000D01*
X192331078Y-85560000D02*
X191813922Y-85560000D01*
X187340000Y-81137221D02*
X187340000Y-81462779D01*
X188360000Y-81137221D02*
X188360000Y-81462779D01*
X137387221Y-81790000D02*
X137712779Y-81790000D01*
X137387221Y-82810000D02*
X137712779Y-82810000D01*
X137712779Y-87260000D02*
X137387221Y-87260000D01*
X137712779Y-86240000D02*
X137387221Y-86240000D01*
X137712779Y-89560000D02*
X137387221Y-89560000D01*
X137712779Y-88540000D02*
X137387221Y-88540000D01*
X142310000Y-76174721D02*
X142310000Y-76500279D01*
X141290000Y-76174721D02*
X141290000Y-76500279D01*
X156137221Y-81790000D02*
X156462779Y-81790000D01*
X156137221Y-82810000D02*
X156462779Y-82810000D01*
X155935000Y-93862221D02*
X155935000Y-94187779D01*
X154915000Y-93862221D02*
X154915000Y-94187779D01*
X140615000Y-94212779D02*
X140615000Y-93887221D01*
X141635000Y-94212779D02*
X141635000Y-93887221D01*
X152415000Y-93862221D02*
X152415000Y-94187779D01*
X153435000Y-93862221D02*
X153435000Y-94187779D01*
X137712779Y-85010000D02*
X137387221Y-85010000D01*
X137712779Y-83990000D02*
X137387221Y-83990000D01*
X198620000Y-86635000D02*
X198620000Y-85935000D01*
X198620000Y-84735000D02*
X198620000Y-85435000D01*
X200620000Y-84735000D02*
X200620000Y-85435000D01*
X200620000Y-86635000D02*
X200620000Y-85935000D01*
X198431803Y-86635000D02*
G75*
G03X198431803Y-86635000I-111803J0D01*
G01*
X190785279Y-88875000D02*
X190459721Y-88875000D01*
X190785279Y-89895000D02*
X190459721Y-89895000D01*
X195272779Y-88875000D02*
X194947221Y-88875000D01*
X195272779Y-89895000D02*
X194947221Y-89895000D01*
X195400000Y-85487221D02*
X195400000Y-85812779D01*
X196420000Y-85487221D02*
X196420000Y-85812779D01*
X199447221Y-82495000D02*
X199772779Y-82495000D01*
X199447221Y-81475000D02*
X199772779Y-81475000D01*
X203810000Y-84775279D02*
X203810000Y-84449721D01*
X202790000Y-84775279D02*
X202790000Y-84449721D01*
X199447221Y-89935000D02*
X199772779Y-89935000D01*
X199447221Y-88915000D02*
X199772779Y-88915000D01*
X183250000Y-76240000D02*
X181850000Y-76240000D01*
X181850000Y-78560000D02*
X183750000Y-78560000D01*
X197920000Y-92137500D02*
X197920000Y-92587500D01*
X197920000Y-92137500D02*
X198370000Y-92137500D01*
X203520000Y-92687500D02*
X203070000Y-92687500D01*
X203520000Y-94537500D02*
X203520000Y-92687500D01*
X195720000Y-97087500D02*
X195720000Y-96837500D01*
X203520000Y-97087500D02*
X203520000Y-96837500D01*
X195720000Y-94537500D02*
X195720000Y-92687500D01*
X195720000Y-92687500D02*
X196170000Y-92687500D01*
X165170000Y-79850000D02*
X165105000Y-79850000D01*
X165170000Y-76320000D02*
X165105000Y-76320000D01*
X174115000Y-79850000D02*
X174050000Y-79850000D01*
X174115000Y-76320000D02*
X174050000Y-76320000D01*
X174050000Y-74995000D02*
X174050000Y-76320000D01*
X165105000Y-76320000D02*
X165105000Y-79850000D01*
X174115000Y-76320000D02*
X174115000Y-79850000D01*
M02*
