M48
; DRILL file {KiCad (5.1.5)-3} date 18/05/2021 14:06:56
; FORMAT={-:-/ absolute / inch / decimal}
; #@! TF.CreationDate,2021-05-18T14:06:56+02:00
; #@! TF.GenerationSoftware,Kicad,Pcbnew,(5.1.5)-3
FMAT,2
INCH
T1C0.0079
T2C0.0157
T3C0.0236
T4C0.0335
T5C0.0295
T6C0.0413
T7C0.0433
T8C0.0630
T9C0.0941
T10C0.1260
T11C0.1358
%
G90
G05
T1
X7.0295Y-3.189
X7.0669Y-3.1663
X7.0669Y-3.2116
X7.1043Y-3.189
X6.561Y-3.189
X6.5984Y-3.1663
X6.5984Y-3.2116
X6.6358Y-3.189
T2
X4.7835Y-3.3819
X4.7835Y-3.4291
X4.7835Y-3.4803
X5.2008Y-3.6496
X5.2559Y-3.6496
X5.2992Y-3.6102
X5.3071Y-3.6496
X5.3268Y-3.0945
X5.4409Y-3.1575
X5.4803Y-3.2874
X5.5039Y-3.1575
X5.5197Y-3.7205
X5.5512Y-3.3189
X5.563Y-3.1575
X5.5748Y-3.748
X5.6063Y-3.3189
X5.7602Y-3.4719
X5.7602Y-3.527
X5.7602Y-3.5742
X5.8311Y-3.4719
X5.8311Y-3.523
X5.8311Y-3.5742
X5.9374Y-3.0033
X5.9374Y-3.2002
X6.1378Y-3.6614
X6.1614Y-3.5
X6.313Y-3.5827
X6.3622Y-3.6772
X6.3783Y-3.0033
X6.3783Y-3.2002
X6.4213Y-3.3858
X6.4291Y-3.1102
X6.4764Y-3.1102
X6.4764Y-3.6929
X6.5079Y-3.2756
X6.5787Y-3.3543
X6.6024Y-3.6772
X6.6535Y-3.6772
X6.6575Y-3.5827
X6.748Y-3.6181
X6.752Y-3.1102
X6.7913Y-3.1102
X6.7917Y-3.6175
X6.8346Y-3.1102
X6.8346Y-3.5787
X6.8701Y-3.7598
X6.8819Y-3.5
X6.8819Y-3.6575
X6.9055Y-3.1142
X6.9488Y-2.9453
X6.9488Y-3.1142
X6.9724Y-3.3819
X7.0177Y-3.5748
X7.0354Y-3.7559
X7.0357Y-3.6555
X7.0472Y-3.2953
X7.122Y-3.7559
X7.1811Y-3.4685
X7.2087Y-3.1102
X7.2484Y-3.7435
X7.252Y-3.1102
X7.2563Y-3.649
X7.2563Y-3.6982
X7.2913Y-3.1102
X7.3425Y-2.9803
X7.3504Y-3.1496
X7.4252Y-3.6299
X7.4606Y-3.2835
X7.65Y-3.5703
X7.7189Y-3.7081
X7.7677Y-3.0472
X7.7917Y-3.3183
X7.7918Y-3.2593
X7.8081Y-3.0285
X7.8661Y-3.4961
X7.8705Y-3.3144
X7.8718Y-3.2593
X8.0Y-3.0246
X8.1343Y-3.1687
X8.2091Y-3.1687
X8.2484Y-3.1687
T4
X5.6224Y-3.0767
X5.8193Y-3.0767
T5
X7.8038Y-3.478
T6
X7.9096Y-3.5838
T7
X5.6382Y-3.399
T8
X5.8744Y-3.6628
T9
X5.1134Y-3.6687
T10
X4.8941Y-3.0585
X8.1618Y-3.0585
X4.8941Y-3.649
X8.1618Y-3.649
T11
X5.4413Y-3.0388
X7.6146Y-3.6687
T3
G00X5.5831Y-2.9842
M15
G01X5.5831Y-2.9566
M16
G05
G00X5.8587Y-2.9566
M15
G01X5.8587Y-2.9842
M16
G05
T0
M30
