G04 #@! TF.GenerationSoftware,KiCad,Pcbnew,(5.1.5)-3*
G04 #@! TF.CreationDate,2021-08-11T14:04:56+02:00*
G04 #@! TF.ProjectId,18650_UPS_PCB,31383635-305f-4555-9053-5f5043422e6b,rev?*
G04 #@! TF.SameCoordinates,Original*
G04 #@! TF.FileFunction,Soldermask,Top*
G04 #@! TF.FilePolarity,Negative*
%FSLAX46Y46*%
G04 Gerber Fmt 4.6, Leading zero omitted, Abs format (unit mm)*
G04 Created by KiCad (PCBNEW (5.1.5)-3) date 2021-08-11 14:04:56*
%MOMM*%
%LPD*%
G04 APERTURE LIST*
%ADD10C,0.100000*%
G04 APERTURE END LIST*
D10*
G36*
X196145862Y-94685898D02*
G01*
X196158114Y-94686500D01*
X197371000Y-94686500D01*
X197371000Y-96688500D01*
X196158114Y-96688500D01*
X196145862Y-96689102D01*
X196120000Y-96691649D01*
X196094138Y-96689102D01*
X196081886Y-96688500D01*
X196008594Y-96688500D01*
X195991836Y-96679543D01*
X195980299Y-96675415D01*
X195895307Y-96649632D01*
X195869664Y-96641854D01*
X195756575Y-96581406D01*
X195657447Y-96500054D01*
X195576094Y-96400924D01*
X195515646Y-96287835D01*
X195505960Y-96255903D01*
X195478420Y-96165117D01*
X195469000Y-96069472D01*
X195469000Y-95305527D01*
X195478420Y-95209882D01*
X195515645Y-95087168D01*
X195576096Y-94974074D01*
X195581561Y-94967415D01*
X195657447Y-94874946D01*
X195756576Y-94793594D01*
X195869666Y-94733146D01*
X195869669Y-94733145D01*
X195980290Y-94699588D01*
X196002925Y-94690212D01*
X196008481Y-94686500D01*
X196081886Y-94686500D01*
X196094138Y-94685898D01*
X196120000Y-94683351D01*
X196145862Y-94685898D01*
G37*
G36*
X203145862Y-94685898D02*
G01*
X203158114Y-94686500D01*
X203231406Y-94686500D01*
X203248164Y-94695457D01*
X203259707Y-94699587D01*
X203370331Y-94733145D01*
X203370334Y-94733146D01*
X203483424Y-94793594D01*
X203582554Y-94874947D01*
X203663906Y-94974075D01*
X203724354Y-95087164D01*
X203729583Y-95104401D01*
X203761580Y-95209882D01*
X203771000Y-95305527D01*
X203771000Y-96069473D01*
X203761580Y-96165118D01*
X203734040Y-96255904D01*
X203724354Y-96287836D01*
X203663906Y-96400925D01*
X203582554Y-96500054D01*
X203483425Y-96581406D01*
X203370336Y-96641854D01*
X203344693Y-96649632D01*
X203259708Y-96675413D01*
X203237075Y-96684787D01*
X203231518Y-96688500D01*
X203158114Y-96688500D01*
X203145862Y-96689102D01*
X203120000Y-96691649D01*
X203094138Y-96689102D01*
X203081886Y-96688500D01*
X201869000Y-96688500D01*
X201869000Y-94686500D01*
X203081886Y-94686500D01*
X203094138Y-94685898D01*
X203120000Y-94683351D01*
X203145862Y-94685898D01*
G37*
G36*
X199421000Y-96688500D02*
G01*
X197819000Y-96688500D01*
X197819000Y-94686500D01*
X199421000Y-94686500D01*
X199421000Y-96688500D01*
G37*
G36*
X201421000Y-96688500D02*
G01*
X199819000Y-96688500D01*
X199819000Y-94686500D01*
X201421000Y-94686500D01*
X201421000Y-96688500D01*
G37*
G36*
X164551000Y-96051000D02*
G01*
X163049000Y-96051000D01*
X163049000Y-94449000D01*
X164551000Y-94449000D01*
X164551000Y-96051000D01*
G37*
G36*
X176151000Y-96051000D02*
G01*
X174649000Y-96051000D01*
X174649000Y-94449000D01*
X176151000Y-94449000D01*
X176151000Y-96051000D01*
G37*
G36*
X193828039Y-91977250D02*
G01*
X193965045Y-92034000D01*
X194151251Y-92111129D01*
X194442134Y-92305491D01*
X194689509Y-92552866D01*
X194849689Y-92792592D01*
X194883871Y-92843749D01*
X195017750Y-93166960D01*
X195086000Y-93510078D01*
X195086000Y-93859921D01*
X195017750Y-94203039D01*
X194940240Y-94390164D01*
X194883871Y-94526251D01*
X194689509Y-94817134D01*
X194442134Y-95064509D01*
X194151251Y-95258871D01*
X194038613Y-95305527D01*
X193828039Y-95392750D01*
X193484922Y-95461000D01*
X193135078Y-95461000D01*
X192791961Y-95392750D01*
X192581387Y-95305527D01*
X192468749Y-95258871D01*
X192177866Y-95064509D01*
X191930491Y-94817134D01*
X191736129Y-94526251D01*
X191679760Y-94390164D01*
X191602250Y-94203039D01*
X191534000Y-93859921D01*
X191534000Y-93510078D01*
X191602250Y-93166960D01*
X191736129Y-92843749D01*
X191770311Y-92792592D01*
X191930491Y-92552866D01*
X192177866Y-92305491D01*
X192468749Y-92111129D01*
X192654955Y-92034000D01*
X192791961Y-91977250D01*
X193135078Y-91909000D01*
X193484922Y-91909000D01*
X193828039Y-91977250D01*
G37*
G36*
X207685256Y-92076298D02*
G01*
X207791579Y-92097447D01*
X208092042Y-92221903D01*
X208362451Y-92402585D01*
X208592415Y-92632549D01*
X208773097Y-92902958D01*
X208773098Y-92902960D01*
X208801115Y-92970599D01*
X208897553Y-93203421D01*
X208902365Y-93227611D01*
X208953000Y-93482169D01*
X208961000Y-93522391D01*
X208961000Y-93847609D01*
X208897553Y-94166579D01*
X208773097Y-94467042D01*
X208592415Y-94737451D01*
X208362451Y-94967415D01*
X208092042Y-95148097D01*
X207791579Y-95272553D01*
X207685256Y-95293702D01*
X207472611Y-95336000D01*
X207147389Y-95336000D01*
X206934744Y-95293702D01*
X206828421Y-95272553D01*
X206527958Y-95148097D01*
X206257549Y-94967415D01*
X206027585Y-94737451D01*
X205846903Y-94467042D01*
X205722447Y-94166579D01*
X205659000Y-93847609D01*
X205659000Y-93522391D01*
X205667001Y-93482169D01*
X205717635Y-93227611D01*
X205722447Y-93203421D01*
X205818885Y-92970599D01*
X205846902Y-92902960D01*
X205846903Y-92902958D01*
X206027585Y-92632549D01*
X206257549Y-92402585D01*
X206527958Y-92221903D01*
X206828421Y-92097447D01*
X206934744Y-92076298D01*
X207147389Y-92034000D01*
X207472611Y-92034000D01*
X207685256Y-92076298D01*
G37*
G36*
X124685256Y-92076298D02*
G01*
X124791579Y-92097447D01*
X125092042Y-92221903D01*
X125362451Y-92402585D01*
X125592415Y-92632549D01*
X125773097Y-92902958D01*
X125773098Y-92902960D01*
X125801115Y-92970599D01*
X125897553Y-93203421D01*
X125902365Y-93227611D01*
X125953000Y-93482169D01*
X125961000Y-93522391D01*
X125961000Y-93847609D01*
X125897553Y-94166579D01*
X125773097Y-94467042D01*
X125592415Y-94737451D01*
X125362451Y-94967415D01*
X125092042Y-95148097D01*
X124791579Y-95272553D01*
X124685256Y-95293702D01*
X124472611Y-95336000D01*
X124147389Y-95336000D01*
X123934744Y-95293702D01*
X123828421Y-95272553D01*
X123527958Y-95148097D01*
X123257549Y-94967415D01*
X123027585Y-94737451D01*
X122846903Y-94467042D01*
X122722447Y-94166579D01*
X122659000Y-93847609D01*
X122659000Y-93522391D01*
X122667001Y-93482169D01*
X122717635Y-93227611D01*
X122722447Y-93203421D01*
X122818885Y-92970599D01*
X122846902Y-92902960D01*
X122846903Y-92902958D01*
X123027585Y-92632549D01*
X123257549Y-92402585D01*
X123527958Y-92221903D01*
X123828421Y-92097447D01*
X123934744Y-92076298D01*
X124147389Y-92034000D01*
X124472611Y-92034000D01*
X124685256Y-92076298D01*
G37*
G36*
X141504591Y-94353085D02*
G01*
X141538569Y-94363393D01*
X141569890Y-94380134D01*
X141597339Y-94402661D01*
X141619866Y-94430110D01*
X141636607Y-94461431D01*
X141646915Y-94495409D01*
X141651000Y-94536890D01*
X141651000Y-95138110D01*
X141646915Y-95179591D01*
X141636607Y-95213569D01*
X141619866Y-95244890D01*
X141597339Y-95272339D01*
X141569890Y-95294866D01*
X141538569Y-95311607D01*
X141504591Y-95321915D01*
X141463110Y-95326000D01*
X140786890Y-95326000D01*
X140745409Y-95321915D01*
X140711431Y-95311607D01*
X140680110Y-95294866D01*
X140652661Y-95272339D01*
X140630134Y-95244890D01*
X140613393Y-95213569D01*
X140603085Y-95179591D01*
X140599000Y-95138110D01*
X140599000Y-94536890D01*
X140603085Y-94495409D01*
X140613393Y-94461431D01*
X140630134Y-94430110D01*
X140652661Y-94402661D01*
X140680110Y-94380134D01*
X140711431Y-94363393D01*
X140745409Y-94353085D01*
X140786890Y-94349000D01*
X141463110Y-94349000D01*
X141504591Y-94353085D01*
G37*
G36*
X153304591Y-94328085D02*
G01*
X153338569Y-94338393D01*
X153369890Y-94355134D01*
X153397339Y-94377661D01*
X153419866Y-94405110D01*
X153436607Y-94436431D01*
X153446915Y-94470409D01*
X153451000Y-94511890D01*
X153451000Y-95113110D01*
X153446915Y-95154591D01*
X153436607Y-95188569D01*
X153419866Y-95219890D01*
X153397339Y-95247339D01*
X153369890Y-95269866D01*
X153338569Y-95286607D01*
X153304591Y-95296915D01*
X153263110Y-95301000D01*
X152586890Y-95301000D01*
X152545409Y-95296915D01*
X152511431Y-95286607D01*
X152480110Y-95269866D01*
X152452661Y-95247339D01*
X152430134Y-95219890D01*
X152413393Y-95188569D01*
X152403085Y-95154591D01*
X152399000Y-95113110D01*
X152399000Y-94511890D01*
X152403085Y-94470409D01*
X152413393Y-94436431D01*
X152430134Y-94405110D01*
X152452661Y-94377661D01*
X152480110Y-94355134D01*
X152511431Y-94338393D01*
X152545409Y-94328085D01*
X152586890Y-94324000D01*
X153263110Y-94324000D01*
X153304591Y-94328085D01*
G37*
G36*
X155804591Y-94328085D02*
G01*
X155838569Y-94338393D01*
X155869890Y-94355134D01*
X155897339Y-94377661D01*
X155919866Y-94405110D01*
X155936607Y-94436431D01*
X155946915Y-94470409D01*
X155951000Y-94511890D01*
X155951000Y-95113110D01*
X155946915Y-95154591D01*
X155936607Y-95188569D01*
X155919866Y-95219890D01*
X155897339Y-95247339D01*
X155869890Y-95269866D01*
X155838569Y-95286607D01*
X155804591Y-95296915D01*
X155763110Y-95301000D01*
X155086890Y-95301000D01*
X155045409Y-95296915D01*
X155011431Y-95286607D01*
X154980110Y-95269866D01*
X154952661Y-95247339D01*
X154930134Y-95219890D01*
X154913393Y-95188569D01*
X154903085Y-95154591D01*
X154899000Y-95113110D01*
X154899000Y-94511890D01*
X154903085Y-94470409D01*
X154913393Y-94436431D01*
X154930134Y-94405110D01*
X154952661Y-94377661D01*
X154980110Y-94355134D01*
X155011431Y-94338393D01*
X155045409Y-94328085D01*
X155086890Y-94324000D01*
X155763110Y-94324000D01*
X155804591Y-94328085D01*
G37*
G36*
X197346348Y-92241320D02*
G01*
X197346350Y-92241321D01*
X197346351Y-92241321D01*
X197487574Y-92299817D01*
X197487577Y-92299819D01*
X197614669Y-92384739D01*
X197722761Y-92492831D01*
X197779375Y-92577560D01*
X197807683Y-92619926D01*
X197828517Y-92670225D01*
X197840068Y-92691836D01*
X197855614Y-92710778D01*
X197874556Y-92726323D01*
X197896166Y-92737874D01*
X197919615Y-92744987D01*
X197944001Y-92747389D01*
X197968387Y-92744987D01*
X197991836Y-92737874D01*
X198013447Y-92726323D01*
X198032389Y-92710777D01*
X198047934Y-92691835D01*
X198059485Y-92670225D01*
X198066598Y-92646776D01*
X198069000Y-92622390D01*
X198069000Y-92261500D01*
X201171000Y-92261500D01*
X201171000Y-92622390D01*
X201173402Y-92646776D01*
X201180515Y-92670225D01*
X201192066Y-92691836D01*
X201207611Y-92710778D01*
X201226553Y-92726323D01*
X201248164Y-92737874D01*
X201271613Y-92744987D01*
X201295999Y-92747389D01*
X201320385Y-92744987D01*
X201343834Y-92737874D01*
X201365445Y-92726323D01*
X201384387Y-92710778D01*
X201399932Y-92691836D01*
X201411483Y-92670225D01*
X201432317Y-92619926D01*
X201460625Y-92577560D01*
X201517239Y-92492831D01*
X201625331Y-92384739D01*
X201752423Y-92299819D01*
X201752426Y-92299817D01*
X201893649Y-92241321D01*
X201893650Y-92241321D01*
X201893652Y-92241320D01*
X202043569Y-92211500D01*
X202196431Y-92211500D01*
X202346348Y-92241320D01*
X202346350Y-92241321D01*
X202346351Y-92241321D01*
X202487574Y-92299817D01*
X202487577Y-92299819D01*
X202614669Y-92384739D01*
X202722761Y-92492831D01*
X202807681Y-92619923D01*
X202807683Y-92619926D01*
X202866179Y-92761149D01*
X202866180Y-92761152D01*
X202896000Y-92911069D01*
X202896000Y-93063931D01*
X202868254Y-93203422D01*
X202866179Y-93213851D01*
X202807683Y-93355074D01*
X202807682Y-93355075D01*
X202807681Y-93355077D01*
X202722761Y-93482169D01*
X202614669Y-93590261D01*
X202491830Y-93672339D01*
X202487574Y-93675183D01*
X202346351Y-93733679D01*
X202346350Y-93733679D01*
X202346348Y-93733680D01*
X202196431Y-93763500D01*
X202043569Y-93763500D01*
X201893652Y-93733680D01*
X201893650Y-93733679D01*
X201893649Y-93733679D01*
X201752426Y-93675183D01*
X201748170Y-93672339D01*
X201625331Y-93590261D01*
X201517239Y-93482169D01*
X201432318Y-93355075D01*
X201432317Y-93355074D01*
X201411481Y-93304772D01*
X201399932Y-93283164D01*
X201384386Y-93264222D01*
X201365444Y-93248677D01*
X201343834Y-93237126D01*
X201320385Y-93230013D01*
X201295999Y-93227611D01*
X201271613Y-93230013D01*
X201248164Y-93237126D01*
X201226553Y-93248677D01*
X201207611Y-93264223D01*
X201192066Y-93283165D01*
X201180515Y-93304775D01*
X201173402Y-93328224D01*
X201171000Y-93352610D01*
X201171000Y-93713500D01*
X198069000Y-93713500D01*
X198069000Y-93352610D01*
X198066598Y-93328224D01*
X198059485Y-93304775D01*
X198047934Y-93283164D01*
X198032389Y-93264222D01*
X198013447Y-93248677D01*
X197991836Y-93237126D01*
X197968387Y-93230013D01*
X197944001Y-93227611D01*
X197919615Y-93230013D01*
X197896166Y-93237126D01*
X197874555Y-93248677D01*
X197855613Y-93264222D01*
X197840068Y-93283164D01*
X197828519Y-93304772D01*
X197807683Y-93355074D01*
X197807682Y-93355075D01*
X197722761Y-93482169D01*
X197614669Y-93590261D01*
X197491830Y-93672339D01*
X197487574Y-93675183D01*
X197346351Y-93733679D01*
X197346350Y-93733679D01*
X197346348Y-93733680D01*
X197196431Y-93763500D01*
X197043569Y-93763500D01*
X196893652Y-93733680D01*
X196893650Y-93733679D01*
X196893649Y-93733679D01*
X196752426Y-93675183D01*
X196748170Y-93672339D01*
X196625331Y-93590261D01*
X196517239Y-93482169D01*
X196432319Y-93355077D01*
X196432318Y-93355075D01*
X196432317Y-93355074D01*
X196373821Y-93213851D01*
X196371747Y-93203422D01*
X196344000Y-93063931D01*
X196344000Y-92911069D01*
X196373820Y-92761152D01*
X196373821Y-92761149D01*
X196432317Y-92619926D01*
X196432319Y-92619923D01*
X196517239Y-92492831D01*
X196625331Y-92384739D01*
X196752423Y-92299819D01*
X196752426Y-92299817D01*
X196893649Y-92241321D01*
X196893650Y-92241321D01*
X196893652Y-92241320D01*
X197043569Y-92211500D01*
X197196431Y-92211500D01*
X197346348Y-92241320D01*
G37*
G36*
X141504591Y-92778085D02*
G01*
X141538569Y-92788393D01*
X141569890Y-92805134D01*
X141597339Y-92827661D01*
X141619866Y-92855110D01*
X141636607Y-92886431D01*
X141646915Y-92920409D01*
X141651000Y-92961890D01*
X141651000Y-93563110D01*
X141646915Y-93604591D01*
X141636607Y-93638569D01*
X141619866Y-93669890D01*
X141597339Y-93697339D01*
X141569890Y-93719866D01*
X141538569Y-93736607D01*
X141504591Y-93746915D01*
X141463110Y-93751000D01*
X140786890Y-93751000D01*
X140745409Y-93746915D01*
X140711431Y-93736607D01*
X140680110Y-93719866D01*
X140652661Y-93697339D01*
X140630134Y-93669890D01*
X140613393Y-93638569D01*
X140603085Y-93604591D01*
X140599000Y-93563110D01*
X140599000Y-92961890D01*
X140603085Y-92920409D01*
X140613393Y-92886431D01*
X140630134Y-92855110D01*
X140652661Y-92827661D01*
X140680110Y-92805134D01*
X140711431Y-92788393D01*
X140745409Y-92778085D01*
X140786890Y-92774000D01*
X141463110Y-92774000D01*
X141504591Y-92778085D01*
G37*
G36*
X153304591Y-92753085D02*
G01*
X153338569Y-92763393D01*
X153369890Y-92780134D01*
X153397339Y-92802661D01*
X153419866Y-92830110D01*
X153436607Y-92861431D01*
X153446915Y-92895409D01*
X153451000Y-92936890D01*
X153451000Y-93538110D01*
X153446915Y-93579591D01*
X153436607Y-93613569D01*
X153419866Y-93644890D01*
X153397339Y-93672339D01*
X153369890Y-93694866D01*
X153338569Y-93711607D01*
X153304591Y-93721915D01*
X153263110Y-93726000D01*
X152586890Y-93726000D01*
X152545409Y-93721915D01*
X152511431Y-93711607D01*
X152480110Y-93694866D01*
X152452661Y-93672339D01*
X152430134Y-93644890D01*
X152413393Y-93613569D01*
X152403085Y-93579591D01*
X152399000Y-93538110D01*
X152399000Y-92936890D01*
X152403085Y-92895409D01*
X152413393Y-92861431D01*
X152430134Y-92830110D01*
X152452661Y-92802661D01*
X152480110Y-92780134D01*
X152511431Y-92763393D01*
X152545409Y-92753085D01*
X152586890Y-92749000D01*
X153263110Y-92749000D01*
X153304591Y-92753085D01*
G37*
G36*
X155804591Y-92753085D02*
G01*
X155838569Y-92763393D01*
X155869890Y-92780134D01*
X155897339Y-92802661D01*
X155919866Y-92830110D01*
X155936607Y-92861431D01*
X155946915Y-92895409D01*
X155951000Y-92936890D01*
X155951000Y-93538110D01*
X155946915Y-93579591D01*
X155936607Y-93613569D01*
X155919866Y-93644890D01*
X155897339Y-93672339D01*
X155869890Y-93694866D01*
X155838569Y-93711607D01*
X155804591Y-93721915D01*
X155763110Y-93726000D01*
X155086890Y-93726000D01*
X155045409Y-93721915D01*
X155011431Y-93711607D01*
X154980110Y-93694866D01*
X154952661Y-93672339D01*
X154930134Y-93644890D01*
X154913393Y-93613569D01*
X154903085Y-93579591D01*
X154899000Y-93538110D01*
X154899000Y-92936890D01*
X154903085Y-92895409D01*
X154913393Y-92861431D01*
X154930134Y-92830110D01*
X154952661Y-92802661D01*
X154980110Y-92780134D01*
X155011431Y-92763393D01*
X155045409Y-92753085D01*
X155086890Y-92749000D01*
X155763110Y-92749000D01*
X155804591Y-92753085D01*
G37*
G36*
X176151000Y-93151000D02*
G01*
X174649000Y-93151000D01*
X174649000Y-91749000D01*
X176151000Y-91749000D01*
X176151000Y-93151000D01*
G37*
G36*
X164551000Y-93151000D02*
G01*
X163049000Y-93151000D01*
X163049000Y-91749000D01*
X164551000Y-91749000D01*
X164551000Y-93151000D01*
G37*
G36*
X132089487Y-89733996D02*
G01*
X132326253Y-89832068D01*
X132326255Y-89832069D01*
X132476423Y-89932408D01*
X132539339Y-89974447D01*
X132720553Y-90155661D01*
X132862932Y-90368747D01*
X132961004Y-90605513D01*
X133011000Y-90856861D01*
X133011000Y-91113139D01*
X132961004Y-91364487D01*
X132862932Y-91601253D01*
X132862931Y-91601255D01*
X132720553Y-91814339D01*
X132539339Y-91995553D01*
X132326255Y-92137931D01*
X132326254Y-92137932D01*
X132326253Y-92137932D01*
X132089487Y-92236004D01*
X131838139Y-92286000D01*
X131581861Y-92286000D01*
X131330513Y-92236004D01*
X131093747Y-92137932D01*
X131093746Y-92137932D01*
X131093745Y-92137931D01*
X130880661Y-91995553D01*
X130699447Y-91814339D01*
X130557069Y-91601255D01*
X130557068Y-91601253D01*
X130458996Y-91364487D01*
X130409000Y-91113139D01*
X130409000Y-90856861D01*
X130458996Y-90605513D01*
X130557068Y-90368747D01*
X130699447Y-90155661D01*
X130880661Y-89974447D01*
X130943577Y-89932408D01*
X131093745Y-89832069D01*
X131093747Y-89832068D01*
X131330513Y-89733996D01*
X131581861Y-89684000D01*
X131838139Y-89684000D01*
X132089487Y-89733996D01*
G37*
G36*
X143430295Y-90535323D02*
G01*
X143437309Y-90537451D01*
X143451077Y-90544810D01*
X143473716Y-90554187D01*
X143497749Y-90558967D01*
X143522253Y-90558967D01*
X143546286Y-90554186D01*
X143568923Y-90544810D01*
X143582691Y-90537451D01*
X143589705Y-90535323D01*
X143603140Y-90534000D01*
X143916860Y-90534000D01*
X143930295Y-90535323D01*
X143937309Y-90537451D01*
X143951077Y-90544810D01*
X143973716Y-90554187D01*
X143997749Y-90558967D01*
X144022253Y-90558967D01*
X144046286Y-90554186D01*
X144068923Y-90544810D01*
X144082691Y-90537451D01*
X144089705Y-90535323D01*
X144103140Y-90534000D01*
X144416860Y-90534000D01*
X144430295Y-90535323D01*
X144437309Y-90537451D01*
X144451077Y-90544810D01*
X144473716Y-90554187D01*
X144497749Y-90558967D01*
X144522253Y-90558967D01*
X144546286Y-90554186D01*
X144568923Y-90544810D01*
X144582691Y-90537451D01*
X144589705Y-90535323D01*
X144603140Y-90534000D01*
X144916860Y-90534000D01*
X144930295Y-90535323D01*
X144937309Y-90537451D01*
X144951077Y-90544810D01*
X144973716Y-90554187D01*
X144997749Y-90558967D01*
X145022253Y-90558967D01*
X145046286Y-90554186D01*
X145068923Y-90544810D01*
X145082691Y-90537451D01*
X145089705Y-90535323D01*
X145103140Y-90534000D01*
X145416860Y-90534000D01*
X145430295Y-90535323D01*
X145437309Y-90537451D01*
X145451077Y-90544810D01*
X145473716Y-90554187D01*
X145497749Y-90558967D01*
X145522253Y-90558967D01*
X145546286Y-90554186D01*
X145568923Y-90544810D01*
X145582691Y-90537451D01*
X145589705Y-90535323D01*
X145603140Y-90534000D01*
X145916860Y-90534000D01*
X145930295Y-90535323D01*
X145937309Y-90537451D01*
X145951077Y-90544810D01*
X145973716Y-90554187D01*
X145997749Y-90558967D01*
X146022253Y-90558967D01*
X146046286Y-90554186D01*
X146068923Y-90544810D01*
X146082691Y-90537451D01*
X146089705Y-90535323D01*
X146103140Y-90534000D01*
X146416860Y-90534000D01*
X146430295Y-90535323D01*
X146437309Y-90537451D01*
X146451077Y-90544810D01*
X146473716Y-90554187D01*
X146497749Y-90558967D01*
X146522253Y-90558967D01*
X146546286Y-90554186D01*
X146568923Y-90544810D01*
X146582691Y-90537451D01*
X146589705Y-90535323D01*
X146603140Y-90534000D01*
X146916860Y-90534000D01*
X146930295Y-90535323D01*
X146937309Y-90537451D01*
X146951077Y-90544810D01*
X146973716Y-90554187D01*
X146997749Y-90558967D01*
X147022253Y-90558967D01*
X147046286Y-90554186D01*
X147068923Y-90544810D01*
X147082691Y-90537451D01*
X147089705Y-90535323D01*
X147103140Y-90534000D01*
X147416860Y-90534000D01*
X147430295Y-90535323D01*
X147437309Y-90537451D01*
X147451077Y-90544810D01*
X147473716Y-90554187D01*
X147497749Y-90558967D01*
X147522253Y-90558967D01*
X147546286Y-90554186D01*
X147568923Y-90544810D01*
X147582691Y-90537451D01*
X147589705Y-90535323D01*
X147603140Y-90534000D01*
X147916860Y-90534000D01*
X147930295Y-90535323D01*
X147937309Y-90537451D01*
X147951077Y-90544810D01*
X147973716Y-90554187D01*
X147997749Y-90558967D01*
X148022253Y-90558967D01*
X148046286Y-90554186D01*
X148068923Y-90544810D01*
X148082691Y-90537451D01*
X148089705Y-90535323D01*
X148103140Y-90534000D01*
X148416860Y-90534000D01*
X148430295Y-90535323D01*
X148437309Y-90537451D01*
X148451077Y-90544810D01*
X148473716Y-90554187D01*
X148497749Y-90558967D01*
X148522253Y-90558967D01*
X148546286Y-90554186D01*
X148568923Y-90544810D01*
X148582691Y-90537451D01*
X148589705Y-90535323D01*
X148603140Y-90534000D01*
X148916860Y-90534000D01*
X148930295Y-90535323D01*
X148937309Y-90537451D01*
X148951077Y-90544810D01*
X148973716Y-90554187D01*
X148997749Y-90558967D01*
X149022253Y-90558967D01*
X149046286Y-90554186D01*
X149068923Y-90544810D01*
X149082691Y-90537451D01*
X149089705Y-90535323D01*
X149103140Y-90534000D01*
X149416860Y-90534000D01*
X149430295Y-90535323D01*
X149437309Y-90537451D01*
X149451077Y-90544810D01*
X149473716Y-90554187D01*
X149497749Y-90558967D01*
X149522253Y-90558967D01*
X149546286Y-90554186D01*
X149568923Y-90544810D01*
X149582691Y-90537451D01*
X149589705Y-90535323D01*
X149603140Y-90534000D01*
X149916860Y-90534000D01*
X149930295Y-90535323D01*
X149937309Y-90537451D01*
X149951077Y-90544810D01*
X149973716Y-90554187D01*
X149997749Y-90558967D01*
X150022253Y-90558967D01*
X150046286Y-90554186D01*
X150068923Y-90544810D01*
X150082691Y-90537451D01*
X150089705Y-90535323D01*
X150103140Y-90534000D01*
X150416860Y-90534000D01*
X150430295Y-90535323D01*
X150437309Y-90537451D01*
X150451077Y-90544810D01*
X150473716Y-90554187D01*
X150497749Y-90558967D01*
X150522253Y-90558967D01*
X150546286Y-90554186D01*
X150568923Y-90544810D01*
X150582691Y-90537451D01*
X150589705Y-90535323D01*
X150603140Y-90534000D01*
X150916860Y-90534000D01*
X150930295Y-90535323D01*
X150937310Y-90537451D01*
X150943776Y-90540908D01*
X150949442Y-90545558D01*
X150954092Y-90551224D01*
X150957549Y-90557690D01*
X150959677Y-90564705D01*
X150961000Y-90578140D01*
X150961000Y-92141860D01*
X150959677Y-92155295D01*
X150957549Y-92162310D01*
X150954092Y-92168776D01*
X150949442Y-92174442D01*
X150943776Y-92179092D01*
X150937310Y-92182549D01*
X150930295Y-92184677D01*
X150916860Y-92186000D01*
X150603140Y-92186000D01*
X150589705Y-92184677D01*
X150582691Y-92182549D01*
X150568923Y-92175190D01*
X150546284Y-92165813D01*
X150522251Y-92161033D01*
X150497747Y-92161033D01*
X150473714Y-92165814D01*
X150451077Y-92175190D01*
X150437309Y-92182549D01*
X150430295Y-92184677D01*
X150416860Y-92186000D01*
X150103140Y-92186000D01*
X150089705Y-92184677D01*
X150082691Y-92182549D01*
X150068923Y-92175190D01*
X150046284Y-92165813D01*
X150022251Y-92161033D01*
X149997747Y-92161033D01*
X149973714Y-92165814D01*
X149951077Y-92175190D01*
X149937309Y-92182549D01*
X149930295Y-92184677D01*
X149916860Y-92186000D01*
X149603140Y-92186000D01*
X149589705Y-92184677D01*
X149582691Y-92182549D01*
X149568923Y-92175190D01*
X149546284Y-92165813D01*
X149522251Y-92161033D01*
X149497747Y-92161033D01*
X149473714Y-92165814D01*
X149451077Y-92175190D01*
X149437309Y-92182549D01*
X149430295Y-92184677D01*
X149416860Y-92186000D01*
X149103140Y-92186000D01*
X149089705Y-92184677D01*
X149082691Y-92182549D01*
X149068923Y-92175190D01*
X149046284Y-92165813D01*
X149022251Y-92161033D01*
X148997747Y-92161033D01*
X148973714Y-92165814D01*
X148951077Y-92175190D01*
X148937309Y-92182549D01*
X148930295Y-92184677D01*
X148916860Y-92186000D01*
X148603140Y-92186000D01*
X148589705Y-92184677D01*
X148582691Y-92182549D01*
X148568923Y-92175190D01*
X148546284Y-92165813D01*
X148522251Y-92161033D01*
X148497747Y-92161033D01*
X148473714Y-92165814D01*
X148451077Y-92175190D01*
X148437309Y-92182549D01*
X148430295Y-92184677D01*
X148416860Y-92186000D01*
X148103140Y-92186000D01*
X148089705Y-92184677D01*
X148082691Y-92182549D01*
X148068923Y-92175190D01*
X148046284Y-92165813D01*
X148022251Y-92161033D01*
X147997747Y-92161033D01*
X147973714Y-92165814D01*
X147951077Y-92175190D01*
X147937309Y-92182549D01*
X147930295Y-92184677D01*
X147916860Y-92186000D01*
X147603140Y-92186000D01*
X147589705Y-92184677D01*
X147582691Y-92182549D01*
X147568923Y-92175190D01*
X147546284Y-92165813D01*
X147522251Y-92161033D01*
X147497747Y-92161033D01*
X147473714Y-92165814D01*
X147451077Y-92175190D01*
X147437309Y-92182549D01*
X147430295Y-92184677D01*
X147416860Y-92186000D01*
X147103140Y-92186000D01*
X147089705Y-92184677D01*
X147082691Y-92182549D01*
X147068923Y-92175190D01*
X147046284Y-92165813D01*
X147022251Y-92161033D01*
X146997747Y-92161033D01*
X146973714Y-92165814D01*
X146951077Y-92175190D01*
X146937309Y-92182549D01*
X146930295Y-92184677D01*
X146916860Y-92186000D01*
X146603140Y-92186000D01*
X146589705Y-92184677D01*
X146582691Y-92182549D01*
X146568923Y-92175190D01*
X146546284Y-92165813D01*
X146522251Y-92161033D01*
X146497747Y-92161033D01*
X146473714Y-92165814D01*
X146451077Y-92175190D01*
X146437309Y-92182549D01*
X146430295Y-92184677D01*
X146416860Y-92186000D01*
X146103140Y-92186000D01*
X146089705Y-92184677D01*
X146082691Y-92182549D01*
X146068923Y-92175190D01*
X146046284Y-92165813D01*
X146022251Y-92161033D01*
X145997747Y-92161033D01*
X145973714Y-92165814D01*
X145951077Y-92175190D01*
X145937309Y-92182549D01*
X145930295Y-92184677D01*
X145916860Y-92186000D01*
X145603140Y-92186000D01*
X145589705Y-92184677D01*
X145582691Y-92182549D01*
X145568923Y-92175190D01*
X145546284Y-92165813D01*
X145522251Y-92161033D01*
X145497747Y-92161033D01*
X145473714Y-92165814D01*
X145451077Y-92175190D01*
X145437309Y-92182549D01*
X145430295Y-92184677D01*
X145416860Y-92186000D01*
X145103140Y-92186000D01*
X145089705Y-92184677D01*
X145082691Y-92182549D01*
X145068923Y-92175190D01*
X145046284Y-92165813D01*
X145022251Y-92161033D01*
X144997747Y-92161033D01*
X144973714Y-92165814D01*
X144951077Y-92175190D01*
X144937309Y-92182549D01*
X144930295Y-92184677D01*
X144916860Y-92186000D01*
X144603140Y-92186000D01*
X144589705Y-92184677D01*
X144582691Y-92182549D01*
X144568923Y-92175190D01*
X144546284Y-92165813D01*
X144522251Y-92161033D01*
X144497747Y-92161033D01*
X144473714Y-92165814D01*
X144451077Y-92175190D01*
X144437309Y-92182549D01*
X144430295Y-92184677D01*
X144416860Y-92186000D01*
X144103140Y-92186000D01*
X144089705Y-92184677D01*
X144082691Y-92182549D01*
X144068923Y-92175190D01*
X144046284Y-92165813D01*
X144022251Y-92161033D01*
X143997747Y-92161033D01*
X143973714Y-92165814D01*
X143951077Y-92175190D01*
X143937309Y-92182549D01*
X143930295Y-92184677D01*
X143916860Y-92186000D01*
X143603140Y-92186000D01*
X143589705Y-92184677D01*
X143582691Y-92182549D01*
X143568923Y-92175190D01*
X143546284Y-92165813D01*
X143522251Y-92161033D01*
X143497747Y-92161033D01*
X143473714Y-92165814D01*
X143451077Y-92175190D01*
X143437309Y-92182549D01*
X143430295Y-92184677D01*
X143416860Y-92186000D01*
X143103140Y-92186000D01*
X143089705Y-92184677D01*
X143082690Y-92182549D01*
X143076224Y-92179092D01*
X143070558Y-92174442D01*
X143065908Y-92168776D01*
X143062451Y-92162310D01*
X143060323Y-92155295D01*
X143059000Y-92141860D01*
X143059000Y-90578140D01*
X143060323Y-90564705D01*
X143062451Y-90557690D01*
X143065908Y-90551224D01*
X143070558Y-90545558D01*
X143076224Y-90540908D01*
X143082690Y-90537451D01*
X143089705Y-90535323D01*
X143103140Y-90534000D01*
X143416860Y-90534000D01*
X143430295Y-90535323D01*
G37*
G36*
X199164591Y-88903085D02*
G01*
X199198569Y-88913393D01*
X199229890Y-88930134D01*
X199257339Y-88952661D01*
X199279866Y-88980110D01*
X199296607Y-89011431D01*
X199306915Y-89045409D01*
X199311000Y-89086890D01*
X199311000Y-89763110D01*
X199306915Y-89804591D01*
X199296607Y-89838569D01*
X199279866Y-89869890D01*
X199257339Y-89897339D01*
X199229890Y-89919866D01*
X199198569Y-89936607D01*
X199164591Y-89946915D01*
X199123110Y-89951000D01*
X198521890Y-89951000D01*
X198480409Y-89946915D01*
X198446431Y-89936607D01*
X198415110Y-89919866D01*
X198387661Y-89897339D01*
X198365134Y-89869890D01*
X198348393Y-89838569D01*
X198338085Y-89804591D01*
X198334000Y-89763110D01*
X198334000Y-89086890D01*
X198338085Y-89045409D01*
X198348393Y-89011431D01*
X198365134Y-88980110D01*
X198387661Y-88952661D01*
X198415110Y-88930134D01*
X198446431Y-88913393D01*
X198480409Y-88903085D01*
X198521890Y-88899000D01*
X199123110Y-88899000D01*
X199164591Y-88903085D01*
G37*
G36*
X200739591Y-88903085D02*
G01*
X200773569Y-88913393D01*
X200804890Y-88930134D01*
X200832339Y-88952661D01*
X200854866Y-88980110D01*
X200871607Y-89011431D01*
X200881915Y-89045409D01*
X200886000Y-89086890D01*
X200886000Y-89763110D01*
X200881915Y-89804591D01*
X200871607Y-89838569D01*
X200854866Y-89869890D01*
X200832339Y-89897339D01*
X200804890Y-89919866D01*
X200773569Y-89936607D01*
X200739591Y-89946915D01*
X200698110Y-89951000D01*
X200096890Y-89951000D01*
X200055409Y-89946915D01*
X200021431Y-89936607D01*
X199990110Y-89919866D01*
X199962661Y-89897339D01*
X199940134Y-89869890D01*
X199923393Y-89838569D01*
X199913085Y-89804591D01*
X199909000Y-89763110D01*
X199909000Y-89086890D01*
X199913085Y-89045409D01*
X199923393Y-89011431D01*
X199940134Y-88980110D01*
X199962661Y-88952661D01*
X199990110Y-88930134D01*
X200021431Y-88913393D01*
X200055409Y-88903085D01*
X200096890Y-88899000D01*
X200698110Y-88899000D01*
X200739591Y-88903085D01*
G37*
G36*
X203692091Y-88940585D02*
G01*
X203726069Y-88950893D01*
X203757390Y-88967634D01*
X203784839Y-88990161D01*
X203807366Y-89017610D01*
X203824107Y-89048931D01*
X203834415Y-89082909D01*
X203838500Y-89124390D01*
X203838500Y-89725610D01*
X203834415Y-89767091D01*
X203824107Y-89801069D01*
X203807366Y-89832390D01*
X203784839Y-89859839D01*
X203757390Y-89882366D01*
X203726069Y-89899107D01*
X203692091Y-89909415D01*
X203650610Y-89913500D01*
X202974390Y-89913500D01*
X202932909Y-89909415D01*
X202898931Y-89899107D01*
X202867610Y-89882366D01*
X202840161Y-89859839D01*
X202817634Y-89832390D01*
X202800893Y-89801069D01*
X202790585Y-89767091D01*
X202786500Y-89725610D01*
X202786500Y-89124390D01*
X202790585Y-89082909D01*
X202800893Y-89048931D01*
X202817634Y-89017610D01*
X202840161Y-88990161D01*
X202867610Y-88967634D01*
X202898931Y-88950893D01*
X202932909Y-88940585D01*
X202974390Y-88936500D01*
X203650610Y-88936500D01*
X203692091Y-88940585D01*
G37*
G36*
X190177091Y-88863085D02*
G01*
X190211069Y-88873393D01*
X190242390Y-88890134D01*
X190269839Y-88912661D01*
X190292366Y-88940110D01*
X190309107Y-88971431D01*
X190319415Y-89005409D01*
X190323500Y-89046890D01*
X190323500Y-89723110D01*
X190319415Y-89764591D01*
X190309107Y-89798569D01*
X190292366Y-89829890D01*
X190269839Y-89857339D01*
X190242390Y-89879866D01*
X190211069Y-89896607D01*
X190177091Y-89906915D01*
X190135610Y-89911000D01*
X189534390Y-89911000D01*
X189492909Y-89906915D01*
X189458931Y-89896607D01*
X189427610Y-89879866D01*
X189400161Y-89857339D01*
X189377634Y-89829890D01*
X189360893Y-89798569D01*
X189350585Y-89764591D01*
X189346500Y-89723110D01*
X189346500Y-89046890D01*
X189350585Y-89005409D01*
X189360893Y-88971431D01*
X189377634Y-88940110D01*
X189400161Y-88912661D01*
X189427610Y-88890134D01*
X189458931Y-88873393D01*
X189492909Y-88863085D01*
X189534390Y-88859000D01*
X190135610Y-88859000D01*
X190177091Y-88863085D01*
G37*
G36*
X196239591Y-88863085D02*
G01*
X196273569Y-88873393D01*
X196304890Y-88890134D01*
X196332339Y-88912661D01*
X196354866Y-88940110D01*
X196371607Y-88971431D01*
X196381915Y-89005409D01*
X196386000Y-89046890D01*
X196386000Y-89723110D01*
X196381915Y-89764591D01*
X196371607Y-89798569D01*
X196354866Y-89829890D01*
X196332339Y-89857339D01*
X196304890Y-89879866D01*
X196273569Y-89896607D01*
X196239591Y-89906915D01*
X196198110Y-89911000D01*
X195596890Y-89911000D01*
X195555409Y-89906915D01*
X195521431Y-89896607D01*
X195490110Y-89879866D01*
X195462661Y-89857339D01*
X195440134Y-89829890D01*
X195423393Y-89798569D01*
X195413085Y-89764591D01*
X195409000Y-89723110D01*
X195409000Y-89046890D01*
X195413085Y-89005409D01*
X195423393Y-88971431D01*
X195440134Y-88940110D01*
X195462661Y-88912661D01*
X195490110Y-88890134D01*
X195521431Y-88873393D01*
X195555409Y-88863085D01*
X195596890Y-88859000D01*
X196198110Y-88859000D01*
X196239591Y-88863085D01*
G37*
G36*
X194664591Y-88863085D02*
G01*
X194698569Y-88873393D01*
X194729890Y-88890134D01*
X194757339Y-88912661D01*
X194779866Y-88940110D01*
X194796607Y-88971431D01*
X194806915Y-89005409D01*
X194811000Y-89046890D01*
X194811000Y-89723110D01*
X194806915Y-89764591D01*
X194796607Y-89798569D01*
X194779866Y-89829890D01*
X194757339Y-89857339D01*
X194729890Y-89879866D01*
X194698569Y-89896607D01*
X194664591Y-89906915D01*
X194623110Y-89911000D01*
X194021890Y-89911000D01*
X193980409Y-89906915D01*
X193946431Y-89896607D01*
X193915110Y-89879866D01*
X193887661Y-89857339D01*
X193865134Y-89829890D01*
X193848393Y-89798569D01*
X193838085Y-89764591D01*
X193834000Y-89723110D01*
X193834000Y-89046890D01*
X193838085Y-89005409D01*
X193848393Y-88971431D01*
X193865134Y-88940110D01*
X193887661Y-88912661D01*
X193915110Y-88890134D01*
X193946431Y-88873393D01*
X193980409Y-88863085D01*
X194021890Y-88859000D01*
X194623110Y-88859000D01*
X194664591Y-88863085D01*
G37*
G36*
X191752091Y-88863085D02*
G01*
X191786069Y-88873393D01*
X191817390Y-88890134D01*
X191844839Y-88912661D01*
X191867366Y-88940110D01*
X191884107Y-88971431D01*
X191894415Y-89005409D01*
X191898500Y-89046890D01*
X191898500Y-89723110D01*
X191894415Y-89764591D01*
X191884107Y-89798569D01*
X191867366Y-89829890D01*
X191844839Y-89857339D01*
X191817390Y-89879866D01*
X191786069Y-89896607D01*
X191752091Y-89906915D01*
X191710610Y-89911000D01*
X191109390Y-89911000D01*
X191067909Y-89906915D01*
X191033931Y-89896607D01*
X191002610Y-89879866D01*
X190975161Y-89857339D01*
X190952634Y-89829890D01*
X190935893Y-89798569D01*
X190925585Y-89764591D01*
X190921500Y-89723110D01*
X190921500Y-89046890D01*
X190925585Y-89005409D01*
X190935893Y-88971431D01*
X190952634Y-88940110D01*
X190975161Y-88912661D01*
X191002610Y-88890134D01*
X191033931Y-88873393D01*
X191067909Y-88863085D01*
X191109390Y-88859000D01*
X191710610Y-88859000D01*
X191752091Y-88863085D01*
G37*
G36*
X153480295Y-81735323D02*
G01*
X153487310Y-81737451D01*
X153493776Y-81740908D01*
X153499442Y-81745558D01*
X153504092Y-81751224D01*
X153507549Y-81757690D01*
X153509677Y-81764705D01*
X153511000Y-81778140D01*
X153511000Y-82091860D01*
X153509677Y-82105295D01*
X153507549Y-82112309D01*
X153500190Y-82126077D01*
X153490813Y-82148716D01*
X153486033Y-82172749D01*
X153486033Y-82197253D01*
X153490814Y-82221286D01*
X153500190Y-82243923D01*
X153507549Y-82257691D01*
X153509677Y-82264705D01*
X153511000Y-82278140D01*
X153511000Y-82591860D01*
X153509677Y-82605295D01*
X153507549Y-82612309D01*
X153500190Y-82626077D01*
X153490813Y-82648716D01*
X153486033Y-82672749D01*
X153486033Y-82697253D01*
X153490814Y-82721286D01*
X153500190Y-82743923D01*
X153507549Y-82757691D01*
X153509677Y-82764705D01*
X153511000Y-82778140D01*
X153511000Y-83091860D01*
X153509677Y-83105295D01*
X153507549Y-83112309D01*
X153500190Y-83126077D01*
X153490813Y-83148716D01*
X153486033Y-83172749D01*
X153486033Y-83197253D01*
X153490814Y-83221286D01*
X153500190Y-83243923D01*
X153507549Y-83257691D01*
X153509677Y-83264705D01*
X153511000Y-83278140D01*
X153511000Y-83591860D01*
X153509677Y-83605295D01*
X153507549Y-83612309D01*
X153500190Y-83626077D01*
X153490813Y-83648716D01*
X153486033Y-83672749D01*
X153486033Y-83697253D01*
X153490814Y-83721286D01*
X153500190Y-83743923D01*
X153507549Y-83757691D01*
X153509677Y-83764705D01*
X153511000Y-83778140D01*
X153511000Y-84091860D01*
X153509677Y-84105295D01*
X153507549Y-84112309D01*
X153500190Y-84126077D01*
X153490813Y-84148716D01*
X153486033Y-84172749D01*
X153486033Y-84197253D01*
X153490814Y-84221286D01*
X153500190Y-84243923D01*
X153507549Y-84257691D01*
X153509677Y-84264705D01*
X153511000Y-84278140D01*
X153511000Y-84591860D01*
X153509677Y-84605295D01*
X153507549Y-84612309D01*
X153500190Y-84626077D01*
X153490813Y-84648716D01*
X153486033Y-84672749D01*
X153486033Y-84697253D01*
X153490814Y-84721286D01*
X153500190Y-84743923D01*
X153507549Y-84757691D01*
X153509677Y-84764705D01*
X153511000Y-84778140D01*
X153511000Y-85091860D01*
X153509677Y-85105295D01*
X153507549Y-85112309D01*
X153500190Y-85126077D01*
X153490813Y-85148716D01*
X153486033Y-85172749D01*
X153486033Y-85197253D01*
X153490814Y-85221286D01*
X153500190Y-85243923D01*
X153507549Y-85257691D01*
X153509677Y-85264705D01*
X153511000Y-85278140D01*
X153511000Y-85591860D01*
X153509677Y-85605295D01*
X153507549Y-85612309D01*
X153500190Y-85626077D01*
X153490813Y-85648716D01*
X153486033Y-85672749D01*
X153486033Y-85697253D01*
X153490814Y-85721286D01*
X153500190Y-85743923D01*
X153507549Y-85757691D01*
X153509677Y-85764705D01*
X153511000Y-85778140D01*
X153511000Y-86091860D01*
X153509677Y-86105295D01*
X153507549Y-86112309D01*
X153500190Y-86126077D01*
X153490813Y-86148716D01*
X153486033Y-86172749D01*
X153486033Y-86197253D01*
X153490814Y-86221286D01*
X153500190Y-86243923D01*
X153507549Y-86257691D01*
X153509677Y-86264705D01*
X153511000Y-86278140D01*
X153511000Y-86591860D01*
X153509677Y-86605295D01*
X153507549Y-86612309D01*
X153500190Y-86626077D01*
X153490813Y-86648716D01*
X153486033Y-86672749D01*
X153486033Y-86697253D01*
X153490814Y-86721286D01*
X153500190Y-86743923D01*
X153507549Y-86757691D01*
X153509677Y-86764705D01*
X153511000Y-86778140D01*
X153511000Y-87091860D01*
X153509677Y-87105295D01*
X153507549Y-87112309D01*
X153500190Y-87126077D01*
X153490813Y-87148716D01*
X153486033Y-87172749D01*
X153486033Y-87197253D01*
X153490814Y-87221286D01*
X153500190Y-87243923D01*
X153507549Y-87257691D01*
X153509677Y-87264705D01*
X153511000Y-87278140D01*
X153511000Y-87591860D01*
X153509677Y-87605295D01*
X153507549Y-87612309D01*
X153500190Y-87626077D01*
X153490813Y-87648716D01*
X153486033Y-87672749D01*
X153486033Y-87697253D01*
X153490814Y-87721286D01*
X153500190Y-87743923D01*
X153507549Y-87757691D01*
X153509677Y-87764705D01*
X153511000Y-87778140D01*
X153511000Y-88091860D01*
X153509677Y-88105295D01*
X153507549Y-88112309D01*
X153500190Y-88126077D01*
X153490813Y-88148716D01*
X153486033Y-88172749D01*
X153486033Y-88197253D01*
X153490814Y-88221286D01*
X153500190Y-88243923D01*
X153507549Y-88257691D01*
X153509677Y-88264705D01*
X153511000Y-88278140D01*
X153511000Y-88591860D01*
X153509677Y-88605295D01*
X153507549Y-88612309D01*
X153500190Y-88626077D01*
X153490813Y-88648716D01*
X153486033Y-88672749D01*
X153486033Y-88697253D01*
X153490814Y-88721286D01*
X153500190Y-88743923D01*
X153507549Y-88757691D01*
X153509677Y-88764705D01*
X153511000Y-88778140D01*
X153511000Y-89091860D01*
X153509677Y-89105295D01*
X153507549Y-89112309D01*
X153500190Y-89126077D01*
X153490813Y-89148716D01*
X153486033Y-89172749D01*
X153486033Y-89197253D01*
X153490814Y-89221286D01*
X153500190Y-89243923D01*
X153507549Y-89257691D01*
X153509677Y-89264705D01*
X153511000Y-89278140D01*
X153511000Y-89591860D01*
X153509677Y-89605295D01*
X153507549Y-89612310D01*
X153504092Y-89618776D01*
X153499442Y-89624442D01*
X153493776Y-89629092D01*
X153487310Y-89632549D01*
X153480295Y-89634677D01*
X153466860Y-89636000D01*
X151903140Y-89636000D01*
X151889705Y-89634677D01*
X151882690Y-89632549D01*
X151876224Y-89629092D01*
X151870558Y-89624442D01*
X151865908Y-89618776D01*
X151862451Y-89612310D01*
X151860323Y-89605295D01*
X151859000Y-89591860D01*
X151859000Y-89278140D01*
X151860323Y-89264705D01*
X151862451Y-89257691D01*
X151869810Y-89243923D01*
X151879187Y-89221284D01*
X151883967Y-89197251D01*
X151883967Y-89172747D01*
X151879186Y-89148714D01*
X151869810Y-89126077D01*
X151862451Y-89112309D01*
X151860323Y-89105295D01*
X151859000Y-89091860D01*
X151859000Y-88778140D01*
X151860323Y-88764705D01*
X151862451Y-88757691D01*
X151869810Y-88743923D01*
X151879187Y-88721284D01*
X151883967Y-88697251D01*
X151883967Y-88672747D01*
X151879186Y-88648714D01*
X151869810Y-88626077D01*
X151862451Y-88612309D01*
X151860323Y-88605295D01*
X151859000Y-88591860D01*
X151859000Y-88278140D01*
X151860323Y-88264705D01*
X151862451Y-88257691D01*
X151869810Y-88243923D01*
X151879187Y-88221284D01*
X151883967Y-88197251D01*
X151883967Y-88172747D01*
X151879186Y-88148714D01*
X151869810Y-88126077D01*
X151862451Y-88112309D01*
X151860323Y-88105295D01*
X151859000Y-88091860D01*
X151859000Y-87778140D01*
X151860323Y-87764705D01*
X151862451Y-87757691D01*
X151869810Y-87743923D01*
X151879187Y-87721284D01*
X151883967Y-87697251D01*
X151883967Y-87672747D01*
X151879186Y-87648714D01*
X151869810Y-87626077D01*
X151862451Y-87612309D01*
X151860323Y-87605295D01*
X151859000Y-87591860D01*
X151859000Y-87278140D01*
X151860323Y-87264705D01*
X151862451Y-87257691D01*
X151869810Y-87243923D01*
X151879187Y-87221284D01*
X151883967Y-87197251D01*
X151883967Y-87172747D01*
X151879186Y-87148714D01*
X151869810Y-87126077D01*
X151862451Y-87112309D01*
X151860323Y-87105295D01*
X151859000Y-87091860D01*
X151859000Y-86778140D01*
X151860323Y-86764705D01*
X151862451Y-86757691D01*
X151869810Y-86743923D01*
X151879187Y-86721284D01*
X151883967Y-86697251D01*
X151883967Y-86672747D01*
X151879186Y-86648714D01*
X151869810Y-86626077D01*
X151862451Y-86612309D01*
X151860323Y-86605295D01*
X151859000Y-86591860D01*
X151859000Y-86278140D01*
X151860323Y-86264705D01*
X151862451Y-86257691D01*
X151869810Y-86243923D01*
X151879187Y-86221284D01*
X151883967Y-86197251D01*
X151883967Y-86172747D01*
X151879186Y-86148714D01*
X151869810Y-86126077D01*
X151862451Y-86112309D01*
X151860323Y-86105295D01*
X151859000Y-86091860D01*
X151859000Y-85778140D01*
X151860323Y-85764705D01*
X151862451Y-85757691D01*
X151869810Y-85743923D01*
X151879187Y-85721284D01*
X151883967Y-85697251D01*
X151883967Y-85672747D01*
X151879186Y-85648714D01*
X151869810Y-85626077D01*
X151862451Y-85612309D01*
X151860323Y-85605295D01*
X151859000Y-85591860D01*
X151859000Y-85278140D01*
X151860323Y-85264705D01*
X151862451Y-85257691D01*
X151869810Y-85243923D01*
X151879187Y-85221284D01*
X151883967Y-85197251D01*
X151883967Y-85172747D01*
X151879186Y-85148714D01*
X151869810Y-85126077D01*
X151862451Y-85112309D01*
X151860323Y-85105295D01*
X151859000Y-85091860D01*
X151859000Y-84778140D01*
X151860323Y-84764705D01*
X151862451Y-84757691D01*
X151869810Y-84743923D01*
X151879187Y-84721284D01*
X151883967Y-84697251D01*
X151883967Y-84672747D01*
X151879186Y-84648714D01*
X151869810Y-84626077D01*
X151862451Y-84612309D01*
X151860323Y-84605295D01*
X151859000Y-84591860D01*
X151859000Y-84278140D01*
X151860323Y-84264705D01*
X151862451Y-84257691D01*
X151869810Y-84243923D01*
X151879187Y-84221284D01*
X151883967Y-84197251D01*
X151883967Y-84172747D01*
X151879186Y-84148714D01*
X151869810Y-84126077D01*
X151862451Y-84112309D01*
X151860323Y-84105295D01*
X151859000Y-84091860D01*
X151859000Y-83778140D01*
X151860323Y-83764705D01*
X151862451Y-83757691D01*
X151869810Y-83743923D01*
X151879187Y-83721284D01*
X151883967Y-83697251D01*
X151883967Y-83672747D01*
X151879186Y-83648714D01*
X151869810Y-83626077D01*
X151862451Y-83612309D01*
X151860323Y-83605295D01*
X151859000Y-83591860D01*
X151859000Y-83278140D01*
X151860323Y-83264705D01*
X151862451Y-83257691D01*
X151869810Y-83243923D01*
X151879187Y-83221284D01*
X151883967Y-83197251D01*
X151883967Y-83172747D01*
X151879186Y-83148714D01*
X151869810Y-83126077D01*
X151862451Y-83112309D01*
X151860323Y-83105295D01*
X151859000Y-83091860D01*
X151859000Y-82778140D01*
X151860323Y-82764705D01*
X151862451Y-82757691D01*
X151869810Y-82743923D01*
X151879187Y-82721284D01*
X151883967Y-82697251D01*
X151883967Y-82672747D01*
X151879186Y-82648714D01*
X151869810Y-82626077D01*
X151862451Y-82612309D01*
X151860323Y-82605295D01*
X151859000Y-82591860D01*
X151859000Y-82278140D01*
X151860323Y-82264705D01*
X151862451Y-82257691D01*
X151869810Y-82243923D01*
X151879187Y-82221284D01*
X151883967Y-82197251D01*
X151883967Y-82172747D01*
X151879186Y-82148714D01*
X151869810Y-82126077D01*
X151862451Y-82112309D01*
X151860323Y-82105295D01*
X151859000Y-82091860D01*
X151859000Y-81778140D01*
X151860323Y-81764705D01*
X151862451Y-81757690D01*
X151865908Y-81751224D01*
X151870558Y-81745558D01*
X151876224Y-81740908D01*
X151882690Y-81737451D01*
X151889705Y-81735323D01*
X151903140Y-81734000D01*
X153466860Y-81734000D01*
X153480295Y-81735323D01*
G37*
G36*
X142130295Y-81735323D02*
G01*
X142137310Y-81737451D01*
X142143776Y-81740908D01*
X142149442Y-81745558D01*
X142154092Y-81751224D01*
X142157549Y-81757690D01*
X142159677Y-81764705D01*
X142161000Y-81778140D01*
X142161000Y-82091860D01*
X142159677Y-82105295D01*
X142157549Y-82112309D01*
X142150190Y-82126077D01*
X142140813Y-82148716D01*
X142136033Y-82172749D01*
X142136033Y-82197253D01*
X142140814Y-82221286D01*
X142150190Y-82243923D01*
X142157549Y-82257691D01*
X142159677Y-82264705D01*
X142161000Y-82278140D01*
X142161000Y-82591860D01*
X142159677Y-82605295D01*
X142157549Y-82612309D01*
X142150190Y-82626077D01*
X142140813Y-82648716D01*
X142136033Y-82672749D01*
X142136033Y-82697253D01*
X142140814Y-82721286D01*
X142150190Y-82743923D01*
X142157549Y-82757691D01*
X142159677Y-82764705D01*
X142161000Y-82778140D01*
X142161000Y-83091860D01*
X142159677Y-83105295D01*
X142157549Y-83112309D01*
X142150190Y-83126077D01*
X142140813Y-83148716D01*
X142136033Y-83172749D01*
X142136033Y-83197253D01*
X142140814Y-83221286D01*
X142150190Y-83243923D01*
X142157549Y-83257691D01*
X142159677Y-83264705D01*
X142161000Y-83278140D01*
X142161000Y-83591860D01*
X142159677Y-83605295D01*
X142157549Y-83612309D01*
X142150190Y-83626077D01*
X142140813Y-83648716D01*
X142136033Y-83672749D01*
X142136033Y-83697253D01*
X142140814Y-83721286D01*
X142150190Y-83743923D01*
X142157549Y-83757691D01*
X142159677Y-83764705D01*
X142161000Y-83778140D01*
X142161000Y-84091860D01*
X142159677Y-84105295D01*
X142157549Y-84112309D01*
X142150190Y-84126077D01*
X142140813Y-84148716D01*
X142136033Y-84172749D01*
X142136033Y-84197253D01*
X142140814Y-84221286D01*
X142150190Y-84243923D01*
X142157549Y-84257691D01*
X142159677Y-84264705D01*
X142161000Y-84278140D01*
X142161000Y-84591860D01*
X142159677Y-84605295D01*
X142157549Y-84612309D01*
X142150190Y-84626077D01*
X142140813Y-84648716D01*
X142136033Y-84672749D01*
X142136033Y-84697253D01*
X142140814Y-84721286D01*
X142150190Y-84743923D01*
X142157549Y-84757691D01*
X142159677Y-84764705D01*
X142161000Y-84778140D01*
X142161000Y-85091860D01*
X142159677Y-85105295D01*
X142157549Y-85112309D01*
X142150190Y-85126077D01*
X142140813Y-85148716D01*
X142136033Y-85172749D01*
X142136033Y-85197253D01*
X142140814Y-85221286D01*
X142150190Y-85243923D01*
X142157549Y-85257691D01*
X142159677Y-85264705D01*
X142161000Y-85278140D01*
X142161000Y-85591860D01*
X142159677Y-85605295D01*
X142157549Y-85612309D01*
X142150190Y-85626077D01*
X142140813Y-85648716D01*
X142136033Y-85672749D01*
X142136033Y-85697253D01*
X142140814Y-85721286D01*
X142150190Y-85743923D01*
X142157549Y-85757691D01*
X142159677Y-85764705D01*
X142161000Y-85778140D01*
X142161000Y-86091860D01*
X142159677Y-86105295D01*
X142157549Y-86112309D01*
X142150190Y-86126077D01*
X142140813Y-86148716D01*
X142136033Y-86172749D01*
X142136033Y-86197253D01*
X142140814Y-86221286D01*
X142150190Y-86243923D01*
X142157549Y-86257691D01*
X142159677Y-86264705D01*
X142161000Y-86278140D01*
X142161000Y-86591860D01*
X142159677Y-86605295D01*
X142157549Y-86612309D01*
X142150190Y-86626077D01*
X142140813Y-86648716D01*
X142136033Y-86672749D01*
X142136033Y-86697253D01*
X142140814Y-86721286D01*
X142150190Y-86743923D01*
X142157549Y-86757691D01*
X142159677Y-86764705D01*
X142161000Y-86778140D01*
X142161000Y-87091860D01*
X142159677Y-87105295D01*
X142157549Y-87112309D01*
X142150190Y-87126077D01*
X142140813Y-87148716D01*
X142136033Y-87172749D01*
X142136033Y-87197253D01*
X142140814Y-87221286D01*
X142150190Y-87243923D01*
X142157549Y-87257691D01*
X142159677Y-87264705D01*
X142161000Y-87278140D01*
X142161000Y-87591860D01*
X142159677Y-87605295D01*
X142157549Y-87612309D01*
X142150190Y-87626077D01*
X142140813Y-87648716D01*
X142136033Y-87672749D01*
X142136033Y-87697253D01*
X142140814Y-87721286D01*
X142150190Y-87743923D01*
X142157549Y-87757691D01*
X142159677Y-87764705D01*
X142161000Y-87778140D01*
X142161000Y-88091860D01*
X142159677Y-88105295D01*
X142157549Y-88112309D01*
X142150190Y-88126077D01*
X142140813Y-88148716D01*
X142136033Y-88172749D01*
X142136033Y-88197253D01*
X142140814Y-88221286D01*
X142150190Y-88243923D01*
X142157549Y-88257691D01*
X142159677Y-88264705D01*
X142161000Y-88278140D01*
X142161000Y-88591860D01*
X142159677Y-88605295D01*
X142157549Y-88612309D01*
X142150190Y-88626077D01*
X142140813Y-88648716D01*
X142136033Y-88672749D01*
X142136033Y-88697253D01*
X142140814Y-88721286D01*
X142150190Y-88743923D01*
X142157549Y-88757691D01*
X142159677Y-88764705D01*
X142161000Y-88778140D01*
X142161000Y-89091860D01*
X142159677Y-89105295D01*
X142157549Y-89112309D01*
X142150190Y-89126077D01*
X142140813Y-89148716D01*
X142136033Y-89172749D01*
X142136033Y-89197253D01*
X142140814Y-89221286D01*
X142150190Y-89243923D01*
X142157549Y-89257691D01*
X142159677Y-89264705D01*
X142161000Y-89278140D01*
X142161000Y-89591860D01*
X142159677Y-89605295D01*
X142157549Y-89612310D01*
X142154092Y-89618776D01*
X142149442Y-89624442D01*
X142143776Y-89629092D01*
X142137310Y-89632549D01*
X142130295Y-89634677D01*
X142116860Y-89636000D01*
X140553140Y-89636000D01*
X140539705Y-89634677D01*
X140532690Y-89632549D01*
X140526224Y-89629092D01*
X140520558Y-89624442D01*
X140515908Y-89618776D01*
X140512451Y-89612310D01*
X140510323Y-89605295D01*
X140509000Y-89591860D01*
X140509000Y-89278140D01*
X140510323Y-89264705D01*
X140512451Y-89257691D01*
X140519810Y-89243923D01*
X140529187Y-89221284D01*
X140533967Y-89197251D01*
X140533967Y-89172747D01*
X140529186Y-89148714D01*
X140519810Y-89126077D01*
X140512451Y-89112309D01*
X140510323Y-89105295D01*
X140509000Y-89091860D01*
X140509000Y-88778140D01*
X140510323Y-88764705D01*
X140512451Y-88757691D01*
X140519810Y-88743923D01*
X140529187Y-88721284D01*
X140533967Y-88697251D01*
X140533967Y-88672747D01*
X140529186Y-88648714D01*
X140519810Y-88626077D01*
X140512451Y-88612309D01*
X140510323Y-88605295D01*
X140509000Y-88591860D01*
X140509000Y-88278140D01*
X140510323Y-88264705D01*
X140512451Y-88257691D01*
X140519810Y-88243923D01*
X140529187Y-88221284D01*
X140533967Y-88197251D01*
X140533967Y-88172747D01*
X140529186Y-88148714D01*
X140519810Y-88126077D01*
X140512451Y-88112309D01*
X140510323Y-88105295D01*
X140509000Y-88091860D01*
X140509000Y-87778140D01*
X140510323Y-87764705D01*
X140512451Y-87757691D01*
X140519810Y-87743923D01*
X140529187Y-87721284D01*
X140533967Y-87697251D01*
X140533967Y-87672747D01*
X140529186Y-87648714D01*
X140519810Y-87626077D01*
X140512451Y-87612309D01*
X140510323Y-87605295D01*
X140509000Y-87591860D01*
X140509000Y-87278140D01*
X140510323Y-87264705D01*
X140512451Y-87257691D01*
X140519810Y-87243923D01*
X140529187Y-87221284D01*
X140533967Y-87197251D01*
X140533967Y-87172747D01*
X140529186Y-87148714D01*
X140519810Y-87126077D01*
X140512451Y-87112309D01*
X140510323Y-87105295D01*
X140509000Y-87091860D01*
X140509000Y-86778140D01*
X140510323Y-86764705D01*
X140512451Y-86757691D01*
X140519810Y-86743923D01*
X140529187Y-86721284D01*
X140533967Y-86697251D01*
X140533967Y-86672747D01*
X140529186Y-86648714D01*
X140519810Y-86626077D01*
X140512451Y-86612309D01*
X140510323Y-86605295D01*
X140509000Y-86591860D01*
X140509000Y-86278140D01*
X140510323Y-86264705D01*
X140512451Y-86257691D01*
X140519810Y-86243923D01*
X140529187Y-86221284D01*
X140533967Y-86197251D01*
X140533967Y-86172747D01*
X140529186Y-86148714D01*
X140519810Y-86126077D01*
X140512451Y-86112309D01*
X140510323Y-86105295D01*
X140509000Y-86091860D01*
X140509000Y-85778140D01*
X140510323Y-85764705D01*
X140512451Y-85757691D01*
X140519810Y-85743923D01*
X140529187Y-85721284D01*
X140533967Y-85697251D01*
X140533967Y-85672747D01*
X140529186Y-85648714D01*
X140519810Y-85626077D01*
X140512451Y-85612309D01*
X140510323Y-85605295D01*
X140509000Y-85591860D01*
X140509000Y-85278140D01*
X140510323Y-85264705D01*
X140512451Y-85257691D01*
X140519810Y-85243923D01*
X140529187Y-85221284D01*
X140533967Y-85197251D01*
X140533967Y-85172747D01*
X140529186Y-85148714D01*
X140519810Y-85126077D01*
X140512451Y-85112309D01*
X140510323Y-85105295D01*
X140509000Y-85091860D01*
X140509000Y-84778140D01*
X140510323Y-84764705D01*
X140512451Y-84757691D01*
X140519810Y-84743923D01*
X140529187Y-84721284D01*
X140533967Y-84697251D01*
X140533967Y-84672747D01*
X140529186Y-84648714D01*
X140519810Y-84626077D01*
X140512451Y-84612309D01*
X140510323Y-84605295D01*
X140509000Y-84591860D01*
X140509000Y-84278140D01*
X140510323Y-84264705D01*
X140512451Y-84257691D01*
X140519810Y-84243923D01*
X140529187Y-84221284D01*
X140533967Y-84197251D01*
X140533967Y-84172747D01*
X140529186Y-84148714D01*
X140519810Y-84126077D01*
X140512451Y-84112309D01*
X140510323Y-84105295D01*
X140509000Y-84091860D01*
X140509000Y-83778140D01*
X140510323Y-83764705D01*
X140512451Y-83757691D01*
X140519810Y-83743923D01*
X140529187Y-83721284D01*
X140533967Y-83697251D01*
X140533967Y-83672747D01*
X140529186Y-83648714D01*
X140519810Y-83626077D01*
X140512451Y-83612309D01*
X140510323Y-83605295D01*
X140509000Y-83591860D01*
X140509000Y-83278140D01*
X140510323Y-83264705D01*
X140512451Y-83257691D01*
X140519810Y-83243923D01*
X140529187Y-83221284D01*
X140533967Y-83197251D01*
X140533967Y-83172747D01*
X140529186Y-83148714D01*
X140519810Y-83126077D01*
X140512451Y-83112309D01*
X140510323Y-83105295D01*
X140509000Y-83091860D01*
X140509000Y-82778140D01*
X140510323Y-82764705D01*
X140512451Y-82757691D01*
X140519810Y-82743923D01*
X140529187Y-82721284D01*
X140533967Y-82697251D01*
X140533967Y-82672747D01*
X140529186Y-82648714D01*
X140519810Y-82626077D01*
X140512451Y-82612309D01*
X140510323Y-82605295D01*
X140509000Y-82591860D01*
X140509000Y-82278140D01*
X140510323Y-82264705D01*
X140512451Y-82257691D01*
X140519810Y-82243923D01*
X140529187Y-82221284D01*
X140533967Y-82197251D01*
X140533967Y-82172747D01*
X140529186Y-82148714D01*
X140519810Y-82126077D01*
X140512451Y-82112309D01*
X140510323Y-82105295D01*
X140509000Y-82091860D01*
X140509000Y-81778140D01*
X140510323Y-81764705D01*
X140512451Y-81757690D01*
X140515908Y-81751224D01*
X140520558Y-81745558D01*
X140526224Y-81740908D01*
X140532690Y-81737451D01*
X140539705Y-81735323D01*
X140553140Y-81734000D01*
X142116860Y-81734000D01*
X142130295Y-81735323D01*
G37*
G36*
X138679591Y-88528085D02*
G01*
X138713569Y-88538393D01*
X138744890Y-88555134D01*
X138772339Y-88577661D01*
X138794866Y-88605110D01*
X138811607Y-88636431D01*
X138821915Y-88670409D01*
X138826000Y-88711890D01*
X138826000Y-89388110D01*
X138821915Y-89429591D01*
X138811607Y-89463569D01*
X138794866Y-89494890D01*
X138772339Y-89522339D01*
X138744890Y-89544866D01*
X138713569Y-89561607D01*
X138679591Y-89571915D01*
X138638110Y-89576000D01*
X138036890Y-89576000D01*
X137995409Y-89571915D01*
X137961431Y-89561607D01*
X137930110Y-89544866D01*
X137902661Y-89522339D01*
X137880134Y-89494890D01*
X137863393Y-89463569D01*
X137853085Y-89429591D01*
X137849000Y-89388110D01*
X137849000Y-88711890D01*
X137853085Y-88670409D01*
X137863393Y-88636431D01*
X137880134Y-88605110D01*
X137902661Y-88577661D01*
X137930110Y-88555134D01*
X137961431Y-88538393D01*
X137995409Y-88528085D01*
X138036890Y-88524000D01*
X138638110Y-88524000D01*
X138679591Y-88528085D01*
G37*
G36*
X137104591Y-88528085D02*
G01*
X137138569Y-88538393D01*
X137169890Y-88555134D01*
X137197339Y-88577661D01*
X137219866Y-88605110D01*
X137236607Y-88636431D01*
X137246915Y-88670409D01*
X137251000Y-88711890D01*
X137251000Y-89388110D01*
X137246915Y-89429591D01*
X137236607Y-89463569D01*
X137219866Y-89494890D01*
X137197339Y-89522339D01*
X137169890Y-89544866D01*
X137138569Y-89561607D01*
X137104591Y-89571915D01*
X137063110Y-89576000D01*
X136461890Y-89576000D01*
X136420409Y-89571915D01*
X136386431Y-89561607D01*
X136355110Y-89544866D01*
X136327661Y-89522339D01*
X136305134Y-89494890D01*
X136288393Y-89463569D01*
X136278085Y-89429591D01*
X136274000Y-89388110D01*
X136274000Y-88711890D01*
X136278085Y-88670409D01*
X136288393Y-88636431D01*
X136305134Y-88605110D01*
X136327661Y-88577661D01*
X136355110Y-88555134D01*
X136386431Y-88538393D01*
X136420409Y-88528085D01*
X136461890Y-88524000D01*
X137063110Y-88524000D01*
X137104591Y-88528085D01*
G37*
G36*
X164551000Y-89551000D02*
G01*
X163049000Y-89551000D01*
X163049000Y-87949000D01*
X164551000Y-87949000D01*
X164551000Y-89551000D01*
G37*
G36*
X176151000Y-89551000D02*
G01*
X174649000Y-89551000D01*
X174649000Y-87949000D01*
X176151000Y-87949000D01*
X176151000Y-89551000D01*
G37*
G36*
X187511000Y-88761000D02*
G01*
X186409000Y-88761000D01*
X186409000Y-84659000D01*
X187511000Y-84659000D01*
X187511000Y-88761000D01*
G37*
G36*
X184971000Y-88761000D02*
G01*
X183869000Y-88761000D01*
X183869000Y-84659000D01*
X184971000Y-84659000D01*
X184971000Y-88761000D01*
G37*
G36*
X178621000Y-88761000D02*
G01*
X177519000Y-88761000D01*
X177519000Y-84659000D01*
X178621000Y-84659000D01*
X178621000Y-88761000D01*
G37*
G36*
X181161000Y-88761000D02*
G01*
X180059000Y-88761000D01*
X180059000Y-84659000D01*
X181161000Y-84659000D01*
X181161000Y-88761000D01*
G37*
G36*
X132089487Y-86133996D02*
G01*
X132300218Y-86221284D01*
X132326255Y-86232069D01*
X132539339Y-86374447D01*
X132720553Y-86555661D01*
X132860232Y-86764705D01*
X132862932Y-86768747D01*
X132961004Y-87005513D01*
X133011000Y-87256861D01*
X133011000Y-87513139D01*
X132961004Y-87764487D01*
X132884576Y-87949000D01*
X132862931Y-88001255D01*
X132720553Y-88214339D01*
X132539339Y-88395553D01*
X132326255Y-88537931D01*
X132326254Y-88537932D01*
X132326253Y-88537932D01*
X132089487Y-88636004D01*
X131838139Y-88686000D01*
X131581861Y-88686000D01*
X131330513Y-88636004D01*
X131093747Y-88537932D01*
X131093746Y-88537932D01*
X131093745Y-88537931D01*
X130880661Y-88395553D01*
X130699447Y-88214339D01*
X130557069Y-88001255D01*
X130535424Y-87949000D01*
X130458996Y-87764487D01*
X130409000Y-87513139D01*
X130409000Y-87256861D01*
X130458996Y-87005513D01*
X130557068Y-86768747D01*
X130559769Y-86764705D01*
X130699447Y-86555661D01*
X130880661Y-86374447D01*
X131093745Y-86232069D01*
X131119782Y-86221284D01*
X131330513Y-86133996D01*
X131581861Y-86084000D01*
X131838139Y-86084000D01*
X132089487Y-86133996D01*
G37*
G36*
X203692091Y-87365585D02*
G01*
X203726069Y-87375893D01*
X203757390Y-87392634D01*
X203784839Y-87415161D01*
X203807366Y-87442610D01*
X203824107Y-87473931D01*
X203834415Y-87507909D01*
X203838500Y-87549390D01*
X203838500Y-88150610D01*
X203834415Y-88192091D01*
X203824107Y-88226069D01*
X203807366Y-88257390D01*
X203784839Y-88284839D01*
X203757390Y-88307366D01*
X203726069Y-88324107D01*
X203692091Y-88334415D01*
X203650610Y-88338500D01*
X202974390Y-88338500D01*
X202932909Y-88334415D01*
X202898931Y-88324107D01*
X202867610Y-88307366D01*
X202840161Y-88284839D01*
X202817634Y-88257390D01*
X202800893Y-88226069D01*
X202790585Y-88192091D01*
X202786500Y-88150610D01*
X202786500Y-87549390D01*
X202790585Y-87507909D01*
X202800893Y-87473931D01*
X202817634Y-87442610D01*
X202840161Y-87415161D01*
X202867610Y-87392634D01*
X202898931Y-87375893D01*
X202932909Y-87365585D01*
X202974390Y-87361500D01*
X203650610Y-87361500D01*
X203692091Y-87365585D01*
G37*
G36*
X137104591Y-86228085D02*
G01*
X137138569Y-86238393D01*
X137169890Y-86255134D01*
X137197339Y-86277661D01*
X137219866Y-86305110D01*
X137236607Y-86336431D01*
X137246915Y-86370409D01*
X137251000Y-86411890D01*
X137251000Y-87088110D01*
X137246915Y-87129591D01*
X137236607Y-87163569D01*
X137219866Y-87194890D01*
X137197339Y-87222339D01*
X137169890Y-87244866D01*
X137138569Y-87261607D01*
X137104591Y-87271915D01*
X137063110Y-87276000D01*
X136461890Y-87276000D01*
X136420409Y-87271915D01*
X136386431Y-87261607D01*
X136355110Y-87244866D01*
X136327661Y-87222339D01*
X136305134Y-87194890D01*
X136288393Y-87163569D01*
X136278085Y-87129591D01*
X136274000Y-87088110D01*
X136274000Y-86411890D01*
X136278085Y-86370409D01*
X136288393Y-86336431D01*
X136305134Y-86305110D01*
X136327661Y-86277661D01*
X136355110Y-86255134D01*
X136386431Y-86238393D01*
X136420409Y-86228085D01*
X136461890Y-86224000D01*
X137063110Y-86224000D01*
X137104591Y-86228085D01*
G37*
G36*
X138679591Y-86228085D02*
G01*
X138713569Y-86238393D01*
X138744890Y-86255134D01*
X138772339Y-86277661D01*
X138794866Y-86305110D01*
X138811607Y-86336431D01*
X138821915Y-86370409D01*
X138826000Y-86411890D01*
X138826000Y-87088110D01*
X138821915Y-87129591D01*
X138811607Y-87163569D01*
X138794866Y-87194890D01*
X138772339Y-87222339D01*
X138744890Y-87244866D01*
X138713569Y-87261607D01*
X138679591Y-87271915D01*
X138638110Y-87276000D01*
X138036890Y-87276000D01*
X137995409Y-87271915D01*
X137961431Y-87261607D01*
X137930110Y-87244866D01*
X137902661Y-87222339D01*
X137880134Y-87194890D01*
X137863393Y-87163569D01*
X137853085Y-87129591D01*
X137849000Y-87088110D01*
X137849000Y-86411890D01*
X137853085Y-86370409D01*
X137863393Y-86336431D01*
X137880134Y-86305110D01*
X137902661Y-86277661D01*
X137930110Y-86255134D01*
X137961431Y-86238393D01*
X137995409Y-86228085D01*
X138036890Y-86224000D01*
X138638110Y-86224000D01*
X138679591Y-86228085D01*
G37*
G36*
X200546000Y-87061000D02*
G01*
X198694000Y-87061000D01*
X198694000Y-86209000D01*
X200546000Y-86209000D01*
X200546000Y-87061000D01*
G37*
G36*
X196289591Y-85953085D02*
G01*
X196323569Y-85963393D01*
X196354890Y-85980134D01*
X196382339Y-86002661D01*
X196404866Y-86030110D01*
X196421607Y-86061431D01*
X196431915Y-86095409D01*
X196436000Y-86136890D01*
X196436000Y-86738110D01*
X196431915Y-86779591D01*
X196421607Y-86813569D01*
X196404866Y-86844890D01*
X196382339Y-86872339D01*
X196354890Y-86894866D01*
X196323569Y-86911607D01*
X196289591Y-86921915D01*
X196248110Y-86926000D01*
X195571890Y-86926000D01*
X195530409Y-86921915D01*
X195496431Y-86911607D01*
X195465110Y-86894866D01*
X195437661Y-86872339D01*
X195415134Y-86844890D01*
X195398393Y-86813569D01*
X195388085Y-86779591D01*
X195384000Y-86738110D01*
X195384000Y-86136890D01*
X195388085Y-86095409D01*
X195398393Y-86061431D01*
X195415134Y-86030110D01*
X195437661Y-86002661D01*
X195465110Y-85980134D01*
X195496431Y-85963393D01*
X195530409Y-85953085D01*
X195571890Y-85949000D01*
X196248110Y-85949000D01*
X196289591Y-85953085D01*
G37*
G36*
X203679591Y-84915585D02*
G01*
X203713569Y-84925893D01*
X203744890Y-84942634D01*
X203772339Y-84965161D01*
X203794866Y-84992610D01*
X203811607Y-85023931D01*
X203821915Y-85057909D01*
X203826000Y-85099390D01*
X203826000Y-85700610D01*
X203821915Y-85742091D01*
X203811607Y-85776069D01*
X203794866Y-85807390D01*
X203772339Y-85834839D01*
X203744890Y-85857366D01*
X203713569Y-85874107D01*
X203679591Y-85884415D01*
X203638110Y-85888500D01*
X202961890Y-85888500D01*
X202920409Y-85884415D01*
X202886431Y-85874107D01*
X202855110Y-85857366D01*
X202827661Y-85834839D01*
X202805134Y-85807390D01*
X202788393Y-85776069D01*
X202778085Y-85742091D01*
X202774000Y-85700610D01*
X202774000Y-85099390D01*
X202778085Y-85057909D01*
X202788393Y-85023931D01*
X202805134Y-84992610D01*
X202827661Y-84965161D01*
X202855110Y-84942634D01*
X202886431Y-84925893D01*
X202920409Y-84915585D01*
X202961890Y-84911500D01*
X203638110Y-84911500D01*
X203679591Y-84915585D01*
G37*
G36*
X199046000Y-85861000D02*
G01*
X198194000Y-85861000D01*
X198194000Y-85509000D01*
X199046000Y-85509000D01*
X199046000Y-85861000D01*
G37*
G36*
X201046000Y-85861000D02*
G01*
X200194000Y-85861000D01*
X200194000Y-85509000D01*
X201046000Y-85509000D01*
X201046000Y-85861000D01*
G37*
G36*
X193381968Y-84103565D02*
G01*
X193420638Y-84115296D01*
X193456277Y-84134346D01*
X193487517Y-84159983D01*
X193513154Y-84191223D01*
X193532204Y-84226862D01*
X193543935Y-84265532D01*
X193548500Y-84311888D01*
X193548500Y-85388112D01*
X193543935Y-85434468D01*
X193532204Y-85473138D01*
X193513154Y-85508777D01*
X193487517Y-85540017D01*
X193456277Y-85565654D01*
X193420638Y-85584704D01*
X193381968Y-85596435D01*
X193335612Y-85601000D01*
X192684388Y-85601000D01*
X192638032Y-85596435D01*
X192599362Y-85584704D01*
X192563723Y-85565654D01*
X192532483Y-85540017D01*
X192506846Y-85508777D01*
X192487796Y-85473138D01*
X192476065Y-85434468D01*
X192471500Y-85388112D01*
X192471500Y-84311888D01*
X192476065Y-84265532D01*
X192487796Y-84226862D01*
X192506846Y-84191223D01*
X192532483Y-84159983D01*
X192563723Y-84134346D01*
X192599362Y-84115296D01*
X192638032Y-84103565D01*
X192684388Y-84099000D01*
X193335612Y-84099000D01*
X193381968Y-84103565D01*
G37*
G36*
X191506968Y-84103565D02*
G01*
X191545638Y-84115296D01*
X191581277Y-84134346D01*
X191612517Y-84159983D01*
X191638154Y-84191223D01*
X191657204Y-84226862D01*
X191668935Y-84265532D01*
X191673500Y-84311888D01*
X191673500Y-85388112D01*
X191668935Y-85434468D01*
X191657204Y-85473138D01*
X191638154Y-85508777D01*
X191612517Y-85540017D01*
X191581277Y-85565654D01*
X191545638Y-85584704D01*
X191506968Y-85596435D01*
X191460612Y-85601000D01*
X190809388Y-85601000D01*
X190763032Y-85596435D01*
X190724362Y-85584704D01*
X190688723Y-85565654D01*
X190657483Y-85540017D01*
X190631846Y-85508777D01*
X190612796Y-85473138D01*
X190601065Y-85434468D01*
X190596500Y-85388112D01*
X190596500Y-84311888D01*
X190601065Y-84265532D01*
X190612796Y-84226862D01*
X190631846Y-84191223D01*
X190657483Y-84159983D01*
X190688723Y-84134346D01*
X190724362Y-84115296D01*
X190763032Y-84103565D01*
X190809388Y-84099000D01*
X191460612Y-84099000D01*
X191506968Y-84103565D01*
G37*
G36*
X196289591Y-84378085D02*
G01*
X196323569Y-84388393D01*
X196354890Y-84405134D01*
X196382339Y-84427661D01*
X196404866Y-84455110D01*
X196421607Y-84486431D01*
X196431915Y-84520409D01*
X196436000Y-84561890D01*
X196436000Y-85163110D01*
X196431915Y-85204591D01*
X196421607Y-85238569D01*
X196404866Y-85269890D01*
X196382339Y-85297339D01*
X196354890Y-85319866D01*
X196323569Y-85336607D01*
X196289591Y-85346915D01*
X196248110Y-85351000D01*
X195571890Y-85351000D01*
X195530409Y-85346915D01*
X195496431Y-85336607D01*
X195465110Y-85319866D01*
X195437661Y-85297339D01*
X195415134Y-85269890D01*
X195398393Y-85238569D01*
X195388085Y-85204591D01*
X195384000Y-85163110D01*
X195384000Y-84561890D01*
X195388085Y-84520409D01*
X195398393Y-84486431D01*
X195415134Y-84455110D01*
X195437661Y-84427661D01*
X195465110Y-84405134D01*
X195496431Y-84388393D01*
X195530409Y-84378085D01*
X195571890Y-84374000D01*
X196248110Y-84374000D01*
X196289591Y-84378085D01*
G37*
G36*
X200546000Y-85161000D02*
G01*
X198694000Y-85161000D01*
X198694000Y-84309000D01*
X200546000Y-84309000D01*
X200546000Y-85161000D01*
G37*
G36*
X132089487Y-82533996D02*
G01*
X132294856Y-82619063D01*
X132326255Y-82632069D01*
X132539339Y-82774447D01*
X132720553Y-82955661D01*
X132849547Y-83148714D01*
X132862932Y-83168747D01*
X132961004Y-83405513D01*
X133011000Y-83656861D01*
X133011000Y-83913139D01*
X132961004Y-84164487D01*
X132862932Y-84401253D01*
X132862931Y-84401255D01*
X132720553Y-84614339D01*
X132539339Y-84795553D01*
X132326255Y-84937931D01*
X132326254Y-84937932D01*
X132326253Y-84937932D01*
X132089487Y-85036004D01*
X131838139Y-85086000D01*
X131581861Y-85086000D01*
X131330513Y-85036004D01*
X131093747Y-84937932D01*
X131093746Y-84937932D01*
X131093745Y-84937931D01*
X130880661Y-84795553D01*
X130699447Y-84614339D01*
X130557069Y-84401255D01*
X130557068Y-84401253D01*
X130458996Y-84164487D01*
X130409000Y-83913139D01*
X130409000Y-83656861D01*
X130458996Y-83405513D01*
X130557068Y-83168747D01*
X130570454Y-83148714D01*
X130699447Y-82955661D01*
X130880661Y-82774447D01*
X131093745Y-82632069D01*
X131125144Y-82619063D01*
X131330513Y-82533996D01*
X131581861Y-82484000D01*
X131838139Y-82484000D01*
X132089487Y-82533996D01*
G37*
G36*
X138679591Y-83978085D02*
G01*
X138713569Y-83988393D01*
X138744890Y-84005134D01*
X138772339Y-84027661D01*
X138794866Y-84055110D01*
X138811607Y-84086431D01*
X138821915Y-84120409D01*
X138826000Y-84161890D01*
X138826000Y-84838110D01*
X138821915Y-84879591D01*
X138811607Y-84913569D01*
X138794866Y-84944890D01*
X138772339Y-84972339D01*
X138744890Y-84994866D01*
X138713569Y-85011607D01*
X138679591Y-85021915D01*
X138638110Y-85026000D01*
X138036890Y-85026000D01*
X137995409Y-85021915D01*
X137961431Y-85011607D01*
X137930110Y-84994866D01*
X137902661Y-84972339D01*
X137880134Y-84944890D01*
X137863393Y-84913569D01*
X137853085Y-84879591D01*
X137849000Y-84838110D01*
X137849000Y-84161890D01*
X137853085Y-84120409D01*
X137863393Y-84086431D01*
X137880134Y-84055110D01*
X137902661Y-84027661D01*
X137930110Y-84005134D01*
X137961431Y-83988393D01*
X137995409Y-83978085D01*
X138036890Y-83974000D01*
X138638110Y-83974000D01*
X138679591Y-83978085D01*
G37*
G36*
X137104591Y-83978085D02*
G01*
X137138569Y-83988393D01*
X137169890Y-84005134D01*
X137197339Y-84027661D01*
X137219866Y-84055110D01*
X137236607Y-84086431D01*
X137246915Y-84120409D01*
X137251000Y-84161890D01*
X137251000Y-84838110D01*
X137246915Y-84879591D01*
X137236607Y-84913569D01*
X137219866Y-84944890D01*
X137197339Y-84972339D01*
X137169890Y-84994866D01*
X137138569Y-85011607D01*
X137104591Y-85021915D01*
X137063110Y-85026000D01*
X136461890Y-85026000D01*
X136420409Y-85021915D01*
X136386431Y-85011607D01*
X136355110Y-84994866D01*
X136327661Y-84972339D01*
X136305134Y-84944890D01*
X136288393Y-84913569D01*
X136278085Y-84879591D01*
X136274000Y-84838110D01*
X136274000Y-84161890D01*
X136278085Y-84120409D01*
X136288393Y-84086431D01*
X136305134Y-84055110D01*
X136327661Y-84027661D01*
X136355110Y-84005134D01*
X136386431Y-83988393D01*
X136420409Y-83978085D01*
X136461890Y-83974000D01*
X137063110Y-83974000D01*
X137104591Y-83978085D01*
G37*
G36*
X203679591Y-83340585D02*
G01*
X203713569Y-83350893D01*
X203744890Y-83367634D01*
X203772339Y-83390161D01*
X203794866Y-83417610D01*
X203811607Y-83448931D01*
X203821915Y-83482909D01*
X203826000Y-83524390D01*
X203826000Y-84125610D01*
X203821915Y-84167091D01*
X203811607Y-84201069D01*
X203794866Y-84232390D01*
X203772339Y-84259839D01*
X203744890Y-84282366D01*
X203713569Y-84299107D01*
X203679591Y-84309415D01*
X203638110Y-84313500D01*
X202961890Y-84313500D01*
X202920409Y-84309415D01*
X202886431Y-84299107D01*
X202855110Y-84282366D01*
X202827661Y-84259839D01*
X202805134Y-84232390D01*
X202788393Y-84201069D01*
X202778085Y-84167091D01*
X202774000Y-84125610D01*
X202774000Y-83524390D01*
X202778085Y-83482909D01*
X202788393Y-83448931D01*
X202805134Y-83417610D01*
X202827661Y-83390161D01*
X202855110Y-83367634D01*
X202886431Y-83350893D01*
X202920409Y-83340585D01*
X202961890Y-83336500D01*
X203638110Y-83336500D01*
X203679591Y-83340585D01*
G37*
G36*
X155854591Y-81778085D02*
G01*
X155888569Y-81788393D01*
X155919890Y-81805134D01*
X155947339Y-81827661D01*
X155969866Y-81855110D01*
X155986607Y-81886431D01*
X155996915Y-81920409D01*
X156001000Y-81961890D01*
X156001000Y-82638110D01*
X155996915Y-82679591D01*
X155986607Y-82713569D01*
X155969866Y-82744890D01*
X155947339Y-82772339D01*
X155919890Y-82794866D01*
X155888569Y-82811607D01*
X155854591Y-82821915D01*
X155813110Y-82826000D01*
X155211890Y-82826000D01*
X155170409Y-82821915D01*
X155136431Y-82811607D01*
X155105110Y-82794866D01*
X155077661Y-82772339D01*
X155055134Y-82744890D01*
X155038393Y-82713569D01*
X155028085Y-82679591D01*
X155024000Y-82638110D01*
X155024000Y-81961890D01*
X155028085Y-81920409D01*
X155038393Y-81886431D01*
X155055134Y-81855110D01*
X155077661Y-81827661D01*
X155105110Y-81805134D01*
X155136431Y-81788393D01*
X155170409Y-81778085D01*
X155211890Y-81774000D01*
X155813110Y-81774000D01*
X155854591Y-81778085D01*
G37*
G36*
X137104591Y-81778085D02*
G01*
X137138569Y-81788393D01*
X137169890Y-81805134D01*
X137197339Y-81827661D01*
X137219866Y-81855110D01*
X137236607Y-81886431D01*
X137246915Y-81920409D01*
X137251000Y-81961890D01*
X137251000Y-82638110D01*
X137246915Y-82679591D01*
X137236607Y-82713569D01*
X137219866Y-82744890D01*
X137197339Y-82772339D01*
X137169890Y-82794866D01*
X137138569Y-82811607D01*
X137104591Y-82821915D01*
X137063110Y-82826000D01*
X136461890Y-82826000D01*
X136420409Y-82821915D01*
X136386431Y-82811607D01*
X136355110Y-82794866D01*
X136327661Y-82772339D01*
X136305134Y-82744890D01*
X136288393Y-82713569D01*
X136278085Y-82679591D01*
X136274000Y-82638110D01*
X136274000Y-81961890D01*
X136278085Y-81920409D01*
X136288393Y-81886431D01*
X136305134Y-81855110D01*
X136327661Y-81827661D01*
X136355110Y-81805134D01*
X136386431Y-81788393D01*
X136420409Y-81778085D01*
X136461890Y-81774000D01*
X137063110Y-81774000D01*
X137104591Y-81778085D01*
G37*
G36*
X138679591Y-81778085D02*
G01*
X138713569Y-81788393D01*
X138744890Y-81805134D01*
X138772339Y-81827661D01*
X138794866Y-81855110D01*
X138811607Y-81886431D01*
X138821915Y-81920409D01*
X138826000Y-81961890D01*
X138826000Y-82638110D01*
X138821915Y-82679591D01*
X138811607Y-82713569D01*
X138794866Y-82744890D01*
X138772339Y-82772339D01*
X138744890Y-82794866D01*
X138713569Y-82811607D01*
X138679591Y-82821915D01*
X138638110Y-82826000D01*
X138036890Y-82826000D01*
X137995409Y-82821915D01*
X137961431Y-82811607D01*
X137930110Y-82794866D01*
X137902661Y-82772339D01*
X137880134Y-82744890D01*
X137863393Y-82713569D01*
X137853085Y-82679591D01*
X137849000Y-82638110D01*
X137849000Y-81961890D01*
X137853085Y-81920409D01*
X137863393Y-81886431D01*
X137880134Y-81855110D01*
X137902661Y-81827661D01*
X137930110Y-81805134D01*
X137961431Y-81788393D01*
X137995409Y-81778085D01*
X138036890Y-81774000D01*
X138638110Y-81774000D01*
X138679591Y-81778085D01*
G37*
G36*
X157429591Y-81778085D02*
G01*
X157463569Y-81788393D01*
X157494890Y-81805134D01*
X157522339Y-81827661D01*
X157544866Y-81855110D01*
X157561607Y-81886431D01*
X157571915Y-81920409D01*
X157576000Y-81961890D01*
X157576000Y-82638110D01*
X157571915Y-82679591D01*
X157561607Y-82713569D01*
X157544866Y-82744890D01*
X157522339Y-82772339D01*
X157494890Y-82794866D01*
X157463569Y-82811607D01*
X157429591Y-82821915D01*
X157388110Y-82826000D01*
X156786890Y-82826000D01*
X156745409Y-82821915D01*
X156711431Y-82811607D01*
X156680110Y-82794866D01*
X156652661Y-82772339D01*
X156630134Y-82744890D01*
X156613393Y-82713569D01*
X156603085Y-82679591D01*
X156599000Y-82638110D01*
X156599000Y-81961890D01*
X156603085Y-81920409D01*
X156613393Y-81886431D01*
X156630134Y-81855110D01*
X156652661Y-81827661D01*
X156680110Y-81805134D01*
X156711431Y-81788393D01*
X156745409Y-81778085D01*
X156786890Y-81774000D01*
X157388110Y-81774000D01*
X157429591Y-81778085D01*
G37*
G36*
X188229591Y-81603085D02*
G01*
X188263569Y-81613393D01*
X188294890Y-81630134D01*
X188322339Y-81652661D01*
X188344866Y-81680110D01*
X188361607Y-81711431D01*
X188371915Y-81745409D01*
X188376000Y-81786890D01*
X188376000Y-82388110D01*
X188371915Y-82429591D01*
X188361607Y-82463569D01*
X188344866Y-82494890D01*
X188322339Y-82522339D01*
X188294890Y-82544866D01*
X188263569Y-82561607D01*
X188229591Y-82571915D01*
X188188110Y-82576000D01*
X187511890Y-82576000D01*
X187470409Y-82571915D01*
X187436431Y-82561607D01*
X187405110Y-82544866D01*
X187377661Y-82522339D01*
X187355134Y-82494890D01*
X187338393Y-82463569D01*
X187328085Y-82429591D01*
X187324000Y-82388110D01*
X187324000Y-81786890D01*
X187328085Y-81745409D01*
X187338393Y-81711431D01*
X187355134Y-81680110D01*
X187377661Y-81652661D01*
X187405110Y-81630134D01*
X187436431Y-81613393D01*
X187470409Y-81603085D01*
X187511890Y-81599000D01*
X188188110Y-81599000D01*
X188229591Y-81603085D01*
G37*
G36*
X200739591Y-81463085D02*
G01*
X200773569Y-81473393D01*
X200804890Y-81490134D01*
X200832339Y-81512661D01*
X200854866Y-81540110D01*
X200871607Y-81571431D01*
X200881915Y-81605409D01*
X200886000Y-81646890D01*
X200886000Y-82323110D01*
X200881915Y-82364591D01*
X200871607Y-82398569D01*
X200854866Y-82429890D01*
X200832339Y-82457339D01*
X200804890Y-82479866D01*
X200773569Y-82496607D01*
X200739591Y-82506915D01*
X200698110Y-82511000D01*
X200096890Y-82511000D01*
X200055409Y-82506915D01*
X200021431Y-82496607D01*
X199990110Y-82479866D01*
X199962661Y-82457339D01*
X199940134Y-82429890D01*
X199923393Y-82398569D01*
X199913085Y-82364591D01*
X199909000Y-82323110D01*
X199909000Y-81646890D01*
X199913085Y-81605409D01*
X199923393Y-81571431D01*
X199940134Y-81540110D01*
X199962661Y-81512661D01*
X199990110Y-81490134D01*
X200021431Y-81473393D01*
X200055409Y-81463085D01*
X200096890Y-81459000D01*
X200698110Y-81459000D01*
X200739591Y-81463085D01*
G37*
G36*
X199164591Y-81463085D02*
G01*
X199198569Y-81473393D01*
X199229890Y-81490134D01*
X199257339Y-81512661D01*
X199279866Y-81540110D01*
X199296607Y-81571431D01*
X199306915Y-81605409D01*
X199311000Y-81646890D01*
X199311000Y-82323110D01*
X199306915Y-82364591D01*
X199296607Y-82398569D01*
X199279866Y-82429890D01*
X199257339Y-82457339D01*
X199229890Y-82479866D01*
X199198569Y-82496607D01*
X199164591Y-82506915D01*
X199123110Y-82511000D01*
X198521890Y-82511000D01*
X198480409Y-82506915D01*
X198446431Y-82496607D01*
X198415110Y-82479866D01*
X198387661Y-82457339D01*
X198365134Y-82429890D01*
X198348393Y-82398569D01*
X198338085Y-82364591D01*
X198334000Y-82323110D01*
X198334000Y-81646890D01*
X198338085Y-81605409D01*
X198348393Y-81571431D01*
X198365134Y-81540110D01*
X198387661Y-81512661D01*
X198415110Y-81490134D01*
X198446431Y-81473393D01*
X198480409Y-81463085D01*
X198521890Y-81459000D01*
X199123110Y-81459000D01*
X199164591Y-81463085D01*
G37*
G36*
X191280295Y-80775323D02*
G01*
X191287309Y-80777451D01*
X191301077Y-80784810D01*
X191323716Y-80794187D01*
X191347749Y-80798967D01*
X191372253Y-80798967D01*
X191396286Y-80794186D01*
X191418923Y-80784810D01*
X191432691Y-80777451D01*
X191439705Y-80775323D01*
X191453140Y-80774000D01*
X191766860Y-80774000D01*
X191780295Y-80775323D01*
X191787309Y-80777451D01*
X191801077Y-80784810D01*
X191823716Y-80794187D01*
X191847749Y-80798967D01*
X191872253Y-80798967D01*
X191896286Y-80794186D01*
X191918923Y-80784810D01*
X191932691Y-80777451D01*
X191939705Y-80775323D01*
X191953140Y-80774000D01*
X192266860Y-80774000D01*
X192280295Y-80775323D01*
X192287309Y-80777451D01*
X192301077Y-80784810D01*
X192323716Y-80794187D01*
X192347749Y-80798967D01*
X192372253Y-80798967D01*
X192396286Y-80794186D01*
X192418923Y-80784810D01*
X192432691Y-80777451D01*
X192439705Y-80775323D01*
X192453140Y-80774000D01*
X192766860Y-80774000D01*
X192780295Y-80775323D01*
X192787309Y-80777451D01*
X192801077Y-80784810D01*
X192823716Y-80794187D01*
X192847749Y-80798967D01*
X192872253Y-80798967D01*
X192896286Y-80794186D01*
X192918923Y-80784810D01*
X192932691Y-80777451D01*
X192939705Y-80775323D01*
X192953140Y-80774000D01*
X193266860Y-80774000D01*
X193280295Y-80775323D01*
X193287310Y-80777451D01*
X193293776Y-80780908D01*
X193299442Y-80785558D01*
X193304092Y-80791224D01*
X193307549Y-80797690D01*
X193309677Y-80804705D01*
X193311000Y-80818140D01*
X193311000Y-82281860D01*
X193309677Y-82295295D01*
X193307549Y-82302310D01*
X193304092Y-82308776D01*
X193299442Y-82314442D01*
X193293776Y-82319092D01*
X193287310Y-82322549D01*
X193280295Y-82324677D01*
X193266860Y-82326000D01*
X192953140Y-82326000D01*
X192939705Y-82324677D01*
X192932691Y-82322549D01*
X192918923Y-82315190D01*
X192896284Y-82305813D01*
X192872251Y-82301033D01*
X192847747Y-82301033D01*
X192823714Y-82305814D01*
X192801077Y-82315190D01*
X192787309Y-82322549D01*
X192780295Y-82324677D01*
X192766860Y-82326000D01*
X192453140Y-82326000D01*
X192439705Y-82324677D01*
X192432691Y-82322549D01*
X192418923Y-82315190D01*
X192396284Y-82305813D01*
X192372251Y-82301033D01*
X192347747Y-82301033D01*
X192323714Y-82305814D01*
X192301077Y-82315190D01*
X192287309Y-82322549D01*
X192280295Y-82324677D01*
X192266860Y-82326000D01*
X191953140Y-82326000D01*
X191939705Y-82324677D01*
X191932691Y-82322549D01*
X191918923Y-82315190D01*
X191896284Y-82305813D01*
X191872251Y-82301033D01*
X191847747Y-82301033D01*
X191823714Y-82305814D01*
X191801077Y-82315190D01*
X191787309Y-82322549D01*
X191780295Y-82324677D01*
X191766860Y-82326000D01*
X191453140Y-82326000D01*
X191439705Y-82324677D01*
X191432691Y-82322549D01*
X191418923Y-82315190D01*
X191396284Y-82305813D01*
X191372251Y-82301033D01*
X191347747Y-82301033D01*
X191323714Y-82305814D01*
X191301077Y-82315190D01*
X191287309Y-82322549D01*
X191280295Y-82324677D01*
X191266860Y-82326000D01*
X190953140Y-82326000D01*
X190939705Y-82324677D01*
X190932690Y-82322549D01*
X190926224Y-82319092D01*
X190920558Y-82314442D01*
X190915908Y-82308776D01*
X190912451Y-82302310D01*
X190910323Y-82295295D01*
X190909000Y-82281860D01*
X190909000Y-80818140D01*
X190910323Y-80804705D01*
X190912451Y-80797690D01*
X190915908Y-80791224D01*
X190920558Y-80785558D01*
X190926224Y-80780908D01*
X190932690Y-80777451D01*
X190939705Y-80775323D01*
X190953140Y-80774000D01*
X191266860Y-80774000D01*
X191280295Y-80775323D01*
G37*
G36*
X182104591Y-81028085D02*
G01*
X182138569Y-81038393D01*
X182169890Y-81055134D01*
X182197339Y-81077661D01*
X182219866Y-81105110D01*
X182236607Y-81136431D01*
X182246915Y-81170409D01*
X182251000Y-81211890D01*
X182251000Y-81888110D01*
X182246915Y-81929591D01*
X182236607Y-81963569D01*
X182219866Y-81994890D01*
X182197339Y-82022339D01*
X182169890Y-82044866D01*
X182138569Y-82061607D01*
X182104591Y-82071915D01*
X182063110Y-82076000D01*
X181461890Y-82076000D01*
X181420409Y-82071915D01*
X181386431Y-82061607D01*
X181355110Y-82044866D01*
X181327661Y-82022339D01*
X181305134Y-81994890D01*
X181288393Y-81963569D01*
X181278085Y-81929591D01*
X181274000Y-81888110D01*
X181274000Y-81211890D01*
X181278085Y-81170409D01*
X181288393Y-81136431D01*
X181305134Y-81105110D01*
X181327661Y-81077661D01*
X181355110Y-81055134D01*
X181386431Y-81038393D01*
X181420409Y-81028085D01*
X181461890Y-81024000D01*
X182063110Y-81024000D01*
X182104591Y-81028085D01*
G37*
G36*
X183679591Y-81028085D02*
G01*
X183713569Y-81038393D01*
X183744890Y-81055134D01*
X183772339Y-81077661D01*
X183794866Y-81105110D01*
X183811607Y-81136431D01*
X183821915Y-81170409D01*
X183826000Y-81211890D01*
X183826000Y-81888110D01*
X183821915Y-81929591D01*
X183811607Y-81963569D01*
X183794866Y-81994890D01*
X183772339Y-82022339D01*
X183744890Y-82044866D01*
X183713569Y-82061607D01*
X183679591Y-82071915D01*
X183638110Y-82076000D01*
X183036890Y-82076000D01*
X182995409Y-82071915D01*
X182961431Y-82061607D01*
X182930110Y-82044866D01*
X182902661Y-82022339D01*
X182880134Y-81994890D01*
X182863393Y-81963569D01*
X182853085Y-81929591D01*
X182849000Y-81888110D01*
X182849000Y-81211890D01*
X182853085Y-81170409D01*
X182863393Y-81136431D01*
X182880134Y-81105110D01*
X182902661Y-81077661D01*
X182930110Y-81055134D01*
X182961431Y-81038393D01*
X182995409Y-81028085D01*
X183036890Y-81024000D01*
X183638110Y-81024000D01*
X183679591Y-81028085D01*
G37*
G36*
X132089487Y-78933996D02*
G01*
X132326253Y-79032068D01*
X132326255Y-79032069D01*
X132374805Y-79064509D01*
X132539339Y-79174447D01*
X132720553Y-79355661D01*
X132862932Y-79568747D01*
X132961004Y-79805513D01*
X133011000Y-80056861D01*
X133011000Y-80313139D01*
X132961004Y-80564487D01*
X132873421Y-80775931D01*
X132862931Y-80801255D01*
X132720553Y-81014339D01*
X132539339Y-81195553D01*
X132326255Y-81337931D01*
X132326254Y-81337932D01*
X132326253Y-81337932D01*
X132089487Y-81436004D01*
X131838139Y-81486000D01*
X131581861Y-81486000D01*
X131330513Y-81436004D01*
X131093747Y-81337932D01*
X131093746Y-81337932D01*
X131093745Y-81337931D01*
X130880661Y-81195553D01*
X130699447Y-81014339D01*
X130557069Y-80801255D01*
X130546579Y-80775931D01*
X130458996Y-80564487D01*
X130409000Y-80313139D01*
X130409000Y-80056861D01*
X130458996Y-79805513D01*
X130557068Y-79568747D01*
X130699447Y-79355661D01*
X130880661Y-79174447D01*
X131045195Y-79064509D01*
X131093745Y-79032069D01*
X131093747Y-79032068D01*
X131330513Y-78933996D01*
X131581861Y-78884000D01*
X131838139Y-78884000D01*
X132089487Y-78933996D01*
G37*
G36*
X173841000Y-81286000D02*
G01*
X172999000Y-81286000D01*
X172999000Y-78784000D01*
X173841000Y-78784000D01*
X173841000Y-81286000D01*
G37*
G36*
X167491000Y-81286000D02*
G01*
X166649000Y-81286000D01*
X166649000Y-78784000D01*
X167491000Y-78784000D01*
X167491000Y-81286000D01*
G37*
G36*
X166221000Y-81286000D02*
G01*
X165379000Y-81286000D01*
X165379000Y-78784000D01*
X166221000Y-78784000D01*
X166221000Y-81286000D01*
G37*
G36*
X170031000Y-81286000D02*
G01*
X169189000Y-81286000D01*
X169189000Y-78784000D01*
X170031000Y-78784000D01*
X170031000Y-81286000D01*
G37*
G36*
X171301000Y-81286000D02*
G01*
X170459000Y-81286000D01*
X170459000Y-78784000D01*
X171301000Y-78784000D01*
X171301000Y-81286000D01*
G37*
G36*
X172571000Y-81286000D02*
G01*
X171729000Y-81286000D01*
X171729000Y-78784000D01*
X172571000Y-78784000D01*
X172571000Y-81286000D01*
G37*
G36*
X168761000Y-81286000D02*
G01*
X167919000Y-81286000D01*
X167919000Y-78784000D01*
X168761000Y-78784000D01*
X168761000Y-81286000D01*
G37*
G36*
X188229591Y-80028085D02*
G01*
X188263569Y-80038393D01*
X188294890Y-80055134D01*
X188322339Y-80077661D01*
X188344866Y-80105110D01*
X188361607Y-80136431D01*
X188371915Y-80170409D01*
X188376000Y-80211890D01*
X188376000Y-80813110D01*
X188371915Y-80854591D01*
X188361607Y-80888569D01*
X188344866Y-80919890D01*
X188322339Y-80947339D01*
X188294890Y-80969866D01*
X188263569Y-80986607D01*
X188229591Y-80996915D01*
X188188110Y-81001000D01*
X187511890Y-81001000D01*
X187470409Y-80996915D01*
X187436431Y-80986607D01*
X187405110Y-80969866D01*
X187377661Y-80947339D01*
X187355134Y-80919890D01*
X187338393Y-80888569D01*
X187328085Y-80854591D01*
X187324000Y-80813110D01*
X187324000Y-80211890D01*
X187328085Y-80170409D01*
X187338393Y-80136431D01*
X187355134Y-80105110D01*
X187377661Y-80077661D01*
X187405110Y-80055134D01*
X187436431Y-80038393D01*
X187470409Y-80028085D01*
X187511890Y-80024000D01*
X188188110Y-80024000D01*
X188229591Y-80028085D01*
G37*
G36*
X143430295Y-79185323D02*
G01*
X143437309Y-79187451D01*
X143451077Y-79194810D01*
X143473716Y-79204187D01*
X143497749Y-79208967D01*
X143522253Y-79208967D01*
X143546286Y-79204186D01*
X143568923Y-79194810D01*
X143582691Y-79187451D01*
X143589705Y-79185323D01*
X143603140Y-79184000D01*
X143916860Y-79184000D01*
X143930295Y-79185323D01*
X143937309Y-79187451D01*
X143951077Y-79194810D01*
X143973716Y-79204187D01*
X143997749Y-79208967D01*
X144022253Y-79208967D01*
X144046286Y-79204186D01*
X144068923Y-79194810D01*
X144082691Y-79187451D01*
X144089705Y-79185323D01*
X144103140Y-79184000D01*
X144416860Y-79184000D01*
X144430295Y-79185323D01*
X144437309Y-79187451D01*
X144451077Y-79194810D01*
X144473716Y-79204187D01*
X144497749Y-79208967D01*
X144522253Y-79208967D01*
X144546286Y-79204186D01*
X144568923Y-79194810D01*
X144582691Y-79187451D01*
X144589705Y-79185323D01*
X144603140Y-79184000D01*
X144916860Y-79184000D01*
X144930295Y-79185323D01*
X144937309Y-79187451D01*
X144951077Y-79194810D01*
X144973716Y-79204187D01*
X144997749Y-79208967D01*
X145022253Y-79208967D01*
X145046286Y-79204186D01*
X145068923Y-79194810D01*
X145082691Y-79187451D01*
X145089705Y-79185323D01*
X145103140Y-79184000D01*
X145416860Y-79184000D01*
X145430295Y-79185323D01*
X145437309Y-79187451D01*
X145451077Y-79194810D01*
X145473716Y-79204187D01*
X145497749Y-79208967D01*
X145522253Y-79208967D01*
X145546286Y-79204186D01*
X145568923Y-79194810D01*
X145582691Y-79187451D01*
X145589705Y-79185323D01*
X145603140Y-79184000D01*
X145916860Y-79184000D01*
X145930295Y-79185323D01*
X145937309Y-79187451D01*
X145951077Y-79194810D01*
X145973716Y-79204187D01*
X145997749Y-79208967D01*
X146022253Y-79208967D01*
X146046286Y-79204186D01*
X146068923Y-79194810D01*
X146082691Y-79187451D01*
X146089705Y-79185323D01*
X146103140Y-79184000D01*
X146416860Y-79184000D01*
X146430295Y-79185323D01*
X146437309Y-79187451D01*
X146451077Y-79194810D01*
X146473716Y-79204187D01*
X146497749Y-79208967D01*
X146522253Y-79208967D01*
X146546286Y-79204186D01*
X146568923Y-79194810D01*
X146582691Y-79187451D01*
X146589705Y-79185323D01*
X146603140Y-79184000D01*
X146916860Y-79184000D01*
X146930295Y-79185323D01*
X146937309Y-79187451D01*
X146951077Y-79194810D01*
X146973716Y-79204187D01*
X146997749Y-79208967D01*
X147022253Y-79208967D01*
X147046286Y-79204186D01*
X147068923Y-79194810D01*
X147082691Y-79187451D01*
X147089705Y-79185323D01*
X147103140Y-79184000D01*
X147416860Y-79184000D01*
X147430295Y-79185323D01*
X147437309Y-79187451D01*
X147451077Y-79194810D01*
X147473716Y-79204187D01*
X147497749Y-79208967D01*
X147522253Y-79208967D01*
X147546286Y-79204186D01*
X147568923Y-79194810D01*
X147582691Y-79187451D01*
X147589705Y-79185323D01*
X147603140Y-79184000D01*
X147916860Y-79184000D01*
X147930295Y-79185323D01*
X147937309Y-79187451D01*
X147951077Y-79194810D01*
X147973716Y-79204187D01*
X147997749Y-79208967D01*
X148022253Y-79208967D01*
X148046286Y-79204186D01*
X148068923Y-79194810D01*
X148082691Y-79187451D01*
X148089705Y-79185323D01*
X148103140Y-79184000D01*
X148416860Y-79184000D01*
X148430295Y-79185323D01*
X148437309Y-79187451D01*
X148451077Y-79194810D01*
X148473716Y-79204187D01*
X148497749Y-79208967D01*
X148522253Y-79208967D01*
X148546286Y-79204186D01*
X148568923Y-79194810D01*
X148582691Y-79187451D01*
X148589705Y-79185323D01*
X148603140Y-79184000D01*
X148916860Y-79184000D01*
X148930295Y-79185323D01*
X148937309Y-79187451D01*
X148951077Y-79194810D01*
X148973716Y-79204187D01*
X148997749Y-79208967D01*
X149022253Y-79208967D01*
X149046286Y-79204186D01*
X149068923Y-79194810D01*
X149082691Y-79187451D01*
X149089705Y-79185323D01*
X149103140Y-79184000D01*
X149416860Y-79184000D01*
X149430295Y-79185323D01*
X149437309Y-79187451D01*
X149451077Y-79194810D01*
X149473716Y-79204187D01*
X149497749Y-79208967D01*
X149522253Y-79208967D01*
X149546286Y-79204186D01*
X149568923Y-79194810D01*
X149582691Y-79187451D01*
X149589705Y-79185323D01*
X149603140Y-79184000D01*
X149916860Y-79184000D01*
X149930295Y-79185323D01*
X149937309Y-79187451D01*
X149951077Y-79194810D01*
X149973716Y-79204187D01*
X149997749Y-79208967D01*
X150022253Y-79208967D01*
X150046286Y-79204186D01*
X150068923Y-79194810D01*
X150082691Y-79187451D01*
X150089705Y-79185323D01*
X150103140Y-79184000D01*
X150416860Y-79184000D01*
X150430295Y-79185323D01*
X150437309Y-79187451D01*
X150451077Y-79194810D01*
X150473716Y-79204187D01*
X150497749Y-79208967D01*
X150522253Y-79208967D01*
X150546286Y-79204186D01*
X150568923Y-79194810D01*
X150582691Y-79187451D01*
X150589705Y-79185323D01*
X150603140Y-79184000D01*
X150916860Y-79184000D01*
X150930295Y-79185323D01*
X150937310Y-79187451D01*
X150943776Y-79190908D01*
X150949442Y-79195558D01*
X150954092Y-79201224D01*
X150957549Y-79207690D01*
X150959677Y-79214705D01*
X150961000Y-79228140D01*
X150961000Y-80791860D01*
X150959677Y-80805295D01*
X150957549Y-80812310D01*
X150954092Y-80818776D01*
X150949442Y-80824442D01*
X150943776Y-80829092D01*
X150937310Y-80832549D01*
X150930295Y-80834677D01*
X150916860Y-80836000D01*
X150603140Y-80836000D01*
X150589705Y-80834677D01*
X150582691Y-80832549D01*
X150568923Y-80825190D01*
X150546284Y-80815813D01*
X150522251Y-80811033D01*
X150497747Y-80811033D01*
X150473714Y-80815814D01*
X150451077Y-80825190D01*
X150437309Y-80832549D01*
X150430295Y-80834677D01*
X150416860Y-80836000D01*
X150103140Y-80836000D01*
X150089705Y-80834677D01*
X150082691Y-80832549D01*
X150068923Y-80825190D01*
X150046284Y-80815813D01*
X150022251Y-80811033D01*
X149997747Y-80811033D01*
X149973714Y-80815814D01*
X149951077Y-80825190D01*
X149937309Y-80832549D01*
X149930295Y-80834677D01*
X149916860Y-80836000D01*
X149603140Y-80836000D01*
X149589705Y-80834677D01*
X149582691Y-80832549D01*
X149568923Y-80825190D01*
X149546284Y-80815813D01*
X149522251Y-80811033D01*
X149497747Y-80811033D01*
X149473714Y-80815814D01*
X149451077Y-80825190D01*
X149437309Y-80832549D01*
X149430295Y-80834677D01*
X149416860Y-80836000D01*
X149103140Y-80836000D01*
X149089705Y-80834677D01*
X149082691Y-80832549D01*
X149068923Y-80825190D01*
X149046284Y-80815813D01*
X149022251Y-80811033D01*
X148997747Y-80811033D01*
X148973714Y-80815814D01*
X148951077Y-80825190D01*
X148937309Y-80832549D01*
X148930295Y-80834677D01*
X148916860Y-80836000D01*
X148603140Y-80836000D01*
X148589705Y-80834677D01*
X148582691Y-80832549D01*
X148568923Y-80825190D01*
X148546284Y-80815813D01*
X148522251Y-80811033D01*
X148497747Y-80811033D01*
X148473714Y-80815814D01*
X148451077Y-80825190D01*
X148437309Y-80832549D01*
X148430295Y-80834677D01*
X148416860Y-80836000D01*
X148103140Y-80836000D01*
X148089705Y-80834677D01*
X148082691Y-80832549D01*
X148068923Y-80825190D01*
X148046284Y-80815813D01*
X148022251Y-80811033D01*
X147997747Y-80811033D01*
X147973714Y-80815814D01*
X147951077Y-80825190D01*
X147937309Y-80832549D01*
X147930295Y-80834677D01*
X147916860Y-80836000D01*
X147603140Y-80836000D01*
X147589705Y-80834677D01*
X147582691Y-80832549D01*
X147568923Y-80825190D01*
X147546284Y-80815813D01*
X147522251Y-80811033D01*
X147497747Y-80811033D01*
X147473714Y-80815814D01*
X147451077Y-80825190D01*
X147437309Y-80832549D01*
X147430295Y-80834677D01*
X147416860Y-80836000D01*
X147103140Y-80836000D01*
X147089705Y-80834677D01*
X147082691Y-80832549D01*
X147068923Y-80825190D01*
X147046284Y-80815813D01*
X147022251Y-80811033D01*
X146997747Y-80811033D01*
X146973714Y-80815814D01*
X146951077Y-80825190D01*
X146937309Y-80832549D01*
X146930295Y-80834677D01*
X146916860Y-80836000D01*
X146603140Y-80836000D01*
X146589705Y-80834677D01*
X146582691Y-80832549D01*
X146568923Y-80825190D01*
X146546284Y-80815813D01*
X146522251Y-80811033D01*
X146497747Y-80811033D01*
X146473714Y-80815814D01*
X146451077Y-80825190D01*
X146437309Y-80832549D01*
X146430295Y-80834677D01*
X146416860Y-80836000D01*
X146103140Y-80836000D01*
X146089705Y-80834677D01*
X146082691Y-80832549D01*
X146068923Y-80825190D01*
X146046284Y-80815813D01*
X146022251Y-80811033D01*
X145997747Y-80811033D01*
X145973714Y-80815814D01*
X145951077Y-80825190D01*
X145937309Y-80832549D01*
X145930295Y-80834677D01*
X145916860Y-80836000D01*
X145603140Y-80836000D01*
X145589705Y-80834677D01*
X145582691Y-80832549D01*
X145568923Y-80825190D01*
X145546284Y-80815813D01*
X145522251Y-80811033D01*
X145497747Y-80811033D01*
X145473714Y-80815814D01*
X145451077Y-80825190D01*
X145437309Y-80832549D01*
X145430295Y-80834677D01*
X145416860Y-80836000D01*
X145103140Y-80836000D01*
X145089705Y-80834677D01*
X145082691Y-80832549D01*
X145068923Y-80825190D01*
X145046284Y-80815813D01*
X145022251Y-80811033D01*
X144997747Y-80811033D01*
X144973714Y-80815814D01*
X144951077Y-80825190D01*
X144937309Y-80832549D01*
X144930295Y-80834677D01*
X144916860Y-80836000D01*
X144603140Y-80836000D01*
X144589705Y-80834677D01*
X144582691Y-80832549D01*
X144568923Y-80825190D01*
X144546284Y-80815813D01*
X144522251Y-80811033D01*
X144497747Y-80811033D01*
X144473714Y-80815814D01*
X144451077Y-80825190D01*
X144437309Y-80832549D01*
X144430295Y-80834677D01*
X144416860Y-80836000D01*
X144103140Y-80836000D01*
X144089705Y-80834677D01*
X144082691Y-80832549D01*
X144068923Y-80825190D01*
X144046284Y-80815813D01*
X144022251Y-80811033D01*
X143997747Y-80811033D01*
X143973714Y-80815814D01*
X143951077Y-80825190D01*
X143937309Y-80832549D01*
X143930295Y-80834677D01*
X143916860Y-80836000D01*
X143603140Y-80836000D01*
X143589705Y-80834677D01*
X143582691Y-80832549D01*
X143568923Y-80825190D01*
X143546284Y-80815813D01*
X143522251Y-80811033D01*
X143497747Y-80811033D01*
X143473714Y-80815814D01*
X143451077Y-80825190D01*
X143437309Y-80832549D01*
X143430295Y-80834677D01*
X143416860Y-80836000D01*
X143103140Y-80836000D01*
X143089705Y-80834677D01*
X143082690Y-80832549D01*
X143076224Y-80829092D01*
X143070558Y-80824442D01*
X143065908Y-80818776D01*
X143062451Y-80812310D01*
X143060323Y-80805295D01*
X143059000Y-80791860D01*
X143059000Y-79228140D01*
X143060323Y-79214705D01*
X143062451Y-79207690D01*
X143065908Y-79201224D01*
X143070558Y-79195558D01*
X143076224Y-79190908D01*
X143082690Y-79187451D01*
X143089705Y-79185323D01*
X143103140Y-79184000D01*
X143416860Y-79184000D01*
X143430295Y-79185323D01*
G37*
G36*
X138628039Y-75977250D02*
G01*
X138796224Y-76046915D01*
X138951251Y-76111129D01*
X139242134Y-76305491D01*
X139489509Y-76552866D01*
X139651571Y-76795409D01*
X139683871Y-76843749D01*
X139817750Y-77166960D01*
X139886000Y-77510078D01*
X139886000Y-77859921D01*
X139817750Y-78203039D01*
X139787859Y-78275201D01*
X139683871Y-78526251D01*
X139489509Y-78817134D01*
X139242134Y-79064509D01*
X138951251Y-79258871D01*
X138817372Y-79314325D01*
X138628039Y-79392750D01*
X138284922Y-79461000D01*
X137935078Y-79461000D01*
X137591961Y-79392750D01*
X137402628Y-79314325D01*
X137268749Y-79258871D01*
X136977866Y-79064509D01*
X136730491Y-78817134D01*
X136536129Y-78526251D01*
X136432141Y-78275201D01*
X136402250Y-78203039D01*
X136334000Y-77859921D01*
X136334000Y-77510078D01*
X136402250Y-77166960D01*
X136536129Y-76843749D01*
X136568429Y-76795409D01*
X136730491Y-76552866D01*
X136977866Y-76305491D01*
X137268749Y-76111129D01*
X137423776Y-76046915D01*
X137591961Y-75977250D01*
X137935078Y-75909000D01*
X138284922Y-75909000D01*
X138628039Y-75977250D01*
G37*
G36*
X207673703Y-76074000D02*
G01*
X207791579Y-76097447D01*
X207955062Y-76165164D01*
X208088436Y-76220409D01*
X208092042Y-76221903D01*
X208362451Y-76402585D01*
X208592415Y-76632549D01*
X208773097Y-76902958D01*
X208773098Y-76902960D01*
X208777302Y-76913110D01*
X208842233Y-77069866D01*
X208897553Y-77203422D01*
X208961000Y-77522389D01*
X208961000Y-77847611D01*
X208921051Y-78048445D01*
X208897553Y-78166579D01*
X208882450Y-78203040D01*
X208787716Y-78431750D01*
X208773097Y-78467042D01*
X208592415Y-78737451D01*
X208362451Y-78967415D01*
X208092042Y-79148097D01*
X207791579Y-79272553D01*
X207731517Y-79284500D01*
X207472611Y-79336000D01*
X207147389Y-79336000D01*
X206888483Y-79284500D01*
X206828421Y-79272553D01*
X206527958Y-79148097D01*
X206257549Y-78967415D01*
X206027585Y-78737451D01*
X205846903Y-78467042D01*
X205832285Y-78431750D01*
X205737550Y-78203040D01*
X205722447Y-78166579D01*
X205698949Y-78048445D01*
X205659000Y-77847611D01*
X205659000Y-77522389D01*
X205722447Y-77203422D01*
X205777768Y-77069866D01*
X205842698Y-76913110D01*
X205846902Y-76902960D01*
X205846903Y-76902958D01*
X206027585Y-76632549D01*
X206257549Y-76402585D01*
X206527958Y-76221903D01*
X206531565Y-76220409D01*
X206664938Y-76165164D01*
X206828421Y-76097447D01*
X206946297Y-76074000D01*
X207147389Y-76034000D01*
X207472611Y-76034000D01*
X207673703Y-76074000D01*
G37*
G36*
X124673703Y-76074000D02*
G01*
X124791579Y-76097447D01*
X124955062Y-76165164D01*
X125088436Y-76220409D01*
X125092042Y-76221903D01*
X125362451Y-76402585D01*
X125592415Y-76632549D01*
X125773097Y-76902958D01*
X125773098Y-76902960D01*
X125777302Y-76913110D01*
X125842233Y-77069866D01*
X125897553Y-77203422D01*
X125961000Y-77522389D01*
X125961000Y-77847611D01*
X125921051Y-78048445D01*
X125897553Y-78166579D01*
X125882450Y-78203040D01*
X125787716Y-78431750D01*
X125773097Y-78467042D01*
X125592415Y-78737451D01*
X125362451Y-78967415D01*
X125092042Y-79148097D01*
X124791579Y-79272553D01*
X124731517Y-79284500D01*
X124472611Y-79336000D01*
X124147389Y-79336000D01*
X123888483Y-79284500D01*
X123828421Y-79272553D01*
X123527958Y-79148097D01*
X123257549Y-78967415D01*
X123027585Y-78737451D01*
X122846903Y-78467042D01*
X122832285Y-78431750D01*
X122737550Y-78203040D01*
X122722447Y-78166579D01*
X122698949Y-78048445D01*
X122659000Y-77847611D01*
X122659000Y-77522389D01*
X122722447Y-77203422D01*
X122777768Y-77069866D01*
X122842698Y-76913110D01*
X122846902Y-76902960D01*
X122846903Y-76902958D01*
X123027585Y-76632549D01*
X123257549Y-76402585D01*
X123527958Y-76221903D01*
X123531565Y-76220409D01*
X123664938Y-76165164D01*
X123828421Y-76097447D01*
X123946297Y-76074000D01*
X124147389Y-76034000D01*
X124472611Y-76034000D01*
X124673703Y-76074000D01*
G37*
G36*
X202003444Y-76486882D02*
G01*
X202230201Y-76580808D01*
X202230202Y-76580809D01*
X202434279Y-76717168D01*
X202607832Y-76890721D01*
X202694123Y-77019866D01*
X202744192Y-77094799D01*
X202838118Y-77321556D01*
X202886000Y-77562278D01*
X202886000Y-77807722D01*
X202838118Y-78048444D01*
X202744192Y-78275201D01*
X202698944Y-78342919D01*
X202607832Y-78479279D01*
X202434279Y-78652832D01*
X202399605Y-78676000D01*
X202230201Y-78789192D01*
X202003444Y-78883118D01*
X201762722Y-78931000D01*
X201517278Y-78931000D01*
X201276556Y-78883118D01*
X201049799Y-78789192D01*
X200880395Y-78676000D01*
X200845721Y-78652832D01*
X200672168Y-78479279D01*
X200581056Y-78342919D01*
X200535808Y-78275201D01*
X200441882Y-78048444D01*
X200394000Y-77807722D01*
X200394000Y-77562278D01*
X200441882Y-77321556D01*
X200535808Y-77094799D01*
X200585877Y-77019866D01*
X200672168Y-76890721D01*
X200845721Y-76717168D01*
X201049798Y-76580809D01*
X201049799Y-76580808D01*
X201276556Y-76486882D01*
X201517278Y-76439000D01*
X201762722Y-76439000D01*
X202003444Y-76486882D01*
G37*
G36*
X178679591Y-77703085D02*
G01*
X178713569Y-77713393D01*
X178744890Y-77730134D01*
X178772339Y-77752661D01*
X178794866Y-77780110D01*
X178811607Y-77811431D01*
X178821915Y-77845409D01*
X178826000Y-77886890D01*
X178826000Y-78488110D01*
X178821915Y-78529591D01*
X178811607Y-78563569D01*
X178794866Y-78594890D01*
X178772339Y-78622339D01*
X178744890Y-78644866D01*
X178713569Y-78661607D01*
X178679591Y-78671915D01*
X178638110Y-78676000D01*
X177961890Y-78676000D01*
X177920409Y-78671915D01*
X177886431Y-78661607D01*
X177855110Y-78644866D01*
X177827661Y-78622339D01*
X177805134Y-78594890D01*
X177788393Y-78563569D01*
X177778085Y-78529591D01*
X177774000Y-78488110D01*
X177774000Y-77886890D01*
X177778085Y-77845409D01*
X177788393Y-77811431D01*
X177805134Y-77780110D01*
X177827661Y-77752661D01*
X177855110Y-77730134D01*
X177886431Y-77713393D01*
X177920409Y-77703085D01*
X177961890Y-77699000D01*
X178638110Y-77699000D01*
X178679591Y-77703085D01*
G37*
G36*
X188229591Y-77653085D02*
G01*
X188263569Y-77663393D01*
X188294890Y-77680134D01*
X188322339Y-77702661D01*
X188344866Y-77730110D01*
X188361607Y-77761431D01*
X188371915Y-77795409D01*
X188376000Y-77836890D01*
X188376000Y-78438110D01*
X188371915Y-78479591D01*
X188361607Y-78513569D01*
X188344866Y-78544890D01*
X188322339Y-78572339D01*
X188294890Y-78594866D01*
X188263569Y-78611607D01*
X188229591Y-78621915D01*
X188188110Y-78626000D01*
X187511890Y-78626000D01*
X187470409Y-78621915D01*
X187436431Y-78611607D01*
X187405110Y-78594866D01*
X187377661Y-78572339D01*
X187355134Y-78544890D01*
X187338393Y-78513569D01*
X187328085Y-78479591D01*
X187324000Y-78438110D01*
X187324000Y-77836890D01*
X187328085Y-77795409D01*
X187338393Y-77761431D01*
X187355134Y-77730110D01*
X187377661Y-77702661D01*
X187405110Y-77680134D01*
X187436431Y-77663393D01*
X187470409Y-77653085D01*
X187511890Y-77649000D01*
X188188110Y-77649000D01*
X188229591Y-77653085D01*
G37*
G36*
X160551000Y-78531000D02*
G01*
X159749000Y-78531000D01*
X159749000Y-76929000D01*
X160551000Y-76929000D01*
X160551000Y-78531000D01*
G37*
G36*
X157551000Y-78531000D02*
G01*
X156749000Y-78531000D01*
X156749000Y-76929000D01*
X157551000Y-76929000D01*
X157551000Y-78531000D01*
G37*
G36*
X156051000Y-78531000D02*
G01*
X155249000Y-78531000D01*
X155249000Y-76929000D01*
X156051000Y-76929000D01*
X156051000Y-78531000D01*
G37*
G36*
X183876000Y-78301000D02*
G01*
X183124000Y-78301000D01*
X183124000Y-76499000D01*
X183876000Y-76499000D01*
X183876000Y-78301000D01*
G37*
G36*
X181976000Y-78301000D02*
G01*
X181224000Y-78301000D01*
X181224000Y-77799000D01*
X181976000Y-77799000D01*
X181976000Y-78301000D01*
G37*
G36*
X191280295Y-76375323D02*
G01*
X191287309Y-76377451D01*
X191301077Y-76384810D01*
X191323716Y-76394187D01*
X191347749Y-76398967D01*
X191372253Y-76398967D01*
X191396286Y-76394186D01*
X191418923Y-76384810D01*
X191432691Y-76377451D01*
X191439705Y-76375323D01*
X191453140Y-76374000D01*
X191766860Y-76374000D01*
X191780295Y-76375323D01*
X191787309Y-76377451D01*
X191801077Y-76384810D01*
X191823716Y-76394187D01*
X191847749Y-76398967D01*
X191872253Y-76398967D01*
X191896286Y-76394186D01*
X191918923Y-76384810D01*
X191932691Y-76377451D01*
X191939705Y-76375323D01*
X191953140Y-76374000D01*
X192266860Y-76374000D01*
X192280295Y-76375323D01*
X192287309Y-76377451D01*
X192301077Y-76384810D01*
X192323716Y-76394187D01*
X192347749Y-76398967D01*
X192372253Y-76398967D01*
X192396286Y-76394186D01*
X192418923Y-76384810D01*
X192432691Y-76377451D01*
X192439705Y-76375323D01*
X192453140Y-76374000D01*
X192766860Y-76374000D01*
X192780295Y-76375323D01*
X192787309Y-76377451D01*
X192801077Y-76384810D01*
X192823716Y-76394187D01*
X192847749Y-76398967D01*
X192872253Y-76398967D01*
X192896286Y-76394186D01*
X192918923Y-76384810D01*
X192932691Y-76377451D01*
X192939705Y-76375323D01*
X192953140Y-76374000D01*
X193266860Y-76374000D01*
X193280295Y-76375323D01*
X193287310Y-76377451D01*
X193293776Y-76380908D01*
X193299442Y-76385558D01*
X193304092Y-76391224D01*
X193307549Y-76397690D01*
X193309677Y-76404705D01*
X193311000Y-76418140D01*
X193311000Y-77881860D01*
X193309677Y-77895295D01*
X193307549Y-77902310D01*
X193304092Y-77908776D01*
X193299442Y-77914442D01*
X193293776Y-77919092D01*
X193287310Y-77922549D01*
X193280295Y-77924677D01*
X193266860Y-77926000D01*
X192953140Y-77926000D01*
X192939705Y-77924677D01*
X192932691Y-77922549D01*
X192918923Y-77915190D01*
X192896284Y-77905813D01*
X192872251Y-77901033D01*
X192847747Y-77901033D01*
X192823714Y-77905814D01*
X192801077Y-77915190D01*
X192787309Y-77922549D01*
X192780295Y-77924677D01*
X192766860Y-77926000D01*
X192453140Y-77926000D01*
X192439705Y-77924677D01*
X192432691Y-77922549D01*
X192418923Y-77915190D01*
X192396284Y-77905813D01*
X192372251Y-77901033D01*
X192347747Y-77901033D01*
X192323714Y-77905814D01*
X192301077Y-77915190D01*
X192287309Y-77922549D01*
X192280295Y-77924677D01*
X192266860Y-77926000D01*
X191953140Y-77926000D01*
X191939705Y-77924677D01*
X191932691Y-77922549D01*
X191918923Y-77915190D01*
X191896284Y-77905813D01*
X191872251Y-77901033D01*
X191847747Y-77901033D01*
X191823714Y-77905814D01*
X191801077Y-77915190D01*
X191787309Y-77922549D01*
X191780295Y-77924677D01*
X191766860Y-77926000D01*
X191453140Y-77926000D01*
X191439705Y-77924677D01*
X191432691Y-77922549D01*
X191418923Y-77915190D01*
X191396284Y-77905813D01*
X191372251Y-77901033D01*
X191347747Y-77901033D01*
X191323714Y-77905814D01*
X191301077Y-77915190D01*
X191287309Y-77922549D01*
X191280295Y-77924677D01*
X191266860Y-77926000D01*
X190953140Y-77926000D01*
X190939705Y-77924677D01*
X190932690Y-77922549D01*
X190926224Y-77919092D01*
X190920558Y-77914442D01*
X190915908Y-77908776D01*
X190912451Y-77902310D01*
X190910323Y-77895295D01*
X190909000Y-77881860D01*
X190909000Y-76418140D01*
X190910323Y-76404705D01*
X190912451Y-76397690D01*
X190915908Y-76391224D01*
X190920558Y-76385558D01*
X190926224Y-76380908D01*
X190932690Y-76377451D01*
X190939705Y-76375323D01*
X190953140Y-76374000D01*
X191266860Y-76374000D01*
X191280295Y-76375323D01*
G37*
G36*
X147079591Y-76653085D02*
G01*
X147113569Y-76663393D01*
X147144890Y-76680134D01*
X147172339Y-76702661D01*
X147194866Y-76730110D01*
X147211607Y-76761431D01*
X147221915Y-76795409D01*
X147226000Y-76836890D01*
X147226000Y-77438110D01*
X147221915Y-77479591D01*
X147211607Y-77513569D01*
X147194866Y-77544890D01*
X147172339Y-77572339D01*
X147144890Y-77594866D01*
X147113569Y-77611607D01*
X147079591Y-77621915D01*
X147038110Y-77626000D01*
X146361890Y-77626000D01*
X146320409Y-77621915D01*
X146286431Y-77611607D01*
X146255110Y-77594866D01*
X146227661Y-77572339D01*
X146205134Y-77544890D01*
X146188393Y-77513569D01*
X146178085Y-77479591D01*
X146174000Y-77438110D01*
X146174000Y-76836890D01*
X146178085Y-76795409D01*
X146188393Y-76761431D01*
X146205134Y-76730110D01*
X146227661Y-76702661D01*
X146255110Y-76680134D01*
X146286431Y-76663393D01*
X146320409Y-76653085D01*
X146361890Y-76649000D01*
X147038110Y-76649000D01*
X147079591Y-76653085D01*
G37*
G36*
X142179591Y-76640585D02*
G01*
X142213569Y-76650893D01*
X142244890Y-76667634D01*
X142272339Y-76690161D01*
X142294866Y-76717610D01*
X142311607Y-76748931D01*
X142321915Y-76782909D01*
X142326000Y-76824390D01*
X142326000Y-77425610D01*
X142321915Y-77467091D01*
X142311607Y-77501069D01*
X142294866Y-77532390D01*
X142272339Y-77559839D01*
X142244890Y-77582366D01*
X142213569Y-77599107D01*
X142179591Y-77609415D01*
X142138110Y-77613500D01*
X141461890Y-77613500D01*
X141420409Y-77609415D01*
X141386431Y-77599107D01*
X141355110Y-77582366D01*
X141327661Y-77559839D01*
X141305134Y-77532390D01*
X141288393Y-77501069D01*
X141278085Y-77467091D01*
X141274000Y-77425610D01*
X141274000Y-76824390D01*
X141278085Y-76782909D01*
X141288393Y-76748931D01*
X141305134Y-76717610D01*
X141327661Y-76690161D01*
X141355110Y-76667634D01*
X141386431Y-76650893D01*
X141420409Y-76640585D01*
X141461890Y-76636500D01*
X142138110Y-76636500D01*
X142179591Y-76640585D01*
G37*
G36*
X144629591Y-76640585D02*
G01*
X144663569Y-76650893D01*
X144694890Y-76667634D01*
X144722339Y-76690161D01*
X144744866Y-76717610D01*
X144761607Y-76748931D01*
X144771915Y-76782909D01*
X144776000Y-76824390D01*
X144776000Y-77425610D01*
X144771915Y-77467091D01*
X144761607Y-77501069D01*
X144744866Y-77532390D01*
X144722339Y-77559839D01*
X144694890Y-77582366D01*
X144663569Y-77599107D01*
X144629591Y-77609415D01*
X144588110Y-77613500D01*
X143911890Y-77613500D01*
X143870409Y-77609415D01*
X143836431Y-77599107D01*
X143805110Y-77582366D01*
X143777661Y-77559839D01*
X143755134Y-77532390D01*
X143738393Y-77501069D01*
X143728085Y-77467091D01*
X143724000Y-77425610D01*
X143724000Y-76824390D01*
X143728085Y-76782909D01*
X143738393Y-76748931D01*
X143755134Y-76717610D01*
X143777661Y-76690161D01*
X143805110Y-76667634D01*
X143836431Y-76650893D01*
X143870409Y-76640585D01*
X143911890Y-76636500D01*
X144588110Y-76636500D01*
X144629591Y-76640585D01*
G37*
G36*
X154801000Y-77531000D02*
G01*
X153699000Y-77531000D01*
X153699000Y-76629000D01*
X154801000Y-76629000D01*
X154801000Y-77531000D01*
G37*
G36*
X162101000Y-77531000D02*
G01*
X160999000Y-77531000D01*
X160999000Y-76629000D01*
X162101000Y-76629000D01*
X162101000Y-77531000D01*
G37*
G36*
X167491000Y-77386000D02*
G01*
X166649000Y-77386000D01*
X166649000Y-74884000D01*
X167491000Y-74884000D01*
X167491000Y-77386000D01*
G37*
G36*
X166221000Y-77386000D02*
G01*
X165379000Y-77386000D01*
X165379000Y-74884000D01*
X166221000Y-74884000D01*
X166221000Y-77386000D01*
G37*
G36*
X173841000Y-77386000D02*
G01*
X172999000Y-77386000D01*
X172999000Y-74884000D01*
X173841000Y-74884000D01*
X173841000Y-77386000D01*
G37*
G36*
X168761000Y-77386000D02*
G01*
X167919000Y-77386000D01*
X167919000Y-74884000D01*
X168761000Y-74884000D01*
X168761000Y-77386000D01*
G37*
G36*
X171301000Y-77386000D02*
G01*
X170459000Y-77386000D01*
X170459000Y-74884000D01*
X171301000Y-74884000D01*
X171301000Y-77386000D01*
G37*
G36*
X172571000Y-77386000D02*
G01*
X171729000Y-77386000D01*
X171729000Y-74884000D01*
X172571000Y-74884000D01*
X172571000Y-77386000D01*
G37*
G36*
X170031000Y-77386000D02*
G01*
X169189000Y-77386000D01*
X169189000Y-74884000D01*
X170031000Y-74884000D01*
X170031000Y-77386000D01*
G37*
G36*
X178679591Y-76128085D02*
G01*
X178713569Y-76138393D01*
X178744890Y-76155134D01*
X178772339Y-76177661D01*
X178794866Y-76205110D01*
X178811607Y-76236431D01*
X178821915Y-76270409D01*
X178826000Y-76311890D01*
X178826000Y-76913110D01*
X178821915Y-76954591D01*
X178811607Y-76988569D01*
X178794866Y-77019890D01*
X178772339Y-77047339D01*
X178744890Y-77069866D01*
X178713569Y-77086607D01*
X178679591Y-77096915D01*
X178638110Y-77101000D01*
X177961890Y-77101000D01*
X177920409Y-77096915D01*
X177886431Y-77086607D01*
X177855110Y-77069866D01*
X177827661Y-77047339D01*
X177805134Y-77019890D01*
X177788393Y-76988569D01*
X177778085Y-76954591D01*
X177774000Y-76913110D01*
X177774000Y-76311890D01*
X177778085Y-76270409D01*
X177788393Y-76236431D01*
X177805134Y-76205110D01*
X177827661Y-76177661D01*
X177855110Y-76155134D01*
X177886431Y-76138393D01*
X177920409Y-76128085D01*
X177961890Y-76124000D01*
X178638110Y-76124000D01*
X178679591Y-76128085D01*
G37*
G36*
X188229591Y-76078085D02*
G01*
X188263569Y-76088393D01*
X188294890Y-76105134D01*
X188322339Y-76127661D01*
X188344866Y-76155110D01*
X188361607Y-76186431D01*
X188371915Y-76220409D01*
X188376000Y-76261890D01*
X188376000Y-76863110D01*
X188371915Y-76904591D01*
X188361607Y-76938569D01*
X188344866Y-76969890D01*
X188322339Y-76997339D01*
X188294890Y-77019866D01*
X188263569Y-77036607D01*
X188229591Y-77046915D01*
X188188110Y-77051000D01*
X187511890Y-77051000D01*
X187470409Y-77046915D01*
X187436431Y-77036607D01*
X187405110Y-77019866D01*
X187377661Y-76997339D01*
X187355134Y-76969890D01*
X187338393Y-76938569D01*
X187328085Y-76904591D01*
X187324000Y-76863110D01*
X187324000Y-76261890D01*
X187328085Y-76220409D01*
X187338393Y-76186431D01*
X187355134Y-76155110D01*
X187377661Y-76127661D01*
X187405110Y-76105134D01*
X187436431Y-76088393D01*
X187470409Y-76078085D01*
X187511890Y-76074000D01*
X188188110Y-76074000D01*
X188229591Y-76078085D01*
G37*
G36*
X181976000Y-77001000D02*
G01*
X181224000Y-77001000D01*
X181224000Y-76499000D01*
X181976000Y-76499000D01*
X181976000Y-77001000D01*
G37*
G36*
X159497740Y-75478626D02*
G01*
X159546136Y-75488253D01*
X159583902Y-75503896D01*
X159637311Y-75526019D01*
X159637312Y-75526020D01*
X159719369Y-75580848D01*
X159789152Y-75650631D01*
X159789153Y-75650633D01*
X159843981Y-75732689D01*
X159881747Y-75823865D01*
X159901000Y-75920655D01*
X159901000Y-76019345D01*
X159898123Y-76033807D01*
X159881747Y-76116136D01*
X159872528Y-76138393D01*
X159843981Y-76207311D01*
X159824524Y-76236431D01*
X159789152Y-76289369D01*
X159719369Y-76359152D01*
X159697147Y-76374000D01*
X159637311Y-76413981D01*
X159584055Y-76436040D01*
X159546136Y-76451747D01*
X159497740Y-76461374D01*
X159449345Y-76471000D01*
X159350655Y-76471000D01*
X159302260Y-76461373D01*
X159253864Y-76451747D01*
X159215945Y-76436040D01*
X159162689Y-76413981D01*
X159102853Y-76374000D01*
X159080631Y-76359152D01*
X159010848Y-76289369D01*
X158975476Y-76236431D01*
X158956019Y-76207311D01*
X158927472Y-76138393D01*
X158918253Y-76116136D01*
X158901877Y-76033807D01*
X158899000Y-76019345D01*
X158899000Y-75920655D01*
X158918253Y-75823865D01*
X158956019Y-75732689D01*
X159010847Y-75650633D01*
X159010848Y-75650631D01*
X159080631Y-75580848D01*
X159162688Y-75526020D01*
X159162689Y-75526019D01*
X159216098Y-75503896D01*
X159253864Y-75488253D01*
X159302260Y-75478626D01*
X159350655Y-75469000D01*
X159449345Y-75469000D01*
X159497740Y-75478626D01*
G37*
G36*
X156497740Y-75478626D02*
G01*
X156546136Y-75488253D01*
X156583902Y-75503896D01*
X156637311Y-75526019D01*
X156637312Y-75526020D01*
X156719369Y-75580848D01*
X156789152Y-75650631D01*
X156789153Y-75650633D01*
X156843981Y-75732689D01*
X156881747Y-75823865D01*
X156901000Y-75920655D01*
X156901000Y-76019345D01*
X156898123Y-76033807D01*
X156881747Y-76116136D01*
X156872528Y-76138393D01*
X156843981Y-76207311D01*
X156824524Y-76236431D01*
X156789152Y-76289369D01*
X156719369Y-76359152D01*
X156697147Y-76374000D01*
X156637311Y-76413981D01*
X156584055Y-76436040D01*
X156546136Y-76451747D01*
X156497740Y-76461374D01*
X156449345Y-76471000D01*
X156350655Y-76471000D01*
X156302260Y-76461373D01*
X156253864Y-76451747D01*
X156215945Y-76436040D01*
X156162689Y-76413981D01*
X156102853Y-76374000D01*
X156080631Y-76359152D01*
X156010848Y-76289369D01*
X155975476Y-76236431D01*
X155956019Y-76207311D01*
X155927472Y-76138393D01*
X155918253Y-76116136D01*
X155901877Y-76033807D01*
X155899000Y-76019345D01*
X155899000Y-75920655D01*
X155918253Y-75823865D01*
X155956019Y-75732689D01*
X156010847Y-75650633D01*
X156010848Y-75650631D01*
X156080631Y-75580848D01*
X156162688Y-75526020D01*
X156162689Y-75526019D01*
X156216098Y-75503896D01*
X156253864Y-75488253D01*
X156302260Y-75478626D01*
X156350655Y-75469000D01*
X156449345Y-75469000D01*
X156497740Y-75478626D01*
G37*
G36*
X147079591Y-75078085D02*
G01*
X147113569Y-75088393D01*
X147144890Y-75105134D01*
X147172339Y-75127661D01*
X147194866Y-75155110D01*
X147211607Y-75186431D01*
X147221915Y-75220409D01*
X147226000Y-75261890D01*
X147226000Y-75863110D01*
X147221915Y-75904591D01*
X147211607Y-75938569D01*
X147194866Y-75969890D01*
X147172339Y-75997339D01*
X147144890Y-76019866D01*
X147113569Y-76036607D01*
X147079591Y-76046915D01*
X147038110Y-76051000D01*
X146361890Y-76051000D01*
X146320409Y-76046915D01*
X146286431Y-76036607D01*
X146255110Y-76019866D01*
X146227661Y-75997339D01*
X146205134Y-75969890D01*
X146188393Y-75938569D01*
X146178085Y-75904591D01*
X146174000Y-75863110D01*
X146174000Y-75261890D01*
X146178085Y-75220409D01*
X146188393Y-75186431D01*
X146205134Y-75155110D01*
X146227661Y-75127661D01*
X146255110Y-75105134D01*
X146286431Y-75088393D01*
X146320409Y-75078085D01*
X146361890Y-75074000D01*
X147038110Y-75074000D01*
X147079591Y-75078085D01*
G37*
G36*
X144629591Y-75065585D02*
G01*
X144663569Y-75075893D01*
X144694890Y-75092634D01*
X144722339Y-75115161D01*
X144744866Y-75142610D01*
X144761607Y-75173931D01*
X144771915Y-75207909D01*
X144776000Y-75249390D01*
X144776000Y-75850610D01*
X144771915Y-75892091D01*
X144761607Y-75926069D01*
X144744866Y-75957390D01*
X144722339Y-75984839D01*
X144694890Y-76007366D01*
X144663569Y-76024107D01*
X144629591Y-76034415D01*
X144588110Y-76038500D01*
X143911890Y-76038500D01*
X143870409Y-76034415D01*
X143836431Y-76024107D01*
X143805110Y-76007366D01*
X143777661Y-75984839D01*
X143755134Y-75957390D01*
X143738393Y-75926069D01*
X143728085Y-75892091D01*
X143724000Y-75850610D01*
X143724000Y-75249390D01*
X143728085Y-75207909D01*
X143738393Y-75173931D01*
X143755134Y-75142610D01*
X143777661Y-75115161D01*
X143805110Y-75092634D01*
X143836431Y-75075893D01*
X143870409Y-75065585D01*
X143911890Y-75061500D01*
X144588110Y-75061500D01*
X144629591Y-75065585D01*
G37*
G36*
X142179591Y-75065585D02*
G01*
X142213569Y-75075893D01*
X142244890Y-75092634D01*
X142272339Y-75115161D01*
X142294866Y-75142610D01*
X142311607Y-75173931D01*
X142321915Y-75207909D01*
X142326000Y-75249390D01*
X142326000Y-75850610D01*
X142321915Y-75892091D01*
X142311607Y-75926069D01*
X142294866Y-75957390D01*
X142272339Y-75984839D01*
X142244890Y-76007366D01*
X142213569Y-76024107D01*
X142179591Y-76034415D01*
X142138110Y-76038500D01*
X141461890Y-76038500D01*
X141420409Y-76034415D01*
X141386431Y-76024107D01*
X141355110Y-76007366D01*
X141327661Y-75984839D01*
X141305134Y-75957390D01*
X141288393Y-75926069D01*
X141278085Y-75892091D01*
X141274000Y-75850610D01*
X141274000Y-75249390D01*
X141278085Y-75207909D01*
X141288393Y-75173931D01*
X141305134Y-75142610D01*
X141327661Y-75115161D01*
X141355110Y-75092634D01*
X141386431Y-75075893D01*
X141420409Y-75065585D01*
X141461890Y-75061500D01*
X142138110Y-75061500D01*
X142179591Y-75065585D01*
G37*
G36*
X162101000Y-75321000D02*
G01*
X160999000Y-75321000D01*
X160999000Y-74419000D01*
X162101000Y-74419000D01*
X162101000Y-75321000D01*
G37*
G36*
X154801000Y-75321000D02*
G01*
X153699000Y-75321000D01*
X153699000Y-74419000D01*
X154801000Y-74419000D01*
X154801000Y-75321000D01*
G37*
M02*
