G04 #@! TF.GenerationSoftware,KiCad,Pcbnew,(5.1.5)-3*
G04 #@! TF.CreationDate,2021-08-11T14:04:56+02:00*
G04 #@! TF.ProjectId,18650_UPS_PCB,31383635-305f-4555-9053-5f5043422e6b,rev?*
G04 #@! TF.SameCoordinates,Original*
G04 #@! TF.FileFunction,Copper,L4,Bot*
G04 #@! TF.FilePolarity,Positive*
%FSLAX46Y46*%
G04 Gerber Fmt 4.6, Leading zero omitted, Abs format (unit mm)*
G04 Created by KiCad (PCBNEW (5.1.5)-3) date 2021-08-11 14:04:56*
%MOMM*%
%LPD*%
G04 APERTURE LIST*
%ADD10R,7.340000X6.350000*%
%ADD11O,1.200000X1.900000*%
%ADD12C,1.450000*%
%ADD13C,0.800000*%
%ADD14C,0.250000*%
%ADD15C,1.000000*%
%ADD16C,0.254000*%
G04 APERTURE END LIST*
D10*
X126380000Y-85685000D03*
X205040000Y-85685000D03*
D11*
X203120000Y-95687500D03*
X196120000Y-95687500D03*
D12*
X202120000Y-92987500D03*
X197120000Y-92987500D03*
D13*
X154850000Y-85300000D03*
X150825000Y-85325000D03*
X140600000Y-75550000D03*
X140600000Y-78150006D03*
X186325000Y-80950000D03*
X179575000Y-81550000D03*
X166449992Y-78075000D03*
X148800000Y-83850000D03*
X171400000Y-82300000D03*
X189900000Y-78800012D03*
X200610000Y-83385000D03*
X200600000Y-80400000D03*
X199610000Y-83385000D03*
X191100008Y-78800000D03*
X170700000Y-83100000D03*
X199600000Y-80400000D03*
X197210000Y-83385000D03*
X198210000Y-83385000D03*
X197710000Y-82485000D03*
X192799986Y-86500000D03*
X142925000Y-78125000D03*
X138172488Y-90985000D03*
X145600000Y-78125000D03*
X152800000Y-76000000D03*
X185300000Y-78400000D03*
X185300000Y-76400000D03*
X185300000Y-77400000D03*
X170200000Y-78100000D03*
X182600000Y-87500000D03*
X182600000Y-86500000D03*
X182600000Y-85500000D03*
X203500000Y-91100000D03*
X200900000Y-91100000D03*
X202200000Y-91100000D03*
X139600000Y-85600000D03*
X151000000Y-83850006D03*
X172450000Y-95200000D03*
X150825000Y-94225000D03*
X183650000Y-79910000D03*
X163650000Y-77150000D03*
X198510000Y-88085000D03*
X192875000Y-88100008D03*
X191750000Y-79700000D03*
X176150000Y-84450000D03*
X199610000Y-88085000D03*
X192875648Y-89425011D03*
D14*
X154850000Y-85300000D02*
X150850000Y-85300000D01*
X150850000Y-85300000D02*
X150825000Y-85325000D01*
X140600000Y-75550000D02*
X140600000Y-78150006D01*
X185725000Y-81550000D02*
X179575000Y-81550000D01*
X186325000Y-80950000D02*
X185725000Y-81550000D01*
X154550000Y-78100000D02*
X149199999Y-83450001D01*
X149199999Y-83450001D02*
X148800000Y-83850000D01*
X166449992Y-78075000D02*
X166424992Y-78100000D01*
X166424992Y-78100000D02*
X154550000Y-78100000D01*
X171300000Y-82300000D02*
X171400000Y-82300000D01*
X186400012Y-82300000D02*
X189500001Y-79200011D01*
X171400000Y-82300000D02*
X186400012Y-82300000D01*
X189500001Y-79200011D02*
X189900000Y-78800012D01*
X200610000Y-83385000D02*
X200610000Y-80410000D01*
X200610000Y-80410000D02*
X200600000Y-80400000D01*
X170774998Y-83025002D02*
X170700000Y-83100000D01*
X186800008Y-83100000D02*
X170700000Y-83100000D01*
X191100008Y-78800000D02*
X186800008Y-83100000D01*
X199610000Y-82819315D02*
X199600000Y-82809315D01*
X199610000Y-83385000D02*
X199610000Y-82819315D01*
X199600000Y-82809315D02*
X199600000Y-80950000D01*
X199600000Y-80950000D02*
X199600000Y-80400000D01*
D15*
X205040000Y-85685000D02*
X197710000Y-85685000D01*
X197710000Y-83885000D02*
X198210000Y-83385000D01*
X197710000Y-85685000D02*
X197710000Y-83885000D01*
X197210000Y-83385000D02*
X197710000Y-83885000D01*
X198210000Y-82985000D02*
X197710000Y-82485000D01*
X198210000Y-83385000D02*
X198210000Y-82985000D01*
X197210000Y-82985000D02*
X197710000Y-82485000D01*
X197210000Y-83385000D02*
X197210000Y-82985000D01*
D14*
X183650000Y-79910000D02*
X180890000Y-77150000D01*
X180890000Y-77150000D02*
X163650000Y-77150000D01*
X193674992Y-88900000D02*
X192875000Y-88100008D01*
X198510000Y-88085000D02*
X197695000Y-88900000D01*
X197695000Y-88900000D02*
X193674992Y-88900000D01*
X176800000Y-83800000D02*
X176150000Y-84450000D01*
X191750000Y-79700000D02*
X187650000Y-83800000D01*
X187650000Y-83800000D02*
X176800000Y-83800000D01*
X199610000Y-88085000D02*
X198269989Y-89425011D01*
X198269989Y-89425011D02*
X193441333Y-89425011D01*
X193441333Y-89425011D02*
X192875648Y-89425011D01*
D16*
G36*
X207960155Y-74401478D02*
G01*
X208585543Y-74590293D01*
X209162351Y-74896987D01*
X209668603Y-75309875D01*
X210085012Y-75813227D01*
X210395726Y-76387879D01*
X210588904Y-77011937D01*
X210657943Y-77668793D01*
X210658001Y-77685529D01*
X210658000Y-93677561D01*
X210593522Y-94335155D01*
X210404704Y-94960549D01*
X210098013Y-95537351D01*
X209685125Y-96043603D01*
X209181771Y-96460013D01*
X208607117Y-96770727D01*
X207983062Y-96963904D01*
X207326207Y-97032943D01*
X207309758Y-97033000D01*
X124317439Y-97033000D01*
X123659845Y-96968522D01*
X123034451Y-96779704D01*
X122457649Y-96473013D01*
X121951397Y-96060125D01*
X121534987Y-95556771D01*
X121224273Y-94982117D01*
X121031096Y-94358062D01*
X120962057Y-93701207D01*
X120962000Y-93684758D01*
X120962000Y-93495207D01*
X122383000Y-93495207D01*
X122383000Y-93874793D01*
X122457053Y-94247085D01*
X122602315Y-94597777D01*
X122813201Y-94913391D01*
X123081609Y-95181799D01*
X123397223Y-95392685D01*
X123747915Y-95537947D01*
X124120207Y-95612000D01*
X124499793Y-95612000D01*
X124872085Y-95537947D01*
X125222777Y-95392685D01*
X125538391Y-95181799D01*
X125806799Y-94913391D01*
X126017685Y-94597777D01*
X126162947Y-94247085D01*
X126237000Y-93874793D01*
X126237000Y-93495207D01*
X126234552Y-93482896D01*
X191258000Y-93482896D01*
X191258000Y-93887104D01*
X191336857Y-94283546D01*
X191491541Y-94656987D01*
X191716107Y-94993074D01*
X192001926Y-95278893D01*
X192338013Y-95503459D01*
X192711454Y-95658143D01*
X193107896Y-95737000D01*
X193512104Y-95737000D01*
X193908546Y-95658143D01*
X194281987Y-95503459D01*
X194598514Y-95291962D01*
X195193000Y-95291962D01*
X195193000Y-96083037D01*
X195206413Y-96219223D01*
X195259420Y-96393963D01*
X195345499Y-96555004D01*
X195461341Y-96696159D01*
X195602495Y-96812001D01*
X195763536Y-96898080D01*
X195938276Y-96951087D01*
X196120000Y-96968985D01*
X196301723Y-96951087D01*
X196476463Y-96898080D01*
X196637504Y-96812001D01*
X196778659Y-96696159D01*
X196894501Y-96555005D01*
X196980580Y-96393964D01*
X197033587Y-96219224D01*
X197047000Y-96083038D01*
X197047000Y-95291963D01*
X202193000Y-95291963D01*
X202193000Y-96083038D01*
X202206413Y-96219224D01*
X202259421Y-96393964D01*
X202345500Y-96555005D01*
X202461342Y-96696159D01*
X202602496Y-96812001D01*
X202763537Y-96898080D01*
X202938277Y-96951087D01*
X203120000Y-96968985D01*
X203301724Y-96951087D01*
X203476464Y-96898080D01*
X203637505Y-96812001D01*
X203778659Y-96696159D01*
X203894501Y-96555005D01*
X203980580Y-96393964D01*
X204033587Y-96219224D01*
X204047000Y-96083038D01*
X204047000Y-95291962D01*
X204033587Y-95155776D01*
X203980580Y-94981036D01*
X203894501Y-94819995D01*
X203778659Y-94678841D01*
X203637504Y-94562999D01*
X203476463Y-94476920D01*
X203301723Y-94423913D01*
X203120000Y-94406015D01*
X202938276Y-94423913D01*
X202763536Y-94476920D01*
X202602495Y-94562999D01*
X202461341Y-94678841D01*
X202345499Y-94819996D01*
X202259420Y-94981037D01*
X202206413Y-95155777D01*
X202193000Y-95291963D01*
X197047000Y-95291963D01*
X197047000Y-95291962D01*
X197033587Y-95155776D01*
X196980580Y-94981036D01*
X196894501Y-94819995D01*
X196778659Y-94678841D01*
X196637505Y-94562999D01*
X196476464Y-94476920D01*
X196301724Y-94423913D01*
X196120000Y-94406015D01*
X195938277Y-94423913D01*
X195763537Y-94476920D01*
X195602496Y-94562999D01*
X195461342Y-94678841D01*
X195345500Y-94819995D01*
X195259421Y-94981036D01*
X195206413Y-95155776D01*
X195193000Y-95291962D01*
X194598514Y-95291962D01*
X194618074Y-95278893D01*
X194903893Y-94993074D01*
X195128459Y-94656987D01*
X195283143Y-94283546D01*
X195362000Y-93887104D01*
X195362000Y-93482896D01*
X195283143Y-93086454D01*
X195199238Y-92883887D01*
X196068000Y-92883887D01*
X196068000Y-93091113D01*
X196108428Y-93294357D01*
X196187730Y-93485809D01*
X196302858Y-93658111D01*
X196449389Y-93804642D01*
X196621691Y-93919770D01*
X196813143Y-93999072D01*
X197016387Y-94039500D01*
X197223613Y-94039500D01*
X197426857Y-93999072D01*
X197618309Y-93919770D01*
X197790611Y-93804642D01*
X197937142Y-93658111D01*
X198052270Y-93485809D01*
X198131572Y-93294357D01*
X198172000Y-93091113D01*
X198172000Y-92883887D01*
X201068000Y-92883887D01*
X201068000Y-93091113D01*
X201108428Y-93294357D01*
X201187730Y-93485809D01*
X201302858Y-93658111D01*
X201449389Y-93804642D01*
X201621691Y-93919770D01*
X201813143Y-93999072D01*
X202016387Y-94039500D01*
X202223613Y-94039500D01*
X202426857Y-93999072D01*
X202618309Y-93919770D01*
X202790611Y-93804642D01*
X202937142Y-93658111D01*
X203045990Y-93495207D01*
X205383000Y-93495207D01*
X205383000Y-93874793D01*
X205457053Y-94247085D01*
X205602315Y-94597777D01*
X205813201Y-94913391D01*
X206081609Y-95181799D01*
X206397223Y-95392685D01*
X206747915Y-95537947D01*
X207120207Y-95612000D01*
X207499793Y-95612000D01*
X207872085Y-95537947D01*
X208222777Y-95392685D01*
X208538391Y-95181799D01*
X208806799Y-94913391D01*
X209017685Y-94597777D01*
X209162947Y-94247085D01*
X209237000Y-93874793D01*
X209237000Y-93495207D01*
X209162947Y-93122915D01*
X209017685Y-92772223D01*
X208806799Y-92456609D01*
X208538391Y-92188201D01*
X208222777Y-91977315D01*
X207872085Y-91832053D01*
X207499793Y-91758000D01*
X207120207Y-91758000D01*
X206747915Y-91832053D01*
X206397223Y-91977315D01*
X206081609Y-92188201D01*
X205813201Y-92456609D01*
X205602315Y-92772223D01*
X205457053Y-93122915D01*
X205383000Y-93495207D01*
X203045990Y-93495207D01*
X203052270Y-93485809D01*
X203131572Y-93294357D01*
X203172000Y-93091113D01*
X203172000Y-92883887D01*
X203131572Y-92680643D01*
X203052270Y-92489191D01*
X202937142Y-92316889D01*
X202790611Y-92170358D01*
X202618309Y-92055230D01*
X202426857Y-91975928D01*
X202223613Y-91935500D01*
X202016387Y-91935500D01*
X201813143Y-91975928D01*
X201621691Y-92055230D01*
X201449389Y-92170358D01*
X201302858Y-92316889D01*
X201187730Y-92489191D01*
X201108428Y-92680643D01*
X201068000Y-92883887D01*
X198172000Y-92883887D01*
X198131572Y-92680643D01*
X198052270Y-92489191D01*
X197937142Y-92316889D01*
X197790611Y-92170358D01*
X197618309Y-92055230D01*
X197426857Y-91975928D01*
X197223613Y-91935500D01*
X197016387Y-91935500D01*
X196813143Y-91975928D01*
X196621691Y-92055230D01*
X196449389Y-92170358D01*
X196302858Y-92316889D01*
X196187730Y-92489191D01*
X196108428Y-92680643D01*
X196068000Y-92883887D01*
X195199238Y-92883887D01*
X195128459Y-92713013D01*
X194903893Y-92376926D01*
X194618074Y-92091107D01*
X194281987Y-91866541D01*
X193908546Y-91711857D01*
X193512104Y-91633000D01*
X193107896Y-91633000D01*
X192711454Y-91711857D01*
X192338013Y-91866541D01*
X192001926Y-92091107D01*
X191716107Y-92376926D01*
X191491541Y-92713013D01*
X191336857Y-93086454D01*
X191258000Y-93482896D01*
X126234552Y-93482896D01*
X126162947Y-93122915D01*
X126017685Y-92772223D01*
X125806799Y-92456609D01*
X125538391Y-92188201D01*
X125222777Y-91977315D01*
X124872085Y-91832053D01*
X124499793Y-91758000D01*
X124120207Y-91758000D01*
X123747915Y-91832053D01*
X123397223Y-91977315D01*
X123081609Y-92188201D01*
X122813201Y-92456609D01*
X122602315Y-92772223D01*
X122457053Y-93122915D01*
X122383000Y-93495207D01*
X120962000Y-93495207D01*
X120962000Y-88860000D01*
X122071928Y-88860000D01*
X122084188Y-88984482D01*
X122120498Y-89104180D01*
X122179463Y-89214494D01*
X122258815Y-89311185D01*
X122355506Y-89390537D01*
X122465820Y-89449502D01*
X122585518Y-89485812D01*
X122710000Y-89498072D01*
X126094250Y-89495000D01*
X126253000Y-89336250D01*
X126253000Y-85812000D01*
X126507000Y-85812000D01*
X126507000Y-89336250D01*
X126665750Y-89495000D01*
X130050000Y-89498072D01*
X130174482Y-89485812D01*
X130294180Y-89449502D01*
X130404494Y-89390537D01*
X130501185Y-89311185D01*
X130580537Y-89214494D01*
X130639502Y-89104180D01*
X130675812Y-88984482D01*
X130688072Y-88860000D01*
X130687188Y-88028405D01*
X192148000Y-88028405D01*
X192148000Y-88171611D01*
X192175938Y-88312066D01*
X192230741Y-88444372D01*
X192310302Y-88563444D01*
X192411564Y-88664706D01*
X192530636Y-88744267D01*
X192575001Y-88762644D01*
X192531284Y-88780752D01*
X192412212Y-88860313D01*
X192310950Y-88961575D01*
X192231389Y-89080647D01*
X192176586Y-89212953D01*
X192148648Y-89353408D01*
X192148648Y-89496614D01*
X192176586Y-89637069D01*
X192231389Y-89769375D01*
X192310950Y-89888447D01*
X192412212Y-89989709D01*
X192531284Y-90069270D01*
X192663590Y-90124073D01*
X192804045Y-90152011D01*
X192947251Y-90152011D01*
X193087706Y-90124073D01*
X193220012Y-90069270D01*
X193339084Y-89989709D01*
X193440346Y-89888447D01*
X193447987Y-89877011D01*
X198247784Y-89877011D01*
X198269989Y-89879198D01*
X198292194Y-89877011D01*
X198358596Y-89870471D01*
X198443799Y-89844625D01*
X198522322Y-89802654D01*
X198591148Y-89746170D01*
X198605312Y-89728911D01*
X199524907Y-88809317D01*
X199538397Y-88812000D01*
X199681603Y-88812000D01*
X199822058Y-88784062D01*
X199954364Y-88729259D01*
X200073436Y-88649698D01*
X200174698Y-88548436D01*
X200254259Y-88429364D01*
X200309062Y-88297058D01*
X200337000Y-88156603D01*
X200337000Y-88013397D01*
X200309062Y-87872942D01*
X200254259Y-87740636D01*
X200174698Y-87621564D01*
X200073436Y-87520302D01*
X199954364Y-87440741D01*
X199822058Y-87385938D01*
X199681603Y-87358000D01*
X199538397Y-87358000D01*
X199397942Y-87385938D01*
X199265636Y-87440741D01*
X199146564Y-87520302D01*
X199060000Y-87606866D01*
X198973436Y-87520302D01*
X198854364Y-87440741D01*
X198722058Y-87385938D01*
X198581603Y-87358000D01*
X198438397Y-87358000D01*
X198297942Y-87385938D01*
X198165636Y-87440741D01*
X198046564Y-87520302D01*
X197945302Y-87621564D01*
X197865741Y-87740636D01*
X197810938Y-87872942D01*
X197783000Y-88013397D01*
X197783000Y-88156603D01*
X197785683Y-88170093D01*
X197507777Y-88448000D01*
X193862216Y-88448000D01*
X193599317Y-88185101D01*
X193602000Y-88171611D01*
X193602000Y-88028405D01*
X193574062Y-87887950D01*
X193519259Y-87755644D01*
X193439698Y-87636572D01*
X193338436Y-87535310D01*
X193219364Y-87455749D01*
X193087058Y-87400946D01*
X192946603Y-87373008D01*
X192803397Y-87373008D01*
X192662942Y-87400946D01*
X192530636Y-87455749D01*
X192411564Y-87535310D01*
X192310302Y-87636572D01*
X192230741Y-87755644D01*
X192175938Y-87887950D01*
X192148000Y-88028405D01*
X130687188Y-88028405D01*
X130685000Y-85970750D01*
X130526250Y-85812000D01*
X126507000Y-85812000D01*
X126253000Y-85812000D01*
X122233750Y-85812000D01*
X122075000Y-85970750D01*
X122071928Y-88860000D01*
X120962000Y-88860000D01*
X120962000Y-82510000D01*
X122071928Y-82510000D01*
X122075000Y-85399250D01*
X122233750Y-85558000D01*
X126253000Y-85558000D01*
X126253000Y-82033750D01*
X126507000Y-82033750D01*
X126507000Y-85558000D01*
X130526250Y-85558000D01*
X130685000Y-85399250D01*
X130685155Y-85253397D01*
X150098000Y-85253397D01*
X150098000Y-85396603D01*
X150125938Y-85537058D01*
X150180741Y-85669364D01*
X150260302Y-85788436D01*
X150361564Y-85889698D01*
X150480636Y-85969259D01*
X150612942Y-86024062D01*
X150753397Y-86052000D01*
X150896603Y-86052000D01*
X151037058Y-86024062D01*
X151169364Y-85969259D01*
X151288436Y-85889698D01*
X151389698Y-85788436D01*
X151414044Y-85752000D01*
X154277661Y-85752000D01*
X154285302Y-85763436D01*
X154386564Y-85864698D01*
X154505636Y-85944259D01*
X154637942Y-85999062D01*
X154778397Y-86027000D01*
X154921603Y-86027000D01*
X155062058Y-85999062D01*
X155194364Y-85944259D01*
X155313436Y-85864698D01*
X155414698Y-85763436D01*
X155494259Y-85644364D01*
X155549062Y-85512058D01*
X155577000Y-85371603D01*
X155577000Y-85228397D01*
X155549062Y-85087942D01*
X155494259Y-84955636D01*
X155414698Y-84836564D01*
X155313436Y-84735302D01*
X155194364Y-84655741D01*
X155062058Y-84600938D01*
X154921603Y-84573000D01*
X154778397Y-84573000D01*
X154637942Y-84600938D01*
X154505636Y-84655741D01*
X154386564Y-84735302D01*
X154285302Y-84836564D01*
X154277661Y-84848000D01*
X151376134Y-84848000D01*
X151288436Y-84760302D01*
X151169364Y-84680741D01*
X151037058Y-84625938D01*
X150896603Y-84598000D01*
X150753397Y-84598000D01*
X150612942Y-84625938D01*
X150480636Y-84680741D01*
X150361564Y-84760302D01*
X150260302Y-84861564D01*
X150180741Y-84980636D01*
X150125938Y-85112942D01*
X150098000Y-85253397D01*
X130685155Y-85253397D01*
X130686723Y-83778397D01*
X148073000Y-83778397D01*
X148073000Y-83921603D01*
X148100938Y-84062058D01*
X148155741Y-84194364D01*
X148235302Y-84313436D01*
X148336564Y-84414698D01*
X148455636Y-84494259D01*
X148587942Y-84549062D01*
X148728397Y-84577000D01*
X148871603Y-84577000D01*
X149012058Y-84549062D01*
X149144364Y-84494259D01*
X149263436Y-84414698D01*
X149364698Y-84313436D01*
X149444259Y-84194364D01*
X149499062Y-84062058D01*
X149527000Y-83921603D01*
X149527000Y-83778397D01*
X149524317Y-83764907D01*
X149535312Y-83753912D01*
X149535317Y-83753906D01*
X150260826Y-83028397D01*
X169973000Y-83028397D01*
X169973000Y-83171603D01*
X170000938Y-83312058D01*
X170055741Y-83444364D01*
X170135302Y-83563436D01*
X170236564Y-83664698D01*
X170355636Y-83744259D01*
X170487942Y-83799062D01*
X170628397Y-83827000D01*
X170771603Y-83827000D01*
X170912058Y-83799062D01*
X171044364Y-83744259D01*
X171163436Y-83664698D01*
X171264698Y-83563436D01*
X171272339Y-83552000D01*
X176408776Y-83552000D01*
X176235093Y-83725683D01*
X176221603Y-83723000D01*
X176078397Y-83723000D01*
X175937942Y-83750938D01*
X175805636Y-83805741D01*
X175686564Y-83885302D01*
X175585302Y-83986564D01*
X175505741Y-84105636D01*
X175450938Y-84237942D01*
X175423000Y-84378397D01*
X175423000Y-84521603D01*
X175450938Y-84662058D01*
X175505741Y-84794364D01*
X175585302Y-84913436D01*
X175686564Y-85014698D01*
X175805636Y-85094259D01*
X175937942Y-85149062D01*
X176078397Y-85177000D01*
X176221603Y-85177000D01*
X176362058Y-85149062D01*
X176494364Y-85094259D01*
X176613436Y-85014698D01*
X176714698Y-84913436D01*
X176794259Y-84794364D01*
X176849062Y-84662058D01*
X176877000Y-84521603D01*
X176877000Y-84378397D01*
X176874317Y-84364907D01*
X176987224Y-84252000D01*
X187627795Y-84252000D01*
X187650000Y-84254187D01*
X187672205Y-84252000D01*
X187738607Y-84245460D01*
X187823810Y-84219614D01*
X187902333Y-84177643D01*
X187971159Y-84121159D01*
X187985323Y-84103900D01*
X189104223Y-82985000D01*
X196379000Y-82985000D01*
X196383000Y-83025614D01*
X196383000Y-83344386D01*
X196379000Y-83385000D01*
X196383000Y-83425614D01*
X196383000Y-83425623D01*
X196394966Y-83547119D01*
X196442255Y-83703009D01*
X196456342Y-83729364D01*
X196519048Y-83846679D01*
X196553458Y-83888607D01*
X196622394Y-83972606D01*
X196653952Y-83998505D01*
X196883001Y-84227554D01*
X196883000Y-85644376D01*
X196878999Y-85685000D01*
X196894966Y-85847120D01*
X196942255Y-86003010D01*
X197019048Y-86146679D01*
X197122394Y-86272606D01*
X197248321Y-86375952D01*
X197391990Y-86452745D01*
X197547880Y-86500034D01*
X197710000Y-86516001D01*
X197750624Y-86512000D01*
X201041418Y-86512000D01*
X201041418Y-88860000D01*
X201047732Y-88924103D01*
X201066430Y-88985743D01*
X201096794Y-89042550D01*
X201137657Y-89092343D01*
X201187450Y-89133206D01*
X201244257Y-89163570D01*
X201305897Y-89182268D01*
X201370000Y-89188582D01*
X208710000Y-89188582D01*
X208774103Y-89182268D01*
X208835743Y-89163570D01*
X208892550Y-89133206D01*
X208942343Y-89092343D01*
X208983206Y-89042550D01*
X209013570Y-88985743D01*
X209032268Y-88924103D01*
X209038582Y-88860000D01*
X209038582Y-82510000D01*
X209032268Y-82445897D01*
X209013570Y-82384257D01*
X208983206Y-82327450D01*
X208942343Y-82277657D01*
X208892550Y-82236794D01*
X208835743Y-82206430D01*
X208774103Y-82187732D01*
X208710000Y-82181418D01*
X201370000Y-82181418D01*
X201305897Y-82187732D01*
X201244257Y-82206430D01*
X201187450Y-82236794D01*
X201137657Y-82277657D01*
X201096794Y-82327450D01*
X201066430Y-82384257D01*
X201062000Y-82398861D01*
X201062000Y-80965658D01*
X201063436Y-80964698D01*
X201164698Y-80863436D01*
X201244259Y-80744364D01*
X201299062Y-80612058D01*
X201327000Y-80471603D01*
X201327000Y-80328397D01*
X201299062Y-80187942D01*
X201244259Y-80055636D01*
X201164698Y-79936564D01*
X201063436Y-79835302D01*
X200944364Y-79755741D01*
X200812058Y-79700938D01*
X200671603Y-79673000D01*
X200528397Y-79673000D01*
X200387942Y-79700938D01*
X200255636Y-79755741D01*
X200136564Y-79835302D01*
X200100000Y-79871866D01*
X200063436Y-79835302D01*
X199944364Y-79755741D01*
X199812058Y-79700938D01*
X199671603Y-79673000D01*
X199528397Y-79673000D01*
X199387942Y-79700938D01*
X199255636Y-79755741D01*
X199136564Y-79835302D01*
X199035302Y-79936564D01*
X198955741Y-80055636D01*
X198900938Y-80187942D01*
X198873000Y-80328397D01*
X198873000Y-80471603D01*
X198900938Y-80612058D01*
X198955741Y-80744364D01*
X199035302Y-80863436D01*
X199136564Y-80964698D01*
X199148001Y-80972340D01*
X199148000Y-82787110D01*
X199145813Y-82809315D01*
X199146875Y-82820094D01*
X199146564Y-82820302D01*
X199045302Y-82921564D01*
X199036108Y-82935323D01*
X199025034Y-82822880D01*
X198977745Y-82666990D01*
X198925885Y-82569967D01*
X198900952Y-82523320D01*
X198845490Y-82455741D01*
X198797606Y-82397394D01*
X198766048Y-82371495D01*
X198323507Y-81928954D01*
X198297606Y-81897394D01*
X198171680Y-81794048D01*
X198028010Y-81717256D01*
X197872120Y-81669967D01*
X197710000Y-81654000D01*
X197547879Y-81669967D01*
X197391989Y-81717256D01*
X197248320Y-81794048D01*
X197196515Y-81836564D01*
X197122394Y-81897394D01*
X197096495Y-81928952D01*
X196653948Y-82371499D01*
X196622395Y-82397394D01*
X196596499Y-82428948D01*
X196596498Y-82428949D01*
X196586056Y-82441672D01*
X196519048Y-82523321D01*
X196442255Y-82666990D01*
X196394966Y-82822880D01*
X196383000Y-82944376D01*
X196383000Y-82944386D01*
X196379000Y-82985000D01*
X189104223Y-82985000D01*
X191664907Y-80424317D01*
X191678397Y-80427000D01*
X191821603Y-80427000D01*
X191962058Y-80399062D01*
X192094364Y-80344259D01*
X192213436Y-80264698D01*
X192314698Y-80163436D01*
X192394259Y-80044364D01*
X192449062Y-79912058D01*
X192477000Y-79771603D01*
X192477000Y-79628397D01*
X192449062Y-79487942D01*
X192394259Y-79355636D01*
X192314698Y-79236564D01*
X192213436Y-79135302D01*
X192094364Y-79055741D01*
X191962058Y-79000938D01*
X191821603Y-78973000D01*
X191806839Y-78973000D01*
X191827008Y-78871603D01*
X191827008Y-78728397D01*
X191799070Y-78587942D01*
X191744267Y-78455636D01*
X191664706Y-78336564D01*
X191563444Y-78235302D01*
X191444372Y-78155741D01*
X191312066Y-78100938D01*
X191171611Y-78073000D01*
X191028405Y-78073000D01*
X190887950Y-78100938D01*
X190755644Y-78155741D01*
X190636572Y-78235302D01*
X190535310Y-78336564D01*
X190500000Y-78389409D01*
X190464698Y-78336576D01*
X190363436Y-78235314D01*
X190244364Y-78155753D01*
X190112058Y-78100950D01*
X189971603Y-78073012D01*
X189828397Y-78073012D01*
X189687942Y-78100950D01*
X189555636Y-78155753D01*
X189436564Y-78235314D01*
X189335302Y-78336576D01*
X189255741Y-78455648D01*
X189200938Y-78587954D01*
X189173000Y-78728409D01*
X189173000Y-78871615D01*
X189175683Y-78885104D01*
X187052000Y-81008788D01*
X187052000Y-80878397D01*
X187024062Y-80737942D01*
X186969259Y-80605636D01*
X186889698Y-80486564D01*
X186788436Y-80385302D01*
X186669364Y-80305741D01*
X186537058Y-80250938D01*
X186396603Y-80223000D01*
X186253397Y-80223000D01*
X186112942Y-80250938D01*
X185980636Y-80305741D01*
X185861564Y-80385302D01*
X185760302Y-80486564D01*
X185680741Y-80605636D01*
X185625938Y-80737942D01*
X185598000Y-80878397D01*
X185598000Y-81021603D01*
X185600683Y-81035093D01*
X185537777Y-81098000D01*
X180147339Y-81098000D01*
X180139698Y-81086564D01*
X180038436Y-80985302D01*
X179919364Y-80905741D01*
X179787058Y-80850938D01*
X179646603Y-80823000D01*
X179503397Y-80823000D01*
X179362942Y-80850938D01*
X179230636Y-80905741D01*
X179111564Y-80985302D01*
X179010302Y-81086564D01*
X178930741Y-81205636D01*
X178875938Y-81337942D01*
X178848000Y-81478397D01*
X178848000Y-81621603D01*
X178875938Y-81762058D01*
X178911536Y-81848000D01*
X171972339Y-81848000D01*
X171964698Y-81836564D01*
X171863436Y-81735302D01*
X171744364Y-81655741D01*
X171612058Y-81600938D01*
X171471603Y-81573000D01*
X171328397Y-81573000D01*
X171187942Y-81600938D01*
X171055636Y-81655741D01*
X170936564Y-81735302D01*
X170835302Y-81836564D01*
X170755741Y-81955636D01*
X170700938Y-82087942D01*
X170673000Y-82228397D01*
X170673000Y-82371603D01*
X170673278Y-82373000D01*
X170628397Y-82373000D01*
X170487942Y-82400938D01*
X170355636Y-82455741D01*
X170236564Y-82535302D01*
X170135302Y-82636564D01*
X170055741Y-82755636D01*
X170000938Y-82887942D01*
X169973000Y-83028397D01*
X150260826Y-83028397D01*
X154737224Y-78552000D01*
X165898858Y-78552000D01*
X165986556Y-78639698D01*
X166105628Y-78719259D01*
X166237934Y-78774062D01*
X166378389Y-78802000D01*
X166521595Y-78802000D01*
X166662050Y-78774062D01*
X166794356Y-78719259D01*
X166913428Y-78639698D01*
X167014690Y-78538436D01*
X167094251Y-78419364D01*
X167149054Y-78287058D01*
X167176992Y-78146603D01*
X167176992Y-78003397D01*
X167149054Y-77862942D01*
X167094251Y-77730636D01*
X167014690Y-77611564D01*
X167005126Y-77602000D01*
X180702777Y-77602000D01*
X182925683Y-79824908D01*
X182923000Y-79838397D01*
X182923000Y-79981603D01*
X182950938Y-80122058D01*
X183005741Y-80254364D01*
X183085302Y-80373436D01*
X183186564Y-80474698D01*
X183305636Y-80554259D01*
X183437942Y-80609062D01*
X183578397Y-80637000D01*
X183721603Y-80637000D01*
X183862058Y-80609062D01*
X183994364Y-80554259D01*
X184113436Y-80474698D01*
X184214698Y-80373436D01*
X184294259Y-80254364D01*
X184349062Y-80122058D01*
X184377000Y-79981603D01*
X184377000Y-79838397D01*
X184349062Y-79697942D01*
X184294259Y-79565636D01*
X184214698Y-79446564D01*
X184113436Y-79345302D01*
X183994364Y-79265741D01*
X183862058Y-79210938D01*
X183721603Y-79183000D01*
X183578397Y-79183000D01*
X183564908Y-79185683D01*
X181914320Y-77535096D01*
X200118000Y-77535096D01*
X200118000Y-77834904D01*
X200176490Y-78128951D01*
X200291221Y-78405937D01*
X200457786Y-78655218D01*
X200669782Y-78867214D01*
X200919063Y-79033779D01*
X201196049Y-79148510D01*
X201490096Y-79207000D01*
X201789904Y-79207000D01*
X202083951Y-79148510D01*
X202360937Y-79033779D01*
X202610218Y-78867214D01*
X202822214Y-78655218D01*
X202988779Y-78405937D01*
X203103510Y-78128951D01*
X203162000Y-77834904D01*
X203162000Y-77535096D01*
X203154066Y-77495207D01*
X205383000Y-77495207D01*
X205383000Y-77874793D01*
X205457053Y-78247085D01*
X205602315Y-78597777D01*
X205813201Y-78913391D01*
X206081609Y-79181799D01*
X206397223Y-79392685D01*
X206747915Y-79537947D01*
X207120207Y-79612000D01*
X207499793Y-79612000D01*
X207872085Y-79537947D01*
X208222777Y-79392685D01*
X208538391Y-79181799D01*
X208806799Y-78913391D01*
X209017685Y-78597777D01*
X209162947Y-78247085D01*
X209237000Y-77874793D01*
X209237000Y-77495207D01*
X209162947Y-77122915D01*
X209017685Y-76772223D01*
X208806799Y-76456609D01*
X208538391Y-76188201D01*
X208222777Y-75977315D01*
X207872085Y-75832053D01*
X207499793Y-75758000D01*
X207120207Y-75758000D01*
X206747915Y-75832053D01*
X206397223Y-75977315D01*
X206081609Y-76188201D01*
X205813201Y-76456609D01*
X205602315Y-76772223D01*
X205457053Y-77122915D01*
X205383000Y-77495207D01*
X203154066Y-77495207D01*
X203103510Y-77241049D01*
X202988779Y-76964063D01*
X202822214Y-76714782D01*
X202610218Y-76502786D01*
X202360937Y-76336221D01*
X202083951Y-76221490D01*
X201789904Y-76163000D01*
X201490096Y-76163000D01*
X201196049Y-76221490D01*
X200919063Y-76336221D01*
X200669782Y-76502786D01*
X200457786Y-76714782D01*
X200291221Y-76964063D01*
X200176490Y-77241049D01*
X200118000Y-77535096D01*
X181914320Y-77535096D01*
X181225323Y-76846100D01*
X181211159Y-76828841D01*
X181142333Y-76772357D01*
X181063810Y-76730386D01*
X180978607Y-76704540D01*
X180912205Y-76698000D01*
X180890000Y-76695813D01*
X180867795Y-76698000D01*
X164222339Y-76698000D01*
X164214698Y-76686564D01*
X164113436Y-76585302D01*
X163994364Y-76505741D01*
X163862058Y-76450938D01*
X163721603Y-76423000D01*
X163578397Y-76423000D01*
X163437942Y-76450938D01*
X163305636Y-76505741D01*
X163186564Y-76585302D01*
X163085302Y-76686564D01*
X163005741Y-76805636D01*
X162950938Y-76937942D01*
X162923000Y-77078397D01*
X162923000Y-77221603D01*
X162950938Y-77362058D01*
X163005741Y-77494364D01*
X163085302Y-77613436D01*
X163119866Y-77648000D01*
X154572205Y-77648000D01*
X154550000Y-77645813D01*
X154461392Y-77654540D01*
X154389152Y-77676454D01*
X154376190Y-77680386D01*
X154297667Y-77722357D01*
X154228841Y-77778841D01*
X154214681Y-77796095D01*
X148896094Y-83114683D01*
X148896088Y-83114688D01*
X148885093Y-83125683D01*
X148871603Y-83123000D01*
X148728397Y-83123000D01*
X148587942Y-83150938D01*
X148455636Y-83205741D01*
X148336564Y-83285302D01*
X148235302Y-83386564D01*
X148155741Y-83505636D01*
X148100938Y-83637942D01*
X148073000Y-83778397D01*
X130686723Y-83778397D01*
X130688072Y-82510000D01*
X130675812Y-82385518D01*
X130639502Y-82265820D01*
X130580537Y-82155506D01*
X130501185Y-82058815D01*
X130404494Y-81979463D01*
X130294180Y-81920498D01*
X130174482Y-81884188D01*
X130050000Y-81871928D01*
X126665750Y-81875000D01*
X126507000Y-82033750D01*
X126253000Y-82033750D01*
X126094250Y-81875000D01*
X122710000Y-81871928D01*
X122585518Y-81884188D01*
X122465820Y-81920498D01*
X122355506Y-81979463D01*
X122258815Y-82058815D01*
X122179463Y-82155506D01*
X122120498Y-82265820D01*
X122084188Y-82385518D01*
X122071928Y-82510000D01*
X120962000Y-82510000D01*
X120962000Y-77692439D01*
X120981338Y-77495207D01*
X122383000Y-77495207D01*
X122383000Y-77874793D01*
X122457053Y-78247085D01*
X122602315Y-78597777D01*
X122813201Y-78913391D01*
X123081609Y-79181799D01*
X123397223Y-79392685D01*
X123747915Y-79537947D01*
X124120207Y-79612000D01*
X124499793Y-79612000D01*
X124872085Y-79537947D01*
X125222777Y-79392685D01*
X125538391Y-79181799D01*
X125806799Y-78913391D01*
X126017685Y-78597777D01*
X126162947Y-78247085D01*
X126237000Y-77874793D01*
X126237000Y-77495207D01*
X126234552Y-77482896D01*
X136058000Y-77482896D01*
X136058000Y-77887104D01*
X136136857Y-78283546D01*
X136291541Y-78656987D01*
X136516107Y-78993074D01*
X136801926Y-79278893D01*
X137138013Y-79503459D01*
X137511454Y-79658143D01*
X137907896Y-79737000D01*
X138312104Y-79737000D01*
X138708546Y-79658143D01*
X139081987Y-79503459D01*
X139418074Y-79278893D01*
X139703893Y-78993074D01*
X139928459Y-78656987D01*
X139980481Y-78531396D01*
X140035302Y-78613442D01*
X140136564Y-78714704D01*
X140255636Y-78794265D01*
X140387942Y-78849068D01*
X140528397Y-78877006D01*
X140671603Y-78877006D01*
X140812058Y-78849068D01*
X140944364Y-78794265D01*
X141063436Y-78714704D01*
X141164698Y-78613442D01*
X141244259Y-78494370D01*
X141299062Y-78362064D01*
X141327000Y-78221609D01*
X141327000Y-78078403D01*
X141299062Y-77937948D01*
X141244259Y-77805642D01*
X141164698Y-77686570D01*
X141063436Y-77585308D01*
X141052000Y-77577667D01*
X141052000Y-76122339D01*
X141063436Y-76114698D01*
X141164698Y-76013436D01*
X141244259Y-75894364D01*
X141244628Y-75893472D01*
X155623000Y-75893472D01*
X155623000Y-76046528D01*
X155652859Y-76196643D01*
X155711431Y-76338048D01*
X155796464Y-76465309D01*
X155904691Y-76573536D01*
X156031952Y-76658569D01*
X156173357Y-76717141D01*
X156323472Y-76747000D01*
X156476528Y-76747000D01*
X156626643Y-76717141D01*
X156768048Y-76658569D01*
X156895309Y-76573536D01*
X157003536Y-76465309D01*
X157088569Y-76338048D01*
X157147141Y-76196643D01*
X157177000Y-76046528D01*
X157177000Y-75893472D01*
X158623000Y-75893472D01*
X158623000Y-76046528D01*
X158652859Y-76196643D01*
X158711431Y-76338048D01*
X158796464Y-76465309D01*
X158904691Y-76573536D01*
X159031952Y-76658569D01*
X159173357Y-76717141D01*
X159323472Y-76747000D01*
X159476528Y-76747000D01*
X159626643Y-76717141D01*
X159768048Y-76658569D01*
X159895309Y-76573536D01*
X160003536Y-76465309D01*
X160088569Y-76338048D01*
X160147141Y-76196643D01*
X160177000Y-76046528D01*
X160177000Y-75893472D01*
X160147141Y-75743357D01*
X160088569Y-75601952D01*
X160003536Y-75474691D01*
X159895309Y-75366464D01*
X159768048Y-75281431D01*
X159626643Y-75222859D01*
X159476528Y-75193000D01*
X159323472Y-75193000D01*
X159173357Y-75222859D01*
X159031952Y-75281431D01*
X158904691Y-75366464D01*
X158796464Y-75474691D01*
X158711431Y-75601952D01*
X158652859Y-75743357D01*
X158623000Y-75893472D01*
X157177000Y-75893472D01*
X157147141Y-75743357D01*
X157088569Y-75601952D01*
X157003536Y-75474691D01*
X156895309Y-75366464D01*
X156768048Y-75281431D01*
X156626643Y-75222859D01*
X156476528Y-75193000D01*
X156323472Y-75193000D01*
X156173357Y-75222859D01*
X156031952Y-75281431D01*
X155904691Y-75366464D01*
X155796464Y-75474691D01*
X155711431Y-75601952D01*
X155652859Y-75743357D01*
X155623000Y-75893472D01*
X141244628Y-75893472D01*
X141299062Y-75762058D01*
X141327000Y-75621603D01*
X141327000Y-75478397D01*
X141299062Y-75337942D01*
X141244259Y-75205636D01*
X141164698Y-75086564D01*
X141063436Y-74985302D01*
X140944364Y-74905741D01*
X140812058Y-74850938D01*
X140671603Y-74823000D01*
X140528397Y-74823000D01*
X140387942Y-74850938D01*
X140255636Y-74905741D01*
X140136564Y-74985302D01*
X140035302Y-75086564D01*
X139955741Y-75205636D01*
X139900938Y-75337942D01*
X139873000Y-75478397D01*
X139873000Y-75621603D01*
X139900938Y-75762058D01*
X139955741Y-75894364D01*
X140035302Y-76013436D01*
X140136564Y-76114698D01*
X140148000Y-76122339D01*
X140148001Y-77412517D01*
X140083143Y-77086454D01*
X139928459Y-76713013D01*
X139703893Y-76376926D01*
X139418074Y-76091107D01*
X139081987Y-75866541D01*
X138708546Y-75711857D01*
X138312104Y-75633000D01*
X137907896Y-75633000D01*
X137511454Y-75711857D01*
X137138013Y-75866541D01*
X136801926Y-76091107D01*
X136516107Y-76376926D01*
X136291541Y-76713013D01*
X136136857Y-77086454D01*
X136058000Y-77482896D01*
X126234552Y-77482896D01*
X126162947Y-77122915D01*
X126017685Y-76772223D01*
X125806799Y-76456609D01*
X125538391Y-76188201D01*
X125222777Y-75977315D01*
X124872085Y-75832053D01*
X124499793Y-75758000D01*
X124120207Y-75758000D01*
X123747915Y-75832053D01*
X123397223Y-75977315D01*
X123081609Y-76188201D01*
X122813201Y-76456609D01*
X122602315Y-76772223D01*
X122457053Y-77122915D01*
X122383000Y-77495207D01*
X120981338Y-77495207D01*
X121026478Y-77034845D01*
X121215293Y-76409457D01*
X121521987Y-75832649D01*
X121934875Y-75326397D01*
X122438227Y-74909988D01*
X123012879Y-74599274D01*
X123636937Y-74406096D01*
X124293793Y-74337057D01*
X124310242Y-74337000D01*
X207302561Y-74337000D01*
X207960155Y-74401478D01*
G37*
X207960155Y-74401478D02*
X208585543Y-74590293D01*
X209162351Y-74896987D01*
X209668603Y-75309875D01*
X210085012Y-75813227D01*
X210395726Y-76387879D01*
X210588904Y-77011937D01*
X210657943Y-77668793D01*
X210658001Y-77685529D01*
X210658000Y-93677561D01*
X210593522Y-94335155D01*
X210404704Y-94960549D01*
X210098013Y-95537351D01*
X209685125Y-96043603D01*
X209181771Y-96460013D01*
X208607117Y-96770727D01*
X207983062Y-96963904D01*
X207326207Y-97032943D01*
X207309758Y-97033000D01*
X124317439Y-97033000D01*
X123659845Y-96968522D01*
X123034451Y-96779704D01*
X122457649Y-96473013D01*
X121951397Y-96060125D01*
X121534987Y-95556771D01*
X121224273Y-94982117D01*
X121031096Y-94358062D01*
X120962057Y-93701207D01*
X120962000Y-93684758D01*
X120962000Y-93495207D01*
X122383000Y-93495207D01*
X122383000Y-93874793D01*
X122457053Y-94247085D01*
X122602315Y-94597777D01*
X122813201Y-94913391D01*
X123081609Y-95181799D01*
X123397223Y-95392685D01*
X123747915Y-95537947D01*
X124120207Y-95612000D01*
X124499793Y-95612000D01*
X124872085Y-95537947D01*
X125222777Y-95392685D01*
X125538391Y-95181799D01*
X125806799Y-94913391D01*
X126017685Y-94597777D01*
X126162947Y-94247085D01*
X126237000Y-93874793D01*
X126237000Y-93495207D01*
X126234552Y-93482896D01*
X191258000Y-93482896D01*
X191258000Y-93887104D01*
X191336857Y-94283546D01*
X191491541Y-94656987D01*
X191716107Y-94993074D01*
X192001926Y-95278893D01*
X192338013Y-95503459D01*
X192711454Y-95658143D01*
X193107896Y-95737000D01*
X193512104Y-95737000D01*
X193908546Y-95658143D01*
X194281987Y-95503459D01*
X194598514Y-95291962D01*
X195193000Y-95291962D01*
X195193000Y-96083037D01*
X195206413Y-96219223D01*
X195259420Y-96393963D01*
X195345499Y-96555004D01*
X195461341Y-96696159D01*
X195602495Y-96812001D01*
X195763536Y-96898080D01*
X195938276Y-96951087D01*
X196120000Y-96968985D01*
X196301723Y-96951087D01*
X196476463Y-96898080D01*
X196637504Y-96812001D01*
X196778659Y-96696159D01*
X196894501Y-96555005D01*
X196980580Y-96393964D01*
X197033587Y-96219224D01*
X197047000Y-96083038D01*
X197047000Y-95291963D01*
X202193000Y-95291963D01*
X202193000Y-96083038D01*
X202206413Y-96219224D01*
X202259421Y-96393964D01*
X202345500Y-96555005D01*
X202461342Y-96696159D01*
X202602496Y-96812001D01*
X202763537Y-96898080D01*
X202938277Y-96951087D01*
X203120000Y-96968985D01*
X203301724Y-96951087D01*
X203476464Y-96898080D01*
X203637505Y-96812001D01*
X203778659Y-96696159D01*
X203894501Y-96555005D01*
X203980580Y-96393964D01*
X204033587Y-96219224D01*
X204047000Y-96083038D01*
X204047000Y-95291962D01*
X204033587Y-95155776D01*
X203980580Y-94981036D01*
X203894501Y-94819995D01*
X203778659Y-94678841D01*
X203637504Y-94562999D01*
X203476463Y-94476920D01*
X203301723Y-94423913D01*
X203120000Y-94406015D01*
X202938276Y-94423913D01*
X202763536Y-94476920D01*
X202602495Y-94562999D01*
X202461341Y-94678841D01*
X202345499Y-94819996D01*
X202259420Y-94981037D01*
X202206413Y-95155777D01*
X202193000Y-95291963D01*
X197047000Y-95291963D01*
X197047000Y-95291962D01*
X197033587Y-95155776D01*
X196980580Y-94981036D01*
X196894501Y-94819995D01*
X196778659Y-94678841D01*
X196637505Y-94562999D01*
X196476464Y-94476920D01*
X196301724Y-94423913D01*
X196120000Y-94406015D01*
X195938277Y-94423913D01*
X195763537Y-94476920D01*
X195602496Y-94562999D01*
X195461342Y-94678841D01*
X195345500Y-94819995D01*
X195259421Y-94981036D01*
X195206413Y-95155776D01*
X195193000Y-95291962D01*
X194598514Y-95291962D01*
X194618074Y-95278893D01*
X194903893Y-94993074D01*
X195128459Y-94656987D01*
X195283143Y-94283546D01*
X195362000Y-93887104D01*
X195362000Y-93482896D01*
X195283143Y-93086454D01*
X195199238Y-92883887D01*
X196068000Y-92883887D01*
X196068000Y-93091113D01*
X196108428Y-93294357D01*
X196187730Y-93485809D01*
X196302858Y-93658111D01*
X196449389Y-93804642D01*
X196621691Y-93919770D01*
X196813143Y-93999072D01*
X197016387Y-94039500D01*
X197223613Y-94039500D01*
X197426857Y-93999072D01*
X197618309Y-93919770D01*
X197790611Y-93804642D01*
X197937142Y-93658111D01*
X198052270Y-93485809D01*
X198131572Y-93294357D01*
X198172000Y-93091113D01*
X198172000Y-92883887D01*
X201068000Y-92883887D01*
X201068000Y-93091113D01*
X201108428Y-93294357D01*
X201187730Y-93485809D01*
X201302858Y-93658111D01*
X201449389Y-93804642D01*
X201621691Y-93919770D01*
X201813143Y-93999072D01*
X202016387Y-94039500D01*
X202223613Y-94039500D01*
X202426857Y-93999072D01*
X202618309Y-93919770D01*
X202790611Y-93804642D01*
X202937142Y-93658111D01*
X203045990Y-93495207D01*
X205383000Y-93495207D01*
X205383000Y-93874793D01*
X205457053Y-94247085D01*
X205602315Y-94597777D01*
X205813201Y-94913391D01*
X206081609Y-95181799D01*
X206397223Y-95392685D01*
X206747915Y-95537947D01*
X207120207Y-95612000D01*
X207499793Y-95612000D01*
X207872085Y-95537947D01*
X208222777Y-95392685D01*
X208538391Y-95181799D01*
X208806799Y-94913391D01*
X209017685Y-94597777D01*
X209162947Y-94247085D01*
X209237000Y-93874793D01*
X209237000Y-93495207D01*
X209162947Y-93122915D01*
X209017685Y-92772223D01*
X208806799Y-92456609D01*
X208538391Y-92188201D01*
X208222777Y-91977315D01*
X207872085Y-91832053D01*
X207499793Y-91758000D01*
X207120207Y-91758000D01*
X206747915Y-91832053D01*
X206397223Y-91977315D01*
X206081609Y-92188201D01*
X205813201Y-92456609D01*
X205602315Y-92772223D01*
X205457053Y-93122915D01*
X205383000Y-93495207D01*
X203045990Y-93495207D01*
X203052270Y-93485809D01*
X203131572Y-93294357D01*
X203172000Y-93091113D01*
X203172000Y-92883887D01*
X203131572Y-92680643D01*
X203052270Y-92489191D01*
X202937142Y-92316889D01*
X202790611Y-92170358D01*
X202618309Y-92055230D01*
X202426857Y-91975928D01*
X202223613Y-91935500D01*
X202016387Y-91935500D01*
X201813143Y-91975928D01*
X201621691Y-92055230D01*
X201449389Y-92170358D01*
X201302858Y-92316889D01*
X201187730Y-92489191D01*
X201108428Y-92680643D01*
X201068000Y-92883887D01*
X198172000Y-92883887D01*
X198131572Y-92680643D01*
X198052270Y-92489191D01*
X197937142Y-92316889D01*
X197790611Y-92170358D01*
X197618309Y-92055230D01*
X197426857Y-91975928D01*
X197223613Y-91935500D01*
X197016387Y-91935500D01*
X196813143Y-91975928D01*
X196621691Y-92055230D01*
X196449389Y-92170358D01*
X196302858Y-92316889D01*
X196187730Y-92489191D01*
X196108428Y-92680643D01*
X196068000Y-92883887D01*
X195199238Y-92883887D01*
X195128459Y-92713013D01*
X194903893Y-92376926D01*
X194618074Y-92091107D01*
X194281987Y-91866541D01*
X193908546Y-91711857D01*
X193512104Y-91633000D01*
X193107896Y-91633000D01*
X192711454Y-91711857D01*
X192338013Y-91866541D01*
X192001926Y-92091107D01*
X191716107Y-92376926D01*
X191491541Y-92713013D01*
X191336857Y-93086454D01*
X191258000Y-93482896D01*
X126234552Y-93482896D01*
X126162947Y-93122915D01*
X126017685Y-92772223D01*
X125806799Y-92456609D01*
X125538391Y-92188201D01*
X125222777Y-91977315D01*
X124872085Y-91832053D01*
X124499793Y-91758000D01*
X124120207Y-91758000D01*
X123747915Y-91832053D01*
X123397223Y-91977315D01*
X123081609Y-92188201D01*
X122813201Y-92456609D01*
X122602315Y-92772223D01*
X122457053Y-93122915D01*
X122383000Y-93495207D01*
X120962000Y-93495207D01*
X120962000Y-88860000D01*
X122071928Y-88860000D01*
X122084188Y-88984482D01*
X122120498Y-89104180D01*
X122179463Y-89214494D01*
X122258815Y-89311185D01*
X122355506Y-89390537D01*
X122465820Y-89449502D01*
X122585518Y-89485812D01*
X122710000Y-89498072D01*
X126094250Y-89495000D01*
X126253000Y-89336250D01*
X126253000Y-85812000D01*
X126507000Y-85812000D01*
X126507000Y-89336250D01*
X126665750Y-89495000D01*
X130050000Y-89498072D01*
X130174482Y-89485812D01*
X130294180Y-89449502D01*
X130404494Y-89390537D01*
X130501185Y-89311185D01*
X130580537Y-89214494D01*
X130639502Y-89104180D01*
X130675812Y-88984482D01*
X130688072Y-88860000D01*
X130687188Y-88028405D01*
X192148000Y-88028405D01*
X192148000Y-88171611D01*
X192175938Y-88312066D01*
X192230741Y-88444372D01*
X192310302Y-88563444D01*
X192411564Y-88664706D01*
X192530636Y-88744267D01*
X192575001Y-88762644D01*
X192531284Y-88780752D01*
X192412212Y-88860313D01*
X192310950Y-88961575D01*
X192231389Y-89080647D01*
X192176586Y-89212953D01*
X192148648Y-89353408D01*
X192148648Y-89496614D01*
X192176586Y-89637069D01*
X192231389Y-89769375D01*
X192310950Y-89888447D01*
X192412212Y-89989709D01*
X192531284Y-90069270D01*
X192663590Y-90124073D01*
X192804045Y-90152011D01*
X192947251Y-90152011D01*
X193087706Y-90124073D01*
X193220012Y-90069270D01*
X193339084Y-89989709D01*
X193440346Y-89888447D01*
X193447987Y-89877011D01*
X198247784Y-89877011D01*
X198269989Y-89879198D01*
X198292194Y-89877011D01*
X198358596Y-89870471D01*
X198443799Y-89844625D01*
X198522322Y-89802654D01*
X198591148Y-89746170D01*
X198605312Y-89728911D01*
X199524907Y-88809317D01*
X199538397Y-88812000D01*
X199681603Y-88812000D01*
X199822058Y-88784062D01*
X199954364Y-88729259D01*
X200073436Y-88649698D01*
X200174698Y-88548436D01*
X200254259Y-88429364D01*
X200309062Y-88297058D01*
X200337000Y-88156603D01*
X200337000Y-88013397D01*
X200309062Y-87872942D01*
X200254259Y-87740636D01*
X200174698Y-87621564D01*
X200073436Y-87520302D01*
X199954364Y-87440741D01*
X199822058Y-87385938D01*
X199681603Y-87358000D01*
X199538397Y-87358000D01*
X199397942Y-87385938D01*
X199265636Y-87440741D01*
X199146564Y-87520302D01*
X199060000Y-87606866D01*
X198973436Y-87520302D01*
X198854364Y-87440741D01*
X198722058Y-87385938D01*
X198581603Y-87358000D01*
X198438397Y-87358000D01*
X198297942Y-87385938D01*
X198165636Y-87440741D01*
X198046564Y-87520302D01*
X197945302Y-87621564D01*
X197865741Y-87740636D01*
X197810938Y-87872942D01*
X197783000Y-88013397D01*
X197783000Y-88156603D01*
X197785683Y-88170093D01*
X197507777Y-88448000D01*
X193862216Y-88448000D01*
X193599317Y-88185101D01*
X193602000Y-88171611D01*
X193602000Y-88028405D01*
X193574062Y-87887950D01*
X193519259Y-87755644D01*
X193439698Y-87636572D01*
X193338436Y-87535310D01*
X193219364Y-87455749D01*
X193087058Y-87400946D01*
X192946603Y-87373008D01*
X192803397Y-87373008D01*
X192662942Y-87400946D01*
X192530636Y-87455749D01*
X192411564Y-87535310D01*
X192310302Y-87636572D01*
X192230741Y-87755644D01*
X192175938Y-87887950D01*
X192148000Y-88028405D01*
X130687188Y-88028405D01*
X130685000Y-85970750D01*
X130526250Y-85812000D01*
X126507000Y-85812000D01*
X126253000Y-85812000D01*
X122233750Y-85812000D01*
X122075000Y-85970750D01*
X122071928Y-88860000D01*
X120962000Y-88860000D01*
X120962000Y-82510000D01*
X122071928Y-82510000D01*
X122075000Y-85399250D01*
X122233750Y-85558000D01*
X126253000Y-85558000D01*
X126253000Y-82033750D01*
X126507000Y-82033750D01*
X126507000Y-85558000D01*
X130526250Y-85558000D01*
X130685000Y-85399250D01*
X130685155Y-85253397D01*
X150098000Y-85253397D01*
X150098000Y-85396603D01*
X150125938Y-85537058D01*
X150180741Y-85669364D01*
X150260302Y-85788436D01*
X150361564Y-85889698D01*
X150480636Y-85969259D01*
X150612942Y-86024062D01*
X150753397Y-86052000D01*
X150896603Y-86052000D01*
X151037058Y-86024062D01*
X151169364Y-85969259D01*
X151288436Y-85889698D01*
X151389698Y-85788436D01*
X151414044Y-85752000D01*
X154277661Y-85752000D01*
X154285302Y-85763436D01*
X154386564Y-85864698D01*
X154505636Y-85944259D01*
X154637942Y-85999062D01*
X154778397Y-86027000D01*
X154921603Y-86027000D01*
X155062058Y-85999062D01*
X155194364Y-85944259D01*
X155313436Y-85864698D01*
X155414698Y-85763436D01*
X155494259Y-85644364D01*
X155549062Y-85512058D01*
X155577000Y-85371603D01*
X155577000Y-85228397D01*
X155549062Y-85087942D01*
X155494259Y-84955636D01*
X155414698Y-84836564D01*
X155313436Y-84735302D01*
X155194364Y-84655741D01*
X155062058Y-84600938D01*
X154921603Y-84573000D01*
X154778397Y-84573000D01*
X154637942Y-84600938D01*
X154505636Y-84655741D01*
X154386564Y-84735302D01*
X154285302Y-84836564D01*
X154277661Y-84848000D01*
X151376134Y-84848000D01*
X151288436Y-84760302D01*
X151169364Y-84680741D01*
X151037058Y-84625938D01*
X150896603Y-84598000D01*
X150753397Y-84598000D01*
X150612942Y-84625938D01*
X150480636Y-84680741D01*
X150361564Y-84760302D01*
X150260302Y-84861564D01*
X150180741Y-84980636D01*
X150125938Y-85112942D01*
X150098000Y-85253397D01*
X130685155Y-85253397D01*
X130686723Y-83778397D01*
X148073000Y-83778397D01*
X148073000Y-83921603D01*
X148100938Y-84062058D01*
X148155741Y-84194364D01*
X148235302Y-84313436D01*
X148336564Y-84414698D01*
X148455636Y-84494259D01*
X148587942Y-84549062D01*
X148728397Y-84577000D01*
X148871603Y-84577000D01*
X149012058Y-84549062D01*
X149144364Y-84494259D01*
X149263436Y-84414698D01*
X149364698Y-84313436D01*
X149444259Y-84194364D01*
X149499062Y-84062058D01*
X149527000Y-83921603D01*
X149527000Y-83778397D01*
X149524317Y-83764907D01*
X149535312Y-83753912D01*
X149535317Y-83753906D01*
X150260826Y-83028397D01*
X169973000Y-83028397D01*
X169973000Y-83171603D01*
X170000938Y-83312058D01*
X170055741Y-83444364D01*
X170135302Y-83563436D01*
X170236564Y-83664698D01*
X170355636Y-83744259D01*
X170487942Y-83799062D01*
X170628397Y-83827000D01*
X170771603Y-83827000D01*
X170912058Y-83799062D01*
X171044364Y-83744259D01*
X171163436Y-83664698D01*
X171264698Y-83563436D01*
X171272339Y-83552000D01*
X176408776Y-83552000D01*
X176235093Y-83725683D01*
X176221603Y-83723000D01*
X176078397Y-83723000D01*
X175937942Y-83750938D01*
X175805636Y-83805741D01*
X175686564Y-83885302D01*
X175585302Y-83986564D01*
X175505741Y-84105636D01*
X175450938Y-84237942D01*
X175423000Y-84378397D01*
X175423000Y-84521603D01*
X175450938Y-84662058D01*
X175505741Y-84794364D01*
X175585302Y-84913436D01*
X175686564Y-85014698D01*
X175805636Y-85094259D01*
X175937942Y-85149062D01*
X176078397Y-85177000D01*
X176221603Y-85177000D01*
X176362058Y-85149062D01*
X176494364Y-85094259D01*
X176613436Y-85014698D01*
X176714698Y-84913436D01*
X176794259Y-84794364D01*
X176849062Y-84662058D01*
X176877000Y-84521603D01*
X176877000Y-84378397D01*
X176874317Y-84364907D01*
X176987224Y-84252000D01*
X187627795Y-84252000D01*
X187650000Y-84254187D01*
X187672205Y-84252000D01*
X187738607Y-84245460D01*
X187823810Y-84219614D01*
X187902333Y-84177643D01*
X187971159Y-84121159D01*
X187985323Y-84103900D01*
X189104223Y-82985000D01*
X196379000Y-82985000D01*
X196383000Y-83025614D01*
X196383000Y-83344386D01*
X196379000Y-83385000D01*
X196383000Y-83425614D01*
X196383000Y-83425623D01*
X196394966Y-83547119D01*
X196442255Y-83703009D01*
X196456342Y-83729364D01*
X196519048Y-83846679D01*
X196553458Y-83888607D01*
X196622394Y-83972606D01*
X196653952Y-83998505D01*
X196883001Y-84227554D01*
X196883000Y-85644376D01*
X196878999Y-85685000D01*
X196894966Y-85847120D01*
X196942255Y-86003010D01*
X197019048Y-86146679D01*
X197122394Y-86272606D01*
X197248321Y-86375952D01*
X197391990Y-86452745D01*
X197547880Y-86500034D01*
X197710000Y-86516001D01*
X197750624Y-86512000D01*
X201041418Y-86512000D01*
X201041418Y-88860000D01*
X201047732Y-88924103D01*
X201066430Y-88985743D01*
X201096794Y-89042550D01*
X201137657Y-89092343D01*
X201187450Y-89133206D01*
X201244257Y-89163570D01*
X201305897Y-89182268D01*
X201370000Y-89188582D01*
X208710000Y-89188582D01*
X208774103Y-89182268D01*
X208835743Y-89163570D01*
X208892550Y-89133206D01*
X208942343Y-89092343D01*
X208983206Y-89042550D01*
X209013570Y-88985743D01*
X209032268Y-88924103D01*
X209038582Y-88860000D01*
X209038582Y-82510000D01*
X209032268Y-82445897D01*
X209013570Y-82384257D01*
X208983206Y-82327450D01*
X208942343Y-82277657D01*
X208892550Y-82236794D01*
X208835743Y-82206430D01*
X208774103Y-82187732D01*
X208710000Y-82181418D01*
X201370000Y-82181418D01*
X201305897Y-82187732D01*
X201244257Y-82206430D01*
X201187450Y-82236794D01*
X201137657Y-82277657D01*
X201096794Y-82327450D01*
X201066430Y-82384257D01*
X201062000Y-82398861D01*
X201062000Y-80965658D01*
X201063436Y-80964698D01*
X201164698Y-80863436D01*
X201244259Y-80744364D01*
X201299062Y-80612058D01*
X201327000Y-80471603D01*
X201327000Y-80328397D01*
X201299062Y-80187942D01*
X201244259Y-80055636D01*
X201164698Y-79936564D01*
X201063436Y-79835302D01*
X200944364Y-79755741D01*
X200812058Y-79700938D01*
X200671603Y-79673000D01*
X200528397Y-79673000D01*
X200387942Y-79700938D01*
X200255636Y-79755741D01*
X200136564Y-79835302D01*
X200100000Y-79871866D01*
X200063436Y-79835302D01*
X199944364Y-79755741D01*
X199812058Y-79700938D01*
X199671603Y-79673000D01*
X199528397Y-79673000D01*
X199387942Y-79700938D01*
X199255636Y-79755741D01*
X199136564Y-79835302D01*
X199035302Y-79936564D01*
X198955741Y-80055636D01*
X198900938Y-80187942D01*
X198873000Y-80328397D01*
X198873000Y-80471603D01*
X198900938Y-80612058D01*
X198955741Y-80744364D01*
X199035302Y-80863436D01*
X199136564Y-80964698D01*
X199148001Y-80972340D01*
X199148000Y-82787110D01*
X199145813Y-82809315D01*
X199146875Y-82820094D01*
X199146564Y-82820302D01*
X199045302Y-82921564D01*
X199036108Y-82935323D01*
X199025034Y-82822880D01*
X198977745Y-82666990D01*
X198925885Y-82569967D01*
X198900952Y-82523320D01*
X198845490Y-82455741D01*
X198797606Y-82397394D01*
X198766048Y-82371495D01*
X198323507Y-81928954D01*
X198297606Y-81897394D01*
X198171680Y-81794048D01*
X198028010Y-81717256D01*
X197872120Y-81669967D01*
X197710000Y-81654000D01*
X197547879Y-81669967D01*
X197391989Y-81717256D01*
X197248320Y-81794048D01*
X197196515Y-81836564D01*
X197122394Y-81897394D01*
X197096495Y-81928952D01*
X196653948Y-82371499D01*
X196622395Y-82397394D01*
X196596499Y-82428948D01*
X196596498Y-82428949D01*
X196586056Y-82441672D01*
X196519048Y-82523321D01*
X196442255Y-82666990D01*
X196394966Y-82822880D01*
X196383000Y-82944376D01*
X196383000Y-82944386D01*
X196379000Y-82985000D01*
X189104223Y-82985000D01*
X191664907Y-80424317D01*
X191678397Y-80427000D01*
X191821603Y-80427000D01*
X191962058Y-80399062D01*
X192094364Y-80344259D01*
X192213436Y-80264698D01*
X192314698Y-80163436D01*
X192394259Y-80044364D01*
X192449062Y-79912058D01*
X192477000Y-79771603D01*
X192477000Y-79628397D01*
X192449062Y-79487942D01*
X192394259Y-79355636D01*
X192314698Y-79236564D01*
X192213436Y-79135302D01*
X192094364Y-79055741D01*
X191962058Y-79000938D01*
X191821603Y-78973000D01*
X191806839Y-78973000D01*
X191827008Y-78871603D01*
X191827008Y-78728397D01*
X191799070Y-78587942D01*
X191744267Y-78455636D01*
X191664706Y-78336564D01*
X191563444Y-78235302D01*
X191444372Y-78155741D01*
X191312066Y-78100938D01*
X191171611Y-78073000D01*
X191028405Y-78073000D01*
X190887950Y-78100938D01*
X190755644Y-78155741D01*
X190636572Y-78235302D01*
X190535310Y-78336564D01*
X190500000Y-78389409D01*
X190464698Y-78336576D01*
X190363436Y-78235314D01*
X190244364Y-78155753D01*
X190112058Y-78100950D01*
X189971603Y-78073012D01*
X189828397Y-78073012D01*
X189687942Y-78100950D01*
X189555636Y-78155753D01*
X189436564Y-78235314D01*
X189335302Y-78336576D01*
X189255741Y-78455648D01*
X189200938Y-78587954D01*
X189173000Y-78728409D01*
X189173000Y-78871615D01*
X189175683Y-78885104D01*
X187052000Y-81008788D01*
X187052000Y-80878397D01*
X187024062Y-80737942D01*
X186969259Y-80605636D01*
X186889698Y-80486564D01*
X186788436Y-80385302D01*
X186669364Y-80305741D01*
X186537058Y-80250938D01*
X186396603Y-80223000D01*
X186253397Y-80223000D01*
X186112942Y-80250938D01*
X185980636Y-80305741D01*
X185861564Y-80385302D01*
X185760302Y-80486564D01*
X185680741Y-80605636D01*
X185625938Y-80737942D01*
X185598000Y-80878397D01*
X185598000Y-81021603D01*
X185600683Y-81035093D01*
X185537777Y-81098000D01*
X180147339Y-81098000D01*
X180139698Y-81086564D01*
X180038436Y-80985302D01*
X179919364Y-80905741D01*
X179787058Y-80850938D01*
X179646603Y-80823000D01*
X179503397Y-80823000D01*
X179362942Y-80850938D01*
X179230636Y-80905741D01*
X179111564Y-80985302D01*
X179010302Y-81086564D01*
X178930741Y-81205636D01*
X178875938Y-81337942D01*
X178848000Y-81478397D01*
X178848000Y-81621603D01*
X178875938Y-81762058D01*
X178911536Y-81848000D01*
X171972339Y-81848000D01*
X171964698Y-81836564D01*
X171863436Y-81735302D01*
X171744364Y-81655741D01*
X171612058Y-81600938D01*
X171471603Y-81573000D01*
X171328397Y-81573000D01*
X171187942Y-81600938D01*
X171055636Y-81655741D01*
X170936564Y-81735302D01*
X170835302Y-81836564D01*
X170755741Y-81955636D01*
X170700938Y-82087942D01*
X170673000Y-82228397D01*
X170673000Y-82371603D01*
X170673278Y-82373000D01*
X170628397Y-82373000D01*
X170487942Y-82400938D01*
X170355636Y-82455741D01*
X170236564Y-82535302D01*
X170135302Y-82636564D01*
X170055741Y-82755636D01*
X170000938Y-82887942D01*
X169973000Y-83028397D01*
X150260826Y-83028397D01*
X154737224Y-78552000D01*
X165898858Y-78552000D01*
X165986556Y-78639698D01*
X166105628Y-78719259D01*
X166237934Y-78774062D01*
X166378389Y-78802000D01*
X166521595Y-78802000D01*
X166662050Y-78774062D01*
X166794356Y-78719259D01*
X166913428Y-78639698D01*
X167014690Y-78538436D01*
X167094251Y-78419364D01*
X167149054Y-78287058D01*
X167176992Y-78146603D01*
X167176992Y-78003397D01*
X167149054Y-77862942D01*
X167094251Y-77730636D01*
X167014690Y-77611564D01*
X167005126Y-77602000D01*
X180702777Y-77602000D01*
X182925683Y-79824908D01*
X182923000Y-79838397D01*
X182923000Y-79981603D01*
X182950938Y-80122058D01*
X183005741Y-80254364D01*
X183085302Y-80373436D01*
X183186564Y-80474698D01*
X183305636Y-80554259D01*
X183437942Y-80609062D01*
X183578397Y-80637000D01*
X183721603Y-80637000D01*
X183862058Y-80609062D01*
X183994364Y-80554259D01*
X184113436Y-80474698D01*
X184214698Y-80373436D01*
X184294259Y-80254364D01*
X184349062Y-80122058D01*
X184377000Y-79981603D01*
X184377000Y-79838397D01*
X184349062Y-79697942D01*
X184294259Y-79565636D01*
X184214698Y-79446564D01*
X184113436Y-79345302D01*
X183994364Y-79265741D01*
X183862058Y-79210938D01*
X183721603Y-79183000D01*
X183578397Y-79183000D01*
X183564908Y-79185683D01*
X181914320Y-77535096D01*
X200118000Y-77535096D01*
X200118000Y-77834904D01*
X200176490Y-78128951D01*
X200291221Y-78405937D01*
X200457786Y-78655218D01*
X200669782Y-78867214D01*
X200919063Y-79033779D01*
X201196049Y-79148510D01*
X201490096Y-79207000D01*
X201789904Y-79207000D01*
X202083951Y-79148510D01*
X202360937Y-79033779D01*
X202610218Y-78867214D01*
X202822214Y-78655218D01*
X202988779Y-78405937D01*
X203103510Y-78128951D01*
X203162000Y-77834904D01*
X203162000Y-77535096D01*
X203154066Y-77495207D01*
X205383000Y-77495207D01*
X205383000Y-77874793D01*
X205457053Y-78247085D01*
X205602315Y-78597777D01*
X205813201Y-78913391D01*
X206081609Y-79181799D01*
X206397223Y-79392685D01*
X206747915Y-79537947D01*
X207120207Y-79612000D01*
X207499793Y-79612000D01*
X207872085Y-79537947D01*
X208222777Y-79392685D01*
X208538391Y-79181799D01*
X208806799Y-78913391D01*
X209017685Y-78597777D01*
X209162947Y-78247085D01*
X209237000Y-77874793D01*
X209237000Y-77495207D01*
X209162947Y-77122915D01*
X209017685Y-76772223D01*
X208806799Y-76456609D01*
X208538391Y-76188201D01*
X208222777Y-75977315D01*
X207872085Y-75832053D01*
X207499793Y-75758000D01*
X207120207Y-75758000D01*
X206747915Y-75832053D01*
X206397223Y-75977315D01*
X206081609Y-76188201D01*
X205813201Y-76456609D01*
X205602315Y-76772223D01*
X205457053Y-77122915D01*
X205383000Y-77495207D01*
X203154066Y-77495207D01*
X203103510Y-77241049D01*
X202988779Y-76964063D01*
X202822214Y-76714782D01*
X202610218Y-76502786D01*
X202360937Y-76336221D01*
X202083951Y-76221490D01*
X201789904Y-76163000D01*
X201490096Y-76163000D01*
X201196049Y-76221490D01*
X200919063Y-76336221D01*
X200669782Y-76502786D01*
X200457786Y-76714782D01*
X200291221Y-76964063D01*
X200176490Y-77241049D01*
X200118000Y-77535096D01*
X181914320Y-77535096D01*
X181225323Y-76846100D01*
X181211159Y-76828841D01*
X181142333Y-76772357D01*
X181063810Y-76730386D01*
X180978607Y-76704540D01*
X180912205Y-76698000D01*
X180890000Y-76695813D01*
X180867795Y-76698000D01*
X164222339Y-76698000D01*
X164214698Y-76686564D01*
X164113436Y-76585302D01*
X163994364Y-76505741D01*
X163862058Y-76450938D01*
X163721603Y-76423000D01*
X163578397Y-76423000D01*
X163437942Y-76450938D01*
X163305636Y-76505741D01*
X163186564Y-76585302D01*
X163085302Y-76686564D01*
X163005741Y-76805636D01*
X162950938Y-76937942D01*
X162923000Y-77078397D01*
X162923000Y-77221603D01*
X162950938Y-77362058D01*
X163005741Y-77494364D01*
X163085302Y-77613436D01*
X163119866Y-77648000D01*
X154572205Y-77648000D01*
X154550000Y-77645813D01*
X154461392Y-77654540D01*
X154389152Y-77676454D01*
X154376190Y-77680386D01*
X154297667Y-77722357D01*
X154228841Y-77778841D01*
X154214681Y-77796095D01*
X148896094Y-83114683D01*
X148896088Y-83114688D01*
X148885093Y-83125683D01*
X148871603Y-83123000D01*
X148728397Y-83123000D01*
X148587942Y-83150938D01*
X148455636Y-83205741D01*
X148336564Y-83285302D01*
X148235302Y-83386564D01*
X148155741Y-83505636D01*
X148100938Y-83637942D01*
X148073000Y-83778397D01*
X130686723Y-83778397D01*
X130688072Y-82510000D01*
X130675812Y-82385518D01*
X130639502Y-82265820D01*
X130580537Y-82155506D01*
X130501185Y-82058815D01*
X130404494Y-81979463D01*
X130294180Y-81920498D01*
X130174482Y-81884188D01*
X130050000Y-81871928D01*
X126665750Y-81875000D01*
X126507000Y-82033750D01*
X126253000Y-82033750D01*
X126094250Y-81875000D01*
X122710000Y-81871928D01*
X122585518Y-81884188D01*
X122465820Y-81920498D01*
X122355506Y-81979463D01*
X122258815Y-82058815D01*
X122179463Y-82155506D01*
X122120498Y-82265820D01*
X122084188Y-82385518D01*
X122071928Y-82510000D01*
X120962000Y-82510000D01*
X120962000Y-77692439D01*
X120981338Y-77495207D01*
X122383000Y-77495207D01*
X122383000Y-77874793D01*
X122457053Y-78247085D01*
X122602315Y-78597777D01*
X122813201Y-78913391D01*
X123081609Y-79181799D01*
X123397223Y-79392685D01*
X123747915Y-79537947D01*
X124120207Y-79612000D01*
X124499793Y-79612000D01*
X124872085Y-79537947D01*
X125222777Y-79392685D01*
X125538391Y-79181799D01*
X125806799Y-78913391D01*
X126017685Y-78597777D01*
X126162947Y-78247085D01*
X126237000Y-77874793D01*
X126237000Y-77495207D01*
X126234552Y-77482896D01*
X136058000Y-77482896D01*
X136058000Y-77887104D01*
X136136857Y-78283546D01*
X136291541Y-78656987D01*
X136516107Y-78993074D01*
X136801926Y-79278893D01*
X137138013Y-79503459D01*
X137511454Y-79658143D01*
X137907896Y-79737000D01*
X138312104Y-79737000D01*
X138708546Y-79658143D01*
X139081987Y-79503459D01*
X139418074Y-79278893D01*
X139703893Y-78993074D01*
X139928459Y-78656987D01*
X139980481Y-78531396D01*
X140035302Y-78613442D01*
X140136564Y-78714704D01*
X140255636Y-78794265D01*
X140387942Y-78849068D01*
X140528397Y-78877006D01*
X140671603Y-78877006D01*
X140812058Y-78849068D01*
X140944364Y-78794265D01*
X141063436Y-78714704D01*
X141164698Y-78613442D01*
X141244259Y-78494370D01*
X141299062Y-78362064D01*
X141327000Y-78221609D01*
X141327000Y-78078403D01*
X141299062Y-77937948D01*
X141244259Y-77805642D01*
X141164698Y-77686570D01*
X141063436Y-77585308D01*
X141052000Y-77577667D01*
X141052000Y-76122339D01*
X141063436Y-76114698D01*
X141164698Y-76013436D01*
X141244259Y-75894364D01*
X141244628Y-75893472D01*
X155623000Y-75893472D01*
X155623000Y-76046528D01*
X155652859Y-76196643D01*
X155711431Y-76338048D01*
X155796464Y-76465309D01*
X155904691Y-76573536D01*
X156031952Y-76658569D01*
X156173357Y-76717141D01*
X156323472Y-76747000D01*
X156476528Y-76747000D01*
X156626643Y-76717141D01*
X156768048Y-76658569D01*
X156895309Y-76573536D01*
X157003536Y-76465309D01*
X157088569Y-76338048D01*
X157147141Y-76196643D01*
X157177000Y-76046528D01*
X157177000Y-75893472D01*
X158623000Y-75893472D01*
X158623000Y-76046528D01*
X158652859Y-76196643D01*
X158711431Y-76338048D01*
X158796464Y-76465309D01*
X158904691Y-76573536D01*
X159031952Y-76658569D01*
X159173357Y-76717141D01*
X159323472Y-76747000D01*
X159476528Y-76747000D01*
X159626643Y-76717141D01*
X159768048Y-76658569D01*
X159895309Y-76573536D01*
X160003536Y-76465309D01*
X160088569Y-76338048D01*
X160147141Y-76196643D01*
X160177000Y-76046528D01*
X160177000Y-75893472D01*
X160147141Y-75743357D01*
X160088569Y-75601952D01*
X160003536Y-75474691D01*
X159895309Y-75366464D01*
X159768048Y-75281431D01*
X159626643Y-75222859D01*
X159476528Y-75193000D01*
X159323472Y-75193000D01*
X159173357Y-75222859D01*
X159031952Y-75281431D01*
X158904691Y-75366464D01*
X158796464Y-75474691D01*
X158711431Y-75601952D01*
X158652859Y-75743357D01*
X158623000Y-75893472D01*
X157177000Y-75893472D01*
X157147141Y-75743357D01*
X157088569Y-75601952D01*
X157003536Y-75474691D01*
X156895309Y-75366464D01*
X156768048Y-75281431D01*
X156626643Y-75222859D01*
X156476528Y-75193000D01*
X156323472Y-75193000D01*
X156173357Y-75222859D01*
X156031952Y-75281431D01*
X155904691Y-75366464D01*
X155796464Y-75474691D01*
X155711431Y-75601952D01*
X155652859Y-75743357D01*
X155623000Y-75893472D01*
X141244628Y-75893472D01*
X141299062Y-75762058D01*
X141327000Y-75621603D01*
X141327000Y-75478397D01*
X141299062Y-75337942D01*
X141244259Y-75205636D01*
X141164698Y-75086564D01*
X141063436Y-74985302D01*
X140944364Y-74905741D01*
X140812058Y-74850938D01*
X140671603Y-74823000D01*
X140528397Y-74823000D01*
X140387942Y-74850938D01*
X140255636Y-74905741D01*
X140136564Y-74985302D01*
X140035302Y-75086564D01*
X139955741Y-75205636D01*
X139900938Y-75337942D01*
X139873000Y-75478397D01*
X139873000Y-75621603D01*
X139900938Y-75762058D01*
X139955741Y-75894364D01*
X140035302Y-76013436D01*
X140136564Y-76114698D01*
X140148000Y-76122339D01*
X140148001Y-77412517D01*
X140083143Y-77086454D01*
X139928459Y-76713013D01*
X139703893Y-76376926D01*
X139418074Y-76091107D01*
X139081987Y-75866541D01*
X138708546Y-75711857D01*
X138312104Y-75633000D01*
X137907896Y-75633000D01*
X137511454Y-75711857D01*
X137138013Y-75866541D01*
X136801926Y-76091107D01*
X136516107Y-76376926D01*
X136291541Y-76713013D01*
X136136857Y-77086454D01*
X136058000Y-77482896D01*
X126234552Y-77482896D01*
X126162947Y-77122915D01*
X126017685Y-76772223D01*
X125806799Y-76456609D01*
X125538391Y-76188201D01*
X125222777Y-75977315D01*
X124872085Y-75832053D01*
X124499793Y-75758000D01*
X124120207Y-75758000D01*
X123747915Y-75832053D01*
X123397223Y-75977315D01*
X123081609Y-76188201D01*
X122813201Y-76456609D01*
X122602315Y-76772223D01*
X122457053Y-77122915D01*
X122383000Y-77495207D01*
X120981338Y-77495207D01*
X121026478Y-77034845D01*
X121215293Y-76409457D01*
X121521987Y-75832649D01*
X121934875Y-75326397D01*
X122438227Y-74909988D01*
X123012879Y-74599274D01*
X123636937Y-74406096D01*
X124293793Y-74337057D01*
X124310242Y-74337000D01*
X207302561Y-74337000D01*
X207960155Y-74401478D01*
M02*
