M48
; DRILL file {KiCad (5.1.5)-3} date 11/08/2021 14:04:59
; FORMAT={-:-/ absolute / inch / decimal}
; #@! TF.CreationDate,2021-08-11T14:04:59+02:00
; #@! TF.GenerationSoftware,Kicad,Pcbnew,(5.1.5)-3
FMAT,2
INCH
T1C0.0157
T2C0.0236
T3C0.0335
T4C0.0354
T5C0.0941
T6C0.1260
T7C0.1358
%
G90
G05
T1
X5.4399Y-3.5821
X5.4961Y-3.3701
X5.5354Y-2.9744
X5.5354Y-3.0768
X5.627Y-3.0758
X5.7323Y-3.0758
X5.8583Y-3.3012
X5.938Y-3.3593
X5.938Y-3.7096
X5.9449Y-3.3012
X6.0157Y-2.9921
X6.0965Y-3.3583
X6.4429Y-3.0374
X6.5531Y-3.0738
X6.7008Y-3.0748
X6.7205Y-3.2717
X6.748Y-3.2402
X6.7894Y-3.748
X6.935Y-3.3248
X7.0699Y-3.2106
X7.189Y-3.3661
X7.189Y-3.4055
X7.189Y-3.4449
X7.2303Y-3.1461
X7.2953Y-3.0079
X7.2953Y-3.0472
X7.2953Y-3.0866
X7.3356Y-3.187
X7.4764Y-3.1024
X7.5236Y-3.1024
X7.5492Y-3.1378
X7.5906Y-3.4055
X7.5935Y-3.4685
X7.5935Y-3.5207
X7.7642Y-3.2829
X7.7839Y-3.2474
X7.8035Y-3.2829
X7.8154Y-3.4679
X7.8583Y-3.1654
X7.8587Y-3.2829
X7.8587Y-3.4679
X7.8976Y-3.1654
X7.898Y-3.2829
X7.9094Y-3.5866
X7.9606Y-3.5866
X8.0118Y-3.5866
T3
X7.7606Y-3.6609
X7.9575Y-3.6609
T4
X6.1575Y-2.9909
X6.2756Y-2.9909
T5
X7.9386Y-3.0585
T6
X4.8941Y-3.6884
X8.1618Y-3.6884
X8.1618Y-3.0585
X4.8941Y-3.0585
T7
X5.4374Y-3.0585
X7.6106Y-3.6884
T2
G00X7.7213Y-3.781
M15
G01X7.7213Y-3.7534
M16
G05
G00X7.9969Y-3.7534
M15
G01X7.9969Y-3.781
M16
G05
T0
M30
