G04 #@! TF.GenerationSoftware,KiCad,Pcbnew,(5.1.5)-3*
G04 #@! TF.CreationDate,2021-05-18T14:06:46+02:00*
G04 #@! TF.ProjectId,18650_UPS_PCB,31383635-305f-4555-9053-5f5043422e6b,rev?*
G04 #@! TF.SameCoordinates,Original*
G04 #@! TF.FileFunction,Soldermask,Top*
G04 #@! TF.FilePolarity,Negative*
%FSLAX46Y46*%
G04 Gerber Fmt 4.6, Leading zero omitted, Abs format (unit mm)*
G04 Created by KiCad (PCBNEW (5.1.5)-3) date 2021-05-18 14:06:46*
%MOMM*%
%LPD*%
G04 APERTURE LIST*
%ADD10C,0.100000*%
G04 APERTURE END LIST*
D10*
G36*
X133624928Y-93751764D02*
G01*
X133646009Y-93758160D01*
X133665445Y-93768548D01*
X133682476Y-93782524D01*
X133696452Y-93799555D01*
X133706840Y-93818991D01*
X133713236Y-93840072D01*
X133716000Y-93868140D01*
X133716000Y-95681860D01*
X133713236Y-95709928D01*
X133706840Y-95731009D01*
X133696452Y-95750445D01*
X133682476Y-95767476D01*
X133665445Y-95781452D01*
X133646009Y-95791840D01*
X133624928Y-95798236D01*
X133596860Y-95801000D01*
X133133140Y-95801000D01*
X133105072Y-95798236D01*
X133083991Y-95791840D01*
X133064555Y-95781452D01*
X133047524Y-95767476D01*
X133033548Y-95750445D01*
X133023160Y-95731009D01*
X133016764Y-95709928D01*
X133014000Y-95681860D01*
X133014000Y-93868140D01*
X133016764Y-93840072D01*
X133023160Y-93818991D01*
X133033548Y-93799555D01*
X133047524Y-93782524D01*
X133064555Y-93768548D01*
X133083991Y-93758160D01*
X133105072Y-93751764D01*
X133133140Y-93749000D01*
X133596860Y-93749000D01*
X133624928Y-93751764D01*
G37*
G36*
X134894928Y-93751764D02*
G01*
X134916009Y-93758160D01*
X134935445Y-93768548D01*
X134952476Y-93782524D01*
X134966452Y-93799555D01*
X134976840Y-93818991D01*
X134983236Y-93840072D01*
X134986000Y-93868140D01*
X134986000Y-95681860D01*
X134983236Y-95709928D01*
X134976840Y-95731009D01*
X134966452Y-95750445D01*
X134952476Y-95767476D01*
X134935445Y-95781452D01*
X134916009Y-95791840D01*
X134894928Y-95798236D01*
X134866860Y-95801000D01*
X134403140Y-95801000D01*
X134375072Y-95798236D01*
X134353991Y-95791840D01*
X134334555Y-95781452D01*
X134317524Y-95767476D01*
X134303548Y-95750445D01*
X134293160Y-95731009D01*
X134286764Y-95709928D01*
X134284000Y-95681860D01*
X134284000Y-93868140D01*
X134286764Y-93840072D01*
X134293160Y-93818991D01*
X134303548Y-93799555D01*
X134317524Y-93782524D01*
X134334555Y-93768548D01*
X134353991Y-93758160D01*
X134375072Y-93751764D01*
X134403140Y-93749000D01*
X134866860Y-93749000D01*
X134894928Y-93751764D01*
G37*
G36*
X136164928Y-93751764D02*
G01*
X136186009Y-93758160D01*
X136205445Y-93768548D01*
X136222476Y-93782524D01*
X136236452Y-93799555D01*
X136246840Y-93818991D01*
X136253236Y-93840072D01*
X136256000Y-93868140D01*
X136256000Y-95681860D01*
X136253236Y-95709928D01*
X136246840Y-95731009D01*
X136236452Y-95750445D01*
X136222476Y-95767476D01*
X136205445Y-95781452D01*
X136186009Y-95791840D01*
X136164928Y-95798236D01*
X136136860Y-95801000D01*
X135673140Y-95801000D01*
X135645072Y-95798236D01*
X135623991Y-95791840D01*
X135604555Y-95781452D01*
X135587524Y-95767476D01*
X135573548Y-95750445D01*
X135563160Y-95731009D01*
X135556764Y-95709928D01*
X135554000Y-95681860D01*
X135554000Y-93868140D01*
X135556764Y-93840072D01*
X135563160Y-93818991D01*
X135573548Y-93799555D01*
X135587524Y-93782524D01*
X135604555Y-93768548D01*
X135623991Y-93758160D01*
X135645072Y-93751764D01*
X135673140Y-93749000D01*
X136136860Y-93749000D01*
X136164928Y-93751764D01*
G37*
G36*
X132354928Y-93751764D02*
G01*
X132376009Y-93758160D01*
X132395445Y-93768548D01*
X132412476Y-93782524D01*
X132426452Y-93799555D01*
X132436840Y-93818991D01*
X132443236Y-93840072D01*
X132446000Y-93868140D01*
X132446000Y-95681860D01*
X132443236Y-95709928D01*
X132436840Y-95731009D01*
X132426452Y-95750445D01*
X132412476Y-95767476D01*
X132395445Y-95781452D01*
X132376009Y-95791840D01*
X132354928Y-95798236D01*
X132326860Y-95801000D01*
X131863140Y-95801000D01*
X131835072Y-95798236D01*
X131813991Y-95791840D01*
X131794555Y-95781452D01*
X131777524Y-95767476D01*
X131763548Y-95750445D01*
X131753160Y-95731009D01*
X131746764Y-95709928D01*
X131744000Y-95681860D01*
X131744000Y-93868140D01*
X131746764Y-93840072D01*
X131753160Y-93818991D01*
X131763548Y-93799555D01*
X131777524Y-93782524D01*
X131794555Y-93768548D01*
X131813991Y-93758160D01*
X131835072Y-93751764D01*
X131863140Y-93749000D01*
X132326860Y-93749000D01*
X132354928Y-93751764D01*
G37*
G36*
X146111000Y-95736000D02*
G01*
X144309000Y-95736000D01*
X144309000Y-94059000D01*
X146111000Y-94059000D01*
X146111000Y-95736000D01*
G37*
G36*
X171704591Y-94663085D02*
G01*
X171738569Y-94673393D01*
X171769890Y-94690134D01*
X171797339Y-94712661D01*
X171819866Y-94740110D01*
X171836607Y-94771431D01*
X171846915Y-94805409D01*
X171851000Y-94846890D01*
X171851000Y-95523110D01*
X171846915Y-95564591D01*
X171836607Y-95598569D01*
X171819866Y-95629890D01*
X171797339Y-95657339D01*
X171769890Y-95679866D01*
X171738569Y-95696607D01*
X171704591Y-95706915D01*
X171663110Y-95711000D01*
X171061890Y-95711000D01*
X171020409Y-95706915D01*
X170986431Y-95696607D01*
X170955110Y-95679866D01*
X170927661Y-95657339D01*
X170905134Y-95629890D01*
X170888393Y-95598569D01*
X170878085Y-95564591D01*
X170874000Y-95523110D01*
X170874000Y-94846890D01*
X170878085Y-94805409D01*
X170888393Y-94771431D01*
X170905134Y-94740110D01*
X170927661Y-94712661D01*
X170955110Y-94690134D01*
X170986431Y-94673393D01*
X171020409Y-94663085D01*
X171061890Y-94659000D01*
X171663110Y-94659000D01*
X171704591Y-94663085D01*
G37*
G36*
X173279591Y-94663085D02*
G01*
X173313569Y-94673393D01*
X173344890Y-94690134D01*
X173372339Y-94712661D01*
X173394866Y-94740110D01*
X173411607Y-94771431D01*
X173421915Y-94805409D01*
X173426000Y-94846890D01*
X173426000Y-95523110D01*
X173421915Y-95564591D01*
X173411607Y-95598569D01*
X173394866Y-95629890D01*
X173372339Y-95657339D01*
X173344890Y-95679866D01*
X173313569Y-95696607D01*
X173279591Y-95706915D01*
X173238110Y-95711000D01*
X172636890Y-95711000D01*
X172595409Y-95706915D01*
X172561431Y-95696607D01*
X172530110Y-95679866D01*
X172502661Y-95657339D01*
X172480134Y-95629890D01*
X172463393Y-95598569D01*
X172453085Y-95564591D01*
X172449000Y-95523110D01*
X172449000Y-94846890D01*
X172453085Y-94805409D01*
X172463393Y-94771431D01*
X172480134Y-94740110D01*
X172502661Y-94712661D01*
X172530110Y-94690134D01*
X172561431Y-94673393D01*
X172595409Y-94663085D01*
X172636890Y-94659000D01*
X173238110Y-94659000D01*
X173279591Y-94663085D01*
G37*
G36*
X185864591Y-94663085D02*
G01*
X185898569Y-94673393D01*
X185929890Y-94690134D01*
X185957339Y-94712661D01*
X185979866Y-94740110D01*
X185996607Y-94771431D01*
X186006915Y-94805409D01*
X186011000Y-94846890D01*
X186011000Y-95523110D01*
X186006915Y-95564591D01*
X185996607Y-95598569D01*
X185979866Y-95629890D01*
X185957339Y-95657339D01*
X185929890Y-95679866D01*
X185898569Y-95696607D01*
X185864591Y-95706915D01*
X185823110Y-95711000D01*
X185221890Y-95711000D01*
X185180409Y-95706915D01*
X185146431Y-95696607D01*
X185115110Y-95679866D01*
X185087661Y-95657339D01*
X185065134Y-95629890D01*
X185048393Y-95598569D01*
X185038085Y-95564591D01*
X185034000Y-95523110D01*
X185034000Y-94846890D01*
X185038085Y-94805409D01*
X185048393Y-94771431D01*
X185065134Y-94740110D01*
X185087661Y-94712661D01*
X185115110Y-94690134D01*
X185146431Y-94673393D01*
X185180409Y-94663085D01*
X185221890Y-94659000D01*
X185823110Y-94659000D01*
X185864591Y-94663085D01*
G37*
G36*
X187439591Y-94663085D02*
G01*
X187473569Y-94673393D01*
X187504890Y-94690134D01*
X187532339Y-94712661D01*
X187554866Y-94740110D01*
X187571607Y-94771431D01*
X187581915Y-94805409D01*
X187586000Y-94846890D01*
X187586000Y-95523110D01*
X187581915Y-95564591D01*
X187571607Y-95598569D01*
X187554866Y-95629890D01*
X187532339Y-95657339D01*
X187504890Y-95679866D01*
X187473569Y-95696607D01*
X187439591Y-95706915D01*
X187398110Y-95711000D01*
X186796890Y-95711000D01*
X186755409Y-95706915D01*
X186721431Y-95696607D01*
X186690110Y-95679866D01*
X186662661Y-95657339D01*
X186640134Y-95629890D01*
X186623393Y-95598569D01*
X186613085Y-95564591D01*
X186609000Y-95523110D01*
X186609000Y-94846890D01*
X186613085Y-94805409D01*
X186623393Y-94771431D01*
X186640134Y-94740110D01*
X186662661Y-94712661D01*
X186690110Y-94690134D01*
X186721431Y-94673393D01*
X186755409Y-94663085D01*
X186796890Y-94659000D01*
X187398110Y-94659000D01*
X187439591Y-94663085D01*
G37*
G36*
X163929591Y-94378085D02*
G01*
X163963569Y-94388393D01*
X163994890Y-94405134D01*
X164022339Y-94427661D01*
X164044866Y-94455110D01*
X164061607Y-94486431D01*
X164071915Y-94520409D01*
X164076000Y-94561890D01*
X164076000Y-95238110D01*
X164071915Y-95279591D01*
X164061607Y-95313569D01*
X164044866Y-95344890D01*
X164022339Y-95372339D01*
X163994890Y-95394866D01*
X163963569Y-95411607D01*
X163929591Y-95421915D01*
X163888110Y-95426000D01*
X163286890Y-95426000D01*
X163245409Y-95421915D01*
X163211431Y-95411607D01*
X163180110Y-95394866D01*
X163152661Y-95372339D01*
X163130134Y-95344890D01*
X163113393Y-95313569D01*
X163103085Y-95279591D01*
X163099000Y-95238110D01*
X163099000Y-94561890D01*
X163103085Y-94520409D01*
X163113393Y-94486431D01*
X163130134Y-94455110D01*
X163152661Y-94427661D01*
X163180110Y-94405134D01*
X163211431Y-94388393D01*
X163245409Y-94378085D01*
X163286890Y-94374000D01*
X163888110Y-94374000D01*
X163929591Y-94378085D01*
G37*
G36*
X162354591Y-94378085D02*
G01*
X162388569Y-94388393D01*
X162419890Y-94405134D01*
X162447339Y-94427661D01*
X162469866Y-94455110D01*
X162486607Y-94486431D01*
X162496915Y-94520409D01*
X162501000Y-94561890D01*
X162501000Y-95238110D01*
X162496915Y-95279591D01*
X162486607Y-95313569D01*
X162469866Y-95344890D01*
X162447339Y-95372339D01*
X162419890Y-95394866D01*
X162388569Y-95411607D01*
X162354591Y-95421915D01*
X162313110Y-95426000D01*
X161711890Y-95426000D01*
X161670409Y-95421915D01*
X161636431Y-95411607D01*
X161605110Y-95394866D01*
X161577661Y-95372339D01*
X161555134Y-95344890D01*
X161538393Y-95313569D01*
X161528085Y-95279591D01*
X161524000Y-95238110D01*
X161524000Y-94561890D01*
X161528085Y-94520409D01*
X161538393Y-94486431D01*
X161555134Y-94455110D01*
X161577661Y-94427661D01*
X161605110Y-94405134D01*
X161636431Y-94388393D01*
X161670409Y-94378085D01*
X161711890Y-94374000D01*
X162313110Y-94374000D01*
X162354591Y-94378085D01*
G37*
G36*
X167329591Y-94378085D02*
G01*
X167363569Y-94388393D01*
X167394890Y-94405134D01*
X167422339Y-94427661D01*
X167444866Y-94455110D01*
X167461607Y-94486431D01*
X167471915Y-94520409D01*
X167476000Y-94561890D01*
X167476000Y-95238110D01*
X167471915Y-95279591D01*
X167461607Y-95313569D01*
X167444866Y-95344890D01*
X167422339Y-95372339D01*
X167394890Y-95394866D01*
X167363569Y-95411607D01*
X167329591Y-95421915D01*
X167288110Y-95426000D01*
X166686890Y-95426000D01*
X166645409Y-95421915D01*
X166611431Y-95411607D01*
X166580110Y-95394866D01*
X166552661Y-95372339D01*
X166530134Y-95344890D01*
X166513393Y-95313569D01*
X166503085Y-95279591D01*
X166499000Y-95238110D01*
X166499000Y-94561890D01*
X166503085Y-94520409D01*
X166513393Y-94486431D01*
X166530134Y-94455110D01*
X166552661Y-94427661D01*
X166580110Y-94405134D01*
X166611431Y-94388393D01*
X166645409Y-94378085D01*
X166686890Y-94374000D01*
X167288110Y-94374000D01*
X167329591Y-94378085D01*
G37*
G36*
X165754591Y-94378085D02*
G01*
X165788569Y-94388393D01*
X165819890Y-94405134D01*
X165847339Y-94427661D01*
X165869866Y-94455110D01*
X165886607Y-94486431D01*
X165896915Y-94520409D01*
X165901000Y-94561890D01*
X165901000Y-95238110D01*
X165896915Y-95279591D01*
X165886607Y-95313569D01*
X165869866Y-95344890D01*
X165847339Y-95372339D01*
X165819890Y-95394866D01*
X165788569Y-95411607D01*
X165754591Y-95421915D01*
X165713110Y-95426000D01*
X165111890Y-95426000D01*
X165070409Y-95421915D01*
X165036431Y-95411607D01*
X165005110Y-95394866D01*
X164977661Y-95372339D01*
X164955134Y-95344890D01*
X164938393Y-95313569D01*
X164928085Y-95279591D01*
X164924000Y-95238110D01*
X164924000Y-94561890D01*
X164928085Y-94520409D01*
X164938393Y-94486431D01*
X164955134Y-94455110D01*
X164977661Y-94427661D01*
X165005110Y-94405134D01*
X165036431Y-94388393D01*
X165070409Y-94378085D01*
X165111890Y-94374000D01*
X165713110Y-94374000D01*
X165754591Y-94378085D01*
G37*
G36*
X183286000Y-95386000D02*
G01*
X181734000Y-95386000D01*
X181734000Y-88984000D01*
X183286000Y-88984000D01*
X183286000Y-95386000D01*
G37*
G36*
X177386000Y-95386000D02*
G01*
X175834000Y-95386000D01*
X175834000Y-88984000D01*
X177386000Y-88984000D01*
X177386000Y-95386000D01*
G37*
G36*
X138179591Y-94203085D02*
G01*
X138213569Y-94213393D01*
X138244890Y-94230134D01*
X138272339Y-94252661D01*
X138294866Y-94280110D01*
X138311607Y-94311431D01*
X138321915Y-94345409D01*
X138326000Y-94386890D01*
X138326000Y-94988110D01*
X138321915Y-95029591D01*
X138311607Y-95063569D01*
X138294866Y-95094890D01*
X138272339Y-95122339D01*
X138244890Y-95144866D01*
X138213569Y-95161607D01*
X138179591Y-95171915D01*
X138138110Y-95176000D01*
X137461890Y-95176000D01*
X137420409Y-95171915D01*
X137386431Y-95161607D01*
X137355110Y-95144866D01*
X137327661Y-95122339D01*
X137305134Y-95094890D01*
X137288393Y-95063569D01*
X137278085Y-95029591D01*
X137274000Y-94988110D01*
X137274000Y-94386890D01*
X137278085Y-94345409D01*
X137288393Y-94311431D01*
X137305134Y-94280110D01*
X137327661Y-94252661D01*
X137355110Y-94230134D01*
X137386431Y-94213393D01*
X137420409Y-94203085D01*
X137461890Y-94199000D01*
X138138110Y-94199000D01*
X138179591Y-94203085D01*
G37*
G36*
X193928039Y-91477250D02*
G01*
X194076988Y-91538947D01*
X194251251Y-91611129D01*
X194542134Y-91805491D01*
X194789509Y-92052866D01*
X194983871Y-92343749D01*
X194983871Y-92343750D01*
X195117750Y-92666961D01*
X195186000Y-93010078D01*
X195186000Y-93359922D01*
X195117750Y-93703039D01*
X195049363Y-93868140D01*
X194983871Y-94026251D01*
X194789509Y-94317134D01*
X194542134Y-94564509D01*
X194251251Y-94758871D01*
X194220928Y-94771431D01*
X193928039Y-94892750D01*
X193584922Y-94961000D01*
X193235078Y-94961000D01*
X192891961Y-94892750D01*
X192599072Y-94771431D01*
X192568749Y-94758871D01*
X192277866Y-94564509D01*
X192030491Y-94317134D01*
X191836129Y-94026251D01*
X191770637Y-93868140D01*
X191702250Y-93703039D01*
X191634000Y-93359922D01*
X191634000Y-93010078D01*
X191702250Y-92666961D01*
X191836129Y-92343750D01*
X191836129Y-92343749D01*
X192030491Y-92052866D01*
X192277866Y-91805491D01*
X192568749Y-91611129D01*
X192743012Y-91538947D01*
X192891961Y-91477250D01*
X193235078Y-91409000D01*
X193584922Y-91409000D01*
X193928039Y-91477250D01*
G37*
G36*
X130243444Y-91986882D02*
G01*
X130470201Y-92080808D01*
X130470202Y-92080809D01*
X130674279Y-92217168D01*
X130847832Y-92390721D01*
X130938944Y-92527081D01*
X130984192Y-92594799D01*
X131078118Y-92821556D01*
X131126000Y-93062278D01*
X131126000Y-93307722D01*
X131078118Y-93548444D01*
X130984192Y-93775201D01*
X130954932Y-93818991D01*
X130847832Y-93979279D01*
X130674279Y-94152832D01*
X130543577Y-94240164D01*
X130470201Y-94289192D01*
X130243444Y-94383118D01*
X130002722Y-94431000D01*
X129757278Y-94431000D01*
X129516556Y-94383118D01*
X129289799Y-94289192D01*
X129216423Y-94240164D01*
X129085721Y-94152832D01*
X128912168Y-93979279D01*
X128805068Y-93818991D01*
X128775808Y-93775201D01*
X128681882Y-93548444D01*
X128634000Y-93307722D01*
X128634000Y-93062278D01*
X128681882Y-92821556D01*
X128775808Y-92594799D01*
X128821056Y-92527081D01*
X128912168Y-92390721D01*
X129085721Y-92217168D01*
X129289798Y-92080809D01*
X129289799Y-92080808D01*
X129516556Y-91986882D01*
X129757278Y-91939000D01*
X130002722Y-91939000D01*
X130243444Y-91986882D01*
G37*
G36*
X124685256Y-91076298D02*
G01*
X124791579Y-91097447D01*
X125004037Y-91185450D01*
X125030753Y-91196516D01*
X125092042Y-91221903D01*
X125362451Y-91402585D01*
X125592415Y-91632549D01*
X125773097Y-91902958D01*
X125897553Y-92203421D01*
X125912955Y-92280852D01*
X125961000Y-92522389D01*
X125961000Y-92847611D01*
X125928683Y-93010078D01*
X125897553Y-93166579D01*
X125831270Y-93326600D01*
X125778255Y-93454591D01*
X125773097Y-93467042D01*
X125592415Y-93737451D01*
X125362451Y-93967415D01*
X125092042Y-94148097D01*
X124791579Y-94272553D01*
X124753587Y-94280110D01*
X124472611Y-94336000D01*
X124147389Y-94336000D01*
X123866413Y-94280110D01*
X123828421Y-94272553D01*
X123527958Y-94148097D01*
X123257549Y-93967415D01*
X123027585Y-93737451D01*
X122846903Y-93467042D01*
X122841746Y-93454591D01*
X122788730Y-93326600D01*
X122722447Y-93166579D01*
X122691317Y-93010078D01*
X122659000Y-92847611D01*
X122659000Y-92522389D01*
X122707045Y-92280852D01*
X122722447Y-92203421D01*
X122846903Y-91902958D01*
X123027585Y-91632549D01*
X123257549Y-91402585D01*
X123527958Y-91221903D01*
X123589248Y-91196516D01*
X123615963Y-91185450D01*
X123828421Y-91097447D01*
X123934744Y-91076298D01*
X124147389Y-91034000D01*
X124472611Y-91034000D01*
X124685256Y-91076298D01*
G37*
G36*
X207685256Y-91076298D02*
G01*
X207791579Y-91097447D01*
X208004037Y-91185450D01*
X208030753Y-91196516D01*
X208092042Y-91221903D01*
X208362451Y-91402585D01*
X208592415Y-91632549D01*
X208773097Y-91902958D01*
X208897553Y-92203421D01*
X208912955Y-92280852D01*
X208961000Y-92522389D01*
X208961000Y-92847611D01*
X208928683Y-93010078D01*
X208897553Y-93166579D01*
X208831270Y-93326600D01*
X208778255Y-93454591D01*
X208773097Y-93467042D01*
X208592415Y-93737451D01*
X208362451Y-93967415D01*
X208092042Y-94148097D01*
X207791579Y-94272553D01*
X207753587Y-94280110D01*
X207472611Y-94336000D01*
X207147389Y-94336000D01*
X206866413Y-94280110D01*
X206828421Y-94272553D01*
X206527958Y-94148097D01*
X206257549Y-93967415D01*
X206027585Y-93737451D01*
X205846903Y-93467042D01*
X205841746Y-93454591D01*
X205788730Y-93326600D01*
X205722447Y-93166579D01*
X205691317Y-93010078D01*
X205659000Y-92847611D01*
X205659000Y-92522389D01*
X205707045Y-92280852D01*
X205722447Y-92203421D01*
X205846903Y-91902958D01*
X206027585Y-91632549D01*
X206257549Y-91402585D01*
X206527958Y-91221903D01*
X206589248Y-91196516D01*
X206615963Y-91185450D01*
X206828421Y-91097447D01*
X206934744Y-91076298D01*
X207147389Y-91034000D01*
X207472611Y-91034000D01*
X207685256Y-91076298D01*
G37*
G36*
X160451000Y-94146000D02*
G01*
X157839000Y-94146000D01*
X157839000Y-93044000D01*
X160451000Y-93044000D01*
X160451000Y-94146000D01*
G37*
G36*
X198925018Y-93079112D02*
G01*
X197898299Y-94105831D01*
X197119068Y-93326600D01*
X198145787Y-92299881D01*
X198925018Y-93079112D01*
G37*
G36*
X203839410Y-92478071D02*
G01*
X202353071Y-93964410D01*
X201008154Y-92619493D01*
X202494493Y-91133154D01*
X203839410Y-92478071D01*
G37*
G36*
X149458228Y-92216703D02*
G01*
X149613100Y-92280853D01*
X149752481Y-92373985D01*
X149871015Y-92492519D01*
X149964147Y-92631900D01*
X150028297Y-92786772D01*
X150061000Y-92951184D01*
X150061000Y-93118816D01*
X150028297Y-93283228D01*
X149964147Y-93438100D01*
X149871015Y-93577481D01*
X149752481Y-93696015D01*
X149613100Y-93789147D01*
X149458228Y-93853297D01*
X149293816Y-93886000D01*
X149126184Y-93886000D01*
X148961772Y-93853297D01*
X148806900Y-93789147D01*
X148667519Y-93696015D01*
X148548985Y-93577481D01*
X148455853Y-93438100D01*
X148391703Y-93283228D01*
X148359000Y-93118816D01*
X148359000Y-92951184D01*
X148391703Y-92786772D01*
X148455853Y-92631900D01*
X148548985Y-92492519D01*
X148667519Y-92373985D01*
X148806900Y-92280853D01*
X148961772Y-92216703D01*
X149126184Y-92184000D01*
X149293816Y-92184000D01*
X149458228Y-92216703D01*
G37*
G36*
X185864591Y-92663085D02*
G01*
X185898569Y-92673393D01*
X185929890Y-92690134D01*
X185957339Y-92712661D01*
X185979866Y-92740110D01*
X185996607Y-92771431D01*
X186006915Y-92805409D01*
X186011000Y-92846890D01*
X186011000Y-93523110D01*
X186006915Y-93564591D01*
X185996607Y-93598569D01*
X185979866Y-93629890D01*
X185957339Y-93657339D01*
X185929890Y-93679866D01*
X185898569Y-93696607D01*
X185864591Y-93706915D01*
X185823110Y-93711000D01*
X185221890Y-93711000D01*
X185180409Y-93706915D01*
X185146431Y-93696607D01*
X185115110Y-93679866D01*
X185087661Y-93657339D01*
X185065134Y-93629890D01*
X185048393Y-93598569D01*
X185038085Y-93564591D01*
X185034000Y-93523110D01*
X185034000Y-92846890D01*
X185038085Y-92805409D01*
X185048393Y-92771431D01*
X185065134Y-92740110D01*
X185087661Y-92712661D01*
X185115110Y-92690134D01*
X185146431Y-92673393D01*
X185180409Y-92663085D01*
X185221890Y-92659000D01*
X185823110Y-92659000D01*
X185864591Y-92663085D01*
G37*
G36*
X171704591Y-92663085D02*
G01*
X171738569Y-92673393D01*
X171769890Y-92690134D01*
X171797339Y-92712661D01*
X171819866Y-92740110D01*
X171836607Y-92771431D01*
X171846915Y-92805409D01*
X171851000Y-92846890D01*
X171851000Y-93523110D01*
X171846915Y-93564591D01*
X171836607Y-93598569D01*
X171819866Y-93629890D01*
X171797339Y-93657339D01*
X171769890Y-93679866D01*
X171738569Y-93696607D01*
X171704591Y-93706915D01*
X171663110Y-93711000D01*
X171061890Y-93711000D01*
X171020409Y-93706915D01*
X170986431Y-93696607D01*
X170955110Y-93679866D01*
X170927661Y-93657339D01*
X170905134Y-93629890D01*
X170888393Y-93598569D01*
X170878085Y-93564591D01*
X170874000Y-93523110D01*
X170874000Y-92846890D01*
X170878085Y-92805409D01*
X170888393Y-92771431D01*
X170905134Y-92740110D01*
X170927661Y-92712661D01*
X170955110Y-92690134D01*
X170986431Y-92673393D01*
X171020409Y-92663085D01*
X171061890Y-92659000D01*
X171663110Y-92659000D01*
X171704591Y-92663085D01*
G37*
G36*
X173279591Y-92663085D02*
G01*
X173313569Y-92673393D01*
X173344890Y-92690134D01*
X173372339Y-92712661D01*
X173394866Y-92740110D01*
X173411607Y-92771431D01*
X173421915Y-92805409D01*
X173426000Y-92846890D01*
X173426000Y-93523110D01*
X173421915Y-93564591D01*
X173411607Y-93598569D01*
X173394866Y-93629890D01*
X173372339Y-93657339D01*
X173344890Y-93679866D01*
X173313569Y-93696607D01*
X173279591Y-93706915D01*
X173238110Y-93711000D01*
X172636890Y-93711000D01*
X172595409Y-93706915D01*
X172561431Y-93696607D01*
X172530110Y-93679866D01*
X172502661Y-93657339D01*
X172480134Y-93629890D01*
X172463393Y-93598569D01*
X172453085Y-93564591D01*
X172449000Y-93523110D01*
X172449000Y-92846890D01*
X172453085Y-92805409D01*
X172463393Y-92771431D01*
X172480134Y-92740110D01*
X172502661Y-92712661D01*
X172530110Y-92690134D01*
X172561431Y-92673393D01*
X172595409Y-92663085D01*
X172636890Y-92659000D01*
X173238110Y-92659000D01*
X173279591Y-92663085D01*
G37*
G36*
X187439591Y-92663085D02*
G01*
X187473569Y-92673393D01*
X187504890Y-92690134D01*
X187532339Y-92712661D01*
X187554866Y-92740110D01*
X187571607Y-92771431D01*
X187581915Y-92805409D01*
X187586000Y-92846890D01*
X187586000Y-93523110D01*
X187581915Y-93564591D01*
X187571607Y-93598569D01*
X187554866Y-93629890D01*
X187532339Y-93657339D01*
X187504890Y-93679866D01*
X187473569Y-93696607D01*
X187439591Y-93706915D01*
X187398110Y-93711000D01*
X186796890Y-93711000D01*
X186755409Y-93706915D01*
X186721431Y-93696607D01*
X186690110Y-93679866D01*
X186662661Y-93657339D01*
X186640134Y-93629890D01*
X186623393Y-93598569D01*
X186613085Y-93564591D01*
X186609000Y-93523110D01*
X186609000Y-92846890D01*
X186613085Y-92805409D01*
X186623393Y-92771431D01*
X186640134Y-92740110D01*
X186662661Y-92712661D01*
X186690110Y-92690134D01*
X186721431Y-92673393D01*
X186755409Y-92663085D01*
X186796890Y-92659000D01*
X187398110Y-92659000D01*
X187439591Y-92663085D01*
G37*
G36*
X138179591Y-92628085D02*
G01*
X138213569Y-92638393D01*
X138244890Y-92655134D01*
X138272339Y-92677661D01*
X138294866Y-92705110D01*
X138311607Y-92736431D01*
X138321915Y-92770409D01*
X138326000Y-92811890D01*
X138326000Y-93413110D01*
X138321915Y-93454591D01*
X138311607Y-93488569D01*
X138294866Y-93519890D01*
X138272339Y-93547339D01*
X138244890Y-93569866D01*
X138213569Y-93586607D01*
X138179591Y-93596915D01*
X138138110Y-93601000D01*
X137461890Y-93601000D01*
X137420409Y-93596915D01*
X137386431Y-93586607D01*
X137355110Y-93569866D01*
X137327661Y-93547339D01*
X137305134Y-93519890D01*
X137288393Y-93488569D01*
X137278085Y-93454591D01*
X137274000Y-93413110D01*
X137274000Y-92811890D01*
X137278085Y-92770409D01*
X137288393Y-92736431D01*
X137305134Y-92705110D01*
X137327661Y-92677661D01*
X137355110Y-92655134D01*
X137386431Y-92638393D01*
X137420409Y-92628085D01*
X137461890Y-92624000D01*
X138138110Y-92624000D01*
X138179591Y-92628085D01*
G37*
G36*
X153411000Y-93436000D02*
G01*
X150909000Y-93436000D01*
X150909000Y-90534000D01*
X153411000Y-90534000D01*
X153411000Y-93436000D01*
G37*
G36*
X141511000Y-93436000D02*
G01*
X139009000Y-93436000D01*
X139009000Y-90534000D01*
X141511000Y-90534000D01*
X141511000Y-93436000D01*
G37*
G36*
X197935068Y-92089163D02*
G01*
X196908349Y-93115882D01*
X196129118Y-92336651D01*
X197155837Y-91309932D01*
X197935068Y-92089163D01*
G37*
G36*
X196945119Y-91099213D02*
G01*
X195918400Y-92125932D01*
X195139169Y-91346701D01*
X196165888Y-90319982D01*
X196945119Y-91099213D01*
G37*
G36*
X187439591Y-90663085D02*
G01*
X187473569Y-90673393D01*
X187504890Y-90690134D01*
X187532339Y-90712661D01*
X187554866Y-90740110D01*
X187571607Y-90771431D01*
X187581915Y-90805409D01*
X187586000Y-90846890D01*
X187586000Y-91523110D01*
X187581915Y-91564591D01*
X187571607Y-91598569D01*
X187554866Y-91629890D01*
X187532339Y-91657339D01*
X187504890Y-91679866D01*
X187473569Y-91696607D01*
X187439591Y-91706915D01*
X187398110Y-91711000D01*
X186796890Y-91711000D01*
X186755409Y-91706915D01*
X186721431Y-91696607D01*
X186690110Y-91679866D01*
X186662661Y-91657339D01*
X186640134Y-91629890D01*
X186623393Y-91598569D01*
X186613085Y-91564591D01*
X186609000Y-91523110D01*
X186609000Y-90846890D01*
X186613085Y-90805409D01*
X186623393Y-90771431D01*
X186640134Y-90740110D01*
X186662661Y-90712661D01*
X186690110Y-90690134D01*
X186721431Y-90673393D01*
X186755409Y-90663085D01*
X186796890Y-90659000D01*
X187398110Y-90659000D01*
X187439591Y-90663085D01*
G37*
G36*
X185864591Y-90663085D02*
G01*
X185898569Y-90673393D01*
X185929890Y-90690134D01*
X185957339Y-90712661D01*
X185979866Y-90740110D01*
X185996607Y-90771431D01*
X186006915Y-90805409D01*
X186011000Y-90846890D01*
X186011000Y-91523110D01*
X186006915Y-91564591D01*
X185996607Y-91598569D01*
X185979866Y-91629890D01*
X185957339Y-91657339D01*
X185929890Y-91679866D01*
X185898569Y-91696607D01*
X185864591Y-91706915D01*
X185823110Y-91711000D01*
X185221890Y-91711000D01*
X185180409Y-91706915D01*
X185146431Y-91696607D01*
X185115110Y-91679866D01*
X185087661Y-91657339D01*
X185065134Y-91629890D01*
X185048393Y-91598569D01*
X185038085Y-91564591D01*
X185034000Y-91523110D01*
X185034000Y-90846890D01*
X185038085Y-90805409D01*
X185048393Y-90771431D01*
X185065134Y-90740110D01*
X185087661Y-90712661D01*
X185115110Y-90690134D01*
X185146431Y-90673393D01*
X185180409Y-90663085D01*
X185221890Y-90659000D01*
X185823110Y-90659000D01*
X185864591Y-90663085D01*
G37*
G36*
X138179591Y-90703085D02*
G01*
X138213569Y-90713393D01*
X138244890Y-90730134D01*
X138272339Y-90752661D01*
X138294866Y-90780110D01*
X138311607Y-90811431D01*
X138321915Y-90845409D01*
X138326000Y-90886890D01*
X138326000Y-91488110D01*
X138321915Y-91529591D01*
X138311607Y-91563569D01*
X138294866Y-91594890D01*
X138272339Y-91622339D01*
X138244890Y-91644866D01*
X138213569Y-91661607D01*
X138179591Y-91671915D01*
X138138110Y-91676000D01*
X137461890Y-91676000D01*
X137420409Y-91671915D01*
X137386431Y-91661607D01*
X137355110Y-91644866D01*
X137327661Y-91622339D01*
X137305134Y-91594890D01*
X137288393Y-91563569D01*
X137278085Y-91529591D01*
X137274000Y-91488110D01*
X137274000Y-90886890D01*
X137278085Y-90845409D01*
X137288393Y-90811431D01*
X137305134Y-90780110D01*
X137327661Y-90752661D01*
X137355110Y-90730134D01*
X137386431Y-90713393D01*
X137420409Y-90703085D01*
X137461890Y-90699000D01*
X138138110Y-90699000D01*
X138179591Y-90703085D01*
G37*
G36*
X157141000Y-91606000D02*
G01*
X154529000Y-91606000D01*
X154529000Y-90504000D01*
X157141000Y-90504000D01*
X157141000Y-91606000D01*
G37*
G36*
X201015875Y-90463570D02*
G01*
X201071516Y-90474638D01*
X201176341Y-90518058D01*
X201176343Y-90518059D01*
X201270679Y-90581092D01*
X201350914Y-90661327D01*
X201403591Y-90740164D01*
X201413948Y-90755665D01*
X201452932Y-90849780D01*
X201457368Y-90860491D01*
X201479503Y-90971771D01*
X201479503Y-91085235D01*
X201469971Y-91133154D01*
X201457368Y-91196516D01*
X201446852Y-91221903D01*
X201413947Y-91301343D01*
X201350914Y-91395679D01*
X201270679Y-91475914D01*
X201176343Y-91538947D01*
X201176342Y-91538948D01*
X201176341Y-91538948D01*
X201071516Y-91582368D01*
X201015875Y-91593435D01*
X200960235Y-91604503D01*
X200846771Y-91604503D01*
X200791131Y-91593436D01*
X200735490Y-91582368D01*
X200630665Y-91538948D01*
X200630664Y-91538948D01*
X200630663Y-91538947D01*
X200536327Y-91475914D01*
X200456092Y-91395679D01*
X200393059Y-91301343D01*
X200360154Y-91221903D01*
X200349638Y-91196516D01*
X200337035Y-91133154D01*
X200327503Y-91085235D01*
X200327503Y-90971771D01*
X200349638Y-90860491D01*
X200354075Y-90849780D01*
X200393058Y-90755665D01*
X200403415Y-90740164D01*
X200456092Y-90661327D01*
X200536327Y-90581092D01*
X200630663Y-90518059D01*
X200630665Y-90518058D01*
X200735490Y-90474638D01*
X200791131Y-90463570D01*
X200846771Y-90452503D01*
X200960235Y-90452503D01*
X201015875Y-90463570D01*
G37*
G36*
X132354928Y-88801764D02*
G01*
X132376009Y-88808160D01*
X132395445Y-88818548D01*
X132412476Y-88832524D01*
X132426452Y-88849555D01*
X132436840Y-88868991D01*
X132443236Y-88890072D01*
X132446000Y-88918140D01*
X132446000Y-90731860D01*
X132443236Y-90759928D01*
X132436840Y-90781009D01*
X132426452Y-90800445D01*
X132412476Y-90817476D01*
X132395445Y-90831452D01*
X132376009Y-90841840D01*
X132354928Y-90848236D01*
X132326860Y-90851000D01*
X131863140Y-90851000D01*
X131835072Y-90848236D01*
X131813991Y-90841840D01*
X131794555Y-90831452D01*
X131777524Y-90817476D01*
X131763548Y-90800445D01*
X131753160Y-90781009D01*
X131746764Y-90759928D01*
X131744000Y-90731860D01*
X131744000Y-88918140D01*
X131746764Y-88890072D01*
X131753160Y-88868991D01*
X131763548Y-88849555D01*
X131777524Y-88832524D01*
X131794555Y-88818548D01*
X131813991Y-88808160D01*
X131835072Y-88801764D01*
X131863140Y-88799000D01*
X132326860Y-88799000D01*
X132354928Y-88801764D01*
G37*
G36*
X133624928Y-88801764D02*
G01*
X133646009Y-88808160D01*
X133665445Y-88818548D01*
X133682476Y-88832524D01*
X133696452Y-88849555D01*
X133706840Y-88868991D01*
X133713236Y-88890072D01*
X133716000Y-88918140D01*
X133716000Y-90731860D01*
X133713236Y-90759928D01*
X133706840Y-90781009D01*
X133696452Y-90800445D01*
X133682476Y-90817476D01*
X133665445Y-90831452D01*
X133646009Y-90841840D01*
X133624928Y-90848236D01*
X133596860Y-90851000D01*
X133133140Y-90851000D01*
X133105072Y-90848236D01*
X133083991Y-90841840D01*
X133064555Y-90831452D01*
X133047524Y-90817476D01*
X133033548Y-90800445D01*
X133023160Y-90781009D01*
X133016764Y-90759928D01*
X133014000Y-90731860D01*
X133014000Y-88918140D01*
X133016764Y-88890072D01*
X133023160Y-88868991D01*
X133033548Y-88849555D01*
X133047524Y-88832524D01*
X133064555Y-88818548D01*
X133083991Y-88808160D01*
X133105072Y-88801764D01*
X133133140Y-88799000D01*
X133596860Y-88799000D01*
X133624928Y-88801764D01*
G37*
G36*
X134894928Y-88801764D02*
G01*
X134916009Y-88808160D01*
X134935445Y-88818548D01*
X134952476Y-88832524D01*
X134966452Y-88849555D01*
X134976840Y-88868991D01*
X134983236Y-88890072D01*
X134986000Y-88918140D01*
X134986000Y-90731860D01*
X134983236Y-90759928D01*
X134976840Y-90781009D01*
X134966452Y-90800445D01*
X134952476Y-90817476D01*
X134935445Y-90831452D01*
X134916009Y-90841840D01*
X134894928Y-90848236D01*
X134866860Y-90851000D01*
X134403140Y-90851000D01*
X134375072Y-90848236D01*
X134353991Y-90841840D01*
X134334555Y-90831452D01*
X134317524Y-90817476D01*
X134303548Y-90800445D01*
X134293160Y-90781009D01*
X134286764Y-90759928D01*
X134284000Y-90731860D01*
X134284000Y-88918140D01*
X134286764Y-88890072D01*
X134293160Y-88868991D01*
X134303548Y-88849555D01*
X134317524Y-88832524D01*
X134334555Y-88818548D01*
X134353991Y-88808160D01*
X134375072Y-88801764D01*
X134403140Y-88799000D01*
X134866860Y-88799000D01*
X134894928Y-88801764D01*
G37*
G36*
X136164928Y-88801764D02*
G01*
X136186009Y-88808160D01*
X136205445Y-88818548D01*
X136222476Y-88832524D01*
X136236452Y-88849555D01*
X136246840Y-88868991D01*
X136253236Y-88890072D01*
X136256000Y-88918140D01*
X136256000Y-90731860D01*
X136253236Y-90759928D01*
X136246840Y-90781009D01*
X136236452Y-90800445D01*
X136222476Y-90817476D01*
X136205445Y-90831452D01*
X136186009Y-90841840D01*
X136164928Y-90848236D01*
X136136860Y-90851000D01*
X135673140Y-90851000D01*
X135645072Y-90848236D01*
X135623991Y-90841840D01*
X135604555Y-90831452D01*
X135587524Y-90817476D01*
X135573548Y-90800445D01*
X135563160Y-90781009D01*
X135556764Y-90759928D01*
X135554000Y-90731860D01*
X135554000Y-88918140D01*
X135556764Y-88890072D01*
X135563160Y-88868991D01*
X135573548Y-88849555D01*
X135587524Y-88832524D01*
X135604555Y-88818548D01*
X135623991Y-88808160D01*
X135645072Y-88801764D01*
X135673140Y-88799000D01*
X136136860Y-88799000D01*
X136164928Y-88801764D01*
G37*
G36*
X138179591Y-89128085D02*
G01*
X138213569Y-89138393D01*
X138244890Y-89155134D01*
X138272339Y-89177661D01*
X138294866Y-89205110D01*
X138311607Y-89236431D01*
X138321915Y-89270409D01*
X138326000Y-89311890D01*
X138326000Y-89913110D01*
X138321915Y-89954591D01*
X138311607Y-89988569D01*
X138294866Y-90019890D01*
X138272339Y-90047339D01*
X138244890Y-90069866D01*
X138213569Y-90086607D01*
X138179591Y-90096915D01*
X138138110Y-90101000D01*
X137461890Y-90101000D01*
X137420409Y-90096915D01*
X137386431Y-90086607D01*
X137355110Y-90069866D01*
X137327661Y-90047339D01*
X137305134Y-90019890D01*
X137288393Y-89988569D01*
X137278085Y-89954591D01*
X137274000Y-89913110D01*
X137274000Y-89311890D01*
X137278085Y-89270409D01*
X137288393Y-89236431D01*
X137305134Y-89205110D01*
X137327661Y-89177661D01*
X137355110Y-89155134D01*
X137386431Y-89138393D01*
X137420409Y-89128085D01*
X137461890Y-89124000D01*
X138138110Y-89124000D01*
X138179591Y-89128085D01*
G37*
G36*
X168754591Y-88078085D02*
G01*
X168788569Y-88088393D01*
X168819890Y-88105134D01*
X168847339Y-88127661D01*
X168869866Y-88155110D01*
X168886607Y-88186431D01*
X168896915Y-88220409D01*
X168901000Y-88261890D01*
X168901000Y-88938110D01*
X168896915Y-88979591D01*
X168886607Y-89013569D01*
X168869866Y-89044890D01*
X168847339Y-89072339D01*
X168819890Y-89094866D01*
X168788569Y-89111607D01*
X168754591Y-89121915D01*
X168713110Y-89126000D01*
X168111890Y-89126000D01*
X168070409Y-89121915D01*
X168036431Y-89111607D01*
X168005110Y-89094866D01*
X167977661Y-89072339D01*
X167955134Y-89044890D01*
X167938393Y-89013569D01*
X167928085Y-88979591D01*
X167924000Y-88938110D01*
X167924000Y-88261890D01*
X167928085Y-88220409D01*
X167938393Y-88186431D01*
X167955134Y-88155110D01*
X167977661Y-88127661D01*
X168005110Y-88105134D01*
X168036431Y-88088393D01*
X168070409Y-88078085D01*
X168111890Y-88074000D01*
X168713110Y-88074000D01*
X168754591Y-88078085D01*
G37*
G36*
X173829591Y-88078085D02*
G01*
X173863569Y-88088393D01*
X173894890Y-88105134D01*
X173922339Y-88127661D01*
X173944866Y-88155110D01*
X173961607Y-88186431D01*
X173971915Y-88220409D01*
X173976000Y-88261890D01*
X173976000Y-88938110D01*
X173971915Y-88979591D01*
X173961607Y-89013569D01*
X173944866Y-89044890D01*
X173922339Y-89072339D01*
X173894890Y-89094866D01*
X173863569Y-89111607D01*
X173829591Y-89121915D01*
X173788110Y-89126000D01*
X173186890Y-89126000D01*
X173145409Y-89121915D01*
X173111431Y-89111607D01*
X173080110Y-89094866D01*
X173052661Y-89072339D01*
X173030134Y-89044890D01*
X173013393Y-89013569D01*
X173003085Y-88979591D01*
X172999000Y-88938110D01*
X172999000Y-88261890D01*
X173003085Y-88220409D01*
X173013393Y-88186431D01*
X173030134Y-88155110D01*
X173052661Y-88127661D01*
X173080110Y-88105134D01*
X173111431Y-88088393D01*
X173145409Y-88078085D01*
X173186890Y-88074000D01*
X173788110Y-88074000D01*
X173829591Y-88078085D01*
G37*
G36*
X170329591Y-88078085D02*
G01*
X170363569Y-88088393D01*
X170394890Y-88105134D01*
X170422339Y-88127661D01*
X170444866Y-88155110D01*
X170461607Y-88186431D01*
X170471915Y-88220409D01*
X170476000Y-88261890D01*
X170476000Y-88938110D01*
X170471915Y-88979591D01*
X170461607Y-89013569D01*
X170444866Y-89044890D01*
X170422339Y-89072339D01*
X170394890Y-89094866D01*
X170363569Y-89111607D01*
X170329591Y-89121915D01*
X170288110Y-89126000D01*
X169686890Y-89126000D01*
X169645409Y-89121915D01*
X169611431Y-89111607D01*
X169580110Y-89094866D01*
X169552661Y-89072339D01*
X169530134Y-89044890D01*
X169513393Y-89013569D01*
X169503085Y-88979591D01*
X169499000Y-88938110D01*
X169499000Y-88261890D01*
X169503085Y-88220409D01*
X169513393Y-88186431D01*
X169530134Y-88155110D01*
X169552661Y-88127661D01*
X169580110Y-88105134D01*
X169611431Y-88088393D01*
X169645409Y-88078085D01*
X169686890Y-88074000D01*
X170288110Y-88074000D01*
X170329591Y-88078085D01*
G37*
G36*
X172254591Y-88078085D02*
G01*
X172288569Y-88088393D01*
X172319890Y-88105134D01*
X172347339Y-88127661D01*
X172369866Y-88155110D01*
X172386607Y-88186431D01*
X172396915Y-88220409D01*
X172401000Y-88261890D01*
X172401000Y-88938110D01*
X172396915Y-88979591D01*
X172386607Y-89013569D01*
X172369866Y-89044890D01*
X172347339Y-89072339D01*
X172319890Y-89094866D01*
X172288569Y-89111607D01*
X172254591Y-89121915D01*
X172213110Y-89126000D01*
X171611890Y-89126000D01*
X171570409Y-89121915D01*
X171536431Y-89111607D01*
X171505110Y-89094866D01*
X171477661Y-89072339D01*
X171455134Y-89044890D01*
X171438393Y-89013569D01*
X171428085Y-88979591D01*
X171424000Y-88938110D01*
X171424000Y-88261890D01*
X171428085Y-88220409D01*
X171438393Y-88186431D01*
X171455134Y-88155110D01*
X171477661Y-88127661D01*
X171505110Y-88105134D01*
X171536431Y-88088393D01*
X171570409Y-88078085D01*
X171611890Y-88074000D01*
X172213110Y-88074000D01*
X172254591Y-88078085D01*
G37*
G36*
X160451000Y-89066000D02*
G01*
X157839000Y-89066000D01*
X157839000Y-87964000D01*
X160451000Y-87964000D01*
X160451000Y-89066000D01*
G37*
G36*
X203980831Y-88023299D02*
G01*
X202954112Y-89050018D01*
X202174881Y-88270787D01*
X203201600Y-87244068D01*
X203980831Y-88023299D01*
G37*
G36*
X153411000Y-88836000D02*
G01*
X150909000Y-88836000D01*
X150909000Y-85934000D01*
X153411000Y-85934000D01*
X153411000Y-88836000D01*
G37*
G36*
X141511000Y-88836000D02*
G01*
X139009000Y-88836000D01*
X139009000Y-85934000D01*
X141511000Y-85934000D01*
X141511000Y-88836000D01*
G37*
G36*
X124282798Y-85363247D02*
G01*
X124318367Y-85374037D01*
X124351139Y-85391554D01*
X124379869Y-85415131D01*
X124403446Y-85443861D01*
X124420963Y-85476633D01*
X124431753Y-85512202D01*
X124436000Y-85555325D01*
X124436000Y-88614675D01*
X124431753Y-88657798D01*
X124420963Y-88693367D01*
X124403446Y-88726139D01*
X124379869Y-88754869D01*
X124351139Y-88778446D01*
X124318367Y-88795963D01*
X124282798Y-88806753D01*
X124239675Y-88811000D01*
X123180325Y-88811000D01*
X123137202Y-88806753D01*
X123101633Y-88795963D01*
X123068861Y-88778446D01*
X123040131Y-88754869D01*
X123016554Y-88726139D01*
X122999037Y-88693367D01*
X122988247Y-88657798D01*
X122984000Y-88614675D01*
X122984000Y-85555325D01*
X122988247Y-85512202D01*
X122999037Y-85476633D01*
X123016554Y-85443861D01*
X123040131Y-85415131D01*
X123068861Y-85391554D01*
X123101633Y-85374037D01*
X123137202Y-85363247D01*
X123180325Y-85359000D01*
X124239675Y-85359000D01*
X124282798Y-85363247D01*
G37*
G36*
X130082798Y-85363247D02*
G01*
X130118367Y-85374037D01*
X130151139Y-85391554D01*
X130179869Y-85415131D01*
X130203446Y-85443861D01*
X130220963Y-85476633D01*
X130231753Y-85512202D01*
X130236000Y-85555325D01*
X130236000Y-88614675D01*
X130231753Y-88657798D01*
X130220963Y-88693367D01*
X130203446Y-88726139D01*
X130179869Y-88754869D01*
X130151139Y-88778446D01*
X130118367Y-88795963D01*
X130082798Y-88806753D01*
X130039675Y-88811000D01*
X128980325Y-88811000D01*
X128937202Y-88806753D01*
X128901633Y-88795963D01*
X128868861Y-88778446D01*
X128840131Y-88754869D01*
X128816554Y-88726139D01*
X128799037Y-88693367D01*
X128788247Y-88657798D01*
X128784000Y-88614675D01*
X128784000Y-85555325D01*
X128788247Y-85512202D01*
X128799037Y-85476633D01*
X128816554Y-85443861D01*
X128840131Y-85415131D01*
X128868861Y-85391554D01*
X128901633Y-85374037D01*
X128937202Y-85363247D01*
X128980325Y-85359000D01*
X130039675Y-85359000D01*
X130082798Y-85363247D01*
G37*
G36*
X198340757Y-87931868D02*
G01*
X198374568Y-87945873D01*
X198418281Y-87963979D01*
X198418284Y-87963981D01*
X198488056Y-88010601D01*
X198547393Y-88069938D01*
X198553243Y-88078693D01*
X198594015Y-88139713D01*
X198600392Y-88155110D01*
X198626126Y-88217237D01*
X198642497Y-88299540D01*
X198642497Y-88383454D01*
X198626126Y-88465757D01*
X198612121Y-88499568D01*
X198594015Y-88543281D01*
X198594013Y-88543284D01*
X198547393Y-88613056D01*
X198488056Y-88672393D01*
X198459463Y-88691498D01*
X198418281Y-88719015D01*
X198374568Y-88737121D01*
X198340757Y-88751126D01*
X198258454Y-88767497D01*
X198174540Y-88767497D01*
X198092237Y-88751126D01*
X198058426Y-88737121D01*
X198014713Y-88719015D01*
X197973531Y-88691498D01*
X197944938Y-88672393D01*
X197885601Y-88613056D01*
X197838981Y-88543284D01*
X197838979Y-88543281D01*
X197820873Y-88499568D01*
X197806868Y-88465757D01*
X197790497Y-88383454D01*
X197790497Y-88299540D01*
X197806868Y-88217237D01*
X197832602Y-88155110D01*
X197838979Y-88139713D01*
X197879751Y-88078693D01*
X197885601Y-88069938D01*
X197944938Y-88010601D01*
X198014710Y-87963981D01*
X198014713Y-87963979D01*
X198058426Y-87945873D01*
X198092237Y-87931868D01*
X198174540Y-87915497D01*
X198258454Y-87915497D01*
X198340757Y-87931868D01*
G37*
G36*
X198111846Y-86750507D02*
G01*
X196625507Y-88236846D01*
X195280590Y-86891929D01*
X196766929Y-85405590D01*
X198111846Y-86750507D01*
G37*
G36*
X202990882Y-87033349D02*
G01*
X201964163Y-88060068D01*
X201184932Y-87280837D01*
X202211651Y-86254118D01*
X202990882Y-87033349D01*
G37*
G36*
X202000932Y-86043400D02*
G01*
X200974213Y-87070119D01*
X200194982Y-86290888D01*
X201221701Y-85264169D01*
X202000932Y-86043400D01*
G37*
G36*
X168754591Y-85978085D02*
G01*
X168788569Y-85988393D01*
X168819890Y-86005134D01*
X168847339Y-86027661D01*
X168869866Y-86055110D01*
X168886607Y-86086431D01*
X168896915Y-86120409D01*
X168901000Y-86161890D01*
X168901000Y-86838110D01*
X168896915Y-86879591D01*
X168886607Y-86913569D01*
X168869866Y-86944890D01*
X168847339Y-86972339D01*
X168819890Y-86994866D01*
X168788569Y-87011607D01*
X168754591Y-87021915D01*
X168713110Y-87026000D01*
X168111890Y-87026000D01*
X168070409Y-87021915D01*
X168036431Y-87011607D01*
X168005110Y-86994866D01*
X167977661Y-86972339D01*
X167955134Y-86944890D01*
X167938393Y-86913569D01*
X167928085Y-86879591D01*
X167924000Y-86838110D01*
X167924000Y-86161890D01*
X167928085Y-86120409D01*
X167938393Y-86086431D01*
X167955134Y-86055110D01*
X167977661Y-86027661D01*
X168005110Y-86005134D01*
X168036431Y-85988393D01*
X168070409Y-85978085D01*
X168111890Y-85974000D01*
X168713110Y-85974000D01*
X168754591Y-85978085D01*
G37*
G36*
X170329591Y-85978085D02*
G01*
X170363569Y-85988393D01*
X170394890Y-86005134D01*
X170422339Y-86027661D01*
X170444866Y-86055110D01*
X170461607Y-86086431D01*
X170471915Y-86120409D01*
X170476000Y-86161890D01*
X170476000Y-86838110D01*
X170471915Y-86879591D01*
X170461607Y-86913569D01*
X170444866Y-86944890D01*
X170422339Y-86972339D01*
X170394890Y-86994866D01*
X170363569Y-87011607D01*
X170329591Y-87021915D01*
X170288110Y-87026000D01*
X169686890Y-87026000D01*
X169645409Y-87021915D01*
X169611431Y-87011607D01*
X169580110Y-86994866D01*
X169552661Y-86972339D01*
X169530134Y-86944890D01*
X169513393Y-86913569D01*
X169503085Y-86879591D01*
X169499000Y-86838110D01*
X169499000Y-86161890D01*
X169503085Y-86120409D01*
X169513393Y-86086431D01*
X169530134Y-86055110D01*
X169552661Y-86027661D01*
X169580110Y-86005134D01*
X169611431Y-85988393D01*
X169645409Y-85978085D01*
X169686890Y-85974000D01*
X170288110Y-85974000D01*
X170329591Y-85978085D01*
G37*
G36*
X143346601Y-85749397D02*
G01*
X143385305Y-85757096D01*
X143417340Y-85770365D01*
X143494680Y-85802400D01*
X143593115Y-85868173D01*
X143676827Y-85951885D01*
X143742600Y-86050320D01*
X143757557Y-86086431D01*
X143787904Y-86159695D01*
X143790073Y-86170599D01*
X143811000Y-86275805D01*
X143811000Y-86394195D01*
X143787904Y-86510304D01*
X143742600Y-86619680D01*
X143676827Y-86718115D01*
X143593115Y-86801827D01*
X143494680Y-86867600D01*
X143435943Y-86891929D01*
X143385305Y-86912904D01*
X143346601Y-86920603D01*
X143269195Y-86936000D01*
X143150805Y-86936000D01*
X143073399Y-86920603D01*
X143034695Y-86912904D01*
X142984057Y-86891929D01*
X142925320Y-86867600D01*
X142826885Y-86801827D01*
X142743173Y-86718115D01*
X142677400Y-86619680D01*
X142632096Y-86510304D01*
X142609000Y-86394195D01*
X142609000Y-86275805D01*
X142629927Y-86170599D01*
X142632096Y-86159695D01*
X142662443Y-86086431D01*
X142677400Y-86050320D01*
X142743173Y-85951885D01*
X142826885Y-85868173D01*
X142925320Y-85802400D01*
X143002660Y-85770365D01*
X143034695Y-85757096D01*
X143073399Y-85749397D01*
X143150805Y-85734000D01*
X143269195Y-85734000D01*
X143346601Y-85749397D01*
G37*
G36*
X157141000Y-86526000D02*
G01*
X154529000Y-86526000D01*
X154529000Y-85424000D01*
X157141000Y-85424000D01*
X157141000Y-86526000D01*
G37*
G36*
X180454591Y-85378085D02*
G01*
X180488569Y-85388393D01*
X180519890Y-85405134D01*
X180547339Y-85427661D01*
X180569866Y-85455110D01*
X180586607Y-85486431D01*
X180596915Y-85520409D01*
X180601000Y-85561890D01*
X180601000Y-86238110D01*
X180596915Y-86279591D01*
X180586607Y-86313569D01*
X180569866Y-86344890D01*
X180547339Y-86372339D01*
X180519890Y-86394866D01*
X180488569Y-86411607D01*
X180454591Y-86421915D01*
X180413110Y-86426000D01*
X179811890Y-86426000D01*
X179770409Y-86421915D01*
X179736431Y-86411607D01*
X179705110Y-86394866D01*
X179677661Y-86372339D01*
X179655134Y-86344890D01*
X179638393Y-86313569D01*
X179628085Y-86279591D01*
X179624000Y-86238110D01*
X179624000Y-85561890D01*
X179628085Y-85520409D01*
X179638393Y-85486431D01*
X179655134Y-85455110D01*
X179677661Y-85427661D01*
X179705110Y-85405134D01*
X179736431Y-85388393D01*
X179770409Y-85378085D01*
X179811890Y-85374000D01*
X180413110Y-85374000D01*
X180454591Y-85378085D01*
G37*
G36*
X182029591Y-85378085D02*
G01*
X182063569Y-85388393D01*
X182094890Y-85405134D01*
X182122339Y-85427661D01*
X182144866Y-85455110D01*
X182161607Y-85486431D01*
X182171915Y-85520409D01*
X182176000Y-85561890D01*
X182176000Y-86238110D01*
X182171915Y-86279591D01*
X182161607Y-86313569D01*
X182144866Y-86344890D01*
X182122339Y-86372339D01*
X182094890Y-86394866D01*
X182063569Y-86411607D01*
X182029591Y-86421915D01*
X181988110Y-86426000D01*
X181386890Y-86426000D01*
X181345409Y-86421915D01*
X181311431Y-86411607D01*
X181280110Y-86394866D01*
X181252661Y-86372339D01*
X181230134Y-86344890D01*
X181213393Y-86313569D01*
X181203085Y-86279591D01*
X181199000Y-86238110D01*
X181199000Y-85561890D01*
X181203085Y-85520409D01*
X181213393Y-85486431D01*
X181230134Y-85455110D01*
X181252661Y-85427661D01*
X181280110Y-85405134D01*
X181311431Y-85388393D01*
X181345409Y-85378085D01*
X181386890Y-85374000D01*
X181988110Y-85374000D01*
X182029591Y-85378085D01*
G37*
G36*
X204374000Y-85554000D02*
G01*
X202822000Y-85554000D01*
X202822000Y-83052000D01*
X204374000Y-83052000D01*
X204374000Y-85554000D01*
G37*
G36*
X210274000Y-85554000D02*
G01*
X208722000Y-85554000D01*
X208722000Y-83052000D01*
X210274000Y-83052000D01*
X210274000Y-85554000D01*
G37*
G36*
X148111000Y-85311000D02*
G01*
X146309000Y-85311000D01*
X146309000Y-83634000D01*
X148111000Y-83634000D01*
X148111000Y-85311000D01*
G37*
G36*
X162654591Y-83978085D02*
G01*
X162688569Y-83988393D01*
X162719890Y-84005134D01*
X162747339Y-84027661D01*
X162769866Y-84055110D01*
X162786607Y-84086431D01*
X162796915Y-84120409D01*
X162801000Y-84161890D01*
X162801000Y-84838110D01*
X162796915Y-84879591D01*
X162786607Y-84913569D01*
X162769866Y-84944890D01*
X162747339Y-84972339D01*
X162719890Y-84994866D01*
X162688569Y-85011607D01*
X162654591Y-85021915D01*
X162613110Y-85026000D01*
X162011890Y-85026000D01*
X161970409Y-85021915D01*
X161936431Y-85011607D01*
X161905110Y-84994866D01*
X161877661Y-84972339D01*
X161855134Y-84944890D01*
X161838393Y-84913569D01*
X161828085Y-84879591D01*
X161824000Y-84838110D01*
X161824000Y-84161890D01*
X161828085Y-84120409D01*
X161838393Y-84086431D01*
X161855134Y-84055110D01*
X161877661Y-84027661D01*
X161905110Y-84005134D01*
X161936431Y-83988393D01*
X161970409Y-83978085D01*
X162011890Y-83974000D01*
X162613110Y-83974000D01*
X162654591Y-83978085D01*
G37*
G36*
X164229591Y-83978085D02*
G01*
X164263569Y-83988393D01*
X164294890Y-84005134D01*
X164322339Y-84027661D01*
X164344866Y-84055110D01*
X164361607Y-84086431D01*
X164371915Y-84120409D01*
X164376000Y-84161890D01*
X164376000Y-84838110D01*
X164371915Y-84879591D01*
X164361607Y-84913569D01*
X164344866Y-84944890D01*
X164322339Y-84972339D01*
X164294890Y-84994866D01*
X164263569Y-85011607D01*
X164229591Y-85021915D01*
X164188110Y-85026000D01*
X163586890Y-85026000D01*
X163545409Y-85021915D01*
X163511431Y-85011607D01*
X163480110Y-84994866D01*
X163452661Y-84972339D01*
X163430134Y-84944890D01*
X163413393Y-84913569D01*
X163403085Y-84879591D01*
X163399000Y-84838110D01*
X163399000Y-84161890D01*
X163403085Y-84120409D01*
X163413393Y-84086431D01*
X163430134Y-84055110D01*
X163452661Y-84027661D01*
X163480110Y-84005134D01*
X163511431Y-83988393D01*
X163545409Y-83978085D01*
X163586890Y-83974000D01*
X164188110Y-83974000D01*
X164229591Y-83978085D01*
G37*
G36*
X175842091Y-83978085D02*
G01*
X175876069Y-83988393D01*
X175907390Y-84005134D01*
X175934839Y-84027661D01*
X175957366Y-84055110D01*
X175974107Y-84086431D01*
X175984415Y-84120409D01*
X175988500Y-84161890D01*
X175988500Y-84838110D01*
X175984415Y-84879591D01*
X175974107Y-84913569D01*
X175957366Y-84944890D01*
X175934839Y-84972339D01*
X175907390Y-84994866D01*
X175876069Y-85011607D01*
X175842091Y-85021915D01*
X175800610Y-85026000D01*
X175199390Y-85026000D01*
X175157909Y-85021915D01*
X175123931Y-85011607D01*
X175092610Y-84994866D01*
X175065161Y-84972339D01*
X175042634Y-84944890D01*
X175025893Y-84913569D01*
X175015585Y-84879591D01*
X175011500Y-84838110D01*
X175011500Y-84161890D01*
X175015585Y-84120409D01*
X175025893Y-84086431D01*
X175042634Y-84055110D01*
X175065161Y-84027661D01*
X175092610Y-84005134D01*
X175123931Y-83988393D01*
X175157909Y-83978085D01*
X175199390Y-83974000D01*
X175800610Y-83974000D01*
X175842091Y-83978085D01*
G37*
G36*
X173817091Y-83978085D02*
G01*
X173851069Y-83988393D01*
X173882390Y-84005134D01*
X173909839Y-84027661D01*
X173932366Y-84055110D01*
X173949107Y-84086431D01*
X173959415Y-84120409D01*
X173963500Y-84161890D01*
X173963500Y-84838110D01*
X173959415Y-84879591D01*
X173949107Y-84913569D01*
X173932366Y-84944890D01*
X173909839Y-84972339D01*
X173882390Y-84994866D01*
X173851069Y-85011607D01*
X173817091Y-85021915D01*
X173775610Y-85026000D01*
X173174390Y-85026000D01*
X173132909Y-85021915D01*
X173098931Y-85011607D01*
X173067610Y-84994866D01*
X173040161Y-84972339D01*
X173017634Y-84944890D01*
X173000893Y-84913569D01*
X172990585Y-84879591D01*
X172986500Y-84838110D01*
X172986500Y-84161890D01*
X172990585Y-84120409D01*
X173000893Y-84086431D01*
X173017634Y-84055110D01*
X173040161Y-84027661D01*
X173067610Y-84005134D01*
X173098931Y-83988393D01*
X173132909Y-83978085D01*
X173174390Y-83974000D01*
X173775610Y-83974000D01*
X173817091Y-83978085D01*
G37*
G36*
X185229591Y-83978085D02*
G01*
X185263569Y-83988393D01*
X185294890Y-84005134D01*
X185322339Y-84027661D01*
X185344866Y-84055110D01*
X185361607Y-84086431D01*
X185371915Y-84120409D01*
X185376000Y-84161890D01*
X185376000Y-84838110D01*
X185371915Y-84879591D01*
X185361607Y-84913569D01*
X185344866Y-84944890D01*
X185322339Y-84972339D01*
X185294890Y-84994866D01*
X185263569Y-85011607D01*
X185229591Y-85021915D01*
X185188110Y-85026000D01*
X184586890Y-85026000D01*
X184545409Y-85021915D01*
X184511431Y-85011607D01*
X184480110Y-84994866D01*
X184452661Y-84972339D01*
X184430134Y-84944890D01*
X184413393Y-84913569D01*
X184403085Y-84879591D01*
X184399000Y-84838110D01*
X184399000Y-84161890D01*
X184403085Y-84120409D01*
X184413393Y-84086431D01*
X184430134Y-84055110D01*
X184452661Y-84027661D01*
X184480110Y-84005134D01*
X184511431Y-83988393D01*
X184545409Y-83978085D01*
X184586890Y-83974000D01*
X185188110Y-83974000D01*
X185229591Y-83978085D01*
G37*
G36*
X183654591Y-83978085D02*
G01*
X183688569Y-83988393D01*
X183719890Y-84005134D01*
X183747339Y-84027661D01*
X183769866Y-84055110D01*
X183786607Y-84086431D01*
X183796915Y-84120409D01*
X183801000Y-84161890D01*
X183801000Y-84838110D01*
X183796915Y-84879591D01*
X183786607Y-84913569D01*
X183769866Y-84944890D01*
X183747339Y-84972339D01*
X183719890Y-84994866D01*
X183688569Y-85011607D01*
X183654591Y-85021915D01*
X183613110Y-85026000D01*
X183011890Y-85026000D01*
X182970409Y-85021915D01*
X182936431Y-85011607D01*
X182905110Y-84994866D01*
X182877661Y-84972339D01*
X182855134Y-84944890D01*
X182838393Y-84913569D01*
X182828085Y-84879591D01*
X182824000Y-84838110D01*
X182824000Y-84161890D01*
X182828085Y-84120409D01*
X182838393Y-84086431D01*
X182855134Y-84055110D01*
X182877661Y-84027661D01*
X182905110Y-84005134D01*
X182936431Y-83988393D01*
X182970409Y-83978085D01*
X183011890Y-83974000D01*
X183613110Y-83974000D01*
X183654591Y-83978085D01*
G37*
G36*
X168754591Y-83978085D02*
G01*
X168788569Y-83988393D01*
X168819890Y-84005134D01*
X168847339Y-84027661D01*
X168869866Y-84055110D01*
X168886607Y-84086431D01*
X168896915Y-84120409D01*
X168901000Y-84161890D01*
X168901000Y-84838110D01*
X168896915Y-84879591D01*
X168886607Y-84913569D01*
X168869866Y-84944890D01*
X168847339Y-84972339D01*
X168819890Y-84994866D01*
X168788569Y-85011607D01*
X168754591Y-85021915D01*
X168713110Y-85026000D01*
X168111890Y-85026000D01*
X168070409Y-85021915D01*
X168036431Y-85011607D01*
X168005110Y-84994866D01*
X167977661Y-84972339D01*
X167955134Y-84944890D01*
X167938393Y-84913569D01*
X167928085Y-84879591D01*
X167924000Y-84838110D01*
X167924000Y-84161890D01*
X167928085Y-84120409D01*
X167938393Y-84086431D01*
X167955134Y-84055110D01*
X167977661Y-84027661D01*
X168005110Y-84005134D01*
X168036431Y-83988393D01*
X168070409Y-83978085D01*
X168111890Y-83974000D01*
X168713110Y-83974000D01*
X168754591Y-83978085D01*
G37*
G36*
X170329591Y-83978085D02*
G01*
X170363569Y-83988393D01*
X170394890Y-84005134D01*
X170422339Y-84027661D01*
X170444866Y-84055110D01*
X170461607Y-84086431D01*
X170471915Y-84120409D01*
X170476000Y-84161890D01*
X170476000Y-84838110D01*
X170471915Y-84879591D01*
X170461607Y-84913569D01*
X170444866Y-84944890D01*
X170422339Y-84972339D01*
X170394890Y-84994866D01*
X170363569Y-85011607D01*
X170329591Y-85021915D01*
X170288110Y-85026000D01*
X169686890Y-85026000D01*
X169645409Y-85021915D01*
X169611431Y-85011607D01*
X169580110Y-84994866D01*
X169552661Y-84972339D01*
X169530134Y-84944890D01*
X169513393Y-84913569D01*
X169503085Y-84879591D01*
X169499000Y-84838110D01*
X169499000Y-84161890D01*
X169503085Y-84120409D01*
X169513393Y-84086431D01*
X169530134Y-84055110D01*
X169552661Y-84027661D01*
X169580110Y-84005134D01*
X169611431Y-83988393D01*
X169645409Y-83978085D01*
X169686890Y-83974000D01*
X170288110Y-83974000D01*
X170329591Y-83978085D01*
G37*
G36*
X177417091Y-83978085D02*
G01*
X177451069Y-83988393D01*
X177482390Y-84005134D01*
X177509839Y-84027661D01*
X177532366Y-84055110D01*
X177549107Y-84086431D01*
X177559415Y-84120409D01*
X177563500Y-84161890D01*
X177563500Y-84838110D01*
X177559415Y-84879591D01*
X177549107Y-84913569D01*
X177532366Y-84944890D01*
X177509839Y-84972339D01*
X177482390Y-84994866D01*
X177451069Y-85011607D01*
X177417091Y-85021915D01*
X177375610Y-85026000D01*
X176774390Y-85026000D01*
X176732909Y-85021915D01*
X176698931Y-85011607D01*
X176667610Y-84994866D01*
X176640161Y-84972339D01*
X176617634Y-84944890D01*
X176600893Y-84913569D01*
X176590585Y-84879591D01*
X176586500Y-84838110D01*
X176586500Y-84161890D01*
X176590585Y-84120409D01*
X176600893Y-84086431D01*
X176617634Y-84055110D01*
X176640161Y-84027661D01*
X176667610Y-84005134D01*
X176698931Y-83988393D01*
X176732909Y-83978085D01*
X176774390Y-83974000D01*
X177375610Y-83974000D01*
X177417091Y-83978085D01*
G37*
G36*
X172242091Y-83978085D02*
G01*
X172276069Y-83988393D01*
X172307390Y-84005134D01*
X172334839Y-84027661D01*
X172357366Y-84055110D01*
X172374107Y-84086431D01*
X172384415Y-84120409D01*
X172388500Y-84161890D01*
X172388500Y-84838110D01*
X172384415Y-84879591D01*
X172374107Y-84913569D01*
X172357366Y-84944890D01*
X172334839Y-84972339D01*
X172307390Y-84994866D01*
X172276069Y-85011607D01*
X172242091Y-85021915D01*
X172200610Y-85026000D01*
X171599390Y-85026000D01*
X171557909Y-85021915D01*
X171523931Y-85011607D01*
X171492610Y-84994866D01*
X171465161Y-84972339D01*
X171442634Y-84944890D01*
X171425893Y-84913569D01*
X171415585Y-84879591D01*
X171411500Y-84838110D01*
X171411500Y-84161890D01*
X171415585Y-84120409D01*
X171425893Y-84086431D01*
X171442634Y-84055110D01*
X171465161Y-84027661D01*
X171492610Y-84005134D01*
X171523931Y-83988393D01*
X171557909Y-83978085D01*
X171599390Y-83974000D01*
X172200610Y-83974000D01*
X172242091Y-83978085D01*
G37*
G36*
X127781000Y-84411000D02*
G01*
X126459000Y-84411000D01*
X126459000Y-83659000D01*
X127781000Y-83659000D01*
X127781000Y-84411000D01*
G37*
G36*
X125161000Y-84411000D02*
G01*
X123839000Y-84411000D01*
X123839000Y-81759000D01*
X125161000Y-81759000D01*
X125161000Y-84411000D01*
G37*
G36*
X131889591Y-83388085D02*
G01*
X131923569Y-83398393D01*
X131954890Y-83415134D01*
X131982339Y-83437661D01*
X132004866Y-83465110D01*
X132021607Y-83496431D01*
X132031915Y-83530409D01*
X132036000Y-83571890D01*
X132036000Y-84173110D01*
X132031915Y-84214591D01*
X132021607Y-84248569D01*
X132004866Y-84279890D01*
X131982339Y-84307339D01*
X131954890Y-84329866D01*
X131923569Y-84346607D01*
X131889591Y-84356915D01*
X131848110Y-84361000D01*
X131171890Y-84361000D01*
X131130409Y-84356915D01*
X131096431Y-84346607D01*
X131065110Y-84329866D01*
X131037661Y-84307339D01*
X131015134Y-84279890D01*
X130998393Y-84248569D01*
X130988085Y-84214591D01*
X130984000Y-84173110D01*
X130984000Y-83571890D01*
X130988085Y-83530409D01*
X130998393Y-83496431D01*
X131015134Y-83465110D01*
X131037661Y-83437661D01*
X131065110Y-83415134D01*
X131096431Y-83398393D01*
X131130409Y-83388085D01*
X131171890Y-83384000D01*
X131848110Y-83384000D01*
X131889591Y-83388085D01*
G37*
G36*
X133889591Y-83388085D02*
G01*
X133923569Y-83398393D01*
X133954890Y-83415134D01*
X133982339Y-83437661D01*
X134004866Y-83465110D01*
X134021607Y-83496431D01*
X134031915Y-83530409D01*
X134036000Y-83571890D01*
X134036000Y-84173110D01*
X134031915Y-84214591D01*
X134021607Y-84248569D01*
X134004866Y-84279890D01*
X133982339Y-84307339D01*
X133954890Y-84329866D01*
X133923569Y-84346607D01*
X133889591Y-84356915D01*
X133848110Y-84361000D01*
X133171890Y-84361000D01*
X133130409Y-84356915D01*
X133096431Y-84346607D01*
X133065110Y-84329866D01*
X133037661Y-84307339D01*
X133015134Y-84279890D01*
X132998393Y-84248569D01*
X132988085Y-84214591D01*
X132984000Y-84173110D01*
X132984000Y-83571890D01*
X132988085Y-83530409D01*
X132998393Y-83496431D01*
X133015134Y-83465110D01*
X133037661Y-83437661D01*
X133065110Y-83415134D01*
X133096431Y-83398393D01*
X133130409Y-83388085D01*
X133171890Y-83384000D01*
X133848110Y-83384000D01*
X133889591Y-83388085D01*
G37*
G36*
X160821000Y-83006000D02*
G01*
X159719000Y-83006000D01*
X159719000Y-79904000D01*
X160821000Y-79904000D01*
X160821000Y-83006000D01*
G37*
G36*
X153201000Y-83006000D02*
G01*
X152099000Y-83006000D01*
X152099000Y-79904000D01*
X153201000Y-79904000D01*
X153201000Y-83006000D01*
G37*
G36*
X155741000Y-83006000D02*
G01*
X154639000Y-83006000D01*
X154639000Y-79904000D01*
X155741000Y-79904000D01*
X155741000Y-83006000D01*
G37*
G36*
X158281000Y-83006000D02*
G01*
X157179000Y-83006000D01*
X157179000Y-79904000D01*
X158281000Y-79904000D01*
X158281000Y-83006000D01*
G37*
G36*
X131889591Y-81813085D02*
G01*
X131923569Y-81823393D01*
X131954890Y-81840134D01*
X131982339Y-81862661D01*
X132004866Y-81890110D01*
X132021607Y-81921431D01*
X132031915Y-81955409D01*
X132036000Y-81996890D01*
X132036000Y-82598110D01*
X132031915Y-82639591D01*
X132021607Y-82673569D01*
X132004866Y-82704890D01*
X131982339Y-82732339D01*
X131954890Y-82754866D01*
X131923569Y-82771607D01*
X131889591Y-82781915D01*
X131848110Y-82786000D01*
X131171890Y-82786000D01*
X131130409Y-82781915D01*
X131096431Y-82771607D01*
X131065110Y-82754866D01*
X131037661Y-82732339D01*
X131015134Y-82704890D01*
X130998393Y-82673569D01*
X130988085Y-82639591D01*
X130984000Y-82598110D01*
X130984000Y-81996890D01*
X130988085Y-81955409D01*
X130998393Y-81921431D01*
X131015134Y-81890110D01*
X131037661Y-81862661D01*
X131065110Y-81840134D01*
X131096431Y-81823393D01*
X131130409Y-81813085D01*
X131171890Y-81809000D01*
X131848110Y-81809000D01*
X131889591Y-81813085D01*
G37*
G36*
X133889591Y-81813085D02*
G01*
X133923569Y-81823393D01*
X133954890Y-81840134D01*
X133982339Y-81862661D01*
X134004866Y-81890110D01*
X134021607Y-81921431D01*
X134031915Y-81955409D01*
X134036000Y-81996890D01*
X134036000Y-82598110D01*
X134031915Y-82639591D01*
X134021607Y-82673569D01*
X134004866Y-82704890D01*
X133982339Y-82732339D01*
X133954890Y-82754866D01*
X133923569Y-82771607D01*
X133889591Y-82781915D01*
X133848110Y-82786000D01*
X133171890Y-82786000D01*
X133130409Y-82781915D01*
X133096431Y-82771607D01*
X133065110Y-82754866D01*
X133037661Y-82732339D01*
X133015134Y-82704890D01*
X132998393Y-82673569D01*
X132988085Y-82639591D01*
X132984000Y-82598110D01*
X132984000Y-81996890D01*
X132988085Y-81955409D01*
X132998393Y-81921431D01*
X133015134Y-81890110D01*
X133037661Y-81862661D01*
X133065110Y-81840134D01*
X133096431Y-81823393D01*
X133130409Y-81813085D01*
X133171890Y-81809000D01*
X133848110Y-81809000D01*
X133889591Y-81813085D01*
G37*
G36*
X164379591Y-81803085D02*
G01*
X164413569Y-81813393D01*
X164444890Y-81830134D01*
X164472339Y-81852661D01*
X164494866Y-81880110D01*
X164511607Y-81911431D01*
X164521915Y-81945409D01*
X164526000Y-81986890D01*
X164526000Y-82588110D01*
X164521915Y-82629591D01*
X164511607Y-82663569D01*
X164494866Y-82694890D01*
X164472339Y-82722339D01*
X164444890Y-82744866D01*
X164413569Y-82761607D01*
X164379591Y-82771915D01*
X164338110Y-82776000D01*
X163661890Y-82776000D01*
X163620409Y-82771915D01*
X163586431Y-82761607D01*
X163555110Y-82744866D01*
X163527661Y-82722339D01*
X163505134Y-82694890D01*
X163488393Y-82663569D01*
X163478085Y-82629591D01*
X163474000Y-82588110D01*
X163474000Y-81986890D01*
X163478085Y-81945409D01*
X163488393Y-81911431D01*
X163505134Y-81880110D01*
X163527661Y-81852661D01*
X163555110Y-81830134D01*
X163586431Y-81813393D01*
X163620409Y-81803085D01*
X163661890Y-81799000D01*
X164338110Y-81799000D01*
X164379591Y-81803085D01*
G37*
G36*
X173879591Y-81803085D02*
G01*
X173913569Y-81813393D01*
X173944890Y-81830134D01*
X173972339Y-81852661D01*
X173994866Y-81880110D01*
X174011607Y-81911431D01*
X174021915Y-81945409D01*
X174026000Y-81986890D01*
X174026000Y-82588110D01*
X174021915Y-82629591D01*
X174011607Y-82663569D01*
X173994866Y-82694890D01*
X173972339Y-82722339D01*
X173944890Y-82744866D01*
X173913569Y-82761607D01*
X173879591Y-82771915D01*
X173838110Y-82776000D01*
X173161890Y-82776000D01*
X173120409Y-82771915D01*
X173086431Y-82761607D01*
X173055110Y-82744866D01*
X173027661Y-82722339D01*
X173005134Y-82694890D01*
X172988393Y-82663569D01*
X172978085Y-82629591D01*
X172974000Y-82588110D01*
X172974000Y-81986890D01*
X172978085Y-81945409D01*
X172988393Y-81911431D01*
X173005134Y-81880110D01*
X173027661Y-81852661D01*
X173055110Y-81830134D01*
X173086431Y-81813393D01*
X173120409Y-81803085D01*
X173161890Y-81799000D01*
X173838110Y-81799000D01*
X173879591Y-81803085D01*
G37*
G36*
X175879591Y-81803085D02*
G01*
X175913569Y-81813393D01*
X175944890Y-81830134D01*
X175972339Y-81852661D01*
X175994866Y-81880110D01*
X176011607Y-81911431D01*
X176021915Y-81945409D01*
X176026000Y-81986890D01*
X176026000Y-82588110D01*
X176021915Y-82629591D01*
X176011607Y-82663569D01*
X175994866Y-82694890D01*
X175972339Y-82722339D01*
X175944890Y-82744866D01*
X175913569Y-82761607D01*
X175879591Y-82771915D01*
X175838110Y-82776000D01*
X175161890Y-82776000D01*
X175120409Y-82771915D01*
X175086431Y-82761607D01*
X175055110Y-82744866D01*
X175027661Y-82722339D01*
X175005134Y-82694890D01*
X174988393Y-82663569D01*
X174978085Y-82629591D01*
X174974000Y-82588110D01*
X174974000Y-81986890D01*
X174978085Y-81945409D01*
X174988393Y-81911431D01*
X175005134Y-81880110D01*
X175027661Y-81852661D01*
X175055110Y-81830134D01*
X175086431Y-81813393D01*
X175120409Y-81803085D01*
X175161890Y-81799000D01*
X175838110Y-81799000D01*
X175879591Y-81803085D01*
G37*
G36*
X171879591Y-81803085D02*
G01*
X171913569Y-81813393D01*
X171944890Y-81830134D01*
X171972339Y-81852661D01*
X171994866Y-81880110D01*
X172011607Y-81911431D01*
X172021915Y-81945409D01*
X172026000Y-81986890D01*
X172026000Y-82588110D01*
X172021915Y-82629591D01*
X172011607Y-82663569D01*
X171994866Y-82694890D01*
X171972339Y-82722339D01*
X171944890Y-82744866D01*
X171913569Y-82761607D01*
X171879591Y-82771915D01*
X171838110Y-82776000D01*
X171161890Y-82776000D01*
X171120409Y-82771915D01*
X171086431Y-82761607D01*
X171055110Y-82744866D01*
X171027661Y-82722339D01*
X171005134Y-82694890D01*
X170988393Y-82663569D01*
X170978085Y-82629591D01*
X170974000Y-82588110D01*
X170974000Y-81986890D01*
X170978085Y-81945409D01*
X170988393Y-81911431D01*
X171005134Y-81880110D01*
X171027661Y-81852661D01*
X171055110Y-81830134D01*
X171086431Y-81813393D01*
X171120409Y-81803085D01*
X171161890Y-81799000D01*
X171838110Y-81799000D01*
X171879591Y-81803085D01*
G37*
G36*
X183379591Y-81790585D02*
G01*
X183413569Y-81800893D01*
X183444890Y-81817634D01*
X183472339Y-81840161D01*
X183494866Y-81867610D01*
X183511607Y-81898931D01*
X183521915Y-81932909D01*
X183526000Y-81974390D01*
X183526000Y-82575610D01*
X183521915Y-82617091D01*
X183511607Y-82651069D01*
X183494866Y-82682390D01*
X183472339Y-82709839D01*
X183444890Y-82732366D01*
X183413569Y-82749107D01*
X183379591Y-82759415D01*
X183338110Y-82763500D01*
X182661890Y-82763500D01*
X182620409Y-82759415D01*
X182586431Y-82749107D01*
X182555110Y-82732366D01*
X182527661Y-82709839D01*
X182505134Y-82682390D01*
X182488393Y-82651069D01*
X182478085Y-82617091D01*
X182474000Y-82575610D01*
X182474000Y-81974390D01*
X182478085Y-81932909D01*
X182488393Y-81898931D01*
X182505134Y-81867610D01*
X182527661Y-81840161D01*
X182555110Y-81817634D01*
X182586431Y-81800893D01*
X182620409Y-81790585D01*
X182661890Y-81786500D01*
X183338110Y-81786500D01*
X183379591Y-81790585D01*
G37*
G36*
X185479591Y-81790585D02*
G01*
X185513569Y-81800893D01*
X185544890Y-81817634D01*
X185572339Y-81840161D01*
X185594866Y-81867610D01*
X185611607Y-81898931D01*
X185621915Y-81932909D01*
X185626000Y-81974390D01*
X185626000Y-82575610D01*
X185621915Y-82617091D01*
X185611607Y-82651069D01*
X185594866Y-82682390D01*
X185572339Y-82709839D01*
X185544890Y-82732366D01*
X185513569Y-82749107D01*
X185479591Y-82759415D01*
X185438110Y-82763500D01*
X184761890Y-82763500D01*
X184720409Y-82759415D01*
X184686431Y-82749107D01*
X184655110Y-82732366D01*
X184627661Y-82709839D01*
X184605134Y-82682390D01*
X184588393Y-82651069D01*
X184578085Y-82617091D01*
X184574000Y-82575610D01*
X184574000Y-81974390D01*
X184578085Y-81932909D01*
X184588393Y-81898931D01*
X184605134Y-81867610D01*
X184627661Y-81840161D01*
X184655110Y-81817634D01*
X184686431Y-81800893D01*
X184720409Y-81790585D01*
X184761890Y-81786500D01*
X185438110Y-81786500D01*
X185479591Y-81790585D01*
G37*
G36*
X168771000Y-80026749D02*
G01*
X168773402Y-80051135D01*
X168780515Y-80074584D01*
X168792066Y-80096195D01*
X168807611Y-80115137D01*
X168819482Y-80123942D01*
X168818957Y-80124582D01*
X168836237Y-80138763D01*
X168842610Y-80146528D01*
X168847348Y-80155392D01*
X168850263Y-80165001D01*
X168851852Y-80181140D01*
X168851852Y-80448149D01*
X168854254Y-80472535D01*
X168861367Y-80495984D01*
X168872918Y-80517595D01*
X168888463Y-80536537D01*
X168907405Y-80552082D01*
X168929016Y-80563633D01*
X168952465Y-80570746D01*
X168976851Y-80573148D01*
X169293860Y-80573148D01*
X169309999Y-80574737D01*
X169319608Y-80577652D01*
X169328472Y-80582390D01*
X169336237Y-80588763D01*
X169342610Y-80596528D01*
X169347348Y-80605392D01*
X169350263Y-80615001D01*
X169351852Y-80631140D01*
X169351852Y-80868860D01*
X169350263Y-80884999D01*
X169347348Y-80894608D01*
X169342610Y-80903472D01*
X169328469Y-80920703D01*
X169314856Y-80941078D01*
X169305479Y-80963717D01*
X169300699Y-80987750D01*
X169300699Y-81012254D01*
X169305480Y-81036287D01*
X169314858Y-81058926D01*
X169328469Y-81079297D01*
X169342610Y-81096528D01*
X169347348Y-81105392D01*
X169350263Y-81115001D01*
X169351852Y-81131140D01*
X169351852Y-81368860D01*
X169350263Y-81384999D01*
X169347348Y-81394608D01*
X169342610Y-81403472D01*
X169336237Y-81411237D01*
X169328472Y-81417610D01*
X169319608Y-81422348D01*
X169309999Y-81425263D01*
X169293860Y-81426852D01*
X168976851Y-81426852D01*
X168952465Y-81429254D01*
X168929016Y-81436367D01*
X168907405Y-81447918D01*
X168888463Y-81463463D01*
X168872918Y-81482405D01*
X168861367Y-81504016D01*
X168854254Y-81527465D01*
X168851852Y-81551851D01*
X168851852Y-81818860D01*
X168850263Y-81834999D01*
X168847348Y-81844608D01*
X168842610Y-81853472D01*
X168836237Y-81861237D01*
X168820925Y-81873803D01*
X168816693Y-81876631D01*
X168799368Y-81893960D01*
X168785755Y-81914335D01*
X168776380Y-81936974D01*
X168771000Y-81973251D01*
X168771000Y-82751000D01*
X166429000Y-82751000D01*
X166429000Y-81973251D01*
X166426598Y-81948865D01*
X166419485Y-81925416D01*
X166407934Y-81903805D01*
X166392389Y-81884863D01*
X166380518Y-81876058D01*
X166381043Y-81875418D01*
X166363763Y-81861237D01*
X166357390Y-81853472D01*
X166352652Y-81844608D01*
X166349737Y-81834999D01*
X166348148Y-81818860D01*
X166348148Y-81551851D01*
X166345746Y-81527465D01*
X166338633Y-81504016D01*
X166327082Y-81482405D01*
X166311537Y-81463463D01*
X166292595Y-81447918D01*
X166270984Y-81436367D01*
X166247535Y-81429254D01*
X166223149Y-81426852D01*
X165906140Y-81426852D01*
X165890001Y-81425263D01*
X165880392Y-81422348D01*
X165871528Y-81417610D01*
X165863763Y-81411237D01*
X165857390Y-81403472D01*
X165852652Y-81394608D01*
X165849737Y-81384999D01*
X165848148Y-81368860D01*
X165848148Y-81131140D01*
X165849737Y-81115001D01*
X165852652Y-81105392D01*
X165857390Y-81096528D01*
X165871531Y-81079297D01*
X165885144Y-81058922D01*
X165894521Y-81036283D01*
X165899301Y-81012250D01*
X165899301Y-80987746D01*
X165894520Y-80963713D01*
X165885142Y-80941074D01*
X165871531Y-80920703D01*
X165857390Y-80903472D01*
X165852652Y-80894608D01*
X165849737Y-80884999D01*
X165848148Y-80868860D01*
X165848148Y-80631140D01*
X165849737Y-80615001D01*
X165852652Y-80605392D01*
X165857390Y-80596528D01*
X165863763Y-80588763D01*
X165871528Y-80582390D01*
X165880392Y-80577652D01*
X165890001Y-80574737D01*
X165906140Y-80573148D01*
X166223149Y-80573148D01*
X166247535Y-80570746D01*
X166270984Y-80563633D01*
X166292595Y-80552082D01*
X166311537Y-80536537D01*
X166327082Y-80517595D01*
X166338633Y-80495984D01*
X166345746Y-80472535D01*
X166348148Y-80448149D01*
X166348148Y-80181140D01*
X166349737Y-80165001D01*
X166352652Y-80155392D01*
X166357390Y-80146528D01*
X166363763Y-80138763D01*
X166379075Y-80126197D01*
X166383307Y-80123369D01*
X166400632Y-80106040D01*
X166414245Y-80085665D01*
X166423620Y-80063026D01*
X166429000Y-80026749D01*
X166429000Y-79249000D01*
X168771000Y-79249000D01*
X168771000Y-80026749D01*
G37*
G36*
X180671000Y-80026749D02*
G01*
X180673402Y-80051135D01*
X180680515Y-80074584D01*
X180692066Y-80096195D01*
X180707611Y-80115137D01*
X180719482Y-80123942D01*
X180718957Y-80124582D01*
X180736237Y-80138763D01*
X180742610Y-80146528D01*
X180747348Y-80155392D01*
X180750263Y-80165001D01*
X180751852Y-80181140D01*
X180751852Y-80448149D01*
X180754254Y-80472535D01*
X180761367Y-80495984D01*
X180772918Y-80517595D01*
X180788463Y-80536537D01*
X180807405Y-80552082D01*
X180829016Y-80563633D01*
X180852465Y-80570746D01*
X180876851Y-80573148D01*
X181193860Y-80573148D01*
X181209999Y-80574737D01*
X181219608Y-80577652D01*
X181228472Y-80582390D01*
X181236237Y-80588763D01*
X181242610Y-80596528D01*
X181247348Y-80605392D01*
X181250263Y-80615001D01*
X181251852Y-80631140D01*
X181251852Y-80868860D01*
X181250263Y-80884999D01*
X181247348Y-80894608D01*
X181242610Y-80903472D01*
X181228469Y-80920703D01*
X181214856Y-80941078D01*
X181205479Y-80963717D01*
X181200699Y-80987750D01*
X181200699Y-81012254D01*
X181205480Y-81036287D01*
X181214858Y-81058926D01*
X181228469Y-81079297D01*
X181242610Y-81096528D01*
X181247348Y-81105392D01*
X181250263Y-81115001D01*
X181251852Y-81131140D01*
X181251852Y-81368860D01*
X181250263Y-81384999D01*
X181247348Y-81394608D01*
X181242610Y-81403472D01*
X181236237Y-81411237D01*
X181228472Y-81417610D01*
X181219608Y-81422348D01*
X181209999Y-81425263D01*
X181193860Y-81426852D01*
X180876851Y-81426852D01*
X180852465Y-81429254D01*
X180829016Y-81436367D01*
X180807405Y-81447918D01*
X180788463Y-81463463D01*
X180772918Y-81482405D01*
X180761367Y-81504016D01*
X180754254Y-81527465D01*
X180751852Y-81551851D01*
X180751852Y-81818860D01*
X180750263Y-81834999D01*
X180747348Y-81844608D01*
X180742610Y-81853472D01*
X180736237Y-81861237D01*
X180720925Y-81873803D01*
X180716693Y-81876631D01*
X180699368Y-81893960D01*
X180685755Y-81914335D01*
X180676380Y-81936974D01*
X180671000Y-81973251D01*
X180671000Y-82751000D01*
X178329000Y-82751000D01*
X178329000Y-81973251D01*
X178326598Y-81948865D01*
X178319485Y-81925416D01*
X178307934Y-81903805D01*
X178292389Y-81884863D01*
X178280518Y-81876058D01*
X178281043Y-81875418D01*
X178263763Y-81861237D01*
X178257390Y-81853472D01*
X178252652Y-81844608D01*
X178249737Y-81834999D01*
X178248148Y-81818860D01*
X178248148Y-81551851D01*
X178245746Y-81527465D01*
X178238633Y-81504016D01*
X178227082Y-81482405D01*
X178211537Y-81463463D01*
X178192595Y-81447918D01*
X178170984Y-81436367D01*
X178147535Y-81429254D01*
X178123149Y-81426852D01*
X177806140Y-81426852D01*
X177790001Y-81425263D01*
X177780392Y-81422348D01*
X177771528Y-81417610D01*
X177763763Y-81411237D01*
X177757390Y-81403472D01*
X177752652Y-81394608D01*
X177749737Y-81384999D01*
X177748148Y-81368860D01*
X177748148Y-81131140D01*
X177749737Y-81115001D01*
X177752652Y-81105392D01*
X177757390Y-81096528D01*
X177771531Y-81079297D01*
X177785144Y-81058922D01*
X177794521Y-81036283D01*
X177799301Y-81012250D01*
X177799301Y-80987746D01*
X177794520Y-80963713D01*
X177785142Y-80941074D01*
X177771531Y-80920703D01*
X177757390Y-80903472D01*
X177752652Y-80894608D01*
X177749737Y-80884999D01*
X177748148Y-80868860D01*
X177748148Y-80631140D01*
X177749737Y-80615001D01*
X177752652Y-80605392D01*
X177757390Y-80596528D01*
X177763763Y-80588763D01*
X177771528Y-80582390D01*
X177780392Y-80577652D01*
X177790001Y-80574737D01*
X177806140Y-80573148D01*
X178123149Y-80573148D01*
X178147535Y-80570746D01*
X178170984Y-80563633D01*
X178192595Y-80552082D01*
X178211537Y-80536537D01*
X178227082Y-80517595D01*
X178238633Y-80495984D01*
X178245746Y-80472535D01*
X178248148Y-80448149D01*
X178248148Y-80181140D01*
X178249737Y-80165001D01*
X178252652Y-80155392D01*
X178257390Y-80146528D01*
X178263763Y-80138763D01*
X178279075Y-80126197D01*
X178283307Y-80123369D01*
X178300632Y-80106040D01*
X178314245Y-80085665D01*
X178323620Y-80063026D01*
X178329000Y-80026749D01*
X178329000Y-79249000D01*
X180671000Y-79249000D01*
X180671000Y-80026749D01*
G37*
G36*
X127781000Y-82511000D02*
G01*
X126459000Y-82511000D01*
X126459000Y-81759000D01*
X127781000Y-81759000D01*
X127781000Y-82511000D01*
G37*
G36*
X196256000Y-82201000D02*
G01*
X195414000Y-82201000D01*
X195414000Y-79699000D01*
X196256000Y-79699000D01*
X196256000Y-82201000D01*
G37*
G36*
X194986000Y-82201000D02*
G01*
X194144000Y-82201000D01*
X194144000Y-79699000D01*
X194986000Y-79699000D01*
X194986000Y-82201000D01*
G37*
G36*
X193716000Y-82201000D02*
G01*
X192874000Y-82201000D01*
X192874000Y-79699000D01*
X193716000Y-79699000D01*
X193716000Y-82201000D01*
G37*
G36*
X191176000Y-82201000D02*
G01*
X190334000Y-82201000D01*
X190334000Y-79699000D01*
X191176000Y-79699000D01*
X191176000Y-82201000D01*
G37*
G36*
X189906000Y-82201000D02*
G01*
X189064000Y-82201000D01*
X189064000Y-79699000D01*
X189906000Y-79699000D01*
X189906000Y-82201000D01*
G37*
G36*
X188636000Y-82201000D02*
G01*
X187794000Y-82201000D01*
X187794000Y-79699000D01*
X188636000Y-79699000D01*
X188636000Y-82201000D01*
G37*
G36*
X192446000Y-82201000D02*
G01*
X191604000Y-82201000D01*
X191604000Y-79699000D01*
X192446000Y-79699000D01*
X192446000Y-82201000D01*
G37*
G36*
X164379591Y-80228085D02*
G01*
X164413569Y-80238393D01*
X164444890Y-80255134D01*
X164472339Y-80277661D01*
X164494866Y-80305110D01*
X164511607Y-80336431D01*
X164521915Y-80370409D01*
X164526000Y-80411890D01*
X164526000Y-81013110D01*
X164521915Y-81054591D01*
X164511607Y-81088569D01*
X164494866Y-81119890D01*
X164472339Y-81147339D01*
X164444890Y-81169866D01*
X164413569Y-81186607D01*
X164379591Y-81196915D01*
X164338110Y-81201000D01*
X163661890Y-81201000D01*
X163620409Y-81196915D01*
X163586431Y-81186607D01*
X163555110Y-81169866D01*
X163527661Y-81147339D01*
X163505134Y-81119890D01*
X163488393Y-81088569D01*
X163478085Y-81054591D01*
X163474000Y-81013110D01*
X163474000Y-80411890D01*
X163478085Y-80370409D01*
X163488393Y-80336431D01*
X163505134Y-80305110D01*
X163527661Y-80277661D01*
X163555110Y-80255134D01*
X163586431Y-80238393D01*
X163620409Y-80228085D01*
X163661890Y-80224000D01*
X164338110Y-80224000D01*
X164379591Y-80228085D01*
G37*
G36*
X175879591Y-80228085D02*
G01*
X175913569Y-80238393D01*
X175944890Y-80255134D01*
X175972339Y-80277661D01*
X175994866Y-80305110D01*
X176011607Y-80336431D01*
X176021915Y-80370409D01*
X176026000Y-80411890D01*
X176026000Y-81013110D01*
X176021915Y-81054591D01*
X176011607Y-81088569D01*
X175994866Y-81119890D01*
X175972339Y-81147339D01*
X175944890Y-81169866D01*
X175913569Y-81186607D01*
X175879591Y-81196915D01*
X175838110Y-81201000D01*
X175161890Y-81201000D01*
X175120409Y-81196915D01*
X175086431Y-81186607D01*
X175055110Y-81169866D01*
X175027661Y-81147339D01*
X175005134Y-81119890D01*
X174988393Y-81088569D01*
X174978085Y-81054591D01*
X174974000Y-81013110D01*
X174974000Y-80411890D01*
X174978085Y-80370409D01*
X174988393Y-80336431D01*
X175005134Y-80305110D01*
X175027661Y-80277661D01*
X175055110Y-80255134D01*
X175086431Y-80238393D01*
X175120409Y-80228085D01*
X175161890Y-80224000D01*
X175838110Y-80224000D01*
X175879591Y-80228085D01*
G37*
G36*
X171879591Y-80228085D02*
G01*
X171913569Y-80238393D01*
X171944890Y-80255134D01*
X171972339Y-80277661D01*
X171994866Y-80305110D01*
X172011607Y-80336431D01*
X172021915Y-80370409D01*
X172026000Y-80411890D01*
X172026000Y-81013110D01*
X172021915Y-81054591D01*
X172011607Y-81088569D01*
X171994866Y-81119890D01*
X171972339Y-81147339D01*
X171944890Y-81169866D01*
X171913569Y-81186607D01*
X171879591Y-81196915D01*
X171838110Y-81201000D01*
X171161890Y-81201000D01*
X171120409Y-81196915D01*
X171086431Y-81186607D01*
X171055110Y-81169866D01*
X171027661Y-81147339D01*
X171005134Y-81119890D01*
X170988393Y-81088569D01*
X170978085Y-81054591D01*
X170974000Y-81013110D01*
X170974000Y-80411890D01*
X170978085Y-80370409D01*
X170988393Y-80336431D01*
X171005134Y-80305110D01*
X171027661Y-80277661D01*
X171055110Y-80255134D01*
X171086431Y-80238393D01*
X171120409Y-80228085D01*
X171161890Y-80224000D01*
X171838110Y-80224000D01*
X171879591Y-80228085D01*
G37*
G36*
X173879591Y-80228085D02*
G01*
X173913569Y-80238393D01*
X173944890Y-80255134D01*
X173972339Y-80277661D01*
X173994866Y-80305110D01*
X174011607Y-80336431D01*
X174021915Y-80370409D01*
X174026000Y-80411890D01*
X174026000Y-81013110D01*
X174021915Y-81054591D01*
X174011607Y-81088569D01*
X173994866Y-81119890D01*
X173972339Y-81147339D01*
X173944890Y-81169866D01*
X173913569Y-81186607D01*
X173879591Y-81196915D01*
X173838110Y-81201000D01*
X173161890Y-81201000D01*
X173120409Y-81196915D01*
X173086431Y-81186607D01*
X173055110Y-81169866D01*
X173027661Y-81147339D01*
X173005134Y-81119890D01*
X172988393Y-81088569D01*
X172978085Y-81054591D01*
X172974000Y-81013110D01*
X172974000Y-80411890D01*
X172978085Y-80370409D01*
X172988393Y-80336431D01*
X173005134Y-80305110D01*
X173027661Y-80277661D01*
X173055110Y-80255134D01*
X173086431Y-80238393D01*
X173120409Y-80228085D01*
X173161890Y-80224000D01*
X173838110Y-80224000D01*
X173879591Y-80228085D01*
G37*
G36*
X185479591Y-80215585D02*
G01*
X185513569Y-80225893D01*
X185544890Y-80242634D01*
X185572339Y-80265161D01*
X185594866Y-80292610D01*
X185611607Y-80323931D01*
X185621915Y-80357909D01*
X185626000Y-80399390D01*
X185626000Y-81000610D01*
X185621915Y-81042091D01*
X185611607Y-81076069D01*
X185594866Y-81107390D01*
X185572339Y-81134839D01*
X185544890Y-81157366D01*
X185513569Y-81174107D01*
X185479591Y-81184415D01*
X185438110Y-81188500D01*
X184761890Y-81188500D01*
X184720409Y-81184415D01*
X184686431Y-81174107D01*
X184655110Y-81157366D01*
X184627661Y-81134839D01*
X184605134Y-81107390D01*
X184588393Y-81076069D01*
X184578085Y-81042091D01*
X184574000Y-81000610D01*
X184574000Y-80399390D01*
X184578085Y-80357909D01*
X184588393Y-80323931D01*
X184605134Y-80292610D01*
X184627661Y-80265161D01*
X184655110Y-80242634D01*
X184686431Y-80225893D01*
X184720409Y-80215585D01*
X184761890Y-80211500D01*
X185438110Y-80211500D01*
X185479591Y-80215585D01*
G37*
G36*
X183379591Y-80215585D02*
G01*
X183413569Y-80225893D01*
X183444890Y-80242634D01*
X183472339Y-80265161D01*
X183494866Y-80292610D01*
X183511607Y-80323931D01*
X183521915Y-80357909D01*
X183526000Y-80399390D01*
X183526000Y-81000610D01*
X183521915Y-81042091D01*
X183511607Y-81076069D01*
X183494866Y-81107390D01*
X183472339Y-81134839D01*
X183444890Y-81157366D01*
X183413569Y-81174107D01*
X183379591Y-81184415D01*
X183338110Y-81188500D01*
X182661890Y-81188500D01*
X182620409Y-81184415D01*
X182586431Y-81174107D01*
X182555110Y-81157366D01*
X182527661Y-81134839D01*
X182505134Y-81107390D01*
X182488393Y-81076069D01*
X182478085Y-81042091D01*
X182474000Y-81000610D01*
X182474000Y-80399390D01*
X182478085Y-80357909D01*
X182488393Y-80323931D01*
X182505134Y-80292610D01*
X182527661Y-80265161D01*
X182555110Y-80242634D01*
X182586431Y-80225893D01*
X182620409Y-80215585D01*
X182661890Y-80211500D01*
X183338110Y-80211500D01*
X183379591Y-80215585D01*
G37*
G36*
X203226000Y-80931000D02*
G01*
X200574000Y-80931000D01*
X200574000Y-79769000D01*
X203226000Y-79769000D01*
X203226000Y-80931000D01*
G37*
G36*
X133539591Y-79663085D02*
G01*
X133573569Y-79673393D01*
X133604890Y-79690134D01*
X133632339Y-79712661D01*
X133654866Y-79740110D01*
X133671607Y-79771431D01*
X133681915Y-79805409D01*
X133686000Y-79846890D01*
X133686000Y-80523110D01*
X133681915Y-80564591D01*
X133671607Y-80598569D01*
X133654866Y-80629890D01*
X133632339Y-80657339D01*
X133604890Y-80679866D01*
X133573569Y-80696607D01*
X133539591Y-80706915D01*
X133498110Y-80711000D01*
X132896890Y-80711000D01*
X132855409Y-80706915D01*
X132821431Y-80696607D01*
X132790110Y-80679866D01*
X132762661Y-80657339D01*
X132740134Y-80629890D01*
X132723393Y-80598569D01*
X132713085Y-80564591D01*
X132709000Y-80523110D01*
X132709000Y-79846890D01*
X132713085Y-79805409D01*
X132723393Y-79771431D01*
X132740134Y-79740110D01*
X132762661Y-79712661D01*
X132790110Y-79690134D01*
X132821431Y-79673393D01*
X132855409Y-79663085D01*
X132896890Y-79659000D01*
X133498110Y-79659000D01*
X133539591Y-79663085D01*
G37*
G36*
X131964591Y-79663085D02*
G01*
X131998569Y-79673393D01*
X132029890Y-79690134D01*
X132057339Y-79712661D01*
X132079866Y-79740110D01*
X132096607Y-79771431D01*
X132106915Y-79805409D01*
X132111000Y-79846890D01*
X132111000Y-80523110D01*
X132106915Y-80564591D01*
X132096607Y-80598569D01*
X132079866Y-80629890D01*
X132057339Y-80657339D01*
X132029890Y-80679866D01*
X131998569Y-80696607D01*
X131964591Y-80706915D01*
X131923110Y-80711000D01*
X131321890Y-80711000D01*
X131280409Y-80706915D01*
X131246431Y-80696607D01*
X131215110Y-80679866D01*
X131187661Y-80657339D01*
X131165134Y-80629890D01*
X131148393Y-80598569D01*
X131138085Y-80564591D01*
X131134000Y-80523110D01*
X131134000Y-79846890D01*
X131138085Y-79805409D01*
X131148393Y-79771431D01*
X131165134Y-79740110D01*
X131187661Y-79712661D01*
X131215110Y-79690134D01*
X131246431Y-79673393D01*
X131280409Y-79663085D01*
X131321890Y-79659000D01*
X131923110Y-79659000D01*
X131964591Y-79663085D01*
G37*
G36*
X199129591Y-79678085D02*
G01*
X199163569Y-79688393D01*
X199194890Y-79705134D01*
X199222339Y-79727661D01*
X199244866Y-79755110D01*
X199261607Y-79786431D01*
X199271915Y-79820409D01*
X199276000Y-79861890D01*
X199276000Y-80463110D01*
X199271915Y-80504591D01*
X199261607Y-80538569D01*
X199244866Y-80569890D01*
X199222339Y-80597339D01*
X199194890Y-80619866D01*
X199163569Y-80636607D01*
X199129591Y-80646915D01*
X199088110Y-80651000D01*
X198411890Y-80651000D01*
X198370409Y-80646915D01*
X198336431Y-80636607D01*
X198305110Y-80619866D01*
X198277661Y-80597339D01*
X198255134Y-80569890D01*
X198238393Y-80538569D01*
X198228085Y-80504591D01*
X198224000Y-80463110D01*
X198224000Y-79861890D01*
X198228085Y-79820409D01*
X198238393Y-79786431D01*
X198255134Y-79755110D01*
X198277661Y-79727661D01*
X198305110Y-79705134D01*
X198336431Y-79688393D01*
X198370409Y-79678085D01*
X198411890Y-79674000D01*
X199088110Y-79674000D01*
X199129591Y-79678085D01*
G37*
G36*
X129479591Y-78703085D02*
G01*
X129513569Y-78713393D01*
X129544890Y-78730134D01*
X129572339Y-78752661D01*
X129594866Y-78780110D01*
X129611607Y-78811431D01*
X129621915Y-78845409D01*
X129626000Y-78886890D01*
X129626000Y-79488110D01*
X129621915Y-79529591D01*
X129611607Y-79563569D01*
X129594866Y-79594890D01*
X129572339Y-79622339D01*
X129544890Y-79644866D01*
X129513569Y-79661607D01*
X129479591Y-79671915D01*
X129438110Y-79676000D01*
X128761890Y-79676000D01*
X128720409Y-79671915D01*
X128686431Y-79661607D01*
X128655110Y-79644866D01*
X128627661Y-79622339D01*
X128605134Y-79594890D01*
X128588393Y-79563569D01*
X128578085Y-79529591D01*
X128574000Y-79488110D01*
X128574000Y-78886890D01*
X128578085Y-78845409D01*
X128588393Y-78811431D01*
X128605134Y-78780110D01*
X128627661Y-78752661D01*
X128655110Y-78730134D01*
X128686431Y-78713393D01*
X128720409Y-78703085D01*
X128761890Y-78699000D01*
X129438110Y-78699000D01*
X129479591Y-78703085D01*
G37*
G36*
X207685256Y-76076298D02*
G01*
X207791579Y-76097447D01*
X208092042Y-76221903D01*
X208362451Y-76402585D01*
X208592415Y-76632549D01*
X208773097Y-76902958D01*
X208897553Y-77203421D01*
X208904119Y-77236431D01*
X208961000Y-77522389D01*
X208961000Y-77847611D01*
X208939720Y-77954591D01*
X208897553Y-78166579D01*
X208863090Y-78249780D01*
X208805004Y-78390013D01*
X208773097Y-78467042D01*
X208592415Y-78737451D01*
X208362451Y-78967415D01*
X208092042Y-79148097D01*
X207791579Y-79272553D01*
X207685256Y-79293702D01*
X207472611Y-79336000D01*
X207147389Y-79336000D01*
X206934744Y-79293702D01*
X206828421Y-79272553D01*
X206527958Y-79148097D01*
X206257549Y-78967415D01*
X206027585Y-78737451D01*
X205846903Y-78467042D01*
X205814997Y-78390013D01*
X205756910Y-78249780D01*
X205722447Y-78166579D01*
X205680280Y-77954591D01*
X205659000Y-77847611D01*
X205659000Y-77522389D01*
X205715881Y-77236431D01*
X205722447Y-77203421D01*
X205846903Y-76902958D01*
X206027585Y-76632549D01*
X206257549Y-76402585D01*
X206527958Y-76221903D01*
X206828421Y-76097447D01*
X206934744Y-76076298D01*
X207147389Y-76034000D01*
X207472611Y-76034000D01*
X207685256Y-76076298D01*
G37*
G36*
X124685256Y-76076298D02*
G01*
X124791579Y-76097447D01*
X125092042Y-76221903D01*
X125362451Y-76402585D01*
X125592415Y-76632549D01*
X125773097Y-76902958D01*
X125897553Y-77203421D01*
X125904119Y-77236431D01*
X125961000Y-77522389D01*
X125961000Y-77847611D01*
X125939720Y-77954591D01*
X125897553Y-78166579D01*
X125863090Y-78249780D01*
X125805004Y-78390013D01*
X125773097Y-78467042D01*
X125592415Y-78737451D01*
X125362451Y-78967415D01*
X125092042Y-79148097D01*
X124791579Y-79272553D01*
X124685256Y-79293702D01*
X124472611Y-79336000D01*
X124147389Y-79336000D01*
X123934744Y-79293702D01*
X123828421Y-79272553D01*
X123527958Y-79148097D01*
X123257549Y-78967415D01*
X123027585Y-78737451D01*
X122846903Y-78467042D01*
X122814997Y-78390013D01*
X122756910Y-78249780D01*
X122722447Y-78166579D01*
X122680280Y-77954591D01*
X122659000Y-77847611D01*
X122659000Y-77522389D01*
X122715881Y-77236431D01*
X122722447Y-77203421D01*
X122846903Y-76902958D01*
X123027585Y-76632549D01*
X123257549Y-76402585D01*
X123527958Y-76221903D01*
X123828421Y-76097447D01*
X123934744Y-76076298D01*
X124147389Y-76034000D01*
X124472611Y-76034000D01*
X124685256Y-76076298D01*
G37*
G36*
X199129591Y-78103085D02*
G01*
X199163569Y-78113393D01*
X199194890Y-78130134D01*
X199222339Y-78152661D01*
X199244866Y-78180110D01*
X199261607Y-78211431D01*
X199271915Y-78245409D01*
X199276000Y-78286890D01*
X199276000Y-78888110D01*
X199271915Y-78929591D01*
X199261607Y-78963569D01*
X199244866Y-78994890D01*
X199222339Y-79022339D01*
X199194890Y-79044866D01*
X199163569Y-79061607D01*
X199129591Y-79071915D01*
X199088110Y-79076000D01*
X198411890Y-79076000D01*
X198370409Y-79071915D01*
X198336431Y-79061607D01*
X198305110Y-79044866D01*
X198277661Y-79022339D01*
X198255134Y-78994890D01*
X198238393Y-78963569D01*
X198228085Y-78929591D01*
X198224000Y-78888110D01*
X198224000Y-78286890D01*
X198228085Y-78245409D01*
X198238393Y-78211431D01*
X198255134Y-78180110D01*
X198277661Y-78152661D01*
X198305110Y-78130134D01*
X198336431Y-78113393D01*
X198370409Y-78103085D01*
X198411890Y-78099000D01*
X199088110Y-78099000D01*
X199129591Y-78103085D01*
G37*
G36*
X138728039Y-75477250D02*
G01*
X138917372Y-75555675D01*
X139051251Y-75611129D01*
X139342134Y-75805491D01*
X139589509Y-76052866D01*
X139783871Y-76343749D01*
X139829998Y-76455110D01*
X139917750Y-76666961D01*
X139986000Y-77010078D01*
X139986000Y-77359922D01*
X139917750Y-77703039D01*
X139852499Y-77860568D01*
X139783871Y-78026251D01*
X139589509Y-78317134D01*
X139342134Y-78564509D01*
X139051251Y-78758871D01*
X138999975Y-78780110D01*
X138728039Y-78892750D01*
X138384922Y-78961000D01*
X138035078Y-78961000D01*
X137691961Y-78892750D01*
X137420025Y-78780110D01*
X137368749Y-78758871D01*
X137077866Y-78564509D01*
X136830491Y-78317134D01*
X136636129Y-78026251D01*
X136567501Y-77860568D01*
X136502250Y-77703039D01*
X136434000Y-77359922D01*
X136434000Y-77010078D01*
X136502250Y-76666961D01*
X136590002Y-76455110D01*
X136636129Y-76343749D01*
X136830491Y-76052866D01*
X137077866Y-75805491D01*
X137368749Y-75611129D01*
X137502628Y-75555675D01*
X137691961Y-75477250D01*
X138035078Y-75409000D01*
X138384922Y-75409000D01*
X138728039Y-75477250D01*
G37*
G36*
X143036348Y-77401320D02*
G01*
X143036350Y-77401321D01*
X143036351Y-77401321D01*
X143177574Y-77459817D01*
X143177577Y-77459819D01*
X143304669Y-77544739D01*
X143412761Y-77652831D01*
X143446309Y-77703040D01*
X143497683Y-77779926D01*
X143518517Y-77830225D01*
X143530068Y-77851836D01*
X143545614Y-77870778D01*
X143564556Y-77886323D01*
X143586166Y-77897874D01*
X143609615Y-77904987D01*
X143634001Y-77907389D01*
X143658387Y-77904987D01*
X143681836Y-77897874D01*
X143703447Y-77886323D01*
X143722389Y-77870777D01*
X143737934Y-77851835D01*
X143749485Y-77830225D01*
X143756598Y-77806776D01*
X143759000Y-77782390D01*
X143759000Y-77421500D01*
X146861000Y-77421500D01*
X146861000Y-77782390D01*
X146863402Y-77806776D01*
X146870515Y-77830225D01*
X146882066Y-77851836D01*
X146897611Y-77870778D01*
X146916553Y-77886323D01*
X146938164Y-77897874D01*
X146961613Y-77904987D01*
X146985999Y-77907389D01*
X147010385Y-77904987D01*
X147033834Y-77897874D01*
X147055445Y-77886323D01*
X147074387Y-77870778D01*
X147089932Y-77851836D01*
X147101483Y-77830225D01*
X147122317Y-77779926D01*
X147173691Y-77703040D01*
X147207239Y-77652831D01*
X147315331Y-77544739D01*
X147442423Y-77459819D01*
X147442426Y-77459817D01*
X147583649Y-77401321D01*
X147583650Y-77401321D01*
X147583652Y-77401320D01*
X147733569Y-77371500D01*
X147886431Y-77371500D01*
X148036348Y-77401320D01*
X148036350Y-77401321D01*
X148036351Y-77401321D01*
X148177574Y-77459817D01*
X148177577Y-77459819D01*
X148304669Y-77544739D01*
X148412761Y-77652831D01*
X148467555Y-77734836D01*
X148497683Y-77779926D01*
X148550479Y-77907389D01*
X148556180Y-77921152D01*
X148586000Y-78071069D01*
X148586000Y-78223931D01*
X148571745Y-78295599D01*
X148556179Y-78373851D01*
X148497683Y-78515074D01*
X148497682Y-78515075D01*
X148497681Y-78515077D01*
X148412761Y-78642169D01*
X148304669Y-78750261D01*
X148213121Y-78811431D01*
X148177574Y-78835183D01*
X148036351Y-78893679D01*
X148036350Y-78893679D01*
X148036348Y-78893680D01*
X147886431Y-78923500D01*
X147733569Y-78923500D01*
X147583652Y-78893680D01*
X147583650Y-78893679D01*
X147583649Y-78893679D01*
X147442426Y-78835183D01*
X147406879Y-78811431D01*
X147315331Y-78750261D01*
X147207239Y-78642169D01*
X147122318Y-78515075D01*
X147122317Y-78515074D01*
X147101481Y-78464772D01*
X147089932Y-78443164D01*
X147074386Y-78424222D01*
X147055444Y-78408677D01*
X147033834Y-78397126D01*
X147010385Y-78390013D01*
X146985999Y-78387611D01*
X146961613Y-78390013D01*
X146938164Y-78397126D01*
X146916553Y-78408677D01*
X146897611Y-78424223D01*
X146882066Y-78443165D01*
X146870515Y-78464775D01*
X146863402Y-78488224D01*
X146861000Y-78512610D01*
X146861000Y-78873500D01*
X143759000Y-78873500D01*
X143759000Y-78512610D01*
X143756598Y-78488224D01*
X143749485Y-78464775D01*
X143737934Y-78443164D01*
X143722389Y-78424222D01*
X143703447Y-78408677D01*
X143681836Y-78397126D01*
X143658387Y-78390013D01*
X143634001Y-78387611D01*
X143609615Y-78390013D01*
X143586166Y-78397126D01*
X143564555Y-78408677D01*
X143545613Y-78424222D01*
X143530068Y-78443164D01*
X143518519Y-78464772D01*
X143497683Y-78515074D01*
X143497682Y-78515075D01*
X143412761Y-78642169D01*
X143304669Y-78750261D01*
X143213121Y-78811431D01*
X143177574Y-78835183D01*
X143036351Y-78893679D01*
X143036350Y-78893679D01*
X143036348Y-78893680D01*
X142886431Y-78923500D01*
X142733569Y-78923500D01*
X142583652Y-78893680D01*
X142583650Y-78893679D01*
X142583649Y-78893679D01*
X142442426Y-78835183D01*
X142406879Y-78811431D01*
X142315331Y-78750261D01*
X142207239Y-78642169D01*
X142122319Y-78515077D01*
X142122318Y-78515075D01*
X142122317Y-78515074D01*
X142063821Y-78373851D01*
X142048256Y-78295599D01*
X142034000Y-78223931D01*
X142034000Y-78071069D01*
X142063820Y-77921152D01*
X142069521Y-77907389D01*
X142122317Y-77779926D01*
X142152445Y-77734836D01*
X142207239Y-77652831D01*
X142315331Y-77544739D01*
X142442423Y-77459819D01*
X142442426Y-77459817D01*
X142583649Y-77401321D01*
X142583650Y-77401321D01*
X142583652Y-77401320D01*
X142733569Y-77371500D01*
X142886431Y-77371500D01*
X143036348Y-77401320D01*
G37*
G36*
X203226000Y-78731000D02*
G01*
X200574000Y-78731000D01*
X200574000Y-77569000D01*
X203226000Y-77569000D01*
X203226000Y-78731000D01*
G37*
G36*
X192446000Y-78301000D02*
G01*
X191604000Y-78301000D01*
X191604000Y-75799000D01*
X192446000Y-75799000D01*
X192446000Y-78301000D01*
G37*
G36*
X191176000Y-78301000D02*
G01*
X190334000Y-78301000D01*
X190334000Y-75799000D01*
X191176000Y-75799000D01*
X191176000Y-78301000D01*
G37*
G36*
X188636000Y-78301000D02*
G01*
X187794000Y-78301000D01*
X187794000Y-75799000D01*
X188636000Y-75799000D01*
X188636000Y-78301000D01*
G37*
G36*
X189906000Y-78301000D02*
G01*
X189064000Y-78301000D01*
X189064000Y-75799000D01*
X189906000Y-75799000D01*
X189906000Y-78301000D01*
G37*
G36*
X193716000Y-78301000D02*
G01*
X192874000Y-78301000D01*
X192874000Y-75799000D01*
X193716000Y-75799000D01*
X193716000Y-78301000D01*
G37*
G36*
X194986000Y-78301000D02*
G01*
X194144000Y-78301000D01*
X194144000Y-75799000D01*
X194986000Y-75799000D01*
X194986000Y-78301000D01*
G37*
G36*
X196256000Y-78301000D02*
G01*
X195414000Y-78301000D01*
X195414000Y-75799000D01*
X196256000Y-75799000D01*
X196256000Y-78301000D01*
G37*
G36*
X129479591Y-77128085D02*
G01*
X129513569Y-77138393D01*
X129544890Y-77155134D01*
X129572339Y-77177661D01*
X129594866Y-77205110D01*
X129611607Y-77236431D01*
X129621915Y-77270409D01*
X129626000Y-77311890D01*
X129626000Y-77913110D01*
X129621915Y-77954591D01*
X129611607Y-77988569D01*
X129594866Y-78019890D01*
X129572339Y-78047339D01*
X129544890Y-78069866D01*
X129513569Y-78086607D01*
X129479591Y-78096915D01*
X129438110Y-78101000D01*
X128761890Y-78101000D01*
X128720409Y-78096915D01*
X128686431Y-78086607D01*
X128655110Y-78069866D01*
X128627661Y-78047339D01*
X128605134Y-78019890D01*
X128588393Y-77988569D01*
X128578085Y-77954591D01*
X128574000Y-77913110D01*
X128574000Y-77311890D01*
X128578085Y-77270409D01*
X128588393Y-77236431D01*
X128605134Y-77205110D01*
X128627661Y-77177661D01*
X128655110Y-77155134D01*
X128686431Y-77138393D01*
X128720409Y-77128085D01*
X128761890Y-77124000D01*
X129438110Y-77124000D01*
X129479591Y-77128085D01*
G37*
G36*
X155741000Y-77966000D02*
G01*
X154639000Y-77966000D01*
X154639000Y-74864000D01*
X155741000Y-74864000D01*
X155741000Y-77966000D01*
G37*
G36*
X153201000Y-77966000D02*
G01*
X152099000Y-77966000D01*
X152099000Y-74864000D01*
X153201000Y-74864000D01*
X153201000Y-77966000D01*
G37*
G36*
X158281000Y-77966000D02*
G01*
X157179000Y-77966000D01*
X157179000Y-74864000D01*
X158281000Y-74864000D01*
X158281000Y-77966000D01*
G37*
G36*
X160821000Y-77966000D02*
G01*
X159719000Y-77966000D01*
X159719000Y-74864000D01*
X160821000Y-74864000D01*
X160821000Y-77966000D01*
G37*
G36*
X169518604Y-75128347D02*
G01*
X169555144Y-75139432D01*
X169588821Y-75157433D01*
X169618341Y-75181659D01*
X169642567Y-75211179D01*
X169660568Y-75244856D01*
X169671653Y-75281396D01*
X169676000Y-75325538D01*
X169676000Y-77674462D01*
X169671653Y-77718604D01*
X169660568Y-77755144D01*
X169642567Y-77788821D01*
X169618341Y-77818341D01*
X169588821Y-77842567D01*
X169555144Y-77860568D01*
X169518604Y-77871653D01*
X169474462Y-77876000D01*
X168525538Y-77876000D01*
X168481396Y-77871653D01*
X168444856Y-77860568D01*
X168411179Y-77842567D01*
X168381659Y-77818341D01*
X168357433Y-77788821D01*
X168339432Y-77755144D01*
X168328347Y-77718604D01*
X168324000Y-77674462D01*
X168324000Y-75325538D01*
X168328347Y-75281396D01*
X168339432Y-75244856D01*
X168357433Y-75211179D01*
X168381659Y-75181659D01*
X168411179Y-75157433D01*
X168444856Y-75139432D01*
X168481396Y-75128347D01*
X168525538Y-75124000D01*
X169474462Y-75124000D01*
X169518604Y-75128347D01*
G37*
G36*
X166718604Y-75128347D02*
G01*
X166755144Y-75139432D01*
X166788821Y-75157433D01*
X166818341Y-75181659D01*
X166842567Y-75211179D01*
X166860568Y-75244856D01*
X166871653Y-75281396D01*
X166876000Y-75325538D01*
X166876000Y-77674462D01*
X166871653Y-77718604D01*
X166860568Y-77755144D01*
X166842567Y-77788821D01*
X166818341Y-77818341D01*
X166788821Y-77842567D01*
X166755144Y-77860568D01*
X166718604Y-77871653D01*
X166674462Y-77876000D01*
X165725538Y-77876000D01*
X165681396Y-77871653D01*
X165644856Y-77860568D01*
X165611179Y-77842567D01*
X165581659Y-77818341D01*
X165557433Y-77788821D01*
X165539432Y-77755144D01*
X165528347Y-77718604D01*
X165524000Y-77674462D01*
X165524000Y-75325538D01*
X165528347Y-75281396D01*
X165539432Y-75244856D01*
X165557433Y-75211179D01*
X165581659Y-75181659D01*
X165611179Y-75157433D01*
X165644856Y-75139432D01*
X165681396Y-75128347D01*
X165725538Y-75124000D01*
X166674462Y-75124000D01*
X166718604Y-75128347D01*
G37*
G36*
X181318604Y-75128347D02*
G01*
X181355144Y-75139432D01*
X181388821Y-75157433D01*
X181418341Y-75181659D01*
X181442567Y-75211179D01*
X181460568Y-75244856D01*
X181471653Y-75281396D01*
X181476000Y-75325538D01*
X181476000Y-77674462D01*
X181471653Y-77718604D01*
X181460568Y-77755144D01*
X181442567Y-77788821D01*
X181418341Y-77818341D01*
X181388821Y-77842567D01*
X181355144Y-77860568D01*
X181318604Y-77871653D01*
X181274462Y-77876000D01*
X180325538Y-77876000D01*
X180281396Y-77871653D01*
X180244856Y-77860568D01*
X180211179Y-77842567D01*
X180181659Y-77818341D01*
X180157433Y-77788821D01*
X180139432Y-77755144D01*
X180128347Y-77718604D01*
X180124000Y-77674462D01*
X180124000Y-75325538D01*
X180128347Y-75281396D01*
X180139432Y-75244856D01*
X180157433Y-75211179D01*
X180181659Y-75181659D01*
X180211179Y-75157433D01*
X180244856Y-75139432D01*
X180281396Y-75128347D01*
X180325538Y-75124000D01*
X181274462Y-75124000D01*
X181318604Y-75128347D01*
G37*
G36*
X178518604Y-75128347D02*
G01*
X178555144Y-75139432D01*
X178588821Y-75157433D01*
X178618341Y-75181659D01*
X178642567Y-75211179D01*
X178660568Y-75244856D01*
X178671653Y-75281396D01*
X178676000Y-75325538D01*
X178676000Y-77674462D01*
X178671653Y-77718604D01*
X178660568Y-77755144D01*
X178642567Y-77788821D01*
X178618341Y-77818341D01*
X178588821Y-77842567D01*
X178555144Y-77860568D01*
X178518604Y-77871653D01*
X178474462Y-77876000D01*
X177525538Y-77876000D01*
X177481396Y-77871653D01*
X177444856Y-77860568D01*
X177411179Y-77842567D01*
X177381659Y-77818341D01*
X177357433Y-77788821D01*
X177339432Y-77755144D01*
X177328347Y-77718604D01*
X177324000Y-77674462D01*
X177324000Y-75325538D01*
X177328347Y-75281396D01*
X177339432Y-75244856D01*
X177357433Y-75211179D01*
X177381659Y-75181659D01*
X177411179Y-75157433D01*
X177444856Y-75139432D01*
X177481396Y-75128347D01*
X177525538Y-75124000D01*
X178474462Y-75124000D01*
X178518604Y-75128347D01*
G37*
G36*
X185479591Y-76803085D02*
G01*
X185513569Y-76813393D01*
X185544890Y-76830134D01*
X185572339Y-76852661D01*
X185594866Y-76880110D01*
X185611607Y-76911431D01*
X185621915Y-76945409D01*
X185626000Y-76986890D01*
X185626000Y-77588110D01*
X185621915Y-77629591D01*
X185611607Y-77663569D01*
X185594866Y-77694890D01*
X185572339Y-77722339D01*
X185544890Y-77744866D01*
X185513569Y-77761607D01*
X185479591Y-77771915D01*
X185438110Y-77776000D01*
X184761890Y-77776000D01*
X184720409Y-77771915D01*
X184686431Y-77761607D01*
X184655110Y-77744866D01*
X184627661Y-77722339D01*
X184605134Y-77694890D01*
X184588393Y-77663569D01*
X184578085Y-77629591D01*
X184574000Y-77588110D01*
X184574000Y-76986890D01*
X184578085Y-76945409D01*
X184588393Y-76911431D01*
X184605134Y-76880110D01*
X184627661Y-76852661D01*
X184655110Y-76830134D01*
X184686431Y-76813393D01*
X184720409Y-76803085D01*
X184761890Y-76799000D01*
X185438110Y-76799000D01*
X185479591Y-76803085D01*
G37*
G36*
X164379591Y-76803085D02*
G01*
X164413569Y-76813393D01*
X164444890Y-76830134D01*
X164472339Y-76852661D01*
X164494866Y-76880110D01*
X164511607Y-76911431D01*
X164521915Y-76945409D01*
X164526000Y-76986890D01*
X164526000Y-77588110D01*
X164521915Y-77629591D01*
X164511607Y-77663569D01*
X164494866Y-77694890D01*
X164472339Y-77722339D01*
X164444890Y-77744866D01*
X164413569Y-77761607D01*
X164379591Y-77771915D01*
X164338110Y-77776000D01*
X163661890Y-77776000D01*
X163620409Y-77771915D01*
X163586431Y-77761607D01*
X163555110Y-77744866D01*
X163527661Y-77722339D01*
X163505134Y-77694890D01*
X163488393Y-77663569D01*
X163478085Y-77629591D01*
X163474000Y-77588110D01*
X163474000Y-76986890D01*
X163478085Y-76945409D01*
X163488393Y-76911431D01*
X163505134Y-76880110D01*
X163527661Y-76852661D01*
X163555110Y-76830134D01*
X163586431Y-76813393D01*
X163620409Y-76803085D01*
X163661890Y-76799000D01*
X164338110Y-76799000D01*
X164379591Y-76803085D01*
G37*
G36*
X175879591Y-76803085D02*
G01*
X175913569Y-76813393D01*
X175944890Y-76830134D01*
X175972339Y-76852661D01*
X175994866Y-76880110D01*
X176011607Y-76911431D01*
X176021915Y-76945409D01*
X176026000Y-76986890D01*
X176026000Y-77588110D01*
X176021915Y-77629591D01*
X176011607Y-77663569D01*
X175994866Y-77694890D01*
X175972339Y-77722339D01*
X175944890Y-77744866D01*
X175913569Y-77761607D01*
X175879591Y-77771915D01*
X175838110Y-77776000D01*
X175161890Y-77776000D01*
X175120409Y-77771915D01*
X175086431Y-77761607D01*
X175055110Y-77744866D01*
X175027661Y-77722339D01*
X175005134Y-77694890D01*
X174988393Y-77663569D01*
X174978085Y-77629591D01*
X174974000Y-77588110D01*
X174974000Y-76986890D01*
X174978085Y-76945409D01*
X174988393Y-76911431D01*
X175005134Y-76880110D01*
X175027661Y-76852661D01*
X175055110Y-76830134D01*
X175086431Y-76813393D01*
X175120409Y-76803085D01*
X175161890Y-76799000D01*
X175838110Y-76799000D01*
X175879591Y-76803085D01*
G37*
G36*
X171879591Y-76803085D02*
G01*
X171913569Y-76813393D01*
X171944890Y-76830134D01*
X171972339Y-76852661D01*
X171994866Y-76880110D01*
X172011607Y-76911431D01*
X172021915Y-76945409D01*
X172026000Y-76986890D01*
X172026000Y-77588110D01*
X172021915Y-77629591D01*
X172011607Y-77663569D01*
X171994866Y-77694890D01*
X171972339Y-77722339D01*
X171944890Y-77744866D01*
X171913569Y-77761607D01*
X171879591Y-77771915D01*
X171838110Y-77776000D01*
X171161890Y-77776000D01*
X171120409Y-77771915D01*
X171086431Y-77761607D01*
X171055110Y-77744866D01*
X171027661Y-77722339D01*
X171005134Y-77694890D01*
X170988393Y-77663569D01*
X170978085Y-77629591D01*
X170974000Y-77588110D01*
X170974000Y-76986890D01*
X170978085Y-76945409D01*
X170988393Y-76911431D01*
X171005134Y-76880110D01*
X171027661Y-76852661D01*
X171055110Y-76830134D01*
X171086431Y-76813393D01*
X171120409Y-76803085D01*
X171161890Y-76799000D01*
X171838110Y-76799000D01*
X171879591Y-76803085D01*
G37*
G36*
X183379591Y-76803085D02*
G01*
X183413569Y-76813393D01*
X183444890Y-76830134D01*
X183472339Y-76852661D01*
X183494866Y-76880110D01*
X183511607Y-76911431D01*
X183521915Y-76945409D01*
X183526000Y-76986890D01*
X183526000Y-77588110D01*
X183521915Y-77629591D01*
X183511607Y-77663569D01*
X183494866Y-77694890D01*
X183472339Y-77722339D01*
X183444890Y-77744866D01*
X183413569Y-77761607D01*
X183379591Y-77771915D01*
X183338110Y-77776000D01*
X182661890Y-77776000D01*
X182620409Y-77771915D01*
X182586431Y-77761607D01*
X182555110Y-77744866D01*
X182527661Y-77722339D01*
X182505134Y-77694890D01*
X182488393Y-77663569D01*
X182478085Y-77629591D01*
X182474000Y-77588110D01*
X182474000Y-76986890D01*
X182478085Y-76945409D01*
X182488393Y-76911431D01*
X182505134Y-76880110D01*
X182527661Y-76852661D01*
X182555110Y-76830134D01*
X182586431Y-76813393D01*
X182620409Y-76803085D01*
X182661890Y-76799000D01*
X183338110Y-76799000D01*
X183379591Y-76803085D01*
G37*
G36*
X173879591Y-76803085D02*
G01*
X173913569Y-76813393D01*
X173944890Y-76830134D01*
X173972339Y-76852661D01*
X173994866Y-76880110D01*
X174011607Y-76911431D01*
X174021915Y-76945409D01*
X174026000Y-76986890D01*
X174026000Y-77588110D01*
X174021915Y-77629591D01*
X174011607Y-77663569D01*
X173994866Y-77694890D01*
X173972339Y-77722339D01*
X173944890Y-77744866D01*
X173913569Y-77761607D01*
X173879591Y-77771915D01*
X173838110Y-77776000D01*
X173161890Y-77776000D01*
X173120409Y-77771915D01*
X173086431Y-77761607D01*
X173055110Y-77744866D01*
X173027661Y-77722339D01*
X173005134Y-77694890D01*
X172988393Y-77663569D01*
X172978085Y-77629591D01*
X172974000Y-77588110D01*
X172974000Y-76986890D01*
X172978085Y-76945409D01*
X172988393Y-76911431D01*
X173005134Y-76880110D01*
X173027661Y-76852661D01*
X173055110Y-76830134D01*
X173086431Y-76813393D01*
X173120409Y-76803085D01*
X173161890Y-76799000D01*
X173838110Y-76799000D01*
X173879591Y-76803085D01*
G37*
G36*
X133429591Y-76378085D02*
G01*
X133463569Y-76388393D01*
X133494890Y-76405134D01*
X133522339Y-76427661D01*
X133544866Y-76455110D01*
X133561607Y-76486431D01*
X133571915Y-76520409D01*
X133576000Y-76561890D01*
X133576000Y-77238110D01*
X133571915Y-77279591D01*
X133561607Y-77313569D01*
X133544866Y-77344890D01*
X133522339Y-77372339D01*
X133494890Y-77394866D01*
X133463569Y-77411607D01*
X133429591Y-77421915D01*
X133388110Y-77426000D01*
X132786890Y-77426000D01*
X132745409Y-77421915D01*
X132711431Y-77411607D01*
X132680110Y-77394866D01*
X132652661Y-77372339D01*
X132630134Y-77344890D01*
X132613393Y-77313569D01*
X132603085Y-77279591D01*
X132599000Y-77238110D01*
X132599000Y-76561890D01*
X132603085Y-76520409D01*
X132613393Y-76486431D01*
X132630134Y-76455110D01*
X132652661Y-76427661D01*
X132680110Y-76405134D01*
X132711431Y-76388393D01*
X132745409Y-76378085D01*
X132786890Y-76374000D01*
X133388110Y-76374000D01*
X133429591Y-76378085D01*
G37*
G36*
X131854591Y-76378085D02*
G01*
X131888569Y-76388393D01*
X131919890Y-76405134D01*
X131947339Y-76427661D01*
X131969866Y-76455110D01*
X131986607Y-76486431D01*
X131996915Y-76520409D01*
X132001000Y-76561890D01*
X132001000Y-77238110D01*
X131996915Y-77279591D01*
X131986607Y-77313569D01*
X131969866Y-77344890D01*
X131947339Y-77372339D01*
X131919890Y-77394866D01*
X131888569Y-77411607D01*
X131854591Y-77421915D01*
X131813110Y-77426000D01*
X131211890Y-77426000D01*
X131170409Y-77421915D01*
X131136431Y-77411607D01*
X131105110Y-77394866D01*
X131077661Y-77372339D01*
X131055134Y-77344890D01*
X131038393Y-77313569D01*
X131028085Y-77279591D01*
X131024000Y-77238110D01*
X131024000Y-76561890D01*
X131028085Y-76520409D01*
X131038393Y-76486431D01*
X131055134Y-76455110D01*
X131077661Y-76427661D01*
X131105110Y-76405134D01*
X131136431Y-76388393D01*
X131170409Y-76378085D01*
X131211890Y-76374000D01*
X131813110Y-76374000D01*
X131854591Y-76378085D01*
G37*
G36*
X148835862Y-74445898D02*
G01*
X148848114Y-74446500D01*
X148921406Y-74446500D01*
X148938164Y-74455457D01*
X148949707Y-74459587D01*
X149060331Y-74493145D01*
X149060334Y-74493146D01*
X149173424Y-74553594D01*
X149272554Y-74634947D01*
X149353906Y-74734075D01*
X149414354Y-74847164D01*
X149419461Y-74864000D01*
X149451580Y-74969882D01*
X149461000Y-75065527D01*
X149461000Y-75829473D01*
X149451580Y-75925118D01*
X149427530Y-76004401D01*
X149414354Y-76047836D01*
X149353906Y-76160925D01*
X149272554Y-76260054D01*
X149173425Y-76341406D01*
X149060336Y-76401854D01*
X149057929Y-76402584D01*
X148949708Y-76435413D01*
X148927075Y-76444787D01*
X148921518Y-76448500D01*
X148848114Y-76448500D01*
X148835862Y-76449102D01*
X148810000Y-76451649D01*
X148784138Y-76449102D01*
X148771886Y-76448500D01*
X147559000Y-76448500D01*
X147559000Y-74446500D01*
X148771886Y-74446500D01*
X148784138Y-74445898D01*
X148810000Y-74443351D01*
X148835862Y-74445898D01*
G37*
G36*
X141835862Y-74445898D02*
G01*
X141848114Y-74446500D01*
X143061000Y-74446500D01*
X143061000Y-76448500D01*
X141848114Y-76448500D01*
X141835862Y-76449102D01*
X141810000Y-76451649D01*
X141784138Y-76449102D01*
X141771886Y-76448500D01*
X141698594Y-76448500D01*
X141681836Y-76439543D01*
X141670299Y-76435415D01*
X141562071Y-76402584D01*
X141559664Y-76401854D01*
X141446575Y-76341406D01*
X141347447Y-76260054D01*
X141266094Y-76160924D01*
X141205646Y-76047835D01*
X141176272Y-75951000D01*
X141168420Y-75925117D01*
X141159000Y-75829472D01*
X141159000Y-75065527D01*
X141168420Y-74969882D01*
X141205645Y-74847168D01*
X141266096Y-74734074D01*
X141347447Y-74634946D01*
X141446576Y-74553594D01*
X141559666Y-74493146D01*
X141559669Y-74493145D01*
X141670290Y-74459588D01*
X141692925Y-74450212D01*
X141698481Y-74446500D01*
X141771886Y-74446500D01*
X141784138Y-74445898D01*
X141810000Y-74443351D01*
X141835862Y-74445898D01*
G37*
G36*
X145111000Y-76448500D02*
G01*
X143509000Y-76448500D01*
X143509000Y-74446500D01*
X145111000Y-74446500D01*
X145111000Y-76448500D01*
G37*
G36*
X147111000Y-76448500D02*
G01*
X145509000Y-76448500D01*
X145509000Y-74446500D01*
X147111000Y-74446500D01*
X147111000Y-76448500D01*
G37*
G36*
X175879591Y-75228085D02*
G01*
X175913569Y-75238393D01*
X175944890Y-75255134D01*
X175972339Y-75277661D01*
X175994866Y-75305110D01*
X176011607Y-75336431D01*
X176021915Y-75370409D01*
X176026000Y-75411890D01*
X176026000Y-76013110D01*
X176021915Y-76054591D01*
X176011607Y-76088569D01*
X175994866Y-76119890D01*
X175972339Y-76147339D01*
X175944890Y-76169866D01*
X175913569Y-76186607D01*
X175879591Y-76196915D01*
X175838110Y-76201000D01*
X175161890Y-76201000D01*
X175120409Y-76196915D01*
X175086431Y-76186607D01*
X175055110Y-76169866D01*
X175027661Y-76147339D01*
X175005134Y-76119890D01*
X174988393Y-76088569D01*
X174978085Y-76054591D01*
X174974000Y-76013110D01*
X174974000Y-75411890D01*
X174978085Y-75370409D01*
X174988393Y-75336431D01*
X175005134Y-75305110D01*
X175027661Y-75277661D01*
X175055110Y-75255134D01*
X175086431Y-75238393D01*
X175120409Y-75228085D01*
X175161890Y-75224000D01*
X175838110Y-75224000D01*
X175879591Y-75228085D01*
G37*
G36*
X171879591Y-75228085D02*
G01*
X171913569Y-75238393D01*
X171944890Y-75255134D01*
X171972339Y-75277661D01*
X171994866Y-75305110D01*
X172011607Y-75336431D01*
X172021915Y-75370409D01*
X172026000Y-75411890D01*
X172026000Y-76013110D01*
X172021915Y-76054591D01*
X172011607Y-76088569D01*
X171994866Y-76119890D01*
X171972339Y-76147339D01*
X171944890Y-76169866D01*
X171913569Y-76186607D01*
X171879591Y-76196915D01*
X171838110Y-76201000D01*
X171161890Y-76201000D01*
X171120409Y-76196915D01*
X171086431Y-76186607D01*
X171055110Y-76169866D01*
X171027661Y-76147339D01*
X171005134Y-76119890D01*
X170988393Y-76088569D01*
X170978085Y-76054591D01*
X170974000Y-76013110D01*
X170974000Y-75411890D01*
X170978085Y-75370409D01*
X170988393Y-75336431D01*
X171005134Y-75305110D01*
X171027661Y-75277661D01*
X171055110Y-75255134D01*
X171086431Y-75238393D01*
X171120409Y-75228085D01*
X171161890Y-75224000D01*
X171838110Y-75224000D01*
X171879591Y-75228085D01*
G37*
G36*
X183379591Y-75228085D02*
G01*
X183413569Y-75238393D01*
X183444890Y-75255134D01*
X183472339Y-75277661D01*
X183494866Y-75305110D01*
X183511607Y-75336431D01*
X183521915Y-75370409D01*
X183526000Y-75411890D01*
X183526000Y-76013110D01*
X183521915Y-76054591D01*
X183511607Y-76088569D01*
X183494866Y-76119890D01*
X183472339Y-76147339D01*
X183444890Y-76169866D01*
X183413569Y-76186607D01*
X183379591Y-76196915D01*
X183338110Y-76201000D01*
X182661890Y-76201000D01*
X182620409Y-76196915D01*
X182586431Y-76186607D01*
X182555110Y-76169866D01*
X182527661Y-76147339D01*
X182505134Y-76119890D01*
X182488393Y-76088569D01*
X182478085Y-76054591D01*
X182474000Y-76013110D01*
X182474000Y-75411890D01*
X182478085Y-75370409D01*
X182488393Y-75336431D01*
X182505134Y-75305110D01*
X182527661Y-75277661D01*
X182555110Y-75255134D01*
X182586431Y-75238393D01*
X182620409Y-75228085D01*
X182661890Y-75224000D01*
X183338110Y-75224000D01*
X183379591Y-75228085D01*
G37*
G36*
X185479591Y-75228085D02*
G01*
X185513569Y-75238393D01*
X185544890Y-75255134D01*
X185572339Y-75277661D01*
X185594866Y-75305110D01*
X185611607Y-75336431D01*
X185621915Y-75370409D01*
X185626000Y-75411890D01*
X185626000Y-76013110D01*
X185621915Y-76054591D01*
X185611607Y-76088569D01*
X185594866Y-76119890D01*
X185572339Y-76147339D01*
X185544890Y-76169866D01*
X185513569Y-76186607D01*
X185479591Y-76196915D01*
X185438110Y-76201000D01*
X184761890Y-76201000D01*
X184720409Y-76196915D01*
X184686431Y-76186607D01*
X184655110Y-76169866D01*
X184627661Y-76147339D01*
X184605134Y-76119890D01*
X184588393Y-76088569D01*
X184578085Y-76054591D01*
X184574000Y-76013110D01*
X184574000Y-75411890D01*
X184578085Y-75370409D01*
X184588393Y-75336431D01*
X184605134Y-75305110D01*
X184627661Y-75277661D01*
X184655110Y-75255134D01*
X184686431Y-75238393D01*
X184720409Y-75228085D01*
X184761890Y-75224000D01*
X185438110Y-75224000D01*
X185479591Y-75228085D01*
G37*
G36*
X164379591Y-75228085D02*
G01*
X164413569Y-75238393D01*
X164444890Y-75255134D01*
X164472339Y-75277661D01*
X164494866Y-75305110D01*
X164511607Y-75336431D01*
X164521915Y-75370409D01*
X164526000Y-75411890D01*
X164526000Y-76013110D01*
X164521915Y-76054591D01*
X164511607Y-76088569D01*
X164494866Y-76119890D01*
X164472339Y-76147339D01*
X164444890Y-76169866D01*
X164413569Y-76186607D01*
X164379591Y-76196915D01*
X164338110Y-76201000D01*
X163661890Y-76201000D01*
X163620409Y-76196915D01*
X163586431Y-76186607D01*
X163555110Y-76169866D01*
X163527661Y-76147339D01*
X163505134Y-76119890D01*
X163488393Y-76088569D01*
X163478085Y-76054591D01*
X163474000Y-76013110D01*
X163474000Y-75411890D01*
X163478085Y-75370409D01*
X163488393Y-75336431D01*
X163505134Y-75305110D01*
X163527661Y-75277661D01*
X163555110Y-75255134D01*
X163586431Y-75238393D01*
X163620409Y-75228085D01*
X163661890Y-75224000D01*
X164338110Y-75224000D01*
X164379591Y-75228085D01*
G37*
G36*
X173879591Y-75228085D02*
G01*
X173913569Y-75238393D01*
X173944890Y-75255134D01*
X173972339Y-75277661D01*
X173994866Y-75305110D01*
X174011607Y-75336431D01*
X174021915Y-75370409D01*
X174026000Y-75411890D01*
X174026000Y-76013110D01*
X174021915Y-76054591D01*
X174011607Y-76088569D01*
X173994866Y-76119890D01*
X173972339Y-76147339D01*
X173944890Y-76169866D01*
X173913569Y-76186607D01*
X173879591Y-76196915D01*
X173838110Y-76201000D01*
X173161890Y-76201000D01*
X173120409Y-76196915D01*
X173086431Y-76186607D01*
X173055110Y-76169866D01*
X173027661Y-76147339D01*
X173005134Y-76119890D01*
X172988393Y-76088569D01*
X172978085Y-76054591D01*
X172974000Y-76013110D01*
X172974000Y-75411890D01*
X172978085Y-75370409D01*
X172988393Y-75336431D01*
X173005134Y-75305110D01*
X173027661Y-75277661D01*
X173055110Y-75255134D01*
X173086431Y-75238393D01*
X173120409Y-75228085D01*
X173161890Y-75224000D01*
X173838110Y-75224000D01*
X173879591Y-75228085D01*
G37*
G36*
X199929591Y-74903085D02*
G01*
X199963569Y-74913393D01*
X199994890Y-74930134D01*
X200022339Y-74952661D01*
X200044866Y-74980110D01*
X200061607Y-75011431D01*
X200071915Y-75045409D01*
X200076000Y-75086890D01*
X200076000Y-75763110D01*
X200071915Y-75804591D01*
X200061607Y-75838569D01*
X200044866Y-75869890D01*
X200022339Y-75897339D01*
X199994890Y-75919866D01*
X199963569Y-75936607D01*
X199929591Y-75946915D01*
X199888110Y-75951000D01*
X199286890Y-75951000D01*
X199245409Y-75946915D01*
X199211431Y-75936607D01*
X199180110Y-75919866D01*
X199152661Y-75897339D01*
X199130134Y-75869890D01*
X199113393Y-75838569D01*
X199103085Y-75804591D01*
X199099000Y-75763110D01*
X199099000Y-75086890D01*
X199103085Y-75045409D01*
X199113393Y-75011431D01*
X199130134Y-74980110D01*
X199152661Y-74952661D01*
X199180110Y-74930134D01*
X199211431Y-74913393D01*
X199245409Y-74903085D01*
X199286890Y-74899000D01*
X199888110Y-74899000D01*
X199929591Y-74903085D01*
G37*
G36*
X198354591Y-74903085D02*
G01*
X198388569Y-74913393D01*
X198419890Y-74930134D01*
X198447339Y-74952661D01*
X198469866Y-74980110D01*
X198486607Y-75011431D01*
X198496915Y-75045409D01*
X198501000Y-75086890D01*
X198501000Y-75763110D01*
X198496915Y-75804591D01*
X198486607Y-75838569D01*
X198469866Y-75869890D01*
X198447339Y-75897339D01*
X198419890Y-75919866D01*
X198388569Y-75936607D01*
X198354591Y-75946915D01*
X198313110Y-75951000D01*
X197711890Y-75951000D01*
X197670409Y-75946915D01*
X197636431Y-75936607D01*
X197605110Y-75919866D01*
X197577661Y-75897339D01*
X197555134Y-75869890D01*
X197538393Y-75838569D01*
X197528085Y-75804591D01*
X197524000Y-75763110D01*
X197524000Y-75086890D01*
X197528085Y-75045409D01*
X197538393Y-75011431D01*
X197555134Y-74980110D01*
X197577661Y-74952661D01*
X197605110Y-74930134D01*
X197636431Y-74913393D01*
X197670409Y-74903085D01*
X197711890Y-74899000D01*
X198313110Y-74899000D01*
X198354591Y-74903085D01*
G37*
G36*
X201829591Y-74903085D02*
G01*
X201863569Y-74913393D01*
X201894890Y-74930134D01*
X201922339Y-74952661D01*
X201944866Y-74980110D01*
X201961607Y-75011431D01*
X201971915Y-75045409D01*
X201976000Y-75086890D01*
X201976000Y-75763110D01*
X201971915Y-75804591D01*
X201961607Y-75838569D01*
X201944866Y-75869890D01*
X201922339Y-75897339D01*
X201894890Y-75919866D01*
X201863569Y-75936607D01*
X201829591Y-75946915D01*
X201788110Y-75951000D01*
X201186890Y-75951000D01*
X201145409Y-75946915D01*
X201111431Y-75936607D01*
X201080110Y-75919866D01*
X201052661Y-75897339D01*
X201030134Y-75869890D01*
X201013393Y-75838569D01*
X201003085Y-75804591D01*
X200999000Y-75763110D01*
X200999000Y-75086890D01*
X201003085Y-75045409D01*
X201013393Y-75011431D01*
X201030134Y-74980110D01*
X201052661Y-74952661D01*
X201080110Y-74930134D01*
X201111431Y-74913393D01*
X201145409Y-74903085D01*
X201186890Y-74899000D01*
X201788110Y-74899000D01*
X201829591Y-74903085D01*
G37*
G36*
X203404591Y-74903085D02*
G01*
X203438569Y-74913393D01*
X203469890Y-74930134D01*
X203497339Y-74952661D01*
X203519866Y-74980110D01*
X203536607Y-75011431D01*
X203546915Y-75045409D01*
X203551000Y-75086890D01*
X203551000Y-75763110D01*
X203546915Y-75804591D01*
X203536607Y-75838569D01*
X203519866Y-75869890D01*
X203497339Y-75897339D01*
X203469890Y-75919866D01*
X203438569Y-75936607D01*
X203404591Y-75946915D01*
X203363110Y-75951000D01*
X202761890Y-75951000D01*
X202720409Y-75946915D01*
X202686431Y-75936607D01*
X202655110Y-75919866D01*
X202627661Y-75897339D01*
X202605134Y-75869890D01*
X202588393Y-75838569D01*
X202578085Y-75804591D01*
X202574000Y-75763110D01*
X202574000Y-75086890D01*
X202578085Y-75045409D01*
X202588393Y-75011431D01*
X202605134Y-74980110D01*
X202627661Y-74952661D01*
X202655110Y-74930134D01*
X202686431Y-74913393D01*
X202720409Y-74903085D01*
X202761890Y-74899000D01*
X203363110Y-74899000D01*
X203404591Y-74903085D01*
G37*
M02*
