G04 #@! TF.GenerationSoftware,KiCad,Pcbnew,(5.1.5)-3*
G04 #@! TF.CreationDate,2021-06-22T21:37:00+02:00*
G04 #@! TF.ProjectId,18650_UPS_PCB,31383635-305f-4555-9053-5f5043422e6b,rev?*
G04 #@! TF.SameCoordinates,Original*
G04 #@! TF.FileFunction,Soldermask,Top*
G04 #@! TF.FilePolarity,Negative*
%FSLAX46Y46*%
G04 Gerber Fmt 4.6, Leading zero omitted, Abs format (unit mm)*
G04 Created by KiCad (PCBNEW (5.1.5)-3) date 2021-06-22 21:37:00*
%MOMM*%
%LPD*%
G04 APERTURE LIST*
%ADD10C,0.100000*%
G04 APERTURE END LIST*
D10*
G36*
X135061000Y-95986000D02*
G01*
X132159000Y-95986000D01*
X132159000Y-93484000D01*
X135061000Y-93484000D01*
X135061000Y-95986000D01*
G37*
G36*
X139661000Y-95986000D02*
G01*
X136759000Y-95986000D01*
X136759000Y-93484000D01*
X139661000Y-93484000D01*
X139661000Y-95986000D01*
G37*
G36*
X169911000Y-95966000D02*
G01*
X168809000Y-95966000D01*
X168809000Y-95064000D01*
X169911000Y-95064000D01*
X169911000Y-95966000D01*
G37*
G36*
X191111000Y-95966000D02*
G01*
X190009000Y-95966000D01*
X190009000Y-95064000D01*
X191111000Y-95064000D01*
X191111000Y-95966000D01*
G37*
G36*
X183811000Y-95966000D02*
G01*
X182709000Y-95966000D01*
X182709000Y-95064000D01*
X183811000Y-95064000D01*
X183811000Y-95966000D01*
G37*
G36*
X162611000Y-95966000D02*
G01*
X161509000Y-95966000D01*
X161509000Y-95064000D01*
X162611000Y-95064000D01*
X162611000Y-95966000D01*
G37*
G36*
X173211000Y-95911000D02*
G01*
X172109000Y-95911000D01*
X172109000Y-95009000D01*
X173211000Y-95009000D01*
X173211000Y-95911000D01*
G37*
G36*
X180511000Y-95911000D02*
G01*
X179409000Y-95911000D01*
X179409000Y-95009000D01*
X180511000Y-95009000D01*
X180511000Y-95911000D01*
G37*
G36*
X171389591Y-94688085D02*
G01*
X171423569Y-94698393D01*
X171454890Y-94715134D01*
X171482339Y-94737661D01*
X171504866Y-94765110D01*
X171521607Y-94796431D01*
X171531915Y-94830409D01*
X171536000Y-94871890D01*
X171536000Y-95473110D01*
X171531915Y-95514591D01*
X171521607Y-95548569D01*
X171504866Y-95579890D01*
X171482339Y-95607339D01*
X171454890Y-95629866D01*
X171423569Y-95646607D01*
X171389591Y-95656915D01*
X171348110Y-95661000D01*
X170671890Y-95661000D01*
X170630409Y-95656915D01*
X170596431Y-95646607D01*
X170565110Y-95629866D01*
X170537661Y-95607339D01*
X170515134Y-95579890D01*
X170498393Y-95548569D01*
X170488085Y-95514591D01*
X170484000Y-95473110D01*
X170484000Y-94871890D01*
X170488085Y-94830409D01*
X170498393Y-94796431D01*
X170515134Y-94765110D01*
X170537661Y-94737661D01*
X170565110Y-94715134D01*
X170596431Y-94698393D01*
X170630409Y-94688085D01*
X170671890Y-94684000D01*
X171348110Y-94684000D01*
X171389591Y-94688085D01*
G37*
G36*
X181989591Y-94688085D02*
G01*
X182023569Y-94698393D01*
X182054890Y-94715134D01*
X182082339Y-94737661D01*
X182104866Y-94765110D01*
X182121607Y-94796431D01*
X182131915Y-94830409D01*
X182136000Y-94871890D01*
X182136000Y-95473110D01*
X182131915Y-95514591D01*
X182121607Y-95548569D01*
X182104866Y-95579890D01*
X182082339Y-95607339D01*
X182054890Y-95629866D01*
X182023569Y-95646607D01*
X181989591Y-95656915D01*
X181948110Y-95661000D01*
X181271890Y-95661000D01*
X181230409Y-95656915D01*
X181196431Y-95646607D01*
X181165110Y-95629866D01*
X181137661Y-95607339D01*
X181115134Y-95579890D01*
X181098393Y-95548569D01*
X181088085Y-95514591D01*
X181084000Y-95473110D01*
X181084000Y-94871890D01*
X181088085Y-94830409D01*
X181098393Y-94796431D01*
X181115134Y-94765110D01*
X181137661Y-94737661D01*
X181165110Y-94715134D01*
X181196431Y-94698393D01*
X181230409Y-94688085D01*
X181271890Y-94684000D01*
X181948110Y-94684000D01*
X181989591Y-94688085D01*
G37*
G36*
X145882798Y-93863247D02*
G01*
X145918367Y-93874037D01*
X145951139Y-93891554D01*
X145979869Y-93915131D01*
X146003446Y-93943861D01*
X146020963Y-93976633D01*
X146031753Y-94012202D01*
X146036000Y-94055325D01*
X146036000Y-95114675D01*
X146031753Y-95157798D01*
X146020963Y-95193367D01*
X146003446Y-95226139D01*
X145979869Y-95254869D01*
X145951139Y-95278446D01*
X145918367Y-95295963D01*
X145882798Y-95306753D01*
X145839675Y-95311000D01*
X142780325Y-95311000D01*
X142737202Y-95306753D01*
X142701633Y-95295963D01*
X142668861Y-95278446D01*
X142640131Y-95254869D01*
X142616554Y-95226139D01*
X142599037Y-95193367D01*
X142588247Y-95157798D01*
X142584000Y-95114675D01*
X142584000Y-94055325D01*
X142588247Y-94012202D01*
X142599037Y-93976633D01*
X142616554Y-93943861D01*
X142640131Y-93915131D01*
X142668861Y-93891554D01*
X142701633Y-93874037D01*
X142737202Y-93863247D01*
X142780325Y-93859000D01*
X145839675Y-93859000D01*
X145882798Y-93863247D01*
G37*
G36*
X153819928Y-94446764D02*
G01*
X153841009Y-94453160D01*
X153860445Y-94463548D01*
X153877476Y-94477524D01*
X153891452Y-94494555D01*
X153901840Y-94513991D01*
X153908236Y-94535072D01*
X153911000Y-94563140D01*
X153911000Y-95026860D01*
X153908236Y-95054928D01*
X153901840Y-95076009D01*
X153891452Y-95095445D01*
X153877476Y-95112476D01*
X153860445Y-95126452D01*
X153841009Y-95136840D01*
X153819928Y-95143236D01*
X153791860Y-95146000D01*
X151978140Y-95146000D01*
X151950072Y-95143236D01*
X151928991Y-95136840D01*
X151909555Y-95126452D01*
X151892524Y-95112476D01*
X151878548Y-95095445D01*
X151868160Y-95076009D01*
X151861764Y-95054928D01*
X151859000Y-95026860D01*
X151859000Y-94563140D01*
X151861764Y-94535072D01*
X151868160Y-94513991D01*
X151878548Y-94494555D01*
X151892524Y-94477524D01*
X151909555Y-94463548D01*
X151928991Y-94453160D01*
X151950072Y-94446764D01*
X151978140Y-94444000D01*
X153791860Y-94444000D01*
X153819928Y-94446764D01*
G37*
G36*
X148869928Y-94446764D02*
G01*
X148891009Y-94453160D01*
X148910445Y-94463548D01*
X148927476Y-94477524D01*
X148941452Y-94494555D01*
X148951840Y-94513991D01*
X148958236Y-94535072D01*
X148961000Y-94563140D01*
X148961000Y-95026860D01*
X148958236Y-95054928D01*
X148951840Y-95076009D01*
X148941452Y-95095445D01*
X148927476Y-95112476D01*
X148910445Y-95126452D01*
X148891009Y-95136840D01*
X148869928Y-95143236D01*
X148841860Y-95146000D01*
X147028140Y-95146000D01*
X147000072Y-95143236D01*
X146978991Y-95136840D01*
X146959555Y-95126452D01*
X146942524Y-95112476D01*
X146928548Y-95095445D01*
X146918160Y-95076009D01*
X146911764Y-95054928D01*
X146909000Y-95026860D01*
X146909000Y-94563140D01*
X146911764Y-94535072D01*
X146918160Y-94513991D01*
X146928548Y-94494555D01*
X146942524Y-94477524D01*
X146959555Y-94463548D01*
X146978991Y-94453160D01*
X147000072Y-94446764D01*
X147028140Y-94444000D01*
X148841860Y-94444000D01*
X148869928Y-94446764D01*
G37*
G36*
X193928039Y-91477250D02*
G01*
X194066928Y-91534780D01*
X194251251Y-91611129D01*
X194542134Y-91805491D01*
X194789509Y-92052866D01*
X194983871Y-92343749D01*
X194991805Y-92362904D01*
X195117750Y-92666961D01*
X195186000Y-93010078D01*
X195186000Y-93359922D01*
X195117750Y-93703039D01*
X195051640Y-93862641D01*
X194983871Y-94026251D01*
X194789509Y-94317134D01*
X194542134Y-94564509D01*
X194251251Y-94758871D01*
X194141933Y-94804152D01*
X193928039Y-94892750D01*
X193584922Y-94961000D01*
X193235078Y-94961000D01*
X192891961Y-94892750D01*
X192678067Y-94804152D01*
X192568749Y-94758871D01*
X192277866Y-94564509D01*
X192030491Y-94317134D01*
X191836129Y-94026251D01*
X191768360Y-93862641D01*
X191702250Y-93703039D01*
X191634000Y-93359922D01*
X191634000Y-93010078D01*
X191702250Y-92666961D01*
X191828195Y-92362904D01*
X191836129Y-92343749D01*
X192030491Y-92052866D01*
X192277866Y-91805491D01*
X192568749Y-91611129D01*
X192753072Y-91534780D01*
X192891961Y-91477250D01*
X193235078Y-91409000D01*
X193584922Y-91409000D01*
X193928039Y-91477250D01*
G37*
G36*
X185507740Y-93923626D02*
G01*
X185556136Y-93933253D01*
X185593902Y-93948896D01*
X185647311Y-93971019D01*
X185658510Y-93978502D01*
X185729369Y-94025848D01*
X185799152Y-94095631D01*
X185805967Y-94105831D01*
X185853981Y-94177689D01*
X185891747Y-94268865D01*
X185911000Y-94365655D01*
X185911000Y-94464345D01*
X185908378Y-94477524D01*
X185891747Y-94561136D01*
X185876763Y-94597311D01*
X185853981Y-94652311D01*
X185853980Y-94652312D01*
X185799152Y-94734369D01*
X185729369Y-94804152D01*
X185690072Y-94830409D01*
X185647311Y-94858981D01*
X185595120Y-94880599D01*
X185556136Y-94896747D01*
X185507740Y-94906373D01*
X185459345Y-94916000D01*
X185360655Y-94916000D01*
X185312260Y-94906373D01*
X185263864Y-94896747D01*
X185224880Y-94880599D01*
X185172689Y-94858981D01*
X185129928Y-94830409D01*
X185090631Y-94804152D01*
X185020848Y-94734369D01*
X184966020Y-94652312D01*
X184966019Y-94652311D01*
X184943237Y-94597311D01*
X184928253Y-94561136D01*
X184911622Y-94477524D01*
X184909000Y-94464345D01*
X184909000Y-94365655D01*
X184928253Y-94268865D01*
X184966019Y-94177689D01*
X185014033Y-94105831D01*
X185020848Y-94095631D01*
X185090631Y-94025848D01*
X185161490Y-93978502D01*
X185172689Y-93971019D01*
X185226098Y-93948896D01*
X185263864Y-93933253D01*
X185312260Y-93923627D01*
X185360655Y-93914000D01*
X185459345Y-93914000D01*
X185507740Y-93923626D01*
G37*
G36*
X164307740Y-93923626D02*
G01*
X164356136Y-93933253D01*
X164393902Y-93948896D01*
X164447311Y-93971019D01*
X164458510Y-93978502D01*
X164529369Y-94025848D01*
X164599152Y-94095631D01*
X164605967Y-94105831D01*
X164653981Y-94177689D01*
X164691747Y-94268865D01*
X164711000Y-94365655D01*
X164711000Y-94464345D01*
X164708378Y-94477524D01*
X164691747Y-94561136D01*
X164676763Y-94597311D01*
X164653981Y-94652311D01*
X164653980Y-94652312D01*
X164599152Y-94734369D01*
X164529369Y-94804152D01*
X164490072Y-94830409D01*
X164447311Y-94858981D01*
X164395120Y-94880599D01*
X164356136Y-94896747D01*
X164307740Y-94906373D01*
X164259345Y-94916000D01*
X164160655Y-94916000D01*
X164112260Y-94906373D01*
X164063864Y-94896747D01*
X164024880Y-94880599D01*
X163972689Y-94858981D01*
X163929928Y-94830409D01*
X163890631Y-94804152D01*
X163820848Y-94734369D01*
X163766020Y-94652312D01*
X163766019Y-94652311D01*
X163743237Y-94597311D01*
X163728253Y-94561136D01*
X163711622Y-94477524D01*
X163709000Y-94464345D01*
X163709000Y-94365655D01*
X163728253Y-94268865D01*
X163766019Y-94177689D01*
X163814033Y-94105831D01*
X163820848Y-94095631D01*
X163890631Y-94025848D01*
X163961490Y-93978502D01*
X163972689Y-93971019D01*
X164026098Y-93948896D01*
X164063864Y-93933253D01*
X164112260Y-93923627D01*
X164160655Y-93914000D01*
X164259345Y-93914000D01*
X164307740Y-93923626D01*
G37*
G36*
X167307740Y-93923626D02*
G01*
X167356136Y-93933253D01*
X167393902Y-93948896D01*
X167447311Y-93971019D01*
X167458510Y-93978502D01*
X167529369Y-94025848D01*
X167599152Y-94095631D01*
X167605967Y-94105831D01*
X167653981Y-94177689D01*
X167691747Y-94268865D01*
X167711000Y-94365655D01*
X167711000Y-94464345D01*
X167708378Y-94477524D01*
X167691747Y-94561136D01*
X167676763Y-94597311D01*
X167653981Y-94652311D01*
X167653980Y-94652312D01*
X167599152Y-94734369D01*
X167529369Y-94804152D01*
X167490072Y-94830409D01*
X167447311Y-94858981D01*
X167395120Y-94880599D01*
X167356136Y-94896747D01*
X167307740Y-94906373D01*
X167259345Y-94916000D01*
X167160655Y-94916000D01*
X167112260Y-94906373D01*
X167063864Y-94896747D01*
X167024880Y-94880599D01*
X166972689Y-94858981D01*
X166929928Y-94830409D01*
X166890631Y-94804152D01*
X166820848Y-94734369D01*
X166766020Y-94652312D01*
X166766019Y-94652311D01*
X166743237Y-94597311D01*
X166728253Y-94561136D01*
X166711622Y-94477524D01*
X166709000Y-94464345D01*
X166709000Y-94365655D01*
X166728253Y-94268865D01*
X166766019Y-94177689D01*
X166814033Y-94105831D01*
X166820848Y-94095631D01*
X166890631Y-94025848D01*
X166961490Y-93978502D01*
X166972689Y-93971019D01*
X167026098Y-93948896D01*
X167063864Y-93933253D01*
X167112260Y-93923627D01*
X167160655Y-93914000D01*
X167259345Y-93914000D01*
X167307740Y-93923626D01*
G37*
G36*
X188507740Y-93923626D02*
G01*
X188556136Y-93933253D01*
X188593902Y-93948896D01*
X188647311Y-93971019D01*
X188658510Y-93978502D01*
X188729369Y-94025848D01*
X188799152Y-94095631D01*
X188805967Y-94105831D01*
X188853981Y-94177689D01*
X188891747Y-94268865D01*
X188911000Y-94365655D01*
X188911000Y-94464345D01*
X188908378Y-94477524D01*
X188891747Y-94561136D01*
X188876763Y-94597311D01*
X188853981Y-94652311D01*
X188853980Y-94652312D01*
X188799152Y-94734369D01*
X188729369Y-94804152D01*
X188690072Y-94830409D01*
X188647311Y-94858981D01*
X188595120Y-94880599D01*
X188556136Y-94896747D01*
X188507740Y-94906373D01*
X188459345Y-94916000D01*
X188360655Y-94916000D01*
X188312260Y-94906373D01*
X188263864Y-94896747D01*
X188224880Y-94880599D01*
X188172689Y-94858981D01*
X188129928Y-94830409D01*
X188090631Y-94804152D01*
X188020848Y-94734369D01*
X187966020Y-94652312D01*
X187966019Y-94652311D01*
X187943237Y-94597311D01*
X187928253Y-94561136D01*
X187911622Y-94477524D01*
X187909000Y-94464345D01*
X187909000Y-94365655D01*
X187928253Y-94268865D01*
X187966019Y-94177689D01*
X188014033Y-94105831D01*
X188020848Y-94095631D01*
X188090631Y-94025848D01*
X188161490Y-93978502D01*
X188172689Y-93971019D01*
X188226098Y-93948896D01*
X188263864Y-93933253D01*
X188312260Y-93923627D01*
X188360655Y-93914000D01*
X188459345Y-93914000D01*
X188507740Y-93923626D01*
G37*
G36*
X177898759Y-93866840D02*
G01*
X177956136Y-93878253D01*
X177983049Y-93889401D01*
X178047311Y-93916019D01*
X178076047Y-93935220D01*
X178129369Y-93970848D01*
X178199152Y-94040631D01*
X178219849Y-94071607D01*
X178253981Y-94122689D01*
X178276104Y-94176098D01*
X178291747Y-94213864D01*
X178311000Y-94310656D01*
X178311000Y-94409344D01*
X178294051Y-94494555D01*
X178291747Y-94506135D01*
X178253981Y-94597311D01*
X178253980Y-94597312D01*
X178199152Y-94679369D01*
X178129369Y-94749152D01*
X178119810Y-94755539D01*
X178047311Y-94803981D01*
X177993902Y-94826104D01*
X177956136Y-94841747D01*
X177907740Y-94851374D01*
X177859345Y-94861000D01*
X177760655Y-94861000D01*
X177712260Y-94851374D01*
X177663864Y-94841747D01*
X177626098Y-94826104D01*
X177572689Y-94803981D01*
X177500190Y-94755539D01*
X177490631Y-94749152D01*
X177420848Y-94679369D01*
X177366020Y-94597312D01*
X177366019Y-94597311D01*
X177328253Y-94506135D01*
X177325950Y-94494555D01*
X177309000Y-94409344D01*
X177309000Y-94310656D01*
X177328253Y-94213864D01*
X177343896Y-94176098D01*
X177366019Y-94122689D01*
X177400151Y-94071607D01*
X177420848Y-94040631D01*
X177490631Y-93970848D01*
X177543953Y-93935220D01*
X177572689Y-93916019D01*
X177636951Y-93889401D01*
X177663864Y-93878253D01*
X177721241Y-93866840D01*
X177760655Y-93859000D01*
X177859345Y-93859000D01*
X177898759Y-93866840D01*
G37*
G36*
X174898759Y-93866840D02*
G01*
X174956136Y-93878253D01*
X174983049Y-93889401D01*
X175047311Y-93916019D01*
X175076047Y-93935220D01*
X175129369Y-93970848D01*
X175199152Y-94040631D01*
X175219849Y-94071607D01*
X175253981Y-94122689D01*
X175276104Y-94176098D01*
X175291747Y-94213864D01*
X175311000Y-94310656D01*
X175311000Y-94409344D01*
X175294051Y-94494555D01*
X175291747Y-94506135D01*
X175253981Y-94597311D01*
X175253980Y-94597312D01*
X175199152Y-94679369D01*
X175129369Y-94749152D01*
X175119810Y-94755539D01*
X175047311Y-94803981D01*
X174993902Y-94826104D01*
X174956136Y-94841747D01*
X174907740Y-94851374D01*
X174859345Y-94861000D01*
X174760655Y-94861000D01*
X174712260Y-94851374D01*
X174663864Y-94841747D01*
X174626098Y-94826104D01*
X174572689Y-94803981D01*
X174500190Y-94755539D01*
X174490631Y-94749152D01*
X174420848Y-94679369D01*
X174366020Y-94597312D01*
X174366019Y-94597311D01*
X174328253Y-94506135D01*
X174325950Y-94494555D01*
X174309000Y-94409344D01*
X174309000Y-94310656D01*
X174328253Y-94213864D01*
X174343896Y-94176098D01*
X174366019Y-94122689D01*
X174400151Y-94071607D01*
X174420848Y-94040631D01*
X174490631Y-93970848D01*
X174543953Y-93935220D01*
X174572689Y-93916019D01*
X174636951Y-93889401D01*
X174663864Y-93878253D01*
X174721241Y-93866840D01*
X174760655Y-93859000D01*
X174859345Y-93859000D01*
X174898759Y-93866840D01*
G37*
G36*
X130243444Y-91986882D02*
G01*
X130470201Y-92080808D01*
X130470202Y-92080809D01*
X130674279Y-92217168D01*
X130847832Y-92390721D01*
X130938944Y-92527081D01*
X130984192Y-92594799D01*
X131078118Y-92821556D01*
X131126000Y-93062278D01*
X131126000Y-93307722D01*
X131078118Y-93548444D01*
X130984192Y-93775201D01*
X130968956Y-93798003D01*
X130847832Y-93979279D01*
X130674279Y-94152832D01*
X130582936Y-94213865D01*
X130470201Y-94289192D01*
X130243444Y-94383118D01*
X130002722Y-94431000D01*
X129757278Y-94431000D01*
X129516556Y-94383118D01*
X129289799Y-94289192D01*
X129177064Y-94213865D01*
X129085721Y-94152832D01*
X128912168Y-93979279D01*
X128791044Y-93798003D01*
X128775808Y-93775201D01*
X128681882Y-93548444D01*
X128634000Y-93307722D01*
X128634000Y-93062278D01*
X128681882Y-92821556D01*
X128775808Y-92594799D01*
X128821056Y-92527081D01*
X128912168Y-92390721D01*
X129085721Y-92217168D01*
X129289798Y-92080809D01*
X129289799Y-92080808D01*
X129516556Y-91986882D01*
X129757278Y-91939000D01*
X130002722Y-91939000D01*
X130243444Y-91986882D01*
G37*
G36*
X124685256Y-91076298D02*
G01*
X124791579Y-91097447D01*
X124943802Y-91160500D01*
X125030753Y-91196516D01*
X125092042Y-91221903D01*
X125362451Y-91402585D01*
X125592415Y-91632549D01*
X125740384Y-91854000D01*
X125773098Y-91902960D01*
X125796851Y-91960304D01*
X125897553Y-92203421D01*
X125907305Y-92252448D01*
X125953933Y-92486860D01*
X125961000Y-92522391D01*
X125961000Y-92847609D01*
X125897553Y-93166579D01*
X125773097Y-93467042D01*
X125592415Y-93737451D01*
X125362451Y-93967415D01*
X125092042Y-94148097D01*
X124791579Y-94272553D01*
X124707934Y-94289191D01*
X124472611Y-94336000D01*
X124147389Y-94336000D01*
X123912066Y-94289191D01*
X123828421Y-94272553D01*
X123527958Y-94148097D01*
X123257549Y-93967415D01*
X123027585Y-93737451D01*
X122846903Y-93467042D01*
X122722447Y-93166579D01*
X122659000Y-92847609D01*
X122659000Y-92522391D01*
X122666068Y-92486860D01*
X122712695Y-92252448D01*
X122722447Y-92203421D01*
X122823149Y-91960304D01*
X122846902Y-91902960D01*
X122879616Y-91854000D01*
X123027585Y-91632549D01*
X123257549Y-91402585D01*
X123527958Y-91221903D01*
X123589248Y-91196516D01*
X123676198Y-91160500D01*
X123828421Y-91097447D01*
X123934744Y-91076298D01*
X124147389Y-91034000D01*
X124472611Y-91034000D01*
X124685256Y-91076298D01*
G37*
G36*
X207685256Y-91076298D02*
G01*
X207791579Y-91097447D01*
X207943802Y-91160500D01*
X208030753Y-91196516D01*
X208092042Y-91221903D01*
X208362451Y-91402585D01*
X208592415Y-91632549D01*
X208740384Y-91854000D01*
X208773098Y-91902960D01*
X208796851Y-91960304D01*
X208897553Y-92203421D01*
X208907305Y-92252448D01*
X208953933Y-92486860D01*
X208961000Y-92522391D01*
X208961000Y-92847609D01*
X208897553Y-93166579D01*
X208773097Y-93467042D01*
X208592415Y-93737451D01*
X208362451Y-93967415D01*
X208092042Y-94148097D01*
X207791579Y-94272553D01*
X207707934Y-94289191D01*
X207472611Y-94336000D01*
X207147389Y-94336000D01*
X206912066Y-94289191D01*
X206828421Y-94272553D01*
X206527958Y-94148097D01*
X206257549Y-93967415D01*
X206027585Y-93737451D01*
X205846903Y-93467042D01*
X205722447Y-93166579D01*
X205659000Y-92847609D01*
X205659000Y-92522391D01*
X205666068Y-92486860D01*
X205712695Y-92252448D01*
X205722447Y-92203421D01*
X205823149Y-91960304D01*
X205846902Y-91902960D01*
X205879616Y-91854000D01*
X206027585Y-91632549D01*
X206257549Y-91402585D01*
X206527958Y-91221903D01*
X206589248Y-91196516D01*
X206676198Y-91160500D01*
X206828421Y-91097447D01*
X206934744Y-91076298D01*
X207147389Y-91034000D01*
X207472611Y-91034000D01*
X207685256Y-91076298D01*
G37*
G36*
X198475018Y-93079112D02*
G01*
X197448299Y-94105831D01*
X196669068Y-93326600D01*
X197695787Y-92299881D01*
X198475018Y-93079112D01*
G37*
G36*
X160651000Y-94096000D02*
G01*
X158039000Y-94096000D01*
X158039000Y-92994000D01*
X160651000Y-92994000D01*
X160651000Y-94096000D01*
G37*
G36*
X171389591Y-93113085D02*
G01*
X171423569Y-93123393D01*
X171454890Y-93140134D01*
X171482339Y-93162661D01*
X171504866Y-93190110D01*
X171521607Y-93221431D01*
X171531915Y-93255409D01*
X171536000Y-93296890D01*
X171536000Y-93898110D01*
X171531915Y-93939591D01*
X171521607Y-93973569D01*
X171504866Y-94004890D01*
X171482339Y-94032339D01*
X171454890Y-94054866D01*
X171423569Y-94071607D01*
X171389591Y-94081915D01*
X171348110Y-94086000D01*
X170671890Y-94086000D01*
X170630409Y-94081915D01*
X170596431Y-94071607D01*
X170565110Y-94054866D01*
X170537661Y-94032339D01*
X170515134Y-94004890D01*
X170498393Y-93973569D01*
X170488085Y-93939591D01*
X170484000Y-93898110D01*
X170484000Y-93296890D01*
X170488085Y-93255409D01*
X170498393Y-93221431D01*
X170515134Y-93190110D01*
X170537661Y-93162661D01*
X170565110Y-93140134D01*
X170596431Y-93123393D01*
X170630409Y-93113085D01*
X170671890Y-93109000D01*
X171348110Y-93109000D01*
X171389591Y-93113085D01*
G37*
G36*
X181989591Y-93113085D02*
G01*
X182023569Y-93123393D01*
X182054890Y-93140134D01*
X182082339Y-93162661D01*
X182104866Y-93190110D01*
X182121607Y-93221431D01*
X182131915Y-93255409D01*
X182136000Y-93296890D01*
X182136000Y-93898110D01*
X182131915Y-93939591D01*
X182121607Y-93973569D01*
X182104866Y-94004890D01*
X182082339Y-94032339D01*
X182054890Y-94054866D01*
X182023569Y-94071607D01*
X181989591Y-94081915D01*
X181948110Y-94086000D01*
X181271890Y-94086000D01*
X181230409Y-94081915D01*
X181196431Y-94071607D01*
X181165110Y-94054866D01*
X181137661Y-94032339D01*
X181115134Y-94004890D01*
X181098393Y-93973569D01*
X181088085Y-93939591D01*
X181084000Y-93898110D01*
X181084000Y-93296890D01*
X181088085Y-93255409D01*
X181098393Y-93221431D01*
X181115134Y-93190110D01*
X181137661Y-93162661D01*
X181165110Y-93140134D01*
X181196431Y-93123393D01*
X181230409Y-93113085D01*
X181271890Y-93109000D01*
X181948110Y-93109000D01*
X181989591Y-93113085D01*
G37*
G36*
X203389410Y-92478071D02*
G01*
X201903071Y-93964410D01*
X200558154Y-92619493D01*
X202044493Y-91133154D01*
X203389410Y-92478071D01*
G37*
G36*
X148869928Y-93176764D02*
G01*
X148891009Y-93183160D01*
X148910445Y-93193548D01*
X148927476Y-93207524D01*
X148941452Y-93224555D01*
X148951840Y-93243991D01*
X148958236Y-93265072D01*
X148961000Y-93293140D01*
X148961000Y-93756860D01*
X148958236Y-93784928D01*
X148951840Y-93806009D01*
X148941452Y-93825445D01*
X148927476Y-93842476D01*
X148910445Y-93856452D01*
X148891009Y-93866840D01*
X148869928Y-93873236D01*
X148841860Y-93876000D01*
X147028140Y-93876000D01*
X147000072Y-93873236D01*
X146978991Y-93866840D01*
X146959555Y-93856452D01*
X146942524Y-93842476D01*
X146928548Y-93825445D01*
X146918160Y-93806009D01*
X146911764Y-93784928D01*
X146909000Y-93756860D01*
X146909000Y-93293140D01*
X146911764Y-93265072D01*
X146918160Y-93243991D01*
X146928548Y-93224555D01*
X146942524Y-93207524D01*
X146959555Y-93193548D01*
X146978991Y-93183160D01*
X147000072Y-93176764D01*
X147028140Y-93174000D01*
X148841860Y-93174000D01*
X148869928Y-93176764D01*
G37*
G36*
X153819928Y-93176764D02*
G01*
X153841009Y-93183160D01*
X153860445Y-93193548D01*
X153877476Y-93207524D01*
X153891452Y-93224555D01*
X153901840Y-93243991D01*
X153908236Y-93265072D01*
X153911000Y-93293140D01*
X153911000Y-93756860D01*
X153908236Y-93784928D01*
X153901840Y-93806009D01*
X153891452Y-93825445D01*
X153877476Y-93842476D01*
X153860445Y-93856452D01*
X153841009Y-93866840D01*
X153819928Y-93873236D01*
X153791860Y-93876000D01*
X151978140Y-93876000D01*
X151950072Y-93873236D01*
X151928991Y-93866840D01*
X151909555Y-93856452D01*
X151892524Y-93842476D01*
X151878548Y-93825445D01*
X151868160Y-93806009D01*
X151861764Y-93784928D01*
X151859000Y-93756860D01*
X151859000Y-93293140D01*
X151861764Y-93265072D01*
X151868160Y-93243991D01*
X151878548Y-93224555D01*
X151892524Y-93207524D01*
X151909555Y-93193548D01*
X151928991Y-93183160D01*
X151950072Y-93176764D01*
X151978140Y-93174000D01*
X153791860Y-93174000D01*
X153819928Y-93176764D01*
G37*
G36*
X162611000Y-93756000D02*
G01*
X161509000Y-93756000D01*
X161509000Y-92854000D01*
X162611000Y-92854000D01*
X162611000Y-93756000D01*
G37*
G36*
X191111000Y-93756000D02*
G01*
X190009000Y-93756000D01*
X190009000Y-92854000D01*
X191111000Y-92854000D01*
X191111000Y-93756000D01*
G37*
G36*
X183811000Y-93756000D02*
G01*
X182709000Y-93756000D01*
X182709000Y-92854000D01*
X183811000Y-92854000D01*
X183811000Y-93756000D01*
G37*
G36*
X169911000Y-93756000D02*
G01*
X168809000Y-93756000D01*
X168809000Y-92854000D01*
X169911000Y-92854000D01*
X169911000Y-93756000D01*
G37*
G36*
X180511000Y-93701000D02*
G01*
X179409000Y-93701000D01*
X179409000Y-92799000D01*
X180511000Y-92799000D01*
X180511000Y-93701000D01*
G37*
G36*
X173211000Y-93701000D02*
G01*
X172109000Y-93701000D01*
X172109000Y-92799000D01*
X173211000Y-92799000D01*
X173211000Y-93701000D01*
G37*
G36*
X168361000Y-93456000D02*
G01*
X167559000Y-93456000D01*
X167559000Y-91854000D01*
X168361000Y-91854000D01*
X168361000Y-93456000D01*
G37*
G36*
X163861000Y-93456000D02*
G01*
X163059000Y-93456000D01*
X163059000Y-91854000D01*
X163861000Y-91854000D01*
X163861000Y-93456000D01*
G37*
G36*
X166861000Y-93456000D02*
G01*
X166059000Y-93456000D01*
X166059000Y-91854000D01*
X166861000Y-91854000D01*
X166861000Y-93456000D01*
G37*
G36*
X185061000Y-93456000D02*
G01*
X184259000Y-93456000D01*
X184259000Y-91854000D01*
X185061000Y-91854000D01*
X185061000Y-93456000D01*
G37*
G36*
X189561000Y-93456000D02*
G01*
X188759000Y-93456000D01*
X188759000Y-91854000D01*
X189561000Y-91854000D01*
X189561000Y-93456000D01*
G37*
G36*
X188061000Y-93456000D02*
G01*
X187259000Y-93456000D01*
X187259000Y-91854000D01*
X188061000Y-91854000D01*
X188061000Y-93456000D01*
G37*
G36*
X177461000Y-93401000D02*
G01*
X176659000Y-93401000D01*
X176659000Y-91799000D01*
X177461000Y-91799000D01*
X177461000Y-93401000D01*
G37*
G36*
X178961000Y-93401000D02*
G01*
X178159000Y-93401000D01*
X178159000Y-91799000D01*
X178961000Y-91799000D01*
X178961000Y-93401000D01*
G37*
G36*
X174461000Y-93401000D02*
G01*
X173659000Y-93401000D01*
X173659000Y-91799000D01*
X174461000Y-91799000D01*
X174461000Y-93401000D01*
G37*
G36*
X197485068Y-92089163D02*
G01*
X196458349Y-93115882D01*
X195679118Y-92336651D01*
X196705837Y-91309932D01*
X197485068Y-92089163D01*
G37*
G36*
X153819928Y-91906764D02*
G01*
X153841009Y-91913160D01*
X153860445Y-91923548D01*
X153877476Y-91937524D01*
X153891452Y-91954555D01*
X153901840Y-91973991D01*
X153908236Y-91995072D01*
X153911000Y-92023140D01*
X153911000Y-92486860D01*
X153908236Y-92514928D01*
X153901840Y-92536009D01*
X153891452Y-92555445D01*
X153877476Y-92572476D01*
X153860445Y-92586452D01*
X153841009Y-92596840D01*
X153819928Y-92603236D01*
X153791860Y-92606000D01*
X151978140Y-92606000D01*
X151950072Y-92603236D01*
X151928991Y-92596840D01*
X151909555Y-92586452D01*
X151892524Y-92572476D01*
X151878548Y-92555445D01*
X151868160Y-92536009D01*
X151861764Y-92514928D01*
X151859000Y-92486860D01*
X151859000Y-92023140D01*
X151861764Y-91995072D01*
X151868160Y-91973991D01*
X151878548Y-91954555D01*
X151892524Y-91937524D01*
X151909555Y-91923548D01*
X151928991Y-91913160D01*
X151950072Y-91906764D01*
X151978140Y-91904000D01*
X153791860Y-91904000D01*
X153819928Y-91906764D01*
G37*
G36*
X148869928Y-91906764D02*
G01*
X148891009Y-91913160D01*
X148910445Y-91923548D01*
X148927476Y-91937524D01*
X148941452Y-91954555D01*
X148951840Y-91973991D01*
X148958236Y-91995072D01*
X148961000Y-92023140D01*
X148961000Y-92486860D01*
X148958236Y-92514928D01*
X148951840Y-92536009D01*
X148941452Y-92555445D01*
X148927476Y-92572476D01*
X148910445Y-92586452D01*
X148891009Y-92596840D01*
X148869928Y-92603236D01*
X148841860Y-92606000D01*
X147028140Y-92606000D01*
X147000072Y-92603236D01*
X146978991Y-92596840D01*
X146959555Y-92586452D01*
X146942524Y-92572476D01*
X146928548Y-92555445D01*
X146918160Y-92536009D01*
X146911764Y-92514928D01*
X146909000Y-92486860D01*
X146909000Y-92023140D01*
X146911764Y-91995072D01*
X146918160Y-91973991D01*
X146928548Y-91954555D01*
X146942524Y-91937524D01*
X146959555Y-91923548D01*
X146978991Y-91913160D01*
X147000072Y-91906764D01*
X147028140Y-91904000D01*
X148841860Y-91904000D01*
X148869928Y-91906764D01*
G37*
G36*
X132696601Y-91199397D02*
G01*
X132735305Y-91207096D01*
X132758877Y-91216860D01*
X132844680Y-91252400D01*
X132943115Y-91318173D01*
X133026827Y-91401885D01*
X133092600Y-91500320D01*
X133137904Y-91609696D01*
X133161000Y-91725805D01*
X133161000Y-91844195D01*
X133149311Y-91902958D01*
X133143221Y-91933577D01*
X133137904Y-91960304D01*
X133092600Y-92069680D01*
X133026827Y-92168115D01*
X132943115Y-92251827D01*
X132844680Y-92317600D01*
X132774649Y-92346607D01*
X132735305Y-92362904D01*
X132696601Y-92370603D01*
X132619195Y-92386000D01*
X132500805Y-92386000D01*
X132423399Y-92370603D01*
X132384695Y-92362904D01*
X132345351Y-92346607D01*
X132275320Y-92317600D01*
X132176885Y-92251827D01*
X132093173Y-92168115D01*
X132027400Y-92069680D01*
X131982096Y-91960304D01*
X131976780Y-91933577D01*
X131970689Y-91902958D01*
X131959000Y-91844195D01*
X131959000Y-91725805D01*
X131982096Y-91609696D01*
X132027400Y-91500320D01*
X132093173Y-91401885D01*
X132176885Y-91318173D01*
X132275320Y-91252400D01*
X132361123Y-91216860D01*
X132384695Y-91207096D01*
X132423399Y-91199397D01*
X132500805Y-91184000D01*
X132619195Y-91184000D01*
X132696601Y-91199397D01*
G37*
G36*
X160489591Y-91388085D02*
G01*
X160523569Y-91398393D01*
X160554890Y-91415134D01*
X160582339Y-91437661D01*
X160604866Y-91465110D01*
X160621607Y-91496431D01*
X160631915Y-91530409D01*
X160636000Y-91571890D01*
X160636000Y-92173110D01*
X160631915Y-92214591D01*
X160621607Y-92248569D01*
X160604866Y-92279890D01*
X160582339Y-92307339D01*
X160554890Y-92329866D01*
X160523569Y-92346607D01*
X160489591Y-92356915D01*
X160448110Y-92361000D01*
X159771890Y-92361000D01*
X159730409Y-92356915D01*
X159696431Y-92346607D01*
X159665110Y-92329866D01*
X159637661Y-92307339D01*
X159615134Y-92279890D01*
X159598393Y-92248569D01*
X159588085Y-92214591D01*
X159584000Y-92173110D01*
X159584000Y-91571890D01*
X159588085Y-91530409D01*
X159598393Y-91496431D01*
X159615134Y-91465110D01*
X159637661Y-91437661D01*
X159665110Y-91415134D01*
X159696431Y-91398393D01*
X159730409Y-91388085D01*
X159771890Y-91384000D01*
X160448110Y-91384000D01*
X160489591Y-91388085D01*
G37*
G36*
X196495119Y-91099213D02*
G01*
X195468400Y-92125932D01*
X194689169Y-91346701D01*
X195715888Y-90319982D01*
X196495119Y-91099213D01*
G37*
G36*
X200565875Y-90463570D02*
G01*
X200621516Y-90474638D01*
X200723183Y-90516750D01*
X200726343Y-90518059D01*
X200820679Y-90581092D01*
X200900914Y-90661327D01*
X200963947Y-90755663D01*
X201007368Y-90860491D01*
X201029503Y-90971771D01*
X201029503Y-91085235D01*
X201019971Y-91133154D01*
X201007368Y-91196516D01*
X200970532Y-91285445D01*
X200963947Y-91301343D01*
X200900914Y-91395679D01*
X200820679Y-91475914D01*
X200726343Y-91538947D01*
X200726342Y-91538948D01*
X200726341Y-91538948D01*
X200621516Y-91582368D01*
X200565875Y-91593435D01*
X200510235Y-91604503D01*
X200396771Y-91604503D01*
X200341131Y-91593436D01*
X200285490Y-91582368D01*
X200180665Y-91538948D01*
X200180664Y-91538948D01*
X200180663Y-91538947D01*
X200086327Y-91475914D01*
X200006092Y-91395679D01*
X199943059Y-91301343D01*
X199936474Y-91285445D01*
X199899638Y-91196516D01*
X199887035Y-91133154D01*
X199877503Y-91085235D01*
X199877503Y-90971771D01*
X199899638Y-90860491D01*
X199943059Y-90755663D01*
X200006092Y-90661327D01*
X200086327Y-90581092D01*
X200180663Y-90518059D01*
X200183823Y-90516750D01*
X200285490Y-90474638D01*
X200341131Y-90463570D01*
X200396771Y-90452503D01*
X200510235Y-90452503D01*
X200565875Y-90463570D01*
G37*
G36*
X157341000Y-91556000D02*
G01*
X154729000Y-91556000D01*
X154729000Y-90454000D01*
X157341000Y-90454000D01*
X157341000Y-91556000D01*
G37*
G36*
X153819928Y-90636764D02*
G01*
X153841009Y-90643160D01*
X153860445Y-90653548D01*
X153877476Y-90667524D01*
X153891452Y-90684555D01*
X153901840Y-90703991D01*
X153908236Y-90725072D01*
X153911000Y-90753140D01*
X153911000Y-91216860D01*
X153908236Y-91244928D01*
X153901840Y-91266009D01*
X153891452Y-91285445D01*
X153877476Y-91302476D01*
X153860445Y-91316452D01*
X153841009Y-91326840D01*
X153819928Y-91333236D01*
X153791860Y-91336000D01*
X151978140Y-91336000D01*
X151950072Y-91333236D01*
X151928991Y-91326840D01*
X151909555Y-91316452D01*
X151892524Y-91302476D01*
X151878548Y-91285445D01*
X151868160Y-91266009D01*
X151861764Y-91244928D01*
X151859000Y-91216860D01*
X151859000Y-90753140D01*
X151861764Y-90725072D01*
X151868160Y-90703991D01*
X151878548Y-90684555D01*
X151892524Y-90667524D01*
X151909555Y-90653548D01*
X151928991Y-90643160D01*
X151950072Y-90636764D01*
X151978140Y-90634000D01*
X153791860Y-90634000D01*
X153819928Y-90636764D01*
G37*
G36*
X148869928Y-90636764D02*
G01*
X148891009Y-90643160D01*
X148910445Y-90653548D01*
X148927476Y-90667524D01*
X148941452Y-90684555D01*
X148951840Y-90703991D01*
X148958236Y-90725072D01*
X148961000Y-90753140D01*
X148961000Y-91216860D01*
X148958236Y-91244928D01*
X148951840Y-91266009D01*
X148941452Y-91285445D01*
X148927476Y-91302476D01*
X148910445Y-91316452D01*
X148891009Y-91326840D01*
X148869928Y-91333236D01*
X148841860Y-91336000D01*
X147028140Y-91336000D01*
X147000072Y-91333236D01*
X146978991Y-91326840D01*
X146959555Y-91316452D01*
X146942524Y-91302476D01*
X146928548Y-91285445D01*
X146918160Y-91266009D01*
X146911764Y-91244928D01*
X146909000Y-91216860D01*
X146909000Y-90753140D01*
X146911764Y-90725072D01*
X146918160Y-90703991D01*
X146928548Y-90684555D01*
X146942524Y-90667524D01*
X146959555Y-90653548D01*
X146978991Y-90643160D01*
X147000072Y-90636764D01*
X147028140Y-90634000D01*
X148841860Y-90634000D01*
X148869928Y-90636764D01*
G37*
G36*
X160489591Y-89813085D02*
G01*
X160523569Y-89823393D01*
X160554890Y-89840134D01*
X160582339Y-89862661D01*
X160604866Y-89890110D01*
X160621607Y-89921431D01*
X160631915Y-89955409D01*
X160636000Y-89996890D01*
X160636000Y-90598110D01*
X160631915Y-90639591D01*
X160621607Y-90673569D01*
X160604866Y-90704890D01*
X160582339Y-90732339D01*
X160554890Y-90754866D01*
X160523569Y-90771607D01*
X160489591Y-90781915D01*
X160448110Y-90786000D01*
X159771890Y-90786000D01*
X159730409Y-90781915D01*
X159696431Y-90771607D01*
X159665110Y-90754866D01*
X159637661Y-90732339D01*
X159615134Y-90704890D01*
X159598393Y-90673569D01*
X159588085Y-90639591D01*
X159584000Y-90598110D01*
X159584000Y-89996890D01*
X159588085Y-89955409D01*
X159598393Y-89921431D01*
X159615134Y-89890110D01*
X159637661Y-89862661D01*
X159665110Y-89840134D01*
X159696431Y-89823393D01*
X159730409Y-89813085D01*
X159771890Y-89809000D01*
X160448110Y-89809000D01*
X160489591Y-89813085D01*
G37*
G36*
X180379591Y-89713085D02*
G01*
X180413569Y-89723393D01*
X180444890Y-89740134D01*
X180472339Y-89762661D01*
X180494866Y-89790110D01*
X180511607Y-89821431D01*
X180521915Y-89855409D01*
X180526000Y-89896890D01*
X180526000Y-90573110D01*
X180521915Y-90614591D01*
X180511607Y-90648569D01*
X180494866Y-90679890D01*
X180472339Y-90707339D01*
X180444890Y-90729866D01*
X180413569Y-90746607D01*
X180379591Y-90756915D01*
X180338110Y-90761000D01*
X179736890Y-90761000D01*
X179695409Y-90756915D01*
X179661431Y-90746607D01*
X179630110Y-90729866D01*
X179602661Y-90707339D01*
X179580134Y-90679890D01*
X179563393Y-90648569D01*
X179553085Y-90614591D01*
X179549000Y-90573110D01*
X179549000Y-89896890D01*
X179553085Y-89855409D01*
X179563393Y-89821431D01*
X179580134Y-89790110D01*
X179602661Y-89762661D01*
X179630110Y-89740134D01*
X179661431Y-89723393D01*
X179695409Y-89713085D01*
X179736890Y-89709000D01*
X180338110Y-89709000D01*
X180379591Y-89713085D01*
G37*
G36*
X178804591Y-89713085D02*
G01*
X178838569Y-89723393D01*
X178869890Y-89740134D01*
X178897339Y-89762661D01*
X178919866Y-89790110D01*
X178936607Y-89821431D01*
X178946915Y-89855409D01*
X178951000Y-89896890D01*
X178951000Y-90573110D01*
X178946915Y-90614591D01*
X178936607Y-90648569D01*
X178919866Y-90679890D01*
X178897339Y-90707339D01*
X178869890Y-90729866D01*
X178838569Y-90746607D01*
X178804591Y-90756915D01*
X178763110Y-90761000D01*
X178161890Y-90761000D01*
X178120409Y-90756915D01*
X178086431Y-90746607D01*
X178055110Y-90729866D01*
X178027661Y-90707339D01*
X178005134Y-90679890D01*
X177988393Y-90648569D01*
X177978085Y-90614591D01*
X177974000Y-90573110D01*
X177974000Y-89896890D01*
X177978085Y-89855409D01*
X177988393Y-89821431D01*
X178005134Y-89790110D01*
X178027661Y-89762661D01*
X178055110Y-89740134D01*
X178086431Y-89723393D01*
X178120409Y-89713085D01*
X178161890Y-89709000D01*
X178763110Y-89709000D01*
X178804591Y-89713085D01*
G37*
G36*
X141961000Y-90686000D02*
G01*
X140284000Y-90686000D01*
X140284000Y-88884000D01*
X141961000Y-88884000D01*
X141961000Y-90686000D01*
G37*
G36*
X183186000Y-90636000D02*
G01*
X181634000Y-90636000D01*
X181634000Y-84234000D01*
X183186000Y-84234000D01*
X183186000Y-90636000D01*
G37*
G36*
X189086000Y-90636000D02*
G01*
X187534000Y-90636000D01*
X187534000Y-84234000D01*
X189086000Y-84234000D01*
X189086000Y-90636000D01*
G37*
G36*
X170411000Y-89936000D02*
G01*
X166609000Y-89936000D01*
X166609000Y-88634000D01*
X170411000Y-88634000D01*
X170411000Y-89936000D01*
G37*
G36*
X155589591Y-88788085D02*
G01*
X155623569Y-88798393D01*
X155654890Y-88815134D01*
X155682339Y-88837661D01*
X155704866Y-88865110D01*
X155721607Y-88896431D01*
X155731915Y-88930409D01*
X155736000Y-88971890D01*
X155736000Y-89573110D01*
X155731915Y-89614591D01*
X155721607Y-89648569D01*
X155704866Y-89679890D01*
X155682339Y-89707339D01*
X155654890Y-89729866D01*
X155623569Y-89746607D01*
X155589591Y-89756915D01*
X155548110Y-89761000D01*
X154871890Y-89761000D01*
X154830409Y-89756915D01*
X154796431Y-89746607D01*
X154765110Y-89729866D01*
X154737661Y-89707339D01*
X154715134Y-89679890D01*
X154698393Y-89648569D01*
X154688085Y-89614591D01*
X154684000Y-89573110D01*
X154684000Y-88971890D01*
X154688085Y-88930409D01*
X154698393Y-88896431D01*
X154715134Y-88865110D01*
X154737661Y-88837661D01*
X154765110Y-88815134D01*
X154796431Y-88798393D01*
X154830409Y-88788085D01*
X154871890Y-88784000D01*
X155548110Y-88784000D01*
X155589591Y-88788085D01*
G37*
G36*
X164919468Y-88138565D02*
G01*
X164958138Y-88150296D01*
X164993777Y-88169346D01*
X165025017Y-88194983D01*
X165050654Y-88226223D01*
X165069704Y-88261862D01*
X165081435Y-88300532D01*
X165086000Y-88346888D01*
X165086000Y-89423112D01*
X165081435Y-89469468D01*
X165069704Y-89508138D01*
X165050654Y-89543777D01*
X165025017Y-89575017D01*
X164993777Y-89600654D01*
X164958138Y-89619704D01*
X164919468Y-89631435D01*
X164873112Y-89636000D01*
X164221888Y-89636000D01*
X164175532Y-89631435D01*
X164136862Y-89619704D01*
X164101223Y-89600654D01*
X164069983Y-89575017D01*
X164044346Y-89543777D01*
X164025296Y-89508138D01*
X164013565Y-89469468D01*
X164009000Y-89423112D01*
X164009000Y-88346888D01*
X164013565Y-88300532D01*
X164025296Y-88261862D01*
X164044346Y-88226223D01*
X164069983Y-88194983D01*
X164101223Y-88169346D01*
X164136862Y-88150296D01*
X164175532Y-88138565D01*
X164221888Y-88134000D01*
X164873112Y-88134000D01*
X164919468Y-88138565D01*
G37*
G36*
X163044468Y-88138565D02*
G01*
X163083138Y-88150296D01*
X163118777Y-88169346D01*
X163150017Y-88194983D01*
X163175654Y-88226223D01*
X163194704Y-88261862D01*
X163206435Y-88300532D01*
X163211000Y-88346888D01*
X163211000Y-89423112D01*
X163206435Y-89469468D01*
X163194704Y-89508138D01*
X163175654Y-89543777D01*
X163150017Y-89575017D01*
X163118777Y-89600654D01*
X163083138Y-89619704D01*
X163044468Y-89631435D01*
X162998112Y-89636000D01*
X162346888Y-89636000D01*
X162300532Y-89631435D01*
X162261862Y-89619704D01*
X162226223Y-89600654D01*
X162194983Y-89575017D01*
X162169346Y-89543777D01*
X162150296Y-89508138D01*
X162138565Y-89469468D01*
X162134000Y-89423112D01*
X162134000Y-88346888D01*
X162138565Y-88300532D01*
X162150296Y-88261862D01*
X162169346Y-88226223D01*
X162194983Y-88194983D01*
X162226223Y-88169346D01*
X162261862Y-88150296D01*
X162300532Y-88138565D01*
X162346888Y-88134000D01*
X162998112Y-88134000D01*
X163044468Y-88138565D01*
G37*
G36*
X145882798Y-88063247D02*
G01*
X145918367Y-88074037D01*
X145951139Y-88091554D01*
X145979869Y-88115131D01*
X146003446Y-88143861D01*
X146020963Y-88176633D01*
X146031753Y-88212202D01*
X146036000Y-88255325D01*
X146036000Y-89314675D01*
X146031753Y-89357798D01*
X146020963Y-89393367D01*
X146003446Y-89426139D01*
X145979869Y-89454869D01*
X145951139Y-89478446D01*
X145918367Y-89495963D01*
X145882798Y-89506753D01*
X145839675Y-89511000D01*
X142780325Y-89511000D01*
X142737202Y-89506753D01*
X142701633Y-89495963D01*
X142668861Y-89478446D01*
X142640131Y-89454869D01*
X142616554Y-89426139D01*
X142599037Y-89393367D01*
X142588247Y-89357798D01*
X142584000Y-89314675D01*
X142584000Y-88255325D01*
X142588247Y-88212202D01*
X142599037Y-88176633D01*
X142616554Y-88143861D01*
X142640131Y-88115131D01*
X142668861Y-88091554D01*
X142701633Y-88074037D01*
X142737202Y-88063247D01*
X142780325Y-88059000D01*
X145839675Y-88059000D01*
X145882798Y-88063247D01*
G37*
G36*
X176894468Y-88288565D02*
G01*
X176933138Y-88300296D01*
X176968777Y-88319346D01*
X177000017Y-88344983D01*
X177025654Y-88376223D01*
X177044704Y-88411862D01*
X177056435Y-88450532D01*
X177061000Y-88496888D01*
X177061000Y-89148112D01*
X177056435Y-89194468D01*
X177044704Y-89233138D01*
X177025654Y-89268777D01*
X177000017Y-89300017D01*
X176968777Y-89325654D01*
X176933138Y-89344704D01*
X176894468Y-89356435D01*
X176848112Y-89361000D01*
X175771888Y-89361000D01*
X175725532Y-89356435D01*
X175686862Y-89344704D01*
X175651223Y-89325654D01*
X175619983Y-89300017D01*
X175594346Y-89268777D01*
X175575296Y-89233138D01*
X175563565Y-89194468D01*
X175559000Y-89148112D01*
X175559000Y-88496888D01*
X175563565Y-88450532D01*
X175575296Y-88411862D01*
X175594346Y-88376223D01*
X175619983Y-88344983D01*
X175651223Y-88319346D01*
X175686862Y-88300296D01*
X175725532Y-88288565D01*
X175771888Y-88284000D01*
X176848112Y-88284000D01*
X176894468Y-88288565D01*
G37*
G36*
X172491000Y-89211000D02*
G01*
X171329000Y-89211000D01*
X171329000Y-88459000D01*
X172491000Y-88459000D01*
X172491000Y-89211000D01*
G37*
G36*
X174691000Y-89211000D02*
G01*
X173529000Y-89211000D01*
X173529000Y-86559000D01*
X174691000Y-86559000D01*
X174691000Y-89211000D01*
G37*
G36*
X203530831Y-88023299D02*
G01*
X202504112Y-89050018D01*
X201724881Y-88270787D01*
X202751600Y-87244068D01*
X203530831Y-88023299D01*
G37*
G36*
X160651000Y-89016000D02*
G01*
X158039000Y-89016000D01*
X158039000Y-87914000D01*
X160651000Y-87914000D01*
X160651000Y-89016000D01*
G37*
G36*
X149739591Y-87963085D02*
G01*
X149773569Y-87973393D01*
X149804890Y-87990134D01*
X149832339Y-88012661D01*
X149854866Y-88040110D01*
X149871607Y-88071431D01*
X149881915Y-88105409D01*
X149886000Y-88146890D01*
X149886000Y-88823110D01*
X149881915Y-88864591D01*
X149871607Y-88898569D01*
X149854866Y-88929890D01*
X149832339Y-88957339D01*
X149804890Y-88979866D01*
X149773569Y-88996607D01*
X149739591Y-89006915D01*
X149698110Y-89011000D01*
X149096890Y-89011000D01*
X149055409Y-89006915D01*
X149021431Y-88996607D01*
X148990110Y-88979866D01*
X148962661Y-88957339D01*
X148940134Y-88929890D01*
X148923393Y-88898569D01*
X148913085Y-88864591D01*
X148909000Y-88823110D01*
X148909000Y-88146890D01*
X148913085Y-88105409D01*
X148923393Y-88071431D01*
X148940134Y-88040110D01*
X148962661Y-88012661D01*
X148990110Y-87990134D01*
X149021431Y-87973393D01*
X149055409Y-87963085D01*
X149096890Y-87959000D01*
X149698110Y-87959000D01*
X149739591Y-87963085D01*
G37*
G36*
X148164591Y-87963085D02*
G01*
X148198569Y-87973393D01*
X148229890Y-87990134D01*
X148257339Y-88012661D01*
X148279866Y-88040110D01*
X148296607Y-88071431D01*
X148306915Y-88105409D01*
X148311000Y-88146890D01*
X148311000Y-88823110D01*
X148306915Y-88864591D01*
X148296607Y-88898569D01*
X148279866Y-88929890D01*
X148257339Y-88957339D01*
X148229890Y-88979866D01*
X148198569Y-88996607D01*
X148164591Y-89006915D01*
X148123110Y-89011000D01*
X147521890Y-89011000D01*
X147480409Y-89006915D01*
X147446431Y-88996607D01*
X147415110Y-88979866D01*
X147387661Y-88957339D01*
X147365134Y-88929890D01*
X147348393Y-88898569D01*
X147338085Y-88864591D01*
X147334000Y-88823110D01*
X147334000Y-88146890D01*
X147338085Y-88105409D01*
X147348393Y-88071431D01*
X147365134Y-88040110D01*
X147387661Y-88012661D01*
X147415110Y-87990134D01*
X147446431Y-87973393D01*
X147480409Y-87963085D01*
X147521890Y-87959000D01*
X148123110Y-87959000D01*
X148164591Y-87963085D01*
G37*
G36*
X151764591Y-87963085D02*
G01*
X151798569Y-87973393D01*
X151829890Y-87990134D01*
X151857339Y-88012661D01*
X151879866Y-88040110D01*
X151896607Y-88071431D01*
X151906915Y-88105409D01*
X151911000Y-88146890D01*
X151911000Y-88823110D01*
X151906915Y-88864591D01*
X151896607Y-88898569D01*
X151879866Y-88929890D01*
X151857339Y-88957339D01*
X151829890Y-88979866D01*
X151798569Y-88996607D01*
X151764591Y-89006915D01*
X151723110Y-89011000D01*
X151121890Y-89011000D01*
X151080409Y-89006915D01*
X151046431Y-88996607D01*
X151015110Y-88979866D01*
X150987661Y-88957339D01*
X150965134Y-88929890D01*
X150948393Y-88898569D01*
X150938085Y-88864591D01*
X150934000Y-88823110D01*
X150934000Y-88146890D01*
X150938085Y-88105409D01*
X150948393Y-88071431D01*
X150965134Y-88040110D01*
X150987661Y-88012661D01*
X151015110Y-87990134D01*
X151046431Y-87973393D01*
X151080409Y-87963085D01*
X151121890Y-87959000D01*
X151723110Y-87959000D01*
X151764591Y-87963085D01*
G37*
G36*
X153339591Y-87963085D02*
G01*
X153373569Y-87973393D01*
X153404890Y-87990134D01*
X153432339Y-88012661D01*
X153454866Y-88040110D01*
X153471607Y-88071431D01*
X153481915Y-88105409D01*
X153486000Y-88146890D01*
X153486000Y-88823110D01*
X153481915Y-88864591D01*
X153471607Y-88898569D01*
X153454866Y-88929890D01*
X153432339Y-88957339D01*
X153404890Y-88979866D01*
X153373569Y-88996607D01*
X153339591Y-89006915D01*
X153298110Y-89011000D01*
X152696890Y-89011000D01*
X152655409Y-89006915D01*
X152621431Y-88996607D01*
X152590110Y-88979866D01*
X152562661Y-88957339D01*
X152540134Y-88929890D01*
X152523393Y-88898569D01*
X152513085Y-88864591D01*
X152509000Y-88823110D01*
X152509000Y-88146890D01*
X152513085Y-88105409D01*
X152523393Y-88071431D01*
X152540134Y-88040110D01*
X152562661Y-88012661D01*
X152590110Y-87990134D01*
X152621431Y-87973393D01*
X152655409Y-87963085D01*
X152696890Y-87959000D01*
X153298110Y-87959000D01*
X153339591Y-87963085D01*
G37*
G36*
X190964591Y-87913085D02*
G01*
X190998569Y-87923393D01*
X191029890Y-87940134D01*
X191057339Y-87962661D01*
X191079866Y-87990110D01*
X191096607Y-88021431D01*
X191106915Y-88055409D01*
X191111000Y-88096890D01*
X191111000Y-88773110D01*
X191106915Y-88814591D01*
X191096607Y-88848569D01*
X191079866Y-88879890D01*
X191057339Y-88907339D01*
X191029890Y-88929866D01*
X190998569Y-88946607D01*
X190964591Y-88956915D01*
X190923110Y-88961000D01*
X190321890Y-88961000D01*
X190280409Y-88956915D01*
X190246431Y-88946607D01*
X190215110Y-88929866D01*
X190187661Y-88907339D01*
X190165134Y-88879890D01*
X190148393Y-88848569D01*
X190138085Y-88814591D01*
X190134000Y-88773110D01*
X190134000Y-88096890D01*
X190138085Y-88055409D01*
X190148393Y-88021431D01*
X190165134Y-87990110D01*
X190187661Y-87962661D01*
X190215110Y-87940134D01*
X190246431Y-87923393D01*
X190280409Y-87913085D01*
X190321890Y-87909000D01*
X190923110Y-87909000D01*
X190964591Y-87913085D01*
G37*
G36*
X192539591Y-87913085D02*
G01*
X192573569Y-87923393D01*
X192604890Y-87940134D01*
X192632339Y-87962661D01*
X192654866Y-87990110D01*
X192671607Y-88021431D01*
X192681915Y-88055409D01*
X192686000Y-88096890D01*
X192686000Y-88773110D01*
X192681915Y-88814591D01*
X192671607Y-88848569D01*
X192654866Y-88879890D01*
X192632339Y-88907339D01*
X192604890Y-88929866D01*
X192573569Y-88946607D01*
X192539591Y-88956915D01*
X192498110Y-88961000D01*
X191896890Y-88961000D01*
X191855409Y-88956915D01*
X191821431Y-88946607D01*
X191790110Y-88929866D01*
X191762661Y-88907339D01*
X191740134Y-88879890D01*
X191723393Y-88848569D01*
X191713085Y-88814591D01*
X191709000Y-88773110D01*
X191709000Y-88096890D01*
X191713085Y-88055409D01*
X191723393Y-88021431D01*
X191740134Y-87990110D01*
X191762661Y-87962661D01*
X191790110Y-87940134D01*
X191821431Y-87923393D01*
X191855409Y-87913085D01*
X191896890Y-87909000D01*
X192498110Y-87909000D01*
X192539591Y-87913085D01*
G37*
G36*
X180339591Y-87863085D02*
G01*
X180373569Y-87873393D01*
X180404890Y-87890134D01*
X180432339Y-87912661D01*
X180454866Y-87940110D01*
X180471607Y-87971431D01*
X180481915Y-88005409D01*
X180486000Y-88046890D01*
X180486000Y-88723110D01*
X180481915Y-88764591D01*
X180471607Y-88798569D01*
X180454866Y-88829890D01*
X180432339Y-88857339D01*
X180404890Y-88879866D01*
X180373569Y-88896607D01*
X180339591Y-88906915D01*
X180298110Y-88911000D01*
X179696890Y-88911000D01*
X179655409Y-88906915D01*
X179621431Y-88896607D01*
X179590110Y-88879866D01*
X179562661Y-88857339D01*
X179540134Y-88829890D01*
X179523393Y-88798569D01*
X179513085Y-88764591D01*
X179509000Y-88723110D01*
X179509000Y-88046890D01*
X179513085Y-88005409D01*
X179523393Y-87971431D01*
X179540134Y-87940110D01*
X179562661Y-87912661D01*
X179590110Y-87890134D01*
X179621431Y-87873393D01*
X179655409Y-87863085D01*
X179696890Y-87859000D01*
X180298110Y-87859000D01*
X180339591Y-87863085D01*
G37*
G36*
X178764591Y-87863085D02*
G01*
X178798569Y-87873393D01*
X178829890Y-87890134D01*
X178857339Y-87912661D01*
X178879866Y-87940110D01*
X178896607Y-87971431D01*
X178906915Y-88005409D01*
X178911000Y-88046890D01*
X178911000Y-88723110D01*
X178906915Y-88764591D01*
X178896607Y-88798569D01*
X178879866Y-88829890D01*
X178857339Y-88857339D01*
X178829890Y-88879866D01*
X178798569Y-88896607D01*
X178764591Y-88906915D01*
X178723110Y-88911000D01*
X178121890Y-88911000D01*
X178080409Y-88906915D01*
X178046431Y-88896607D01*
X178015110Y-88879866D01*
X177987661Y-88857339D01*
X177965134Y-88829890D01*
X177948393Y-88798569D01*
X177938085Y-88764591D01*
X177934000Y-88723110D01*
X177934000Y-88046890D01*
X177938085Y-88005409D01*
X177948393Y-87971431D01*
X177965134Y-87940110D01*
X177987661Y-87912661D01*
X178015110Y-87890134D01*
X178046431Y-87873393D01*
X178080409Y-87863085D01*
X178121890Y-87859000D01*
X178723110Y-87859000D01*
X178764591Y-87863085D01*
G37*
G36*
X210161000Y-88811000D02*
G01*
X207659000Y-88811000D01*
X207659000Y-87259000D01*
X210161000Y-87259000D01*
X210161000Y-88811000D01*
G37*
G36*
X197890757Y-87931868D02*
G01*
X197914614Y-87941750D01*
X197968281Y-87963979D01*
X197968284Y-87963981D01*
X198038056Y-88010601D01*
X198097393Y-88069938D01*
X198120747Y-88104890D01*
X198144015Y-88139713D01*
X198150761Y-88156000D01*
X198176126Y-88217237D01*
X198192497Y-88299540D01*
X198192497Y-88383454D01*
X198176126Y-88465757D01*
X198163231Y-88496888D01*
X198144015Y-88543281D01*
X198144013Y-88543284D01*
X198097393Y-88613056D01*
X198038056Y-88672393D01*
X197975186Y-88714401D01*
X197968281Y-88719015D01*
X197924568Y-88737121D01*
X197890757Y-88751126D01*
X197808454Y-88767497D01*
X197724540Y-88767497D01*
X197642237Y-88751126D01*
X197608426Y-88737121D01*
X197564713Y-88719015D01*
X197557808Y-88714401D01*
X197494938Y-88672393D01*
X197435601Y-88613056D01*
X197388981Y-88543284D01*
X197388979Y-88543281D01*
X197369763Y-88496888D01*
X197356868Y-88465757D01*
X197340497Y-88383454D01*
X197340497Y-88299540D01*
X197356868Y-88217237D01*
X197382233Y-88156000D01*
X197388979Y-88139713D01*
X197412247Y-88104890D01*
X197435601Y-88069938D01*
X197494938Y-88010601D01*
X197564710Y-87963981D01*
X197564713Y-87963979D01*
X197618380Y-87941750D01*
X197642237Y-87931868D01*
X197724540Y-87915497D01*
X197808454Y-87915497D01*
X197890757Y-87931868D01*
G37*
G36*
X131536000Y-88686000D02*
G01*
X129859000Y-88686000D01*
X129859000Y-86884000D01*
X131536000Y-86884000D01*
X131536000Y-88686000D01*
G37*
G36*
X204664591Y-87263085D02*
G01*
X204698569Y-87273393D01*
X204729890Y-87290134D01*
X204757339Y-87312661D01*
X204779866Y-87340110D01*
X204796607Y-87371431D01*
X204806915Y-87405409D01*
X204811000Y-87446890D01*
X204811000Y-88123110D01*
X204806915Y-88164591D01*
X204796607Y-88198569D01*
X204779866Y-88229890D01*
X204757339Y-88257339D01*
X204729890Y-88279866D01*
X204698569Y-88296607D01*
X204664591Y-88306915D01*
X204623110Y-88311000D01*
X204021890Y-88311000D01*
X203980409Y-88306915D01*
X203946431Y-88296607D01*
X203915110Y-88279866D01*
X203887661Y-88257339D01*
X203865134Y-88229890D01*
X203848393Y-88198569D01*
X203838085Y-88164591D01*
X203834000Y-88123110D01*
X203834000Y-87446890D01*
X203838085Y-87405409D01*
X203848393Y-87371431D01*
X203865134Y-87340110D01*
X203887661Y-87312661D01*
X203915110Y-87290134D01*
X203946431Y-87273393D01*
X203980409Y-87263085D01*
X204021890Y-87259000D01*
X204623110Y-87259000D01*
X204664591Y-87263085D01*
G37*
G36*
X206239591Y-87263085D02*
G01*
X206273569Y-87273393D01*
X206304890Y-87290134D01*
X206332339Y-87312661D01*
X206354866Y-87340110D01*
X206371607Y-87371431D01*
X206381915Y-87405409D01*
X206386000Y-87446890D01*
X206386000Y-88123110D01*
X206381915Y-88164591D01*
X206371607Y-88198569D01*
X206354866Y-88229890D01*
X206332339Y-88257339D01*
X206304890Y-88279866D01*
X206273569Y-88296607D01*
X206239591Y-88306915D01*
X206198110Y-88311000D01*
X205596890Y-88311000D01*
X205555409Y-88306915D01*
X205521431Y-88296607D01*
X205490110Y-88279866D01*
X205462661Y-88257339D01*
X205440134Y-88229890D01*
X205423393Y-88198569D01*
X205413085Y-88164591D01*
X205409000Y-88123110D01*
X205409000Y-87446890D01*
X205413085Y-87405409D01*
X205423393Y-87371431D01*
X205440134Y-87340110D01*
X205462661Y-87312661D01*
X205490110Y-87290134D01*
X205521431Y-87273393D01*
X205555409Y-87263085D01*
X205596890Y-87259000D01*
X206198110Y-87259000D01*
X206239591Y-87263085D01*
G37*
G36*
X129189591Y-87288085D02*
G01*
X129223569Y-87298393D01*
X129254890Y-87315134D01*
X129282339Y-87337661D01*
X129304866Y-87365110D01*
X129321607Y-87396431D01*
X129331915Y-87430409D01*
X129336000Y-87471890D01*
X129336000Y-88073110D01*
X129331915Y-88114591D01*
X129321607Y-88148569D01*
X129304866Y-88179890D01*
X129282339Y-88207339D01*
X129254890Y-88229866D01*
X129223569Y-88246607D01*
X129189591Y-88256915D01*
X129148110Y-88261000D01*
X128471890Y-88261000D01*
X128430409Y-88256915D01*
X128396431Y-88246607D01*
X128365110Y-88229866D01*
X128337661Y-88207339D01*
X128315134Y-88179890D01*
X128298393Y-88148569D01*
X128288085Y-88114591D01*
X128284000Y-88073110D01*
X128284000Y-87471890D01*
X128288085Y-87430409D01*
X128298393Y-87396431D01*
X128315134Y-87365110D01*
X128337661Y-87337661D01*
X128365110Y-87315134D01*
X128396431Y-87298393D01*
X128430409Y-87288085D01*
X128471890Y-87284000D01*
X129148110Y-87284000D01*
X129189591Y-87288085D01*
G37*
G36*
X127189591Y-87288085D02*
G01*
X127223569Y-87298393D01*
X127254890Y-87315134D01*
X127282339Y-87337661D01*
X127304866Y-87365110D01*
X127321607Y-87396431D01*
X127331915Y-87430409D01*
X127336000Y-87471890D01*
X127336000Y-88073110D01*
X127331915Y-88114591D01*
X127321607Y-88148569D01*
X127304866Y-88179890D01*
X127282339Y-88207339D01*
X127254890Y-88229866D01*
X127223569Y-88246607D01*
X127189591Y-88256915D01*
X127148110Y-88261000D01*
X126471890Y-88261000D01*
X126430409Y-88256915D01*
X126396431Y-88246607D01*
X126365110Y-88229866D01*
X126337661Y-88207339D01*
X126315134Y-88179890D01*
X126298393Y-88148569D01*
X126288085Y-88114591D01*
X126284000Y-88073110D01*
X126284000Y-87471890D01*
X126288085Y-87430409D01*
X126298393Y-87396431D01*
X126315134Y-87365110D01*
X126337661Y-87337661D01*
X126365110Y-87315134D01*
X126396431Y-87298393D01*
X126430409Y-87288085D01*
X126471890Y-87284000D01*
X127148110Y-87284000D01*
X127189591Y-87288085D01*
G37*
G36*
X197661846Y-86750507D02*
G01*
X196175507Y-88236846D01*
X194830590Y-86891929D01*
X196316929Y-85405590D01*
X197661846Y-86750507D01*
G37*
G36*
X155589591Y-87213085D02*
G01*
X155623569Y-87223393D01*
X155654890Y-87240134D01*
X155682339Y-87262661D01*
X155704866Y-87290110D01*
X155721607Y-87321431D01*
X155731915Y-87355409D01*
X155736000Y-87396890D01*
X155736000Y-87998110D01*
X155731915Y-88039591D01*
X155721607Y-88073569D01*
X155704866Y-88104890D01*
X155682339Y-88132339D01*
X155654890Y-88154866D01*
X155623569Y-88171607D01*
X155589591Y-88181915D01*
X155548110Y-88186000D01*
X154871890Y-88186000D01*
X154830409Y-88181915D01*
X154796431Y-88171607D01*
X154765110Y-88154866D01*
X154737661Y-88132339D01*
X154715134Y-88104890D01*
X154698393Y-88073569D01*
X154688085Y-88039591D01*
X154684000Y-87998110D01*
X154684000Y-87396890D01*
X154688085Y-87355409D01*
X154698393Y-87321431D01*
X154715134Y-87290110D01*
X154737661Y-87262661D01*
X154765110Y-87240134D01*
X154796431Y-87223393D01*
X154830409Y-87213085D01*
X154871890Y-87209000D01*
X155548110Y-87209000D01*
X155589591Y-87213085D01*
G37*
G36*
X125136000Y-88156000D02*
G01*
X122484000Y-88156000D01*
X122484000Y-86834000D01*
X125136000Y-86834000D01*
X125136000Y-88156000D01*
G37*
G36*
X202540882Y-87033349D02*
G01*
X201514163Y-88060068D01*
X200734932Y-87280837D01*
X201761651Y-86254118D01*
X202540882Y-87033349D01*
G37*
G36*
X176894468Y-86413565D02*
G01*
X176933138Y-86425296D01*
X176968777Y-86444346D01*
X177000017Y-86469983D01*
X177025654Y-86501223D01*
X177044704Y-86536862D01*
X177056435Y-86575532D01*
X177061000Y-86621888D01*
X177061000Y-87273112D01*
X177056435Y-87319468D01*
X177044704Y-87358138D01*
X177025654Y-87393777D01*
X177000017Y-87425017D01*
X176968777Y-87450654D01*
X176933138Y-87469704D01*
X176894468Y-87481435D01*
X176848112Y-87486000D01*
X175771888Y-87486000D01*
X175725532Y-87481435D01*
X175686862Y-87469704D01*
X175651223Y-87450654D01*
X175619983Y-87425017D01*
X175594346Y-87393777D01*
X175575296Y-87358138D01*
X175563565Y-87319468D01*
X175559000Y-87273112D01*
X175559000Y-86621888D01*
X175563565Y-86575532D01*
X175575296Y-86536862D01*
X175594346Y-86501223D01*
X175619983Y-86469983D01*
X175651223Y-86444346D01*
X175686862Y-86425296D01*
X175725532Y-86413565D01*
X175771888Y-86409000D01*
X176848112Y-86409000D01*
X176894468Y-86413565D01*
G37*
G36*
X172491000Y-87311000D02*
G01*
X171329000Y-87311000D01*
X171329000Y-86559000D01*
X172491000Y-86559000D01*
X172491000Y-87311000D01*
G37*
G36*
X170411000Y-87136000D02*
G01*
X166609000Y-87136000D01*
X166609000Y-85834000D01*
X170411000Y-85834000D01*
X170411000Y-87136000D01*
G37*
G36*
X180329591Y-86063085D02*
G01*
X180363569Y-86073393D01*
X180394890Y-86090134D01*
X180422339Y-86112661D01*
X180444866Y-86140110D01*
X180461607Y-86171431D01*
X180471915Y-86205409D01*
X180476000Y-86246890D01*
X180476000Y-86923110D01*
X180471915Y-86964591D01*
X180461607Y-86998569D01*
X180444866Y-87029890D01*
X180422339Y-87057339D01*
X180394890Y-87079866D01*
X180363569Y-87096607D01*
X180329591Y-87106915D01*
X180288110Y-87111000D01*
X179686890Y-87111000D01*
X179645409Y-87106915D01*
X179611431Y-87096607D01*
X179580110Y-87079866D01*
X179552661Y-87057339D01*
X179530134Y-87029890D01*
X179513393Y-86998569D01*
X179503085Y-86964591D01*
X179499000Y-86923110D01*
X179499000Y-86246890D01*
X179503085Y-86205409D01*
X179513393Y-86171431D01*
X179530134Y-86140110D01*
X179552661Y-86112661D01*
X179580110Y-86090134D01*
X179611431Y-86073393D01*
X179645409Y-86063085D01*
X179686890Y-86059000D01*
X180288110Y-86059000D01*
X180329591Y-86063085D01*
G37*
G36*
X192539591Y-86063085D02*
G01*
X192573569Y-86073393D01*
X192604890Y-86090134D01*
X192632339Y-86112661D01*
X192654866Y-86140110D01*
X192671607Y-86171431D01*
X192681915Y-86205409D01*
X192686000Y-86246890D01*
X192686000Y-86923110D01*
X192681915Y-86964591D01*
X192671607Y-86998569D01*
X192654866Y-87029890D01*
X192632339Y-87057339D01*
X192604890Y-87079866D01*
X192573569Y-87096607D01*
X192539591Y-87106915D01*
X192498110Y-87111000D01*
X191896890Y-87111000D01*
X191855409Y-87106915D01*
X191821431Y-87096607D01*
X191790110Y-87079866D01*
X191762661Y-87057339D01*
X191740134Y-87029890D01*
X191723393Y-86998569D01*
X191713085Y-86964591D01*
X191709000Y-86923110D01*
X191709000Y-86246890D01*
X191713085Y-86205409D01*
X191723393Y-86171431D01*
X191740134Y-86140110D01*
X191762661Y-86112661D01*
X191790110Y-86090134D01*
X191821431Y-86073393D01*
X191855409Y-86063085D01*
X191896890Y-86059000D01*
X192498110Y-86059000D01*
X192539591Y-86063085D01*
G37*
G36*
X190964591Y-86063085D02*
G01*
X190998569Y-86073393D01*
X191029890Y-86090134D01*
X191057339Y-86112661D01*
X191079866Y-86140110D01*
X191096607Y-86171431D01*
X191106915Y-86205409D01*
X191111000Y-86246890D01*
X191111000Y-86923110D01*
X191106915Y-86964591D01*
X191096607Y-86998569D01*
X191079866Y-87029890D01*
X191057339Y-87057339D01*
X191029890Y-87079866D01*
X190998569Y-87096607D01*
X190964591Y-87106915D01*
X190923110Y-87111000D01*
X190321890Y-87111000D01*
X190280409Y-87106915D01*
X190246431Y-87096607D01*
X190215110Y-87079866D01*
X190187661Y-87057339D01*
X190165134Y-87029890D01*
X190148393Y-86998569D01*
X190138085Y-86964591D01*
X190134000Y-86923110D01*
X190134000Y-86246890D01*
X190138085Y-86205409D01*
X190148393Y-86171431D01*
X190165134Y-86140110D01*
X190187661Y-86112661D01*
X190215110Y-86090134D01*
X190246431Y-86073393D01*
X190280409Y-86063085D01*
X190321890Y-86059000D01*
X190923110Y-86059000D01*
X190964591Y-86063085D01*
G37*
G36*
X178754591Y-86063085D02*
G01*
X178788569Y-86073393D01*
X178819890Y-86090134D01*
X178847339Y-86112661D01*
X178869866Y-86140110D01*
X178886607Y-86171431D01*
X178896915Y-86205409D01*
X178901000Y-86246890D01*
X178901000Y-86923110D01*
X178896915Y-86964591D01*
X178886607Y-86998569D01*
X178869866Y-87029890D01*
X178847339Y-87057339D01*
X178819890Y-87079866D01*
X178788569Y-87096607D01*
X178754591Y-87106915D01*
X178713110Y-87111000D01*
X178111890Y-87111000D01*
X178070409Y-87106915D01*
X178036431Y-87096607D01*
X178005110Y-87079866D01*
X177977661Y-87057339D01*
X177955134Y-87029890D01*
X177938393Y-86998569D01*
X177928085Y-86964591D01*
X177924000Y-86923110D01*
X177924000Y-86246890D01*
X177928085Y-86205409D01*
X177938393Y-86171431D01*
X177955134Y-86140110D01*
X177977661Y-86112661D01*
X178005110Y-86090134D01*
X178036431Y-86073393D01*
X178070409Y-86063085D01*
X178111890Y-86059000D01*
X178713110Y-86059000D01*
X178754591Y-86063085D01*
G37*
G36*
X201550932Y-86043400D02*
G01*
X200524213Y-87070119D01*
X199744982Y-86290888D01*
X200771701Y-85264169D01*
X201550932Y-86043400D01*
G37*
G36*
X164894468Y-85988565D02*
G01*
X164933138Y-86000296D01*
X164968777Y-86019346D01*
X165000017Y-86044983D01*
X165025654Y-86076223D01*
X165044704Y-86111862D01*
X165056435Y-86150532D01*
X165061000Y-86196888D01*
X165061000Y-86848112D01*
X165056435Y-86894468D01*
X165044704Y-86933138D01*
X165025654Y-86968777D01*
X165000017Y-87000017D01*
X164968777Y-87025654D01*
X164933138Y-87044704D01*
X164894468Y-87056435D01*
X164848112Y-87061000D01*
X163771888Y-87061000D01*
X163725532Y-87056435D01*
X163686862Y-87044704D01*
X163651223Y-87025654D01*
X163619983Y-87000017D01*
X163594346Y-86968777D01*
X163575296Y-86933138D01*
X163563565Y-86894468D01*
X163559000Y-86848112D01*
X163559000Y-86196888D01*
X163563565Y-86150532D01*
X163575296Y-86111862D01*
X163594346Y-86076223D01*
X163619983Y-86044983D01*
X163651223Y-86019346D01*
X163686862Y-86000296D01*
X163725532Y-85988565D01*
X163771888Y-85984000D01*
X164848112Y-85984000D01*
X164894468Y-85988565D01*
G37*
G36*
X162111000Y-86911000D02*
G01*
X161609000Y-86911000D01*
X161609000Y-86159000D01*
X162111000Y-86159000D01*
X162111000Y-86911000D01*
G37*
G36*
X160811000Y-86911000D02*
G01*
X160309000Y-86911000D01*
X160309000Y-86159000D01*
X160811000Y-86159000D01*
X160811000Y-86911000D01*
G37*
G36*
X144811000Y-86836000D02*
G01*
X143609000Y-86836000D01*
X143609000Y-84234000D01*
X144811000Y-84234000D01*
X144811000Y-86836000D01*
G37*
G36*
X147311000Y-86836000D02*
G01*
X146109000Y-86836000D01*
X146109000Y-84234000D01*
X147311000Y-84234000D01*
X147311000Y-86836000D01*
G37*
G36*
X149311000Y-86836000D02*
G01*
X148109000Y-86836000D01*
X148109000Y-84234000D01*
X149311000Y-84234000D01*
X149311000Y-86836000D01*
G37*
G36*
X151811000Y-86836000D02*
G01*
X150609000Y-86836000D01*
X150609000Y-84234000D01*
X151811000Y-84234000D01*
X151811000Y-86836000D01*
G37*
G36*
X127189591Y-85713085D02*
G01*
X127223569Y-85723393D01*
X127254890Y-85740134D01*
X127282339Y-85762661D01*
X127304866Y-85790110D01*
X127321607Y-85821431D01*
X127331915Y-85855409D01*
X127336000Y-85896890D01*
X127336000Y-86498110D01*
X127331915Y-86539591D01*
X127321607Y-86573569D01*
X127304866Y-86604890D01*
X127282339Y-86632339D01*
X127254890Y-86654866D01*
X127223569Y-86671607D01*
X127189591Y-86681915D01*
X127148110Y-86686000D01*
X126471890Y-86686000D01*
X126430409Y-86681915D01*
X126396431Y-86671607D01*
X126365110Y-86654866D01*
X126337661Y-86632339D01*
X126315134Y-86604890D01*
X126298393Y-86573569D01*
X126288085Y-86539591D01*
X126284000Y-86498110D01*
X126284000Y-85896890D01*
X126288085Y-85855409D01*
X126298393Y-85821431D01*
X126315134Y-85790110D01*
X126337661Y-85762661D01*
X126365110Y-85740134D01*
X126396431Y-85723393D01*
X126430409Y-85713085D01*
X126471890Y-85709000D01*
X127148110Y-85709000D01*
X127189591Y-85713085D01*
G37*
G36*
X129189591Y-85713085D02*
G01*
X129223569Y-85723393D01*
X129254890Y-85740134D01*
X129282339Y-85762661D01*
X129304866Y-85790110D01*
X129321607Y-85821431D01*
X129331915Y-85855409D01*
X129336000Y-85896890D01*
X129336000Y-86498110D01*
X129331915Y-86539591D01*
X129321607Y-86573569D01*
X129304866Y-86604890D01*
X129282339Y-86632339D01*
X129254890Y-86654866D01*
X129223569Y-86671607D01*
X129189591Y-86681915D01*
X129148110Y-86686000D01*
X128471890Y-86686000D01*
X128430409Y-86681915D01*
X128396431Y-86671607D01*
X128365110Y-86654866D01*
X128337661Y-86632339D01*
X128315134Y-86604890D01*
X128298393Y-86573569D01*
X128288085Y-86539591D01*
X128284000Y-86498110D01*
X128284000Y-85896890D01*
X128288085Y-85855409D01*
X128298393Y-85821431D01*
X128315134Y-85790110D01*
X128337661Y-85762661D01*
X128365110Y-85740134D01*
X128396431Y-85723393D01*
X128430409Y-85713085D01*
X128471890Y-85709000D01*
X129148110Y-85709000D01*
X129189591Y-85713085D01*
G37*
G36*
X139508228Y-84966703D02*
G01*
X139663100Y-85030853D01*
X139802481Y-85123985D01*
X139921015Y-85242519D01*
X140014147Y-85381900D01*
X140078297Y-85536772D01*
X140111000Y-85701184D01*
X140111000Y-85868816D01*
X140078297Y-86033228D01*
X140014147Y-86188100D01*
X139921015Y-86327481D01*
X139802481Y-86446015D01*
X139663100Y-86539147D01*
X139508228Y-86603297D01*
X139343816Y-86636000D01*
X139176184Y-86636000D01*
X139011772Y-86603297D01*
X138856900Y-86539147D01*
X138717519Y-86446015D01*
X138598985Y-86327481D01*
X138505853Y-86188100D01*
X138441703Y-86033228D01*
X138409000Y-85868816D01*
X138409000Y-85701184D01*
X138441703Y-85536772D01*
X138505853Y-85381900D01*
X138598985Y-85242519D01*
X138717519Y-85123985D01*
X138856900Y-85030853D01*
X139011772Y-84966703D01*
X139176184Y-84934000D01*
X139343816Y-84934000D01*
X139508228Y-84966703D01*
G37*
G36*
X157341000Y-86476000D02*
G01*
X154729000Y-86476000D01*
X154729000Y-85374000D01*
X157341000Y-85374000D01*
X157341000Y-86476000D01*
G37*
G36*
X204591000Y-86111000D02*
G01*
X203429000Y-86111000D01*
X203429000Y-83459000D01*
X204591000Y-83459000D01*
X204591000Y-86111000D01*
G37*
G36*
X206791000Y-86111000D02*
G01*
X205629000Y-86111000D01*
X205629000Y-83459000D01*
X206791000Y-83459000D01*
X206791000Y-86111000D01*
G37*
G36*
X123236000Y-85536000D02*
G01*
X122484000Y-85536000D01*
X122484000Y-84214000D01*
X123236000Y-84214000D01*
X123236000Y-85536000D01*
G37*
G36*
X125136000Y-85536000D02*
G01*
X124384000Y-85536000D01*
X124384000Y-84214000D01*
X125136000Y-84214000D01*
X125136000Y-85536000D01*
G37*
G36*
X172444468Y-83938565D02*
G01*
X172483138Y-83950296D01*
X172518777Y-83969346D01*
X172550017Y-83994983D01*
X172575654Y-84026223D01*
X172594704Y-84061862D01*
X172606435Y-84100532D01*
X172611000Y-84146888D01*
X172611000Y-85223112D01*
X172606435Y-85269468D01*
X172594704Y-85308138D01*
X172575654Y-85343777D01*
X172550017Y-85375017D01*
X172518777Y-85400654D01*
X172483138Y-85419704D01*
X172444468Y-85431435D01*
X172398112Y-85436000D01*
X171746888Y-85436000D01*
X171700532Y-85431435D01*
X171661862Y-85419704D01*
X171626223Y-85400654D01*
X171594983Y-85375017D01*
X171569346Y-85343777D01*
X171550296Y-85308138D01*
X171538565Y-85269468D01*
X171534000Y-85223112D01*
X171534000Y-84146888D01*
X171538565Y-84100532D01*
X171550296Y-84061862D01*
X171569346Y-84026223D01*
X171594983Y-83994983D01*
X171626223Y-83969346D01*
X171661862Y-83950296D01*
X171700532Y-83938565D01*
X171746888Y-83934000D01*
X172398112Y-83934000D01*
X172444468Y-83938565D01*
G37*
G36*
X174319468Y-83938565D02*
G01*
X174358138Y-83950296D01*
X174393777Y-83969346D01*
X174425017Y-83994983D01*
X174450654Y-84026223D01*
X174469704Y-84061862D01*
X174481435Y-84100532D01*
X174486000Y-84146888D01*
X174486000Y-85223112D01*
X174481435Y-85269468D01*
X174469704Y-85308138D01*
X174450654Y-85343777D01*
X174425017Y-85375017D01*
X174393777Y-85400654D01*
X174358138Y-85419704D01*
X174319468Y-85431435D01*
X174273112Y-85436000D01*
X173621888Y-85436000D01*
X173575532Y-85431435D01*
X173536862Y-85419704D01*
X173501223Y-85400654D01*
X173469983Y-85375017D01*
X173444346Y-85343777D01*
X173425296Y-85308138D01*
X173413565Y-85269468D01*
X173409000Y-85223112D01*
X173409000Y-84146888D01*
X173413565Y-84100532D01*
X173425296Y-84061862D01*
X173444346Y-84026223D01*
X173469983Y-83994983D01*
X173501223Y-83969346D01*
X173536862Y-83950296D01*
X173575532Y-83938565D01*
X173621888Y-83934000D01*
X174273112Y-83934000D01*
X174319468Y-83938565D01*
G37*
G36*
X202589591Y-84388085D02*
G01*
X202623569Y-84398393D01*
X202654890Y-84415134D01*
X202682339Y-84437661D01*
X202704866Y-84465110D01*
X202721607Y-84496431D01*
X202731915Y-84530409D01*
X202736000Y-84571890D01*
X202736000Y-85173110D01*
X202731915Y-85214591D01*
X202721607Y-85248569D01*
X202704866Y-85279890D01*
X202682339Y-85307339D01*
X202654890Y-85329866D01*
X202623569Y-85346607D01*
X202589591Y-85356915D01*
X202548110Y-85361000D01*
X201871890Y-85361000D01*
X201830409Y-85356915D01*
X201796431Y-85346607D01*
X201765110Y-85329866D01*
X201737661Y-85307339D01*
X201715134Y-85279890D01*
X201698393Y-85248569D01*
X201688085Y-85214591D01*
X201684000Y-85173110D01*
X201684000Y-84571890D01*
X201688085Y-84530409D01*
X201698393Y-84496431D01*
X201715134Y-84465110D01*
X201737661Y-84437661D01*
X201765110Y-84415134D01*
X201796431Y-84398393D01*
X201830409Y-84388085D01*
X201871890Y-84384000D01*
X202548110Y-84384000D01*
X202589591Y-84388085D01*
G37*
G36*
X190964591Y-84263085D02*
G01*
X190998569Y-84273393D01*
X191029890Y-84290134D01*
X191057339Y-84312661D01*
X191079866Y-84340110D01*
X191096607Y-84371431D01*
X191106915Y-84405409D01*
X191111000Y-84446890D01*
X191111000Y-85123110D01*
X191106915Y-85164591D01*
X191096607Y-85198569D01*
X191079866Y-85229890D01*
X191057339Y-85257339D01*
X191029890Y-85279866D01*
X190998569Y-85296607D01*
X190964591Y-85306915D01*
X190923110Y-85311000D01*
X190321890Y-85311000D01*
X190280409Y-85306915D01*
X190246431Y-85296607D01*
X190215110Y-85279866D01*
X190187661Y-85257339D01*
X190165134Y-85229890D01*
X190148393Y-85198569D01*
X190138085Y-85164591D01*
X190134000Y-85123110D01*
X190134000Y-84446890D01*
X190138085Y-84405409D01*
X190148393Y-84371431D01*
X190165134Y-84340110D01*
X190187661Y-84312661D01*
X190215110Y-84290134D01*
X190246431Y-84273393D01*
X190280409Y-84263085D01*
X190321890Y-84259000D01*
X190923110Y-84259000D01*
X190964591Y-84263085D01*
G37*
G36*
X192539591Y-84263085D02*
G01*
X192573569Y-84273393D01*
X192604890Y-84290134D01*
X192632339Y-84312661D01*
X192654866Y-84340110D01*
X192671607Y-84371431D01*
X192681915Y-84405409D01*
X192686000Y-84446890D01*
X192686000Y-85123110D01*
X192681915Y-85164591D01*
X192671607Y-85198569D01*
X192654866Y-85229890D01*
X192632339Y-85257339D01*
X192604890Y-85279866D01*
X192573569Y-85296607D01*
X192539591Y-85306915D01*
X192498110Y-85311000D01*
X191896890Y-85311000D01*
X191855409Y-85306915D01*
X191821431Y-85296607D01*
X191790110Y-85279866D01*
X191762661Y-85257339D01*
X191740134Y-85229890D01*
X191723393Y-85198569D01*
X191713085Y-85164591D01*
X191709000Y-85123110D01*
X191709000Y-84446890D01*
X191713085Y-84405409D01*
X191723393Y-84371431D01*
X191740134Y-84340110D01*
X191762661Y-84312661D01*
X191790110Y-84290134D01*
X191821431Y-84273393D01*
X191855409Y-84263085D01*
X191896890Y-84259000D01*
X192498110Y-84259000D01*
X192539591Y-84263085D01*
G37*
G36*
X178764591Y-84163085D02*
G01*
X178798569Y-84173393D01*
X178829890Y-84190134D01*
X178857339Y-84212661D01*
X178879866Y-84240110D01*
X178896607Y-84271431D01*
X178906915Y-84305409D01*
X178911000Y-84346890D01*
X178911000Y-85023110D01*
X178906915Y-85064591D01*
X178896607Y-85098569D01*
X178879866Y-85129890D01*
X178857339Y-85157339D01*
X178829890Y-85179866D01*
X178798569Y-85196607D01*
X178764591Y-85206915D01*
X178723110Y-85211000D01*
X178121890Y-85211000D01*
X178080409Y-85206915D01*
X178046431Y-85196607D01*
X178015110Y-85179866D01*
X177987661Y-85157339D01*
X177965134Y-85129890D01*
X177948393Y-85098569D01*
X177938085Y-85064591D01*
X177934000Y-85023110D01*
X177934000Y-84346890D01*
X177938085Y-84305409D01*
X177948393Y-84271431D01*
X177965134Y-84240110D01*
X177987661Y-84212661D01*
X178015110Y-84190134D01*
X178046431Y-84173393D01*
X178080409Y-84163085D01*
X178121890Y-84159000D01*
X178723110Y-84159000D01*
X178764591Y-84163085D01*
G37*
G36*
X180339591Y-84163085D02*
G01*
X180373569Y-84173393D01*
X180404890Y-84190134D01*
X180432339Y-84212661D01*
X180454866Y-84240110D01*
X180471607Y-84271431D01*
X180481915Y-84305409D01*
X180486000Y-84346890D01*
X180486000Y-85023110D01*
X180481915Y-85064591D01*
X180471607Y-85098569D01*
X180454866Y-85129890D01*
X180432339Y-85157339D01*
X180404890Y-85179866D01*
X180373569Y-85196607D01*
X180339591Y-85206915D01*
X180298110Y-85211000D01*
X179696890Y-85211000D01*
X179655409Y-85206915D01*
X179621431Y-85196607D01*
X179590110Y-85179866D01*
X179562661Y-85157339D01*
X179540134Y-85129890D01*
X179523393Y-85098569D01*
X179513085Y-85064591D01*
X179509000Y-85023110D01*
X179509000Y-84346890D01*
X179513085Y-84305409D01*
X179523393Y-84271431D01*
X179540134Y-84240110D01*
X179562661Y-84212661D01*
X179590110Y-84190134D01*
X179621431Y-84173393D01*
X179655409Y-84163085D01*
X179696890Y-84159000D01*
X180298110Y-84159000D01*
X180339591Y-84163085D01*
G37*
G36*
X164894468Y-84113565D02*
G01*
X164933138Y-84125296D01*
X164968777Y-84144346D01*
X165000017Y-84169983D01*
X165025654Y-84201223D01*
X165044704Y-84236862D01*
X165056435Y-84275532D01*
X165061000Y-84321888D01*
X165061000Y-84973112D01*
X165056435Y-85019468D01*
X165044704Y-85058138D01*
X165025654Y-85093777D01*
X165000017Y-85125017D01*
X164968777Y-85150654D01*
X164933138Y-85169704D01*
X164894468Y-85181435D01*
X164848112Y-85186000D01*
X163771888Y-85186000D01*
X163725532Y-85181435D01*
X163686862Y-85169704D01*
X163651223Y-85150654D01*
X163619983Y-85125017D01*
X163594346Y-85093777D01*
X163575296Y-85058138D01*
X163563565Y-85019468D01*
X163559000Y-84973112D01*
X163559000Y-84321888D01*
X163563565Y-84275532D01*
X163575296Y-84236862D01*
X163594346Y-84201223D01*
X163619983Y-84169983D01*
X163651223Y-84144346D01*
X163686862Y-84125296D01*
X163725532Y-84113565D01*
X163771888Y-84109000D01*
X164848112Y-84109000D01*
X164894468Y-84113565D01*
G37*
G36*
X162111000Y-85011000D02*
G01*
X160309000Y-85011000D01*
X160309000Y-84259000D01*
X162111000Y-84259000D01*
X162111000Y-85011000D01*
G37*
G36*
X129189591Y-83888085D02*
G01*
X129223569Y-83898393D01*
X129254890Y-83915134D01*
X129282339Y-83937661D01*
X129304866Y-83965110D01*
X129321607Y-83996431D01*
X129331915Y-84030409D01*
X129336000Y-84071890D01*
X129336000Y-84673110D01*
X129331915Y-84714591D01*
X129321607Y-84748569D01*
X129304866Y-84779890D01*
X129282339Y-84807339D01*
X129254890Y-84829866D01*
X129223569Y-84846607D01*
X129189591Y-84856915D01*
X129148110Y-84861000D01*
X128471890Y-84861000D01*
X128430409Y-84856915D01*
X128396431Y-84846607D01*
X128365110Y-84829866D01*
X128337661Y-84807339D01*
X128315134Y-84779890D01*
X128298393Y-84748569D01*
X128288085Y-84714591D01*
X128284000Y-84673110D01*
X128284000Y-84071890D01*
X128288085Y-84030409D01*
X128298393Y-83996431D01*
X128315134Y-83965110D01*
X128337661Y-83937661D01*
X128365110Y-83915134D01*
X128396431Y-83898393D01*
X128430409Y-83888085D01*
X128471890Y-83884000D01*
X129148110Y-83884000D01*
X129189591Y-83888085D01*
G37*
G36*
X127189591Y-83888085D02*
G01*
X127223569Y-83898393D01*
X127254890Y-83915134D01*
X127282339Y-83937661D01*
X127304866Y-83965110D01*
X127321607Y-83996431D01*
X127331915Y-84030409D01*
X127336000Y-84071890D01*
X127336000Y-84673110D01*
X127331915Y-84714591D01*
X127321607Y-84748569D01*
X127304866Y-84779890D01*
X127282339Y-84807339D01*
X127254890Y-84829866D01*
X127223569Y-84846607D01*
X127189591Y-84856915D01*
X127148110Y-84861000D01*
X126471890Y-84861000D01*
X126430409Y-84856915D01*
X126396431Y-84846607D01*
X126365110Y-84829866D01*
X126337661Y-84807339D01*
X126315134Y-84779890D01*
X126298393Y-84748569D01*
X126288085Y-84714591D01*
X126284000Y-84673110D01*
X126284000Y-84071890D01*
X126288085Y-84030409D01*
X126298393Y-83996431D01*
X126315134Y-83965110D01*
X126337661Y-83937661D01*
X126365110Y-83915134D01*
X126396431Y-83898393D01*
X126430409Y-83888085D01*
X126471890Y-83884000D01*
X127148110Y-83884000D01*
X127189591Y-83888085D01*
G37*
G36*
X153606227Y-80998483D02*
G01*
X153794921Y-81055723D01*
X153968815Y-81148671D01*
X154121239Y-81273761D01*
X154246329Y-81426185D01*
X154339277Y-81600078D01*
X154396517Y-81788772D01*
X154411000Y-81935825D01*
X154411000Y-83634175D01*
X154396517Y-83781228D01*
X154339277Y-83969922D01*
X154246329Y-84143815D01*
X154121239Y-84296239D01*
X153968815Y-84421329D01*
X153794922Y-84514277D01*
X153606228Y-84571517D01*
X153410000Y-84590843D01*
X153213773Y-84571517D01*
X153025079Y-84514277D01*
X152851186Y-84421329D01*
X152698762Y-84296239D01*
X152573672Y-84143815D01*
X152480722Y-83969919D01*
X152423483Y-83781231D01*
X152409000Y-83634175D01*
X152409000Y-81935826D01*
X152423483Y-81788773D01*
X152480723Y-81600079D01*
X152573671Y-81426185D01*
X152698761Y-81273761D01*
X152851185Y-81148671D01*
X153025078Y-81055723D01*
X153213772Y-80998483D01*
X153410000Y-80979157D01*
X153606227Y-80998483D01*
G37*
G36*
X142206227Y-80998483D02*
G01*
X142394921Y-81055723D01*
X142568815Y-81148671D01*
X142721239Y-81273761D01*
X142846329Y-81426185D01*
X142939277Y-81600078D01*
X142996517Y-81788772D01*
X143011000Y-81935825D01*
X143011000Y-83634175D01*
X142996517Y-83781228D01*
X142939277Y-83969922D01*
X142846329Y-84143815D01*
X142721239Y-84296239D01*
X142568815Y-84421329D01*
X142394922Y-84514277D01*
X142206228Y-84571517D01*
X142010000Y-84590843D01*
X141813773Y-84571517D01*
X141625079Y-84514277D01*
X141451186Y-84421329D01*
X141298762Y-84296239D01*
X141173672Y-84143815D01*
X141080722Y-83969919D01*
X141023483Y-83781231D01*
X141009000Y-83634175D01*
X141009000Y-81935826D01*
X141023483Y-81788773D01*
X141080723Y-81600079D01*
X141173671Y-81426185D01*
X141298761Y-81273761D01*
X141451185Y-81148671D01*
X141625078Y-81055723D01*
X141813772Y-80998483D01*
X142010000Y-80979157D01*
X142206227Y-80998483D01*
G37*
G36*
X135061000Y-84086000D02*
G01*
X132159000Y-84086000D01*
X132159000Y-81584000D01*
X135061000Y-81584000D01*
X135061000Y-84086000D01*
G37*
G36*
X139661000Y-84086000D02*
G01*
X136759000Y-84086000D01*
X136759000Y-81584000D01*
X139661000Y-81584000D01*
X139661000Y-84086000D01*
G37*
G36*
X202589591Y-82813085D02*
G01*
X202623569Y-82823393D01*
X202654890Y-82840134D01*
X202682339Y-82862661D01*
X202704866Y-82890110D01*
X202721607Y-82921431D01*
X202731915Y-82955409D01*
X202736000Y-82996890D01*
X202736000Y-83598110D01*
X202731915Y-83639591D01*
X202721607Y-83673569D01*
X202704866Y-83704890D01*
X202682339Y-83732339D01*
X202654890Y-83754866D01*
X202623569Y-83771607D01*
X202589591Y-83781915D01*
X202548110Y-83786000D01*
X201871890Y-83786000D01*
X201830409Y-83781915D01*
X201796431Y-83771607D01*
X201765110Y-83754866D01*
X201737661Y-83732339D01*
X201715134Y-83704890D01*
X201698393Y-83673569D01*
X201688085Y-83639591D01*
X201684000Y-83598110D01*
X201684000Y-82996890D01*
X201688085Y-82955409D01*
X201698393Y-82921431D01*
X201715134Y-82890110D01*
X201737661Y-82862661D01*
X201765110Y-82840134D01*
X201796431Y-82823393D01*
X201830409Y-82813085D01*
X201871890Y-82809000D01*
X202548110Y-82809000D01*
X202589591Y-82813085D01*
G37*
G36*
X150146601Y-82199397D02*
G01*
X150185305Y-82207096D01*
X150217340Y-82220365D01*
X150294680Y-82252400D01*
X150393115Y-82318173D01*
X150476827Y-82401885D01*
X150542600Y-82500320D01*
X150549844Y-82517810D01*
X150587904Y-82609695D01*
X150593136Y-82636000D01*
X150611000Y-82725805D01*
X150611000Y-82844195D01*
X150587904Y-82960304D01*
X150542600Y-83069680D01*
X150476827Y-83168115D01*
X150393115Y-83251827D01*
X150294680Y-83317600D01*
X150217340Y-83349635D01*
X150185305Y-83362904D01*
X150146601Y-83370603D01*
X150069195Y-83386000D01*
X149950805Y-83386000D01*
X149873399Y-83370603D01*
X149834695Y-83362904D01*
X149802660Y-83349635D01*
X149725320Y-83317600D01*
X149626885Y-83251827D01*
X149543173Y-83168115D01*
X149477400Y-83069680D01*
X149432096Y-82960304D01*
X149409000Y-82844195D01*
X149409000Y-82725805D01*
X149426864Y-82636000D01*
X149432096Y-82609695D01*
X149470156Y-82517810D01*
X149477400Y-82500320D01*
X149543173Y-82401885D01*
X149626885Y-82318173D01*
X149725320Y-82252400D01*
X149802660Y-82220365D01*
X149834695Y-82207096D01*
X149873399Y-82199397D01*
X149950805Y-82184000D01*
X150069195Y-82184000D01*
X150146601Y-82199397D01*
G37*
G36*
X145546601Y-82199397D02*
G01*
X145585305Y-82207096D01*
X145617340Y-82220365D01*
X145694680Y-82252400D01*
X145793115Y-82318173D01*
X145876827Y-82401885D01*
X145942600Y-82500320D01*
X145949844Y-82517810D01*
X145987904Y-82609695D01*
X145993136Y-82636000D01*
X146011000Y-82725805D01*
X146011000Y-82844195D01*
X145987904Y-82960304D01*
X145942600Y-83069680D01*
X145876827Y-83168115D01*
X145793115Y-83251827D01*
X145694680Y-83317600D01*
X145617340Y-83349635D01*
X145585305Y-83362904D01*
X145546601Y-83370603D01*
X145469195Y-83386000D01*
X145350805Y-83386000D01*
X145273399Y-83370603D01*
X145234695Y-83362904D01*
X145202660Y-83349635D01*
X145125320Y-83317600D01*
X145026885Y-83251827D01*
X144943173Y-83168115D01*
X144877400Y-83069680D01*
X144832096Y-82960304D01*
X144809000Y-82844195D01*
X144809000Y-82725805D01*
X144826864Y-82636000D01*
X144832096Y-82609695D01*
X144870156Y-82517810D01*
X144877400Y-82500320D01*
X144943173Y-82401885D01*
X145026885Y-82318173D01*
X145125320Y-82252400D01*
X145202660Y-82220365D01*
X145234695Y-82207096D01*
X145273399Y-82199397D01*
X145350805Y-82184000D01*
X145469195Y-82184000D01*
X145546601Y-82199397D01*
G37*
G36*
X123364591Y-82263085D02*
G01*
X123398569Y-82273393D01*
X123429890Y-82290134D01*
X123457339Y-82312661D01*
X123479866Y-82340110D01*
X123496607Y-82371431D01*
X123506915Y-82405409D01*
X123511000Y-82446890D01*
X123511000Y-83123110D01*
X123506915Y-83164591D01*
X123496607Y-83198569D01*
X123479866Y-83229890D01*
X123457339Y-83257339D01*
X123429890Y-83279866D01*
X123398569Y-83296607D01*
X123364591Y-83306915D01*
X123323110Y-83311000D01*
X122721890Y-83311000D01*
X122680409Y-83306915D01*
X122646431Y-83296607D01*
X122615110Y-83279866D01*
X122587661Y-83257339D01*
X122565134Y-83229890D01*
X122548393Y-83198569D01*
X122538085Y-83164591D01*
X122534000Y-83123110D01*
X122534000Y-82446890D01*
X122538085Y-82405409D01*
X122548393Y-82371431D01*
X122565134Y-82340110D01*
X122587661Y-82312661D01*
X122615110Y-82290134D01*
X122646431Y-82273393D01*
X122680409Y-82263085D01*
X122721890Y-82259000D01*
X123323110Y-82259000D01*
X123364591Y-82263085D01*
G37*
G36*
X124939591Y-82263085D02*
G01*
X124973569Y-82273393D01*
X125004890Y-82290134D01*
X125032339Y-82312661D01*
X125054866Y-82340110D01*
X125071607Y-82371431D01*
X125081915Y-82405409D01*
X125086000Y-82446890D01*
X125086000Y-83123110D01*
X125081915Y-83164591D01*
X125071607Y-83198569D01*
X125054866Y-83229890D01*
X125032339Y-83257339D01*
X125004890Y-83279866D01*
X124973569Y-83296607D01*
X124939591Y-83306915D01*
X124898110Y-83311000D01*
X124296890Y-83311000D01*
X124255409Y-83306915D01*
X124221431Y-83296607D01*
X124190110Y-83279866D01*
X124162661Y-83257339D01*
X124140134Y-83229890D01*
X124123393Y-83198569D01*
X124113085Y-83164591D01*
X124109000Y-83123110D01*
X124109000Y-82446890D01*
X124113085Y-82405409D01*
X124123393Y-82371431D01*
X124140134Y-82340110D01*
X124162661Y-82312661D01*
X124190110Y-82290134D01*
X124221431Y-82273393D01*
X124255409Y-82263085D01*
X124296890Y-82259000D01*
X124898110Y-82259000D01*
X124939591Y-82263085D01*
G37*
G36*
X127189591Y-82313085D02*
G01*
X127223569Y-82323393D01*
X127254890Y-82340134D01*
X127282339Y-82362661D01*
X127304866Y-82390110D01*
X127321607Y-82421431D01*
X127331915Y-82455409D01*
X127336000Y-82496890D01*
X127336000Y-83098110D01*
X127331915Y-83139591D01*
X127321607Y-83173569D01*
X127304866Y-83204890D01*
X127282339Y-83232339D01*
X127254890Y-83254866D01*
X127223569Y-83271607D01*
X127189591Y-83281915D01*
X127148110Y-83286000D01*
X126471890Y-83286000D01*
X126430409Y-83281915D01*
X126396431Y-83271607D01*
X126365110Y-83254866D01*
X126337661Y-83232339D01*
X126315134Y-83204890D01*
X126298393Y-83173569D01*
X126288085Y-83139591D01*
X126284000Y-83098110D01*
X126284000Y-82496890D01*
X126288085Y-82455409D01*
X126298393Y-82421431D01*
X126315134Y-82390110D01*
X126337661Y-82362661D01*
X126365110Y-82340134D01*
X126396431Y-82323393D01*
X126430409Y-82313085D01*
X126471890Y-82309000D01*
X127148110Y-82309000D01*
X127189591Y-82313085D01*
G37*
G36*
X129189591Y-82313085D02*
G01*
X129223569Y-82323393D01*
X129254890Y-82340134D01*
X129282339Y-82362661D01*
X129304866Y-82390110D01*
X129321607Y-82421431D01*
X129331915Y-82455409D01*
X129336000Y-82496890D01*
X129336000Y-83098110D01*
X129331915Y-83139591D01*
X129321607Y-83173569D01*
X129304866Y-83204890D01*
X129282339Y-83232339D01*
X129254890Y-83254866D01*
X129223569Y-83271607D01*
X129189591Y-83281915D01*
X129148110Y-83286000D01*
X128471890Y-83286000D01*
X128430409Y-83281915D01*
X128396431Y-83271607D01*
X128365110Y-83254866D01*
X128337661Y-83232339D01*
X128315134Y-83204890D01*
X128298393Y-83173569D01*
X128288085Y-83139591D01*
X128284000Y-83098110D01*
X128284000Y-82496890D01*
X128288085Y-82455409D01*
X128298393Y-82421431D01*
X128315134Y-82390110D01*
X128337661Y-82362661D01*
X128365110Y-82340134D01*
X128396431Y-82323393D01*
X128430409Y-82313085D01*
X128471890Y-82309000D01*
X129148110Y-82309000D01*
X129189591Y-82313085D01*
G37*
G36*
X165881000Y-82956000D02*
G01*
X164779000Y-82956000D01*
X164779000Y-79854000D01*
X165881000Y-79854000D01*
X165881000Y-82956000D01*
G37*
G36*
X163341000Y-82956000D02*
G01*
X162239000Y-82956000D01*
X162239000Y-79854000D01*
X163341000Y-79854000D01*
X163341000Y-82956000D01*
G37*
G36*
X158261000Y-82956000D02*
G01*
X157159000Y-82956000D01*
X157159000Y-79854000D01*
X158261000Y-79854000D01*
X158261000Y-82956000D01*
G37*
G36*
X160801000Y-82956000D02*
G01*
X159699000Y-82956000D01*
X159699000Y-79854000D01*
X160801000Y-79854000D01*
X160801000Y-82956000D01*
G37*
G36*
X210161000Y-82911000D02*
G01*
X207659000Y-82911000D01*
X207659000Y-81359000D01*
X210161000Y-81359000D01*
X210161000Y-82911000D01*
G37*
G36*
X183715997Y-79538051D02*
G01*
X183749652Y-79548261D01*
X183780665Y-79564838D01*
X183807851Y-79587149D01*
X183830162Y-79614335D01*
X183846739Y-79645348D01*
X183856949Y-79679003D01*
X183861000Y-79720138D01*
X183861000Y-82449862D01*
X183856949Y-82490997D01*
X183846739Y-82524652D01*
X183830162Y-82555665D01*
X183807851Y-82582851D01*
X183780665Y-82605162D01*
X183749652Y-82621739D01*
X183715997Y-82631949D01*
X183674862Y-82636000D01*
X182345138Y-82636000D01*
X182304003Y-82631949D01*
X182270348Y-82621739D01*
X182239335Y-82605162D01*
X182212149Y-82582851D01*
X182189838Y-82555665D01*
X182173261Y-82524652D01*
X182163051Y-82490997D01*
X182159000Y-82449862D01*
X182159000Y-79720138D01*
X182163051Y-79679003D01*
X182173261Y-79645348D01*
X182189838Y-79614335D01*
X182212149Y-79587149D01*
X182239335Y-79564838D01*
X182270348Y-79548261D01*
X182304003Y-79538051D01*
X182345138Y-79534000D01*
X183674862Y-79534000D01*
X183715997Y-79538051D01*
G37*
G36*
X206139591Y-81463085D02*
G01*
X206173569Y-81473393D01*
X206204890Y-81490134D01*
X206232339Y-81512661D01*
X206254866Y-81540110D01*
X206271607Y-81571431D01*
X206281915Y-81605409D01*
X206286000Y-81646890D01*
X206286000Y-82323110D01*
X206281915Y-82364591D01*
X206271607Y-82398569D01*
X206254866Y-82429890D01*
X206232339Y-82457339D01*
X206204890Y-82479866D01*
X206173569Y-82496607D01*
X206139591Y-82506915D01*
X206098110Y-82511000D01*
X205496890Y-82511000D01*
X205455409Y-82506915D01*
X205421431Y-82496607D01*
X205390110Y-82479866D01*
X205362661Y-82457339D01*
X205340134Y-82429890D01*
X205323393Y-82398569D01*
X205313085Y-82364591D01*
X205309000Y-82323110D01*
X205309000Y-81646890D01*
X205313085Y-81605409D01*
X205323393Y-81571431D01*
X205340134Y-81540110D01*
X205362661Y-81512661D01*
X205390110Y-81490134D01*
X205421431Y-81473393D01*
X205455409Y-81463085D01*
X205496890Y-81459000D01*
X206098110Y-81459000D01*
X206139591Y-81463085D01*
G37*
G36*
X204564591Y-81463085D02*
G01*
X204598569Y-81473393D01*
X204629890Y-81490134D01*
X204657339Y-81512661D01*
X204679866Y-81540110D01*
X204696607Y-81571431D01*
X204706915Y-81605409D01*
X204711000Y-81646890D01*
X204711000Y-82323110D01*
X204706915Y-82364591D01*
X204696607Y-82398569D01*
X204679866Y-82429890D01*
X204657339Y-82457339D01*
X204629890Y-82479866D01*
X204598569Y-82496607D01*
X204564591Y-82506915D01*
X204523110Y-82511000D01*
X203921890Y-82511000D01*
X203880409Y-82506915D01*
X203846431Y-82496607D01*
X203815110Y-82479866D01*
X203787661Y-82457339D01*
X203765134Y-82429890D01*
X203748393Y-82398569D01*
X203738085Y-82364591D01*
X203734000Y-82323110D01*
X203734000Y-81646890D01*
X203738085Y-81605409D01*
X203748393Y-81571431D01*
X203765134Y-81540110D01*
X203787661Y-81512661D01*
X203815110Y-81490134D01*
X203846431Y-81473393D01*
X203880409Y-81463085D01*
X203921890Y-81459000D01*
X204523110Y-81459000D01*
X204564591Y-81463085D01*
G37*
G36*
X174411000Y-82086000D02*
G01*
X168609000Y-82086000D01*
X168609000Y-80384000D01*
X174411000Y-80384000D01*
X174411000Y-82086000D01*
G37*
G36*
X194821000Y-82086000D02*
G01*
X193979000Y-82086000D01*
X193979000Y-79584000D01*
X194821000Y-79584000D01*
X194821000Y-82086000D01*
G37*
G36*
X196091000Y-82086000D02*
G01*
X195249000Y-82086000D01*
X195249000Y-79584000D01*
X196091000Y-79584000D01*
X196091000Y-82086000D01*
G37*
G36*
X197361000Y-82086000D02*
G01*
X196519000Y-82086000D01*
X196519000Y-79584000D01*
X197361000Y-79584000D01*
X197361000Y-82086000D01*
G37*
G36*
X198631000Y-82086000D02*
G01*
X197789000Y-82086000D01*
X197789000Y-79584000D01*
X198631000Y-79584000D01*
X198631000Y-82086000D01*
G37*
G36*
X199901000Y-82086000D02*
G01*
X199059000Y-82086000D01*
X199059000Y-79584000D01*
X199901000Y-79584000D01*
X199901000Y-82086000D01*
G37*
G36*
X201171000Y-82086000D02*
G01*
X200329000Y-82086000D01*
X200329000Y-79584000D01*
X201171000Y-79584000D01*
X201171000Y-82086000D01*
G37*
G36*
X202441000Y-82086000D02*
G01*
X201599000Y-82086000D01*
X201599000Y-79584000D01*
X202441000Y-79584000D01*
X202441000Y-82086000D01*
G37*
G36*
X191761000Y-82036000D02*
G01*
X190659000Y-82036000D01*
X190659000Y-80434000D01*
X191761000Y-80434000D01*
X191761000Y-82036000D01*
G37*
G36*
X188561000Y-82036000D02*
G01*
X187459000Y-82036000D01*
X187459000Y-80434000D01*
X188561000Y-80434000D01*
X188561000Y-82036000D01*
G37*
G36*
X176891000Y-81611000D02*
G01*
X175729000Y-81611000D01*
X175729000Y-80859000D01*
X176891000Y-80859000D01*
X176891000Y-81611000D01*
G37*
G36*
X179091000Y-81611000D02*
G01*
X177929000Y-81611000D01*
X177929000Y-78959000D01*
X179091000Y-78959000D01*
X179091000Y-81611000D01*
G37*
G36*
X176891000Y-79711000D02*
G01*
X175729000Y-79711000D01*
X175729000Y-78959000D01*
X176891000Y-78959000D01*
X176891000Y-79711000D01*
G37*
G36*
X129336348Y-77901320D02*
G01*
X129336350Y-77901321D01*
X129336351Y-77901321D01*
X129477574Y-77959817D01*
X129477577Y-77959819D01*
X129604669Y-78044739D01*
X129712761Y-78152831D01*
X129764918Y-78230890D01*
X129797683Y-78279926D01*
X129813095Y-78317134D01*
X129818517Y-78330225D01*
X129830068Y-78351836D01*
X129845614Y-78370778D01*
X129864556Y-78386323D01*
X129886166Y-78397874D01*
X129909615Y-78404987D01*
X129934001Y-78407389D01*
X129958387Y-78404987D01*
X129981836Y-78397874D01*
X130003447Y-78386323D01*
X130022389Y-78370777D01*
X130037934Y-78351835D01*
X130049485Y-78330225D01*
X130056598Y-78306776D01*
X130059000Y-78282390D01*
X130059000Y-77921500D01*
X133161000Y-77921500D01*
X133161000Y-78282390D01*
X133163402Y-78306776D01*
X133170515Y-78330225D01*
X133182066Y-78351836D01*
X133197611Y-78370778D01*
X133216553Y-78386323D01*
X133238164Y-78397874D01*
X133261613Y-78404987D01*
X133285999Y-78407389D01*
X133310385Y-78404987D01*
X133333834Y-78397874D01*
X133355445Y-78386323D01*
X133374387Y-78370778D01*
X133389932Y-78351836D01*
X133401483Y-78330225D01*
X133406905Y-78317134D01*
X133422317Y-78279926D01*
X133455082Y-78230890D01*
X133507239Y-78152831D01*
X133615331Y-78044739D01*
X133742423Y-77959819D01*
X133742426Y-77959817D01*
X133883649Y-77901321D01*
X133883650Y-77901321D01*
X133883652Y-77901320D01*
X134033569Y-77871500D01*
X134186431Y-77871500D01*
X134336348Y-77901320D01*
X134336350Y-77901321D01*
X134336351Y-77901321D01*
X134477574Y-77959817D01*
X134477577Y-77959819D01*
X134604669Y-78044739D01*
X134712761Y-78152831D01*
X134797681Y-78279923D01*
X134797683Y-78279926D01*
X134850479Y-78407389D01*
X134856180Y-78421152D01*
X134886000Y-78571069D01*
X134886000Y-78723931D01*
X134883311Y-78737451D01*
X134856179Y-78873851D01*
X134797683Y-79015074D01*
X134797682Y-79015075D01*
X134797681Y-79015077D01*
X134712761Y-79142169D01*
X134604669Y-79250261D01*
X134477577Y-79335181D01*
X134477574Y-79335183D01*
X134336351Y-79393679D01*
X134336350Y-79393679D01*
X134336348Y-79393680D01*
X134186431Y-79423500D01*
X134033569Y-79423500D01*
X133883652Y-79393680D01*
X133883650Y-79393679D01*
X133883649Y-79393679D01*
X133742426Y-79335183D01*
X133742423Y-79335181D01*
X133615331Y-79250261D01*
X133507239Y-79142169D01*
X133422318Y-79015075D01*
X133422317Y-79015074D01*
X133401481Y-78964772D01*
X133389932Y-78943164D01*
X133374386Y-78924222D01*
X133355444Y-78908677D01*
X133333834Y-78897126D01*
X133310385Y-78890013D01*
X133285999Y-78887611D01*
X133261613Y-78890013D01*
X133238164Y-78897126D01*
X133216553Y-78908677D01*
X133197611Y-78924223D01*
X133182066Y-78943165D01*
X133170515Y-78964775D01*
X133163402Y-78988224D01*
X133161000Y-79012610D01*
X133161000Y-79373500D01*
X130059000Y-79373500D01*
X130059000Y-79012610D01*
X130056598Y-78988224D01*
X130049485Y-78964775D01*
X130037934Y-78943164D01*
X130022389Y-78924222D01*
X130003447Y-78908677D01*
X129981836Y-78897126D01*
X129958387Y-78890013D01*
X129934001Y-78887611D01*
X129909615Y-78890013D01*
X129886166Y-78897126D01*
X129864555Y-78908677D01*
X129845613Y-78924222D01*
X129830068Y-78943164D01*
X129818519Y-78964772D01*
X129797683Y-79015074D01*
X129797682Y-79015075D01*
X129712761Y-79142169D01*
X129604669Y-79250261D01*
X129477577Y-79335181D01*
X129477574Y-79335183D01*
X129336351Y-79393679D01*
X129336350Y-79393679D01*
X129336348Y-79393680D01*
X129186431Y-79423500D01*
X129033569Y-79423500D01*
X128883652Y-79393680D01*
X128883650Y-79393679D01*
X128883649Y-79393679D01*
X128742426Y-79335183D01*
X128742423Y-79335181D01*
X128615331Y-79250261D01*
X128507239Y-79142169D01*
X128422319Y-79015077D01*
X128422318Y-79015075D01*
X128422317Y-79015074D01*
X128363821Y-78873851D01*
X128336690Y-78737451D01*
X128334000Y-78723931D01*
X128334000Y-78571069D01*
X128363820Y-78421152D01*
X128369521Y-78407389D01*
X128422317Y-78279926D01*
X128422319Y-78279923D01*
X128507239Y-78152831D01*
X128615331Y-78044739D01*
X128742423Y-77959819D01*
X128742426Y-77959817D01*
X128883649Y-77901321D01*
X128883650Y-77901321D01*
X128883652Y-77901320D01*
X129033569Y-77871500D01*
X129186431Y-77871500D01*
X129336348Y-77901320D01*
G37*
G36*
X207685256Y-76076298D02*
G01*
X207791579Y-76097447D01*
X208092042Y-76221903D01*
X208362451Y-76402585D01*
X208592415Y-76632549D01*
X208677611Y-76760054D01*
X208773098Y-76902960D01*
X208809550Y-76990963D01*
X208897553Y-77203421D01*
X208910754Y-77269788D01*
X208961000Y-77522389D01*
X208961000Y-77847611D01*
X208925466Y-78026250D01*
X208897553Y-78166579D01*
X208773097Y-78467042D01*
X208592415Y-78737451D01*
X208362451Y-78967415D01*
X208092042Y-79148097D01*
X207791579Y-79272553D01*
X207685256Y-79293702D01*
X207472611Y-79336000D01*
X207147389Y-79336000D01*
X206934744Y-79293702D01*
X206828421Y-79272553D01*
X206527958Y-79148097D01*
X206257549Y-78967415D01*
X206027585Y-78737451D01*
X205846903Y-78467042D01*
X205722447Y-78166579D01*
X205694534Y-78026250D01*
X205659000Y-77847611D01*
X205659000Y-77522389D01*
X205709246Y-77269788D01*
X205722447Y-77203421D01*
X205810450Y-76990963D01*
X205846902Y-76902960D01*
X205942389Y-76760054D01*
X206027585Y-76632549D01*
X206257549Y-76402585D01*
X206527958Y-76221903D01*
X206828421Y-76097447D01*
X206934744Y-76076298D01*
X207147389Y-76034000D01*
X207472611Y-76034000D01*
X207685256Y-76076298D01*
G37*
G36*
X124685256Y-76076298D02*
G01*
X124791579Y-76097447D01*
X125092042Y-76221903D01*
X125362451Y-76402585D01*
X125592415Y-76632549D01*
X125677611Y-76760054D01*
X125773098Y-76902960D01*
X125809550Y-76990963D01*
X125897553Y-77203421D01*
X125910754Y-77269788D01*
X125961000Y-77522389D01*
X125961000Y-77847611D01*
X125925466Y-78026250D01*
X125897553Y-78166579D01*
X125773097Y-78467042D01*
X125592415Y-78737451D01*
X125362451Y-78967415D01*
X125092042Y-79148097D01*
X124791579Y-79272553D01*
X124685256Y-79293702D01*
X124472611Y-79336000D01*
X124147389Y-79336000D01*
X123934744Y-79293702D01*
X123828421Y-79272553D01*
X123527958Y-79148097D01*
X123257549Y-78967415D01*
X123027585Y-78737451D01*
X122846903Y-78467042D01*
X122722447Y-78166579D01*
X122694534Y-78026250D01*
X122659000Y-77847611D01*
X122659000Y-77522389D01*
X122709246Y-77269788D01*
X122722447Y-77203421D01*
X122810450Y-76990963D01*
X122846902Y-76902960D01*
X122942389Y-76760054D01*
X123027585Y-76632549D01*
X123257549Y-76402585D01*
X123527958Y-76221903D01*
X123828421Y-76097447D01*
X123934744Y-76076298D01*
X124147389Y-76034000D01*
X124472611Y-76034000D01*
X124685256Y-76076298D01*
G37*
G36*
X138728039Y-75477250D02*
G01*
X138865045Y-75534000D01*
X139051251Y-75611129D01*
X139342134Y-75805491D01*
X139589509Y-76052866D01*
X139783871Y-76343749D01*
X139817575Y-76425118D01*
X139917750Y-76666961D01*
X139986000Y-77010078D01*
X139986000Y-77359922D01*
X139917750Y-77703039D01*
X139857867Y-77847609D01*
X139783871Y-78026251D01*
X139589509Y-78317134D01*
X139342134Y-78564509D01*
X139051251Y-78758871D01*
X138917372Y-78814325D01*
X138728039Y-78892750D01*
X138384922Y-78961000D01*
X138035078Y-78961000D01*
X137691961Y-78892750D01*
X137502628Y-78814325D01*
X137368749Y-78758871D01*
X137077866Y-78564509D01*
X136830491Y-78317134D01*
X136636129Y-78026251D01*
X136562133Y-77847609D01*
X136502250Y-77703039D01*
X136434000Y-77359922D01*
X136434000Y-77010078D01*
X136502250Y-76666961D01*
X136602425Y-76425118D01*
X136636129Y-76343749D01*
X136830491Y-76052866D01*
X137077866Y-75805491D01*
X137368749Y-75611129D01*
X137554955Y-75534000D01*
X137691961Y-75477250D01*
X138035078Y-75409000D01*
X138384922Y-75409000D01*
X138728039Y-75477250D01*
G37*
G36*
X183715997Y-75138051D02*
G01*
X183749652Y-75148261D01*
X183780665Y-75164838D01*
X183807851Y-75187149D01*
X183830162Y-75214335D01*
X183846739Y-75245348D01*
X183856949Y-75279003D01*
X183861000Y-75320138D01*
X183861000Y-78049862D01*
X183856949Y-78090997D01*
X183846739Y-78124652D01*
X183830162Y-78155665D01*
X183807851Y-78182851D01*
X183780665Y-78205162D01*
X183749652Y-78221739D01*
X183715997Y-78231949D01*
X183674862Y-78236000D01*
X182345138Y-78236000D01*
X182304003Y-78231949D01*
X182270348Y-78221739D01*
X182239335Y-78205162D01*
X182212149Y-78182851D01*
X182189838Y-78155665D01*
X182173261Y-78124652D01*
X182163051Y-78090997D01*
X182159000Y-78049862D01*
X182159000Y-75320138D01*
X182163051Y-75279003D01*
X182173261Y-75245348D01*
X182189838Y-75214335D01*
X182212149Y-75187149D01*
X182239335Y-75164838D01*
X182270348Y-75148261D01*
X182304003Y-75138051D01*
X182345138Y-75134000D01*
X183674862Y-75134000D01*
X183715997Y-75138051D01*
G37*
G36*
X202441000Y-78186000D02*
G01*
X201599000Y-78186000D01*
X201599000Y-75684000D01*
X202441000Y-75684000D01*
X202441000Y-78186000D01*
G37*
G36*
X194821000Y-78186000D02*
G01*
X193979000Y-78186000D01*
X193979000Y-75684000D01*
X194821000Y-75684000D01*
X194821000Y-78186000D01*
G37*
G36*
X196091000Y-78186000D02*
G01*
X195249000Y-78186000D01*
X195249000Y-75684000D01*
X196091000Y-75684000D01*
X196091000Y-78186000D01*
G37*
G36*
X197361000Y-78186000D02*
G01*
X196519000Y-78186000D01*
X196519000Y-75684000D01*
X197361000Y-75684000D01*
X197361000Y-78186000D01*
G37*
G36*
X201171000Y-78186000D02*
G01*
X200329000Y-78186000D01*
X200329000Y-75684000D01*
X201171000Y-75684000D01*
X201171000Y-78186000D01*
G37*
G36*
X199901000Y-78186000D02*
G01*
X199059000Y-78186000D01*
X199059000Y-75684000D01*
X199901000Y-75684000D01*
X199901000Y-78186000D01*
G37*
G36*
X198631000Y-78186000D02*
G01*
X197789000Y-78186000D01*
X197789000Y-75684000D01*
X198631000Y-75684000D01*
X198631000Y-78186000D01*
G37*
G36*
X158261000Y-77916000D02*
G01*
X157159000Y-77916000D01*
X157159000Y-74814000D01*
X158261000Y-74814000D01*
X158261000Y-77916000D01*
G37*
G36*
X163341000Y-77916000D02*
G01*
X162239000Y-77916000D01*
X162239000Y-74814000D01*
X163341000Y-74814000D01*
X163341000Y-77916000D01*
G37*
G36*
X160801000Y-77916000D02*
G01*
X159699000Y-77916000D01*
X159699000Y-74814000D01*
X160801000Y-74814000D01*
X160801000Y-77916000D01*
G37*
G36*
X165881000Y-77916000D02*
G01*
X164779000Y-77916000D01*
X164779000Y-74814000D01*
X165881000Y-74814000D01*
X165881000Y-77916000D01*
G37*
G36*
X178619468Y-75938565D02*
G01*
X178658138Y-75950296D01*
X178693777Y-75969346D01*
X178725017Y-75994983D01*
X178750654Y-76026223D01*
X178769704Y-76061862D01*
X178781435Y-76100532D01*
X178786000Y-76146888D01*
X178786000Y-77223112D01*
X178781435Y-77269468D01*
X178769704Y-77308138D01*
X178750654Y-77343777D01*
X178725017Y-77375017D01*
X178693777Y-77400654D01*
X178658138Y-77419704D01*
X178619468Y-77431435D01*
X178573112Y-77436000D01*
X177921888Y-77436000D01*
X177875532Y-77431435D01*
X177836862Y-77419704D01*
X177801223Y-77400654D01*
X177769983Y-77375017D01*
X177744346Y-77343777D01*
X177725296Y-77308138D01*
X177713565Y-77269468D01*
X177709000Y-77223112D01*
X177709000Y-76146888D01*
X177713565Y-76100532D01*
X177725296Y-76061862D01*
X177744346Y-76026223D01*
X177769983Y-75994983D01*
X177801223Y-75969346D01*
X177836862Y-75950296D01*
X177875532Y-75938565D01*
X177921888Y-75934000D01*
X178573112Y-75934000D01*
X178619468Y-75938565D01*
G37*
G36*
X176744468Y-75938565D02*
G01*
X176783138Y-75950296D01*
X176818777Y-75969346D01*
X176850017Y-75994983D01*
X176875654Y-76026223D01*
X176894704Y-76061862D01*
X176906435Y-76100532D01*
X176911000Y-76146888D01*
X176911000Y-77223112D01*
X176906435Y-77269468D01*
X176894704Y-77308138D01*
X176875654Y-77343777D01*
X176850017Y-77375017D01*
X176818777Y-77400654D01*
X176783138Y-77419704D01*
X176744468Y-77431435D01*
X176698112Y-77436000D01*
X176046888Y-77436000D01*
X176000532Y-77431435D01*
X175961862Y-77419704D01*
X175926223Y-77400654D01*
X175894983Y-77375017D01*
X175869346Y-77343777D01*
X175850296Y-77308138D01*
X175838565Y-77269468D01*
X175834000Y-77223112D01*
X175834000Y-76146888D01*
X175838565Y-76100532D01*
X175850296Y-76061862D01*
X175869346Y-76026223D01*
X175894983Y-75994983D01*
X175926223Y-75969346D01*
X175961862Y-75950296D01*
X176000532Y-75938565D01*
X176046888Y-75934000D01*
X176698112Y-75934000D01*
X176744468Y-75938565D01*
G37*
G36*
X174411000Y-77386000D02*
G01*
X168609000Y-77386000D01*
X168609000Y-75684000D01*
X174411000Y-75684000D01*
X174411000Y-77386000D01*
G37*
G36*
X191761000Y-77136000D02*
G01*
X190659000Y-77136000D01*
X190659000Y-75534000D01*
X191761000Y-75534000D01*
X191761000Y-77136000D01*
G37*
G36*
X188561000Y-77136000D02*
G01*
X187459000Y-77136000D01*
X187459000Y-75534000D01*
X188561000Y-75534000D01*
X188561000Y-77136000D01*
G37*
G36*
X128135862Y-74945898D02*
G01*
X128148114Y-74946500D01*
X129361000Y-74946500D01*
X129361000Y-76948500D01*
X128148114Y-76948500D01*
X128135862Y-76949102D01*
X128110000Y-76951649D01*
X128084138Y-76949102D01*
X128071886Y-76948500D01*
X127998594Y-76948500D01*
X127981836Y-76939543D01*
X127970299Y-76935415D01*
X127885307Y-76909632D01*
X127859664Y-76901854D01*
X127746575Y-76841406D01*
X127647447Y-76760054D01*
X127566094Y-76660924D01*
X127505646Y-76547835D01*
X127495960Y-76515903D01*
X127468420Y-76425117D01*
X127459000Y-76329472D01*
X127459000Y-75565527D01*
X127468420Y-75469882D01*
X127505645Y-75347168D01*
X127531837Y-75298167D01*
X127566095Y-75234075D01*
X127647447Y-75134946D01*
X127746576Y-75053594D01*
X127859666Y-74993146D01*
X127859669Y-74993145D01*
X127970290Y-74959588D01*
X127992925Y-74950212D01*
X127998481Y-74946500D01*
X128071886Y-74946500D01*
X128084138Y-74945898D01*
X128110000Y-74943351D01*
X128135862Y-74945898D01*
G37*
G36*
X135135862Y-74945898D02*
G01*
X135148114Y-74946500D01*
X135221406Y-74946500D01*
X135238164Y-74955457D01*
X135249707Y-74959587D01*
X135360331Y-74993145D01*
X135360334Y-74993146D01*
X135473424Y-75053594D01*
X135572554Y-75134947D01*
X135653906Y-75234075D01*
X135714354Y-75347164D01*
X135714624Y-75348055D01*
X135751580Y-75469882D01*
X135761000Y-75565527D01*
X135761000Y-76329473D01*
X135751580Y-76425118D01*
X135724040Y-76515904D01*
X135714354Y-76547836D01*
X135653906Y-76660925D01*
X135572554Y-76760054D01*
X135473425Y-76841406D01*
X135360336Y-76901854D01*
X135334693Y-76909632D01*
X135249708Y-76935413D01*
X135227075Y-76944787D01*
X135221518Y-76948500D01*
X135148114Y-76948500D01*
X135135862Y-76949102D01*
X135110000Y-76951649D01*
X135084138Y-76949102D01*
X135071886Y-76948500D01*
X133859000Y-76948500D01*
X133859000Y-74946500D01*
X135071886Y-74946500D01*
X135084138Y-74945898D01*
X135110000Y-74943351D01*
X135135862Y-74945898D01*
G37*
G36*
X133411000Y-76948500D02*
G01*
X131809000Y-76948500D01*
X131809000Y-74946500D01*
X133411000Y-74946500D01*
X133411000Y-76948500D01*
G37*
G36*
X131411000Y-76948500D02*
G01*
X129809000Y-76948500D01*
X129809000Y-74946500D01*
X131411000Y-74946500D01*
X131411000Y-76948500D01*
G37*
M02*
