G04 #@! TF.GenerationSoftware,KiCad,Pcbnew,(5.1.5)-3*
G04 #@! TF.CreationDate,2021-06-22T21:37:00+02:00*
G04 #@! TF.ProjectId,18650_UPS_PCB,31383635-305f-4555-9053-5f5043422e6b,rev?*
G04 #@! TF.SameCoordinates,Original*
G04 #@! TF.FileFunction,Legend,Top*
G04 #@! TF.FilePolarity,Positive*
%FSLAX46Y46*%
G04 Gerber Fmt 4.6, Leading zero omitted, Abs format (unit mm)*
G04 Created by KiCad (PCBNEW (5.1.5)-3) date 2021-06-22 21:37:00*
%MOMM*%
%LPD*%
G04 APERTURE LIST*
%ADD10C,0.120000*%
%ADD11C,0.150000*%
G04 APERTURE END LIST*
D10*
X155150000Y-83385000D02*
X155150000Y-84655000D01*
X155150000Y-96085000D02*
X155150000Y-92275000D01*
X193250000Y-96085000D02*
X155150000Y-96085000D01*
X193250000Y-94815000D02*
X193250000Y-96085000D01*
X193250000Y-83385000D02*
X193250000Y-94815000D01*
X155150000Y-83385000D02*
X193250000Y-83385000D01*
X155150000Y-89735000D02*
X155150000Y-87195000D01*
D11*
X181610000Y-83985000D02*
X187585000Y-83985000D01*
X183135000Y-90885000D02*
X187585000Y-90885000D01*
D10*
X160050000Y-84885000D02*
X160050000Y-86285000D01*
X162370000Y-86285000D02*
X162370000Y-84385000D01*
X173910000Y-86275000D02*
X172110000Y-86275000D01*
X172110000Y-89495000D02*
X174560000Y-89495000D01*
X176510000Y-81895000D02*
X178960000Y-81895000D01*
X178310000Y-78675000D02*
X176510000Y-78675000D01*
D11*
X210435000Y-82760000D02*
X210435000Y-81410000D01*
X207285000Y-82760000D02*
X207285000Y-87410000D01*
X210535000Y-82760000D02*
X210535000Y-87410000D01*
X207285000Y-82760000D02*
X207485000Y-82760000D01*
X207285000Y-87410000D02*
X207485000Y-87410000D01*
X210535000Y-87410000D02*
X210335000Y-87410000D01*
X210535000Y-82760000D02*
X210435000Y-82760000D01*
D10*
X122300000Y-85305000D02*
X122300000Y-87735000D01*
X125370000Y-87065000D02*
X125370000Y-85305000D01*
X204210000Y-86395000D02*
X206660000Y-86395000D01*
X206010000Y-83175000D02*
X204210000Y-83175000D01*
X169160000Y-94805000D02*
X169160000Y-94015000D01*
X162260000Y-94015000D02*
X162260000Y-94805000D01*
X164110000Y-92965000D02*
X165810000Y-92965000D01*
X162860000Y-95815000D02*
X168560000Y-95815000D01*
X165610000Y-97105000D02*
X165610000Y-95815000D01*
X164510000Y-97315000D02*
X165410000Y-97315000D01*
X164310000Y-95815000D02*
X164310000Y-97105000D01*
X165610000Y-97105000D02*
X165410000Y-97315000D01*
X164310000Y-97105000D02*
X164510000Y-97315000D01*
X167110000Y-92965000D02*
X167310000Y-92965000D01*
X190360000Y-94805000D02*
X190360000Y-94015000D01*
X183460000Y-94015000D02*
X183460000Y-94805000D01*
X185310000Y-92965000D02*
X187010000Y-92965000D01*
X184060000Y-95815000D02*
X189760000Y-95815000D01*
X186810000Y-97105000D02*
X186810000Y-95815000D01*
X185710000Y-97315000D02*
X186610000Y-97315000D01*
X185510000Y-95815000D02*
X185510000Y-97105000D01*
X186810000Y-97105000D02*
X186610000Y-97315000D01*
X185510000Y-97105000D02*
X185710000Y-97315000D01*
X188310000Y-92965000D02*
X188510000Y-92965000D01*
X179760000Y-94750000D02*
X179760000Y-93960000D01*
X172860000Y-93960000D02*
X172860000Y-94750000D01*
X174710000Y-92910000D02*
X176410000Y-92910000D01*
X173460000Y-95760000D02*
X179160000Y-95760000D01*
X176210000Y-97050000D02*
X176210000Y-95760000D01*
X175110000Y-97260000D02*
X176010000Y-97260000D01*
X174910000Y-95760000D02*
X174910000Y-97050000D01*
X176210000Y-97050000D02*
X176010000Y-97260000D01*
X174910000Y-97050000D02*
X175110000Y-97260000D01*
X177710000Y-92910000D02*
X177910000Y-92910000D01*
X140610000Y-93285000D02*
X140610000Y-90885000D01*
X131210000Y-93285000D02*
X140610000Y-93285000D01*
X131210000Y-88885000D02*
X131210000Y-93285000D01*
X131210000Y-84285000D02*
X131210000Y-86685000D01*
X140610000Y-84285000D02*
X131210000Y-84285000D01*
X140610000Y-84285000D02*
X140610000Y-88735000D01*
X181100000Y-94222221D02*
X181100000Y-94547779D01*
X182120000Y-94222221D02*
X182120000Y-94547779D01*
X170500000Y-94222221D02*
X170500000Y-94547779D01*
X171520000Y-94222221D02*
X171520000Y-94547779D01*
X123972779Y-82275000D02*
X123647221Y-82275000D01*
X123972779Y-83295000D02*
X123647221Y-83295000D01*
X205172779Y-81475000D02*
X204847221Y-81475000D01*
X205172779Y-82495000D02*
X204847221Y-82495000D01*
X129320000Y-87147779D02*
X129320000Y-86822221D01*
X128300000Y-87147779D02*
X128300000Y-86822221D01*
X142600000Y-89632936D02*
X142600000Y-93737064D01*
X146020000Y-89632936D02*
X146020000Y-93737064D01*
X202720000Y-84247779D02*
X202720000Y-83922221D01*
X201700000Y-84247779D02*
X201700000Y-83922221D01*
X166410000Y-89885000D02*
X166410000Y-85885000D01*
X170610000Y-89885000D02*
X170610000Y-85885000D01*
X168310000Y-75485000D02*
X168310000Y-76885000D01*
X168310000Y-82285000D02*
X168310000Y-80885000D01*
X168310000Y-75485000D02*
X169510000Y-75485000D01*
X168310000Y-82285000D02*
X169510000Y-82285000D01*
X174710000Y-82285000D02*
X173510000Y-82285000D01*
X174710000Y-82285000D02*
X174710000Y-80885000D01*
X174710000Y-75485000D02*
X174710000Y-76885000D01*
X174710000Y-75485000D02*
X173510000Y-75485000D01*
X153855000Y-80735000D02*
X153855000Y-79685000D01*
X141565000Y-80735000D02*
X141565000Y-79685000D01*
X143310000Y-83905000D02*
X152110000Y-83905000D01*
X192360000Y-75135000D02*
X191210000Y-75135000D01*
X192360000Y-82435000D02*
X192360000Y-75135000D01*
X186860000Y-82435000D02*
X186860000Y-75135000D01*
X126075000Y-85500000D02*
X126075000Y-87785000D01*
X127545000Y-85500000D02*
X126075000Y-85500000D01*
X127545000Y-87785000D02*
X127545000Y-85500000D01*
X172751422Y-83975000D02*
X173268578Y-83975000D01*
X172751422Y-85395000D02*
X173268578Y-85395000D01*
X163351422Y-89595000D02*
X163868578Y-89595000D01*
X163351422Y-88175000D02*
X163868578Y-88175000D01*
X181012500Y-82197500D02*
X181637500Y-82197500D01*
X181325000Y-82510000D02*
X181325000Y-81885000D01*
X184705563Y-81645000D02*
X185770000Y-80580563D01*
X181314437Y-81645000D02*
X180250000Y-80580563D01*
X181314437Y-81645000D02*
X181950000Y-81645000D01*
X184705563Y-81645000D02*
X184070000Y-81645000D01*
X185770000Y-80580563D02*
X185770000Y-76125000D01*
X180250000Y-80580563D02*
X180250000Y-76125000D01*
X180250000Y-76125000D02*
X181950000Y-76125000D01*
X185770000Y-76125000D02*
X184070000Y-76125000D01*
X163600000Y-85326422D02*
X163600000Y-85843578D01*
X165020000Y-85326422D02*
X165020000Y-85843578D01*
X177051422Y-77395000D02*
X177568578Y-77395000D01*
X177051422Y-75975000D02*
X177568578Y-75975000D01*
X175600000Y-88143578D02*
X175600000Y-87626422D01*
X177020000Y-88143578D02*
X177020000Y-87626422D01*
X128300000Y-83422221D02*
X128300000Y-83747779D01*
X129320000Y-83422221D02*
X129320000Y-83747779D01*
X205272779Y-87275000D02*
X204947221Y-87275000D01*
X205272779Y-88295000D02*
X204947221Y-88295000D01*
X126300000Y-83422221D02*
X126300000Y-83747779D01*
X127320000Y-83422221D02*
X127320000Y-83747779D01*
X179037221Y-87095000D02*
X179362779Y-87095000D01*
X179037221Y-86075000D02*
X179362779Y-86075000D01*
X179047221Y-85195000D02*
X179372779Y-85195000D01*
X179047221Y-84175000D02*
X179372779Y-84175000D01*
X159020000Y-87705000D02*
X159020000Y-84595000D01*
X159020000Y-92785000D02*
X159020000Y-89225000D01*
X156360000Y-90245000D02*
X156360000Y-86685000D01*
X156360000Y-85165000D02*
X156360000Y-84595000D01*
X159020000Y-94875000D02*
X159020000Y-94305000D01*
X159020000Y-94305000D02*
X160540000Y-94305000D01*
X156360000Y-94875000D02*
X156360000Y-91765000D01*
X159020000Y-84595000D02*
X156360000Y-84595000D01*
X159020000Y-94875000D02*
X156360000Y-94875000D01*
X150410000Y-95450000D02*
X153860000Y-95450000D01*
X150410000Y-95450000D02*
X148460000Y-95450000D01*
X150410000Y-90330000D02*
X152360000Y-90330000D01*
X150410000Y-90330000D02*
X148460000Y-90330000D01*
X204978986Y-90109264D02*
X203317285Y-88447563D01*
X204978986Y-90109264D02*
X203140509Y-91947742D01*
X198685736Y-83816014D02*
X200347437Y-85477715D01*
X198685736Y-83816014D02*
X196953324Y-85548425D01*
X193241014Y-89260736D02*
X194867359Y-90887082D01*
X193241014Y-89260736D02*
X195114847Y-87386903D01*
X199534264Y-95553986D02*
X197907918Y-93927641D01*
X199534264Y-95553986D02*
X201408097Y-93680153D01*
X155720000Y-88647779D02*
X155720000Y-88322221D01*
X154700000Y-88647779D02*
X154700000Y-88322221D01*
X160620000Y-91247779D02*
X160620000Y-90922221D01*
X159600000Y-91247779D02*
X159600000Y-90922221D01*
X166090000Y-81485000D02*
X166090000Y-82845000D01*
X156950000Y-76285000D02*
X156380000Y-76285000D01*
X159490000Y-76285000D02*
X158470000Y-76285000D01*
X162030000Y-76285000D02*
X161010000Y-76285000D01*
X164570000Y-76285000D02*
X163550000Y-76285000D01*
X166660000Y-76285000D02*
X166090000Y-76285000D01*
X156380000Y-76285000D02*
X156380000Y-81485000D01*
X156950000Y-81485000D02*
X156380000Y-81485000D01*
X159490000Y-81485000D02*
X158470000Y-81485000D01*
X162030000Y-81485000D02*
X161010000Y-81485000D01*
X164570000Y-81485000D02*
X163550000Y-81485000D01*
X166660000Y-81485000D02*
X166090000Y-81485000D01*
X166660000Y-76285000D02*
X166660000Y-81485000D01*
X179372779Y-87875000D02*
X179047221Y-87875000D01*
X179372779Y-88895000D02*
X179047221Y-88895000D01*
X179412779Y-89725000D02*
X179087221Y-89725000D01*
X179412779Y-90745000D02*
X179087221Y-90745000D01*
X191572779Y-84275000D02*
X191247221Y-84275000D01*
X191572779Y-85295000D02*
X191247221Y-85295000D01*
X191572779Y-86075000D02*
X191247221Y-86075000D01*
X191572779Y-87095000D02*
X191247221Y-87095000D01*
X191572779Y-87925000D02*
X191247221Y-87925000D01*
X191572779Y-88945000D02*
X191247221Y-88945000D01*
X148447221Y-88995000D02*
X148772779Y-88995000D01*
X148447221Y-87975000D02*
X148772779Y-87975000D01*
X152047221Y-88995000D02*
X152372779Y-88995000D01*
X152047221Y-87975000D02*
X152372779Y-87975000D01*
X133310000Y-79497500D02*
X133310000Y-79047500D01*
X133310000Y-79497500D02*
X132860000Y-79497500D01*
X127710000Y-78947500D02*
X128160000Y-78947500D01*
X127710000Y-77097500D02*
X127710000Y-78947500D01*
X135510000Y-74547500D02*
X135510000Y-74797500D01*
X127710000Y-74547500D02*
X127710000Y-74797500D01*
X135510000Y-77097500D02*
X135510000Y-78947500D01*
X135510000Y-78947500D02*
X135060000Y-78947500D01*
X193770000Y-80650000D02*
X193705000Y-80650000D01*
X193770000Y-77120000D02*
X193705000Y-77120000D01*
X202715000Y-80650000D02*
X202650000Y-80650000D01*
X202715000Y-77120000D02*
X202650000Y-77120000D01*
X202650000Y-75795000D02*
X202650000Y-77120000D01*
X193705000Y-77120000D02*
X193705000Y-80650000D01*
X202715000Y-77120000D02*
X202715000Y-80650000D01*
M02*
