G04 #@! TF.GenerationSoftware,KiCad,Pcbnew,(5.1.5)-3*
G04 #@! TF.CreationDate,2021-06-22T21:37:00+02:00*
G04 #@! TF.ProjectId,18650_UPS_PCB,31383635-305f-4555-9053-5f5043422e6b,rev?*
G04 #@! TF.SameCoordinates,Original*
G04 #@! TF.FileFunction,Copper,L2,Inr*
G04 #@! TF.FilePolarity,Positive*
%FSLAX46Y46*%
G04 Gerber Fmt 4.6, Leading zero omitted, Abs format (unit mm)*
G04 Created by KiCad (PCBNEW (5.1.5)-3) date 2021-06-22 21:37:00*
%MOMM*%
%LPD*%
G04 APERTURE LIST*
%ADD10O,1.900000X3.500000*%
%ADD11O,1.200000X1.900000*%
%ADD12C,1.450000*%
%ADD13C,0.800000*%
%ADD14C,0.254000*%
G04 APERTURE END LIST*
D10*
X153410000Y-82785000D03*
X142010000Y-82785000D03*
D11*
X128110000Y-75947500D03*
X135110000Y-75947500D03*
D12*
X129110000Y-78647500D03*
X134110000Y-78647500D03*
D13*
X210110000Y-85185000D03*
X209510000Y-86085000D03*
X209510000Y-84285000D03*
X122610000Y-89785000D03*
X123810000Y-89785000D03*
X125010000Y-89785000D03*
X172110000Y-78885000D03*
X170910000Y-78885000D03*
X144310000Y-90485000D03*
X145510000Y-90485000D03*
X143110000Y-90485000D03*
X155310000Y-78885000D03*
X150400000Y-95500000D03*
X168100000Y-95500000D03*
X178700000Y-95500000D03*
X189200000Y-95500000D03*
X200600000Y-83500000D03*
X208910000Y-80285000D03*
X207710000Y-80285000D03*
X210110000Y-80285000D03*
X156210000Y-76385000D03*
X155110000Y-76385000D03*
X154010000Y-76385000D03*
X162672500Y-85585000D03*
X181010000Y-76685000D03*
X179810000Y-76685000D03*
X176310000Y-85685000D03*
X176310000Y-84685000D03*
X199410000Y-74885000D03*
X169400000Y-94400000D03*
X183200000Y-94400000D03*
X199800000Y-89000000D03*
X193900000Y-84700000D03*
X183900000Y-85700000D03*
X185110000Y-80285000D03*
X186310000Y-80285000D03*
X148910000Y-80285000D03*
X150110000Y-80285000D03*
X159010000Y-80285000D03*
X159010000Y-81385000D03*
X197800000Y-91000000D03*
X186200000Y-89500000D03*
X185000000Y-89500000D03*
X199100000Y-93600000D03*
X193100000Y-81000000D03*
X183800000Y-89500000D03*
X180900000Y-89300000D03*
X193300000Y-76900000D03*
X150900000Y-90900000D03*
X158700000Y-90900000D03*
X184800000Y-84900000D03*
X149700000Y-90900000D03*
X156800000Y-87700000D03*
X185600000Y-84200000D03*
X137110000Y-85185000D03*
X134710000Y-85185000D03*
X135910000Y-85185000D03*
X161910000Y-90785000D03*
X163110000Y-90785000D03*
X177500000Y-85600000D03*
X189700000Y-87500000D03*
X200100000Y-78800000D03*
X188000000Y-78200000D03*
X183900000Y-86900000D03*
X179200000Y-83700000D03*
X187000000Y-94400000D03*
X165800000Y-94400000D03*
X158900000Y-84600000D03*
X180900000Y-85600000D03*
X172096076Y-94463399D03*
D14*
G36*
X207960155Y-74401478D02*
G01*
X208585543Y-74590293D01*
X209162351Y-74896987D01*
X209668603Y-75309875D01*
X210085012Y-75813227D01*
X210395726Y-76387879D01*
X210588904Y-77011937D01*
X210657943Y-77668793D01*
X210658001Y-77685529D01*
X210658001Y-84704867D01*
X210573436Y-84620302D01*
X210454364Y-84540741D01*
X210322058Y-84485938D01*
X210215490Y-84464741D01*
X210237000Y-84356603D01*
X210237000Y-84213397D01*
X210209062Y-84072942D01*
X210154259Y-83940636D01*
X210074698Y-83821564D01*
X209973436Y-83720302D01*
X209854364Y-83640741D01*
X209722058Y-83585938D01*
X209581603Y-83558000D01*
X209438397Y-83558000D01*
X209297942Y-83585938D01*
X209165636Y-83640741D01*
X209046564Y-83720302D01*
X208945302Y-83821564D01*
X208865741Y-83940636D01*
X208810938Y-84072942D01*
X208783000Y-84213397D01*
X208783000Y-84356603D01*
X208810938Y-84497058D01*
X208865741Y-84629364D01*
X208945302Y-84748436D01*
X209046564Y-84849698D01*
X209165636Y-84929259D01*
X209297942Y-84984062D01*
X209404510Y-85005259D01*
X209383000Y-85113397D01*
X209383000Y-85256603D01*
X209404510Y-85364741D01*
X209297942Y-85385938D01*
X209165636Y-85440741D01*
X209046564Y-85520302D01*
X208945302Y-85621564D01*
X208865741Y-85740636D01*
X208810938Y-85872942D01*
X208783000Y-86013397D01*
X208783000Y-86156603D01*
X208810938Y-86297058D01*
X208865741Y-86429364D01*
X208945302Y-86548436D01*
X209046564Y-86649698D01*
X209165636Y-86729259D01*
X209297942Y-86784062D01*
X209438397Y-86812000D01*
X209581603Y-86812000D01*
X209722058Y-86784062D01*
X209854364Y-86729259D01*
X209973436Y-86649698D01*
X210074698Y-86548436D01*
X210154259Y-86429364D01*
X210209062Y-86297058D01*
X210237000Y-86156603D01*
X210237000Y-86013397D01*
X210215490Y-85905259D01*
X210322058Y-85884062D01*
X210454364Y-85829259D01*
X210573436Y-85749698D01*
X210658000Y-85665134D01*
X210658000Y-92677561D01*
X210593522Y-93335155D01*
X210404704Y-93960549D01*
X210098013Y-94537351D01*
X209685125Y-95043603D01*
X209181771Y-95460013D01*
X208607117Y-95770727D01*
X207983062Y-95963904D01*
X207326207Y-96032943D01*
X207309758Y-96033000D01*
X189695134Y-96033000D01*
X189764698Y-95963436D01*
X189844259Y-95844364D01*
X189899062Y-95712058D01*
X189927000Y-95571603D01*
X189927000Y-95428397D01*
X189899062Y-95287942D01*
X189844259Y-95155636D01*
X189764698Y-95036564D01*
X189663436Y-94935302D01*
X189544364Y-94855741D01*
X189412058Y-94800938D01*
X189271603Y-94773000D01*
X189128397Y-94773000D01*
X189100426Y-94778564D01*
X189157141Y-94641643D01*
X189187000Y-94491528D01*
X189187000Y-94338472D01*
X189157141Y-94188357D01*
X189098569Y-94046952D01*
X189013536Y-93919691D01*
X188905309Y-93811464D01*
X188778048Y-93726431D01*
X188636643Y-93667859D01*
X188486528Y-93638000D01*
X188333472Y-93638000D01*
X188183357Y-93667859D01*
X188041952Y-93726431D01*
X187914691Y-93811464D01*
X187806464Y-93919691D01*
X187721431Y-94046952D01*
X187681046Y-94144449D01*
X187644259Y-94055636D01*
X187564698Y-93936564D01*
X187463436Y-93835302D01*
X187344364Y-93755741D01*
X187212058Y-93700938D01*
X187071603Y-93673000D01*
X186928397Y-93673000D01*
X186787942Y-93700938D01*
X186655636Y-93755741D01*
X186536564Y-93835302D01*
X186435302Y-93936564D01*
X186355741Y-94055636D01*
X186300938Y-94187942D01*
X186273000Y-94328397D01*
X186273000Y-94471603D01*
X186300938Y-94612058D01*
X186355741Y-94744364D01*
X186435302Y-94863436D01*
X186536564Y-94964698D01*
X186655636Y-95044259D01*
X186787942Y-95099062D01*
X186928397Y-95127000D01*
X187071603Y-95127000D01*
X187212058Y-95099062D01*
X187344364Y-95044259D01*
X187463436Y-94964698D01*
X187564698Y-94863436D01*
X187644259Y-94744364D01*
X187674833Y-94670551D01*
X187721431Y-94783048D01*
X187806464Y-94910309D01*
X187914691Y-95018536D01*
X188041952Y-95103569D01*
X188183357Y-95162141D01*
X188333472Y-95192000D01*
X188486528Y-95192000D01*
X188545541Y-95180262D01*
X188500938Y-95287942D01*
X188473000Y-95428397D01*
X188473000Y-95571603D01*
X188500938Y-95712058D01*
X188555741Y-95844364D01*
X188635302Y-95963436D01*
X188704866Y-96033000D01*
X179195134Y-96033000D01*
X179264698Y-95963436D01*
X179344259Y-95844364D01*
X179399062Y-95712058D01*
X179427000Y-95571603D01*
X179427000Y-95428397D01*
X179399062Y-95287942D01*
X179344259Y-95155636D01*
X179264698Y-95036564D01*
X179163436Y-94935302D01*
X179044364Y-94855741D01*
X178912058Y-94800938D01*
X178771603Y-94773000D01*
X178628397Y-94773000D01*
X178487942Y-94800938D01*
X178435294Y-94822745D01*
X178498569Y-94728048D01*
X178557141Y-94586643D01*
X178587000Y-94436528D01*
X178587000Y-94338472D01*
X184633000Y-94338472D01*
X184633000Y-94491528D01*
X184662859Y-94641643D01*
X184721431Y-94783048D01*
X184806464Y-94910309D01*
X184914691Y-95018536D01*
X185041952Y-95103569D01*
X185183357Y-95162141D01*
X185333472Y-95192000D01*
X185486528Y-95192000D01*
X185636643Y-95162141D01*
X185778048Y-95103569D01*
X185905309Y-95018536D01*
X186013536Y-94910309D01*
X186098569Y-94783048D01*
X186157141Y-94641643D01*
X186187000Y-94491528D01*
X186187000Y-94338472D01*
X186157141Y-94188357D01*
X186098569Y-94046952D01*
X186013536Y-93919691D01*
X185905309Y-93811464D01*
X185778048Y-93726431D01*
X185636643Y-93667859D01*
X185486528Y-93638000D01*
X185333472Y-93638000D01*
X185183357Y-93667859D01*
X185041952Y-93726431D01*
X184914691Y-93811464D01*
X184806464Y-93919691D01*
X184721431Y-94046952D01*
X184662859Y-94188357D01*
X184633000Y-94338472D01*
X178587000Y-94338472D01*
X178587000Y-94283472D01*
X178557141Y-94133357D01*
X178498569Y-93991952D01*
X178413536Y-93864691D01*
X178305309Y-93756464D01*
X178178048Y-93671431D01*
X178036643Y-93612859D01*
X177886528Y-93583000D01*
X177733472Y-93583000D01*
X177583357Y-93612859D01*
X177441952Y-93671431D01*
X177314691Y-93756464D01*
X177206464Y-93864691D01*
X177121431Y-93991952D01*
X177062859Y-94133357D01*
X177033000Y-94283472D01*
X177033000Y-94436528D01*
X177062859Y-94586643D01*
X177121431Y-94728048D01*
X177206464Y-94855309D01*
X177314691Y-94963536D01*
X177441952Y-95048569D01*
X177583357Y-95107141D01*
X177733472Y-95137000D01*
X177886528Y-95137000D01*
X178036643Y-95107141D01*
X178107853Y-95077645D01*
X178055741Y-95155636D01*
X178000938Y-95287942D01*
X177973000Y-95428397D01*
X177973000Y-95571603D01*
X178000938Y-95712058D01*
X178055741Y-95844364D01*
X178135302Y-95963436D01*
X178204866Y-96033000D01*
X168595134Y-96033000D01*
X168664698Y-95963436D01*
X168744259Y-95844364D01*
X168799062Y-95712058D01*
X168827000Y-95571603D01*
X168827000Y-95428397D01*
X168799062Y-95287942D01*
X168744259Y-95155636D01*
X168664698Y-95036564D01*
X168563436Y-94935302D01*
X168444364Y-94855741D01*
X168312058Y-94800938D01*
X168171603Y-94773000D01*
X168028397Y-94773000D01*
X167887942Y-94800938D01*
X167886108Y-94801698D01*
X167898569Y-94783048D01*
X167957141Y-94641643D01*
X167987000Y-94491528D01*
X167987000Y-94391796D01*
X171369076Y-94391796D01*
X171369076Y-94535002D01*
X171397014Y-94675457D01*
X171451817Y-94807763D01*
X171531378Y-94926835D01*
X171632640Y-95028097D01*
X171751712Y-95107658D01*
X171884018Y-95162461D01*
X172024473Y-95190399D01*
X172167679Y-95190399D01*
X172308134Y-95162461D01*
X172440440Y-95107658D01*
X172559512Y-95028097D01*
X172660774Y-94926835D01*
X172740335Y-94807763D01*
X172795138Y-94675457D01*
X172823076Y-94535002D01*
X172823076Y-94391796D01*
X172801530Y-94283472D01*
X174033000Y-94283472D01*
X174033000Y-94436528D01*
X174062859Y-94586643D01*
X174121431Y-94728048D01*
X174206464Y-94855309D01*
X174314691Y-94963536D01*
X174441952Y-95048569D01*
X174583357Y-95107141D01*
X174733472Y-95137000D01*
X174886528Y-95137000D01*
X175036643Y-95107141D01*
X175178048Y-95048569D01*
X175305309Y-94963536D01*
X175413536Y-94855309D01*
X175498569Y-94728048D01*
X175557141Y-94586643D01*
X175587000Y-94436528D01*
X175587000Y-94283472D01*
X175557141Y-94133357D01*
X175498569Y-93991952D01*
X175413536Y-93864691D01*
X175305309Y-93756464D01*
X175178048Y-93671431D01*
X175036643Y-93612859D01*
X174886528Y-93583000D01*
X174733472Y-93583000D01*
X174583357Y-93612859D01*
X174441952Y-93671431D01*
X174314691Y-93756464D01*
X174206464Y-93864691D01*
X174121431Y-93991952D01*
X174062859Y-94133357D01*
X174033000Y-94283472D01*
X172801530Y-94283472D01*
X172795138Y-94251341D01*
X172740335Y-94119035D01*
X172660774Y-93999963D01*
X172559512Y-93898701D01*
X172440440Y-93819140D01*
X172308134Y-93764337D01*
X172167679Y-93736399D01*
X172024473Y-93736399D01*
X171884018Y-93764337D01*
X171751712Y-93819140D01*
X171632640Y-93898701D01*
X171531378Y-93999963D01*
X171451817Y-94119035D01*
X171397014Y-94251341D01*
X171369076Y-94391796D01*
X167987000Y-94391796D01*
X167987000Y-94338472D01*
X167957141Y-94188357D01*
X167898569Y-94046952D01*
X167813536Y-93919691D01*
X167705309Y-93811464D01*
X167578048Y-93726431D01*
X167436643Y-93667859D01*
X167286528Y-93638000D01*
X167133472Y-93638000D01*
X166983357Y-93667859D01*
X166841952Y-93726431D01*
X166714691Y-93811464D01*
X166606464Y-93919691D01*
X166521431Y-94046952D01*
X166481046Y-94144449D01*
X166444259Y-94055636D01*
X166364698Y-93936564D01*
X166263436Y-93835302D01*
X166144364Y-93755741D01*
X166012058Y-93700938D01*
X165871603Y-93673000D01*
X165728397Y-93673000D01*
X165587942Y-93700938D01*
X165455636Y-93755741D01*
X165336564Y-93835302D01*
X165235302Y-93936564D01*
X165155741Y-94055636D01*
X165100938Y-94187942D01*
X165073000Y-94328397D01*
X165073000Y-94471603D01*
X165100938Y-94612058D01*
X165155741Y-94744364D01*
X165235302Y-94863436D01*
X165336564Y-94964698D01*
X165455636Y-95044259D01*
X165587942Y-95099062D01*
X165728397Y-95127000D01*
X165871603Y-95127000D01*
X166012058Y-95099062D01*
X166144364Y-95044259D01*
X166263436Y-94964698D01*
X166364698Y-94863436D01*
X166444259Y-94744364D01*
X166474833Y-94670551D01*
X166521431Y-94783048D01*
X166606464Y-94910309D01*
X166714691Y-95018536D01*
X166841952Y-95103569D01*
X166983357Y-95162141D01*
X167133472Y-95192000D01*
X167286528Y-95192000D01*
X167436643Y-95162141D01*
X167457040Y-95153692D01*
X167455741Y-95155636D01*
X167400938Y-95287942D01*
X167373000Y-95428397D01*
X167373000Y-95571603D01*
X167400938Y-95712058D01*
X167455741Y-95844364D01*
X167535302Y-95963436D01*
X167604866Y-96033000D01*
X150895134Y-96033000D01*
X150964698Y-95963436D01*
X151044259Y-95844364D01*
X151099062Y-95712058D01*
X151127000Y-95571603D01*
X151127000Y-95428397D01*
X151099062Y-95287942D01*
X151044259Y-95155636D01*
X150964698Y-95036564D01*
X150863436Y-94935302D01*
X150744364Y-94855741D01*
X150612058Y-94800938D01*
X150471603Y-94773000D01*
X150328397Y-94773000D01*
X150187942Y-94800938D01*
X150055636Y-94855741D01*
X149936564Y-94935302D01*
X149835302Y-95036564D01*
X149755741Y-95155636D01*
X149700938Y-95287942D01*
X149673000Y-95428397D01*
X149673000Y-95571603D01*
X149700938Y-95712058D01*
X149755741Y-95844364D01*
X149835302Y-95963436D01*
X149904866Y-96033000D01*
X124317439Y-96033000D01*
X123659845Y-95968522D01*
X123034451Y-95779704D01*
X122457649Y-95473013D01*
X121951397Y-95060125D01*
X121534987Y-94556771D01*
X121224273Y-93982117D01*
X121031096Y-93358062D01*
X120962057Y-92701207D01*
X120962000Y-92684758D01*
X120962000Y-92495207D01*
X122383000Y-92495207D01*
X122383000Y-92874793D01*
X122457053Y-93247085D01*
X122602315Y-93597777D01*
X122813201Y-93913391D01*
X123081609Y-94181799D01*
X123397223Y-94392685D01*
X123747915Y-94537947D01*
X124120207Y-94612000D01*
X124499793Y-94612000D01*
X124872085Y-94537947D01*
X125222777Y-94392685D01*
X125538391Y-94181799D01*
X125806799Y-93913391D01*
X126017685Y-93597777D01*
X126162947Y-93247085D01*
X126205113Y-93035096D01*
X128358000Y-93035096D01*
X128358000Y-93334904D01*
X128416490Y-93628951D01*
X128531221Y-93905937D01*
X128697786Y-94155218D01*
X128909782Y-94367214D01*
X129159063Y-94533779D01*
X129436049Y-94648510D01*
X129730096Y-94707000D01*
X130029904Y-94707000D01*
X130323951Y-94648510D01*
X130600937Y-94533779D01*
X130850218Y-94367214D01*
X130878960Y-94338472D01*
X163433000Y-94338472D01*
X163433000Y-94491528D01*
X163462859Y-94641643D01*
X163521431Y-94783048D01*
X163606464Y-94910309D01*
X163714691Y-95018536D01*
X163841952Y-95103569D01*
X163983357Y-95162141D01*
X164133472Y-95192000D01*
X164286528Y-95192000D01*
X164436643Y-95162141D01*
X164578048Y-95103569D01*
X164705309Y-95018536D01*
X164813536Y-94910309D01*
X164898569Y-94783048D01*
X164957141Y-94641643D01*
X164987000Y-94491528D01*
X164987000Y-94338472D01*
X164957141Y-94188357D01*
X164898569Y-94046952D01*
X164813536Y-93919691D01*
X164705309Y-93811464D01*
X164578048Y-93726431D01*
X164436643Y-93667859D01*
X164286528Y-93638000D01*
X164133472Y-93638000D01*
X163983357Y-93667859D01*
X163841952Y-93726431D01*
X163714691Y-93811464D01*
X163606464Y-93919691D01*
X163521431Y-94046952D01*
X163462859Y-94188357D01*
X163433000Y-94338472D01*
X130878960Y-94338472D01*
X131062214Y-94155218D01*
X131228779Y-93905937D01*
X131343510Y-93628951D01*
X131402000Y-93334904D01*
X131402000Y-93035096D01*
X131391617Y-92982896D01*
X191358000Y-92982896D01*
X191358000Y-93387104D01*
X191436857Y-93783546D01*
X191591541Y-94156987D01*
X191816107Y-94493074D01*
X192101926Y-94778893D01*
X192438013Y-95003459D01*
X192811454Y-95158143D01*
X193207896Y-95237000D01*
X193612104Y-95237000D01*
X194008546Y-95158143D01*
X194381987Y-95003459D01*
X194718074Y-94778893D01*
X195003893Y-94493074D01*
X195228459Y-94156987D01*
X195383143Y-93783546D01*
X195433895Y-93528397D01*
X198373000Y-93528397D01*
X198373000Y-93671603D01*
X198400938Y-93812058D01*
X198455741Y-93944364D01*
X198535302Y-94063436D01*
X198636564Y-94164698D01*
X198755636Y-94244259D01*
X198887942Y-94299062D01*
X199028397Y-94327000D01*
X199171603Y-94327000D01*
X199312058Y-94299062D01*
X199444364Y-94244259D01*
X199563436Y-94164698D01*
X199664698Y-94063436D01*
X199744259Y-93944364D01*
X199799062Y-93812058D01*
X199827000Y-93671603D01*
X199827000Y-93528397D01*
X199799062Y-93387942D01*
X199744259Y-93255636D01*
X199664698Y-93136564D01*
X199563436Y-93035302D01*
X199444364Y-92955741D01*
X199312058Y-92900938D01*
X199171603Y-92873000D01*
X199028397Y-92873000D01*
X198887942Y-92900938D01*
X198755636Y-92955741D01*
X198636564Y-93035302D01*
X198535302Y-93136564D01*
X198455741Y-93255636D01*
X198400938Y-93387942D01*
X198373000Y-93528397D01*
X195433895Y-93528397D01*
X195462000Y-93387104D01*
X195462000Y-92982896D01*
X195383143Y-92586454D01*
X195345348Y-92495207D01*
X205383000Y-92495207D01*
X205383000Y-92874793D01*
X205457053Y-93247085D01*
X205602315Y-93597777D01*
X205813201Y-93913391D01*
X206081609Y-94181799D01*
X206397223Y-94392685D01*
X206747915Y-94537947D01*
X207120207Y-94612000D01*
X207499793Y-94612000D01*
X207872085Y-94537947D01*
X208222777Y-94392685D01*
X208538391Y-94181799D01*
X208806799Y-93913391D01*
X209017685Y-93597777D01*
X209162947Y-93247085D01*
X209237000Y-92874793D01*
X209237000Y-92495207D01*
X209162947Y-92122915D01*
X209017685Y-91772223D01*
X208806799Y-91456609D01*
X208538391Y-91188201D01*
X208222777Y-90977315D01*
X207872085Y-90832053D01*
X207499793Y-90758000D01*
X207120207Y-90758000D01*
X206747915Y-90832053D01*
X206397223Y-90977315D01*
X206081609Y-91188201D01*
X205813201Y-91456609D01*
X205602315Y-91772223D01*
X205457053Y-92122915D01*
X205383000Y-92495207D01*
X195345348Y-92495207D01*
X195228459Y-92213013D01*
X195003893Y-91876926D01*
X194718074Y-91591107D01*
X194381987Y-91366541D01*
X194008546Y-91211857D01*
X193612104Y-91133000D01*
X193207896Y-91133000D01*
X192811454Y-91211857D01*
X192438013Y-91366541D01*
X192101926Y-91591107D01*
X191816107Y-91876926D01*
X191591541Y-92213013D01*
X191436857Y-92586454D01*
X191358000Y-92982896D01*
X131391617Y-92982896D01*
X131343510Y-92741049D01*
X131228779Y-92464063D01*
X131062214Y-92214782D01*
X130850218Y-92002786D01*
X130600937Y-91836221D01*
X130323951Y-91721490D01*
X130208992Y-91698623D01*
X131683000Y-91698623D01*
X131683000Y-91871377D01*
X131716703Y-92040811D01*
X131782813Y-92200415D01*
X131878790Y-92344055D01*
X132000945Y-92466210D01*
X132144585Y-92562187D01*
X132304189Y-92628297D01*
X132473623Y-92662000D01*
X132646377Y-92662000D01*
X132815811Y-92628297D01*
X132975415Y-92562187D01*
X133119055Y-92466210D01*
X133241210Y-92344055D01*
X133337187Y-92200415D01*
X133403297Y-92040811D01*
X133437000Y-91871377D01*
X133437000Y-91698623D01*
X133403297Y-91529189D01*
X133337187Y-91369585D01*
X133241210Y-91225945D01*
X133119055Y-91103790D01*
X132975415Y-91007813D01*
X132815811Y-90941703D01*
X132646377Y-90908000D01*
X132473623Y-90908000D01*
X132304189Y-90941703D01*
X132144585Y-91007813D01*
X132000945Y-91103790D01*
X131878790Y-91225945D01*
X131782813Y-91369585D01*
X131716703Y-91529189D01*
X131683000Y-91698623D01*
X130208992Y-91698623D01*
X130029904Y-91663000D01*
X129730096Y-91663000D01*
X129436049Y-91721490D01*
X129159063Y-91836221D01*
X128909782Y-92002786D01*
X128697786Y-92214782D01*
X128531221Y-92464063D01*
X128416490Y-92741049D01*
X128358000Y-93035096D01*
X126205113Y-93035096D01*
X126237000Y-92874793D01*
X126237000Y-92495207D01*
X126162947Y-92122915D01*
X126017685Y-91772223D01*
X125806799Y-91456609D01*
X125538391Y-91188201D01*
X125222777Y-90977315D01*
X124872085Y-90832053D01*
X124499793Y-90758000D01*
X124120207Y-90758000D01*
X123747915Y-90832053D01*
X123397223Y-90977315D01*
X123081609Y-91188201D01*
X122813201Y-91456609D01*
X122602315Y-91772223D01*
X122457053Y-92122915D01*
X122383000Y-92495207D01*
X120962000Y-92495207D01*
X120962000Y-89713397D01*
X121883000Y-89713397D01*
X121883000Y-89856603D01*
X121910938Y-89997058D01*
X121965741Y-90129364D01*
X122045302Y-90248436D01*
X122146564Y-90349698D01*
X122265636Y-90429259D01*
X122397942Y-90484062D01*
X122538397Y-90512000D01*
X122681603Y-90512000D01*
X122822058Y-90484062D01*
X122954364Y-90429259D01*
X123073436Y-90349698D01*
X123174698Y-90248436D01*
X123210000Y-90195603D01*
X123245302Y-90248436D01*
X123346564Y-90349698D01*
X123465636Y-90429259D01*
X123597942Y-90484062D01*
X123738397Y-90512000D01*
X123881603Y-90512000D01*
X124022058Y-90484062D01*
X124154364Y-90429259D01*
X124273436Y-90349698D01*
X124374698Y-90248436D01*
X124410000Y-90195603D01*
X124445302Y-90248436D01*
X124546564Y-90349698D01*
X124665636Y-90429259D01*
X124797942Y-90484062D01*
X124938397Y-90512000D01*
X125081603Y-90512000D01*
X125222058Y-90484062D01*
X125354364Y-90429259D01*
X125378103Y-90413397D01*
X142383000Y-90413397D01*
X142383000Y-90556603D01*
X142410938Y-90697058D01*
X142465741Y-90829364D01*
X142545302Y-90948436D01*
X142646564Y-91049698D01*
X142765636Y-91129259D01*
X142897942Y-91184062D01*
X143038397Y-91212000D01*
X143181603Y-91212000D01*
X143322058Y-91184062D01*
X143454364Y-91129259D01*
X143573436Y-91049698D01*
X143674698Y-90948436D01*
X143710000Y-90895603D01*
X143745302Y-90948436D01*
X143846564Y-91049698D01*
X143965636Y-91129259D01*
X144097942Y-91184062D01*
X144238397Y-91212000D01*
X144381603Y-91212000D01*
X144522058Y-91184062D01*
X144654364Y-91129259D01*
X144773436Y-91049698D01*
X144874698Y-90948436D01*
X144910000Y-90895603D01*
X144945302Y-90948436D01*
X145046564Y-91049698D01*
X145165636Y-91129259D01*
X145297942Y-91184062D01*
X145438397Y-91212000D01*
X145581603Y-91212000D01*
X145722058Y-91184062D01*
X145854364Y-91129259D01*
X145973436Y-91049698D01*
X146074698Y-90948436D01*
X146154259Y-90829364D01*
X146154659Y-90828397D01*
X148973000Y-90828397D01*
X148973000Y-90971603D01*
X149000938Y-91112058D01*
X149055741Y-91244364D01*
X149135302Y-91363436D01*
X149236564Y-91464698D01*
X149355636Y-91544259D01*
X149487942Y-91599062D01*
X149628397Y-91627000D01*
X149771603Y-91627000D01*
X149912058Y-91599062D01*
X150044364Y-91544259D01*
X150163436Y-91464698D01*
X150264698Y-91363436D01*
X150300000Y-91310603D01*
X150335302Y-91363436D01*
X150436564Y-91464698D01*
X150555636Y-91544259D01*
X150687942Y-91599062D01*
X150828397Y-91627000D01*
X150971603Y-91627000D01*
X151112058Y-91599062D01*
X151244364Y-91544259D01*
X151363436Y-91464698D01*
X151464698Y-91363436D01*
X151544259Y-91244364D01*
X151599062Y-91112058D01*
X151627000Y-90971603D01*
X151627000Y-90828397D01*
X157973000Y-90828397D01*
X157973000Y-90971603D01*
X158000938Y-91112058D01*
X158055741Y-91244364D01*
X158135302Y-91363436D01*
X158236564Y-91464698D01*
X158355636Y-91544259D01*
X158487942Y-91599062D01*
X158628397Y-91627000D01*
X158771603Y-91627000D01*
X158912058Y-91599062D01*
X159044364Y-91544259D01*
X159163436Y-91464698D01*
X159264698Y-91363436D01*
X159344259Y-91244364D01*
X159399062Y-91112058D01*
X159427000Y-90971603D01*
X159427000Y-90828397D01*
X159404126Y-90713397D01*
X161183000Y-90713397D01*
X161183000Y-90856603D01*
X161210938Y-90997058D01*
X161265741Y-91129364D01*
X161345302Y-91248436D01*
X161446564Y-91349698D01*
X161565636Y-91429259D01*
X161697942Y-91484062D01*
X161838397Y-91512000D01*
X161981603Y-91512000D01*
X162122058Y-91484062D01*
X162254364Y-91429259D01*
X162373436Y-91349698D01*
X162474698Y-91248436D01*
X162510000Y-91195603D01*
X162545302Y-91248436D01*
X162646564Y-91349698D01*
X162765636Y-91429259D01*
X162897942Y-91484062D01*
X163038397Y-91512000D01*
X163181603Y-91512000D01*
X163322058Y-91484062D01*
X163454364Y-91429259D01*
X163573436Y-91349698D01*
X163674698Y-91248436D01*
X163754259Y-91129364D01*
X163809062Y-90997058D01*
X163822719Y-90928397D01*
X197073000Y-90928397D01*
X197073000Y-91071603D01*
X197100938Y-91212058D01*
X197155741Y-91344364D01*
X197235302Y-91463436D01*
X197336564Y-91564698D01*
X197455636Y-91644259D01*
X197587942Y-91699062D01*
X197728397Y-91727000D01*
X197871603Y-91727000D01*
X198012058Y-91699062D01*
X198144364Y-91644259D01*
X198263436Y-91564698D01*
X198364698Y-91463436D01*
X198444259Y-91344364D01*
X198499062Y-91212058D01*
X198527000Y-91071603D01*
X198527000Y-90944588D01*
X199601503Y-90944588D01*
X199601503Y-91112418D01*
X199634245Y-91277022D01*
X199698471Y-91432076D01*
X199791712Y-91571621D01*
X199910385Y-91690294D01*
X200049930Y-91783535D01*
X200204984Y-91847761D01*
X200369588Y-91880503D01*
X200537418Y-91880503D01*
X200702022Y-91847761D01*
X200857076Y-91783535D01*
X200996621Y-91690294D01*
X201115294Y-91571621D01*
X201208535Y-91432076D01*
X201272761Y-91277022D01*
X201305503Y-91112418D01*
X201305503Y-90944588D01*
X201272761Y-90779984D01*
X201208535Y-90624930D01*
X201115294Y-90485385D01*
X200996621Y-90366712D01*
X200857076Y-90273471D01*
X200702022Y-90209245D01*
X200537418Y-90176503D01*
X200369588Y-90176503D01*
X200204984Y-90209245D01*
X200049930Y-90273471D01*
X199910385Y-90366712D01*
X199791712Y-90485385D01*
X199698471Y-90624930D01*
X199634245Y-90779984D01*
X199601503Y-90944588D01*
X198527000Y-90944588D01*
X198527000Y-90928397D01*
X198499062Y-90787942D01*
X198444259Y-90655636D01*
X198364698Y-90536564D01*
X198263436Y-90435302D01*
X198144364Y-90355741D01*
X198012058Y-90300938D01*
X197871603Y-90273000D01*
X197728397Y-90273000D01*
X197587942Y-90300938D01*
X197455636Y-90355741D01*
X197336564Y-90435302D01*
X197235302Y-90536564D01*
X197155741Y-90655636D01*
X197100938Y-90787942D01*
X197073000Y-90928397D01*
X163822719Y-90928397D01*
X163837000Y-90856603D01*
X163837000Y-90713397D01*
X163809062Y-90572942D01*
X163754259Y-90440636D01*
X163674698Y-90321564D01*
X163573436Y-90220302D01*
X163454364Y-90140741D01*
X163322058Y-90085938D01*
X163181603Y-90058000D01*
X163038397Y-90058000D01*
X162897942Y-90085938D01*
X162765636Y-90140741D01*
X162646564Y-90220302D01*
X162545302Y-90321564D01*
X162510000Y-90374397D01*
X162474698Y-90321564D01*
X162373436Y-90220302D01*
X162254364Y-90140741D01*
X162122058Y-90085938D01*
X161981603Y-90058000D01*
X161838397Y-90058000D01*
X161697942Y-90085938D01*
X161565636Y-90140741D01*
X161446564Y-90220302D01*
X161345302Y-90321564D01*
X161265741Y-90440636D01*
X161210938Y-90572942D01*
X161183000Y-90713397D01*
X159404126Y-90713397D01*
X159399062Y-90687942D01*
X159344259Y-90555636D01*
X159264698Y-90436564D01*
X159163436Y-90335302D01*
X159044364Y-90255741D01*
X158912058Y-90200938D01*
X158771603Y-90173000D01*
X158628397Y-90173000D01*
X158487942Y-90200938D01*
X158355636Y-90255741D01*
X158236564Y-90335302D01*
X158135302Y-90436564D01*
X158055741Y-90555636D01*
X158000938Y-90687942D01*
X157973000Y-90828397D01*
X151627000Y-90828397D01*
X151599062Y-90687942D01*
X151544259Y-90555636D01*
X151464698Y-90436564D01*
X151363436Y-90335302D01*
X151244364Y-90255741D01*
X151112058Y-90200938D01*
X150971603Y-90173000D01*
X150828397Y-90173000D01*
X150687942Y-90200938D01*
X150555636Y-90255741D01*
X150436564Y-90335302D01*
X150335302Y-90436564D01*
X150300000Y-90489397D01*
X150264698Y-90436564D01*
X150163436Y-90335302D01*
X150044364Y-90255741D01*
X149912058Y-90200938D01*
X149771603Y-90173000D01*
X149628397Y-90173000D01*
X149487942Y-90200938D01*
X149355636Y-90255741D01*
X149236564Y-90335302D01*
X149135302Y-90436564D01*
X149055741Y-90555636D01*
X149000938Y-90687942D01*
X148973000Y-90828397D01*
X146154659Y-90828397D01*
X146209062Y-90697058D01*
X146237000Y-90556603D01*
X146237000Y-90413397D01*
X146209062Y-90272942D01*
X146154259Y-90140636D01*
X146074698Y-90021564D01*
X145973436Y-89920302D01*
X145854364Y-89840741D01*
X145722058Y-89785938D01*
X145581603Y-89758000D01*
X145438397Y-89758000D01*
X145297942Y-89785938D01*
X145165636Y-89840741D01*
X145046564Y-89920302D01*
X144945302Y-90021564D01*
X144910000Y-90074397D01*
X144874698Y-90021564D01*
X144773436Y-89920302D01*
X144654364Y-89840741D01*
X144522058Y-89785938D01*
X144381603Y-89758000D01*
X144238397Y-89758000D01*
X144097942Y-89785938D01*
X143965636Y-89840741D01*
X143846564Y-89920302D01*
X143745302Y-90021564D01*
X143710000Y-90074397D01*
X143674698Y-90021564D01*
X143573436Y-89920302D01*
X143454364Y-89840741D01*
X143322058Y-89785938D01*
X143181603Y-89758000D01*
X143038397Y-89758000D01*
X142897942Y-89785938D01*
X142765636Y-89840741D01*
X142646564Y-89920302D01*
X142545302Y-90021564D01*
X142465741Y-90140636D01*
X142410938Y-90272942D01*
X142383000Y-90413397D01*
X125378103Y-90413397D01*
X125473436Y-90349698D01*
X125574698Y-90248436D01*
X125654259Y-90129364D01*
X125709062Y-89997058D01*
X125737000Y-89856603D01*
X125737000Y-89713397D01*
X125709062Y-89572942D01*
X125654259Y-89440636D01*
X125574698Y-89321564D01*
X125481531Y-89228397D01*
X180173000Y-89228397D01*
X180173000Y-89371603D01*
X180200938Y-89512058D01*
X180255741Y-89644364D01*
X180335302Y-89763436D01*
X180436564Y-89864698D01*
X180555636Y-89944259D01*
X180687942Y-89999062D01*
X180828397Y-90027000D01*
X180971603Y-90027000D01*
X181112058Y-89999062D01*
X181244364Y-89944259D01*
X181363436Y-89864698D01*
X181464698Y-89763436D01*
X181544259Y-89644364D01*
X181599062Y-89512058D01*
X181615703Y-89428397D01*
X183073000Y-89428397D01*
X183073000Y-89571603D01*
X183100938Y-89712058D01*
X183155741Y-89844364D01*
X183235302Y-89963436D01*
X183336564Y-90064698D01*
X183455636Y-90144259D01*
X183587942Y-90199062D01*
X183728397Y-90227000D01*
X183871603Y-90227000D01*
X184012058Y-90199062D01*
X184144364Y-90144259D01*
X184263436Y-90064698D01*
X184364698Y-89963436D01*
X184400000Y-89910603D01*
X184435302Y-89963436D01*
X184536564Y-90064698D01*
X184655636Y-90144259D01*
X184787942Y-90199062D01*
X184928397Y-90227000D01*
X185071603Y-90227000D01*
X185212058Y-90199062D01*
X185344364Y-90144259D01*
X185463436Y-90064698D01*
X185564698Y-89963436D01*
X185600000Y-89910603D01*
X185635302Y-89963436D01*
X185736564Y-90064698D01*
X185855636Y-90144259D01*
X185987942Y-90199062D01*
X186128397Y-90227000D01*
X186271603Y-90227000D01*
X186412058Y-90199062D01*
X186544364Y-90144259D01*
X186663436Y-90064698D01*
X186764698Y-89963436D01*
X186844259Y-89844364D01*
X186899062Y-89712058D01*
X186927000Y-89571603D01*
X186927000Y-89428397D01*
X186899062Y-89287942D01*
X186844259Y-89155636D01*
X186764698Y-89036564D01*
X186663436Y-88935302D01*
X186544364Y-88855741D01*
X186412058Y-88800938D01*
X186271603Y-88773000D01*
X186128397Y-88773000D01*
X185987942Y-88800938D01*
X185855636Y-88855741D01*
X185736564Y-88935302D01*
X185635302Y-89036564D01*
X185600000Y-89089397D01*
X185564698Y-89036564D01*
X185463436Y-88935302D01*
X185344364Y-88855741D01*
X185212058Y-88800938D01*
X185071603Y-88773000D01*
X184928397Y-88773000D01*
X184787942Y-88800938D01*
X184655636Y-88855741D01*
X184536564Y-88935302D01*
X184435302Y-89036564D01*
X184400000Y-89089397D01*
X184364698Y-89036564D01*
X184263436Y-88935302D01*
X184144364Y-88855741D01*
X184012058Y-88800938D01*
X183871603Y-88773000D01*
X183728397Y-88773000D01*
X183587942Y-88800938D01*
X183455636Y-88855741D01*
X183336564Y-88935302D01*
X183235302Y-89036564D01*
X183155741Y-89155636D01*
X183100938Y-89287942D01*
X183073000Y-89428397D01*
X181615703Y-89428397D01*
X181627000Y-89371603D01*
X181627000Y-89228397D01*
X181599062Y-89087942D01*
X181544259Y-88955636D01*
X181464698Y-88836564D01*
X181363436Y-88735302D01*
X181244364Y-88655741D01*
X181112058Y-88600938D01*
X180971603Y-88573000D01*
X180828397Y-88573000D01*
X180687942Y-88600938D01*
X180555636Y-88655741D01*
X180436564Y-88735302D01*
X180335302Y-88836564D01*
X180255741Y-88955636D01*
X180200938Y-89087942D01*
X180173000Y-89228397D01*
X125481531Y-89228397D01*
X125473436Y-89220302D01*
X125354364Y-89140741D01*
X125222058Y-89085938D01*
X125081603Y-89058000D01*
X124938397Y-89058000D01*
X124797942Y-89085938D01*
X124665636Y-89140741D01*
X124546564Y-89220302D01*
X124445302Y-89321564D01*
X124410000Y-89374397D01*
X124374698Y-89321564D01*
X124273436Y-89220302D01*
X124154364Y-89140741D01*
X124022058Y-89085938D01*
X123881603Y-89058000D01*
X123738397Y-89058000D01*
X123597942Y-89085938D01*
X123465636Y-89140741D01*
X123346564Y-89220302D01*
X123245302Y-89321564D01*
X123210000Y-89374397D01*
X123174698Y-89321564D01*
X123073436Y-89220302D01*
X122954364Y-89140741D01*
X122822058Y-89085938D01*
X122681603Y-89058000D01*
X122538397Y-89058000D01*
X122397942Y-89085938D01*
X122265636Y-89140741D01*
X122146564Y-89220302D01*
X122045302Y-89321564D01*
X121965741Y-89440636D01*
X121910938Y-89572942D01*
X121883000Y-89713397D01*
X120962000Y-89713397D01*
X120962000Y-87628397D01*
X156073000Y-87628397D01*
X156073000Y-87771603D01*
X156100938Y-87912058D01*
X156155741Y-88044364D01*
X156235302Y-88163436D01*
X156336564Y-88264698D01*
X156455636Y-88344259D01*
X156587942Y-88399062D01*
X156728397Y-88427000D01*
X156871603Y-88427000D01*
X157012058Y-88399062D01*
X157144364Y-88344259D01*
X157251974Y-88272356D01*
X197064497Y-88272356D01*
X197064497Y-88410638D01*
X197091474Y-88546263D01*
X197144392Y-88674019D01*
X197221218Y-88788996D01*
X197318998Y-88886776D01*
X197433975Y-88963602D01*
X197561731Y-89016520D01*
X197697356Y-89043497D01*
X197835638Y-89043497D01*
X197971263Y-89016520D01*
X198099019Y-88963602D01*
X198213996Y-88886776D01*
X198311776Y-88788996D01*
X198388602Y-88674019D01*
X198441520Y-88546263D01*
X198468497Y-88410638D01*
X198468497Y-88272356D01*
X198441520Y-88136731D01*
X198388602Y-88008975D01*
X198311776Y-87893998D01*
X198213996Y-87796218D01*
X198099019Y-87719392D01*
X197971263Y-87666474D01*
X197835638Y-87639497D01*
X197697356Y-87639497D01*
X197561731Y-87666474D01*
X197433975Y-87719392D01*
X197318998Y-87796218D01*
X197221218Y-87893998D01*
X197144392Y-88008975D01*
X197091474Y-88136731D01*
X197064497Y-88272356D01*
X157251974Y-88272356D01*
X157263436Y-88264698D01*
X157364698Y-88163436D01*
X157444259Y-88044364D01*
X157499062Y-87912058D01*
X157527000Y-87771603D01*
X157527000Y-87628397D01*
X157499062Y-87487942D01*
X157444259Y-87355636D01*
X157364698Y-87236564D01*
X157263436Y-87135302D01*
X157144364Y-87055741D01*
X157012058Y-87000938D01*
X156871603Y-86973000D01*
X156728397Y-86973000D01*
X156587942Y-87000938D01*
X156455636Y-87055741D01*
X156336564Y-87135302D01*
X156235302Y-87236564D01*
X156155741Y-87355636D01*
X156100938Y-87487942D01*
X156073000Y-87628397D01*
X120962000Y-87628397D01*
X120962000Y-85113397D01*
X133983000Y-85113397D01*
X133983000Y-85256603D01*
X134010938Y-85397058D01*
X134065741Y-85529364D01*
X134145302Y-85648436D01*
X134246564Y-85749698D01*
X134365636Y-85829259D01*
X134497942Y-85884062D01*
X134638397Y-85912000D01*
X134781603Y-85912000D01*
X134922058Y-85884062D01*
X135054364Y-85829259D01*
X135173436Y-85749698D01*
X135274698Y-85648436D01*
X135310000Y-85595603D01*
X135345302Y-85648436D01*
X135446564Y-85749698D01*
X135565636Y-85829259D01*
X135697942Y-85884062D01*
X135838397Y-85912000D01*
X135981603Y-85912000D01*
X136122058Y-85884062D01*
X136254364Y-85829259D01*
X136373436Y-85749698D01*
X136474698Y-85648436D01*
X136510000Y-85595603D01*
X136545302Y-85648436D01*
X136646564Y-85749698D01*
X136765636Y-85829259D01*
X136897942Y-85884062D01*
X137038397Y-85912000D01*
X137181603Y-85912000D01*
X137322058Y-85884062D01*
X137454364Y-85829259D01*
X137573436Y-85749698D01*
X137649134Y-85674000D01*
X138133000Y-85674000D01*
X138133000Y-85896000D01*
X138176310Y-86113734D01*
X138261266Y-86318835D01*
X138384602Y-86503421D01*
X138541579Y-86660398D01*
X138726165Y-86783734D01*
X138931266Y-86868690D01*
X139149000Y-86912000D01*
X139371000Y-86912000D01*
X139588734Y-86868690D01*
X139686009Y-86828397D01*
X183173000Y-86828397D01*
X183173000Y-86971603D01*
X183200938Y-87112058D01*
X183255741Y-87244364D01*
X183335302Y-87363436D01*
X183436564Y-87464698D01*
X183555636Y-87544259D01*
X183687942Y-87599062D01*
X183828397Y-87627000D01*
X183971603Y-87627000D01*
X184112058Y-87599062D01*
X184244364Y-87544259D01*
X184363436Y-87464698D01*
X184399737Y-87428397D01*
X188973000Y-87428397D01*
X188973000Y-87571603D01*
X189000938Y-87712058D01*
X189055741Y-87844364D01*
X189135302Y-87963436D01*
X189236564Y-88064698D01*
X189355636Y-88144259D01*
X189487942Y-88199062D01*
X189628397Y-88227000D01*
X189771603Y-88227000D01*
X189912058Y-88199062D01*
X190044364Y-88144259D01*
X190163436Y-88064698D01*
X190264698Y-87963436D01*
X190344259Y-87844364D01*
X190399062Y-87712058D01*
X190427000Y-87571603D01*
X190427000Y-87428397D01*
X190399062Y-87287942D01*
X190344259Y-87155636D01*
X190264698Y-87036564D01*
X190163436Y-86935302D01*
X190044364Y-86855741D01*
X189912058Y-86800938D01*
X189771603Y-86773000D01*
X189628397Y-86773000D01*
X189487942Y-86800938D01*
X189355636Y-86855741D01*
X189236564Y-86935302D01*
X189135302Y-87036564D01*
X189055741Y-87155636D01*
X189000938Y-87287942D01*
X188973000Y-87428397D01*
X184399737Y-87428397D01*
X184464698Y-87363436D01*
X184544259Y-87244364D01*
X184599062Y-87112058D01*
X184627000Y-86971603D01*
X184627000Y-86828397D01*
X184599062Y-86687942D01*
X184544259Y-86555636D01*
X184464698Y-86436564D01*
X184363436Y-86335302D01*
X184244364Y-86255741D01*
X184112058Y-86200938D01*
X183971603Y-86173000D01*
X183828397Y-86173000D01*
X183687942Y-86200938D01*
X183555636Y-86255741D01*
X183436564Y-86335302D01*
X183335302Y-86436564D01*
X183255741Y-86555636D01*
X183200938Y-86687942D01*
X183173000Y-86828397D01*
X139686009Y-86828397D01*
X139793835Y-86783734D01*
X139978421Y-86660398D01*
X140135398Y-86503421D01*
X140258734Y-86318835D01*
X140343690Y-86113734D01*
X140387000Y-85896000D01*
X140387000Y-85674000D01*
X140358038Y-85528397D01*
X176773000Y-85528397D01*
X176773000Y-85671603D01*
X176800938Y-85812058D01*
X176855741Y-85944364D01*
X176935302Y-86063436D01*
X177036564Y-86164698D01*
X177155636Y-86244259D01*
X177287942Y-86299062D01*
X177428397Y-86327000D01*
X177571603Y-86327000D01*
X177712058Y-86299062D01*
X177844364Y-86244259D01*
X177963436Y-86164698D01*
X178064698Y-86063436D01*
X178144259Y-85944364D01*
X178199062Y-85812058D01*
X178227000Y-85671603D01*
X178227000Y-85528397D01*
X180173000Y-85528397D01*
X180173000Y-85671603D01*
X180200938Y-85812058D01*
X180255741Y-85944364D01*
X180335302Y-86063436D01*
X180436564Y-86164698D01*
X180555636Y-86244259D01*
X180687942Y-86299062D01*
X180828397Y-86327000D01*
X180971603Y-86327000D01*
X181112058Y-86299062D01*
X181244364Y-86244259D01*
X181363436Y-86164698D01*
X181464698Y-86063436D01*
X181544259Y-85944364D01*
X181599062Y-85812058D01*
X181627000Y-85671603D01*
X181627000Y-85528397D01*
X181599062Y-85387942D01*
X181544259Y-85255636D01*
X181464698Y-85136564D01*
X181363436Y-85035302D01*
X181244364Y-84955741D01*
X181112058Y-84900938D01*
X180971603Y-84873000D01*
X180828397Y-84873000D01*
X180687942Y-84900938D01*
X180555636Y-84955741D01*
X180436564Y-85035302D01*
X180335302Y-85136564D01*
X180255741Y-85255636D01*
X180200938Y-85387942D01*
X180173000Y-85528397D01*
X178227000Y-85528397D01*
X178199062Y-85387942D01*
X178144259Y-85255636D01*
X178064698Y-85136564D01*
X177963436Y-85035302D01*
X177844364Y-84955741D01*
X177712058Y-84900938D01*
X177571603Y-84873000D01*
X177428397Y-84873000D01*
X177287942Y-84900938D01*
X177155636Y-84955741D01*
X177036564Y-85035302D01*
X176935302Y-85136564D01*
X176855741Y-85255636D01*
X176800938Y-85387942D01*
X176773000Y-85528397D01*
X140358038Y-85528397D01*
X140343690Y-85456266D01*
X140258734Y-85251165D01*
X140135398Y-85066579D01*
X139978421Y-84909602D01*
X139793835Y-84786266D01*
X139588734Y-84701310D01*
X139371000Y-84658000D01*
X139149000Y-84658000D01*
X138931266Y-84701310D01*
X138726165Y-84786266D01*
X138541579Y-84909602D01*
X138384602Y-85066579D01*
X138261266Y-85251165D01*
X138176310Y-85456266D01*
X138133000Y-85674000D01*
X137649134Y-85674000D01*
X137674698Y-85648436D01*
X137754259Y-85529364D01*
X137809062Y-85397058D01*
X137837000Y-85256603D01*
X137837000Y-85113397D01*
X137809062Y-84972942D01*
X137754259Y-84840636D01*
X137674698Y-84721564D01*
X137573436Y-84620302D01*
X137454364Y-84540741D01*
X137322058Y-84485938D01*
X137181603Y-84458000D01*
X137038397Y-84458000D01*
X136897942Y-84485938D01*
X136765636Y-84540741D01*
X136646564Y-84620302D01*
X136545302Y-84721564D01*
X136510000Y-84774397D01*
X136474698Y-84721564D01*
X136373436Y-84620302D01*
X136254364Y-84540741D01*
X136122058Y-84485938D01*
X135981603Y-84458000D01*
X135838397Y-84458000D01*
X135697942Y-84485938D01*
X135565636Y-84540741D01*
X135446564Y-84620302D01*
X135345302Y-84721564D01*
X135310000Y-84774397D01*
X135274698Y-84721564D01*
X135173436Y-84620302D01*
X135054364Y-84540741D01*
X134922058Y-84485938D01*
X134781603Y-84458000D01*
X134638397Y-84458000D01*
X134497942Y-84485938D01*
X134365636Y-84540741D01*
X134246564Y-84620302D01*
X134145302Y-84721564D01*
X134065741Y-84840636D01*
X134010938Y-84972942D01*
X133983000Y-85113397D01*
X120962000Y-85113397D01*
X120962000Y-81922275D01*
X140733000Y-81922275D01*
X140733000Y-83647726D01*
X140751478Y-83835336D01*
X140824499Y-84076051D01*
X140943077Y-84297896D01*
X141102657Y-84492344D01*
X141297105Y-84651924D01*
X141518950Y-84770502D01*
X141759665Y-84843522D01*
X142010000Y-84868178D01*
X142260336Y-84843522D01*
X142501051Y-84770502D01*
X142722896Y-84651924D01*
X142917344Y-84492344D01*
X143076924Y-84297896D01*
X143195502Y-84076051D01*
X143268522Y-83835336D01*
X143287000Y-83647726D01*
X143287000Y-82698623D01*
X144533000Y-82698623D01*
X144533000Y-82871377D01*
X144566703Y-83040811D01*
X144632813Y-83200415D01*
X144728790Y-83344055D01*
X144850945Y-83466210D01*
X144994585Y-83562187D01*
X145154189Y-83628297D01*
X145323623Y-83662000D01*
X145496377Y-83662000D01*
X145665811Y-83628297D01*
X145825415Y-83562187D01*
X145969055Y-83466210D01*
X146091210Y-83344055D01*
X146187187Y-83200415D01*
X146253297Y-83040811D01*
X146287000Y-82871377D01*
X146287000Y-82698623D01*
X149133000Y-82698623D01*
X149133000Y-82871377D01*
X149166703Y-83040811D01*
X149232813Y-83200415D01*
X149328790Y-83344055D01*
X149450945Y-83466210D01*
X149594585Y-83562187D01*
X149754189Y-83628297D01*
X149923623Y-83662000D01*
X150096377Y-83662000D01*
X150265811Y-83628297D01*
X150425415Y-83562187D01*
X150569055Y-83466210D01*
X150691210Y-83344055D01*
X150787187Y-83200415D01*
X150853297Y-83040811D01*
X150887000Y-82871377D01*
X150887000Y-82698623D01*
X150853297Y-82529189D01*
X150787187Y-82369585D01*
X150691210Y-82225945D01*
X150569055Y-82103790D01*
X150425415Y-82007813D01*
X150265811Y-81941703D01*
X150168142Y-81922275D01*
X152133000Y-81922275D01*
X152133000Y-83647726D01*
X152151478Y-83835336D01*
X152224499Y-84076051D01*
X152343077Y-84297896D01*
X152502657Y-84492344D01*
X152697105Y-84651924D01*
X152918950Y-84770502D01*
X153159665Y-84843522D01*
X153410000Y-84868178D01*
X153660336Y-84843522D01*
X153901051Y-84770502D01*
X154122896Y-84651924D01*
X154273413Y-84528397D01*
X158173000Y-84528397D01*
X158173000Y-84671603D01*
X158200938Y-84812058D01*
X158255741Y-84944364D01*
X158335302Y-85063436D01*
X158436564Y-85164698D01*
X158555636Y-85244259D01*
X158687942Y-85299062D01*
X158828397Y-85327000D01*
X158971603Y-85327000D01*
X159112058Y-85299062D01*
X159244364Y-85244259D01*
X159363436Y-85164698D01*
X159464698Y-85063436D01*
X159544259Y-84944364D01*
X159592294Y-84828397D01*
X184073000Y-84828397D01*
X184073000Y-84971603D01*
X184100938Y-85112058D01*
X184155741Y-85244364D01*
X184235302Y-85363436D01*
X184336564Y-85464698D01*
X184455636Y-85544259D01*
X184587942Y-85599062D01*
X184728397Y-85627000D01*
X184871603Y-85627000D01*
X185012058Y-85599062D01*
X185144364Y-85544259D01*
X185263436Y-85464698D01*
X185364698Y-85363436D01*
X185444259Y-85244364D01*
X185499062Y-85112058D01*
X185527000Y-84971603D01*
X185527000Y-84926722D01*
X185528397Y-84927000D01*
X185671603Y-84927000D01*
X185812058Y-84899062D01*
X185944364Y-84844259D01*
X186063436Y-84764698D01*
X186164698Y-84663436D01*
X186244259Y-84544364D01*
X186299062Y-84412058D01*
X186327000Y-84271603D01*
X186327000Y-84128397D01*
X186299062Y-83987942D01*
X186244259Y-83855636D01*
X186164698Y-83736564D01*
X186063436Y-83635302D01*
X185944364Y-83555741D01*
X185812058Y-83500938D01*
X185671603Y-83473000D01*
X185528397Y-83473000D01*
X185387942Y-83500938D01*
X185255636Y-83555741D01*
X185136564Y-83635302D01*
X185035302Y-83736564D01*
X184955741Y-83855636D01*
X184900938Y-83987942D01*
X184873000Y-84128397D01*
X184873000Y-84173278D01*
X184871603Y-84173000D01*
X184728397Y-84173000D01*
X184587942Y-84200938D01*
X184455636Y-84255741D01*
X184336564Y-84335302D01*
X184235302Y-84436564D01*
X184155741Y-84555636D01*
X184100938Y-84687942D01*
X184073000Y-84828397D01*
X159592294Y-84828397D01*
X159599062Y-84812058D01*
X159627000Y-84671603D01*
X159627000Y-84528397D01*
X159599062Y-84387942D01*
X159544259Y-84255636D01*
X159464698Y-84136564D01*
X159363436Y-84035302D01*
X159244364Y-83955741D01*
X159112058Y-83900938D01*
X158971603Y-83873000D01*
X158828397Y-83873000D01*
X158687942Y-83900938D01*
X158555636Y-83955741D01*
X158436564Y-84035302D01*
X158335302Y-84136564D01*
X158255741Y-84255636D01*
X158200938Y-84387942D01*
X158173000Y-84528397D01*
X154273413Y-84528397D01*
X154317344Y-84492344D01*
X154476924Y-84297896D01*
X154595502Y-84076051D01*
X154668522Y-83835336D01*
X154687000Y-83647726D01*
X154687000Y-83628397D01*
X178473000Y-83628397D01*
X178473000Y-83771603D01*
X178500938Y-83912058D01*
X178555741Y-84044364D01*
X178635302Y-84163436D01*
X178736564Y-84264698D01*
X178855636Y-84344259D01*
X178987942Y-84399062D01*
X179128397Y-84427000D01*
X179271603Y-84427000D01*
X179412058Y-84399062D01*
X179544364Y-84344259D01*
X179663436Y-84264698D01*
X179764698Y-84163436D01*
X179844259Y-84044364D01*
X179899062Y-83912058D01*
X179927000Y-83771603D01*
X179927000Y-83628397D01*
X179899062Y-83487942D01*
X179874398Y-83428397D01*
X199873000Y-83428397D01*
X199873000Y-83571603D01*
X199900938Y-83712058D01*
X199955741Y-83844364D01*
X200035302Y-83963436D01*
X200136564Y-84064698D01*
X200255636Y-84144259D01*
X200387942Y-84199062D01*
X200528397Y-84227000D01*
X200671603Y-84227000D01*
X200812058Y-84199062D01*
X200944364Y-84144259D01*
X201063436Y-84064698D01*
X201164698Y-83963436D01*
X201244259Y-83844364D01*
X201299062Y-83712058D01*
X201327000Y-83571603D01*
X201327000Y-83428397D01*
X201299062Y-83287942D01*
X201244259Y-83155636D01*
X201164698Y-83036564D01*
X201063436Y-82935302D01*
X200944364Y-82855741D01*
X200812058Y-82800938D01*
X200671603Y-82773000D01*
X200528397Y-82773000D01*
X200387942Y-82800938D01*
X200255636Y-82855741D01*
X200136564Y-82935302D01*
X200035302Y-83036564D01*
X199955741Y-83155636D01*
X199900938Y-83287942D01*
X199873000Y-83428397D01*
X179874398Y-83428397D01*
X179844259Y-83355636D01*
X179764698Y-83236564D01*
X179663436Y-83135302D01*
X179544364Y-83055741D01*
X179412058Y-83000938D01*
X179271603Y-82973000D01*
X179128397Y-82973000D01*
X178987942Y-83000938D01*
X178855636Y-83055741D01*
X178736564Y-83135302D01*
X178635302Y-83236564D01*
X178555741Y-83355636D01*
X178500938Y-83487942D01*
X178473000Y-83628397D01*
X154687000Y-83628397D01*
X154687000Y-81922274D01*
X154668522Y-81734664D01*
X154595502Y-81493949D01*
X154476924Y-81272104D01*
X154317344Y-81077656D01*
X154122895Y-80918076D01*
X153901050Y-80799498D01*
X153660335Y-80726478D01*
X153410000Y-80701822D01*
X153159664Y-80726478D01*
X152918949Y-80799498D01*
X152697104Y-80918076D01*
X152502656Y-81077656D01*
X152343076Y-81272105D01*
X152224498Y-81493950D01*
X152151478Y-81734665D01*
X152133000Y-81922275D01*
X150168142Y-81922275D01*
X150096377Y-81908000D01*
X149923623Y-81908000D01*
X149754189Y-81941703D01*
X149594585Y-82007813D01*
X149450945Y-82103790D01*
X149328790Y-82225945D01*
X149232813Y-82369585D01*
X149166703Y-82529189D01*
X149133000Y-82698623D01*
X146287000Y-82698623D01*
X146253297Y-82529189D01*
X146187187Y-82369585D01*
X146091210Y-82225945D01*
X145969055Y-82103790D01*
X145825415Y-82007813D01*
X145665811Y-81941703D01*
X145496377Y-81908000D01*
X145323623Y-81908000D01*
X145154189Y-81941703D01*
X144994585Y-82007813D01*
X144850945Y-82103790D01*
X144728790Y-82225945D01*
X144632813Y-82369585D01*
X144566703Y-82529189D01*
X144533000Y-82698623D01*
X143287000Y-82698623D01*
X143287000Y-81922274D01*
X143268522Y-81734664D01*
X143195502Y-81493949D01*
X143076924Y-81272104D01*
X142917344Y-81077656D01*
X142722895Y-80918076D01*
X142501050Y-80799498D01*
X142260335Y-80726478D01*
X142010000Y-80701822D01*
X141759664Y-80726478D01*
X141518949Y-80799498D01*
X141297104Y-80918076D01*
X141102656Y-81077656D01*
X140943076Y-81272105D01*
X140824498Y-81493950D01*
X140751478Y-81734665D01*
X140733000Y-81922275D01*
X120962000Y-81922275D01*
X120962000Y-80213397D01*
X148183000Y-80213397D01*
X148183000Y-80356603D01*
X148210938Y-80497058D01*
X148265741Y-80629364D01*
X148345302Y-80748436D01*
X148446564Y-80849698D01*
X148565636Y-80929259D01*
X148697942Y-80984062D01*
X148838397Y-81012000D01*
X148981603Y-81012000D01*
X149122058Y-80984062D01*
X149254364Y-80929259D01*
X149373436Y-80849698D01*
X149474698Y-80748436D01*
X149510000Y-80695603D01*
X149545302Y-80748436D01*
X149646564Y-80849698D01*
X149765636Y-80929259D01*
X149897942Y-80984062D01*
X150038397Y-81012000D01*
X150181603Y-81012000D01*
X150322058Y-80984062D01*
X150454364Y-80929259D01*
X150573436Y-80849698D01*
X150674698Y-80748436D01*
X150754259Y-80629364D01*
X150809062Y-80497058D01*
X150837000Y-80356603D01*
X150837000Y-80213397D01*
X158283000Y-80213397D01*
X158283000Y-80356603D01*
X158310938Y-80497058D01*
X158365741Y-80629364D01*
X158445302Y-80748436D01*
X158531866Y-80835000D01*
X158445302Y-80921564D01*
X158365741Y-81040636D01*
X158310938Y-81172942D01*
X158283000Y-81313397D01*
X158283000Y-81456603D01*
X158310938Y-81597058D01*
X158365741Y-81729364D01*
X158445302Y-81848436D01*
X158546564Y-81949698D01*
X158665636Y-82029259D01*
X158797942Y-82084062D01*
X158938397Y-82112000D01*
X159081603Y-82112000D01*
X159222058Y-82084062D01*
X159354364Y-82029259D01*
X159473436Y-81949698D01*
X159574698Y-81848436D01*
X159654259Y-81729364D01*
X159709062Y-81597058D01*
X159737000Y-81456603D01*
X159737000Y-81313397D01*
X159709062Y-81172942D01*
X159654259Y-81040636D01*
X159574698Y-80921564D01*
X159488134Y-80835000D01*
X159574698Y-80748436D01*
X159654259Y-80629364D01*
X159709062Y-80497058D01*
X159737000Y-80356603D01*
X159737000Y-80213397D01*
X184383000Y-80213397D01*
X184383000Y-80356603D01*
X184410938Y-80497058D01*
X184465741Y-80629364D01*
X184545302Y-80748436D01*
X184646564Y-80849698D01*
X184765636Y-80929259D01*
X184897942Y-80984062D01*
X185038397Y-81012000D01*
X185181603Y-81012000D01*
X185322058Y-80984062D01*
X185454364Y-80929259D01*
X185573436Y-80849698D01*
X185674698Y-80748436D01*
X185710000Y-80695603D01*
X185745302Y-80748436D01*
X185846564Y-80849698D01*
X185965636Y-80929259D01*
X186097942Y-80984062D01*
X186238397Y-81012000D01*
X186381603Y-81012000D01*
X186522058Y-80984062D01*
X186654364Y-80929259D01*
X186655654Y-80928397D01*
X192373000Y-80928397D01*
X192373000Y-81071603D01*
X192400938Y-81212058D01*
X192455741Y-81344364D01*
X192535302Y-81463436D01*
X192636564Y-81564698D01*
X192755636Y-81644259D01*
X192887942Y-81699062D01*
X193028397Y-81727000D01*
X193171603Y-81727000D01*
X193312058Y-81699062D01*
X193444364Y-81644259D01*
X193563436Y-81564698D01*
X193664698Y-81463436D01*
X193744259Y-81344364D01*
X193799062Y-81212058D01*
X193827000Y-81071603D01*
X193827000Y-80928397D01*
X193799062Y-80787942D01*
X193744259Y-80655636D01*
X193664698Y-80536564D01*
X193563436Y-80435302D01*
X193444364Y-80355741D01*
X193312058Y-80300938D01*
X193171603Y-80273000D01*
X193028397Y-80273000D01*
X192887942Y-80300938D01*
X192755636Y-80355741D01*
X192636564Y-80435302D01*
X192535302Y-80536564D01*
X192455741Y-80655636D01*
X192400938Y-80787942D01*
X192373000Y-80928397D01*
X186655654Y-80928397D01*
X186773436Y-80849698D01*
X186874698Y-80748436D01*
X186954259Y-80629364D01*
X187009062Y-80497058D01*
X187037000Y-80356603D01*
X187037000Y-80213397D01*
X187009062Y-80072942D01*
X186954259Y-79940636D01*
X186874698Y-79821564D01*
X186773436Y-79720302D01*
X186654364Y-79640741D01*
X186522058Y-79585938D01*
X186381603Y-79558000D01*
X186238397Y-79558000D01*
X186097942Y-79585938D01*
X185965636Y-79640741D01*
X185846564Y-79720302D01*
X185745302Y-79821564D01*
X185710000Y-79874397D01*
X185674698Y-79821564D01*
X185573436Y-79720302D01*
X185454364Y-79640741D01*
X185322058Y-79585938D01*
X185181603Y-79558000D01*
X185038397Y-79558000D01*
X184897942Y-79585938D01*
X184765636Y-79640741D01*
X184646564Y-79720302D01*
X184545302Y-79821564D01*
X184465741Y-79940636D01*
X184410938Y-80072942D01*
X184383000Y-80213397D01*
X159737000Y-80213397D01*
X159709062Y-80072942D01*
X159654259Y-79940636D01*
X159574698Y-79821564D01*
X159473436Y-79720302D01*
X159354364Y-79640741D01*
X159222058Y-79585938D01*
X159081603Y-79558000D01*
X158938397Y-79558000D01*
X158797942Y-79585938D01*
X158665636Y-79640741D01*
X158546564Y-79720302D01*
X158445302Y-79821564D01*
X158365741Y-79940636D01*
X158310938Y-80072942D01*
X158283000Y-80213397D01*
X150837000Y-80213397D01*
X150809062Y-80072942D01*
X150754259Y-79940636D01*
X150674698Y-79821564D01*
X150573436Y-79720302D01*
X150454364Y-79640741D01*
X150322058Y-79585938D01*
X150181603Y-79558000D01*
X150038397Y-79558000D01*
X149897942Y-79585938D01*
X149765636Y-79640741D01*
X149646564Y-79720302D01*
X149545302Y-79821564D01*
X149510000Y-79874397D01*
X149474698Y-79821564D01*
X149373436Y-79720302D01*
X149254364Y-79640741D01*
X149122058Y-79585938D01*
X148981603Y-79558000D01*
X148838397Y-79558000D01*
X148697942Y-79585938D01*
X148565636Y-79640741D01*
X148446564Y-79720302D01*
X148345302Y-79821564D01*
X148265741Y-79940636D01*
X148210938Y-80072942D01*
X148183000Y-80213397D01*
X120962000Y-80213397D01*
X120962000Y-77692439D01*
X120981338Y-77495207D01*
X122383000Y-77495207D01*
X122383000Y-77874793D01*
X122457053Y-78247085D01*
X122602315Y-78597777D01*
X122813201Y-78913391D01*
X123081609Y-79181799D01*
X123397223Y-79392685D01*
X123747915Y-79537947D01*
X124120207Y-79612000D01*
X124499793Y-79612000D01*
X124872085Y-79537947D01*
X125222777Y-79392685D01*
X125538391Y-79181799D01*
X125806799Y-78913391D01*
X126017685Y-78597777D01*
X126040007Y-78543887D01*
X128058000Y-78543887D01*
X128058000Y-78751113D01*
X128098428Y-78954357D01*
X128177730Y-79145809D01*
X128292858Y-79318111D01*
X128439389Y-79464642D01*
X128611691Y-79579770D01*
X128803143Y-79659072D01*
X129006387Y-79699500D01*
X129213613Y-79699500D01*
X129416857Y-79659072D01*
X129608309Y-79579770D01*
X129780611Y-79464642D01*
X129927142Y-79318111D01*
X130042270Y-79145809D01*
X130121572Y-78954357D01*
X130162000Y-78751113D01*
X130162000Y-78543887D01*
X133058000Y-78543887D01*
X133058000Y-78751113D01*
X133098428Y-78954357D01*
X133177730Y-79145809D01*
X133292858Y-79318111D01*
X133439389Y-79464642D01*
X133611691Y-79579770D01*
X133803143Y-79659072D01*
X134006387Y-79699500D01*
X134213613Y-79699500D01*
X134416857Y-79659072D01*
X134608309Y-79579770D01*
X134780611Y-79464642D01*
X134927142Y-79318111D01*
X135042270Y-79145809D01*
X135121572Y-78954357D01*
X135162000Y-78751113D01*
X135162000Y-78543887D01*
X135121572Y-78340643D01*
X135042270Y-78149191D01*
X134927142Y-77976889D01*
X134780611Y-77830358D01*
X134608309Y-77715230D01*
X134416857Y-77635928D01*
X134213613Y-77595500D01*
X134006387Y-77595500D01*
X133803143Y-77635928D01*
X133611691Y-77715230D01*
X133439389Y-77830358D01*
X133292858Y-77976889D01*
X133177730Y-78149191D01*
X133098428Y-78340643D01*
X133058000Y-78543887D01*
X130162000Y-78543887D01*
X130121572Y-78340643D01*
X130042270Y-78149191D01*
X129927142Y-77976889D01*
X129780611Y-77830358D01*
X129608309Y-77715230D01*
X129416857Y-77635928D01*
X129213613Y-77595500D01*
X129006387Y-77595500D01*
X128803143Y-77635928D01*
X128611691Y-77715230D01*
X128439389Y-77830358D01*
X128292858Y-77976889D01*
X128177730Y-78149191D01*
X128098428Y-78340643D01*
X128058000Y-78543887D01*
X126040007Y-78543887D01*
X126162947Y-78247085D01*
X126237000Y-77874793D01*
X126237000Y-77495207D01*
X126162947Y-77122915D01*
X126017685Y-76772223D01*
X125806799Y-76456609D01*
X125538391Y-76188201D01*
X125222777Y-75977315D01*
X124872085Y-75832053D01*
X124499793Y-75758000D01*
X124120207Y-75758000D01*
X123747915Y-75832053D01*
X123397223Y-75977315D01*
X123081609Y-76188201D01*
X122813201Y-76456609D01*
X122602315Y-76772223D01*
X122457053Y-77122915D01*
X122383000Y-77495207D01*
X120981338Y-77495207D01*
X121026478Y-77034845D01*
X121215293Y-76409457D01*
X121521987Y-75832649D01*
X121750909Y-75551962D01*
X127183000Y-75551962D01*
X127183000Y-76343037D01*
X127196413Y-76479223D01*
X127249420Y-76653963D01*
X127335499Y-76815004D01*
X127451341Y-76956159D01*
X127592495Y-77072001D01*
X127753536Y-77158080D01*
X127928276Y-77211087D01*
X128110000Y-77228985D01*
X128291723Y-77211087D01*
X128466463Y-77158080D01*
X128627504Y-77072001D01*
X128768659Y-76956159D01*
X128884501Y-76815005D01*
X128970580Y-76653964D01*
X129023587Y-76479224D01*
X129037000Y-76343038D01*
X129037000Y-75551963D01*
X134183000Y-75551963D01*
X134183000Y-76343038D01*
X134196413Y-76479224D01*
X134249421Y-76653964D01*
X134335500Y-76815005D01*
X134451342Y-76956159D01*
X134592496Y-77072001D01*
X134753537Y-77158080D01*
X134928277Y-77211087D01*
X135110000Y-77228985D01*
X135291724Y-77211087D01*
X135466464Y-77158080D01*
X135627505Y-77072001D01*
X135736079Y-76982896D01*
X136158000Y-76982896D01*
X136158000Y-77387104D01*
X136236857Y-77783546D01*
X136391541Y-78156987D01*
X136616107Y-78493074D01*
X136901926Y-78778893D01*
X137238013Y-79003459D01*
X137611454Y-79158143D01*
X138007896Y-79237000D01*
X138412104Y-79237000D01*
X138808546Y-79158143D01*
X139181987Y-79003459D01*
X139466435Y-78813397D01*
X154583000Y-78813397D01*
X154583000Y-78956603D01*
X154610938Y-79097058D01*
X154665741Y-79229364D01*
X154745302Y-79348436D01*
X154846564Y-79449698D01*
X154965636Y-79529259D01*
X155097942Y-79584062D01*
X155238397Y-79612000D01*
X155381603Y-79612000D01*
X155522058Y-79584062D01*
X155654364Y-79529259D01*
X155773436Y-79449698D01*
X155874698Y-79348436D01*
X155954259Y-79229364D01*
X156009062Y-79097058D01*
X156037000Y-78956603D01*
X156037000Y-78813397D01*
X170183000Y-78813397D01*
X170183000Y-78956603D01*
X170210938Y-79097058D01*
X170265741Y-79229364D01*
X170345302Y-79348436D01*
X170446564Y-79449698D01*
X170565636Y-79529259D01*
X170697942Y-79584062D01*
X170838397Y-79612000D01*
X170981603Y-79612000D01*
X171122058Y-79584062D01*
X171254364Y-79529259D01*
X171373436Y-79449698D01*
X171474698Y-79348436D01*
X171510000Y-79295603D01*
X171545302Y-79348436D01*
X171646564Y-79449698D01*
X171765636Y-79529259D01*
X171897942Y-79584062D01*
X172038397Y-79612000D01*
X172181603Y-79612000D01*
X172322058Y-79584062D01*
X172454364Y-79529259D01*
X172573436Y-79449698D01*
X172674698Y-79348436D01*
X172754259Y-79229364D01*
X172809062Y-79097058D01*
X172837000Y-78956603D01*
X172837000Y-78813397D01*
X172809062Y-78672942D01*
X172754259Y-78540636D01*
X172674698Y-78421564D01*
X172573436Y-78320302D01*
X172454364Y-78240741D01*
X172322058Y-78185938D01*
X172181603Y-78158000D01*
X172038397Y-78158000D01*
X171897942Y-78185938D01*
X171765636Y-78240741D01*
X171646564Y-78320302D01*
X171545302Y-78421564D01*
X171510000Y-78474397D01*
X171474698Y-78421564D01*
X171373436Y-78320302D01*
X171254364Y-78240741D01*
X171122058Y-78185938D01*
X170981603Y-78158000D01*
X170838397Y-78158000D01*
X170697942Y-78185938D01*
X170565636Y-78240741D01*
X170446564Y-78320302D01*
X170345302Y-78421564D01*
X170265741Y-78540636D01*
X170210938Y-78672942D01*
X170183000Y-78813397D01*
X156037000Y-78813397D01*
X156009062Y-78672942D01*
X155954259Y-78540636D01*
X155874698Y-78421564D01*
X155773436Y-78320302D01*
X155654364Y-78240741D01*
X155522058Y-78185938D01*
X155381603Y-78158000D01*
X155238397Y-78158000D01*
X155097942Y-78185938D01*
X154965636Y-78240741D01*
X154846564Y-78320302D01*
X154745302Y-78421564D01*
X154665741Y-78540636D01*
X154610938Y-78672942D01*
X154583000Y-78813397D01*
X139466435Y-78813397D01*
X139518074Y-78778893D01*
X139803893Y-78493074D01*
X140028459Y-78156987D01*
X140040301Y-78128397D01*
X187273000Y-78128397D01*
X187273000Y-78271603D01*
X187300938Y-78412058D01*
X187355741Y-78544364D01*
X187435302Y-78663436D01*
X187536564Y-78764698D01*
X187655636Y-78844259D01*
X187787942Y-78899062D01*
X187928397Y-78927000D01*
X188071603Y-78927000D01*
X188212058Y-78899062D01*
X188344364Y-78844259D01*
X188463436Y-78764698D01*
X188499737Y-78728397D01*
X199373000Y-78728397D01*
X199373000Y-78871603D01*
X199400938Y-79012058D01*
X199455741Y-79144364D01*
X199535302Y-79263436D01*
X199636564Y-79364698D01*
X199755636Y-79444259D01*
X199887942Y-79499062D01*
X200028397Y-79527000D01*
X200171603Y-79527000D01*
X200312058Y-79499062D01*
X200444364Y-79444259D01*
X200563436Y-79364698D01*
X200664698Y-79263436D01*
X200744259Y-79144364D01*
X200799062Y-79012058D01*
X200827000Y-78871603D01*
X200827000Y-78728397D01*
X200799062Y-78587942D01*
X200744259Y-78455636D01*
X200664698Y-78336564D01*
X200563436Y-78235302D01*
X200444364Y-78155741D01*
X200312058Y-78100938D01*
X200171603Y-78073000D01*
X200028397Y-78073000D01*
X199887942Y-78100938D01*
X199755636Y-78155741D01*
X199636564Y-78235302D01*
X199535302Y-78336564D01*
X199455741Y-78455636D01*
X199400938Y-78587942D01*
X199373000Y-78728397D01*
X188499737Y-78728397D01*
X188564698Y-78663436D01*
X188644259Y-78544364D01*
X188699062Y-78412058D01*
X188727000Y-78271603D01*
X188727000Y-78128397D01*
X188699062Y-77987942D01*
X188644259Y-77855636D01*
X188564698Y-77736564D01*
X188463436Y-77635302D01*
X188344364Y-77555741D01*
X188212058Y-77500938D01*
X188071603Y-77473000D01*
X187928397Y-77473000D01*
X187787942Y-77500938D01*
X187655636Y-77555741D01*
X187536564Y-77635302D01*
X187435302Y-77736564D01*
X187355741Y-77855636D01*
X187300938Y-77987942D01*
X187273000Y-78128397D01*
X140040301Y-78128397D01*
X140183143Y-77783546D01*
X140262000Y-77387104D01*
X140262000Y-76982896D01*
X140231269Y-76828397D01*
X192573000Y-76828397D01*
X192573000Y-76971603D01*
X192600938Y-77112058D01*
X192655741Y-77244364D01*
X192735302Y-77363436D01*
X192836564Y-77464698D01*
X192955636Y-77544259D01*
X193087942Y-77599062D01*
X193228397Y-77627000D01*
X193371603Y-77627000D01*
X193512058Y-77599062D01*
X193644364Y-77544259D01*
X193717775Y-77495207D01*
X205383000Y-77495207D01*
X205383000Y-77874793D01*
X205457053Y-78247085D01*
X205602315Y-78597777D01*
X205813201Y-78913391D01*
X206081609Y-79181799D01*
X206397223Y-79392685D01*
X206747915Y-79537947D01*
X207120207Y-79612000D01*
X207499793Y-79612000D01*
X207872085Y-79537947D01*
X208222777Y-79392685D01*
X208538391Y-79181799D01*
X208806799Y-78913391D01*
X209017685Y-78597777D01*
X209162947Y-78247085D01*
X209237000Y-77874793D01*
X209237000Y-77495207D01*
X209162947Y-77122915D01*
X209017685Y-76772223D01*
X208806799Y-76456609D01*
X208538391Y-76188201D01*
X208222777Y-75977315D01*
X207872085Y-75832053D01*
X207499793Y-75758000D01*
X207120207Y-75758000D01*
X206747915Y-75832053D01*
X206397223Y-75977315D01*
X206081609Y-76188201D01*
X205813201Y-76456609D01*
X205602315Y-76772223D01*
X205457053Y-77122915D01*
X205383000Y-77495207D01*
X193717775Y-77495207D01*
X193763436Y-77464698D01*
X193864698Y-77363436D01*
X193944259Y-77244364D01*
X193999062Y-77112058D01*
X194027000Y-76971603D01*
X194027000Y-76828397D01*
X193999062Y-76687942D01*
X193944259Y-76555636D01*
X193864698Y-76436564D01*
X193763436Y-76335302D01*
X193644364Y-76255741D01*
X193512058Y-76200938D01*
X193371603Y-76173000D01*
X193228397Y-76173000D01*
X193087942Y-76200938D01*
X192955636Y-76255741D01*
X192836564Y-76335302D01*
X192735302Y-76436564D01*
X192655741Y-76555636D01*
X192600938Y-76687942D01*
X192573000Y-76828397D01*
X140231269Y-76828397D01*
X140183143Y-76586454D01*
X140028459Y-76213013D01*
X139803893Y-75876926D01*
X139518074Y-75591107D01*
X139181987Y-75366541D01*
X138808546Y-75211857D01*
X138412104Y-75133000D01*
X138007896Y-75133000D01*
X137611454Y-75211857D01*
X137238013Y-75366541D01*
X136901926Y-75591107D01*
X136616107Y-75876926D01*
X136391541Y-76213013D01*
X136236857Y-76586454D01*
X136158000Y-76982896D01*
X135736079Y-76982896D01*
X135768659Y-76956159D01*
X135884501Y-76815005D01*
X135970580Y-76653964D01*
X136023587Y-76479224D01*
X136037000Y-76343038D01*
X136037000Y-75551962D01*
X136023587Y-75415776D01*
X135970580Y-75241036D01*
X135884501Y-75079995D01*
X135768659Y-74938841D01*
X135627504Y-74822999D01*
X135466463Y-74736920D01*
X135291723Y-74683913D01*
X135110000Y-74666015D01*
X134928276Y-74683913D01*
X134753536Y-74736920D01*
X134592495Y-74822999D01*
X134451341Y-74938841D01*
X134335499Y-75079996D01*
X134249420Y-75241037D01*
X134196413Y-75415777D01*
X134183000Y-75551963D01*
X129037000Y-75551963D01*
X129037000Y-75551962D01*
X129023587Y-75415776D01*
X128970580Y-75241036D01*
X128884501Y-75079995D01*
X128768659Y-74938841D01*
X128627505Y-74822999D01*
X128466464Y-74736920D01*
X128291724Y-74683913D01*
X128110000Y-74666015D01*
X127928277Y-74683913D01*
X127753537Y-74736920D01*
X127592496Y-74822999D01*
X127451342Y-74938841D01*
X127335500Y-75079995D01*
X127249421Y-75241036D01*
X127196413Y-75415776D01*
X127183000Y-75551962D01*
X121750909Y-75551962D01*
X121934875Y-75326397D01*
X122438227Y-74909988D01*
X123012879Y-74599274D01*
X123636937Y-74406096D01*
X124293793Y-74337057D01*
X124310242Y-74337000D01*
X207302561Y-74337000D01*
X207960155Y-74401478D01*
G37*
X207960155Y-74401478D02*
X208585543Y-74590293D01*
X209162351Y-74896987D01*
X209668603Y-75309875D01*
X210085012Y-75813227D01*
X210395726Y-76387879D01*
X210588904Y-77011937D01*
X210657943Y-77668793D01*
X210658001Y-77685529D01*
X210658001Y-84704867D01*
X210573436Y-84620302D01*
X210454364Y-84540741D01*
X210322058Y-84485938D01*
X210215490Y-84464741D01*
X210237000Y-84356603D01*
X210237000Y-84213397D01*
X210209062Y-84072942D01*
X210154259Y-83940636D01*
X210074698Y-83821564D01*
X209973436Y-83720302D01*
X209854364Y-83640741D01*
X209722058Y-83585938D01*
X209581603Y-83558000D01*
X209438397Y-83558000D01*
X209297942Y-83585938D01*
X209165636Y-83640741D01*
X209046564Y-83720302D01*
X208945302Y-83821564D01*
X208865741Y-83940636D01*
X208810938Y-84072942D01*
X208783000Y-84213397D01*
X208783000Y-84356603D01*
X208810938Y-84497058D01*
X208865741Y-84629364D01*
X208945302Y-84748436D01*
X209046564Y-84849698D01*
X209165636Y-84929259D01*
X209297942Y-84984062D01*
X209404510Y-85005259D01*
X209383000Y-85113397D01*
X209383000Y-85256603D01*
X209404510Y-85364741D01*
X209297942Y-85385938D01*
X209165636Y-85440741D01*
X209046564Y-85520302D01*
X208945302Y-85621564D01*
X208865741Y-85740636D01*
X208810938Y-85872942D01*
X208783000Y-86013397D01*
X208783000Y-86156603D01*
X208810938Y-86297058D01*
X208865741Y-86429364D01*
X208945302Y-86548436D01*
X209046564Y-86649698D01*
X209165636Y-86729259D01*
X209297942Y-86784062D01*
X209438397Y-86812000D01*
X209581603Y-86812000D01*
X209722058Y-86784062D01*
X209854364Y-86729259D01*
X209973436Y-86649698D01*
X210074698Y-86548436D01*
X210154259Y-86429364D01*
X210209062Y-86297058D01*
X210237000Y-86156603D01*
X210237000Y-86013397D01*
X210215490Y-85905259D01*
X210322058Y-85884062D01*
X210454364Y-85829259D01*
X210573436Y-85749698D01*
X210658000Y-85665134D01*
X210658000Y-92677561D01*
X210593522Y-93335155D01*
X210404704Y-93960549D01*
X210098013Y-94537351D01*
X209685125Y-95043603D01*
X209181771Y-95460013D01*
X208607117Y-95770727D01*
X207983062Y-95963904D01*
X207326207Y-96032943D01*
X207309758Y-96033000D01*
X189695134Y-96033000D01*
X189764698Y-95963436D01*
X189844259Y-95844364D01*
X189899062Y-95712058D01*
X189927000Y-95571603D01*
X189927000Y-95428397D01*
X189899062Y-95287942D01*
X189844259Y-95155636D01*
X189764698Y-95036564D01*
X189663436Y-94935302D01*
X189544364Y-94855741D01*
X189412058Y-94800938D01*
X189271603Y-94773000D01*
X189128397Y-94773000D01*
X189100426Y-94778564D01*
X189157141Y-94641643D01*
X189187000Y-94491528D01*
X189187000Y-94338472D01*
X189157141Y-94188357D01*
X189098569Y-94046952D01*
X189013536Y-93919691D01*
X188905309Y-93811464D01*
X188778048Y-93726431D01*
X188636643Y-93667859D01*
X188486528Y-93638000D01*
X188333472Y-93638000D01*
X188183357Y-93667859D01*
X188041952Y-93726431D01*
X187914691Y-93811464D01*
X187806464Y-93919691D01*
X187721431Y-94046952D01*
X187681046Y-94144449D01*
X187644259Y-94055636D01*
X187564698Y-93936564D01*
X187463436Y-93835302D01*
X187344364Y-93755741D01*
X187212058Y-93700938D01*
X187071603Y-93673000D01*
X186928397Y-93673000D01*
X186787942Y-93700938D01*
X186655636Y-93755741D01*
X186536564Y-93835302D01*
X186435302Y-93936564D01*
X186355741Y-94055636D01*
X186300938Y-94187942D01*
X186273000Y-94328397D01*
X186273000Y-94471603D01*
X186300938Y-94612058D01*
X186355741Y-94744364D01*
X186435302Y-94863436D01*
X186536564Y-94964698D01*
X186655636Y-95044259D01*
X186787942Y-95099062D01*
X186928397Y-95127000D01*
X187071603Y-95127000D01*
X187212058Y-95099062D01*
X187344364Y-95044259D01*
X187463436Y-94964698D01*
X187564698Y-94863436D01*
X187644259Y-94744364D01*
X187674833Y-94670551D01*
X187721431Y-94783048D01*
X187806464Y-94910309D01*
X187914691Y-95018536D01*
X188041952Y-95103569D01*
X188183357Y-95162141D01*
X188333472Y-95192000D01*
X188486528Y-95192000D01*
X188545541Y-95180262D01*
X188500938Y-95287942D01*
X188473000Y-95428397D01*
X188473000Y-95571603D01*
X188500938Y-95712058D01*
X188555741Y-95844364D01*
X188635302Y-95963436D01*
X188704866Y-96033000D01*
X179195134Y-96033000D01*
X179264698Y-95963436D01*
X179344259Y-95844364D01*
X179399062Y-95712058D01*
X179427000Y-95571603D01*
X179427000Y-95428397D01*
X179399062Y-95287942D01*
X179344259Y-95155636D01*
X179264698Y-95036564D01*
X179163436Y-94935302D01*
X179044364Y-94855741D01*
X178912058Y-94800938D01*
X178771603Y-94773000D01*
X178628397Y-94773000D01*
X178487942Y-94800938D01*
X178435294Y-94822745D01*
X178498569Y-94728048D01*
X178557141Y-94586643D01*
X178587000Y-94436528D01*
X178587000Y-94338472D01*
X184633000Y-94338472D01*
X184633000Y-94491528D01*
X184662859Y-94641643D01*
X184721431Y-94783048D01*
X184806464Y-94910309D01*
X184914691Y-95018536D01*
X185041952Y-95103569D01*
X185183357Y-95162141D01*
X185333472Y-95192000D01*
X185486528Y-95192000D01*
X185636643Y-95162141D01*
X185778048Y-95103569D01*
X185905309Y-95018536D01*
X186013536Y-94910309D01*
X186098569Y-94783048D01*
X186157141Y-94641643D01*
X186187000Y-94491528D01*
X186187000Y-94338472D01*
X186157141Y-94188357D01*
X186098569Y-94046952D01*
X186013536Y-93919691D01*
X185905309Y-93811464D01*
X185778048Y-93726431D01*
X185636643Y-93667859D01*
X185486528Y-93638000D01*
X185333472Y-93638000D01*
X185183357Y-93667859D01*
X185041952Y-93726431D01*
X184914691Y-93811464D01*
X184806464Y-93919691D01*
X184721431Y-94046952D01*
X184662859Y-94188357D01*
X184633000Y-94338472D01*
X178587000Y-94338472D01*
X178587000Y-94283472D01*
X178557141Y-94133357D01*
X178498569Y-93991952D01*
X178413536Y-93864691D01*
X178305309Y-93756464D01*
X178178048Y-93671431D01*
X178036643Y-93612859D01*
X177886528Y-93583000D01*
X177733472Y-93583000D01*
X177583357Y-93612859D01*
X177441952Y-93671431D01*
X177314691Y-93756464D01*
X177206464Y-93864691D01*
X177121431Y-93991952D01*
X177062859Y-94133357D01*
X177033000Y-94283472D01*
X177033000Y-94436528D01*
X177062859Y-94586643D01*
X177121431Y-94728048D01*
X177206464Y-94855309D01*
X177314691Y-94963536D01*
X177441952Y-95048569D01*
X177583357Y-95107141D01*
X177733472Y-95137000D01*
X177886528Y-95137000D01*
X178036643Y-95107141D01*
X178107853Y-95077645D01*
X178055741Y-95155636D01*
X178000938Y-95287942D01*
X177973000Y-95428397D01*
X177973000Y-95571603D01*
X178000938Y-95712058D01*
X178055741Y-95844364D01*
X178135302Y-95963436D01*
X178204866Y-96033000D01*
X168595134Y-96033000D01*
X168664698Y-95963436D01*
X168744259Y-95844364D01*
X168799062Y-95712058D01*
X168827000Y-95571603D01*
X168827000Y-95428397D01*
X168799062Y-95287942D01*
X168744259Y-95155636D01*
X168664698Y-95036564D01*
X168563436Y-94935302D01*
X168444364Y-94855741D01*
X168312058Y-94800938D01*
X168171603Y-94773000D01*
X168028397Y-94773000D01*
X167887942Y-94800938D01*
X167886108Y-94801698D01*
X167898569Y-94783048D01*
X167957141Y-94641643D01*
X167987000Y-94491528D01*
X167987000Y-94391796D01*
X171369076Y-94391796D01*
X171369076Y-94535002D01*
X171397014Y-94675457D01*
X171451817Y-94807763D01*
X171531378Y-94926835D01*
X171632640Y-95028097D01*
X171751712Y-95107658D01*
X171884018Y-95162461D01*
X172024473Y-95190399D01*
X172167679Y-95190399D01*
X172308134Y-95162461D01*
X172440440Y-95107658D01*
X172559512Y-95028097D01*
X172660774Y-94926835D01*
X172740335Y-94807763D01*
X172795138Y-94675457D01*
X172823076Y-94535002D01*
X172823076Y-94391796D01*
X172801530Y-94283472D01*
X174033000Y-94283472D01*
X174033000Y-94436528D01*
X174062859Y-94586643D01*
X174121431Y-94728048D01*
X174206464Y-94855309D01*
X174314691Y-94963536D01*
X174441952Y-95048569D01*
X174583357Y-95107141D01*
X174733472Y-95137000D01*
X174886528Y-95137000D01*
X175036643Y-95107141D01*
X175178048Y-95048569D01*
X175305309Y-94963536D01*
X175413536Y-94855309D01*
X175498569Y-94728048D01*
X175557141Y-94586643D01*
X175587000Y-94436528D01*
X175587000Y-94283472D01*
X175557141Y-94133357D01*
X175498569Y-93991952D01*
X175413536Y-93864691D01*
X175305309Y-93756464D01*
X175178048Y-93671431D01*
X175036643Y-93612859D01*
X174886528Y-93583000D01*
X174733472Y-93583000D01*
X174583357Y-93612859D01*
X174441952Y-93671431D01*
X174314691Y-93756464D01*
X174206464Y-93864691D01*
X174121431Y-93991952D01*
X174062859Y-94133357D01*
X174033000Y-94283472D01*
X172801530Y-94283472D01*
X172795138Y-94251341D01*
X172740335Y-94119035D01*
X172660774Y-93999963D01*
X172559512Y-93898701D01*
X172440440Y-93819140D01*
X172308134Y-93764337D01*
X172167679Y-93736399D01*
X172024473Y-93736399D01*
X171884018Y-93764337D01*
X171751712Y-93819140D01*
X171632640Y-93898701D01*
X171531378Y-93999963D01*
X171451817Y-94119035D01*
X171397014Y-94251341D01*
X171369076Y-94391796D01*
X167987000Y-94391796D01*
X167987000Y-94338472D01*
X167957141Y-94188357D01*
X167898569Y-94046952D01*
X167813536Y-93919691D01*
X167705309Y-93811464D01*
X167578048Y-93726431D01*
X167436643Y-93667859D01*
X167286528Y-93638000D01*
X167133472Y-93638000D01*
X166983357Y-93667859D01*
X166841952Y-93726431D01*
X166714691Y-93811464D01*
X166606464Y-93919691D01*
X166521431Y-94046952D01*
X166481046Y-94144449D01*
X166444259Y-94055636D01*
X166364698Y-93936564D01*
X166263436Y-93835302D01*
X166144364Y-93755741D01*
X166012058Y-93700938D01*
X165871603Y-93673000D01*
X165728397Y-93673000D01*
X165587942Y-93700938D01*
X165455636Y-93755741D01*
X165336564Y-93835302D01*
X165235302Y-93936564D01*
X165155741Y-94055636D01*
X165100938Y-94187942D01*
X165073000Y-94328397D01*
X165073000Y-94471603D01*
X165100938Y-94612058D01*
X165155741Y-94744364D01*
X165235302Y-94863436D01*
X165336564Y-94964698D01*
X165455636Y-95044259D01*
X165587942Y-95099062D01*
X165728397Y-95127000D01*
X165871603Y-95127000D01*
X166012058Y-95099062D01*
X166144364Y-95044259D01*
X166263436Y-94964698D01*
X166364698Y-94863436D01*
X166444259Y-94744364D01*
X166474833Y-94670551D01*
X166521431Y-94783048D01*
X166606464Y-94910309D01*
X166714691Y-95018536D01*
X166841952Y-95103569D01*
X166983357Y-95162141D01*
X167133472Y-95192000D01*
X167286528Y-95192000D01*
X167436643Y-95162141D01*
X167457040Y-95153692D01*
X167455741Y-95155636D01*
X167400938Y-95287942D01*
X167373000Y-95428397D01*
X167373000Y-95571603D01*
X167400938Y-95712058D01*
X167455741Y-95844364D01*
X167535302Y-95963436D01*
X167604866Y-96033000D01*
X150895134Y-96033000D01*
X150964698Y-95963436D01*
X151044259Y-95844364D01*
X151099062Y-95712058D01*
X151127000Y-95571603D01*
X151127000Y-95428397D01*
X151099062Y-95287942D01*
X151044259Y-95155636D01*
X150964698Y-95036564D01*
X150863436Y-94935302D01*
X150744364Y-94855741D01*
X150612058Y-94800938D01*
X150471603Y-94773000D01*
X150328397Y-94773000D01*
X150187942Y-94800938D01*
X150055636Y-94855741D01*
X149936564Y-94935302D01*
X149835302Y-95036564D01*
X149755741Y-95155636D01*
X149700938Y-95287942D01*
X149673000Y-95428397D01*
X149673000Y-95571603D01*
X149700938Y-95712058D01*
X149755741Y-95844364D01*
X149835302Y-95963436D01*
X149904866Y-96033000D01*
X124317439Y-96033000D01*
X123659845Y-95968522D01*
X123034451Y-95779704D01*
X122457649Y-95473013D01*
X121951397Y-95060125D01*
X121534987Y-94556771D01*
X121224273Y-93982117D01*
X121031096Y-93358062D01*
X120962057Y-92701207D01*
X120962000Y-92684758D01*
X120962000Y-92495207D01*
X122383000Y-92495207D01*
X122383000Y-92874793D01*
X122457053Y-93247085D01*
X122602315Y-93597777D01*
X122813201Y-93913391D01*
X123081609Y-94181799D01*
X123397223Y-94392685D01*
X123747915Y-94537947D01*
X124120207Y-94612000D01*
X124499793Y-94612000D01*
X124872085Y-94537947D01*
X125222777Y-94392685D01*
X125538391Y-94181799D01*
X125806799Y-93913391D01*
X126017685Y-93597777D01*
X126162947Y-93247085D01*
X126205113Y-93035096D01*
X128358000Y-93035096D01*
X128358000Y-93334904D01*
X128416490Y-93628951D01*
X128531221Y-93905937D01*
X128697786Y-94155218D01*
X128909782Y-94367214D01*
X129159063Y-94533779D01*
X129436049Y-94648510D01*
X129730096Y-94707000D01*
X130029904Y-94707000D01*
X130323951Y-94648510D01*
X130600937Y-94533779D01*
X130850218Y-94367214D01*
X130878960Y-94338472D01*
X163433000Y-94338472D01*
X163433000Y-94491528D01*
X163462859Y-94641643D01*
X163521431Y-94783048D01*
X163606464Y-94910309D01*
X163714691Y-95018536D01*
X163841952Y-95103569D01*
X163983357Y-95162141D01*
X164133472Y-95192000D01*
X164286528Y-95192000D01*
X164436643Y-95162141D01*
X164578048Y-95103569D01*
X164705309Y-95018536D01*
X164813536Y-94910309D01*
X164898569Y-94783048D01*
X164957141Y-94641643D01*
X164987000Y-94491528D01*
X164987000Y-94338472D01*
X164957141Y-94188357D01*
X164898569Y-94046952D01*
X164813536Y-93919691D01*
X164705309Y-93811464D01*
X164578048Y-93726431D01*
X164436643Y-93667859D01*
X164286528Y-93638000D01*
X164133472Y-93638000D01*
X163983357Y-93667859D01*
X163841952Y-93726431D01*
X163714691Y-93811464D01*
X163606464Y-93919691D01*
X163521431Y-94046952D01*
X163462859Y-94188357D01*
X163433000Y-94338472D01*
X130878960Y-94338472D01*
X131062214Y-94155218D01*
X131228779Y-93905937D01*
X131343510Y-93628951D01*
X131402000Y-93334904D01*
X131402000Y-93035096D01*
X131391617Y-92982896D01*
X191358000Y-92982896D01*
X191358000Y-93387104D01*
X191436857Y-93783546D01*
X191591541Y-94156987D01*
X191816107Y-94493074D01*
X192101926Y-94778893D01*
X192438013Y-95003459D01*
X192811454Y-95158143D01*
X193207896Y-95237000D01*
X193612104Y-95237000D01*
X194008546Y-95158143D01*
X194381987Y-95003459D01*
X194718074Y-94778893D01*
X195003893Y-94493074D01*
X195228459Y-94156987D01*
X195383143Y-93783546D01*
X195433895Y-93528397D01*
X198373000Y-93528397D01*
X198373000Y-93671603D01*
X198400938Y-93812058D01*
X198455741Y-93944364D01*
X198535302Y-94063436D01*
X198636564Y-94164698D01*
X198755636Y-94244259D01*
X198887942Y-94299062D01*
X199028397Y-94327000D01*
X199171603Y-94327000D01*
X199312058Y-94299062D01*
X199444364Y-94244259D01*
X199563436Y-94164698D01*
X199664698Y-94063436D01*
X199744259Y-93944364D01*
X199799062Y-93812058D01*
X199827000Y-93671603D01*
X199827000Y-93528397D01*
X199799062Y-93387942D01*
X199744259Y-93255636D01*
X199664698Y-93136564D01*
X199563436Y-93035302D01*
X199444364Y-92955741D01*
X199312058Y-92900938D01*
X199171603Y-92873000D01*
X199028397Y-92873000D01*
X198887942Y-92900938D01*
X198755636Y-92955741D01*
X198636564Y-93035302D01*
X198535302Y-93136564D01*
X198455741Y-93255636D01*
X198400938Y-93387942D01*
X198373000Y-93528397D01*
X195433895Y-93528397D01*
X195462000Y-93387104D01*
X195462000Y-92982896D01*
X195383143Y-92586454D01*
X195345348Y-92495207D01*
X205383000Y-92495207D01*
X205383000Y-92874793D01*
X205457053Y-93247085D01*
X205602315Y-93597777D01*
X205813201Y-93913391D01*
X206081609Y-94181799D01*
X206397223Y-94392685D01*
X206747915Y-94537947D01*
X207120207Y-94612000D01*
X207499793Y-94612000D01*
X207872085Y-94537947D01*
X208222777Y-94392685D01*
X208538391Y-94181799D01*
X208806799Y-93913391D01*
X209017685Y-93597777D01*
X209162947Y-93247085D01*
X209237000Y-92874793D01*
X209237000Y-92495207D01*
X209162947Y-92122915D01*
X209017685Y-91772223D01*
X208806799Y-91456609D01*
X208538391Y-91188201D01*
X208222777Y-90977315D01*
X207872085Y-90832053D01*
X207499793Y-90758000D01*
X207120207Y-90758000D01*
X206747915Y-90832053D01*
X206397223Y-90977315D01*
X206081609Y-91188201D01*
X205813201Y-91456609D01*
X205602315Y-91772223D01*
X205457053Y-92122915D01*
X205383000Y-92495207D01*
X195345348Y-92495207D01*
X195228459Y-92213013D01*
X195003893Y-91876926D01*
X194718074Y-91591107D01*
X194381987Y-91366541D01*
X194008546Y-91211857D01*
X193612104Y-91133000D01*
X193207896Y-91133000D01*
X192811454Y-91211857D01*
X192438013Y-91366541D01*
X192101926Y-91591107D01*
X191816107Y-91876926D01*
X191591541Y-92213013D01*
X191436857Y-92586454D01*
X191358000Y-92982896D01*
X131391617Y-92982896D01*
X131343510Y-92741049D01*
X131228779Y-92464063D01*
X131062214Y-92214782D01*
X130850218Y-92002786D01*
X130600937Y-91836221D01*
X130323951Y-91721490D01*
X130208992Y-91698623D01*
X131683000Y-91698623D01*
X131683000Y-91871377D01*
X131716703Y-92040811D01*
X131782813Y-92200415D01*
X131878790Y-92344055D01*
X132000945Y-92466210D01*
X132144585Y-92562187D01*
X132304189Y-92628297D01*
X132473623Y-92662000D01*
X132646377Y-92662000D01*
X132815811Y-92628297D01*
X132975415Y-92562187D01*
X133119055Y-92466210D01*
X133241210Y-92344055D01*
X133337187Y-92200415D01*
X133403297Y-92040811D01*
X133437000Y-91871377D01*
X133437000Y-91698623D01*
X133403297Y-91529189D01*
X133337187Y-91369585D01*
X133241210Y-91225945D01*
X133119055Y-91103790D01*
X132975415Y-91007813D01*
X132815811Y-90941703D01*
X132646377Y-90908000D01*
X132473623Y-90908000D01*
X132304189Y-90941703D01*
X132144585Y-91007813D01*
X132000945Y-91103790D01*
X131878790Y-91225945D01*
X131782813Y-91369585D01*
X131716703Y-91529189D01*
X131683000Y-91698623D01*
X130208992Y-91698623D01*
X130029904Y-91663000D01*
X129730096Y-91663000D01*
X129436049Y-91721490D01*
X129159063Y-91836221D01*
X128909782Y-92002786D01*
X128697786Y-92214782D01*
X128531221Y-92464063D01*
X128416490Y-92741049D01*
X128358000Y-93035096D01*
X126205113Y-93035096D01*
X126237000Y-92874793D01*
X126237000Y-92495207D01*
X126162947Y-92122915D01*
X126017685Y-91772223D01*
X125806799Y-91456609D01*
X125538391Y-91188201D01*
X125222777Y-90977315D01*
X124872085Y-90832053D01*
X124499793Y-90758000D01*
X124120207Y-90758000D01*
X123747915Y-90832053D01*
X123397223Y-90977315D01*
X123081609Y-91188201D01*
X122813201Y-91456609D01*
X122602315Y-91772223D01*
X122457053Y-92122915D01*
X122383000Y-92495207D01*
X120962000Y-92495207D01*
X120962000Y-89713397D01*
X121883000Y-89713397D01*
X121883000Y-89856603D01*
X121910938Y-89997058D01*
X121965741Y-90129364D01*
X122045302Y-90248436D01*
X122146564Y-90349698D01*
X122265636Y-90429259D01*
X122397942Y-90484062D01*
X122538397Y-90512000D01*
X122681603Y-90512000D01*
X122822058Y-90484062D01*
X122954364Y-90429259D01*
X123073436Y-90349698D01*
X123174698Y-90248436D01*
X123210000Y-90195603D01*
X123245302Y-90248436D01*
X123346564Y-90349698D01*
X123465636Y-90429259D01*
X123597942Y-90484062D01*
X123738397Y-90512000D01*
X123881603Y-90512000D01*
X124022058Y-90484062D01*
X124154364Y-90429259D01*
X124273436Y-90349698D01*
X124374698Y-90248436D01*
X124410000Y-90195603D01*
X124445302Y-90248436D01*
X124546564Y-90349698D01*
X124665636Y-90429259D01*
X124797942Y-90484062D01*
X124938397Y-90512000D01*
X125081603Y-90512000D01*
X125222058Y-90484062D01*
X125354364Y-90429259D01*
X125378103Y-90413397D01*
X142383000Y-90413397D01*
X142383000Y-90556603D01*
X142410938Y-90697058D01*
X142465741Y-90829364D01*
X142545302Y-90948436D01*
X142646564Y-91049698D01*
X142765636Y-91129259D01*
X142897942Y-91184062D01*
X143038397Y-91212000D01*
X143181603Y-91212000D01*
X143322058Y-91184062D01*
X143454364Y-91129259D01*
X143573436Y-91049698D01*
X143674698Y-90948436D01*
X143710000Y-90895603D01*
X143745302Y-90948436D01*
X143846564Y-91049698D01*
X143965636Y-91129259D01*
X144097942Y-91184062D01*
X144238397Y-91212000D01*
X144381603Y-91212000D01*
X144522058Y-91184062D01*
X144654364Y-91129259D01*
X144773436Y-91049698D01*
X144874698Y-90948436D01*
X144910000Y-90895603D01*
X144945302Y-90948436D01*
X145046564Y-91049698D01*
X145165636Y-91129259D01*
X145297942Y-91184062D01*
X145438397Y-91212000D01*
X145581603Y-91212000D01*
X145722058Y-91184062D01*
X145854364Y-91129259D01*
X145973436Y-91049698D01*
X146074698Y-90948436D01*
X146154259Y-90829364D01*
X146154659Y-90828397D01*
X148973000Y-90828397D01*
X148973000Y-90971603D01*
X149000938Y-91112058D01*
X149055741Y-91244364D01*
X149135302Y-91363436D01*
X149236564Y-91464698D01*
X149355636Y-91544259D01*
X149487942Y-91599062D01*
X149628397Y-91627000D01*
X149771603Y-91627000D01*
X149912058Y-91599062D01*
X150044364Y-91544259D01*
X150163436Y-91464698D01*
X150264698Y-91363436D01*
X150300000Y-91310603D01*
X150335302Y-91363436D01*
X150436564Y-91464698D01*
X150555636Y-91544259D01*
X150687942Y-91599062D01*
X150828397Y-91627000D01*
X150971603Y-91627000D01*
X151112058Y-91599062D01*
X151244364Y-91544259D01*
X151363436Y-91464698D01*
X151464698Y-91363436D01*
X151544259Y-91244364D01*
X151599062Y-91112058D01*
X151627000Y-90971603D01*
X151627000Y-90828397D01*
X157973000Y-90828397D01*
X157973000Y-90971603D01*
X158000938Y-91112058D01*
X158055741Y-91244364D01*
X158135302Y-91363436D01*
X158236564Y-91464698D01*
X158355636Y-91544259D01*
X158487942Y-91599062D01*
X158628397Y-91627000D01*
X158771603Y-91627000D01*
X158912058Y-91599062D01*
X159044364Y-91544259D01*
X159163436Y-91464698D01*
X159264698Y-91363436D01*
X159344259Y-91244364D01*
X159399062Y-91112058D01*
X159427000Y-90971603D01*
X159427000Y-90828397D01*
X159404126Y-90713397D01*
X161183000Y-90713397D01*
X161183000Y-90856603D01*
X161210938Y-90997058D01*
X161265741Y-91129364D01*
X161345302Y-91248436D01*
X161446564Y-91349698D01*
X161565636Y-91429259D01*
X161697942Y-91484062D01*
X161838397Y-91512000D01*
X161981603Y-91512000D01*
X162122058Y-91484062D01*
X162254364Y-91429259D01*
X162373436Y-91349698D01*
X162474698Y-91248436D01*
X162510000Y-91195603D01*
X162545302Y-91248436D01*
X162646564Y-91349698D01*
X162765636Y-91429259D01*
X162897942Y-91484062D01*
X163038397Y-91512000D01*
X163181603Y-91512000D01*
X163322058Y-91484062D01*
X163454364Y-91429259D01*
X163573436Y-91349698D01*
X163674698Y-91248436D01*
X163754259Y-91129364D01*
X163809062Y-90997058D01*
X163822719Y-90928397D01*
X197073000Y-90928397D01*
X197073000Y-91071603D01*
X197100938Y-91212058D01*
X197155741Y-91344364D01*
X197235302Y-91463436D01*
X197336564Y-91564698D01*
X197455636Y-91644259D01*
X197587942Y-91699062D01*
X197728397Y-91727000D01*
X197871603Y-91727000D01*
X198012058Y-91699062D01*
X198144364Y-91644259D01*
X198263436Y-91564698D01*
X198364698Y-91463436D01*
X198444259Y-91344364D01*
X198499062Y-91212058D01*
X198527000Y-91071603D01*
X198527000Y-90944588D01*
X199601503Y-90944588D01*
X199601503Y-91112418D01*
X199634245Y-91277022D01*
X199698471Y-91432076D01*
X199791712Y-91571621D01*
X199910385Y-91690294D01*
X200049930Y-91783535D01*
X200204984Y-91847761D01*
X200369588Y-91880503D01*
X200537418Y-91880503D01*
X200702022Y-91847761D01*
X200857076Y-91783535D01*
X200996621Y-91690294D01*
X201115294Y-91571621D01*
X201208535Y-91432076D01*
X201272761Y-91277022D01*
X201305503Y-91112418D01*
X201305503Y-90944588D01*
X201272761Y-90779984D01*
X201208535Y-90624930D01*
X201115294Y-90485385D01*
X200996621Y-90366712D01*
X200857076Y-90273471D01*
X200702022Y-90209245D01*
X200537418Y-90176503D01*
X200369588Y-90176503D01*
X200204984Y-90209245D01*
X200049930Y-90273471D01*
X199910385Y-90366712D01*
X199791712Y-90485385D01*
X199698471Y-90624930D01*
X199634245Y-90779984D01*
X199601503Y-90944588D01*
X198527000Y-90944588D01*
X198527000Y-90928397D01*
X198499062Y-90787942D01*
X198444259Y-90655636D01*
X198364698Y-90536564D01*
X198263436Y-90435302D01*
X198144364Y-90355741D01*
X198012058Y-90300938D01*
X197871603Y-90273000D01*
X197728397Y-90273000D01*
X197587942Y-90300938D01*
X197455636Y-90355741D01*
X197336564Y-90435302D01*
X197235302Y-90536564D01*
X197155741Y-90655636D01*
X197100938Y-90787942D01*
X197073000Y-90928397D01*
X163822719Y-90928397D01*
X163837000Y-90856603D01*
X163837000Y-90713397D01*
X163809062Y-90572942D01*
X163754259Y-90440636D01*
X163674698Y-90321564D01*
X163573436Y-90220302D01*
X163454364Y-90140741D01*
X163322058Y-90085938D01*
X163181603Y-90058000D01*
X163038397Y-90058000D01*
X162897942Y-90085938D01*
X162765636Y-90140741D01*
X162646564Y-90220302D01*
X162545302Y-90321564D01*
X162510000Y-90374397D01*
X162474698Y-90321564D01*
X162373436Y-90220302D01*
X162254364Y-90140741D01*
X162122058Y-90085938D01*
X161981603Y-90058000D01*
X161838397Y-90058000D01*
X161697942Y-90085938D01*
X161565636Y-90140741D01*
X161446564Y-90220302D01*
X161345302Y-90321564D01*
X161265741Y-90440636D01*
X161210938Y-90572942D01*
X161183000Y-90713397D01*
X159404126Y-90713397D01*
X159399062Y-90687942D01*
X159344259Y-90555636D01*
X159264698Y-90436564D01*
X159163436Y-90335302D01*
X159044364Y-90255741D01*
X158912058Y-90200938D01*
X158771603Y-90173000D01*
X158628397Y-90173000D01*
X158487942Y-90200938D01*
X158355636Y-90255741D01*
X158236564Y-90335302D01*
X158135302Y-90436564D01*
X158055741Y-90555636D01*
X158000938Y-90687942D01*
X157973000Y-90828397D01*
X151627000Y-90828397D01*
X151599062Y-90687942D01*
X151544259Y-90555636D01*
X151464698Y-90436564D01*
X151363436Y-90335302D01*
X151244364Y-90255741D01*
X151112058Y-90200938D01*
X150971603Y-90173000D01*
X150828397Y-90173000D01*
X150687942Y-90200938D01*
X150555636Y-90255741D01*
X150436564Y-90335302D01*
X150335302Y-90436564D01*
X150300000Y-90489397D01*
X150264698Y-90436564D01*
X150163436Y-90335302D01*
X150044364Y-90255741D01*
X149912058Y-90200938D01*
X149771603Y-90173000D01*
X149628397Y-90173000D01*
X149487942Y-90200938D01*
X149355636Y-90255741D01*
X149236564Y-90335302D01*
X149135302Y-90436564D01*
X149055741Y-90555636D01*
X149000938Y-90687942D01*
X148973000Y-90828397D01*
X146154659Y-90828397D01*
X146209062Y-90697058D01*
X146237000Y-90556603D01*
X146237000Y-90413397D01*
X146209062Y-90272942D01*
X146154259Y-90140636D01*
X146074698Y-90021564D01*
X145973436Y-89920302D01*
X145854364Y-89840741D01*
X145722058Y-89785938D01*
X145581603Y-89758000D01*
X145438397Y-89758000D01*
X145297942Y-89785938D01*
X145165636Y-89840741D01*
X145046564Y-89920302D01*
X144945302Y-90021564D01*
X144910000Y-90074397D01*
X144874698Y-90021564D01*
X144773436Y-89920302D01*
X144654364Y-89840741D01*
X144522058Y-89785938D01*
X144381603Y-89758000D01*
X144238397Y-89758000D01*
X144097942Y-89785938D01*
X143965636Y-89840741D01*
X143846564Y-89920302D01*
X143745302Y-90021564D01*
X143710000Y-90074397D01*
X143674698Y-90021564D01*
X143573436Y-89920302D01*
X143454364Y-89840741D01*
X143322058Y-89785938D01*
X143181603Y-89758000D01*
X143038397Y-89758000D01*
X142897942Y-89785938D01*
X142765636Y-89840741D01*
X142646564Y-89920302D01*
X142545302Y-90021564D01*
X142465741Y-90140636D01*
X142410938Y-90272942D01*
X142383000Y-90413397D01*
X125378103Y-90413397D01*
X125473436Y-90349698D01*
X125574698Y-90248436D01*
X125654259Y-90129364D01*
X125709062Y-89997058D01*
X125737000Y-89856603D01*
X125737000Y-89713397D01*
X125709062Y-89572942D01*
X125654259Y-89440636D01*
X125574698Y-89321564D01*
X125481531Y-89228397D01*
X180173000Y-89228397D01*
X180173000Y-89371603D01*
X180200938Y-89512058D01*
X180255741Y-89644364D01*
X180335302Y-89763436D01*
X180436564Y-89864698D01*
X180555636Y-89944259D01*
X180687942Y-89999062D01*
X180828397Y-90027000D01*
X180971603Y-90027000D01*
X181112058Y-89999062D01*
X181244364Y-89944259D01*
X181363436Y-89864698D01*
X181464698Y-89763436D01*
X181544259Y-89644364D01*
X181599062Y-89512058D01*
X181615703Y-89428397D01*
X183073000Y-89428397D01*
X183073000Y-89571603D01*
X183100938Y-89712058D01*
X183155741Y-89844364D01*
X183235302Y-89963436D01*
X183336564Y-90064698D01*
X183455636Y-90144259D01*
X183587942Y-90199062D01*
X183728397Y-90227000D01*
X183871603Y-90227000D01*
X184012058Y-90199062D01*
X184144364Y-90144259D01*
X184263436Y-90064698D01*
X184364698Y-89963436D01*
X184400000Y-89910603D01*
X184435302Y-89963436D01*
X184536564Y-90064698D01*
X184655636Y-90144259D01*
X184787942Y-90199062D01*
X184928397Y-90227000D01*
X185071603Y-90227000D01*
X185212058Y-90199062D01*
X185344364Y-90144259D01*
X185463436Y-90064698D01*
X185564698Y-89963436D01*
X185600000Y-89910603D01*
X185635302Y-89963436D01*
X185736564Y-90064698D01*
X185855636Y-90144259D01*
X185987942Y-90199062D01*
X186128397Y-90227000D01*
X186271603Y-90227000D01*
X186412058Y-90199062D01*
X186544364Y-90144259D01*
X186663436Y-90064698D01*
X186764698Y-89963436D01*
X186844259Y-89844364D01*
X186899062Y-89712058D01*
X186927000Y-89571603D01*
X186927000Y-89428397D01*
X186899062Y-89287942D01*
X186844259Y-89155636D01*
X186764698Y-89036564D01*
X186663436Y-88935302D01*
X186544364Y-88855741D01*
X186412058Y-88800938D01*
X186271603Y-88773000D01*
X186128397Y-88773000D01*
X185987942Y-88800938D01*
X185855636Y-88855741D01*
X185736564Y-88935302D01*
X185635302Y-89036564D01*
X185600000Y-89089397D01*
X185564698Y-89036564D01*
X185463436Y-88935302D01*
X185344364Y-88855741D01*
X185212058Y-88800938D01*
X185071603Y-88773000D01*
X184928397Y-88773000D01*
X184787942Y-88800938D01*
X184655636Y-88855741D01*
X184536564Y-88935302D01*
X184435302Y-89036564D01*
X184400000Y-89089397D01*
X184364698Y-89036564D01*
X184263436Y-88935302D01*
X184144364Y-88855741D01*
X184012058Y-88800938D01*
X183871603Y-88773000D01*
X183728397Y-88773000D01*
X183587942Y-88800938D01*
X183455636Y-88855741D01*
X183336564Y-88935302D01*
X183235302Y-89036564D01*
X183155741Y-89155636D01*
X183100938Y-89287942D01*
X183073000Y-89428397D01*
X181615703Y-89428397D01*
X181627000Y-89371603D01*
X181627000Y-89228397D01*
X181599062Y-89087942D01*
X181544259Y-88955636D01*
X181464698Y-88836564D01*
X181363436Y-88735302D01*
X181244364Y-88655741D01*
X181112058Y-88600938D01*
X180971603Y-88573000D01*
X180828397Y-88573000D01*
X180687942Y-88600938D01*
X180555636Y-88655741D01*
X180436564Y-88735302D01*
X180335302Y-88836564D01*
X180255741Y-88955636D01*
X180200938Y-89087942D01*
X180173000Y-89228397D01*
X125481531Y-89228397D01*
X125473436Y-89220302D01*
X125354364Y-89140741D01*
X125222058Y-89085938D01*
X125081603Y-89058000D01*
X124938397Y-89058000D01*
X124797942Y-89085938D01*
X124665636Y-89140741D01*
X124546564Y-89220302D01*
X124445302Y-89321564D01*
X124410000Y-89374397D01*
X124374698Y-89321564D01*
X124273436Y-89220302D01*
X124154364Y-89140741D01*
X124022058Y-89085938D01*
X123881603Y-89058000D01*
X123738397Y-89058000D01*
X123597942Y-89085938D01*
X123465636Y-89140741D01*
X123346564Y-89220302D01*
X123245302Y-89321564D01*
X123210000Y-89374397D01*
X123174698Y-89321564D01*
X123073436Y-89220302D01*
X122954364Y-89140741D01*
X122822058Y-89085938D01*
X122681603Y-89058000D01*
X122538397Y-89058000D01*
X122397942Y-89085938D01*
X122265636Y-89140741D01*
X122146564Y-89220302D01*
X122045302Y-89321564D01*
X121965741Y-89440636D01*
X121910938Y-89572942D01*
X121883000Y-89713397D01*
X120962000Y-89713397D01*
X120962000Y-87628397D01*
X156073000Y-87628397D01*
X156073000Y-87771603D01*
X156100938Y-87912058D01*
X156155741Y-88044364D01*
X156235302Y-88163436D01*
X156336564Y-88264698D01*
X156455636Y-88344259D01*
X156587942Y-88399062D01*
X156728397Y-88427000D01*
X156871603Y-88427000D01*
X157012058Y-88399062D01*
X157144364Y-88344259D01*
X157251974Y-88272356D01*
X197064497Y-88272356D01*
X197064497Y-88410638D01*
X197091474Y-88546263D01*
X197144392Y-88674019D01*
X197221218Y-88788996D01*
X197318998Y-88886776D01*
X197433975Y-88963602D01*
X197561731Y-89016520D01*
X197697356Y-89043497D01*
X197835638Y-89043497D01*
X197971263Y-89016520D01*
X198099019Y-88963602D01*
X198213996Y-88886776D01*
X198311776Y-88788996D01*
X198388602Y-88674019D01*
X198441520Y-88546263D01*
X198468497Y-88410638D01*
X198468497Y-88272356D01*
X198441520Y-88136731D01*
X198388602Y-88008975D01*
X198311776Y-87893998D01*
X198213996Y-87796218D01*
X198099019Y-87719392D01*
X197971263Y-87666474D01*
X197835638Y-87639497D01*
X197697356Y-87639497D01*
X197561731Y-87666474D01*
X197433975Y-87719392D01*
X197318998Y-87796218D01*
X197221218Y-87893998D01*
X197144392Y-88008975D01*
X197091474Y-88136731D01*
X197064497Y-88272356D01*
X157251974Y-88272356D01*
X157263436Y-88264698D01*
X157364698Y-88163436D01*
X157444259Y-88044364D01*
X157499062Y-87912058D01*
X157527000Y-87771603D01*
X157527000Y-87628397D01*
X157499062Y-87487942D01*
X157444259Y-87355636D01*
X157364698Y-87236564D01*
X157263436Y-87135302D01*
X157144364Y-87055741D01*
X157012058Y-87000938D01*
X156871603Y-86973000D01*
X156728397Y-86973000D01*
X156587942Y-87000938D01*
X156455636Y-87055741D01*
X156336564Y-87135302D01*
X156235302Y-87236564D01*
X156155741Y-87355636D01*
X156100938Y-87487942D01*
X156073000Y-87628397D01*
X120962000Y-87628397D01*
X120962000Y-85113397D01*
X133983000Y-85113397D01*
X133983000Y-85256603D01*
X134010938Y-85397058D01*
X134065741Y-85529364D01*
X134145302Y-85648436D01*
X134246564Y-85749698D01*
X134365636Y-85829259D01*
X134497942Y-85884062D01*
X134638397Y-85912000D01*
X134781603Y-85912000D01*
X134922058Y-85884062D01*
X135054364Y-85829259D01*
X135173436Y-85749698D01*
X135274698Y-85648436D01*
X135310000Y-85595603D01*
X135345302Y-85648436D01*
X135446564Y-85749698D01*
X135565636Y-85829259D01*
X135697942Y-85884062D01*
X135838397Y-85912000D01*
X135981603Y-85912000D01*
X136122058Y-85884062D01*
X136254364Y-85829259D01*
X136373436Y-85749698D01*
X136474698Y-85648436D01*
X136510000Y-85595603D01*
X136545302Y-85648436D01*
X136646564Y-85749698D01*
X136765636Y-85829259D01*
X136897942Y-85884062D01*
X137038397Y-85912000D01*
X137181603Y-85912000D01*
X137322058Y-85884062D01*
X137454364Y-85829259D01*
X137573436Y-85749698D01*
X137649134Y-85674000D01*
X138133000Y-85674000D01*
X138133000Y-85896000D01*
X138176310Y-86113734D01*
X138261266Y-86318835D01*
X138384602Y-86503421D01*
X138541579Y-86660398D01*
X138726165Y-86783734D01*
X138931266Y-86868690D01*
X139149000Y-86912000D01*
X139371000Y-86912000D01*
X139588734Y-86868690D01*
X139686009Y-86828397D01*
X183173000Y-86828397D01*
X183173000Y-86971603D01*
X183200938Y-87112058D01*
X183255741Y-87244364D01*
X183335302Y-87363436D01*
X183436564Y-87464698D01*
X183555636Y-87544259D01*
X183687942Y-87599062D01*
X183828397Y-87627000D01*
X183971603Y-87627000D01*
X184112058Y-87599062D01*
X184244364Y-87544259D01*
X184363436Y-87464698D01*
X184399737Y-87428397D01*
X188973000Y-87428397D01*
X188973000Y-87571603D01*
X189000938Y-87712058D01*
X189055741Y-87844364D01*
X189135302Y-87963436D01*
X189236564Y-88064698D01*
X189355636Y-88144259D01*
X189487942Y-88199062D01*
X189628397Y-88227000D01*
X189771603Y-88227000D01*
X189912058Y-88199062D01*
X190044364Y-88144259D01*
X190163436Y-88064698D01*
X190264698Y-87963436D01*
X190344259Y-87844364D01*
X190399062Y-87712058D01*
X190427000Y-87571603D01*
X190427000Y-87428397D01*
X190399062Y-87287942D01*
X190344259Y-87155636D01*
X190264698Y-87036564D01*
X190163436Y-86935302D01*
X190044364Y-86855741D01*
X189912058Y-86800938D01*
X189771603Y-86773000D01*
X189628397Y-86773000D01*
X189487942Y-86800938D01*
X189355636Y-86855741D01*
X189236564Y-86935302D01*
X189135302Y-87036564D01*
X189055741Y-87155636D01*
X189000938Y-87287942D01*
X188973000Y-87428397D01*
X184399737Y-87428397D01*
X184464698Y-87363436D01*
X184544259Y-87244364D01*
X184599062Y-87112058D01*
X184627000Y-86971603D01*
X184627000Y-86828397D01*
X184599062Y-86687942D01*
X184544259Y-86555636D01*
X184464698Y-86436564D01*
X184363436Y-86335302D01*
X184244364Y-86255741D01*
X184112058Y-86200938D01*
X183971603Y-86173000D01*
X183828397Y-86173000D01*
X183687942Y-86200938D01*
X183555636Y-86255741D01*
X183436564Y-86335302D01*
X183335302Y-86436564D01*
X183255741Y-86555636D01*
X183200938Y-86687942D01*
X183173000Y-86828397D01*
X139686009Y-86828397D01*
X139793835Y-86783734D01*
X139978421Y-86660398D01*
X140135398Y-86503421D01*
X140258734Y-86318835D01*
X140343690Y-86113734D01*
X140387000Y-85896000D01*
X140387000Y-85674000D01*
X140358038Y-85528397D01*
X176773000Y-85528397D01*
X176773000Y-85671603D01*
X176800938Y-85812058D01*
X176855741Y-85944364D01*
X176935302Y-86063436D01*
X177036564Y-86164698D01*
X177155636Y-86244259D01*
X177287942Y-86299062D01*
X177428397Y-86327000D01*
X177571603Y-86327000D01*
X177712058Y-86299062D01*
X177844364Y-86244259D01*
X177963436Y-86164698D01*
X178064698Y-86063436D01*
X178144259Y-85944364D01*
X178199062Y-85812058D01*
X178227000Y-85671603D01*
X178227000Y-85528397D01*
X180173000Y-85528397D01*
X180173000Y-85671603D01*
X180200938Y-85812058D01*
X180255741Y-85944364D01*
X180335302Y-86063436D01*
X180436564Y-86164698D01*
X180555636Y-86244259D01*
X180687942Y-86299062D01*
X180828397Y-86327000D01*
X180971603Y-86327000D01*
X181112058Y-86299062D01*
X181244364Y-86244259D01*
X181363436Y-86164698D01*
X181464698Y-86063436D01*
X181544259Y-85944364D01*
X181599062Y-85812058D01*
X181627000Y-85671603D01*
X181627000Y-85528397D01*
X181599062Y-85387942D01*
X181544259Y-85255636D01*
X181464698Y-85136564D01*
X181363436Y-85035302D01*
X181244364Y-84955741D01*
X181112058Y-84900938D01*
X180971603Y-84873000D01*
X180828397Y-84873000D01*
X180687942Y-84900938D01*
X180555636Y-84955741D01*
X180436564Y-85035302D01*
X180335302Y-85136564D01*
X180255741Y-85255636D01*
X180200938Y-85387942D01*
X180173000Y-85528397D01*
X178227000Y-85528397D01*
X178199062Y-85387942D01*
X178144259Y-85255636D01*
X178064698Y-85136564D01*
X177963436Y-85035302D01*
X177844364Y-84955741D01*
X177712058Y-84900938D01*
X177571603Y-84873000D01*
X177428397Y-84873000D01*
X177287942Y-84900938D01*
X177155636Y-84955741D01*
X177036564Y-85035302D01*
X176935302Y-85136564D01*
X176855741Y-85255636D01*
X176800938Y-85387942D01*
X176773000Y-85528397D01*
X140358038Y-85528397D01*
X140343690Y-85456266D01*
X140258734Y-85251165D01*
X140135398Y-85066579D01*
X139978421Y-84909602D01*
X139793835Y-84786266D01*
X139588734Y-84701310D01*
X139371000Y-84658000D01*
X139149000Y-84658000D01*
X138931266Y-84701310D01*
X138726165Y-84786266D01*
X138541579Y-84909602D01*
X138384602Y-85066579D01*
X138261266Y-85251165D01*
X138176310Y-85456266D01*
X138133000Y-85674000D01*
X137649134Y-85674000D01*
X137674698Y-85648436D01*
X137754259Y-85529364D01*
X137809062Y-85397058D01*
X137837000Y-85256603D01*
X137837000Y-85113397D01*
X137809062Y-84972942D01*
X137754259Y-84840636D01*
X137674698Y-84721564D01*
X137573436Y-84620302D01*
X137454364Y-84540741D01*
X137322058Y-84485938D01*
X137181603Y-84458000D01*
X137038397Y-84458000D01*
X136897942Y-84485938D01*
X136765636Y-84540741D01*
X136646564Y-84620302D01*
X136545302Y-84721564D01*
X136510000Y-84774397D01*
X136474698Y-84721564D01*
X136373436Y-84620302D01*
X136254364Y-84540741D01*
X136122058Y-84485938D01*
X135981603Y-84458000D01*
X135838397Y-84458000D01*
X135697942Y-84485938D01*
X135565636Y-84540741D01*
X135446564Y-84620302D01*
X135345302Y-84721564D01*
X135310000Y-84774397D01*
X135274698Y-84721564D01*
X135173436Y-84620302D01*
X135054364Y-84540741D01*
X134922058Y-84485938D01*
X134781603Y-84458000D01*
X134638397Y-84458000D01*
X134497942Y-84485938D01*
X134365636Y-84540741D01*
X134246564Y-84620302D01*
X134145302Y-84721564D01*
X134065741Y-84840636D01*
X134010938Y-84972942D01*
X133983000Y-85113397D01*
X120962000Y-85113397D01*
X120962000Y-81922275D01*
X140733000Y-81922275D01*
X140733000Y-83647726D01*
X140751478Y-83835336D01*
X140824499Y-84076051D01*
X140943077Y-84297896D01*
X141102657Y-84492344D01*
X141297105Y-84651924D01*
X141518950Y-84770502D01*
X141759665Y-84843522D01*
X142010000Y-84868178D01*
X142260336Y-84843522D01*
X142501051Y-84770502D01*
X142722896Y-84651924D01*
X142917344Y-84492344D01*
X143076924Y-84297896D01*
X143195502Y-84076051D01*
X143268522Y-83835336D01*
X143287000Y-83647726D01*
X143287000Y-82698623D01*
X144533000Y-82698623D01*
X144533000Y-82871377D01*
X144566703Y-83040811D01*
X144632813Y-83200415D01*
X144728790Y-83344055D01*
X144850945Y-83466210D01*
X144994585Y-83562187D01*
X145154189Y-83628297D01*
X145323623Y-83662000D01*
X145496377Y-83662000D01*
X145665811Y-83628297D01*
X145825415Y-83562187D01*
X145969055Y-83466210D01*
X146091210Y-83344055D01*
X146187187Y-83200415D01*
X146253297Y-83040811D01*
X146287000Y-82871377D01*
X146287000Y-82698623D01*
X149133000Y-82698623D01*
X149133000Y-82871377D01*
X149166703Y-83040811D01*
X149232813Y-83200415D01*
X149328790Y-83344055D01*
X149450945Y-83466210D01*
X149594585Y-83562187D01*
X149754189Y-83628297D01*
X149923623Y-83662000D01*
X150096377Y-83662000D01*
X150265811Y-83628297D01*
X150425415Y-83562187D01*
X150569055Y-83466210D01*
X150691210Y-83344055D01*
X150787187Y-83200415D01*
X150853297Y-83040811D01*
X150887000Y-82871377D01*
X150887000Y-82698623D01*
X150853297Y-82529189D01*
X150787187Y-82369585D01*
X150691210Y-82225945D01*
X150569055Y-82103790D01*
X150425415Y-82007813D01*
X150265811Y-81941703D01*
X150168142Y-81922275D01*
X152133000Y-81922275D01*
X152133000Y-83647726D01*
X152151478Y-83835336D01*
X152224499Y-84076051D01*
X152343077Y-84297896D01*
X152502657Y-84492344D01*
X152697105Y-84651924D01*
X152918950Y-84770502D01*
X153159665Y-84843522D01*
X153410000Y-84868178D01*
X153660336Y-84843522D01*
X153901051Y-84770502D01*
X154122896Y-84651924D01*
X154273413Y-84528397D01*
X158173000Y-84528397D01*
X158173000Y-84671603D01*
X158200938Y-84812058D01*
X158255741Y-84944364D01*
X158335302Y-85063436D01*
X158436564Y-85164698D01*
X158555636Y-85244259D01*
X158687942Y-85299062D01*
X158828397Y-85327000D01*
X158971603Y-85327000D01*
X159112058Y-85299062D01*
X159244364Y-85244259D01*
X159363436Y-85164698D01*
X159464698Y-85063436D01*
X159544259Y-84944364D01*
X159592294Y-84828397D01*
X184073000Y-84828397D01*
X184073000Y-84971603D01*
X184100938Y-85112058D01*
X184155741Y-85244364D01*
X184235302Y-85363436D01*
X184336564Y-85464698D01*
X184455636Y-85544259D01*
X184587942Y-85599062D01*
X184728397Y-85627000D01*
X184871603Y-85627000D01*
X185012058Y-85599062D01*
X185144364Y-85544259D01*
X185263436Y-85464698D01*
X185364698Y-85363436D01*
X185444259Y-85244364D01*
X185499062Y-85112058D01*
X185527000Y-84971603D01*
X185527000Y-84926722D01*
X185528397Y-84927000D01*
X185671603Y-84927000D01*
X185812058Y-84899062D01*
X185944364Y-84844259D01*
X186063436Y-84764698D01*
X186164698Y-84663436D01*
X186244259Y-84544364D01*
X186299062Y-84412058D01*
X186327000Y-84271603D01*
X186327000Y-84128397D01*
X186299062Y-83987942D01*
X186244259Y-83855636D01*
X186164698Y-83736564D01*
X186063436Y-83635302D01*
X185944364Y-83555741D01*
X185812058Y-83500938D01*
X185671603Y-83473000D01*
X185528397Y-83473000D01*
X185387942Y-83500938D01*
X185255636Y-83555741D01*
X185136564Y-83635302D01*
X185035302Y-83736564D01*
X184955741Y-83855636D01*
X184900938Y-83987942D01*
X184873000Y-84128397D01*
X184873000Y-84173278D01*
X184871603Y-84173000D01*
X184728397Y-84173000D01*
X184587942Y-84200938D01*
X184455636Y-84255741D01*
X184336564Y-84335302D01*
X184235302Y-84436564D01*
X184155741Y-84555636D01*
X184100938Y-84687942D01*
X184073000Y-84828397D01*
X159592294Y-84828397D01*
X159599062Y-84812058D01*
X159627000Y-84671603D01*
X159627000Y-84528397D01*
X159599062Y-84387942D01*
X159544259Y-84255636D01*
X159464698Y-84136564D01*
X159363436Y-84035302D01*
X159244364Y-83955741D01*
X159112058Y-83900938D01*
X158971603Y-83873000D01*
X158828397Y-83873000D01*
X158687942Y-83900938D01*
X158555636Y-83955741D01*
X158436564Y-84035302D01*
X158335302Y-84136564D01*
X158255741Y-84255636D01*
X158200938Y-84387942D01*
X158173000Y-84528397D01*
X154273413Y-84528397D01*
X154317344Y-84492344D01*
X154476924Y-84297896D01*
X154595502Y-84076051D01*
X154668522Y-83835336D01*
X154687000Y-83647726D01*
X154687000Y-83628397D01*
X178473000Y-83628397D01*
X178473000Y-83771603D01*
X178500938Y-83912058D01*
X178555741Y-84044364D01*
X178635302Y-84163436D01*
X178736564Y-84264698D01*
X178855636Y-84344259D01*
X178987942Y-84399062D01*
X179128397Y-84427000D01*
X179271603Y-84427000D01*
X179412058Y-84399062D01*
X179544364Y-84344259D01*
X179663436Y-84264698D01*
X179764698Y-84163436D01*
X179844259Y-84044364D01*
X179899062Y-83912058D01*
X179927000Y-83771603D01*
X179927000Y-83628397D01*
X179899062Y-83487942D01*
X179874398Y-83428397D01*
X199873000Y-83428397D01*
X199873000Y-83571603D01*
X199900938Y-83712058D01*
X199955741Y-83844364D01*
X200035302Y-83963436D01*
X200136564Y-84064698D01*
X200255636Y-84144259D01*
X200387942Y-84199062D01*
X200528397Y-84227000D01*
X200671603Y-84227000D01*
X200812058Y-84199062D01*
X200944364Y-84144259D01*
X201063436Y-84064698D01*
X201164698Y-83963436D01*
X201244259Y-83844364D01*
X201299062Y-83712058D01*
X201327000Y-83571603D01*
X201327000Y-83428397D01*
X201299062Y-83287942D01*
X201244259Y-83155636D01*
X201164698Y-83036564D01*
X201063436Y-82935302D01*
X200944364Y-82855741D01*
X200812058Y-82800938D01*
X200671603Y-82773000D01*
X200528397Y-82773000D01*
X200387942Y-82800938D01*
X200255636Y-82855741D01*
X200136564Y-82935302D01*
X200035302Y-83036564D01*
X199955741Y-83155636D01*
X199900938Y-83287942D01*
X199873000Y-83428397D01*
X179874398Y-83428397D01*
X179844259Y-83355636D01*
X179764698Y-83236564D01*
X179663436Y-83135302D01*
X179544364Y-83055741D01*
X179412058Y-83000938D01*
X179271603Y-82973000D01*
X179128397Y-82973000D01*
X178987942Y-83000938D01*
X178855636Y-83055741D01*
X178736564Y-83135302D01*
X178635302Y-83236564D01*
X178555741Y-83355636D01*
X178500938Y-83487942D01*
X178473000Y-83628397D01*
X154687000Y-83628397D01*
X154687000Y-81922274D01*
X154668522Y-81734664D01*
X154595502Y-81493949D01*
X154476924Y-81272104D01*
X154317344Y-81077656D01*
X154122895Y-80918076D01*
X153901050Y-80799498D01*
X153660335Y-80726478D01*
X153410000Y-80701822D01*
X153159664Y-80726478D01*
X152918949Y-80799498D01*
X152697104Y-80918076D01*
X152502656Y-81077656D01*
X152343076Y-81272105D01*
X152224498Y-81493950D01*
X152151478Y-81734665D01*
X152133000Y-81922275D01*
X150168142Y-81922275D01*
X150096377Y-81908000D01*
X149923623Y-81908000D01*
X149754189Y-81941703D01*
X149594585Y-82007813D01*
X149450945Y-82103790D01*
X149328790Y-82225945D01*
X149232813Y-82369585D01*
X149166703Y-82529189D01*
X149133000Y-82698623D01*
X146287000Y-82698623D01*
X146253297Y-82529189D01*
X146187187Y-82369585D01*
X146091210Y-82225945D01*
X145969055Y-82103790D01*
X145825415Y-82007813D01*
X145665811Y-81941703D01*
X145496377Y-81908000D01*
X145323623Y-81908000D01*
X145154189Y-81941703D01*
X144994585Y-82007813D01*
X144850945Y-82103790D01*
X144728790Y-82225945D01*
X144632813Y-82369585D01*
X144566703Y-82529189D01*
X144533000Y-82698623D01*
X143287000Y-82698623D01*
X143287000Y-81922274D01*
X143268522Y-81734664D01*
X143195502Y-81493949D01*
X143076924Y-81272104D01*
X142917344Y-81077656D01*
X142722895Y-80918076D01*
X142501050Y-80799498D01*
X142260335Y-80726478D01*
X142010000Y-80701822D01*
X141759664Y-80726478D01*
X141518949Y-80799498D01*
X141297104Y-80918076D01*
X141102656Y-81077656D01*
X140943076Y-81272105D01*
X140824498Y-81493950D01*
X140751478Y-81734665D01*
X140733000Y-81922275D01*
X120962000Y-81922275D01*
X120962000Y-80213397D01*
X148183000Y-80213397D01*
X148183000Y-80356603D01*
X148210938Y-80497058D01*
X148265741Y-80629364D01*
X148345302Y-80748436D01*
X148446564Y-80849698D01*
X148565636Y-80929259D01*
X148697942Y-80984062D01*
X148838397Y-81012000D01*
X148981603Y-81012000D01*
X149122058Y-80984062D01*
X149254364Y-80929259D01*
X149373436Y-80849698D01*
X149474698Y-80748436D01*
X149510000Y-80695603D01*
X149545302Y-80748436D01*
X149646564Y-80849698D01*
X149765636Y-80929259D01*
X149897942Y-80984062D01*
X150038397Y-81012000D01*
X150181603Y-81012000D01*
X150322058Y-80984062D01*
X150454364Y-80929259D01*
X150573436Y-80849698D01*
X150674698Y-80748436D01*
X150754259Y-80629364D01*
X150809062Y-80497058D01*
X150837000Y-80356603D01*
X150837000Y-80213397D01*
X158283000Y-80213397D01*
X158283000Y-80356603D01*
X158310938Y-80497058D01*
X158365741Y-80629364D01*
X158445302Y-80748436D01*
X158531866Y-80835000D01*
X158445302Y-80921564D01*
X158365741Y-81040636D01*
X158310938Y-81172942D01*
X158283000Y-81313397D01*
X158283000Y-81456603D01*
X158310938Y-81597058D01*
X158365741Y-81729364D01*
X158445302Y-81848436D01*
X158546564Y-81949698D01*
X158665636Y-82029259D01*
X158797942Y-82084062D01*
X158938397Y-82112000D01*
X159081603Y-82112000D01*
X159222058Y-82084062D01*
X159354364Y-82029259D01*
X159473436Y-81949698D01*
X159574698Y-81848436D01*
X159654259Y-81729364D01*
X159709062Y-81597058D01*
X159737000Y-81456603D01*
X159737000Y-81313397D01*
X159709062Y-81172942D01*
X159654259Y-81040636D01*
X159574698Y-80921564D01*
X159488134Y-80835000D01*
X159574698Y-80748436D01*
X159654259Y-80629364D01*
X159709062Y-80497058D01*
X159737000Y-80356603D01*
X159737000Y-80213397D01*
X184383000Y-80213397D01*
X184383000Y-80356603D01*
X184410938Y-80497058D01*
X184465741Y-80629364D01*
X184545302Y-80748436D01*
X184646564Y-80849698D01*
X184765636Y-80929259D01*
X184897942Y-80984062D01*
X185038397Y-81012000D01*
X185181603Y-81012000D01*
X185322058Y-80984062D01*
X185454364Y-80929259D01*
X185573436Y-80849698D01*
X185674698Y-80748436D01*
X185710000Y-80695603D01*
X185745302Y-80748436D01*
X185846564Y-80849698D01*
X185965636Y-80929259D01*
X186097942Y-80984062D01*
X186238397Y-81012000D01*
X186381603Y-81012000D01*
X186522058Y-80984062D01*
X186654364Y-80929259D01*
X186655654Y-80928397D01*
X192373000Y-80928397D01*
X192373000Y-81071603D01*
X192400938Y-81212058D01*
X192455741Y-81344364D01*
X192535302Y-81463436D01*
X192636564Y-81564698D01*
X192755636Y-81644259D01*
X192887942Y-81699062D01*
X193028397Y-81727000D01*
X193171603Y-81727000D01*
X193312058Y-81699062D01*
X193444364Y-81644259D01*
X193563436Y-81564698D01*
X193664698Y-81463436D01*
X193744259Y-81344364D01*
X193799062Y-81212058D01*
X193827000Y-81071603D01*
X193827000Y-80928397D01*
X193799062Y-80787942D01*
X193744259Y-80655636D01*
X193664698Y-80536564D01*
X193563436Y-80435302D01*
X193444364Y-80355741D01*
X193312058Y-80300938D01*
X193171603Y-80273000D01*
X193028397Y-80273000D01*
X192887942Y-80300938D01*
X192755636Y-80355741D01*
X192636564Y-80435302D01*
X192535302Y-80536564D01*
X192455741Y-80655636D01*
X192400938Y-80787942D01*
X192373000Y-80928397D01*
X186655654Y-80928397D01*
X186773436Y-80849698D01*
X186874698Y-80748436D01*
X186954259Y-80629364D01*
X187009062Y-80497058D01*
X187037000Y-80356603D01*
X187037000Y-80213397D01*
X187009062Y-80072942D01*
X186954259Y-79940636D01*
X186874698Y-79821564D01*
X186773436Y-79720302D01*
X186654364Y-79640741D01*
X186522058Y-79585938D01*
X186381603Y-79558000D01*
X186238397Y-79558000D01*
X186097942Y-79585938D01*
X185965636Y-79640741D01*
X185846564Y-79720302D01*
X185745302Y-79821564D01*
X185710000Y-79874397D01*
X185674698Y-79821564D01*
X185573436Y-79720302D01*
X185454364Y-79640741D01*
X185322058Y-79585938D01*
X185181603Y-79558000D01*
X185038397Y-79558000D01*
X184897942Y-79585938D01*
X184765636Y-79640741D01*
X184646564Y-79720302D01*
X184545302Y-79821564D01*
X184465741Y-79940636D01*
X184410938Y-80072942D01*
X184383000Y-80213397D01*
X159737000Y-80213397D01*
X159709062Y-80072942D01*
X159654259Y-79940636D01*
X159574698Y-79821564D01*
X159473436Y-79720302D01*
X159354364Y-79640741D01*
X159222058Y-79585938D01*
X159081603Y-79558000D01*
X158938397Y-79558000D01*
X158797942Y-79585938D01*
X158665636Y-79640741D01*
X158546564Y-79720302D01*
X158445302Y-79821564D01*
X158365741Y-79940636D01*
X158310938Y-80072942D01*
X158283000Y-80213397D01*
X150837000Y-80213397D01*
X150809062Y-80072942D01*
X150754259Y-79940636D01*
X150674698Y-79821564D01*
X150573436Y-79720302D01*
X150454364Y-79640741D01*
X150322058Y-79585938D01*
X150181603Y-79558000D01*
X150038397Y-79558000D01*
X149897942Y-79585938D01*
X149765636Y-79640741D01*
X149646564Y-79720302D01*
X149545302Y-79821564D01*
X149510000Y-79874397D01*
X149474698Y-79821564D01*
X149373436Y-79720302D01*
X149254364Y-79640741D01*
X149122058Y-79585938D01*
X148981603Y-79558000D01*
X148838397Y-79558000D01*
X148697942Y-79585938D01*
X148565636Y-79640741D01*
X148446564Y-79720302D01*
X148345302Y-79821564D01*
X148265741Y-79940636D01*
X148210938Y-80072942D01*
X148183000Y-80213397D01*
X120962000Y-80213397D01*
X120962000Y-77692439D01*
X120981338Y-77495207D01*
X122383000Y-77495207D01*
X122383000Y-77874793D01*
X122457053Y-78247085D01*
X122602315Y-78597777D01*
X122813201Y-78913391D01*
X123081609Y-79181799D01*
X123397223Y-79392685D01*
X123747915Y-79537947D01*
X124120207Y-79612000D01*
X124499793Y-79612000D01*
X124872085Y-79537947D01*
X125222777Y-79392685D01*
X125538391Y-79181799D01*
X125806799Y-78913391D01*
X126017685Y-78597777D01*
X126040007Y-78543887D01*
X128058000Y-78543887D01*
X128058000Y-78751113D01*
X128098428Y-78954357D01*
X128177730Y-79145809D01*
X128292858Y-79318111D01*
X128439389Y-79464642D01*
X128611691Y-79579770D01*
X128803143Y-79659072D01*
X129006387Y-79699500D01*
X129213613Y-79699500D01*
X129416857Y-79659072D01*
X129608309Y-79579770D01*
X129780611Y-79464642D01*
X129927142Y-79318111D01*
X130042270Y-79145809D01*
X130121572Y-78954357D01*
X130162000Y-78751113D01*
X130162000Y-78543887D01*
X133058000Y-78543887D01*
X133058000Y-78751113D01*
X133098428Y-78954357D01*
X133177730Y-79145809D01*
X133292858Y-79318111D01*
X133439389Y-79464642D01*
X133611691Y-79579770D01*
X133803143Y-79659072D01*
X134006387Y-79699500D01*
X134213613Y-79699500D01*
X134416857Y-79659072D01*
X134608309Y-79579770D01*
X134780611Y-79464642D01*
X134927142Y-79318111D01*
X135042270Y-79145809D01*
X135121572Y-78954357D01*
X135162000Y-78751113D01*
X135162000Y-78543887D01*
X135121572Y-78340643D01*
X135042270Y-78149191D01*
X134927142Y-77976889D01*
X134780611Y-77830358D01*
X134608309Y-77715230D01*
X134416857Y-77635928D01*
X134213613Y-77595500D01*
X134006387Y-77595500D01*
X133803143Y-77635928D01*
X133611691Y-77715230D01*
X133439389Y-77830358D01*
X133292858Y-77976889D01*
X133177730Y-78149191D01*
X133098428Y-78340643D01*
X133058000Y-78543887D01*
X130162000Y-78543887D01*
X130121572Y-78340643D01*
X130042270Y-78149191D01*
X129927142Y-77976889D01*
X129780611Y-77830358D01*
X129608309Y-77715230D01*
X129416857Y-77635928D01*
X129213613Y-77595500D01*
X129006387Y-77595500D01*
X128803143Y-77635928D01*
X128611691Y-77715230D01*
X128439389Y-77830358D01*
X128292858Y-77976889D01*
X128177730Y-78149191D01*
X128098428Y-78340643D01*
X128058000Y-78543887D01*
X126040007Y-78543887D01*
X126162947Y-78247085D01*
X126237000Y-77874793D01*
X126237000Y-77495207D01*
X126162947Y-77122915D01*
X126017685Y-76772223D01*
X125806799Y-76456609D01*
X125538391Y-76188201D01*
X125222777Y-75977315D01*
X124872085Y-75832053D01*
X124499793Y-75758000D01*
X124120207Y-75758000D01*
X123747915Y-75832053D01*
X123397223Y-75977315D01*
X123081609Y-76188201D01*
X122813201Y-76456609D01*
X122602315Y-76772223D01*
X122457053Y-77122915D01*
X122383000Y-77495207D01*
X120981338Y-77495207D01*
X121026478Y-77034845D01*
X121215293Y-76409457D01*
X121521987Y-75832649D01*
X121750909Y-75551962D01*
X127183000Y-75551962D01*
X127183000Y-76343037D01*
X127196413Y-76479223D01*
X127249420Y-76653963D01*
X127335499Y-76815004D01*
X127451341Y-76956159D01*
X127592495Y-77072001D01*
X127753536Y-77158080D01*
X127928276Y-77211087D01*
X128110000Y-77228985D01*
X128291723Y-77211087D01*
X128466463Y-77158080D01*
X128627504Y-77072001D01*
X128768659Y-76956159D01*
X128884501Y-76815005D01*
X128970580Y-76653964D01*
X129023587Y-76479224D01*
X129037000Y-76343038D01*
X129037000Y-75551963D01*
X134183000Y-75551963D01*
X134183000Y-76343038D01*
X134196413Y-76479224D01*
X134249421Y-76653964D01*
X134335500Y-76815005D01*
X134451342Y-76956159D01*
X134592496Y-77072001D01*
X134753537Y-77158080D01*
X134928277Y-77211087D01*
X135110000Y-77228985D01*
X135291724Y-77211087D01*
X135466464Y-77158080D01*
X135627505Y-77072001D01*
X135736079Y-76982896D01*
X136158000Y-76982896D01*
X136158000Y-77387104D01*
X136236857Y-77783546D01*
X136391541Y-78156987D01*
X136616107Y-78493074D01*
X136901926Y-78778893D01*
X137238013Y-79003459D01*
X137611454Y-79158143D01*
X138007896Y-79237000D01*
X138412104Y-79237000D01*
X138808546Y-79158143D01*
X139181987Y-79003459D01*
X139466435Y-78813397D01*
X154583000Y-78813397D01*
X154583000Y-78956603D01*
X154610938Y-79097058D01*
X154665741Y-79229364D01*
X154745302Y-79348436D01*
X154846564Y-79449698D01*
X154965636Y-79529259D01*
X155097942Y-79584062D01*
X155238397Y-79612000D01*
X155381603Y-79612000D01*
X155522058Y-79584062D01*
X155654364Y-79529259D01*
X155773436Y-79449698D01*
X155874698Y-79348436D01*
X155954259Y-79229364D01*
X156009062Y-79097058D01*
X156037000Y-78956603D01*
X156037000Y-78813397D01*
X170183000Y-78813397D01*
X170183000Y-78956603D01*
X170210938Y-79097058D01*
X170265741Y-79229364D01*
X170345302Y-79348436D01*
X170446564Y-79449698D01*
X170565636Y-79529259D01*
X170697942Y-79584062D01*
X170838397Y-79612000D01*
X170981603Y-79612000D01*
X171122058Y-79584062D01*
X171254364Y-79529259D01*
X171373436Y-79449698D01*
X171474698Y-79348436D01*
X171510000Y-79295603D01*
X171545302Y-79348436D01*
X171646564Y-79449698D01*
X171765636Y-79529259D01*
X171897942Y-79584062D01*
X172038397Y-79612000D01*
X172181603Y-79612000D01*
X172322058Y-79584062D01*
X172454364Y-79529259D01*
X172573436Y-79449698D01*
X172674698Y-79348436D01*
X172754259Y-79229364D01*
X172809062Y-79097058D01*
X172837000Y-78956603D01*
X172837000Y-78813397D01*
X172809062Y-78672942D01*
X172754259Y-78540636D01*
X172674698Y-78421564D01*
X172573436Y-78320302D01*
X172454364Y-78240741D01*
X172322058Y-78185938D01*
X172181603Y-78158000D01*
X172038397Y-78158000D01*
X171897942Y-78185938D01*
X171765636Y-78240741D01*
X171646564Y-78320302D01*
X171545302Y-78421564D01*
X171510000Y-78474397D01*
X171474698Y-78421564D01*
X171373436Y-78320302D01*
X171254364Y-78240741D01*
X171122058Y-78185938D01*
X170981603Y-78158000D01*
X170838397Y-78158000D01*
X170697942Y-78185938D01*
X170565636Y-78240741D01*
X170446564Y-78320302D01*
X170345302Y-78421564D01*
X170265741Y-78540636D01*
X170210938Y-78672942D01*
X170183000Y-78813397D01*
X156037000Y-78813397D01*
X156009062Y-78672942D01*
X155954259Y-78540636D01*
X155874698Y-78421564D01*
X155773436Y-78320302D01*
X155654364Y-78240741D01*
X155522058Y-78185938D01*
X155381603Y-78158000D01*
X155238397Y-78158000D01*
X155097942Y-78185938D01*
X154965636Y-78240741D01*
X154846564Y-78320302D01*
X154745302Y-78421564D01*
X154665741Y-78540636D01*
X154610938Y-78672942D01*
X154583000Y-78813397D01*
X139466435Y-78813397D01*
X139518074Y-78778893D01*
X139803893Y-78493074D01*
X140028459Y-78156987D01*
X140040301Y-78128397D01*
X187273000Y-78128397D01*
X187273000Y-78271603D01*
X187300938Y-78412058D01*
X187355741Y-78544364D01*
X187435302Y-78663436D01*
X187536564Y-78764698D01*
X187655636Y-78844259D01*
X187787942Y-78899062D01*
X187928397Y-78927000D01*
X188071603Y-78927000D01*
X188212058Y-78899062D01*
X188344364Y-78844259D01*
X188463436Y-78764698D01*
X188499737Y-78728397D01*
X199373000Y-78728397D01*
X199373000Y-78871603D01*
X199400938Y-79012058D01*
X199455741Y-79144364D01*
X199535302Y-79263436D01*
X199636564Y-79364698D01*
X199755636Y-79444259D01*
X199887942Y-79499062D01*
X200028397Y-79527000D01*
X200171603Y-79527000D01*
X200312058Y-79499062D01*
X200444364Y-79444259D01*
X200563436Y-79364698D01*
X200664698Y-79263436D01*
X200744259Y-79144364D01*
X200799062Y-79012058D01*
X200827000Y-78871603D01*
X200827000Y-78728397D01*
X200799062Y-78587942D01*
X200744259Y-78455636D01*
X200664698Y-78336564D01*
X200563436Y-78235302D01*
X200444364Y-78155741D01*
X200312058Y-78100938D01*
X200171603Y-78073000D01*
X200028397Y-78073000D01*
X199887942Y-78100938D01*
X199755636Y-78155741D01*
X199636564Y-78235302D01*
X199535302Y-78336564D01*
X199455741Y-78455636D01*
X199400938Y-78587942D01*
X199373000Y-78728397D01*
X188499737Y-78728397D01*
X188564698Y-78663436D01*
X188644259Y-78544364D01*
X188699062Y-78412058D01*
X188727000Y-78271603D01*
X188727000Y-78128397D01*
X188699062Y-77987942D01*
X188644259Y-77855636D01*
X188564698Y-77736564D01*
X188463436Y-77635302D01*
X188344364Y-77555741D01*
X188212058Y-77500938D01*
X188071603Y-77473000D01*
X187928397Y-77473000D01*
X187787942Y-77500938D01*
X187655636Y-77555741D01*
X187536564Y-77635302D01*
X187435302Y-77736564D01*
X187355741Y-77855636D01*
X187300938Y-77987942D01*
X187273000Y-78128397D01*
X140040301Y-78128397D01*
X140183143Y-77783546D01*
X140262000Y-77387104D01*
X140262000Y-76982896D01*
X140231269Y-76828397D01*
X192573000Y-76828397D01*
X192573000Y-76971603D01*
X192600938Y-77112058D01*
X192655741Y-77244364D01*
X192735302Y-77363436D01*
X192836564Y-77464698D01*
X192955636Y-77544259D01*
X193087942Y-77599062D01*
X193228397Y-77627000D01*
X193371603Y-77627000D01*
X193512058Y-77599062D01*
X193644364Y-77544259D01*
X193717775Y-77495207D01*
X205383000Y-77495207D01*
X205383000Y-77874793D01*
X205457053Y-78247085D01*
X205602315Y-78597777D01*
X205813201Y-78913391D01*
X206081609Y-79181799D01*
X206397223Y-79392685D01*
X206747915Y-79537947D01*
X207120207Y-79612000D01*
X207499793Y-79612000D01*
X207872085Y-79537947D01*
X208222777Y-79392685D01*
X208538391Y-79181799D01*
X208806799Y-78913391D01*
X209017685Y-78597777D01*
X209162947Y-78247085D01*
X209237000Y-77874793D01*
X209237000Y-77495207D01*
X209162947Y-77122915D01*
X209017685Y-76772223D01*
X208806799Y-76456609D01*
X208538391Y-76188201D01*
X208222777Y-75977315D01*
X207872085Y-75832053D01*
X207499793Y-75758000D01*
X207120207Y-75758000D01*
X206747915Y-75832053D01*
X206397223Y-75977315D01*
X206081609Y-76188201D01*
X205813201Y-76456609D01*
X205602315Y-76772223D01*
X205457053Y-77122915D01*
X205383000Y-77495207D01*
X193717775Y-77495207D01*
X193763436Y-77464698D01*
X193864698Y-77363436D01*
X193944259Y-77244364D01*
X193999062Y-77112058D01*
X194027000Y-76971603D01*
X194027000Y-76828397D01*
X193999062Y-76687942D01*
X193944259Y-76555636D01*
X193864698Y-76436564D01*
X193763436Y-76335302D01*
X193644364Y-76255741D01*
X193512058Y-76200938D01*
X193371603Y-76173000D01*
X193228397Y-76173000D01*
X193087942Y-76200938D01*
X192955636Y-76255741D01*
X192836564Y-76335302D01*
X192735302Y-76436564D01*
X192655741Y-76555636D01*
X192600938Y-76687942D01*
X192573000Y-76828397D01*
X140231269Y-76828397D01*
X140183143Y-76586454D01*
X140028459Y-76213013D01*
X139803893Y-75876926D01*
X139518074Y-75591107D01*
X139181987Y-75366541D01*
X138808546Y-75211857D01*
X138412104Y-75133000D01*
X138007896Y-75133000D01*
X137611454Y-75211857D01*
X137238013Y-75366541D01*
X136901926Y-75591107D01*
X136616107Y-75876926D01*
X136391541Y-76213013D01*
X136236857Y-76586454D01*
X136158000Y-76982896D01*
X135736079Y-76982896D01*
X135768659Y-76956159D01*
X135884501Y-76815005D01*
X135970580Y-76653964D01*
X136023587Y-76479224D01*
X136037000Y-76343038D01*
X136037000Y-75551962D01*
X136023587Y-75415776D01*
X135970580Y-75241036D01*
X135884501Y-75079995D01*
X135768659Y-74938841D01*
X135627504Y-74822999D01*
X135466463Y-74736920D01*
X135291723Y-74683913D01*
X135110000Y-74666015D01*
X134928276Y-74683913D01*
X134753536Y-74736920D01*
X134592495Y-74822999D01*
X134451341Y-74938841D01*
X134335499Y-75079996D01*
X134249420Y-75241037D01*
X134196413Y-75415777D01*
X134183000Y-75551963D01*
X129037000Y-75551963D01*
X129037000Y-75551962D01*
X129023587Y-75415776D01*
X128970580Y-75241036D01*
X128884501Y-75079995D01*
X128768659Y-74938841D01*
X128627505Y-74822999D01*
X128466464Y-74736920D01*
X128291724Y-74683913D01*
X128110000Y-74666015D01*
X127928277Y-74683913D01*
X127753537Y-74736920D01*
X127592496Y-74822999D01*
X127451342Y-74938841D01*
X127335500Y-75079995D01*
X127249421Y-75241036D01*
X127196413Y-75415776D01*
X127183000Y-75551962D01*
X121750909Y-75551962D01*
X121934875Y-75326397D01*
X122438227Y-74909988D01*
X123012879Y-74599274D01*
X123636937Y-74406096D01*
X124293793Y-74337057D01*
X124310242Y-74337000D01*
X207302561Y-74337000D01*
X207960155Y-74401478D01*
M02*
