M48
; DRILL file {KiCad (5.1.5)-3} date 22/06/2021 21:37:04
; FORMAT={-:-/ absolute / inch / decimal}
; #@! TF.CreationDate,2021-06-22T21:37:04+02:00
; #@! TF.GenerationSoftware,Kicad,Pcbnew,(5.1.5)-3
FMAT,2
INCH
T1C0.0157
T2C0.0236
T3C0.0335
T4C0.0354
T5C0.0295
T6C0.0354
T7C0.0413
T8C0.0433
T9C0.0630
T10C0.0941
T11C0.1260
T12C0.1358
%
G90
G05
T1
X4.8272Y-3.5348
X4.8744Y-3.5348
X4.9217Y-3.5348
X5.3035Y-3.3537
X5.3508Y-3.3537
X5.398Y-3.3537
X5.6343Y-3.5624
X5.6815Y-3.5624
X5.7287Y-3.5624
X5.8626Y-3.1608
X5.8937Y-3.5787
X5.9098Y-3.1608
X5.9213Y-3.7598
X5.9409Y-3.5787
X6.0634Y-3.0073
X6.1067Y-3.0073
X6.1146Y-3.1057
X6.15Y-3.0073
X6.1732Y-3.4528
X6.248Y-3.5787
X6.2559Y-3.3307
X6.2602Y-3.1608
X6.2602Y-3.2041
X6.3744Y-3.5742
X6.4044Y-3.3695
X6.4217Y-3.5742
X6.5276Y-3.7165
X6.6181Y-3.7598
X6.6693Y-3.7165
X6.7287Y-3.1057
X6.7754Y-3.719
X6.776Y-3.1057
X6.9413Y-3.3341
X6.9413Y-3.3734
X6.9882Y-3.3701
X7.0354Y-3.7598
X7.0551Y-3.2953
X7.0791Y-3.0191
X7.122Y-3.3701
X7.122Y-3.5157
X7.1264Y-3.0191
X7.2126Y-3.7165
X7.2362Y-3.5236
X7.2402Y-3.374
X7.2402Y-3.4213
X7.2756Y-3.3425
X7.2835Y-3.5236
X7.2878Y-3.1608
X7.3071Y-3.315
X7.3307Y-3.5236
X7.335Y-3.1608
X7.3622Y-3.7165
X7.4016Y-3.0787
X7.4488Y-3.7598
X7.4685Y-3.4449
X7.6024Y-3.189
X7.6102Y-3.0276
X7.6339Y-3.3346
X7.7874Y-3.5827
X7.8386Y-3.685
X7.8508Y-2.9482
X7.8661Y-3.5039
X7.878Y-3.1024
X7.8976Y-3.2874
X8.1776Y-3.1608
X8.2248Y-3.1608
X8.2484Y-3.3183
X8.2484Y-3.3892
X8.272Y-3.1608
X8.272Y-3.3537
T3
X5.0831Y-3.0964
X5.2799Y-3.0964
T5
X7.7861Y-3.478
T6
X7.2996Y-3.7171
X7.4177Y-3.7171
X6.465Y-3.7171
X6.5831Y-3.7171
X6.8823Y-3.715
X7.0004Y-3.715
T7
X7.8919Y-3.5838
T8
X5.2189Y-3.6136
X5.7248Y-3.2593
X5.9059Y-3.2593
T9
X5.4827Y-3.3774
T10
X5.1134Y-3.6687
T11
X4.8941Y-3.0585
X8.1618Y-3.0585
X8.1618Y-3.649
X4.8941Y-3.649
T12
X5.4413Y-3.0388
X7.6146Y-3.6687
T2
G00X5.0437Y-3.0038
M15
G01X5.0437Y-2.9763
M16
G05
G00X5.3193Y-2.9763
M15
G01X5.3193Y-3.0038
M16
G05
T4
G00X5.5909Y-3.2907
M15
G01X5.5909Y-3.2278
M16
G05
G00X6.0398Y-3.2907
M15
G01X6.0398Y-3.2278
M16
G05
T0
M30
