G04 #@! TF.GenerationSoftware,KiCad,Pcbnew,(5.1.5)-3*
G04 #@! TF.CreationDate,2021-06-22T21:37:00+02:00*
G04 #@! TF.ProjectId,18650_UPS_PCB,31383635-305f-4555-9053-5f5043422e6b,rev?*
G04 #@! TF.SameCoordinates,Original*
G04 #@! TF.FileFunction,Copper,L3,Inr*
G04 #@! TF.FilePolarity,Positive*
%FSLAX46Y46*%
G04 Gerber Fmt 4.6, Leading zero omitted, Abs format (unit mm)*
G04 Created by KiCad (PCBNEW (5.1.5)-3) date 2021-06-22 21:37:00*
%MOMM*%
%LPD*%
G04 APERTURE LIST*
%ADD10O,1.900000X3.500000*%
%ADD11O,1.200000X1.900000*%
%ADD12C,1.450000*%
%ADD13C,0.800000*%
%ADD14C,1.000000*%
%ADD15C,2.000000*%
%ADD16C,0.400000*%
%ADD17C,0.500000*%
G04 APERTURE END LIST*
D10*
X153410000Y-82785000D03*
X142010000Y-82785000D03*
D11*
X128110000Y-75947500D03*
X135110000Y-75947500D03*
D12*
X129110000Y-78647500D03*
X134110000Y-78647500D03*
D13*
X210110000Y-85185000D03*
X209510000Y-86085000D03*
X209510000Y-84285000D03*
X122610000Y-89785000D03*
X123810000Y-89785000D03*
X125010000Y-89785000D03*
X172110000Y-78885000D03*
X170910000Y-78885000D03*
X144310000Y-90485000D03*
X145510000Y-90485000D03*
X143110000Y-90485000D03*
X155310000Y-78885000D03*
X150400000Y-95500000D03*
X168100000Y-95500000D03*
X178700000Y-95500000D03*
X189200000Y-95500000D03*
X200600000Y-83500000D03*
X208910000Y-80285000D03*
X207710000Y-80285000D03*
X210110000Y-80285000D03*
X156210000Y-76385000D03*
X155110000Y-76385000D03*
X154010000Y-76385000D03*
X162672500Y-85585000D03*
X181010000Y-76685000D03*
X179810000Y-76685000D03*
X176310000Y-85685000D03*
X176310000Y-84685000D03*
X199410000Y-74885000D03*
X169400000Y-94400000D03*
X183200000Y-94400000D03*
X199800000Y-89000000D03*
X193900000Y-84700000D03*
X183900000Y-85700000D03*
X185110000Y-80285000D03*
X186310000Y-80285000D03*
X148910000Y-80285000D03*
X150110000Y-80285000D03*
X159010000Y-80285000D03*
X159010000Y-81385000D03*
X197800000Y-91000000D03*
X186200000Y-89500000D03*
X185000000Y-89500000D03*
X199100000Y-93600000D03*
X193100000Y-81000000D03*
X183800000Y-89500000D03*
X180900000Y-89300000D03*
X193300000Y-76900000D03*
X150900000Y-90900000D03*
X158700000Y-90900000D03*
X184800000Y-84900000D03*
X149700000Y-90900000D03*
X156800000Y-87700000D03*
X185600000Y-84200000D03*
X137110000Y-85185000D03*
X134710000Y-85185000D03*
X135910000Y-85185000D03*
X161910000Y-90785000D03*
X163110000Y-90785000D03*
X177500000Y-85600000D03*
X189700000Y-87500000D03*
X200100000Y-78800000D03*
X188000000Y-78200000D03*
X183900000Y-86900000D03*
X179200000Y-83700000D03*
X187000000Y-94400000D03*
X165800000Y-94400000D03*
X158900000Y-84600000D03*
X180900000Y-85600000D03*
X172096076Y-94463399D03*
D14*
X210084990Y-85510010D02*
X210084990Y-85210010D01*
X209510000Y-86085000D02*
X210084990Y-85510010D01*
X210084990Y-84859990D02*
X210084990Y-85159990D01*
X209510000Y-84285000D02*
X210084990Y-84859990D01*
D15*
X209510000Y-85185000D02*
X199610000Y-85185000D01*
D14*
X209510000Y-86085000D02*
X209510000Y-85185000D01*
X209510000Y-85185000D02*
X209510000Y-84285000D01*
D15*
X197080998Y-85185000D02*
X189580998Y-92685000D01*
X189580998Y-92685000D02*
X150910000Y-92685000D01*
X136910000Y-92685000D02*
X134010000Y-89785000D01*
X134010000Y-89785000D02*
X129310000Y-89785000D01*
X124810000Y-89785000D02*
X123810000Y-89785000D01*
X123610000Y-89785000D02*
X122610000Y-89785000D01*
X125010000Y-89785000D02*
X124810000Y-89785000D01*
X129310000Y-89785000D02*
X125010000Y-89785000D01*
X150910000Y-92685000D02*
X136910000Y-92685000D01*
X123810000Y-89785000D02*
X123810000Y-89785000D01*
X199610000Y-85185000D02*
X197080998Y-85185000D01*
D14*
X143110000Y-90485000D02*
X144310000Y-90485000D01*
X145510000Y-90485000D02*
X144310000Y-90485000D01*
X146710000Y-89285000D02*
X145510000Y-90485000D01*
X143110000Y-90485000D02*
X143910000Y-89685000D01*
X145410000Y-89685000D02*
X146710000Y-88385000D01*
X143910000Y-89685000D02*
X145410000Y-89685000D01*
X146710000Y-88385000D02*
X146710000Y-89285000D01*
X146710000Y-80685000D02*
X148510000Y-78885000D01*
X146710000Y-80685000D02*
X146710000Y-88385000D01*
X172110000Y-78885000D02*
X155310000Y-78885000D01*
X155310000Y-78885000D02*
X148510000Y-78885000D01*
X186310000Y-80285000D02*
X161510000Y-80285000D01*
X155110000Y-80285000D02*
X148910000Y-80285000D01*
X159010000Y-81385000D02*
X159010000Y-80285000D01*
X159510000Y-80885000D02*
X159010000Y-81385000D01*
X159510000Y-80285000D02*
X159510000Y-80885000D01*
X159510000Y-80285000D02*
X159010000Y-80285000D01*
X158510000Y-80885000D02*
X159010000Y-81385000D01*
X159010000Y-80285000D02*
X158510000Y-80285000D01*
X158510000Y-80285000D02*
X158510000Y-80885000D01*
X158510000Y-80285000D02*
X155110000Y-80285000D01*
X161510000Y-80285000D02*
X159510000Y-80285000D01*
X183910000Y-90785000D02*
X188810000Y-90785000D01*
D16*
X177500000Y-90400000D02*
X177100000Y-90800000D01*
X177500000Y-85600000D02*
X177500000Y-90400000D01*
D14*
X161910000Y-90785000D02*
X177100000Y-90800000D01*
X177100000Y-90800000D02*
X183910000Y-90785000D01*
X189700000Y-89895000D02*
X188810000Y-90785000D01*
X189700000Y-87500000D02*
X189700000Y-89895000D01*
D17*
X189700000Y-87500000D02*
X198300000Y-78900000D01*
X198300000Y-78900000D02*
X200000000Y-78900000D01*
X200000000Y-78900000D02*
X200100000Y-78800000D01*
M02*
