G04 #@! TF.GenerationSoftware,KiCad,Pcbnew,(5.1.5)-3*
G04 #@! TF.CreationDate,2021-06-22T21:37:00+02:00*
G04 #@! TF.ProjectId,18650_UPS_PCB,31383635-305f-4555-9053-5f5043422e6b,rev?*
G04 #@! TF.SameCoordinates,Original*
G04 #@! TF.FileFunction,Copper,L1,Top*
G04 #@! TF.FilePolarity,Positive*
%FSLAX46Y46*%
G04 Gerber Fmt 4.6, Leading zero omitted, Abs format (unit mm)*
G04 Created by KiCad (PCBNEW (5.1.5)-3) date 2021-06-22 21:37:00*
%MOMM*%
%LPD*%
G04 APERTURE LIST*
%ADD10R,1.450000X0.450000*%
%ADD11R,0.400000X0.650000*%
%ADD12R,1.060000X0.650000*%
%ADD13R,0.450000X1.450000*%
%ADD14R,0.650000X1.220000*%
%ADD15R,1.000000X0.800000*%
%ADD16R,0.700000X1.500000*%
%ADD17R,2.800000X2.400000*%
%ADD18R,1.575000X1.700000*%
%ADD19C,0.100000*%
%ADD20R,3.700000X1.200000*%
%ADD21R,5.700000X1.600000*%
%ADD22O,1.900000X3.500000*%
%ADD23R,1.100000X2.500000*%
%ADD24R,1.000000X1.500000*%
%ADD25R,2.510000X1.000000*%
%ADD26R,1.000000X3.000000*%
%ADD27R,1.200000X1.900000*%
%ADD28O,1.200000X1.900000*%
%ADD29R,1.500000X1.900000*%
%ADD30C,1.450000*%
%ADD31R,0.400000X1.350000*%
%ADD32R,0.740000X2.400000*%
%ADD33C,0.800000*%
%ADD34C,0.500000*%
%ADD35C,1.000000*%
%ADD36C,0.400000*%
%ADD37C,0.700000*%
%ADD38C,2.000000*%
G04 APERTURE END LIST*
D10*
X188310000Y-84510000D03*
X188310000Y-85160000D03*
X188310000Y-85810000D03*
X188310000Y-86460000D03*
X188310000Y-87110000D03*
X188310000Y-87760000D03*
X188310000Y-88410000D03*
X188310000Y-89060000D03*
X188310000Y-89710000D03*
X188310000Y-90360000D03*
X182410000Y-90360000D03*
X182410000Y-89710000D03*
X182410000Y-89060000D03*
X182410000Y-88410000D03*
X182410000Y-87760000D03*
X182410000Y-87110000D03*
X182410000Y-86460000D03*
X182410000Y-85810000D03*
X182410000Y-85160000D03*
X182410000Y-84510000D03*
D11*
X161860000Y-86535000D03*
X160560000Y-86535000D03*
X161210000Y-84635000D03*
X160560000Y-84635000D03*
X161860000Y-84635000D03*
D12*
X174110000Y-88835000D03*
X174110000Y-87885000D03*
X174110000Y-86935000D03*
X171910000Y-86935000D03*
X171910000Y-88835000D03*
X176310000Y-81235000D03*
X176310000Y-79335000D03*
X178510000Y-79335000D03*
X178510000Y-80285000D03*
X178510000Y-81235000D03*
D13*
X209885000Y-88035000D03*
X209235000Y-88035000D03*
X208585000Y-88035000D03*
X207935000Y-88035000D03*
X207935000Y-82135000D03*
X208585000Y-82135000D03*
X209235000Y-82135000D03*
X209885000Y-82135000D03*
D14*
X122860000Y-84875000D03*
X124760000Y-84875000D03*
X124760000Y-87495000D03*
X123810000Y-87495000D03*
X122860000Y-87495000D03*
D12*
X204010000Y-84785000D03*
X204010000Y-85735000D03*
X204010000Y-83835000D03*
X206210000Y-83835000D03*
X206210000Y-84785000D03*
X206210000Y-85735000D03*
D15*
X162060000Y-93305000D03*
X169360000Y-93305000D03*
X169360000Y-95515000D03*
X162060000Y-95515000D03*
D16*
X167960000Y-92655000D03*
X166460000Y-92655000D03*
X163460000Y-92655000D03*
D15*
X183260000Y-93305000D03*
X190560000Y-93305000D03*
X190560000Y-95515000D03*
X183260000Y-95515000D03*
D16*
X189160000Y-92655000D03*
X187660000Y-92655000D03*
X184660000Y-92655000D03*
D15*
X172660000Y-93250000D03*
X179960000Y-93250000D03*
X179960000Y-95460000D03*
X172660000Y-95460000D03*
D16*
X178560000Y-92600000D03*
X177060000Y-92600000D03*
X174060000Y-92600000D03*
D17*
X133610000Y-82835000D03*
X138210000Y-82835000D03*
X138210000Y-94735000D03*
X133610000Y-94735000D03*
D18*
X130697500Y-87785000D03*
X141122500Y-89785000D03*
G04 #@! TA.AperFunction,SMDPad,CuDef*
D19*
G36*
X181887691Y-94736053D02*
G01*
X181908926Y-94739203D01*
X181929750Y-94744419D01*
X181949962Y-94751651D01*
X181969368Y-94760830D01*
X181987781Y-94771866D01*
X182005024Y-94784654D01*
X182020930Y-94799070D01*
X182035346Y-94814976D01*
X182048134Y-94832219D01*
X182059170Y-94850632D01*
X182068349Y-94870038D01*
X182075581Y-94890250D01*
X182080797Y-94911074D01*
X182083947Y-94932309D01*
X182085000Y-94953750D01*
X182085000Y-95391250D01*
X182083947Y-95412691D01*
X182080797Y-95433926D01*
X182075581Y-95454750D01*
X182068349Y-95474962D01*
X182059170Y-95494368D01*
X182048134Y-95512781D01*
X182035346Y-95530024D01*
X182020930Y-95545930D01*
X182005024Y-95560346D01*
X181987781Y-95573134D01*
X181969368Y-95584170D01*
X181949962Y-95593349D01*
X181929750Y-95600581D01*
X181908926Y-95605797D01*
X181887691Y-95608947D01*
X181866250Y-95610000D01*
X181353750Y-95610000D01*
X181332309Y-95608947D01*
X181311074Y-95605797D01*
X181290250Y-95600581D01*
X181270038Y-95593349D01*
X181250632Y-95584170D01*
X181232219Y-95573134D01*
X181214976Y-95560346D01*
X181199070Y-95545930D01*
X181184654Y-95530024D01*
X181171866Y-95512781D01*
X181160830Y-95494368D01*
X181151651Y-95474962D01*
X181144419Y-95454750D01*
X181139203Y-95433926D01*
X181136053Y-95412691D01*
X181135000Y-95391250D01*
X181135000Y-94953750D01*
X181136053Y-94932309D01*
X181139203Y-94911074D01*
X181144419Y-94890250D01*
X181151651Y-94870038D01*
X181160830Y-94850632D01*
X181171866Y-94832219D01*
X181184654Y-94814976D01*
X181199070Y-94799070D01*
X181214976Y-94784654D01*
X181232219Y-94771866D01*
X181250632Y-94760830D01*
X181270038Y-94751651D01*
X181290250Y-94744419D01*
X181311074Y-94739203D01*
X181332309Y-94736053D01*
X181353750Y-94735000D01*
X181866250Y-94735000D01*
X181887691Y-94736053D01*
G37*
G04 #@! TD.AperFunction*
G04 #@! TA.AperFunction,SMDPad,CuDef*
G36*
X181887691Y-93161053D02*
G01*
X181908926Y-93164203D01*
X181929750Y-93169419D01*
X181949962Y-93176651D01*
X181969368Y-93185830D01*
X181987781Y-93196866D01*
X182005024Y-93209654D01*
X182020930Y-93224070D01*
X182035346Y-93239976D01*
X182048134Y-93257219D01*
X182059170Y-93275632D01*
X182068349Y-93295038D01*
X182075581Y-93315250D01*
X182080797Y-93336074D01*
X182083947Y-93357309D01*
X182085000Y-93378750D01*
X182085000Y-93816250D01*
X182083947Y-93837691D01*
X182080797Y-93858926D01*
X182075581Y-93879750D01*
X182068349Y-93899962D01*
X182059170Y-93919368D01*
X182048134Y-93937781D01*
X182035346Y-93955024D01*
X182020930Y-93970930D01*
X182005024Y-93985346D01*
X181987781Y-93998134D01*
X181969368Y-94009170D01*
X181949962Y-94018349D01*
X181929750Y-94025581D01*
X181908926Y-94030797D01*
X181887691Y-94033947D01*
X181866250Y-94035000D01*
X181353750Y-94035000D01*
X181332309Y-94033947D01*
X181311074Y-94030797D01*
X181290250Y-94025581D01*
X181270038Y-94018349D01*
X181250632Y-94009170D01*
X181232219Y-93998134D01*
X181214976Y-93985346D01*
X181199070Y-93970930D01*
X181184654Y-93955024D01*
X181171866Y-93937781D01*
X181160830Y-93919368D01*
X181151651Y-93899962D01*
X181144419Y-93879750D01*
X181139203Y-93858926D01*
X181136053Y-93837691D01*
X181135000Y-93816250D01*
X181135000Y-93378750D01*
X181136053Y-93357309D01*
X181139203Y-93336074D01*
X181144419Y-93315250D01*
X181151651Y-93295038D01*
X181160830Y-93275632D01*
X181171866Y-93257219D01*
X181184654Y-93239976D01*
X181199070Y-93224070D01*
X181214976Y-93209654D01*
X181232219Y-93196866D01*
X181250632Y-93185830D01*
X181270038Y-93176651D01*
X181290250Y-93169419D01*
X181311074Y-93164203D01*
X181332309Y-93161053D01*
X181353750Y-93160000D01*
X181866250Y-93160000D01*
X181887691Y-93161053D01*
G37*
G04 #@! TD.AperFunction*
G04 #@! TA.AperFunction,SMDPad,CuDef*
G36*
X171287691Y-94736053D02*
G01*
X171308926Y-94739203D01*
X171329750Y-94744419D01*
X171349962Y-94751651D01*
X171369368Y-94760830D01*
X171387781Y-94771866D01*
X171405024Y-94784654D01*
X171420930Y-94799070D01*
X171435346Y-94814976D01*
X171448134Y-94832219D01*
X171459170Y-94850632D01*
X171468349Y-94870038D01*
X171475581Y-94890250D01*
X171480797Y-94911074D01*
X171483947Y-94932309D01*
X171485000Y-94953750D01*
X171485000Y-95391250D01*
X171483947Y-95412691D01*
X171480797Y-95433926D01*
X171475581Y-95454750D01*
X171468349Y-95474962D01*
X171459170Y-95494368D01*
X171448134Y-95512781D01*
X171435346Y-95530024D01*
X171420930Y-95545930D01*
X171405024Y-95560346D01*
X171387781Y-95573134D01*
X171369368Y-95584170D01*
X171349962Y-95593349D01*
X171329750Y-95600581D01*
X171308926Y-95605797D01*
X171287691Y-95608947D01*
X171266250Y-95610000D01*
X170753750Y-95610000D01*
X170732309Y-95608947D01*
X170711074Y-95605797D01*
X170690250Y-95600581D01*
X170670038Y-95593349D01*
X170650632Y-95584170D01*
X170632219Y-95573134D01*
X170614976Y-95560346D01*
X170599070Y-95545930D01*
X170584654Y-95530024D01*
X170571866Y-95512781D01*
X170560830Y-95494368D01*
X170551651Y-95474962D01*
X170544419Y-95454750D01*
X170539203Y-95433926D01*
X170536053Y-95412691D01*
X170535000Y-95391250D01*
X170535000Y-94953750D01*
X170536053Y-94932309D01*
X170539203Y-94911074D01*
X170544419Y-94890250D01*
X170551651Y-94870038D01*
X170560830Y-94850632D01*
X170571866Y-94832219D01*
X170584654Y-94814976D01*
X170599070Y-94799070D01*
X170614976Y-94784654D01*
X170632219Y-94771866D01*
X170650632Y-94760830D01*
X170670038Y-94751651D01*
X170690250Y-94744419D01*
X170711074Y-94739203D01*
X170732309Y-94736053D01*
X170753750Y-94735000D01*
X171266250Y-94735000D01*
X171287691Y-94736053D01*
G37*
G04 #@! TD.AperFunction*
G04 #@! TA.AperFunction,SMDPad,CuDef*
G36*
X171287691Y-93161053D02*
G01*
X171308926Y-93164203D01*
X171329750Y-93169419D01*
X171349962Y-93176651D01*
X171369368Y-93185830D01*
X171387781Y-93196866D01*
X171405024Y-93209654D01*
X171420930Y-93224070D01*
X171435346Y-93239976D01*
X171448134Y-93257219D01*
X171459170Y-93275632D01*
X171468349Y-93295038D01*
X171475581Y-93315250D01*
X171480797Y-93336074D01*
X171483947Y-93357309D01*
X171485000Y-93378750D01*
X171485000Y-93816250D01*
X171483947Y-93837691D01*
X171480797Y-93858926D01*
X171475581Y-93879750D01*
X171468349Y-93899962D01*
X171459170Y-93919368D01*
X171448134Y-93937781D01*
X171435346Y-93955024D01*
X171420930Y-93970930D01*
X171405024Y-93985346D01*
X171387781Y-93998134D01*
X171369368Y-94009170D01*
X171349962Y-94018349D01*
X171329750Y-94025581D01*
X171308926Y-94030797D01*
X171287691Y-94033947D01*
X171266250Y-94035000D01*
X170753750Y-94035000D01*
X170732309Y-94033947D01*
X170711074Y-94030797D01*
X170690250Y-94025581D01*
X170670038Y-94018349D01*
X170650632Y-94009170D01*
X170632219Y-93998134D01*
X170614976Y-93985346D01*
X170599070Y-93970930D01*
X170584654Y-93955024D01*
X170571866Y-93937781D01*
X170560830Y-93919368D01*
X170551651Y-93899962D01*
X170544419Y-93879750D01*
X170539203Y-93858926D01*
X170536053Y-93837691D01*
X170535000Y-93816250D01*
X170535000Y-93378750D01*
X170536053Y-93357309D01*
X170539203Y-93336074D01*
X170544419Y-93315250D01*
X170551651Y-93295038D01*
X170560830Y-93275632D01*
X170571866Y-93257219D01*
X170584654Y-93239976D01*
X170599070Y-93224070D01*
X170614976Y-93209654D01*
X170632219Y-93196866D01*
X170650632Y-93185830D01*
X170670038Y-93176651D01*
X170690250Y-93169419D01*
X170711074Y-93164203D01*
X170732309Y-93161053D01*
X170753750Y-93160000D01*
X171266250Y-93160000D01*
X171287691Y-93161053D01*
G37*
G04 #@! TD.AperFunction*
G04 #@! TA.AperFunction,SMDPad,CuDef*
G36*
X123262691Y-82311053D02*
G01*
X123283926Y-82314203D01*
X123304750Y-82319419D01*
X123324962Y-82326651D01*
X123344368Y-82335830D01*
X123362781Y-82346866D01*
X123380024Y-82359654D01*
X123395930Y-82374070D01*
X123410346Y-82389976D01*
X123423134Y-82407219D01*
X123434170Y-82425632D01*
X123443349Y-82445038D01*
X123450581Y-82465250D01*
X123455797Y-82486074D01*
X123458947Y-82507309D01*
X123460000Y-82528750D01*
X123460000Y-83041250D01*
X123458947Y-83062691D01*
X123455797Y-83083926D01*
X123450581Y-83104750D01*
X123443349Y-83124962D01*
X123434170Y-83144368D01*
X123423134Y-83162781D01*
X123410346Y-83180024D01*
X123395930Y-83195930D01*
X123380024Y-83210346D01*
X123362781Y-83223134D01*
X123344368Y-83234170D01*
X123324962Y-83243349D01*
X123304750Y-83250581D01*
X123283926Y-83255797D01*
X123262691Y-83258947D01*
X123241250Y-83260000D01*
X122803750Y-83260000D01*
X122782309Y-83258947D01*
X122761074Y-83255797D01*
X122740250Y-83250581D01*
X122720038Y-83243349D01*
X122700632Y-83234170D01*
X122682219Y-83223134D01*
X122664976Y-83210346D01*
X122649070Y-83195930D01*
X122634654Y-83180024D01*
X122621866Y-83162781D01*
X122610830Y-83144368D01*
X122601651Y-83124962D01*
X122594419Y-83104750D01*
X122589203Y-83083926D01*
X122586053Y-83062691D01*
X122585000Y-83041250D01*
X122585000Y-82528750D01*
X122586053Y-82507309D01*
X122589203Y-82486074D01*
X122594419Y-82465250D01*
X122601651Y-82445038D01*
X122610830Y-82425632D01*
X122621866Y-82407219D01*
X122634654Y-82389976D01*
X122649070Y-82374070D01*
X122664976Y-82359654D01*
X122682219Y-82346866D01*
X122700632Y-82335830D01*
X122720038Y-82326651D01*
X122740250Y-82319419D01*
X122761074Y-82314203D01*
X122782309Y-82311053D01*
X122803750Y-82310000D01*
X123241250Y-82310000D01*
X123262691Y-82311053D01*
G37*
G04 #@! TD.AperFunction*
G04 #@! TA.AperFunction,SMDPad,CuDef*
G36*
X124837691Y-82311053D02*
G01*
X124858926Y-82314203D01*
X124879750Y-82319419D01*
X124899962Y-82326651D01*
X124919368Y-82335830D01*
X124937781Y-82346866D01*
X124955024Y-82359654D01*
X124970930Y-82374070D01*
X124985346Y-82389976D01*
X124998134Y-82407219D01*
X125009170Y-82425632D01*
X125018349Y-82445038D01*
X125025581Y-82465250D01*
X125030797Y-82486074D01*
X125033947Y-82507309D01*
X125035000Y-82528750D01*
X125035000Y-83041250D01*
X125033947Y-83062691D01*
X125030797Y-83083926D01*
X125025581Y-83104750D01*
X125018349Y-83124962D01*
X125009170Y-83144368D01*
X124998134Y-83162781D01*
X124985346Y-83180024D01*
X124970930Y-83195930D01*
X124955024Y-83210346D01*
X124937781Y-83223134D01*
X124919368Y-83234170D01*
X124899962Y-83243349D01*
X124879750Y-83250581D01*
X124858926Y-83255797D01*
X124837691Y-83258947D01*
X124816250Y-83260000D01*
X124378750Y-83260000D01*
X124357309Y-83258947D01*
X124336074Y-83255797D01*
X124315250Y-83250581D01*
X124295038Y-83243349D01*
X124275632Y-83234170D01*
X124257219Y-83223134D01*
X124239976Y-83210346D01*
X124224070Y-83195930D01*
X124209654Y-83180024D01*
X124196866Y-83162781D01*
X124185830Y-83144368D01*
X124176651Y-83124962D01*
X124169419Y-83104750D01*
X124164203Y-83083926D01*
X124161053Y-83062691D01*
X124160000Y-83041250D01*
X124160000Y-82528750D01*
X124161053Y-82507309D01*
X124164203Y-82486074D01*
X124169419Y-82465250D01*
X124176651Y-82445038D01*
X124185830Y-82425632D01*
X124196866Y-82407219D01*
X124209654Y-82389976D01*
X124224070Y-82374070D01*
X124239976Y-82359654D01*
X124257219Y-82346866D01*
X124275632Y-82335830D01*
X124295038Y-82326651D01*
X124315250Y-82319419D01*
X124336074Y-82314203D01*
X124357309Y-82311053D01*
X124378750Y-82310000D01*
X124816250Y-82310000D01*
X124837691Y-82311053D01*
G37*
G04 #@! TD.AperFunction*
G04 #@! TA.AperFunction,SMDPad,CuDef*
G36*
X204462691Y-81511053D02*
G01*
X204483926Y-81514203D01*
X204504750Y-81519419D01*
X204524962Y-81526651D01*
X204544368Y-81535830D01*
X204562781Y-81546866D01*
X204580024Y-81559654D01*
X204595930Y-81574070D01*
X204610346Y-81589976D01*
X204623134Y-81607219D01*
X204634170Y-81625632D01*
X204643349Y-81645038D01*
X204650581Y-81665250D01*
X204655797Y-81686074D01*
X204658947Y-81707309D01*
X204660000Y-81728750D01*
X204660000Y-82241250D01*
X204658947Y-82262691D01*
X204655797Y-82283926D01*
X204650581Y-82304750D01*
X204643349Y-82324962D01*
X204634170Y-82344368D01*
X204623134Y-82362781D01*
X204610346Y-82380024D01*
X204595930Y-82395930D01*
X204580024Y-82410346D01*
X204562781Y-82423134D01*
X204544368Y-82434170D01*
X204524962Y-82443349D01*
X204504750Y-82450581D01*
X204483926Y-82455797D01*
X204462691Y-82458947D01*
X204441250Y-82460000D01*
X204003750Y-82460000D01*
X203982309Y-82458947D01*
X203961074Y-82455797D01*
X203940250Y-82450581D01*
X203920038Y-82443349D01*
X203900632Y-82434170D01*
X203882219Y-82423134D01*
X203864976Y-82410346D01*
X203849070Y-82395930D01*
X203834654Y-82380024D01*
X203821866Y-82362781D01*
X203810830Y-82344368D01*
X203801651Y-82324962D01*
X203794419Y-82304750D01*
X203789203Y-82283926D01*
X203786053Y-82262691D01*
X203785000Y-82241250D01*
X203785000Y-81728750D01*
X203786053Y-81707309D01*
X203789203Y-81686074D01*
X203794419Y-81665250D01*
X203801651Y-81645038D01*
X203810830Y-81625632D01*
X203821866Y-81607219D01*
X203834654Y-81589976D01*
X203849070Y-81574070D01*
X203864976Y-81559654D01*
X203882219Y-81546866D01*
X203900632Y-81535830D01*
X203920038Y-81526651D01*
X203940250Y-81519419D01*
X203961074Y-81514203D01*
X203982309Y-81511053D01*
X204003750Y-81510000D01*
X204441250Y-81510000D01*
X204462691Y-81511053D01*
G37*
G04 #@! TD.AperFunction*
G04 #@! TA.AperFunction,SMDPad,CuDef*
G36*
X206037691Y-81511053D02*
G01*
X206058926Y-81514203D01*
X206079750Y-81519419D01*
X206099962Y-81526651D01*
X206119368Y-81535830D01*
X206137781Y-81546866D01*
X206155024Y-81559654D01*
X206170930Y-81574070D01*
X206185346Y-81589976D01*
X206198134Y-81607219D01*
X206209170Y-81625632D01*
X206218349Y-81645038D01*
X206225581Y-81665250D01*
X206230797Y-81686074D01*
X206233947Y-81707309D01*
X206235000Y-81728750D01*
X206235000Y-82241250D01*
X206233947Y-82262691D01*
X206230797Y-82283926D01*
X206225581Y-82304750D01*
X206218349Y-82324962D01*
X206209170Y-82344368D01*
X206198134Y-82362781D01*
X206185346Y-82380024D01*
X206170930Y-82395930D01*
X206155024Y-82410346D01*
X206137781Y-82423134D01*
X206119368Y-82434170D01*
X206099962Y-82443349D01*
X206079750Y-82450581D01*
X206058926Y-82455797D01*
X206037691Y-82458947D01*
X206016250Y-82460000D01*
X205578750Y-82460000D01*
X205557309Y-82458947D01*
X205536074Y-82455797D01*
X205515250Y-82450581D01*
X205495038Y-82443349D01*
X205475632Y-82434170D01*
X205457219Y-82423134D01*
X205439976Y-82410346D01*
X205424070Y-82395930D01*
X205409654Y-82380024D01*
X205396866Y-82362781D01*
X205385830Y-82344368D01*
X205376651Y-82324962D01*
X205369419Y-82304750D01*
X205364203Y-82283926D01*
X205361053Y-82262691D01*
X205360000Y-82241250D01*
X205360000Y-81728750D01*
X205361053Y-81707309D01*
X205364203Y-81686074D01*
X205369419Y-81665250D01*
X205376651Y-81645038D01*
X205385830Y-81625632D01*
X205396866Y-81607219D01*
X205409654Y-81589976D01*
X205424070Y-81574070D01*
X205439976Y-81559654D01*
X205457219Y-81546866D01*
X205475632Y-81535830D01*
X205495038Y-81526651D01*
X205515250Y-81519419D01*
X205536074Y-81514203D01*
X205557309Y-81511053D01*
X205578750Y-81510000D01*
X206016250Y-81510000D01*
X206037691Y-81511053D01*
G37*
G04 #@! TD.AperFunction*
G04 #@! TA.AperFunction,SMDPad,CuDef*
G36*
X129087691Y-85761053D02*
G01*
X129108926Y-85764203D01*
X129129750Y-85769419D01*
X129149962Y-85776651D01*
X129169368Y-85785830D01*
X129187781Y-85796866D01*
X129205024Y-85809654D01*
X129220930Y-85824070D01*
X129235346Y-85839976D01*
X129248134Y-85857219D01*
X129259170Y-85875632D01*
X129268349Y-85895038D01*
X129275581Y-85915250D01*
X129280797Y-85936074D01*
X129283947Y-85957309D01*
X129285000Y-85978750D01*
X129285000Y-86416250D01*
X129283947Y-86437691D01*
X129280797Y-86458926D01*
X129275581Y-86479750D01*
X129268349Y-86499962D01*
X129259170Y-86519368D01*
X129248134Y-86537781D01*
X129235346Y-86555024D01*
X129220930Y-86570930D01*
X129205024Y-86585346D01*
X129187781Y-86598134D01*
X129169368Y-86609170D01*
X129149962Y-86618349D01*
X129129750Y-86625581D01*
X129108926Y-86630797D01*
X129087691Y-86633947D01*
X129066250Y-86635000D01*
X128553750Y-86635000D01*
X128532309Y-86633947D01*
X128511074Y-86630797D01*
X128490250Y-86625581D01*
X128470038Y-86618349D01*
X128450632Y-86609170D01*
X128432219Y-86598134D01*
X128414976Y-86585346D01*
X128399070Y-86570930D01*
X128384654Y-86555024D01*
X128371866Y-86537781D01*
X128360830Y-86519368D01*
X128351651Y-86499962D01*
X128344419Y-86479750D01*
X128339203Y-86458926D01*
X128336053Y-86437691D01*
X128335000Y-86416250D01*
X128335000Y-85978750D01*
X128336053Y-85957309D01*
X128339203Y-85936074D01*
X128344419Y-85915250D01*
X128351651Y-85895038D01*
X128360830Y-85875632D01*
X128371866Y-85857219D01*
X128384654Y-85839976D01*
X128399070Y-85824070D01*
X128414976Y-85809654D01*
X128432219Y-85796866D01*
X128450632Y-85785830D01*
X128470038Y-85776651D01*
X128490250Y-85769419D01*
X128511074Y-85764203D01*
X128532309Y-85761053D01*
X128553750Y-85760000D01*
X129066250Y-85760000D01*
X129087691Y-85761053D01*
G37*
G04 #@! TD.AperFunction*
G04 #@! TA.AperFunction,SMDPad,CuDef*
G36*
X129087691Y-87336053D02*
G01*
X129108926Y-87339203D01*
X129129750Y-87344419D01*
X129149962Y-87351651D01*
X129169368Y-87360830D01*
X129187781Y-87371866D01*
X129205024Y-87384654D01*
X129220930Y-87399070D01*
X129235346Y-87414976D01*
X129248134Y-87432219D01*
X129259170Y-87450632D01*
X129268349Y-87470038D01*
X129275581Y-87490250D01*
X129280797Y-87511074D01*
X129283947Y-87532309D01*
X129285000Y-87553750D01*
X129285000Y-87991250D01*
X129283947Y-88012691D01*
X129280797Y-88033926D01*
X129275581Y-88054750D01*
X129268349Y-88074962D01*
X129259170Y-88094368D01*
X129248134Y-88112781D01*
X129235346Y-88130024D01*
X129220930Y-88145930D01*
X129205024Y-88160346D01*
X129187781Y-88173134D01*
X129169368Y-88184170D01*
X129149962Y-88193349D01*
X129129750Y-88200581D01*
X129108926Y-88205797D01*
X129087691Y-88208947D01*
X129066250Y-88210000D01*
X128553750Y-88210000D01*
X128532309Y-88208947D01*
X128511074Y-88205797D01*
X128490250Y-88200581D01*
X128470038Y-88193349D01*
X128450632Y-88184170D01*
X128432219Y-88173134D01*
X128414976Y-88160346D01*
X128399070Y-88145930D01*
X128384654Y-88130024D01*
X128371866Y-88112781D01*
X128360830Y-88094368D01*
X128351651Y-88074962D01*
X128344419Y-88054750D01*
X128339203Y-88033926D01*
X128336053Y-88012691D01*
X128335000Y-87991250D01*
X128335000Y-87553750D01*
X128336053Y-87532309D01*
X128339203Y-87511074D01*
X128344419Y-87490250D01*
X128351651Y-87470038D01*
X128360830Y-87450632D01*
X128371866Y-87432219D01*
X128384654Y-87414976D01*
X128399070Y-87399070D01*
X128414976Y-87384654D01*
X128432219Y-87371866D01*
X128450632Y-87360830D01*
X128470038Y-87351651D01*
X128490250Y-87344419D01*
X128511074Y-87339203D01*
X128532309Y-87336053D01*
X128553750Y-87335000D01*
X129066250Y-87335000D01*
X129087691Y-87336053D01*
G37*
G04 #@! TD.AperFunction*
G04 #@! TA.AperFunction,SMDPad,CuDef*
G36*
X145759505Y-93911204D02*
G01*
X145783773Y-93914804D01*
X145807572Y-93920765D01*
X145830671Y-93929030D01*
X145852850Y-93939520D01*
X145873893Y-93952132D01*
X145893599Y-93966747D01*
X145911777Y-93983223D01*
X145928253Y-94001401D01*
X145942868Y-94021107D01*
X145955480Y-94042150D01*
X145965970Y-94064329D01*
X145974235Y-94087428D01*
X145980196Y-94111227D01*
X145983796Y-94135495D01*
X145985000Y-94159999D01*
X145985000Y-95010001D01*
X145983796Y-95034505D01*
X145980196Y-95058773D01*
X145974235Y-95082572D01*
X145965970Y-95105671D01*
X145955480Y-95127850D01*
X145942868Y-95148893D01*
X145928253Y-95168599D01*
X145911777Y-95186777D01*
X145893599Y-95203253D01*
X145873893Y-95217868D01*
X145852850Y-95230480D01*
X145830671Y-95240970D01*
X145807572Y-95249235D01*
X145783773Y-95255196D01*
X145759505Y-95258796D01*
X145735001Y-95260000D01*
X142884999Y-95260000D01*
X142860495Y-95258796D01*
X142836227Y-95255196D01*
X142812428Y-95249235D01*
X142789329Y-95240970D01*
X142767150Y-95230480D01*
X142746107Y-95217868D01*
X142726401Y-95203253D01*
X142708223Y-95186777D01*
X142691747Y-95168599D01*
X142677132Y-95148893D01*
X142664520Y-95127850D01*
X142654030Y-95105671D01*
X142645765Y-95082572D01*
X142639804Y-95058773D01*
X142636204Y-95034505D01*
X142635000Y-95010001D01*
X142635000Y-94159999D01*
X142636204Y-94135495D01*
X142639804Y-94111227D01*
X142645765Y-94087428D01*
X142654030Y-94064329D01*
X142664520Y-94042150D01*
X142677132Y-94021107D01*
X142691747Y-94001401D01*
X142708223Y-93983223D01*
X142726401Y-93966747D01*
X142746107Y-93952132D01*
X142767150Y-93939520D01*
X142789329Y-93929030D01*
X142812428Y-93920765D01*
X142836227Y-93914804D01*
X142860495Y-93911204D01*
X142884999Y-93910000D01*
X145735001Y-93910000D01*
X145759505Y-93911204D01*
G37*
G04 #@! TD.AperFunction*
G04 #@! TA.AperFunction,SMDPad,CuDef*
G36*
X145759505Y-88111204D02*
G01*
X145783773Y-88114804D01*
X145807572Y-88120765D01*
X145830671Y-88129030D01*
X145852850Y-88139520D01*
X145873893Y-88152132D01*
X145893599Y-88166747D01*
X145911777Y-88183223D01*
X145928253Y-88201401D01*
X145942868Y-88221107D01*
X145955480Y-88242150D01*
X145965970Y-88264329D01*
X145974235Y-88287428D01*
X145980196Y-88311227D01*
X145983796Y-88335495D01*
X145985000Y-88359999D01*
X145985000Y-89210001D01*
X145983796Y-89234505D01*
X145980196Y-89258773D01*
X145974235Y-89282572D01*
X145965970Y-89305671D01*
X145955480Y-89327850D01*
X145942868Y-89348893D01*
X145928253Y-89368599D01*
X145911777Y-89386777D01*
X145893599Y-89403253D01*
X145873893Y-89417868D01*
X145852850Y-89430480D01*
X145830671Y-89440970D01*
X145807572Y-89449235D01*
X145783773Y-89455196D01*
X145759505Y-89458796D01*
X145735001Y-89460000D01*
X142884999Y-89460000D01*
X142860495Y-89458796D01*
X142836227Y-89455196D01*
X142812428Y-89449235D01*
X142789329Y-89440970D01*
X142767150Y-89430480D01*
X142746107Y-89417868D01*
X142726401Y-89403253D01*
X142708223Y-89386777D01*
X142691747Y-89368599D01*
X142677132Y-89348893D01*
X142664520Y-89327850D01*
X142654030Y-89305671D01*
X142645765Y-89282572D01*
X142639804Y-89258773D01*
X142636204Y-89234505D01*
X142635000Y-89210001D01*
X142635000Y-88359999D01*
X142636204Y-88335495D01*
X142639804Y-88311227D01*
X142645765Y-88287428D01*
X142654030Y-88264329D01*
X142664520Y-88242150D01*
X142677132Y-88221107D01*
X142691747Y-88201401D01*
X142708223Y-88183223D01*
X142726401Y-88166747D01*
X142746107Y-88152132D01*
X142767150Y-88139520D01*
X142789329Y-88129030D01*
X142812428Y-88120765D01*
X142836227Y-88114804D01*
X142860495Y-88111204D01*
X142884999Y-88110000D01*
X145735001Y-88110000D01*
X145759505Y-88111204D01*
G37*
G04 #@! TD.AperFunction*
G04 #@! TA.AperFunction,SMDPad,CuDef*
G36*
X202487691Y-82861053D02*
G01*
X202508926Y-82864203D01*
X202529750Y-82869419D01*
X202549962Y-82876651D01*
X202569368Y-82885830D01*
X202587781Y-82896866D01*
X202605024Y-82909654D01*
X202620930Y-82924070D01*
X202635346Y-82939976D01*
X202648134Y-82957219D01*
X202659170Y-82975632D01*
X202668349Y-82995038D01*
X202675581Y-83015250D01*
X202680797Y-83036074D01*
X202683947Y-83057309D01*
X202685000Y-83078750D01*
X202685000Y-83516250D01*
X202683947Y-83537691D01*
X202680797Y-83558926D01*
X202675581Y-83579750D01*
X202668349Y-83599962D01*
X202659170Y-83619368D01*
X202648134Y-83637781D01*
X202635346Y-83655024D01*
X202620930Y-83670930D01*
X202605024Y-83685346D01*
X202587781Y-83698134D01*
X202569368Y-83709170D01*
X202549962Y-83718349D01*
X202529750Y-83725581D01*
X202508926Y-83730797D01*
X202487691Y-83733947D01*
X202466250Y-83735000D01*
X201953750Y-83735000D01*
X201932309Y-83733947D01*
X201911074Y-83730797D01*
X201890250Y-83725581D01*
X201870038Y-83718349D01*
X201850632Y-83709170D01*
X201832219Y-83698134D01*
X201814976Y-83685346D01*
X201799070Y-83670930D01*
X201784654Y-83655024D01*
X201771866Y-83637781D01*
X201760830Y-83619368D01*
X201751651Y-83599962D01*
X201744419Y-83579750D01*
X201739203Y-83558926D01*
X201736053Y-83537691D01*
X201735000Y-83516250D01*
X201735000Y-83078750D01*
X201736053Y-83057309D01*
X201739203Y-83036074D01*
X201744419Y-83015250D01*
X201751651Y-82995038D01*
X201760830Y-82975632D01*
X201771866Y-82957219D01*
X201784654Y-82939976D01*
X201799070Y-82924070D01*
X201814976Y-82909654D01*
X201832219Y-82896866D01*
X201850632Y-82885830D01*
X201870038Y-82876651D01*
X201890250Y-82869419D01*
X201911074Y-82864203D01*
X201932309Y-82861053D01*
X201953750Y-82860000D01*
X202466250Y-82860000D01*
X202487691Y-82861053D01*
G37*
G04 #@! TD.AperFunction*
G04 #@! TA.AperFunction,SMDPad,CuDef*
G36*
X202487691Y-84436053D02*
G01*
X202508926Y-84439203D01*
X202529750Y-84444419D01*
X202549962Y-84451651D01*
X202569368Y-84460830D01*
X202587781Y-84471866D01*
X202605024Y-84484654D01*
X202620930Y-84499070D01*
X202635346Y-84514976D01*
X202648134Y-84532219D01*
X202659170Y-84550632D01*
X202668349Y-84570038D01*
X202675581Y-84590250D01*
X202680797Y-84611074D01*
X202683947Y-84632309D01*
X202685000Y-84653750D01*
X202685000Y-85091250D01*
X202683947Y-85112691D01*
X202680797Y-85133926D01*
X202675581Y-85154750D01*
X202668349Y-85174962D01*
X202659170Y-85194368D01*
X202648134Y-85212781D01*
X202635346Y-85230024D01*
X202620930Y-85245930D01*
X202605024Y-85260346D01*
X202587781Y-85273134D01*
X202569368Y-85284170D01*
X202549962Y-85293349D01*
X202529750Y-85300581D01*
X202508926Y-85305797D01*
X202487691Y-85308947D01*
X202466250Y-85310000D01*
X201953750Y-85310000D01*
X201932309Y-85308947D01*
X201911074Y-85305797D01*
X201890250Y-85300581D01*
X201870038Y-85293349D01*
X201850632Y-85284170D01*
X201832219Y-85273134D01*
X201814976Y-85260346D01*
X201799070Y-85245930D01*
X201784654Y-85230024D01*
X201771866Y-85212781D01*
X201760830Y-85194368D01*
X201751651Y-85174962D01*
X201744419Y-85154750D01*
X201739203Y-85133926D01*
X201736053Y-85112691D01*
X201735000Y-85091250D01*
X201735000Y-84653750D01*
X201736053Y-84632309D01*
X201739203Y-84611074D01*
X201744419Y-84590250D01*
X201751651Y-84570038D01*
X201760830Y-84550632D01*
X201771866Y-84532219D01*
X201784654Y-84514976D01*
X201799070Y-84499070D01*
X201814976Y-84484654D01*
X201832219Y-84471866D01*
X201850632Y-84460830D01*
X201870038Y-84451651D01*
X201890250Y-84444419D01*
X201911074Y-84439203D01*
X201932309Y-84436053D01*
X201953750Y-84435000D01*
X202466250Y-84435000D01*
X202487691Y-84436053D01*
G37*
G04 #@! TD.AperFunction*
D20*
X168510000Y-89285000D03*
X168510000Y-86485000D03*
D21*
X171510000Y-81235000D03*
X171510000Y-76535000D03*
D22*
X153410000Y-82785000D03*
X142010000Y-82785000D03*
D23*
X151210000Y-85535000D03*
X144210000Y-85535000D03*
X148710000Y-85535000D03*
X146710000Y-85535000D03*
D24*
X188010000Y-81235000D03*
X191210000Y-81235000D03*
X188010000Y-76335000D03*
X191210000Y-76335000D03*
G04 #@! TA.AperFunction,SMDPad,CuDef*
D19*
G36*
X127087691Y-87336053D02*
G01*
X127108926Y-87339203D01*
X127129750Y-87344419D01*
X127149962Y-87351651D01*
X127169368Y-87360830D01*
X127187781Y-87371866D01*
X127205024Y-87384654D01*
X127220930Y-87399070D01*
X127235346Y-87414976D01*
X127248134Y-87432219D01*
X127259170Y-87450632D01*
X127268349Y-87470038D01*
X127275581Y-87490250D01*
X127280797Y-87511074D01*
X127283947Y-87532309D01*
X127285000Y-87553750D01*
X127285000Y-87991250D01*
X127283947Y-88012691D01*
X127280797Y-88033926D01*
X127275581Y-88054750D01*
X127268349Y-88074962D01*
X127259170Y-88094368D01*
X127248134Y-88112781D01*
X127235346Y-88130024D01*
X127220930Y-88145930D01*
X127205024Y-88160346D01*
X127187781Y-88173134D01*
X127169368Y-88184170D01*
X127149962Y-88193349D01*
X127129750Y-88200581D01*
X127108926Y-88205797D01*
X127087691Y-88208947D01*
X127066250Y-88210000D01*
X126553750Y-88210000D01*
X126532309Y-88208947D01*
X126511074Y-88205797D01*
X126490250Y-88200581D01*
X126470038Y-88193349D01*
X126450632Y-88184170D01*
X126432219Y-88173134D01*
X126414976Y-88160346D01*
X126399070Y-88145930D01*
X126384654Y-88130024D01*
X126371866Y-88112781D01*
X126360830Y-88094368D01*
X126351651Y-88074962D01*
X126344419Y-88054750D01*
X126339203Y-88033926D01*
X126336053Y-88012691D01*
X126335000Y-87991250D01*
X126335000Y-87553750D01*
X126336053Y-87532309D01*
X126339203Y-87511074D01*
X126344419Y-87490250D01*
X126351651Y-87470038D01*
X126360830Y-87450632D01*
X126371866Y-87432219D01*
X126384654Y-87414976D01*
X126399070Y-87399070D01*
X126414976Y-87384654D01*
X126432219Y-87371866D01*
X126450632Y-87360830D01*
X126470038Y-87351651D01*
X126490250Y-87344419D01*
X126511074Y-87339203D01*
X126532309Y-87336053D01*
X126553750Y-87335000D01*
X127066250Y-87335000D01*
X127087691Y-87336053D01*
G37*
G04 #@! TD.AperFunction*
G04 #@! TA.AperFunction,SMDPad,CuDef*
G36*
X127087691Y-85761053D02*
G01*
X127108926Y-85764203D01*
X127129750Y-85769419D01*
X127149962Y-85776651D01*
X127169368Y-85785830D01*
X127187781Y-85796866D01*
X127205024Y-85809654D01*
X127220930Y-85824070D01*
X127235346Y-85839976D01*
X127248134Y-85857219D01*
X127259170Y-85875632D01*
X127268349Y-85895038D01*
X127275581Y-85915250D01*
X127280797Y-85936074D01*
X127283947Y-85957309D01*
X127285000Y-85978750D01*
X127285000Y-86416250D01*
X127283947Y-86437691D01*
X127280797Y-86458926D01*
X127275581Y-86479750D01*
X127268349Y-86499962D01*
X127259170Y-86519368D01*
X127248134Y-86537781D01*
X127235346Y-86555024D01*
X127220930Y-86570930D01*
X127205024Y-86585346D01*
X127187781Y-86598134D01*
X127169368Y-86609170D01*
X127149962Y-86618349D01*
X127129750Y-86625581D01*
X127108926Y-86630797D01*
X127087691Y-86633947D01*
X127066250Y-86635000D01*
X126553750Y-86635000D01*
X126532309Y-86633947D01*
X126511074Y-86630797D01*
X126490250Y-86625581D01*
X126470038Y-86618349D01*
X126450632Y-86609170D01*
X126432219Y-86598134D01*
X126414976Y-86585346D01*
X126399070Y-86570930D01*
X126384654Y-86555024D01*
X126371866Y-86537781D01*
X126360830Y-86519368D01*
X126351651Y-86499962D01*
X126344419Y-86479750D01*
X126339203Y-86458926D01*
X126336053Y-86437691D01*
X126335000Y-86416250D01*
X126335000Y-85978750D01*
X126336053Y-85957309D01*
X126339203Y-85936074D01*
X126344419Y-85915250D01*
X126351651Y-85895038D01*
X126360830Y-85875632D01*
X126371866Y-85857219D01*
X126384654Y-85839976D01*
X126399070Y-85824070D01*
X126414976Y-85809654D01*
X126432219Y-85796866D01*
X126450632Y-85785830D01*
X126470038Y-85776651D01*
X126490250Y-85769419D01*
X126511074Y-85764203D01*
X126532309Y-85761053D01*
X126553750Y-85760000D01*
X127066250Y-85760000D01*
X127087691Y-85761053D01*
G37*
G04 #@! TD.AperFunction*
G04 #@! TA.AperFunction,SMDPad,CuDef*
G36*
X172340142Y-83986174D02*
G01*
X172363803Y-83989684D01*
X172387007Y-83995496D01*
X172409529Y-84003554D01*
X172431153Y-84013782D01*
X172451670Y-84026079D01*
X172470883Y-84040329D01*
X172488607Y-84056393D01*
X172504671Y-84074117D01*
X172518921Y-84093330D01*
X172531218Y-84113847D01*
X172541446Y-84135471D01*
X172549504Y-84157993D01*
X172555316Y-84181197D01*
X172558826Y-84204858D01*
X172560000Y-84228750D01*
X172560000Y-85141250D01*
X172558826Y-85165142D01*
X172555316Y-85188803D01*
X172549504Y-85212007D01*
X172541446Y-85234529D01*
X172531218Y-85256153D01*
X172518921Y-85276670D01*
X172504671Y-85295883D01*
X172488607Y-85313607D01*
X172470883Y-85329671D01*
X172451670Y-85343921D01*
X172431153Y-85356218D01*
X172409529Y-85366446D01*
X172387007Y-85374504D01*
X172363803Y-85380316D01*
X172340142Y-85383826D01*
X172316250Y-85385000D01*
X171828750Y-85385000D01*
X171804858Y-85383826D01*
X171781197Y-85380316D01*
X171757993Y-85374504D01*
X171735471Y-85366446D01*
X171713847Y-85356218D01*
X171693330Y-85343921D01*
X171674117Y-85329671D01*
X171656393Y-85313607D01*
X171640329Y-85295883D01*
X171626079Y-85276670D01*
X171613782Y-85256153D01*
X171603554Y-85234529D01*
X171595496Y-85212007D01*
X171589684Y-85188803D01*
X171586174Y-85165142D01*
X171585000Y-85141250D01*
X171585000Y-84228750D01*
X171586174Y-84204858D01*
X171589684Y-84181197D01*
X171595496Y-84157993D01*
X171603554Y-84135471D01*
X171613782Y-84113847D01*
X171626079Y-84093330D01*
X171640329Y-84074117D01*
X171656393Y-84056393D01*
X171674117Y-84040329D01*
X171693330Y-84026079D01*
X171713847Y-84013782D01*
X171735471Y-84003554D01*
X171757993Y-83995496D01*
X171781197Y-83989684D01*
X171804858Y-83986174D01*
X171828750Y-83985000D01*
X172316250Y-83985000D01*
X172340142Y-83986174D01*
G37*
G04 #@! TD.AperFunction*
G04 #@! TA.AperFunction,SMDPad,CuDef*
G36*
X174215142Y-83986174D02*
G01*
X174238803Y-83989684D01*
X174262007Y-83995496D01*
X174284529Y-84003554D01*
X174306153Y-84013782D01*
X174326670Y-84026079D01*
X174345883Y-84040329D01*
X174363607Y-84056393D01*
X174379671Y-84074117D01*
X174393921Y-84093330D01*
X174406218Y-84113847D01*
X174416446Y-84135471D01*
X174424504Y-84157993D01*
X174430316Y-84181197D01*
X174433826Y-84204858D01*
X174435000Y-84228750D01*
X174435000Y-85141250D01*
X174433826Y-85165142D01*
X174430316Y-85188803D01*
X174424504Y-85212007D01*
X174416446Y-85234529D01*
X174406218Y-85256153D01*
X174393921Y-85276670D01*
X174379671Y-85295883D01*
X174363607Y-85313607D01*
X174345883Y-85329671D01*
X174326670Y-85343921D01*
X174306153Y-85356218D01*
X174284529Y-85366446D01*
X174262007Y-85374504D01*
X174238803Y-85380316D01*
X174215142Y-85383826D01*
X174191250Y-85385000D01*
X173703750Y-85385000D01*
X173679858Y-85383826D01*
X173656197Y-85380316D01*
X173632993Y-85374504D01*
X173610471Y-85366446D01*
X173588847Y-85356218D01*
X173568330Y-85343921D01*
X173549117Y-85329671D01*
X173531393Y-85313607D01*
X173515329Y-85295883D01*
X173501079Y-85276670D01*
X173488782Y-85256153D01*
X173478554Y-85234529D01*
X173470496Y-85212007D01*
X173464684Y-85188803D01*
X173461174Y-85165142D01*
X173460000Y-85141250D01*
X173460000Y-84228750D01*
X173461174Y-84204858D01*
X173464684Y-84181197D01*
X173470496Y-84157993D01*
X173478554Y-84135471D01*
X173488782Y-84113847D01*
X173501079Y-84093330D01*
X173515329Y-84074117D01*
X173531393Y-84056393D01*
X173549117Y-84040329D01*
X173568330Y-84026079D01*
X173588847Y-84013782D01*
X173610471Y-84003554D01*
X173632993Y-83995496D01*
X173656197Y-83989684D01*
X173679858Y-83986174D01*
X173703750Y-83985000D01*
X174191250Y-83985000D01*
X174215142Y-83986174D01*
G37*
G04 #@! TD.AperFunction*
G04 #@! TA.AperFunction,SMDPad,CuDef*
G36*
X164815142Y-88186174D02*
G01*
X164838803Y-88189684D01*
X164862007Y-88195496D01*
X164884529Y-88203554D01*
X164906153Y-88213782D01*
X164926670Y-88226079D01*
X164945883Y-88240329D01*
X164963607Y-88256393D01*
X164979671Y-88274117D01*
X164993921Y-88293330D01*
X165006218Y-88313847D01*
X165016446Y-88335471D01*
X165024504Y-88357993D01*
X165030316Y-88381197D01*
X165033826Y-88404858D01*
X165035000Y-88428750D01*
X165035000Y-89341250D01*
X165033826Y-89365142D01*
X165030316Y-89388803D01*
X165024504Y-89412007D01*
X165016446Y-89434529D01*
X165006218Y-89456153D01*
X164993921Y-89476670D01*
X164979671Y-89495883D01*
X164963607Y-89513607D01*
X164945883Y-89529671D01*
X164926670Y-89543921D01*
X164906153Y-89556218D01*
X164884529Y-89566446D01*
X164862007Y-89574504D01*
X164838803Y-89580316D01*
X164815142Y-89583826D01*
X164791250Y-89585000D01*
X164303750Y-89585000D01*
X164279858Y-89583826D01*
X164256197Y-89580316D01*
X164232993Y-89574504D01*
X164210471Y-89566446D01*
X164188847Y-89556218D01*
X164168330Y-89543921D01*
X164149117Y-89529671D01*
X164131393Y-89513607D01*
X164115329Y-89495883D01*
X164101079Y-89476670D01*
X164088782Y-89456153D01*
X164078554Y-89434529D01*
X164070496Y-89412007D01*
X164064684Y-89388803D01*
X164061174Y-89365142D01*
X164060000Y-89341250D01*
X164060000Y-88428750D01*
X164061174Y-88404858D01*
X164064684Y-88381197D01*
X164070496Y-88357993D01*
X164078554Y-88335471D01*
X164088782Y-88313847D01*
X164101079Y-88293330D01*
X164115329Y-88274117D01*
X164131393Y-88256393D01*
X164149117Y-88240329D01*
X164168330Y-88226079D01*
X164188847Y-88213782D01*
X164210471Y-88203554D01*
X164232993Y-88195496D01*
X164256197Y-88189684D01*
X164279858Y-88186174D01*
X164303750Y-88185000D01*
X164791250Y-88185000D01*
X164815142Y-88186174D01*
G37*
G04 #@! TD.AperFunction*
G04 #@! TA.AperFunction,SMDPad,CuDef*
G36*
X162940142Y-88186174D02*
G01*
X162963803Y-88189684D01*
X162987007Y-88195496D01*
X163009529Y-88203554D01*
X163031153Y-88213782D01*
X163051670Y-88226079D01*
X163070883Y-88240329D01*
X163088607Y-88256393D01*
X163104671Y-88274117D01*
X163118921Y-88293330D01*
X163131218Y-88313847D01*
X163141446Y-88335471D01*
X163149504Y-88357993D01*
X163155316Y-88381197D01*
X163158826Y-88404858D01*
X163160000Y-88428750D01*
X163160000Y-89341250D01*
X163158826Y-89365142D01*
X163155316Y-89388803D01*
X163149504Y-89412007D01*
X163141446Y-89434529D01*
X163131218Y-89456153D01*
X163118921Y-89476670D01*
X163104671Y-89495883D01*
X163088607Y-89513607D01*
X163070883Y-89529671D01*
X163051670Y-89543921D01*
X163031153Y-89556218D01*
X163009529Y-89566446D01*
X162987007Y-89574504D01*
X162963803Y-89580316D01*
X162940142Y-89583826D01*
X162916250Y-89585000D01*
X162428750Y-89585000D01*
X162404858Y-89583826D01*
X162381197Y-89580316D01*
X162357993Y-89574504D01*
X162335471Y-89566446D01*
X162313847Y-89556218D01*
X162293330Y-89543921D01*
X162274117Y-89529671D01*
X162256393Y-89513607D01*
X162240329Y-89495883D01*
X162226079Y-89476670D01*
X162213782Y-89456153D01*
X162203554Y-89434529D01*
X162195496Y-89412007D01*
X162189684Y-89388803D01*
X162186174Y-89365142D01*
X162185000Y-89341250D01*
X162185000Y-88428750D01*
X162186174Y-88404858D01*
X162189684Y-88381197D01*
X162195496Y-88357993D01*
X162203554Y-88335471D01*
X162213782Y-88313847D01*
X162226079Y-88293330D01*
X162240329Y-88274117D01*
X162256393Y-88256393D01*
X162274117Y-88240329D01*
X162293330Y-88226079D01*
X162313847Y-88213782D01*
X162335471Y-88203554D01*
X162357993Y-88195496D01*
X162381197Y-88189684D01*
X162404858Y-88186174D01*
X162428750Y-88185000D01*
X162916250Y-88185000D01*
X162940142Y-88186174D01*
G37*
G04 #@! TD.AperFunction*
G04 #@! TA.AperFunction,SMDPad,CuDef*
G36*
X183584504Y-75186204D02*
G01*
X183608773Y-75189804D01*
X183632571Y-75195765D01*
X183655671Y-75204030D01*
X183677849Y-75214520D01*
X183698893Y-75227133D01*
X183718598Y-75241747D01*
X183736777Y-75258223D01*
X183753253Y-75276402D01*
X183767867Y-75296107D01*
X183780480Y-75317151D01*
X183790970Y-75339329D01*
X183799235Y-75362429D01*
X183805196Y-75386227D01*
X183808796Y-75410496D01*
X183810000Y-75435000D01*
X183810000Y-77935000D01*
X183808796Y-77959504D01*
X183805196Y-77983773D01*
X183799235Y-78007571D01*
X183790970Y-78030671D01*
X183780480Y-78052849D01*
X183767867Y-78073893D01*
X183753253Y-78093598D01*
X183736777Y-78111777D01*
X183718598Y-78128253D01*
X183698893Y-78142867D01*
X183677849Y-78155480D01*
X183655671Y-78165970D01*
X183632571Y-78174235D01*
X183608773Y-78180196D01*
X183584504Y-78183796D01*
X183560000Y-78185000D01*
X182460000Y-78185000D01*
X182435496Y-78183796D01*
X182411227Y-78180196D01*
X182387429Y-78174235D01*
X182364329Y-78165970D01*
X182342151Y-78155480D01*
X182321107Y-78142867D01*
X182301402Y-78128253D01*
X182283223Y-78111777D01*
X182266747Y-78093598D01*
X182252133Y-78073893D01*
X182239520Y-78052849D01*
X182229030Y-78030671D01*
X182220765Y-78007571D01*
X182214804Y-77983773D01*
X182211204Y-77959504D01*
X182210000Y-77935000D01*
X182210000Y-75435000D01*
X182211204Y-75410496D01*
X182214804Y-75386227D01*
X182220765Y-75362429D01*
X182229030Y-75339329D01*
X182239520Y-75317151D01*
X182252133Y-75296107D01*
X182266747Y-75276402D01*
X182283223Y-75258223D01*
X182301402Y-75241747D01*
X182321107Y-75227133D01*
X182342151Y-75214520D01*
X182364329Y-75204030D01*
X182387429Y-75195765D01*
X182411227Y-75189804D01*
X182435496Y-75186204D01*
X182460000Y-75185000D01*
X183560000Y-75185000D01*
X183584504Y-75186204D01*
G37*
G04 #@! TD.AperFunction*
G04 #@! TA.AperFunction,SMDPad,CuDef*
G36*
X183584504Y-79586204D02*
G01*
X183608773Y-79589804D01*
X183632571Y-79595765D01*
X183655671Y-79604030D01*
X183677849Y-79614520D01*
X183698893Y-79627133D01*
X183718598Y-79641747D01*
X183736777Y-79658223D01*
X183753253Y-79676402D01*
X183767867Y-79696107D01*
X183780480Y-79717151D01*
X183790970Y-79739329D01*
X183799235Y-79762429D01*
X183805196Y-79786227D01*
X183808796Y-79810496D01*
X183810000Y-79835000D01*
X183810000Y-82335000D01*
X183808796Y-82359504D01*
X183805196Y-82383773D01*
X183799235Y-82407571D01*
X183790970Y-82430671D01*
X183780480Y-82452849D01*
X183767867Y-82473893D01*
X183753253Y-82493598D01*
X183736777Y-82511777D01*
X183718598Y-82528253D01*
X183698893Y-82542867D01*
X183677849Y-82555480D01*
X183655671Y-82565970D01*
X183632571Y-82574235D01*
X183608773Y-82580196D01*
X183584504Y-82583796D01*
X183560000Y-82585000D01*
X182460000Y-82585000D01*
X182435496Y-82583796D01*
X182411227Y-82580196D01*
X182387429Y-82574235D01*
X182364329Y-82565970D01*
X182342151Y-82555480D01*
X182321107Y-82542867D01*
X182301402Y-82528253D01*
X182283223Y-82511777D01*
X182266747Y-82493598D01*
X182252133Y-82473893D01*
X182239520Y-82452849D01*
X182229030Y-82430671D01*
X182220765Y-82407571D01*
X182214804Y-82383773D01*
X182211204Y-82359504D01*
X182210000Y-82335000D01*
X182210000Y-79835000D01*
X182211204Y-79810496D01*
X182214804Y-79786227D01*
X182220765Y-79762429D01*
X182229030Y-79739329D01*
X182239520Y-79717151D01*
X182252133Y-79696107D01*
X182266747Y-79676402D01*
X182283223Y-79658223D01*
X182301402Y-79641747D01*
X182321107Y-79627133D01*
X182342151Y-79614520D01*
X182364329Y-79604030D01*
X182387429Y-79595765D01*
X182411227Y-79589804D01*
X182435496Y-79586204D01*
X182460000Y-79585000D01*
X183560000Y-79585000D01*
X183584504Y-79586204D01*
G37*
G04 #@! TD.AperFunction*
G04 #@! TA.AperFunction,SMDPad,CuDef*
G36*
X164790142Y-86036174D02*
G01*
X164813803Y-86039684D01*
X164837007Y-86045496D01*
X164859529Y-86053554D01*
X164881153Y-86063782D01*
X164901670Y-86076079D01*
X164920883Y-86090329D01*
X164938607Y-86106393D01*
X164954671Y-86124117D01*
X164968921Y-86143330D01*
X164981218Y-86163847D01*
X164991446Y-86185471D01*
X164999504Y-86207993D01*
X165005316Y-86231197D01*
X165008826Y-86254858D01*
X165010000Y-86278750D01*
X165010000Y-86766250D01*
X165008826Y-86790142D01*
X165005316Y-86813803D01*
X164999504Y-86837007D01*
X164991446Y-86859529D01*
X164981218Y-86881153D01*
X164968921Y-86901670D01*
X164954671Y-86920883D01*
X164938607Y-86938607D01*
X164920883Y-86954671D01*
X164901670Y-86968921D01*
X164881153Y-86981218D01*
X164859529Y-86991446D01*
X164837007Y-86999504D01*
X164813803Y-87005316D01*
X164790142Y-87008826D01*
X164766250Y-87010000D01*
X163853750Y-87010000D01*
X163829858Y-87008826D01*
X163806197Y-87005316D01*
X163782993Y-86999504D01*
X163760471Y-86991446D01*
X163738847Y-86981218D01*
X163718330Y-86968921D01*
X163699117Y-86954671D01*
X163681393Y-86938607D01*
X163665329Y-86920883D01*
X163651079Y-86901670D01*
X163638782Y-86881153D01*
X163628554Y-86859529D01*
X163620496Y-86837007D01*
X163614684Y-86813803D01*
X163611174Y-86790142D01*
X163610000Y-86766250D01*
X163610000Y-86278750D01*
X163611174Y-86254858D01*
X163614684Y-86231197D01*
X163620496Y-86207993D01*
X163628554Y-86185471D01*
X163638782Y-86163847D01*
X163651079Y-86143330D01*
X163665329Y-86124117D01*
X163681393Y-86106393D01*
X163699117Y-86090329D01*
X163718330Y-86076079D01*
X163738847Y-86063782D01*
X163760471Y-86053554D01*
X163782993Y-86045496D01*
X163806197Y-86039684D01*
X163829858Y-86036174D01*
X163853750Y-86035000D01*
X164766250Y-86035000D01*
X164790142Y-86036174D01*
G37*
G04 #@! TD.AperFunction*
G04 #@! TA.AperFunction,SMDPad,CuDef*
G36*
X164790142Y-84161174D02*
G01*
X164813803Y-84164684D01*
X164837007Y-84170496D01*
X164859529Y-84178554D01*
X164881153Y-84188782D01*
X164901670Y-84201079D01*
X164920883Y-84215329D01*
X164938607Y-84231393D01*
X164954671Y-84249117D01*
X164968921Y-84268330D01*
X164981218Y-84288847D01*
X164991446Y-84310471D01*
X164999504Y-84332993D01*
X165005316Y-84356197D01*
X165008826Y-84379858D01*
X165010000Y-84403750D01*
X165010000Y-84891250D01*
X165008826Y-84915142D01*
X165005316Y-84938803D01*
X164999504Y-84962007D01*
X164991446Y-84984529D01*
X164981218Y-85006153D01*
X164968921Y-85026670D01*
X164954671Y-85045883D01*
X164938607Y-85063607D01*
X164920883Y-85079671D01*
X164901670Y-85093921D01*
X164881153Y-85106218D01*
X164859529Y-85116446D01*
X164837007Y-85124504D01*
X164813803Y-85130316D01*
X164790142Y-85133826D01*
X164766250Y-85135000D01*
X163853750Y-85135000D01*
X163829858Y-85133826D01*
X163806197Y-85130316D01*
X163782993Y-85124504D01*
X163760471Y-85116446D01*
X163738847Y-85106218D01*
X163718330Y-85093921D01*
X163699117Y-85079671D01*
X163681393Y-85063607D01*
X163665329Y-85045883D01*
X163651079Y-85026670D01*
X163638782Y-85006153D01*
X163628554Y-84984529D01*
X163620496Y-84962007D01*
X163614684Y-84938803D01*
X163611174Y-84915142D01*
X163610000Y-84891250D01*
X163610000Y-84403750D01*
X163611174Y-84379858D01*
X163614684Y-84356197D01*
X163620496Y-84332993D01*
X163628554Y-84310471D01*
X163638782Y-84288847D01*
X163651079Y-84268330D01*
X163665329Y-84249117D01*
X163681393Y-84231393D01*
X163699117Y-84215329D01*
X163718330Y-84201079D01*
X163738847Y-84188782D01*
X163760471Y-84178554D01*
X163782993Y-84170496D01*
X163806197Y-84164684D01*
X163829858Y-84161174D01*
X163853750Y-84160000D01*
X164766250Y-84160000D01*
X164790142Y-84161174D01*
G37*
G04 #@! TD.AperFunction*
G04 #@! TA.AperFunction,SMDPad,CuDef*
G36*
X178515142Y-75986174D02*
G01*
X178538803Y-75989684D01*
X178562007Y-75995496D01*
X178584529Y-76003554D01*
X178606153Y-76013782D01*
X178626670Y-76026079D01*
X178645883Y-76040329D01*
X178663607Y-76056393D01*
X178679671Y-76074117D01*
X178693921Y-76093330D01*
X178706218Y-76113847D01*
X178716446Y-76135471D01*
X178724504Y-76157993D01*
X178730316Y-76181197D01*
X178733826Y-76204858D01*
X178735000Y-76228750D01*
X178735000Y-77141250D01*
X178733826Y-77165142D01*
X178730316Y-77188803D01*
X178724504Y-77212007D01*
X178716446Y-77234529D01*
X178706218Y-77256153D01*
X178693921Y-77276670D01*
X178679671Y-77295883D01*
X178663607Y-77313607D01*
X178645883Y-77329671D01*
X178626670Y-77343921D01*
X178606153Y-77356218D01*
X178584529Y-77366446D01*
X178562007Y-77374504D01*
X178538803Y-77380316D01*
X178515142Y-77383826D01*
X178491250Y-77385000D01*
X178003750Y-77385000D01*
X177979858Y-77383826D01*
X177956197Y-77380316D01*
X177932993Y-77374504D01*
X177910471Y-77366446D01*
X177888847Y-77356218D01*
X177868330Y-77343921D01*
X177849117Y-77329671D01*
X177831393Y-77313607D01*
X177815329Y-77295883D01*
X177801079Y-77276670D01*
X177788782Y-77256153D01*
X177778554Y-77234529D01*
X177770496Y-77212007D01*
X177764684Y-77188803D01*
X177761174Y-77165142D01*
X177760000Y-77141250D01*
X177760000Y-76228750D01*
X177761174Y-76204858D01*
X177764684Y-76181197D01*
X177770496Y-76157993D01*
X177778554Y-76135471D01*
X177788782Y-76113847D01*
X177801079Y-76093330D01*
X177815329Y-76074117D01*
X177831393Y-76056393D01*
X177849117Y-76040329D01*
X177868330Y-76026079D01*
X177888847Y-76013782D01*
X177910471Y-76003554D01*
X177932993Y-75995496D01*
X177956197Y-75989684D01*
X177979858Y-75986174D01*
X178003750Y-75985000D01*
X178491250Y-75985000D01*
X178515142Y-75986174D01*
G37*
G04 #@! TD.AperFunction*
G04 #@! TA.AperFunction,SMDPad,CuDef*
G36*
X176640142Y-75986174D02*
G01*
X176663803Y-75989684D01*
X176687007Y-75995496D01*
X176709529Y-76003554D01*
X176731153Y-76013782D01*
X176751670Y-76026079D01*
X176770883Y-76040329D01*
X176788607Y-76056393D01*
X176804671Y-76074117D01*
X176818921Y-76093330D01*
X176831218Y-76113847D01*
X176841446Y-76135471D01*
X176849504Y-76157993D01*
X176855316Y-76181197D01*
X176858826Y-76204858D01*
X176860000Y-76228750D01*
X176860000Y-77141250D01*
X176858826Y-77165142D01*
X176855316Y-77188803D01*
X176849504Y-77212007D01*
X176841446Y-77234529D01*
X176831218Y-77256153D01*
X176818921Y-77276670D01*
X176804671Y-77295883D01*
X176788607Y-77313607D01*
X176770883Y-77329671D01*
X176751670Y-77343921D01*
X176731153Y-77356218D01*
X176709529Y-77366446D01*
X176687007Y-77374504D01*
X176663803Y-77380316D01*
X176640142Y-77383826D01*
X176616250Y-77385000D01*
X176128750Y-77385000D01*
X176104858Y-77383826D01*
X176081197Y-77380316D01*
X176057993Y-77374504D01*
X176035471Y-77366446D01*
X176013847Y-77356218D01*
X175993330Y-77343921D01*
X175974117Y-77329671D01*
X175956393Y-77313607D01*
X175940329Y-77295883D01*
X175926079Y-77276670D01*
X175913782Y-77256153D01*
X175903554Y-77234529D01*
X175895496Y-77212007D01*
X175889684Y-77188803D01*
X175886174Y-77165142D01*
X175885000Y-77141250D01*
X175885000Y-76228750D01*
X175886174Y-76204858D01*
X175889684Y-76181197D01*
X175895496Y-76157993D01*
X175903554Y-76135471D01*
X175913782Y-76113847D01*
X175926079Y-76093330D01*
X175940329Y-76074117D01*
X175956393Y-76056393D01*
X175974117Y-76040329D01*
X175993330Y-76026079D01*
X176013847Y-76013782D01*
X176035471Y-76003554D01*
X176057993Y-75995496D01*
X176081197Y-75989684D01*
X176104858Y-75986174D01*
X176128750Y-75985000D01*
X176616250Y-75985000D01*
X176640142Y-75986174D01*
G37*
G04 #@! TD.AperFunction*
G04 #@! TA.AperFunction,SMDPad,CuDef*
G36*
X176790142Y-88336174D02*
G01*
X176813803Y-88339684D01*
X176837007Y-88345496D01*
X176859529Y-88353554D01*
X176881153Y-88363782D01*
X176901670Y-88376079D01*
X176920883Y-88390329D01*
X176938607Y-88406393D01*
X176954671Y-88424117D01*
X176968921Y-88443330D01*
X176981218Y-88463847D01*
X176991446Y-88485471D01*
X176999504Y-88507993D01*
X177005316Y-88531197D01*
X177008826Y-88554858D01*
X177010000Y-88578750D01*
X177010000Y-89066250D01*
X177008826Y-89090142D01*
X177005316Y-89113803D01*
X176999504Y-89137007D01*
X176991446Y-89159529D01*
X176981218Y-89181153D01*
X176968921Y-89201670D01*
X176954671Y-89220883D01*
X176938607Y-89238607D01*
X176920883Y-89254671D01*
X176901670Y-89268921D01*
X176881153Y-89281218D01*
X176859529Y-89291446D01*
X176837007Y-89299504D01*
X176813803Y-89305316D01*
X176790142Y-89308826D01*
X176766250Y-89310000D01*
X175853750Y-89310000D01*
X175829858Y-89308826D01*
X175806197Y-89305316D01*
X175782993Y-89299504D01*
X175760471Y-89291446D01*
X175738847Y-89281218D01*
X175718330Y-89268921D01*
X175699117Y-89254671D01*
X175681393Y-89238607D01*
X175665329Y-89220883D01*
X175651079Y-89201670D01*
X175638782Y-89181153D01*
X175628554Y-89159529D01*
X175620496Y-89137007D01*
X175614684Y-89113803D01*
X175611174Y-89090142D01*
X175610000Y-89066250D01*
X175610000Y-88578750D01*
X175611174Y-88554858D01*
X175614684Y-88531197D01*
X175620496Y-88507993D01*
X175628554Y-88485471D01*
X175638782Y-88463847D01*
X175651079Y-88443330D01*
X175665329Y-88424117D01*
X175681393Y-88406393D01*
X175699117Y-88390329D01*
X175718330Y-88376079D01*
X175738847Y-88363782D01*
X175760471Y-88353554D01*
X175782993Y-88345496D01*
X175806197Y-88339684D01*
X175829858Y-88336174D01*
X175853750Y-88335000D01*
X176766250Y-88335000D01*
X176790142Y-88336174D01*
G37*
G04 #@! TD.AperFunction*
G04 #@! TA.AperFunction,SMDPad,CuDef*
G36*
X176790142Y-86461174D02*
G01*
X176813803Y-86464684D01*
X176837007Y-86470496D01*
X176859529Y-86478554D01*
X176881153Y-86488782D01*
X176901670Y-86501079D01*
X176920883Y-86515329D01*
X176938607Y-86531393D01*
X176954671Y-86549117D01*
X176968921Y-86568330D01*
X176981218Y-86588847D01*
X176991446Y-86610471D01*
X176999504Y-86632993D01*
X177005316Y-86656197D01*
X177008826Y-86679858D01*
X177010000Y-86703750D01*
X177010000Y-87191250D01*
X177008826Y-87215142D01*
X177005316Y-87238803D01*
X176999504Y-87262007D01*
X176991446Y-87284529D01*
X176981218Y-87306153D01*
X176968921Y-87326670D01*
X176954671Y-87345883D01*
X176938607Y-87363607D01*
X176920883Y-87379671D01*
X176901670Y-87393921D01*
X176881153Y-87406218D01*
X176859529Y-87416446D01*
X176837007Y-87424504D01*
X176813803Y-87430316D01*
X176790142Y-87433826D01*
X176766250Y-87435000D01*
X175853750Y-87435000D01*
X175829858Y-87433826D01*
X175806197Y-87430316D01*
X175782993Y-87424504D01*
X175760471Y-87416446D01*
X175738847Y-87406218D01*
X175718330Y-87393921D01*
X175699117Y-87379671D01*
X175681393Y-87363607D01*
X175665329Y-87345883D01*
X175651079Y-87326670D01*
X175638782Y-87306153D01*
X175628554Y-87284529D01*
X175620496Y-87262007D01*
X175614684Y-87238803D01*
X175611174Y-87215142D01*
X175610000Y-87191250D01*
X175610000Y-86703750D01*
X175611174Y-86679858D01*
X175614684Y-86656197D01*
X175620496Y-86632993D01*
X175628554Y-86610471D01*
X175638782Y-86588847D01*
X175651079Y-86568330D01*
X175665329Y-86549117D01*
X175681393Y-86531393D01*
X175699117Y-86515329D01*
X175718330Y-86501079D01*
X175738847Y-86488782D01*
X175760471Y-86478554D01*
X175782993Y-86470496D01*
X175806197Y-86464684D01*
X175829858Y-86461174D01*
X175853750Y-86460000D01*
X176766250Y-86460000D01*
X176790142Y-86461174D01*
G37*
G04 #@! TD.AperFunction*
G04 #@! TA.AperFunction,SMDPad,CuDef*
G36*
X129087691Y-83936053D02*
G01*
X129108926Y-83939203D01*
X129129750Y-83944419D01*
X129149962Y-83951651D01*
X129169368Y-83960830D01*
X129187781Y-83971866D01*
X129205024Y-83984654D01*
X129220930Y-83999070D01*
X129235346Y-84014976D01*
X129248134Y-84032219D01*
X129259170Y-84050632D01*
X129268349Y-84070038D01*
X129275581Y-84090250D01*
X129280797Y-84111074D01*
X129283947Y-84132309D01*
X129285000Y-84153750D01*
X129285000Y-84591250D01*
X129283947Y-84612691D01*
X129280797Y-84633926D01*
X129275581Y-84654750D01*
X129268349Y-84674962D01*
X129259170Y-84694368D01*
X129248134Y-84712781D01*
X129235346Y-84730024D01*
X129220930Y-84745930D01*
X129205024Y-84760346D01*
X129187781Y-84773134D01*
X129169368Y-84784170D01*
X129149962Y-84793349D01*
X129129750Y-84800581D01*
X129108926Y-84805797D01*
X129087691Y-84808947D01*
X129066250Y-84810000D01*
X128553750Y-84810000D01*
X128532309Y-84808947D01*
X128511074Y-84805797D01*
X128490250Y-84800581D01*
X128470038Y-84793349D01*
X128450632Y-84784170D01*
X128432219Y-84773134D01*
X128414976Y-84760346D01*
X128399070Y-84745930D01*
X128384654Y-84730024D01*
X128371866Y-84712781D01*
X128360830Y-84694368D01*
X128351651Y-84674962D01*
X128344419Y-84654750D01*
X128339203Y-84633926D01*
X128336053Y-84612691D01*
X128335000Y-84591250D01*
X128335000Y-84153750D01*
X128336053Y-84132309D01*
X128339203Y-84111074D01*
X128344419Y-84090250D01*
X128351651Y-84070038D01*
X128360830Y-84050632D01*
X128371866Y-84032219D01*
X128384654Y-84014976D01*
X128399070Y-83999070D01*
X128414976Y-83984654D01*
X128432219Y-83971866D01*
X128450632Y-83960830D01*
X128470038Y-83951651D01*
X128490250Y-83944419D01*
X128511074Y-83939203D01*
X128532309Y-83936053D01*
X128553750Y-83935000D01*
X129066250Y-83935000D01*
X129087691Y-83936053D01*
G37*
G04 #@! TD.AperFunction*
G04 #@! TA.AperFunction,SMDPad,CuDef*
G36*
X129087691Y-82361053D02*
G01*
X129108926Y-82364203D01*
X129129750Y-82369419D01*
X129149962Y-82376651D01*
X129169368Y-82385830D01*
X129187781Y-82396866D01*
X129205024Y-82409654D01*
X129220930Y-82424070D01*
X129235346Y-82439976D01*
X129248134Y-82457219D01*
X129259170Y-82475632D01*
X129268349Y-82495038D01*
X129275581Y-82515250D01*
X129280797Y-82536074D01*
X129283947Y-82557309D01*
X129285000Y-82578750D01*
X129285000Y-83016250D01*
X129283947Y-83037691D01*
X129280797Y-83058926D01*
X129275581Y-83079750D01*
X129268349Y-83099962D01*
X129259170Y-83119368D01*
X129248134Y-83137781D01*
X129235346Y-83155024D01*
X129220930Y-83170930D01*
X129205024Y-83185346D01*
X129187781Y-83198134D01*
X129169368Y-83209170D01*
X129149962Y-83218349D01*
X129129750Y-83225581D01*
X129108926Y-83230797D01*
X129087691Y-83233947D01*
X129066250Y-83235000D01*
X128553750Y-83235000D01*
X128532309Y-83233947D01*
X128511074Y-83230797D01*
X128490250Y-83225581D01*
X128470038Y-83218349D01*
X128450632Y-83209170D01*
X128432219Y-83198134D01*
X128414976Y-83185346D01*
X128399070Y-83170930D01*
X128384654Y-83155024D01*
X128371866Y-83137781D01*
X128360830Y-83119368D01*
X128351651Y-83099962D01*
X128344419Y-83079750D01*
X128339203Y-83058926D01*
X128336053Y-83037691D01*
X128335000Y-83016250D01*
X128335000Y-82578750D01*
X128336053Y-82557309D01*
X128339203Y-82536074D01*
X128344419Y-82515250D01*
X128351651Y-82495038D01*
X128360830Y-82475632D01*
X128371866Y-82457219D01*
X128384654Y-82439976D01*
X128399070Y-82424070D01*
X128414976Y-82409654D01*
X128432219Y-82396866D01*
X128450632Y-82385830D01*
X128470038Y-82376651D01*
X128490250Y-82369419D01*
X128511074Y-82364203D01*
X128532309Y-82361053D01*
X128553750Y-82360000D01*
X129066250Y-82360000D01*
X129087691Y-82361053D01*
G37*
G04 #@! TD.AperFunction*
G04 #@! TA.AperFunction,SMDPad,CuDef*
G36*
X204562691Y-87311053D02*
G01*
X204583926Y-87314203D01*
X204604750Y-87319419D01*
X204624962Y-87326651D01*
X204644368Y-87335830D01*
X204662781Y-87346866D01*
X204680024Y-87359654D01*
X204695930Y-87374070D01*
X204710346Y-87389976D01*
X204723134Y-87407219D01*
X204734170Y-87425632D01*
X204743349Y-87445038D01*
X204750581Y-87465250D01*
X204755797Y-87486074D01*
X204758947Y-87507309D01*
X204760000Y-87528750D01*
X204760000Y-88041250D01*
X204758947Y-88062691D01*
X204755797Y-88083926D01*
X204750581Y-88104750D01*
X204743349Y-88124962D01*
X204734170Y-88144368D01*
X204723134Y-88162781D01*
X204710346Y-88180024D01*
X204695930Y-88195930D01*
X204680024Y-88210346D01*
X204662781Y-88223134D01*
X204644368Y-88234170D01*
X204624962Y-88243349D01*
X204604750Y-88250581D01*
X204583926Y-88255797D01*
X204562691Y-88258947D01*
X204541250Y-88260000D01*
X204103750Y-88260000D01*
X204082309Y-88258947D01*
X204061074Y-88255797D01*
X204040250Y-88250581D01*
X204020038Y-88243349D01*
X204000632Y-88234170D01*
X203982219Y-88223134D01*
X203964976Y-88210346D01*
X203949070Y-88195930D01*
X203934654Y-88180024D01*
X203921866Y-88162781D01*
X203910830Y-88144368D01*
X203901651Y-88124962D01*
X203894419Y-88104750D01*
X203889203Y-88083926D01*
X203886053Y-88062691D01*
X203885000Y-88041250D01*
X203885000Y-87528750D01*
X203886053Y-87507309D01*
X203889203Y-87486074D01*
X203894419Y-87465250D01*
X203901651Y-87445038D01*
X203910830Y-87425632D01*
X203921866Y-87407219D01*
X203934654Y-87389976D01*
X203949070Y-87374070D01*
X203964976Y-87359654D01*
X203982219Y-87346866D01*
X204000632Y-87335830D01*
X204020038Y-87326651D01*
X204040250Y-87319419D01*
X204061074Y-87314203D01*
X204082309Y-87311053D01*
X204103750Y-87310000D01*
X204541250Y-87310000D01*
X204562691Y-87311053D01*
G37*
G04 #@! TD.AperFunction*
G04 #@! TA.AperFunction,SMDPad,CuDef*
G36*
X206137691Y-87311053D02*
G01*
X206158926Y-87314203D01*
X206179750Y-87319419D01*
X206199962Y-87326651D01*
X206219368Y-87335830D01*
X206237781Y-87346866D01*
X206255024Y-87359654D01*
X206270930Y-87374070D01*
X206285346Y-87389976D01*
X206298134Y-87407219D01*
X206309170Y-87425632D01*
X206318349Y-87445038D01*
X206325581Y-87465250D01*
X206330797Y-87486074D01*
X206333947Y-87507309D01*
X206335000Y-87528750D01*
X206335000Y-88041250D01*
X206333947Y-88062691D01*
X206330797Y-88083926D01*
X206325581Y-88104750D01*
X206318349Y-88124962D01*
X206309170Y-88144368D01*
X206298134Y-88162781D01*
X206285346Y-88180024D01*
X206270930Y-88195930D01*
X206255024Y-88210346D01*
X206237781Y-88223134D01*
X206219368Y-88234170D01*
X206199962Y-88243349D01*
X206179750Y-88250581D01*
X206158926Y-88255797D01*
X206137691Y-88258947D01*
X206116250Y-88260000D01*
X205678750Y-88260000D01*
X205657309Y-88258947D01*
X205636074Y-88255797D01*
X205615250Y-88250581D01*
X205595038Y-88243349D01*
X205575632Y-88234170D01*
X205557219Y-88223134D01*
X205539976Y-88210346D01*
X205524070Y-88195930D01*
X205509654Y-88180024D01*
X205496866Y-88162781D01*
X205485830Y-88144368D01*
X205476651Y-88124962D01*
X205469419Y-88104750D01*
X205464203Y-88083926D01*
X205461053Y-88062691D01*
X205460000Y-88041250D01*
X205460000Y-87528750D01*
X205461053Y-87507309D01*
X205464203Y-87486074D01*
X205469419Y-87465250D01*
X205476651Y-87445038D01*
X205485830Y-87425632D01*
X205496866Y-87407219D01*
X205509654Y-87389976D01*
X205524070Y-87374070D01*
X205539976Y-87359654D01*
X205557219Y-87346866D01*
X205575632Y-87335830D01*
X205595038Y-87326651D01*
X205615250Y-87319419D01*
X205636074Y-87314203D01*
X205657309Y-87311053D01*
X205678750Y-87310000D01*
X206116250Y-87310000D01*
X206137691Y-87311053D01*
G37*
G04 #@! TD.AperFunction*
G04 #@! TA.AperFunction,SMDPad,CuDef*
G36*
X127087691Y-83936053D02*
G01*
X127108926Y-83939203D01*
X127129750Y-83944419D01*
X127149962Y-83951651D01*
X127169368Y-83960830D01*
X127187781Y-83971866D01*
X127205024Y-83984654D01*
X127220930Y-83999070D01*
X127235346Y-84014976D01*
X127248134Y-84032219D01*
X127259170Y-84050632D01*
X127268349Y-84070038D01*
X127275581Y-84090250D01*
X127280797Y-84111074D01*
X127283947Y-84132309D01*
X127285000Y-84153750D01*
X127285000Y-84591250D01*
X127283947Y-84612691D01*
X127280797Y-84633926D01*
X127275581Y-84654750D01*
X127268349Y-84674962D01*
X127259170Y-84694368D01*
X127248134Y-84712781D01*
X127235346Y-84730024D01*
X127220930Y-84745930D01*
X127205024Y-84760346D01*
X127187781Y-84773134D01*
X127169368Y-84784170D01*
X127149962Y-84793349D01*
X127129750Y-84800581D01*
X127108926Y-84805797D01*
X127087691Y-84808947D01*
X127066250Y-84810000D01*
X126553750Y-84810000D01*
X126532309Y-84808947D01*
X126511074Y-84805797D01*
X126490250Y-84800581D01*
X126470038Y-84793349D01*
X126450632Y-84784170D01*
X126432219Y-84773134D01*
X126414976Y-84760346D01*
X126399070Y-84745930D01*
X126384654Y-84730024D01*
X126371866Y-84712781D01*
X126360830Y-84694368D01*
X126351651Y-84674962D01*
X126344419Y-84654750D01*
X126339203Y-84633926D01*
X126336053Y-84612691D01*
X126335000Y-84591250D01*
X126335000Y-84153750D01*
X126336053Y-84132309D01*
X126339203Y-84111074D01*
X126344419Y-84090250D01*
X126351651Y-84070038D01*
X126360830Y-84050632D01*
X126371866Y-84032219D01*
X126384654Y-84014976D01*
X126399070Y-83999070D01*
X126414976Y-83984654D01*
X126432219Y-83971866D01*
X126450632Y-83960830D01*
X126470038Y-83951651D01*
X126490250Y-83944419D01*
X126511074Y-83939203D01*
X126532309Y-83936053D01*
X126553750Y-83935000D01*
X127066250Y-83935000D01*
X127087691Y-83936053D01*
G37*
G04 #@! TD.AperFunction*
G04 #@! TA.AperFunction,SMDPad,CuDef*
G36*
X127087691Y-82361053D02*
G01*
X127108926Y-82364203D01*
X127129750Y-82369419D01*
X127149962Y-82376651D01*
X127169368Y-82385830D01*
X127187781Y-82396866D01*
X127205024Y-82409654D01*
X127220930Y-82424070D01*
X127235346Y-82439976D01*
X127248134Y-82457219D01*
X127259170Y-82475632D01*
X127268349Y-82495038D01*
X127275581Y-82515250D01*
X127280797Y-82536074D01*
X127283947Y-82557309D01*
X127285000Y-82578750D01*
X127285000Y-83016250D01*
X127283947Y-83037691D01*
X127280797Y-83058926D01*
X127275581Y-83079750D01*
X127268349Y-83099962D01*
X127259170Y-83119368D01*
X127248134Y-83137781D01*
X127235346Y-83155024D01*
X127220930Y-83170930D01*
X127205024Y-83185346D01*
X127187781Y-83198134D01*
X127169368Y-83209170D01*
X127149962Y-83218349D01*
X127129750Y-83225581D01*
X127108926Y-83230797D01*
X127087691Y-83233947D01*
X127066250Y-83235000D01*
X126553750Y-83235000D01*
X126532309Y-83233947D01*
X126511074Y-83230797D01*
X126490250Y-83225581D01*
X126470038Y-83218349D01*
X126450632Y-83209170D01*
X126432219Y-83198134D01*
X126414976Y-83185346D01*
X126399070Y-83170930D01*
X126384654Y-83155024D01*
X126371866Y-83137781D01*
X126360830Y-83119368D01*
X126351651Y-83099962D01*
X126344419Y-83079750D01*
X126339203Y-83058926D01*
X126336053Y-83037691D01*
X126335000Y-83016250D01*
X126335000Y-82578750D01*
X126336053Y-82557309D01*
X126339203Y-82536074D01*
X126344419Y-82515250D01*
X126351651Y-82495038D01*
X126360830Y-82475632D01*
X126371866Y-82457219D01*
X126384654Y-82439976D01*
X126399070Y-82424070D01*
X126414976Y-82409654D01*
X126432219Y-82396866D01*
X126450632Y-82385830D01*
X126470038Y-82376651D01*
X126490250Y-82369419D01*
X126511074Y-82364203D01*
X126532309Y-82361053D01*
X126553750Y-82360000D01*
X127066250Y-82360000D01*
X127087691Y-82361053D01*
G37*
G04 #@! TD.AperFunction*
G04 #@! TA.AperFunction,SMDPad,CuDef*
G36*
X180227691Y-86111053D02*
G01*
X180248926Y-86114203D01*
X180269750Y-86119419D01*
X180289962Y-86126651D01*
X180309368Y-86135830D01*
X180327781Y-86146866D01*
X180345024Y-86159654D01*
X180360930Y-86174070D01*
X180375346Y-86189976D01*
X180388134Y-86207219D01*
X180399170Y-86225632D01*
X180408349Y-86245038D01*
X180415581Y-86265250D01*
X180420797Y-86286074D01*
X180423947Y-86307309D01*
X180425000Y-86328750D01*
X180425000Y-86841250D01*
X180423947Y-86862691D01*
X180420797Y-86883926D01*
X180415581Y-86904750D01*
X180408349Y-86924962D01*
X180399170Y-86944368D01*
X180388134Y-86962781D01*
X180375346Y-86980024D01*
X180360930Y-86995930D01*
X180345024Y-87010346D01*
X180327781Y-87023134D01*
X180309368Y-87034170D01*
X180289962Y-87043349D01*
X180269750Y-87050581D01*
X180248926Y-87055797D01*
X180227691Y-87058947D01*
X180206250Y-87060000D01*
X179768750Y-87060000D01*
X179747309Y-87058947D01*
X179726074Y-87055797D01*
X179705250Y-87050581D01*
X179685038Y-87043349D01*
X179665632Y-87034170D01*
X179647219Y-87023134D01*
X179629976Y-87010346D01*
X179614070Y-86995930D01*
X179599654Y-86980024D01*
X179586866Y-86962781D01*
X179575830Y-86944368D01*
X179566651Y-86924962D01*
X179559419Y-86904750D01*
X179554203Y-86883926D01*
X179551053Y-86862691D01*
X179550000Y-86841250D01*
X179550000Y-86328750D01*
X179551053Y-86307309D01*
X179554203Y-86286074D01*
X179559419Y-86265250D01*
X179566651Y-86245038D01*
X179575830Y-86225632D01*
X179586866Y-86207219D01*
X179599654Y-86189976D01*
X179614070Y-86174070D01*
X179629976Y-86159654D01*
X179647219Y-86146866D01*
X179665632Y-86135830D01*
X179685038Y-86126651D01*
X179705250Y-86119419D01*
X179726074Y-86114203D01*
X179747309Y-86111053D01*
X179768750Y-86110000D01*
X180206250Y-86110000D01*
X180227691Y-86111053D01*
G37*
G04 #@! TD.AperFunction*
G04 #@! TA.AperFunction,SMDPad,CuDef*
G36*
X178652691Y-86111053D02*
G01*
X178673926Y-86114203D01*
X178694750Y-86119419D01*
X178714962Y-86126651D01*
X178734368Y-86135830D01*
X178752781Y-86146866D01*
X178770024Y-86159654D01*
X178785930Y-86174070D01*
X178800346Y-86189976D01*
X178813134Y-86207219D01*
X178824170Y-86225632D01*
X178833349Y-86245038D01*
X178840581Y-86265250D01*
X178845797Y-86286074D01*
X178848947Y-86307309D01*
X178850000Y-86328750D01*
X178850000Y-86841250D01*
X178848947Y-86862691D01*
X178845797Y-86883926D01*
X178840581Y-86904750D01*
X178833349Y-86924962D01*
X178824170Y-86944368D01*
X178813134Y-86962781D01*
X178800346Y-86980024D01*
X178785930Y-86995930D01*
X178770024Y-87010346D01*
X178752781Y-87023134D01*
X178734368Y-87034170D01*
X178714962Y-87043349D01*
X178694750Y-87050581D01*
X178673926Y-87055797D01*
X178652691Y-87058947D01*
X178631250Y-87060000D01*
X178193750Y-87060000D01*
X178172309Y-87058947D01*
X178151074Y-87055797D01*
X178130250Y-87050581D01*
X178110038Y-87043349D01*
X178090632Y-87034170D01*
X178072219Y-87023134D01*
X178054976Y-87010346D01*
X178039070Y-86995930D01*
X178024654Y-86980024D01*
X178011866Y-86962781D01*
X178000830Y-86944368D01*
X177991651Y-86924962D01*
X177984419Y-86904750D01*
X177979203Y-86883926D01*
X177976053Y-86862691D01*
X177975000Y-86841250D01*
X177975000Y-86328750D01*
X177976053Y-86307309D01*
X177979203Y-86286074D01*
X177984419Y-86265250D01*
X177991651Y-86245038D01*
X178000830Y-86225632D01*
X178011866Y-86207219D01*
X178024654Y-86189976D01*
X178039070Y-86174070D01*
X178054976Y-86159654D01*
X178072219Y-86146866D01*
X178090632Y-86135830D01*
X178110038Y-86126651D01*
X178130250Y-86119419D01*
X178151074Y-86114203D01*
X178172309Y-86111053D01*
X178193750Y-86110000D01*
X178631250Y-86110000D01*
X178652691Y-86111053D01*
G37*
G04 #@! TD.AperFunction*
G04 #@! TA.AperFunction,SMDPad,CuDef*
G36*
X180237691Y-84211053D02*
G01*
X180258926Y-84214203D01*
X180279750Y-84219419D01*
X180299962Y-84226651D01*
X180319368Y-84235830D01*
X180337781Y-84246866D01*
X180355024Y-84259654D01*
X180370930Y-84274070D01*
X180385346Y-84289976D01*
X180398134Y-84307219D01*
X180409170Y-84325632D01*
X180418349Y-84345038D01*
X180425581Y-84365250D01*
X180430797Y-84386074D01*
X180433947Y-84407309D01*
X180435000Y-84428750D01*
X180435000Y-84941250D01*
X180433947Y-84962691D01*
X180430797Y-84983926D01*
X180425581Y-85004750D01*
X180418349Y-85024962D01*
X180409170Y-85044368D01*
X180398134Y-85062781D01*
X180385346Y-85080024D01*
X180370930Y-85095930D01*
X180355024Y-85110346D01*
X180337781Y-85123134D01*
X180319368Y-85134170D01*
X180299962Y-85143349D01*
X180279750Y-85150581D01*
X180258926Y-85155797D01*
X180237691Y-85158947D01*
X180216250Y-85160000D01*
X179778750Y-85160000D01*
X179757309Y-85158947D01*
X179736074Y-85155797D01*
X179715250Y-85150581D01*
X179695038Y-85143349D01*
X179675632Y-85134170D01*
X179657219Y-85123134D01*
X179639976Y-85110346D01*
X179624070Y-85095930D01*
X179609654Y-85080024D01*
X179596866Y-85062781D01*
X179585830Y-85044368D01*
X179576651Y-85024962D01*
X179569419Y-85004750D01*
X179564203Y-84983926D01*
X179561053Y-84962691D01*
X179560000Y-84941250D01*
X179560000Y-84428750D01*
X179561053Y-84407309D01*
X179564203Y-84386074D01*
X179569419Y-84365250D01*
X179576651Y-84345038D01*
X179585830Y-84325632D01*
X179596866Y-84307219D01*
X179609654Y-84289976D01*
X179624070Y-84274070D01*
X179639976Y-84259654D01*
X179657219Y-84246866D01*
X179675632Y-84235830D01*
X179695038Y-84226651D01*
X179715250Y-84219419D01*
X179736074Y-84214203D01*
X179757309Y-84211053D01*
X179778750Y-84210000D01*
X180216250Y-84210000D01*
X180237691Y-84211053D01*
G37*
G04 #@! TD.AperFunction*
G04 #@! TA.AperFunction,SMDPad,CuDef*
G36*
X178662691Y-84211053D02*
G01*
X178683926Y-84214203D01*
X178704750Y-84219419D01*
X178724962Y-84226651D01*
X178744368Y-84235830D01*
X178762781Y-84246866D01*
X178780024Y-84259654D01*
X178795930Y-84274070D01*
X178810346Y-84289976D01*
X178823134Y-84307219D01*
X178834170Y-84325632D01*
X178843349Y-84345038D01*
X178850581Y-84365250D01*
X178855797Y-84386074D01*
X178858947Y-84407309D01*
X178860000Y-84428750D01*
X178860000Y-84941250D01*
X178858947Y-84962691D01*
X178855797Y-84983926D01*
X178850581Y-85004750D01*
X178843349Y-85024962D01*
X178834170Y-85044368D01*
X178823134Y-85062781D01*
X178810346Y-85080024D01*
X178795930Y-85095930D01*
X178780024Y-85110346D01*
X178762781Y-85123134D01*
X178744368Y-85134170D01*
X178724962Y-85143349D01*
X178704750Y-85150581D01*
X178683926Y-85155797D01*
X178662691Y-85158947D01*
X178641250Y-85160000D01*
X178203750Y-85160000D01*
X178182309Y-85158947D01*
X178161074Y-85155797D01*
X178140250Y-85150581D01*
X178120038Y-85143349D01*
X178100632Y-85134170D01*
X178082219Y-85123134D01*
X178064976Y-85110346D01*
X178049070Y-85095930D01*
X178034654Y-85080024D01*
X178021866Y-85062781D01*
X178010830Y-85044368D01*
X178001651Y-85024962D01*
X177994419Y-85004750D01*
X177989203Y-84983926D01*
X177986053Y-84962691D01*
X177985000Y-84941250D01*
X177985000Y-84428750D01*
X177986053Y-84407309D01*
X177989203Y-84386074D01*
X177994419Y-84365250D01*
X178001651Y-84345038D01*
X178010830Y-84325632D01*
X178021866Y-84307219D01*
X178034654Y-84289976D01*
X178049070Y-84274070D01*
X178064976Y-84259654D01*
X178082219Y-84246866D01*
X178100632Y-84235830D01*
X178120038Y-84226651D01*
X178140250Y-84219419D01*
X178161074Y-84214203D01*
X178182309Y-84211053D01*
X178203750Y-84210000D01*
X178641250Y-84210000D01*
X178662691Y-84211053D01*
G37*
G04 #@! TD.AperFunction*
D25*
X156035000Y-85925000D03*
X156035000Y-91005000D03*
X159345000Y-88465000D03*
X159345000Y-93545000D03*
G04 #@! TA.AperFunction,SMDPad,CuDef*
D19*
G36*
X148774703Y-94495722D02*
G01*
X148789264Y-94497882D01*
X148803543Y-94501459D01*
X148817403Y-94506418D01*
X148830710Y-94512712D01*
X148843336Y-94520280D01*
X148855159Y-94529048D01*
X148866066Y-94538934D01*
X148875952Y-94549841D01*
X148884720Y-94561664D01*
X148892288Y-94574290D01*
X148898582Y-94587597D01*
X148903541Y-94601457D01*
X148907118Y-94615736D01*
X148909278Y-94630297D01*
X148910000Y-94645000D01*
X148910000Y-94945000D01*
X148909278Y-94959703D01*
X148907118Y-94974264D01*
X148903541Y-94988543D01*
X148898582Y-95002403D01*
X148892288Y-95015710D01*
X148884720Y-95028336D01*
X148875952Y-95040159D01*
X148866066Y-95051066D01*
X148855159Y-95060952D01*
X148843336Y-95069720D01*
X148830710Y-95077288D01*
X148817403Y-95083582D01*
X148803543Y-95088541D01*
X148789264Y-95092118D01*
X148774703Y-95094278D01*
X148760000Y-95095000D01*
X147110000Y-95095000D01*
X147095297Y-95094278D01*
X147080736Y-95092118D01*
X147066457Y-95088541D01*
X147052597Y-95083582D01*
X147039290Y-95077288D01*
X147026664Y-95069720D01*
X147014841Y-95060952D01*
X147003934Y-95051066D01*
X146994048Y-95040159D01*
X146985280Y-95028336D01*
X146977712Y-95015710D01*
X146971418Y-95002403D01*
X146966459Y-94988543D01*
X146962882Y-94974264D01*
X146960722Y-94959703D01*
X146960000Y-94945000D01*
X146960000Y-94645000D01*
X146960722Y-94630297D01*
X146962882Y-94615736D01*
X146966459Y-94601457D01*
X146971418Y-94587597D01*
X146977712Y-94574290D01*
X146985280Y-94561664D01*
X146994048Y-94549841D01*
X147003934Y-94538934D01*
X147014841Y-94529048D01*
X147026664Y-94520280D01*
X147039290Y-94512712D01*
X147052597Y-94506418D01*
X147066457Y-94501459D01*
X147080736Y-94497882D01*
X147095297Y-94495722D01*
X147110000Y-94495000D01*
X148760000Y-94495000D01*
X148774703Y-94495722D01*
G37*
G04 #@! TD.AperFunction*
G04 #@! TA.AperFunction,SMDPad,CuDef*
G36*
X148774703Y-93225722D02*
G01*
X148789264Y-93227882D01*
X148803543Y-93231459D01*
X148817403Y-93236418D01*
X148830710Y-93242712D01*
X148843336Y-93250280D01*
X148855159Y-93259048D01*
X148866066Y-93268934D01*
X148875952Y-93279841D01*
X148884720Y-93291664D01*
X148892288Y-93304290D01*
X148898582Y-93317597D01*
X148903541Y-93331457D01*
X148907118Y-93345736D01*
X148909278Y-93360297D01*
X148910000Y-93375000D01*
X148910000Y-93675000D01*
X148909278Y-93689703D01*
X148907118Y-93704264D01*
X148903541Y-93718543D01*
X148898582Y-93732403D01*
X148892288Y-93745710D01*
X148884720Y-93758336D01*
X148875952Y-93770159D01*
X148866066Y-93781066D01*
X148855159Y-93790952D01*
X148843336Y-93799720D01*
X148830710Y-93807288D01*
X148817403Y-93813582D01*
X148803543Y-93818541D01*
X148789264Y-93822118D01*
X148774703Y-93824278D01*
X148760000Y-93825000D01*
X147110000Y-93825000D01*
X147095297Y-93824278D01*
X147080736Y-93822118D01*
X147066457Y-93818541D01*
X147052597Y-93813582D01*
X147039290Y-93807288D01*
X147026664Y-93799720D01*
X147014841Y-93790952D01*
X147003934Y-93781066D01*
X146994048Y-93770159D01*
X146985280Y-93758336D01*
X146977712Y-93745710D01*
X146971418Y-93732403D01*
X146966459Y-93718543D01*
X146962882Y-93704264D01*
X146960722Y-93689703D01*
X146960000Y-93675000D01*
X146960000Y-93375000D01*
X146960722Y-93360297D01*
X146962882Y-93345736D01*
X146966459Y-93331457D01*
X146971418Y-93317597D01*
X146977712Y-93304290D01*
X146985280Y-93291664D01*
X146994048Y-93279841D01*
X147003934Y-93268934D01*
X147014841Y-93259048D01*
X147026664Y-93250280D01*
X147039290Y-93242712D01*
X147052597Y-93236418D01*
X147066457Y-93231459D01*
X147080736Y-93227882D01*
X147095297Y-93225722D01*
X147110000Y-93225000D01*
X148760000Y-93225000D01*
X148774703Y-93225722D01*
G37*
G04 #@! TD.AperFunction*
G04 #@! TA.AperFunction,SMDPad,CuDef*
G36*
X148774703Y-91955722D02*
G01*
X148789264Y-91957882D01*
X148803543Y-91961459D01*
X148817403Y-91966418D01*
X148830710Y-91972712D01*
X148843336Y-91980280D01*
X148855159Y-91989048D01*
X148866066Y-91998934D01*
X148875952Y-92009841D01*
X148884720Y-92021664D01*
X148892288Y-92034290D01*
X148898582Y-92047597D01*
X148903541Y-92061457D01*
X148907118Y-92075736D01*
X148909278Y-92090297D01*
X148910000Y-92105000D01*
X148910000Y-92405000D01*
X148909278Y-92419703D01*
X148907118Y-92434264D01*
X148903541Y-92448543D01*
X148898582Y-92462403D01*
X148892288Y-92475710D01*
X148884720Y-92488336D01*
X148875952Y-92500159D01*
X148866066Y-92511066D01*
X148855159Y-92520952D01*
X148843336Y-92529720D01*
X148830710Y-92537288D01*
X148817403Y-92543582D01*
X148803543Y-92548541D01*
X148789264Y-92552118D01*
X148774703Y-92554278D01*
X148760000Y-92555000D01*
X147110000Y-92555000D01*
X147095297Y-92554278D01*
X147080736Y-92552118D01*
X147066457Y-92548541D01*
X147052597Y-92543582D01*
X147039290Y-92537288D01*
X147026664Y-92529720D01*
X147014841Y-92520952D01*
X147003934Y-92511066D01*
X146994048Y-92500159D01*
X146985280Y-92488336D01*
X146977712Y-92475710D01*
X146971418Y-92462403D01*
X146966459Y-92448543D01*
X146962882Y-92434264D01*
X146960722Y-92419703D01*
X146960000Y-92405000D01*
X146960000Y-92105000D01*
X146960722Y-92090297D01*
X146962882Y-92075736D01*
X146966459Y-92061457D01*
X146971418Y-92047597D01*
X146977712Y-92034290D01*
X146985280Y-92021664D01*
X146994048Y-92009841D01*
X147003934Y-91998934D01*
X147014841Y-91989048D01*
X147026664Y-91980280D01*
X147039290Y-91972712D01*
X147052597Y-91966418D01*
X147066457Y-91961459D01*
X147080736Y-91957882D01*
X147095297Y-91955722D01*
X147110000Y-91955000D01*
X148760000Y-91955000D01*
X148774703Y-91955722D01*
G37*
G04 #@! TD.AperFunction*
G04 #@! TA.AperFunction,SMDPad,CuDef*
G36*
X148774703Y-90685722D02*
G01*
X148789264Y-90687882D01*
X148803543Y-90691459D01*
X148817403Y-90696418D01*
X148830710Y-90702712D01*
X148843336Y-90710280D01*
X148855159Y-90719048D01*
X148866066Y-90728934D01*
X148875952Y-90739841D01*
X148884720Y-90751664D01*
X148892288Y-90764290D01*
X148898582Y-90777597D01*
X148903541Y-90791457D01*
X148907118Y-90805736D01*
X148909278Y-90820297D01*
X148910000Y-90835000D01*
X148910000Y-91135000D01*
X148909278Y-91149703D01*
X148907118Y-91164264D01*
X148903541Y-91178543D01*
X148898582Y-91192403D01*
X148892288Y-91205710D01*
X148884720Y-91218336D01*
X148875952Y-91230159D01*
X148866066Y-91241066D01*
X148855159Y-91250952D01*
X148843336Y-91259720D01*
X148830710Y-91267288D01*
X148817403Y-91273582D01*
X148803543Y-91278541D01*
X148789264Y-91282118D01*
X148774703Y-91284278D01*
X148760000Y-91285000D01*
X147110000Y-91285000D01*
X147095297Y-91284278D01*
X147080736Y-91282118D01*
X147066457Y-91278541D01*
X147052597Y-91273582D01*
X147039290Y-91267288D01*
X147026664Y-91259720D01*
X147014841Y-91250952D01*
X147003934Y-91241066D01*
X146994048Y-91230159D01*
X146985280Y-91218336D01*
X146977712Y-91205710D01*
X146971418Y-91192403D01*
X146966459Y-91178543D01*
X146962882Y-91164264D01*
X146960722Y-91149703D01*
X146960000Y-91135000D01*
X146960000Y-90835000D01*
X146960722Y-90820297D01*
X146962882Y-90805736D01*
X146966459Y-90791457D01*
X146971418Y-90777597D01*
X146977712Y-90764290D01*
X146985280Y-90751664D01*
X146994048Y-90739841D01*
X147003934Y-90728934D01*
X147014841Y-90719048D01*
X147026664Y-90710280D01*
X147039290Y-90702712D01*
X147052597Y-90696418D01*
X147066457Y-90691459D01*
X147080736Y-90687882D01*
X147095297Y-90685722D01*
X147110000Y-90685000D01*
X148760000Y-90685000D01*
X148774703Y-90685722D01*
G37*
G04 #@! TD.AperFunction*
G04 #@! TA.AperFunction,SMDPad,CuDef*
G36*
X153724703Y-90685722D02*
G01*
X153739264Y-90687882D01*
X153753543Y-90691459D01*
X153767403Y-90696418D01*
X153780710Y-90702712D01*
X153793336Y-90710280D01*
X153805159Y-90719048D01*
X153816066Y-90728934D01*
X153825952Y-90739841D01*
X153834720Y-90751664D01*
X153842288Y-90764290D01*
X153848582Y-90777597D01*
X153853541Y-90791457D01*
X153857118Y-90805736D01*
X153859278Y-90820297D01*
X153860000Y-90835000D01*
X153860000Y-91135000D01*
X153859278Y-91149703D01*
X153857118Y-91164264D01*
X153853541Y-91178543D01*
X153848582Y-91192403D01*
X153842288Y-91205710D01*
X153834720Y-91218336D01*
X153825952Y-91230159D01*
X153816066Y-91241066D01*
X153805159Y-91250952D01*
X153793336Y-91259720D01*
X153780710Y-91267288D01*
X153767403Y-91273582D01*
X153753543Y-91278541D01*
X153739264Y-91282118D01*
X153724703Y-91284278D01*
X153710000Y-91285000D01*
X152060000Y-91285000D01*
X152045297Y-91284278D01*
X152030736Y-91282118D01*
X152016457Y-91278541D01*
X152002597Y-91273582D01*
X151989290Y-91267288D01*
X151976664Y-91259720D01*
X151964841Y-91250952D01*
X151953934Y-91241066D01*
X151944048Y-91230159D01*
X151935280Y-91218336D01*
X151927712Y-91205710D01*
X151921418Y-91192403D01*
X151916459Y-91178543D01*
X151912882Y-91164264D01*
X151910722Y-91149703D01*
X151910000Y-91135000D01*
X151910000Y-90835000D01*
X151910722Y-90820297D01*
X151912882Y-90805736D01*
X151916459Y-90791457D01*
X151921418Y-90777597D01*
X151927712Y-90764290D01*
X151935280Y-90751664D01*
X151944048Y-90739841D01*
X151953934Y-90728934D01*
X151964841Y-90719048D01*
X151976664Y-90710280D01*
X151989290Y-90702712D01*
X152002597Y-90696418D01*
X152016457Y-90691459D01*
X152030736Y-90687882D01*
X152045297Y-90685722D01*
X152060000Y-90685000D01*
X153710000Y-90685000D01*
X153724703Y-90685722D01*
G37*
G04 #@! TD.AperFunction*
G04 #@! TA.AperFunction,SMDPad,CuDef*
G36*
X153724703Y-91955722D02*
G01*
X153739264Y-91957882D01*
X153753543Y-91961459D01*
X153767403Y-91966418D01*
X153780710Y-91972712D01*
X153793336Y-91980280D01*
X153805159Y-91989048D01*
X153816066Y-91998934D01*
X153825952Y-92009841D01*
X153834720Y-92021664D01*
X153842288Y-92034290D01*
X153848582Y-92047597D01*
X153853541Y-92061457D01*
X153857118Y-92075736D01*
X153859278Y-92090297D01*
X153860000Y-92105000D01*
X153860000Y-92405000D01*
X153859278Y-92419703D01*
X153857118Y-92434264D01*
X153853541Y-92448543D01*
X153848582Y-92462403D01*
X153842288Y-92475710D01*
X153834720Y-92488336D01*
X153825952Y-92500159D01*
X153816066Y-92511066D01*
X153805159Y-92520952D01*
X153793336Y-92529720D01*
X153780710Y-92537288D01*
X153767403Y-92543582D01*
X153753543Y-92548541D01*
X153739264Y-92552118D01*
X153724703Y-92554278D01*
X153710000Y-92555000D01*
X152060000Y-92555000D01*
X152045297Y-92554278D01*
X152030736Y-92552118D01*
X152016457Y-92548541D01*
X152002597Y-92543582D01*
X151989290Y-92537288D01*
X151976664Y-92529720D01*
X151964841Y-92520952D01*
X151953934Y-92511066D01*
X151944048Y-92500159D01*
X151935280Y-92488336D01*
X151927712Y-92475710D01*
X151921418Y-92462403D01*
X151916459Y-92448543D01*
X151912882Y-92434264D01*
X151910722Y-92419703D01*
X151910000Y-92405000D01*
X151910000Y-92105000D01*
X151910722Y-92090297D01*
X151912882Y-92075736D01*
X151916459Y-92061457D01*
X151921418Y-92047597D01*
X151927712Y-92034290D01*
X151935280Y-92021664D01*
X151944048Y-92009841D01*
X151953934Y-91998934D01*
X151964841Y-91989048D01*
X151976664Y-91980280D01*
X151989290Y-91972712D01*
X152002597Y-91966418D01*
X152016457Y-91961459D01*
X152030736Y-91957882D01*
X152045297Y-91955722D01*
X152060000Y-91955000D01*
X153710000Y-91955000D01*
X153724703Y-91955722D01*
G37*
G04 #@! TD.AperFunction*
G04 #@! TA.AperFunction,SMDPad,CuDef*
G36*
X153724703Y-93225722D02*
G01*
X153739264Y-93227882D01*
X153753543Y-93231459D01*
X153767403Y-93236418D01*
X153780710Y-93242712D01*
X153793336Y-93250280D01*
X153805159Y-93259048D01*
X153816066Y-93268934D01*
X153825952Y-93279841D01*
X153834720Y-93291664D01*
X153842288Y-93304290D01*
X153848582Y-93317597D01*
X153853541Y-93331457D01*
X153857118Y-93345736D01*
X153859278Y-93360297D01*
X153860000Y-93375000D01*
X153860000Y-93675000D01*
X153859278Y-93689703D01*
X153857118Y-93704264D01*
X153853541Y-93718543D01*
X153848582Y-93732403D01*
X153842288Y-93745710D01*
X153834720Y-93758336D01*
X153825952Y-93770159D01*
X153816066Y-93781066D01*
X153805159Y-93790952D01*
X153793336Y-93799720D01*
X153780710Y-93807288D01*
X153767403Y-93813582D01*
X153753543Y-93818541D01*
X153739264Y-93822118D01*
X153724703Y-93824278D01*
X153710000Y-93825000D01*
X152060000Y-93825000D01*
X152045297Y-93824278D01*
X152030736Y-93822118D01*
X152016457Y-93818541D01*
X152002597Y-93813582D01*
X151989290Y-93807288D01*
X151976664Y-93799720D01*
X151964841Y-93790952D01*
X151953934Y-93781066D01*
X151944048Y-93770159D01*
X151935280Y-93758336D01*
X151927712Y-93745710D01*
X151921418Y-93732403D01*
X151916459Y-93718543D01*
X151912882Y-93704264D01*
X151910722Y-93689703D01*
X151910000Y-93675000D01*
X151910000Y-93375000D01*
X151910722Y-93360297D01*
X151912882Y-93345736D01*
X151916459Y-93331457D01*
X151921418Y-93317597D01*
X151927712Y-93304290D01*
X151935280Y-93291664D01*
X151944048Y-93279841D01*
X151953934Y-93268934D01*
X151964841Y-93259048D01*
X151976664Y-93250280D01*
X151989290Y-93242712D01*
X152002597Y-93236418D01*
X152016457Y-93231459D01*
X152030736Y-93227882D01*
X152045297Y-93225722D01*
X152060000Y-93225000D01*
X153710000Y-93225000D01*
X153724703Y-93225722D01*
G37*
G04 #@! TD.AperFunction*
G04 #@! TA.AperFunction,SMDPad,CuDef*
G36*
X153724703Y-94495722D02*
G01*
X153739264Y-94497882D01*
X153753543Y-94501459D01*
X153767403Y-94506418D01*
X153780710Y-94512712D01*
X153793336Y-94520280D01*
X153805159Y-94529048D01*
X153816066Y-94538934D01*
X153825952Y-94549841D01*
X153834720Y-94561664D01*
X153842288Y-94574290D01*
X153848582Y-94587597D01*
X153853541Y-94601457D01*
X153857118Y-94615736D01*
X153859278Y-94630297D01*
X153860000Y-94645000D01*
X153860000Y-94945000D01*
X153859278Y-94959703D01*
X153857118Y-94974264D01*
X153853541Y-94988543D01*
X153848582Y-95002403D01*
X153842288Y-95015710D01*
X153834720Y-95028336D01*
X153825952Y-95040159D01*
X153816066Y-95051066D01*
X153805159Y-95060952D01*
X153793336Y-95069720D01*
X153780710Y-95077288D01*
X153767403Y-95083582D01*
X153753543Y-95088541D01*
X153739264Y-95092118D01*
X153724703Y-95094278D01*
X153710000Y-95095000D01*
X152060000Y-95095000D01*
X152045297Y-95094278D01*
X152030736Y-95092118D01*
X152016457Y-95088541D01*
X152002597Y-95083582D01*
X151989290Y-95077288D01*
X151976664Y-95069720D01*
X151964841Y-95060952D01*
X151953934Y-95051066D01*
X151944048Y-95040159D01*
X151935280Y-95028336D01*
X151927712Y-95015710D01*
X151921418Y-95002403D01*
X151916459Y-94988543D01*
X151912882Y-94974264D01*
X151910722Y-94959703D01*
X151910000Y-94945000D01*
X151910000Y-94645000D01*
X151910722Y-94630297D01*
X151912882Y-94615736D01*
X151916459Y-94601457D01*
X151921418Y-94587597D01*
X151927712Y-94574290D01*
X151935280Y-94561664D01*
X151944048Y-94549841D01*
X151953934Y-94538934D01*
X151964841Y-94529048D01*
X151976664Y-94520280D01*
X151989290Y-94512712D01*
X152002597Y-94506418D01*
X152016457Y-94501459D01*
X152030736Y-94497882D01*
X152045297Y-94495722D01*
X152060000Y-94495000D01*
X153710000Y-94495000D01*
X153724703Y-94495722D01*
G37*
G04 #@! TD.AperFunction*
G04 #@! TA.AperFunction,SMDPad,CuDef*
G36*
X196175507Y-88164721D02*
G01*
X194902715Y-86891929D01*
X196316929Y-85477715D01*
X197589721Y-86750507D01*
X196175507Y-88164721D01*
G37*
G04 #@! TD.AperFunction*
G04 #@! TA.AperFunction,SMDPad,CuDef*
G36*
X201903071Y-93892285D02*
G01*
X200630279Y-92619493D01*
X202044493Y-91205279D01*
X203317285Y-92478071D01*
X201903071Y-93892285D01*
G37*
G04 #@! TD.AperFunction*
G04 #@! TA.AperFunction,SMDPad,CuDef*
G36*
X202504112Y-88977893D02*
G01*
X201797006Y-88270787D01*
X202751600Y-87316193D01*
X203458706Y-88023299D01*
X202504112Y-88977893D01*
G37*
G04 #@! TD.AperFunction*
G04 #@! TA.AperFunction,SMDPad,CuDef*
G36*
X201514163Y-87987943D02*
G01*
X200807057Y-87280837D01*
X201761651Y-86326243D01*
X202468757Y-87033349D01*
X201514163Y-87987943D01*
G37*
G04 #@! TD.AperFunction*
G04 #@! TA.AperFunction,SMDPad,CuDef*
G36*
X200524213Y-86997994D02*
G01*
X199817107Y-86290888D01*
X200771701Y-85336294D01*
X201478807Y-86043400D01*
X200524213Y-86997994D01*
G37*
G04 #@! TD.AperFunction*
G04 #@! TA.AperFunction,SMDPad,CuDef*
G36*
X195468400Y-92053807D02*
G01*
X194761294Y-91346701D01*
X195715888Y-90392107D01*
X196422994Y-91099213D01*
X195468400Y-92053807D01*
G37*
G04 #@! TD.AperFunction*
G04 #@! TA.AperFunction,SMDPad,CuDef*
G36*
X196458349Y-93043757D02*
G01*
X195751243Y-92336651D01*
X196705837Y-91382057D01*
X197412943Y-92089163D01*
X196458349Y-93043757D01*
G37*
G04 #@! TD.AperFunction*
G04 #@! TA.AperFunction,SMDPad,CuDef*
G36*
X197448299Y-94033706D02*
G01*
X196741193Y-93326600D01*
X197695787Y-92372006D01*
X198402893Y-93079112D01*
X197448299Y-94033706D01*
G37*
G04 #@! TD.AperFunction*
G04 #@! TA.AperFunction,SMDPad,CuDef*
G36*
X155487691Y-87261053D02*
G01*
X155508926Y-87264203D01*
X155529750Y-87269419D01*
X155549962Y-87276651D01*
X155569368Y-87285830D01*
X155587781Y-87296866D01*
X155605024Y-87309654D01*
X155620930Y-87324070D01*
X155635346Y-87339976D01*
X155648134Y-87357219D01*
X155659170Y-87375632D01*
X155668349Y-87395038D01*
X155675581Y-87415250D01*
X155680797Y-87436074D01*
X155683947Y-87457309D01*
X155685000Y-87478750D01*
X155685000Y-87916250D01*
X155683947Y-87937691D01*
X155680797Y-87958926D01*
X155675581Y-87979750D01*
X155668349Y-87999962D01*
X155659170Y-88019368D01*
X155648134Y-88037781D01*
X155635346Y-88055024D01*
X155620930Y-88070930D01*
X155605024Y-88085346D01*
X155587781Y-88098134D01*
X155569368Y-88109170D01*
X155549962Y-88118349D01*
X155529750Y-88125581D01*
X155508926Y-88130797D01*
X155487691Y-88133947D01*
X155466250Y-88135000D01*
X154953750Y-88135000D01*
X154932309Y-88133947D01*
X154911074Y-88130797D01*
X154890250Y-88125581D01*
X154870038Y-88118349D01*
X154850632Y-88109170D01*
X154832219Y-88098134D01*
X154814976Y-88085346D01*
X154799070Y-88070930D01*
X154784654Y-88055024D01*
X154771866Y-88037781D01*
X154760830Y-88019368D01*
X154751651Y-87999962D01*
X154744419Y-87979750D01*
X154739203Y-87958926D01*
X154736053Y-87937691D01*
X154735000Y-87916250D01*
X154735000Y-87478750D01*
X154736053Y-87457309D01*
X154739203Y-87436074D01*
X154744419Y-87415250D01*
X154751651Y-87395038D01*
X154760830Y-87375632D01*
X154771866Y-87357219D01*
X154784654Y-87339976D01*
X154799070Y-87324070D01*
X154814976Y-87309654D01*
X154832219Y-87296866D01*
X154850632Y-87285830D01*
X154870038Y-87276651D01*
X154890250Y-87269419D01*
X154911074Y-87264203D01*
X154932309Y-87261053D01*
X154953750Y-87260000D01*
X155466250Y-87260000D01*
X155487691Y-87261053D01*
G37*
G04 #@! TD.AperFunction*
G04 #@! TA.AperFunction,SMDPad,CuDef*
G36*
X155487691Y-88836053D02*
G01*
X155508926Y-88839203D01*
X155529750Y-88844419D01*
X155549962Y-88851651D01*
X155569368Y-88860830D01*
X155587781Y-88871866D01*
X155605024Y-88884654D01*
X155620930Y-88899070D01*
X155635346Y-88914976D01*
X155648134Y-88932219D01*
X155659170Y-88950632D01*
X155668349Y-88970038D01*
X155675581Y-88990250D01*
X155680797Y-89011074D01*
X155683947Y-89032309D01*
X155685000Y-89053750D01*
X155685000Y-89491250D01*
X155683947Y-89512691D01*
X155680797Y-89533926D01*
X155675581Y-89554750D01*
X155668349Y-89574962D01*
X155659170Y-89594368D01*
X155648134Y-89612781D01*
X155635346Y-89630024D01*
X155620930Y-89645930D01*
X155605024Y-89660346D01*
X155587781Y-89673134D01*
X155569368Y-89684170D01*
X155549962Y-89693349D01*
X155529750Y-89700581D01*
X155508926Y-89705797D01*
X155487691Y-89708947D01*
X155466250Y-89710000D01*
X154953750Y-89710000D01*
X154932309Y-89708947D01*
X154911074Y-89705797D01*
X154890250Y-89700581D01*
X154870038Y-89693349D01*
X154850632Y-89684170D01*
X154832219Y-89673134D01*
X154814976Y-89660346D01*
X154799070Y-89645930D01*
X154784654Y-89630024D01*
X154771866Y-89612781D01*
X154760830Y-89594368D01*
X154751651Y-89574962D01*
X154744419Y-89554750D01*
X154739203Y-89533926D01*
X154736053Y-89512691D01*
X154735000Y-89491250D01*
X154735000Y-89053750D01*
X154736053Y-89032309D01*
X154739203Y-89011074D01*
X154744419Y-88990250D01*
X154751651Y-88970038D01*
X154760830Y-88950632D01*
X154771866Y-88932219D01*
X154784654Y-88914976D01*
X154799070Y-88899070D01*
X154814976Y-88884654D01*
X154832219Y-88871866D01*
X154850632Y-88860830D01*
X154870038Y-88851651D01*
X154890250Y-88844419D01*
X154911074Y-88839203D01*
X154932309Y-88836053D01*
X154953750Y-88835000D01*
X155466250Y-88835000D01*
X155487691Y-88836053D01*
G37*
G04 #@! TD.AperFunction*
G04 #@! TA.AperFunction,SMDPad,CuDef*
G36*
X160387691Y-89861053D02*
G01*
X160408926Y-89864203D01*
X160429750Y-89869419D01*
X160449962Y-89876651D01*
X160469368Y-89885830D01*
X160487781Y-89896866D01*
X160505024Y-89909654D01*
X160520930Y-89924070D01*
X160535346Y-89939976D01*
X160548134Y-89957219D01*
X160559170Y-89975632D01*
X160568349Y-89995038D01*
X160575581Y-90015250D01*
X160580797Y-90036074D01*
X160583947Y-90057309D01*
X160585000Y-90078750D01*
X160585000Y-90516250D01*
X160583947Y-90537691D01*
X160580797Y-90558926D01*
X160575581Y-90579750D01*
X160568349Y-90599962D01*
X160559170Y-90619368D01*
X160548134Y-90637781D01*
X160535346Y-90655024D01*
X160520930Y-90670930D01*
X160505024Y-90685346D01*
X160487781Y-90698134D01*
X160469368Y-90709170D01*
X160449962Y-90718349D01*
X160429750Y-90725581D01*
X160408926Y-90730797D01*
X160387691Y-90733947D01*
X160366250Y-90735000D01*
X159853750Y-90735000D01*
X159832309Y-90733947D01*
X159811074Y-90730797D01*
X159790250Y-90725581D01*
X159770038Y-90718349D01*
X159750632Y-90709170D01*
X159732219Y-90698134D01*
X159714976Y-90685346D01*
X159699070Y-90670930D01*
X159684654Y-90655024D01*
X159671866Y-90637781D01*
X159660830Y-90619368D01*
X159651651Y-90599962D01*
X159644419Y-90579750D01*
X159639203Y-90558926D01*
X159636053Y-90537691D01*
X159635000Y-90516250D01*
X159635000Y-90078750D01*
X159636053Y-90057309D01*
X159639203Y-90036074D01*
X159644419Y-90015250D01*
X159651651Y-89995038D01*
X159660830Y-89975632D01*
X159671866Y-89957219D01*
X159684654Y-89939976D01*
X159699070Y-89924070D01*
X159714976Y-89909654D01*
X159732219Y-89896866D01*
X159750632Y-89885830D01*
X159770038Y-89876651D01*
X159790250Y-89869419D01*
X159811074Y-89864203D01*
X159832309Y-89861053D01*
X159853750Y-89860000D01*
X160366250Y-89860000D01*
X160387691Y-89861053D01*
G37*
G04 #@! TD.AperFunction*
G04 #@! TA.AperFunction,SMDPad,CuDef*
G36*
X160387691Y-91436053D02*
G01*
X160408926Y-91439203D01*
X160429750Y-91444419D01*
X160449962Y-91451651D01*
X160469368Y-91460830D01*
X160487781Y-91471866D01*
X160505024Y-91484654D01*
X160520930Y-91499070D01*
X160535346Y-91514976D01*
X160548134Y-91532219D01*
X160559170Y-91550632D01*
X160568349Y-91570038D01*
X160575581Y-91590250D01*
X160580797Y-91611074D01*
X160583947Y-91632309D01*
X160585000Y-91653750D01*
X160585000Y-92091250D01*
X160583947Y-92112691D01*
X160580797Y-92133926D01*
X160575581Y-92154750D01*
X160568349Y-92174962D01*
X160559170Y-92194368D01*
X160548134Y-92212781D01*
X160535346Y-92230024D01*
X160520930Y-92245930D01*
X160505024Y-92260346D01*
X160487781Y-92273134D01*
X160469368Y-92284170D01*
X160449962Y-92293349D01*
X160429750Y-92300581D01*
X160408926Y-92305797D01*
X160387691Y-92308947D01*
X160366250Y-92310000D01*
X159853750Y-92310000D01*
X159832309Y-92308947D01*
X159811074Y-92305797D01*
X159790250Y-92300581D01*
X159770038Y-92293349D01*
X159750632Y-92284170D01*
X159732219Y-92273134D01*
X159714976Y-92260346D01*
X159699070Y-92245930D01*
X159684654Y-92230024D01*
X159671866Y-92212781D01*
X159660830Y-92194368D01*
X159651651Y-92174962D01*
X159644419Y-92154750D01*
X159639203Y-92133926D01*
X159636053Y-92112691D01*
X159635000Y-92091250D01*
X159635000Y-91653750D01*
X159636053Y-91632309D01*
X159639203Y-91611074D01*
X159644419Y-91590250D01*
X159651651Y-91570038D01*
X159660830Y-91550632D01*
X159671866Y-91532219D01*
X159684654Y-91514976D01*
X159699070Y-91499070D01*
X159714976Y-91484654D01*
X159732219Y-91471866D01*
X159750632Y-91460830D01*
X159770038Y-91451651D01*
X159790250Y-91444419D01*
X159811074Y-91439203D01*
X159832309Y-91436053D01*
X159853750Y-91435000D01*
X160366250Y-91435000D01*
X160387691Y-91436053D01*
G37*
G04 #@! TD.AperFunction*
D26*
X157710000Y-76365000D03*
X157710000Y-81405000D03*
X160250000Y-76365000D03*
X160250000Y-81405000D03*
X162790000Y-76365000D03*
X162790000Y-81405000D03*
X165330000Y-76365000D03*
X165330000Y-81405000D03*
G04 #@! TA.AperFunction,SMDPad,CuDef*
D19*
G36*
X178662691Y-87911053D02*
G01*
X178683926Y-87914203D01*
X178704750Y-87919419D01*
X178724962Y-87926651D01*
X178744368Y-87935830D01*
X178762781Y-87946866D01*
X178780024Y-87959654D01*
X178795930Y-87974070D01*
X178810346Y-87989976D01*
X178823134Y-88007219D01*
X178834170Y-88025632D01*
X178843349Y-88045038D01*
X178850581Y-88065250D01*
X178855797Y-88086074D01*
X178858947Y-88107309D01*
X178860000Y-88128750D01*
X178860000Y-88641250D01*
X178858947Y-88662691D01*
X178855797Y-88683926D01*
X178850581Y-88704750D01*
X178843349Y-88724962D01*
X178834170Y-88744368D01*
X178823134Y-88762781D01*
X178810346Y-88780024D01*
X178795930Y-88795930D01*
X178780024Y-88810346D01*
X178762781Y-88823134D01*
X178744368Y-88834170D01*
X178724962Y-88843349D01*
X178704750Y-88850581D01*
X178683926Y-88855797D01*
X178662691Y-88858947D01*
X178641250Y-88860000D01*
X178203750Y-88860000D01*
X178182309Y-88858947D01*
X178161074Y-88855797D01*
X178140250Y-88850581D01*
X178120038Y-88843349D01*
X178100632Y-88834170D01*
X178082219Y-88823134D01*
X178064976Y-88810346D01*
X178049070Y-88795930D01*
X178034654Y-88780024D01*
X178021866Y-88762781D01*
X178010830Y-88744368D01*
X178001651Y-88724962D01*
X177994419Y-88704750D01*
X177989203Y-88683926D01*
X177986053Y-88662691D01*
X177985000Y-88641250D01*
X177985000Y-88128750D01*
X177986053Y-88107309D01*
X177989203Y-88086074D01*
X177994419Y-88065250D01*
X178001651Y-88045038D01*
X178010830Y-88025632D01*
X178021866Y-88007219D01*
X178034654Y-87989976D01*
X178049070Y-87974070D01*
X178064976Y-87959654D01*
X178082219Y-87946866D01*
X178100632Y-87935830D01*
X178120038Y-87926651D01*
X178140250Y-87919419D01*
X178161074Y-87914203D01*
X178182309Y-87911053D01*
X178203750Y-87910000D01*
X178641250Y-87910000D01*
X178662691Y-87911053D01*
G37*
G04 #@! TD.AperFunction*
G04 #@! TA.AperFunction,SMDPad,CuDef*
G36*
X180237691Y-87911053D02*
G01*
X180258926Y-87914203D01*
X180279750Y-87919419D01*
X180299962Y-87926651D01*
X180319368Y-87935830D01*
X180337781Y-87946866D01*
X180355024Y-87959654D01*
X180370930Y-87974070D01*
X180385346Y-87989976D01*
X180398134Y-88007219D01*
X180409170Y-88025632D01*
X180418349Y-88045038D01*
X180425581Y-88065250D01*
X180430797Y-88086074D01*
X180433947Y-88107309D01*
X180435000Y-88128750D01*
X180435000Y-88641250D01*
X180433947Y-88662691D01*
X180430797Y-88683926D01*
X180425581Y-88704750D01*
X180418349Y-88724962D01*
X180409170Y-88744368D01*
X180398134Y-88762781D01*
X180385346Y-88780024D01*
X180370930Y-88795930D01*
X180355024Y-88810346D01*
X180337781Y-88823134D01*
X180319368Y-88834170D01*
X180299962Y-88843349D01*
X180279750Y-88850581D01*
X180258926Y-88855797D01*
X180237691Y-88858947D01*
X180216250Y-88860000D01*
X179778750Y-88860000D01*
X179757309Y-88858947D01*
X179736074Y-88855797D01*
X179715250Y-88850581D01*
X179695038Y-88843349D01*
X179675632Y-88834170D01*
X179657219Y-88823134D01*
X179639976Y-88810346D01*
X179624070Y-88795930D01*
X179609654Y-88780024D01*
X179596866Y-88762781D01*
X179585830Y-88744368D01*
X179576651Y-88724962D01*
X179569419Y-88704750D01*
X179564203Y-88683926D01*
X179561053Y-88662691D01*
X179560000Y-88641250D01*
X179560000Y-88128750D01*
X179561053Y-88107309D01*
X179564203Y-88086074D01*
X179569419Y-88065250D01*
X179576651Y-88045038D01*
X179585830Y-88025632D01*
X179596866Y-88007219D01*
X179609654Y-87989976D01*
X179624070Y-87974070D01*
X179639976Y-87959654D01*
X179657219Y-87946866D01*
X179675632Y-87935830D01*
X179695038Y-87926651D01*
X179715250Y-87919419D01*
X179736074Y-87914203D01*
X179757309Y-87911053D01*
X179778750Y-87910000D01*
X180216250Y-87910000D01*
X180237691Y-87911053D01*
G37*
G04 #@! TD.AperFunction*
G04 #@! TA.AperFunction,SMDPad,CuDef*
G36*
X178702691Y-89761053D02*
G01*
X178723926Y-89764203D01*
X178744750Y-89769419D01*
X178764962Y-89776651D01*
X178784368Y-89785830D01*
X178802781Y-89796866D01*
X178820024Y-89809654D01*
X178835930Y-89824070D01*
X178850346Y-89839976D01*
X178863134Y-89857219D01*
X178874170Y-89875632D01*
X178883349Y-89895038D01*
X178890581Y-89915250D01*
X178895797Y-89936074D01*
X178898947Y-89957309D01*
X178900000Y-89978750D01*
X178900000Y-90491250D01*
X178898947Y-90512691D01*
X178895797Y-90533926D01*
X178890581Y-90554750D01*
X178883349Y-90574962D01*
X178874170Y-90594368D01*
X178863134Y-90612781D01*
X178850346Y-90630024D01*
X178835930Y-90645930D01*
X178820024Y-90660346D01*
X178802781Y-90673134D01*
X178784368Y-90684170D01*
X178764962Y-90693349D01*
X178744750Y-90700581D01*
X178723926Y-90705797D01*
X178702691Y-90708947D01*
X178681250Y-90710000D01*
X178243750Y-90710000D01*
X178222309Y-90708947D01*
X178201074Y-90705797D01*
X178180250Y-90700581D01*
X178160038Y-90693349D01*
X178140632Y-90684170D01*
X178122219Y-90673134D01*
X178104976Y-90660346D01*
X178089070Y-90645930D01*
X178074654Y-90630024D01*
X178061866Y-90612781D01*
X178050830Y-90594368D01*
X178041651Y-90574962D01*
X178034419Y-90554750D01*
X178029203Y-90533926D01*
X178026053Y-90512691D01*
X178025000Y-90491250D01*
X178025000Y-89978750D01*
X178026053Y-89957309D01*
X178029203Y-89936074D01*
X178034419Y-89915250D01*
X178041651Y-89895038D01*
X178050830Y-89875632D01*
X178061866Y-89857219D01*
X178074654Y-89839976D01*
X178089070Y-89824070D01*
X178104976Y-89809654D01*
X178122219Y-89796866D01*
X178140632Y-89785830D01*
X178160038Y-89776651D01*
X178180250Y-89769419D01*
X178201074Y-89764203D01*
X178222309Y-89761053D01*
X178243750Y-89760000D01*
X178681250Y-89760000D01*
X178702691Y-89761053D01*
G37*
G04 #@! TD.AperFunction*
G04 #@! TA.AperFunction,SMDPad,CuDef*
G36*
X180277691Y-89761053D02*
G01*
X180298926Y-89764203D01*
X180319750Y-89769419D01*
X180339962Y-89776651D01*
X180359368Y-89785830D01*
X180377781Y-89796866D01*
X180395024Y-89809654D01*
X180410930Y-89824070D01*
X180425346Y-89839976D01*
X180438134Y-89857219D01*
X180449170Y-89875632D01*
X180458349Y-89895038D01*
X180465581Y-89915250D01*
X180470797Y-89936074D01*
X180473947Y-89957309D01*
X180475000Y-89978750D01*
X180475000Y-90491250D01*
X180473947Y-90512691D01*
X180470797Y-90533926D01*
X180465581Y-90554750D01*
X180458349Y-90574962D01*
X180449170Y-90594368D01*
X180438134Y-90612781D01*
X180425346Y-90630024D01*
X180410930Y-90645930D01*
X180395024Y-90660346D01*
X180377781Y-90673134D01*
X180359368Y-90684170D01*
X180339962Y-90693349D01*
X180319750Y-90700581D01*
X180298926Y-90705797D01*
X180277691Y-90708947D01*
X180256250Y-90710000D01*
X179818750Y-90710000D01*
X179797309Y-90708947D01*
X179776074Y-90705797D01*
X179755250Y-90700581D01*
X179735038Y-90693349D01*
X179715632Y-90684170D01*
X179697219Y-90673134D01*
X179679976Y-90660346D01*
X179664070Y-90645930D01*
X179649654Y-90630024D01*
X179636866Y-90612781D01*
X179625830Y-90594368D01*
X179616651Y-90574962D01*
X179609419Y-90554750D01*
X179604203Y-90533926D01*
X179601053Y-90512691D01*
X179600000Y-90491250D01*
X179600000Y-89978750D01*
X179601053Y-89957309D01*
X179604203Y-89936074D01*
X179609419Y-89915250D01*
X179616651Y-89895038D01*
X179625830Y-89875632D01*
X179636866Y-89857219D01*
X179649654Y-89839976D01*
X179664070Y-89824070D01*
X179679976Y-89809654D01*
X179697219Y-89796866D01*
X179715632Y-89785830D01*
X179735038Y-89776651D01*
X179755250Y-89769419D01*
X179776074Y-89764203D01*
X179797309Y-89761053D01*
X179818750Y-89760000D01*
X180256250Y-89760000D01*
X180277691Y-89761053D01*
G37*
G04 #@! TD.AperFunction*
G04 #@! TA.AperFunction,SMDPad,CuDef*
G36*
X190862691Y-84311053D02*
G01*
X190883926Y-84314203D01*
X190904750Y-84319419D01*
X190924962Y-84326651D01*
X190944368Y-84335830D01*
X190962781Y-84346866D01*
X190980024Y-84359654D01*
X190995930Y-84374070D01*
X191010346Y-84389976D01*
X191023134Y-84407219D01*
X191034170Y-84425632D01*
X191043349Y-84445038D01*
X191050581Y-84465250D01*
X191055797Y-84486074D01*
X191058947Y-84507309D01*
X191060000Y-84528750D01*
X191060000Y-85041250D01*
X191058947Y-85062691D01*
X191055797Y-85083926D01*
X191050581Y-85104750D01*
X191043349Y-85124962D01*
X191034170Y-85144368D01*
X191023134Y-85162781D01*
X191010346Y-85180024D01*
X190995930Y-85195930D01*
X190980024Y-85210346D01*
X190962781Y-85223134D01*
X190944368Y-85234170D01*
X190924962Y-85243349D01*
X190904750Y-85250581D01*
X190883926Y-85255797D01*
X190862691Y-85258947D01*
X190841250Y-85260000D01*
X190403750Y-85260000D01*
X190382309Y-85258947D01*
X190361074Y-85255797D01*
X190340250Y-85250581D01*
X190320038Y-85243349D01*
X190300632Y-85234170D01*
X190282219Y-85223134D01*
X190264976Y-85210346D01*
X190249070Y-85195930D01*
X190234654Y-85180024D01*
X190221866Y-85162781D01*
X190210830Y-85144368D01*
X190201651Y-85124962D01*
X190194419Y-85104750D01*
X190189203Y-85083926D01*
X190186053Y-85062691D01*
X190185000Y-85041250D01*
X190185000Y-84528750D01*
X190186053Y-84507309D01*
X190189203Y-84486074D01*
X190194419Y-84465250D01*
X190201651Y-84445038D01*
X190210830Y-84425632D01*
X190221866Y-84407219D01*
X190234654Y-84389976D01*
X190249070Y-84374070D01*
X190264976Y-84359654D01*
X190282219Y-84346866D01*
X190300632Y-84335830D01*
X190320038Y-84326651D01*
X190340250Y-84319419D01*
X190361074Y-84314203D01*
X190382309Y-84311053D01*
X190403750Y-84310000D01*
X190841250Y-84310000D01*
X190862691Y-84311053D01*
G37*
G04 #@! TD.AperFunction*
G04 #@! TA.AperFunction,SMDPad,CuDef*
G36*
X192437691Y-84311053D02*
G01*
X192458926Y-84314203D01*
X192479750Y-84319419D01*
X192499962Y-84326651D01*
X192519368Y-84335830D01*
X192537781Y-84346866D01*
X192555024Y-84359654D01*
X192570930Y-84374070D01*
X192585346Y-84389976D01*
X192598134Y-84407219D01*
X192609170Y-84425632D01*
X192618349Y-84445038D01*
X192625581Y-84465250D01*
X192630797Y-84486074D01*
X192633947Y-84507309D01*
X192635000Y-84528750D01*
X192635000Y-85041250D01*
X192633947Y-85062691D01*
X192630797Y-85083926D01*
X192625581Y-85104750D01*
X192618349Y-85124962D01*
X192609170Y-85144368D01*
X192598134Y-85162781D01*
X192585346Y-85180024D01*
X192570930Y-85195930D01*
X192555024Y-85210346D01*
X192537781Y-85223134D01*
X192519368Y-85234170D01*
X192499962Y-85243349D01*
X192479750Y-85250581D01*
X192458926Y-85255797D01*
X192437691Y-85258947D01*
X192416250Y-85260000D01*
X191978750Y-85260000D01*
X191957309Y-85258947D01*
X191936074Y-85255797D01*
X191915250Y-85250581D01*
X191895038Y-85243349D01*
X191875632Y-85234170D01*
X191857219Y-85223134D01*
X191839976Y-85210346D01*
X191824070Y-85195930D01*
X191809654Y-85180024D01*
X191796866Y-85162781D01*
X191785830Y-85144368D01*
X191776651Y-85124962D01*
X191769419Y-85104750D01*
X191764203Y-85083926D01*
X191761053Y-85062691D01*
X191760000Y-85041250D01*
X191760000Y-84528750D01*
X191761053Y-84507309D01*
X191764203Y-84486074D01*
X191769419Y-84465250D01*
X191776651Y-84445038D01*
X191785830Y-84425632D01*
X191796866Y-84407219D01*
X191809654Y-84389976D01*
X191824070Y-84374070D01*
X191839976Y-84359654D01*
X191857219Y-84346866D01*
X191875632Y-84335830D01*
X191895038Y-84326651D01*
X191915250Y-84319419D01*
X191936074Y-84314203D01*
X191957309Y-84311053D01*
X191978750Y-84310000D01*
X192416250Y-84310000D01*
X192437691Y-84311053D01*
G37*
G04 #@! TD.AperFunction*
G04 #@! TA.AperFunction,SMDPad,CuDef*
G36*
X190862691Y-86111053D02*
G01*
X190883926Y-86114203D01*
X190904750Y-86119419D01*
X190924962Y-86126651D01*
X190944368Y-86135830D01*
X190962781Y-86146866D01*
X190980024Y-86159654D01*
X190995930Y-86174070D01*
X191010346Y-86189976D01*
X191023134Y-86207219D01*
X191034170Y-86225632D01*
X191043349Y-86245038D01*
X191050581Y-86265250D01*
X191055797Y-86286074D01*
X191058947Y-86307309D01*
X191060000Y-86328750D01*
X191060000Y-86841250D01*
X191058947Y-86862691D01*
X191055797Y-86883926D01*
X191050581Y-86904750D01*
X191043349Y-86924962D01*
X191034170Y-86944368D01*
X191023134Y-86962781D01*
X191010346Y-86980024D01*
X190995930Y-86995930D01*
X190980024Y-87010346D01*
X190962781Y-87023134D01*
X190944368Y-87034170D01*
X190924962Y-87043349D01*
X190904750Y-87050581D01*
X190883926Y-87055797D01*
X190862691Y-87058947D01*
X190841250Y-87060000D01*
X190403750Y-87060000D01*
X190382309Y-87058947D01*
X190361074Y-87055797D01*
X190340250Y-87050581D01*
X190320038Y-87043349D01*
X190300632Y-87034170D01*
X190282219Y-87023134D01*
X190264976Y-87010346D01*
X190249070Y-86995930D01*
X190234654Y-86980024D01*
X190221866Y-86962781D01*
X190210830Y-86944368D01*
X190201651Y-86924962D01*
X190194419Y-86904750D01*
X190189203Y-86883926D01*
X190186053Y-86862691D01*
X190185000Y-86841250D01*
X190185000Y-86328750D01*
X190186053Y-86307309D01*
X190189203Y-86286074D01*
X190194419Y-86265250D01*
X190201651Y-86245038D01*
X190210830Y-86225632D01*
X190221866Y-86207219D01*
X190234654Y-86189976D01*
X190249070Y-86174070D01*
X190264976Y-86159654D01*
X190282219Y-86146866D01*
X190300632Y-86135830D01*
X190320038Y-86126651D01*
X190340250Y-86119419D01*
X190361074Y-86114203D01*
X190382309Y-86111053D01*
X190403750Y-86110000D01*
X190841250Y-86110000D01*
X190862691Y-86111053D01*
G37*
G04 #@! TD.AperFunction*
G04 #@! TA.AperFunction,SMDPad,CuDef*
G36*
X192437691Y-86111053D02*
G01*
X192458926Y-86114203D01*
X192479750Y-86119419D01*
X192499962Y-86126651D01*
X192519368Y-86135830D01*
X192537781Y-86146866D01*
X192555024Y-86159654D01*
X192570930Y-86174070D01*
X192585346Y-86189976D01*
X192598134Y-86207219D01*
X192609170Y-86225632D01*
X192618349Y-86245038D01*
X192625581Y-86265250D01*
X192630797Y-86286074D01*
X192633947Y-86307309D01*
X192635000Y-86328750D01*
X192635000Y-86841250D01*
X192633947Y-86862691D01*
X192630797Y-86883926D01*
X192625581Y-86904750D01*
X192618349Y-86924962D01*
X192609170Y-86944368D01*
X192598134Y-86962781D01*
X192585346Y-86980024D01*
X192570930Y-86995930D01*
X192555024Y-87010346D01*
X192537781Y-87023134D01*
X192519368Y-87034170D01*
X192499962Y-87043349D01*
X192479750Y-87050581D01*
X192458926Y-87055797D01*
X192437691Y-87058947D01*
X192416250Y-87060000D01*
X191978750Y-87060000D01*
X191957309Y-87058947D01*
X191936074Y-87055797D01*
X191915250Y-87050581D01*
X191895038Y-87043349D01*
X191875632Y-87034170D01*
X191857219Y-87023134D01*
X191839976Y-87010346D01*
X191824070Y-86995930D01*
X191809654Y-86980024D01*
X191796866Y-86962781D01*
X191785830Y-86944368D01*
X191776651Y-86924962D01*
X191769419Y-86904750D01*
X191764203Y-86883926D01*
X191761053Y-86862691D01*
X191760000Y-86841250D01*
X191760000Y-86328750D01*
X191761053Y-86307309D01*
X191764203Y-86286074D01*
X191769419Y-86265250D01*
X191776651Y-86245038D01*
X191785830Y-86225632D01*
X191796866Y-86207219D01*
X191809654Y-86189976D01*
X191824070Y-86174070D01*
X191839976Y-86159654D01*
X191857219Y-86146866D01*
X191875632Y-86135830D01*
X191895038Y-86126651D01*
X191915250Y-86119419D01*
X191936074Y-86114203D01*
X191957309Y-86111053D01*
X191978750Y-86110000D01*
X192416250Y-86110000D01*
X192437691Y-86111053D01*
G37*
G04 #@! TD.AperFunction*
G04 #@! TA.AperFunction,SMDPad,CuDef*
G36*
X190862691Y-87961053D02*
G01*
X190883926Y-87964203D01*
X190904750Y-87969419D01*
X190924962Y-87976651D01*
X190944368Y-87985830D01*
X190962781Y-87996866D01*
X190980024Y-88009654D01*
X190995930Y-88024070D01*
X191010346Y-88039976D01*
X191023134Y-88057219D01*
X191034170Y-88075632D01*
X191043349Y-88095038D01*
X191050581Y-88115250D01*
X191055797Y-88136074D01*
X191058947Y-88157309D01*
X191060000Y-88178750D01*
X191060000Y-88691250D01*
X191058947Y-88712691D01*
X191055797Y-88733926D01*
X191050581Y-88754750D01*
X191043349Y-88774962D01*
X191034170Y-88794368D01*
X191023134Y-88812781D01*
X191010346Y-88830024D01*
X190995930Y-88845930D01*
X190980024Y-88860346D01*
X190962781Y-88873134D01*
X190944368Y-88884170D01*
X190924962Y-88893349D01*
X190904750Y-88900581D01*
X190883926Y-88905797D01*
X190862691Y-88908947D01*
X190841250Y-88910000D01*
X190403750Y-88910000D01*
X190382309Y-88908947D01*
X190361074Y-88905797D01*
X190340250Y-88900581D01*
X190320038Y-88893349D01*
X190300632Y-88884170D01*
X190282219Y-88873134D01*
X190264976Y-88860346D01*
X190249070Y-88845930D01*
X190234654Y-88830024D01*
X190221866Y-88812781D01*
X190210830Y-88794368D01*
X190201651Y-88774962D01*
X190194419Y-88754750D01*
X190189203Y-88733926D01*
X190186053Y-88712691D01*
X190185000Y-88691250D01*
X190185000Y-88178750D01*
X190186053Y-88157309D01*
X190189203Y-88136074D01*
X190194419Y-88115250D01*
X190201651Y-88095038D01*
X190210830Y-88075632D01*
X190221866Y-88057219D01*
X190234654Y-88039976D01*
X190249070Y-88024070D01*
X190264976Y-88009654D01*
X190282219Y-87996866D01*
X190300632Y-87985830D01*
X190320038Y-87976651D01*
X190340250Y-87969419D01*
X190361074Y-87964203D01*
X190382309Y-87961053D01*
X190403750Y-87960000D01*
X190841250Y-87960000D01*
X190862691Y-87961053D01*
G37*
G04 #@! TD.AperFunction*
G04 #@! TA.AperFunction,SMDPad,CuDef*
G36*
X192437691Y-87961053D02*
G01*
X192458926Y-87964203D01*
X192479750Y-87969419D01*
X192499962Y-87976651D01*
X192519368Y-87985830D01*
X192537781Y-87996866D01*
X192555024Y-88009654D01*
X192570930Y-88024070D01*
X192585346Y-88039976D01*
X192598134Y-88057219D01*
X192609170Y-88075632D01*
X192618349Y-88095038D01*
X192625581Y-88115250D01*
X192630797Y-88136074D01*
X192633947Y-88157309D01*
X192635000Y-88178750D01*
X192635000Y-88691250D01*
X192633947Y-88712691D01*
X192630797Y-88733926D01*
X192625581Y-88754750D01*
X192618349Y-88774962D01*
X192609170Y-88794368D01*
X192598134Y-88812781D01*
X192585346Y-88830024D01*
X192570930Y-88845930D01*
X192555024Y-88860346D01*
X192537781Y-88873134D01*
X192519368Y-88884170D01*
X192499962Y-88893349D01*
X192479750Y-88900581D01*
X192458926Y-88905797D01*
X192437691Y-88908947D01*
X192416250Y-88910000D01*
X191978750Y-88910000D01*
X191957309Y-88908947D01*
X191936074Y-88905797D01*
X191915250Y-88900581D01*
X191895038Y-88893349D01*
X191875632Y-88884170D01*
X191857219Y-88873134D01*
X191839976Y-88860346D01*
X191824070Y-88845930D01*
X191809654Y-88830024D01*
X191796866Y-88812781D01*
X191785830Y-88794368D01*
X191776651Y-88774962D01*
X191769419Y-88754750D01*
X191764203Y-88733926D01*
X191761053Y-88712691D01*
X191760000Y-88691250D01*
X191760000Y-88178750D01*
X191761053Y-88157309D01*
X191764203Y-88136074D01*
X191769419Y-88115250D01*
X191776651Y-88095038D01*
X191785830Y-88075632D01*
X191796866Y-88057219D01*
X191809654Y-88039976D01*
X191824070Y-88024070D01*
X191839976Y-88009654D01*
X191857219Y-87996866D01*
X191875632Y-87985830D01*
X191895038Y-87976651D01*
X191915250Y-87969419D01*
X191936074Y-87964203D01*
X191957309Y-87961053D01*
X191978750Y-87960000D01*
X192416250Y-87960000D01*
X192437691Y-87961053D01*
G37*
G04 #@! TD.AperFunction*
G04 #@! TA.AperFunction,SMDPad,CuDef*
G36*
X149637691Y-88011053D02*
G01*
X149658926Y-88014203D01*
X149679750Y-88019419D01*
X149699962Y-88026651D01*
X149719368Y-88035830D01*
X149737781Y-88046866D01*
X149755024Y-88059654D01*
X149770930Y-88074070D01*
X149785346Y-88089976D01*
X149798134Y-88107219D01*
X149809170Y-88125632D01*
X149818349Y-88145038D01*
X149825581Y-88165250D01*
X149830797Y-88186074D01*
X149833947Y-88207309D01*
X149835000Y-88228750D01*
X149835000Y-88741250D01*
X149833947Y-88762691D01*
X149830797Y-88783926D01*
X149825581Y-88804750D01*
X149818349Y-88824962D01*
X149809170Y-88844368D01*
X149798134Y-88862781D01*
X149785346Y-88880024D01*
X149770930Y-88895930D01*
X149755024Y-88910346D01*
X149737781Y-88923134D01*
X149719368Y-88934170D01*
X149699962Y-88943349D01*
X149679750Y-88950581D01*
X149658926Y-88955797D01*
X149637691Y-88958947D01*
X149616250Y-88960000D01*
X149178750Y-88960000D01*
X149157309Y-88958947D01*
X149136074Y-88955797D01*
X149115250Y-88950581D01*
X149095038Y-88943349D01*
X149075632Y-88934170D01*
X149057219Y-88923134D01*
X149039976Y-88910346D01*
X149024070Y-88895930D01*
X149009654Y-88880024D01*
X148996866Y-88862781D01*
X148985830Y-88844368D01*
X148976651Y-88824962D01*
X148969419Y-88804750D01*
X148964203Y-88783926D01*
X148961053Y-88762691D01*
X148960000Y-88741250D01*
X148960000Y-88228750D01*
X148961053Y-88207309D01*
X148964203Y-88186074D01*
X148969419Y-88165250D01*
X148976651Y-88145038D01*
X148985830Y-88125632D01*
X148996866Y-88107219D01*
X149009654Y-88089976D01*
X149024070Y-88074070D01*
X149039976Y-88059654D01*
X149057219Y-88046866D01*
X149075632Y-88035830D01*
X149095038Y-88026651D01*
X149115250Y-88019419D01*
X149136074Y-88014203D01*
X149157309Y-88011053D01*
X149178750Y-88010000D01*
X149616250Y-88010000D01*
X149637691Y-88011053D01*
G37*
G04 #@! TD.AperFunction*
G04 #@! TA.AperFunction,SMDPad,CuDef*
G36*
X148062691Y-88011053D02*
G01*
X148083926Y-88014203D01*
X148104750Y-88019419D01*
X148124962Y-88026651D01*
X148144368Y-88035830D01*
X148162781Y-88046866D01*
X148180024Y-88059654D01*
X148195930Y-88074070D01*
X148210346Y-88089976D01*
X148223134Y-88107219D01*
X148234170Y-88125632D01*
X148243349Y-88145038D01*
X148250581Y-88165250D01*
X148255797Y-88186074D01*
X148258947Y-88207309D01*
X148260000Y-88228750D01*
X148260000Y-88741250D01*
X148258947Y-88762691D01*
X148255797Y-88783926D01*
X148250581Y-88804750D01*
X148243349Y-88824962D01*
X148234170Y-88844368D01*
X148223134Y-88862781D01*
X148210346Y-88880024D01*
X148195930Y-88895930D01*
X148180024Y-88910346D01*
X148162781Y-88923134D01*
X148144368Y-88934170D01*
X148124962Y-88943349D01*
X148104750Y-88950581D01*
X148083926Y-88955797D01*
X148062691Y-88958947D01*
X148041250Y-88960000D01*
X147603750Y-88960000D01*
X147582309Y-88958947D01*
X147561074Y-88955797D01*
X147540250Y-88950581D01*
X147520038Y-88943349D01*
X147500632Y-88934170D01*
X147482219Y-88923134D01*
X147464976Y-88910346D01*
X147449070Y-88895930D01*
X147434654Y-88880024D01*
X147421866Y-88862781D01*
X147410830Y-88844368D01*
X147401651Y-88824962D01*
X147394419Y-88804750D01*
X147389203Y-88783926D01*
X147386053Y-88762691D01*
X147385000Y-88741250D01*
X147385000Y-88228750D01*
X147386053Y-88207309D01*
X147389203Y-88186074D01*
X147394419Y-88165250D01*
X147401651Y-88145038D01*
X147410830Y-88125632D01*
X147421866Y-88107219D01*
X147434654Y-88089976D01*
X147449070Y-88074070D01*
X147464976Y-88059654D01*
X147482219Y-88046866D01*
X147500632Y-88035830D01*
X147520038Y-88026651D01*
X147540250Y-88019419D01*
X147561074Y-88014203D01*
X147582309Y-88011053D01*
X147603750Y-88010000D01*
X148041250Y-88010000D01*
X148062691Y-88011053D01*
G37*
G04 #@! TD.AperFunction*
G04 #@! TA.AperFunction,SMDPad,CuDef*
G36*
X153237691Y-88011053D02*
G01*
X153258926Y-88014203D01*
X153279750Y-88019419D01*
X153299962Y-88026651D01*
X153319368Y-88035830D01*
X153337781Y-88046866D01*
X153355024Y-88059654D01*
X153370930Y-88074070D01*
X153385346Y-88089976D01*
X153398134Y-88107219D01*
X153409170Y-88125632D01*
X153418349Y-88145038D01*
X153425581Y-88165250D01*
X153430797Y-88186074D01*
X153433947Y-88207309D01*
X153435000Y-88228750D01*
X153435000Y-88741250D01*
X153433947Y-88762691D01*
X153430797Y-88783926D01*
X153425581Y-88804750D01*
X153418349Y-88824962D01*
X153409170Y-88844368D01*
X153398134Y-88862781D01*
X153385346Y-88880024D01*
X153370930Y-88895930D01*
X153355024Y-88910346D01*
X153337781Y-88923134D01*
X153319368Y-88934170D01*
X153299962Y-88943349D01*
X153279750Y-88950581D01*
X153258926Y-88955797D01*
X153237691Y-88958947D01*
X153216250Y-88960000D01*
X152778750Y-88960000D01*
X152757309Y-88958947D01*
X152736074Y-88955797D01*
X152715250Y-88950581D01*
X152695038Y-88943349D01*
X152675632Y-88934170D01*
X152657219Y-88923134D01*
X152639976Y-88910346D01*
X152624070Y-88895930D01*
X152609654Y-88880024D01*
X152596866Y-88862781D01*
X152585830Y-88844368D01*
X152576651Y-88824962D01*
X152569419Y-88804750D01*
X152564203Y-88783926D01*
X152561053Y-88762691D01*
X152560000Y-88741250D01*
X152560000Y-88228750D01*
X152561053Y-88207309D01*
X152564203Y-88186074D01*
X152569419Y-88165250D01*
X152576651Y-88145038D01*
X152585830Y-88125632D01*
X152596866Y-88107219D01*
X152609654Y-88089976D01*
X152624070Y-88074070D01*
X152639976Y-88059654D01*
X152657219Y-88046866D01*
X152675632Y-88035830D01*
X152695038Y-88026651D01*
X152715250Y-88019419D01*
X152736074Y-88014203D01*
X152757309Y-88011053D01*
X152778750Y-88010000D01*
X153216250Y-88010000D01*
X153237691Y-88011053D01*
G37*
G04 #@! TD.AperFunction*
G04 #@! TA.AperFunction,SMDPad,CuDef*
G36*
X151662691Y-88011053D02*
G01*
X151683926Y-88014203D01*
X151704750Y-88019419D01*
X151724962Y-88026651D01*
X151744368Y-88035830D01*
X151762781Y-88046866D01*
X151780024Y-88059654D01*
X151795930Y-88074070D01*
X151810346Y-88089976D01*
X151823134Y-88107219D01*
X151834170Y-88125632D01*
X151843349Y-88145038D01*
X151850581Y-88165250D01*
X151855797Y-88186074D01*
X151858947Y-88207309D01*
X151860000Y-88228750D01*
X151860000Y-88741250D01*
X151858947Y-88762691D01*
X151855797Y-88783926D01*
X151850581Y-88804750D01*
X151843349Y-88824962D01*
X151834170Y-88844368D01*
X151823134Y-88862781D01*
X151810346Y-88880024D01*
X151795930Y-88895930D01*
X151780024Y-88910346D01*
X151762781Y-88923134D01*
X151744368Y-88934170D01*
X151724962Y-88943349D01*
X151704750Y-88950581D01*
X151683926Y-88955797D01*
X151662691Y-88958947D01*
X151641250Y-88960000D01*
X151203750Y-88960000D01*
X151182309Y-88958947D01*
X151161074Y-88955797D01*
X151140250Y-88950581D01*
X151120038Y-88943349D01*
X151100632Y-88934170D01*
X151082219Y-88923134D01*
X151064976Y-88910346D01*
X151049070Y-88895930D01*
X151034654Y-88880024D01*
X151021866Y-88862781D01*
X151010830Y-88844368D01*
X151001651Y-88824962D01*
X150994419Y-88804750D01*
X150989203Y-88783926D01*
X150986053Y-88762691D01*
X150985000Y-88741250D01*
X150985000Y-88228750D01*
X150986053Y-88207309D01*
X150989203Y-88186074D01*
X150994419Y-88165250D01*
X151001651Y-88145038D01*
X151010830Y-88125632D01*
X151021866Y-88107219D01*
X151034654Y-88089976D01*
X151049070Y-88074070D01*
X151064976Y-88059654D01*
X151082219Y-88046866D01*
X151100632Y-88035830D01*
X151120038Y-88026651D01*
X151140250Y-88019419D01*
X151161074Y-88014203D01*
X151182309Y-88011053D01*
X151203750Y-88010000D01*
X151641250Y-88010000D01*
X151662691Y-88011053D01*
G37*
G04 #@! TD.AperFunction*
D27*
X134510000Y-75947500D03*
X128710000Y-75947500D03*
D28*
X128110000Y-75947500D03*
X135110000Y-75947500D03*
D29*
X132610000Y-75947500D03*
D30*
X129110000Y-78647500D03*
D31*
X131610000Y-78647500D03*
X130960000Y-78647500D03*
X130310000Y-78647500D03*
X132910000Y-78647500D03*
X132260000Y-78647500D03*
D30*
X134110000Y-78647500D03*
D29*
X130610000Y-75947500D03*
D32*
X194400000Y-80835000D03*
X194400000Y-76935000D03*
X195670000Y-80835000D03*
X195670000Y-76935000D03*
X196940000Y-80835000D03*
X196940000Y-76935000D03*
X198210000Y-80835000D03*
X198210000Y-76935000D03*
X199480000Y-80835000D03*
X199480000Y-76935000D03*
X200750000Y-80835000D03*
X200750000Y-76935000D03*
X202020000Y-80835000D03*
X202020000Y-76935000D03*
D33*
X210110000Y-85185000D03*
X209510000Y-86085000D03*
X209510000Y-84285000D03*
X122610000Y-89785000D03*
X123810000Y-89785000D03*
X125010000Y-89785000D03*
X172110000Y-78885000D03*
X170910000Y-78885000D03*
X144310000Y-90485000D03*
X145510000Y-90485000D03*
X143110000Y-90485000D03*
X155310000Y-78885000D03*
X150400000Y-95500000D03*
X168100000Y-95500000D03*
X178700000Y-95500000D03*
X189200000Y-95500000D03*
X200600000Y-83500000D03*
X208910000Y-80285000D03*
X207710000Y-80285000D03*
X210110000Y-80285000D03*
X156210000Y-76385000D03*
X155110000Y-76385000D03*
X154010000Y-76385000D03*
X162672500Y-85585000D03*
X181010000Y-76685000D03*
X179810000Y-76685000D03*
X176310000Y-85685000D03*
X176310000Y-84685000D03*
X199410000Y-74885000D03*
X169400000Y-94400000D03*
X183200000Y-94400000D03*
X199800000Y-89000000D03*
X193900000Y-84700000D03*
X183900000Y-85700000D03*
X185110000Y-80285000D03*
X186310000Y-80285000D03*
X148910000Y-80285000D03*
X150110000Y-80285000D03*
X159010000Y-80285000D03*
X159010000Y-81385000D03*
X197800000Y-91000000D03*
X186200000Y-89500000D03*
X185000000Y-89500000D03*
X199100000Y-93600000D03*
X193100000Y-81000000D03*
X183800000Y-89500000D03*
X180900000Y-89300000D03*
X193300000Y-76900000D03*
X150900000Y-90900000D03*
X158700000Y-90900000D03*
X184800000Y-84900000D03*
X149700000Y-90900000D03*
X156800000Y-87700000D03*
X185600000Y-84200000D03*
X137110000Y-85185000D03*
X134710000Y-85185000D03*
X135910000Y-85185000D03*
X161910000Y-90785000D03*
X163110000Y-90785000D03*
X177500000Y-85600000D03*
X189700000Y-87500000D03*
X200100000Y-78800000D03*
X188000000Y-78200000D03*
X183900000Y-86900000D03*
X179200000Y-83700000D03*
X187000000Y-94400000D03*
X165800000Y-94400000D03*
X158900000Y-84600000D03*
X180900000Y-85600000D03*
X172096076Y-94463399D03*
D34*
X130310000Y-78647500D02*
X130310000Y-79822500D01*
D35*
X130310000Y-80185000D02*
X129510000Y-80985000D01*
X124347500Y-80985000D02*
X121610000Y-83722500D01*
X121610000Y-83722500D02*
X121610000Y-88385000D01*
D34*
X126810000Y-82797500D02*
X126810000Y-80985000D01*
D35*
X126810000Y-80985000D02*
X124347500Y-80985000D01*
D34*
X128810000Y-81085000D02*
X128910000Y-80985000D01*
X128810000Y-82797500D02*
X128810000Y-81085000D01*
D35*
X129510000Y-80985000D02*
X128910000Y-80985000D01*
X128910000Y-80985000D02*
X126810000Y-80985000D01*
D36*
X204010000Y-85897500D02*
X205897500Y-87785000D01*
X204010000Y-85735000D02*
X204010000Y-85897500D01*
X209235000Y-88035000D02*
X208585000Y-88035000D01*
D35*
X209510000Y-86085000D02*
X208910000Y-86685000D01*
X208910000Y-86685000D02*
X208910000Y-88285000D01*
X210084990Y-85510010D02*
X210084990Y-85210010D01*
X209510000Y-86085000D02*
X210084990Y-85510010D01*
X210084990Y-84859990D02*
X210084990Y-85159990D01*
X209510000Y-84285000D02*
X210084990Y-84859990D01*
D34*
X205897500Y-87785000D02*
X205897500Y-89072500D01*
X205897500Y-89072500D02*
X206310000Y-89485000D01*
X208910000Y-88285000D02*
X208910000Y-89085000D01*
X208910000Y-89085000D02*
X208510000Y-89485000D01*
X208510000Y-89485000D02*
X206310000Y-89485000D01*
D35*
X122610000Y-89785000D02*
X124444315Y-89785000D01*
X121610000Y-88785000D02*
X122610000Y-89785000D01*
D34*
X123810000Y-87495000D02*
X123810000Y-89785000D01*
D35*
X124444315Y-89785000D02*
X125010000Y-89785000D01*
X121610000Y-88385000D02*
X121610000Y-88785000D01*
D34*
X130310000Y-79822500D02*
X130310000Y-80185000D01*
D35*
X133610000Y-92535000D02*
X133610000Y-94735000D01*
X141810000Y-92085000D02*
X134060000Y-92085000D01*
X134060000Y-92085000D02*
X133610000Y-92535000D01*
X144310000Y-94585000D02*
X141810000Y-92085000D01*
D34*
X144520000Y-94795000D02*
X144310000Y-94585000D01*
X147935000Y-94795000D02*
X144520000Y-94795000D01*
X132910000Y-78647500D02*
X132910000Y-79822500D01*
D35*
X132399998Y-80185000D02*
X130910000Y-81674998D01*
X132910000Y-80185000D02*
X132399998Y-80185000D01*
X129285000Y-84372500D02*
X128810000Y-84372500D01*
X130910000Y-82747500D02*
X129285000Y-84372500D01*
X130910000Y-81674998D02*
X130910000Y-82747500D01*
X128810000Y-84372500D02*
X126810000Y-84372500D01*
X125262500Y-84372500D02*
X124760000Y-84875000D01*
X126810000Y-84372500D02*
X125262500Y-84372500D01*
D34*
X128810000Y-86197500D02*
X128810000Y-84372500D01*
X132910000Y-79822500D02*
X132910000Y-80185000D01*
X202297500Y-84785000D02*
X202210000Y-84872500D01*
X204010000Y-84785000D02*
X202297500Y-84785000D01*
X202210000Y-85672500D02*
X202210000Y-84872500D01*
X204322500Y-87785000D02*
X202210000Y-85672500D01*
D37*
X124760000Y-87780000D02*
X126065000Y-89085000D01*
X124760000Y-87495000D02*
X124760000Y-87780000D01*
D35*
X132210000Y-89985000D02*
X126965000Y-89985000D01*
X126965000Y-89985000D02*
X126065000Y-89085000D01*
X171660000Y-76685000D02*
X171510000Y-76535000D01*
X176372500Y-76685000D02*
X171660000Y-76685000D01*
D34*
X161872500Y-84647500D02*
X161860000Y-84635000D01*
D37*
X174122500Y-88822500D02*
X174110000Y-88835000D01*
X176310000Y-88822500D02*
X174122500Y-88822500D01*
D35*
X134310000Y-87885000D02*
X132210000Y-89985000D01*
X144310000Y-88785000D02*
X143410000Y-87885000D01*
X143410000Y-87885000D02*
X134310000Y-87885000D01*
X145510000Y-90485000D02*
X143110000Y-90485000D01*
X143110000Y-89985000D02*
X144310000Y-88785000D01*
X143110000Y-90485000D02*
X143110000Y-89985000D01*
X144310000Y-90485000D02*
X144310000Y-88785000D01*
X145510000Y-89985000D02*
X144310000Y-88785000D01*
X145510000Y-90485000D02*
X145510000Y-89985000D01*
X172110000Y-78885000D02*
X171510000Y-78885000D01*
X171510000Y-78885000D02*
X170910000Y-78885000D01*
X170910000Y-77135000D02*
X171510000Y-76535000D01*
X170910000Y-78885000D02*
X170910000Y-77135000D01*
X172110000Y-77135000D02*
X171510000Y-76535000D01*
X172110000Y-78885000D02*
X172110000Y-77135000D01*
X171510000Y-76535000D02*
X171510000Y-78885000D01*
D34*
X156010000Y-83585000D02*
X155310000Y-82885000D01*
X155310000Y-82885000D02*
X155310000Y-78885000D01*
X161635000Y-83585000D02*
X156010000Y-83585000D01*
X161860000Y-84635000D02*
X161860000Y-83810000D01*
X161860000Y-83810000D02*
X161635000Y-83585000D01*
X178710001Y-95489999D02*
X178700000Y-95500000D01*
D37*
X146960000Y-93525000D02*
X147935000Y-93525000D01*
X145510000Y-92075000D02*
X146960000Y-93525000D01*
X145510000Y-90485000D02*
X145510000Y-92075000D01*
X148990685Y-93525000D02*
X148910000Y-93525000D01*
X150400000Y-94934315D02*
X148990685Y-93525000D01*
X150400000Y-95500000D02*
X150400000Y-94934315D01*
X178700000Y-94934315D02*
X178700000Y-95500000D01*
X178900000Y-94734315D02*
X178700000Y-94934315D01*
X178900000Y-94734315D02*
X178900000Y-93900000D01*
X178560000Y-93560000D02*
X178560000Y-92600000D01*
X178900000Y-93900000D02*
X178560000Y-93560000D01*
X176310000Y-89950000D02*
X176310000Y-89310000D01*
X178560000Y-92200000D02*
X176310000Y-89950000D01*
X178560000Y-92600000D02*
X178560000Y-92200000D01*
D34*
X202210000Y-83297500D02*
X200802500Y-83297500D01*
X200802500Y-83297500D02*
X200600000Y-83500000D01*
D37*
X176310000Y-89310000D02*
X176310000Y-88822500D01*
X148910000Y-93525000D02*
X147935000Y-93525000D01*
D34*
X167960000Y-92655000D02*
X168110001Y-92805001D01*
X168110001Y-95489999D02*
X168100000Y-95500000D01*
X168110001Y-92805001D02*
X168110001Y-95489999D01*
X189310001Y-95389999D02*
X189200000Y-95500000D01*
X189160000Y-92655000D02*
X189310001Y-92805001D01*
X189310001Y-92805001D02*
X189310001Y-95389999D01*
X164310000Y-84647500D02*
X161872500Y-84647500D01*
X147935000Y-92255000D02*
X149380000Y-92255000D01*
X192197500Y-88435000D02*
X192197500Y-84785000D01*
D36*
X208585000Y-82135000D02*
X209235000Y-82135000D01*
D35*
X178247500Y-77397500D02*
X178247500Y-76685000D01*
X176310000Y-79335000D02*
X178247500Y-77397500D01*
X178247500Y-76685000D02*
X179810000Y-76685000D01*
D36*
X178462500Y-88425000D02*
X178422500Y-88385000D01*
X178462500Y-90235000D02*
X178462500Y-88425000D01*
D38*
X165330000Y-76365000D02*
X157710000Y-76365000D01*
D34*
X151210000Y-86672500D02*
X149397500Y-88485000D01*
X151210000Y-85535000D02*
X151210000Y-86672500D01*
X151210000Y-86697500D02*
X152997500Y-88485000D01*
X151210000Y-85535000D02*
X151210000Y-86697500D01*
X159325000Y-93525000D02*
X159345000Y-93545000D01*
X163460000Y-93635000D02*
X163460000Y-92655000D01*
X159345000Y-93545000D02*
X160100000Y-93545000D01*
X162710000Y-94385000D02*
X163460000Y-93635000D01*
X160940000Y-94385000D02*
X162710000Y-94385000D01*
X160100000Y-93545000D02*
X160940000Y-94385000D01*
X176985000Y-86947500D02*
X178422500Y-88385000D01*
X176310000Y-86947500D02*
X176985000Y-86947500D01*
X175372500Y-87885000D02*
X176310000Y-86947500D01*
X174110000Y-87885000D02*
X175372500Y-87885000D01*
X178422500Y-84685000D02*
X178422500Y-84835000D01*
X176310000Y-86947500D02*
X176210000Y-86947500D01*
X164547500Y-91567500D02*
X163460000Y-92655000D01*
X164547500Y-88885000D02*
X164547500Y-91567500D01*
X164547500Y-86760000D02*
X164310000Y-86522500D01*
X164547500Y-88885000D02*
X164547500Y-86760000D01*
D36*
X161210000Y-84635000D02*
X161210000Y-85360000D01*
X161210000Y-85360000D02*
X161435000Y-85585000D01*
D38*
X157710000Y-76365000D02*
X156230000Y-76365000D01*
X156230000Y-76365000D02*
X156210000Y-76385000D01*
X156210000Y-76385000D02*
X155110000Y-76385000D01*
X155110000Y-76385000D02*
X154010000Y-76385000D01*
D34*
X152885000Y-93525000D02*
X159325000Y-93525000D01*
X164310000Y-86522500D02*
X163610000Y-86522500D01*
X163610000Y-86522500D02*
X162672500Y-85585000D01*
D36*
X161435000Y-85585000D02*
X162672500Y-85585000D01*
D35*
X181010000Y-76685000D02*
X183010000Y-76685000D01*
X179810000Y-76685000D02*
X181010000Y-76685000D01*
D34*
X183010000Y-75085000D02*
X183010000Y-76685000D01*
X183310000Y-74785000D02*
X183010000Y-75085000D01*
X190910000Y-74785000D02*
X183310000Y-74785000D01*
X191210000Y-76335000D02*
X191210000Y-75085000D01*
X191210000Y-75085000D02*
X190910000Y-74785000D01*
D35*
X176310000Y-86947500D02*
X176310000Y-85685000D01*
X176310000Y-85685000D02*
X176310000Y-84685000D01*
D34*
X178422500Y-84685000D02*
X176310000Y-84685000D01*
X173947500Y-84685000D02*
X176310000Y-84685000D01*
D35*
X207710000Y-80285000D02*
X210084990Y-80285000D01*
D34*
X207497500Y-80285000D02*
X205797500Y-81985000D01*
X207710000Y-80285000D02*
X207497500Y-80285000D01*
X199480000Y-74955000D02*
X199410000Y-74885000D01*
X199480000Y-76935000D02*
X199480000Y-74955000D01*
D36*
X171010000Y-95172500D02*
X170237500Y-94400000D01*
X170237500Y-94400000D02*
X169400000Y-94400000D01*
X181610000Y-95172500D02*
X182382500Y-94400000D01*
X182382500Y-94400000D02*
X183200000Y-94400000D01*
D34*
X152885000Y-94795000D02*
X152885000Y-93525000D01*
D35*
X208910000Y-80285000D02*
X208910000Y-82385000D01*
D34*
X162672500Y-85585000D02*
X162672500Y-85585000D01*
D36*
X201637907Y-87157093D02*
X201637907Y-87162093D01*
X201637907Y-87162093D02*
X199800000Y-89000000D01*
D34*
X150925000Y-93525000D02*
X152885000Y-93525000D01*
X149380000Y-92255000D02*
X149655000Y-92255000D01*
X149655000Y-92255000D02*
X150925000Y-93525000D01*
D35*
X151210000Y-83985000D02*
X151510000Y-83685000D01*
X151210000Y-85535000D02*
X151210000Y-83985000D01*
X151510000Y-83685000D02*
X151510000Y-77285000D01*
X151510000Y-77285000D02*
X152410000Y-76385000D01*
X152410000Y-76385000D02*
X154010000Y-76385000D01*
D34*
X193815000Y-84785000D02*
X193900000Y-84700000D01*
X192197500Y-84785000D02*
X193815000Y-84785000D01*
D36*
X183900000Y-84875000D02*
X183900000Y-85134315D01*
X183535000Y-84510000D02*
X183900000Y-84875000D01*
X183900000Y-85134315D02*
X183900000Y-85700000D01*
X182410000Y-84510000D02*
X183535000Y-84510000D01*
X187185000Y-87760000D02*
X188310000Y-87760000D01*
X186525685Y-87760000D02*
X187185000Y-87760000D01*
X184465685Y-85700000D02*
X186525685Y-87760000D01*
X183900000Y-85700000D02*
X184465685Y-85700000D01*
D35*
X171460000Y-86485000D02*
X171910000Y-86935000D01*
X168510000Y-86485000D02*
X171460000Y-86485000D01*
X172072500Y-85872500D02*
X171460000Y-86485000D01*
X172072500Y-84685000D02*
X172072500Y-85872500D01*
X165330000Y-81405000D02*
X162790000Y-81405000D01*
X168510000Y-84585000D02*
X165330000Y-81405000D01*
X168510000Y-86485000D02*
X168510000Y-84585000D01*
X183010000Y-81085000D02*
X182210000Y-80285000D01*
X182210000Y-80285000D02*
X180010000Y-80285000D01*
D37*
X180010000Y-80285000D02*
X178510000Y-80285000D01*
D35*
X183010000Y-81085000D02*
X183810000Y-80285000D01*
X183810000Y-80285000D02*
X185110000Y-80285000D01*
X185110000Y-80285000D02*
X186310000Y-80285000D01*
D34*
X187060000Y-80285000D02*
X188010000Y-81235000D01*
X186310000Y-80285000D02*
X187060000Y-80285000D01*
D35*
X144210000Y-85535000D02*
X144210000Y-83685000D01*
X144210000Y-83685000D02*
X143910000Y-83385000D01*
X150110000Y-80285000D02*
X148910000Y-80285000D01*
X148910000Y-80285000D02*
X145710000Y-80285000D01*
X143910000Y-82085000D02*
X143910000Y-83385000D01*
X145710000Y-80285000D02*
X143910000Y-82085000D01*
X160250000Y-81405000D02*
X159030000Y-81405000D01*
X159030000Y-81405000D02*
X159010000Y-81385000D01*
X158990000Y-81405000D02*
X159010000Y-81385000D01*
X157710000Y-81405000D02*
X158990000Y-81405000D01*
X157890000Y-81405000D02*
X159010000Y-80285000D01*
X157710000Y-81405000D02*
X157890000Y-81405000D01*
X160130000Y-81405000D02*
X159010000Y-80285000D01*
X160250000Y-81405000D02*
X160130000Y-81405000D01*
D36*
X180112500Y-86460000D02*
X179987500Y-86585000D01*
X182410000Y-86460000D02*
X180112500Y-86460000D01*
X179997500Y-86575000D02*
X179987500Y-86585000D01*
X179997500Y-84685000D02*
X179997500Y-86575000D01*
X179997500Y-84502500D02*
X179997500Y-84685000D01*
X195669999Y-82435001D02*
X189367913Y-82435001D01*
X195670000Y-80835000D02*
X195669999Y-82435001D01*
X189367913Y-82435001D02*
X188802914Y-83000000D01*
X181500000Y-83000000D02*
X179997500Y-84502500D01*
X188802914Y-83000000D02*
X181500000Y-83000000D01*
D34*
X126810000Y-87772500D02*
X128810000Y-87772500D01*
X123047500Y-86197500D02*
X126335000Y-86197500D01*
X126335000Y-86197500D02*
X126810000Y-86197500D01*
X122860000Y-86385000D02*
X123047500Y-86197500D01*
X122860000Y-87495000D02*
X122860000Y-86385000D01*
X134510000Y-75947500D02*
X128110000Y-75947500D01*
X129110000Y-76947500D02*
X128110000Y-75947500D01*
X129110000Y-78647500D02*
X129110000Y-76947500D01*
X134110000Y-76947500D02*
X135110000Y-75947500D01*
X134110000Y-78647500D02*
X134110000Y-76947500D01*
D36*
X182410000Y-87760000D02*
X182434999Y-87735001D01*
X196582093Y-92212907D02*
X196587093Y-92212907D01*
X196587093Y-92212907D02*
X197800000Y-91000000D01*
X182410000Y-87760000D02*
X184460000Y-87760000D01*
X184460000Y-87760000D02*
X186200000Y-89500000D01*
X182410000Y-88410000D02*
X183910000Y-88410000D01*
X183910000Y-88410000D02*
X185000000Y-89500000D01*
X197900000Y-93600000D02*
X199100000Y-93600000D01*
X197572043Y-93202856D02*
X197572043Y-93272043D01*
X197572043Y-93272043D02*
X197900000Y-93600000D01*
X194235000Y-81000000D02*
X194400000Y-80835000D01*
X193100000Y-81000000D02*
X194235000Y-81000000D01*
X183800000Y-89325000D02*
X183800000Y-89500000D01*
X182410000Y-89060000D02*
X183535000Y-89060000D01*
X183535000Y-89060000D02*
X183800000Y-89325000D01*
X182410000Y-89710000D02*
X181310000Y-89710000D01*
X181310000Y-89710000D02*
X180900000Y-89300000D01*
X194365000Y-76900000D02*
X194400000Y-76935000D01*
X193300000Y-76900000D02*
X194365000Y-76900000D01*
X200647957Y-86607039D02*
X200647957Y-86167144D01*
X197944986Y-89310010D02*
X200647957Y-86607039D01*
X189435000Y-88410000D02*
X189600000Y-88575000D01*
X188310000Y-88410000D02*
X189435000Y-88410000D01*
X189600000Y-88575000D02*
X189600000Y-89100000D01*
X189600000Y-89100000D02*
X189810010Y-89310010D01*
X189810010Y-89310010D02*
X197944986Y-89310010D01*
D34*
X159345000Y-89532500D02*
X160110000Y-90297500D01*
X159345000Y-88465000D02*
X159345000Y-89532500D01*
D36*
X152885000Y-90985000D02*
X150985000Y-90985000D01*
X150985000Y-90985000D02*
X150900000Y-90900000D01*
D34*
X159345000Y-89555000D02*
X159345000Y-89532500D01*
X158700000Y-90200000D02*
X159345000Y-89555000D01*
X158700000Y-90900000D02*
X158700000Y-90200000D01*
D36*
X188310000Y-86460000D02*
X186360000Y-86460000D01*
X186360000Y-86460000D02*
X184800000Y-84900000D01*
D34*
X156035000Y-86872500D02*
X155210000Y-87697500D01*
X156035000Y-85925000D02*
X156035000Y-86872500D01*
D36*
X152885000Y-92255000D02*
X151055000Y-92255000D01*
X151055000Y-92255000D02*
X149700000Y-90900000D01*
D34*
X156035000Y-86935000D02*
X156035000Y-86872500D01*
X156800000Y-87700000D02*
X156035000Y-86935000D01*
D36*
X188310000Y-85810000D02*
X187185000Y-85810000D01*
X187185000Y-85810000D02*
X185600000Y-84225000D01*
X185600000Y-84225000D02*
X185600000Y-84200000D01*
D35*
X176310000Y-81235000D02*
X171510000Y-81235000D01*
X171460000Y-89285000D02*
X171910000Y-88835000D01*
X168510000Y-89285000D02*
X171460000Y-89285000D01*
D36*
X205110000Y-82885000D02*
X204222500Y-81997500D01*
X204222500Y-81997500D02*
X204222500Y-81985000D01*
X206210000Y-84785000D02*
X205280000Y-84785000D01*
X205110000Y-84615000D02*
X205110000Y-82885000D01*
X205280000Y-84785000D02*
X205110000Y-84615000D01*
D34*
X124597500Y-83137500D02*
X122860000Y-84875000D01*
X124597500Y-82785000D02*
X124597500Y-83137500D01*
D36*
X199480000Y-80835000D02*
X199480000Y-82435000D01*
X199480000Y-82435000D02*
X198879988Y-83035012D01*
X198879988Y-83035012D02*
X189716445Y-83035012D01*
X188310000Y-84441458D02*
X188310000Y-84510000D01*
X189716445Y-83035012D02*
X188310000Y-84441458D01*
X200750000Y-82050000D02*
X200750000Y-80835000D01*
X188310000Y-85160000D02*
X189435000Y-85160000D01*
X189435000Y-85160000D02*
X189600000Y-84995000D01*
X189600000Y-84995000D02*
X189600000Y-84000000D01*
X189600000Y-84000000D02*
X189964977Y-83635023D01*
X199164977Y-83635023D02*
X200750000Y-82050000D01*
X189964977Y-83635023D02*
X199164977Y-83635023D01*
X206235000Y-83835000D02*
X207935000Y-82135000D01*
X206210000Y-83835000D02*
X206235000Y-83835000D01*
X206210000Y-86310000D02*
X207935000Y-88035000D01*
X206210000Y-85735000D02*
X206210000Y-86310000D01*
D38*
X134710000Y-85185000D02*
X137110000Y-85185000D01*
X137110000Y-83935000D02*
X138210000Y-82835000D01*
X137110000Y-85185000D02*
X137110000Y-83935000D01*
X134710000Y-83935000D02*
X133610000Y-82835000D01*
X134710000Y-85185000D02*
X134710000Y-83935000D01*
X135910000Y-85135000D02*
X133610000Y-82835000D01*
X135910000Y-85135000D02*
X138210000Y-82835000D01*
X135910000Y-85185000D02*
X135910000Y-85135000D01*
D34*
X184190000Y-92185000D02*
X184660000Y-92655000D01*
X182585000Y-92185000D02*
X184190000Y-92185000D01*
X181610000Y-93597500D02*
X181610000Y-93160000D01*
X181610000Y-93160000D02*
X182585000Y-92185000D01*
D36*
X182410000Y-92010000D02*
X182585000Y-92185000D01*
X182410000Y-90360000D02*
X182410000Y-92010000D01*
X188810000Y-90360000D02*
X189050000Y-90600000D01*
X188310000Y-90360000D02*
X188810000Y-90360000D01*
X194969187Y-90600000D02*
X195592144Y-91222957D01*
X189050000Y-90600000D02*
X194969187Y-90600000D01*
X188310000Y-89710000D02*
X189310000Y-89710000D01*
X200864878Y-89910021D02*
X202150559Y-88624340D01*
X189510021Y-89910021D02*
X200864878Y-89910021D01*
X189310000Y-89710000D02*
X189510021Y-89910021D01*
X202150559Y-88624340D02*
X202627856Y-88147043D01*
D34*
X147935000Y-88597500D02*
X147822500Y-88485000D01*
X151422500Y-88960000D02*
X152147500Y-89685000D01*
X151422500Y-88485000D02*
X151422500Y-88960000D01*
X155210000Y-89272500D02*
X155210000Y-89685000D01*
X152147500Y-89685000D02*
X155210000Y-89685000D01*
X190622500Y-88435000D02*
X190622500Y-84785000D01*
X147822500Y-88960000D02*
X147822500Y-88485000D01*
X148547500Y-89685000D02*
X147822500Y-88960000D01*
X152147500Y-89685000D02*
X148547500Y-89685000D01*
X147822500Y-90872500D02*
X147935000Y-90985000D01*
X147822500Y-88485000D02*
X147822500Y-90872500D01*
X179997500Y-88385000D02*
X179997500Y-88372500D01*
X178412500Y-86585000D02*
X178412500Y-86687500D01*
D36*
X179997500Y-88170000D02*
X178412500Y-86585000D01*
X179997500Y-88385000D02*
X179997500Y-88170000D01*
X180037500Y-88425000D02*
X179997500Y-88385000D01*
X180037500Y-90235000D02*
X180037500Y-88425000D01*
D37*
X162672500Y-87347500D02*
X161860000Y-86535000D01*
X162672500Y-88885000D02*
X162672500Y-87347500D01*
D35*
X161910000Y-90785000D02*
X163110000Y-90785000D01*
X162672500Y-90347500D02*
X163110000Y-90785000D01*
X162672500Y-88885000D02*
X162672500Y-90347500D01*
X162672500Y-90022500D02*
X161910000Y-90785000D01*
X162672500Y-88885000D02*
X162672500Y-90022500D01*
X160822500Y-91872500D02*
X160110000Y-91872500D01*
X161910000Y-90785000D02*
X160822500Y-91872500D01*
D34*
X200710000Y-76895000D02*
X200750000Y-76935000D01*
D36*
X182410000Y-87110000D02*
X180990000Y-87110000D01*
X180990000Y-87110000D02*
X180500000Y-87600000D01*
X178412500Y-86585000D02*
X178412500Y-86512500D01*
X178412500Y-86512500D02*
X177500000Y-85600000D01*
X179997500Y-88102500D02*
X180990000Y-87110000D01*
X179997500Y-88385000D02*
X179997500Y-88102500D01*
X188310000Y-87110000D02*
X189310000Y-87110000D01*
X189310000Y-87110000D02*
X189700000Y-87500000D01*
X190615000Y-86585000D02*
X189700000Y-87500000D01*
X190622500Y-86585000D02*
X190615000Y-86585000D01*
D34*
X200750000Y-78150000D02*
X200750000Y-76935000D01*
X200100000Y-78800000D02*
X200750000Y-78150000D01*
X156902500Y-91872500D02*
X156035000Y-91005000D01*
X160110000Y-91872500D02*
X156902500Y-91872500D01*
X156035000Y-90535000D02*
X156035000Y-91005000D01*
X155210000Y-89685000D02*
X155210000Y-89710000D01*
X155210000Y-89710000D02*
X156035000Y-90535000D01*
D36*
X188000000Y-76345000D02*
X188010000Y-76335000D01*
X188000000Y-78200000D02*
X188000000Y-76345000D01*
X184465685Y-86900000D02*
X183900000Y-86900000D01*
X184765665Y-86900000D02*
X184465685Y-86900000D01*
X186925665Y-89060000D02*
X184765665Y-86900000D01*
X188310000Y-89060000D02*
X186925665Y-89060000D01*
D34*
X173080000Y-86935000D02*
X174110000Y-86935000D01*
X173000000Y-87015000D02*
X173080000Y-86935000D01*
X176210000Y-92600000D02*
X173000000Y-89390000D01*
X173000000Y-89390000D02*
X173000000Y-87015000D01*
X177060000Y-92600000D02*
X176210000Y-92600000D01*
D36*
X178510000Y-81235000D02*
X178510000Y-83010000D01*
X178510000Y-83010000D02*
X179200000Y-83700000D01*
X187660000Y-93740000D02*
X187000000Y-94400000D01*
X187660000Y-92655000D02*
X187660000Y-93740000D01*
X166460000Y-93740000D02*
X165800000Y-94400000D01*
X166460000Y-92655000D02*
X166460000Y-93740000D01*
X160560000Y-84635000D02*
X160560000Y-84640000D01*
X160525000Y-84600000D02*
X160560000Y-84635000D01*
X158900000Y-84600000D02*
X160525000Y-84600000D01*
X182410000Y-85810000D02*
X181110000Y-85810000D01*
X181110000Y-85810000D02*
X180900000Y-85600000D01*
X172661761Y-94463399D02*
X172096076Y-94463399D01*
X174060000Y-93750000D02*
X173346601Y-94463399D01*
X174060000Y-92600000D02*
X174060000Y-93750000D01*
X173346601Y-94463399D02*
X172661761Y-94463399D01*
X171875899Y-94463399D02*
X171010000Y-93597500D01*
X172096076Y-94463399D02*
X171875899Y-94463399D01*
M02*
