G04 #@! TF.GenerationSoftware,KiCad,Pcbnew,(5.1.5)-3*
G04 #@! TF.CreationDate,2021-08-11T14:03:33+02:00*
G04 #@! TF.ProjectId,18650_UPS_TOP,31383635-305f-4555-9053-5f544f502e6b,rev?*
G04 #@! TF.SameCoordinates,Original*
G04 #@! TF.FileFunction,Paste,Bot*
G04 #@! TF.FilePolarity,Positive*
%FSLAX46Y46*%
G04 Gerber Fmt 4.6, Leading zero omitted, Abs format (unit mm)*
G04 Created by KiCad (PCBNEW (5.1.5)-3) date 2021-08-11 14:03:33*
%MOMM*%
%LPD*%
G04 APERTURE LIST*
%ADD10R,0.400000X3.000000*%
%ADD11R,0.800000X0.900000*%
%ADD12C,0.100000*%
G04 APERTURE END LIST*
D10*
X101200000Y-89500000D03*
X100500000Y-89500000D03*
X99800000Y-89500000D03*
X99100000Y-89500000D03*
X98400000Y-89500000D03*
X97700000Y-89500000D03*
X97000000Y-89500000D03*
X96300000Y-89500000D03*
X95600000Y-89500000D03*
X94900000Y-89500000D03*
X94200000Y-89500000D03*
X93500000Y-89500000D03*
X92800000Y-89500000D03*
X92100000Y-89500000D03*
X91400000Y-89500000D03*
X90700000Y-89500000D03*
X90000000Y-89500000D03*
X89300000Y-89500000D03*
X88600000Y-89500000D03*
X87900000Y-89500000D03*
X87200000Y-89500000D03*
X86500000Y-89500000D03*
X85800000Y-89500000D03*
X85100000Y-89500000D03*
X84400000Y-89500000D03*
X83700000Y-89500000D03*
X83000000Y-89500000D03*
X82300000Y-89500000D03*
X81600000Y-89500000D03*
X80900000Y-89500000D03*
D11*
X90700000Y-83300000D03*
X89750000Y-85300000D03*
X91650000Y-85300000D03*
D12*
G36*
X97477691Y-83176053D02*
G01*
X97498926Y-83179203D01*
X97519750Y-83184419D01*
X97539962Y-83191651D01*
X97559368Y-83200830D01*
X97577781Y-83211866D01*
X97595024Y-83224654D01*
X97610930Y-83239070D01*
X97625346Y-83254976D01*
X97638134Y-83272219D01*
X97649170Y-83290632D01*
X97658349Y-83310038D01*
X97665581Y-83330250D01*
X97670797Y-83351074D01*
X97673947Y-83372309D01*
X97675000Y-83393750D01*
X97675000Y-83831250D01*
X97673947Y-83852691D01*
X97670797Y-83873926D01*
X97665581Y-83894750D01*
X97658349Y-83914962D01*
X97649170Y-83934368D01*
X97638134Y-83952781D01*
X97625346Y-83970024D01*
X97610930Y-83985930D01*
X97595024Y-84000346D01*
X97577781Y-84013134D01*
X97559368Y-84024170D01*
X97539962Y-84033349D01*
X97519750Y-84040581D01*
X97498926Y-84045797D01*
X97477691Y-84048947D01*
X97456250Y-84050000D01*
X96943750Y-84050000D01*
X96922309Y-84048947D01*
X96901074Y-84045797D01*
X96880250Y-84040581D01*
X96860038Y-84033349D01*
X96840632Y-84024170D01*
X96822219Y-84013134D01*
X96804976Y-84000346D01*
X96789070Y-83985930D01*
X96774654Y-83970024D01*
X96761866Y-83952781D01*
X96750830Y-83934368D01*
X96741651Y-83914962D01*
X96734419Y-83894750D01*
X96729203Y-83873926D01*
X96726053Y-83852691D01*
X96725000Y-83831250D01*
X96725000Y-83393750D01*
X96726053Y-83372309D01*
X96729203Y-83351074D01*
X96734419Y-83330250D01*
X96741651Y-83310038D01*
X96750830Y-83290632D01*
X96761866Y-83272219D01*
X96774654Y-83254976D01*
X96789070Y-83239070D01*
X96804976Y-83224654D01*
X96822219Y-83211866D01*
X96840632Y-83200830D01*
X96860038Y-83191651D01*
X96880250Y-83184419D01*
X96901074Y-83179203D01*
X96922309Y-83176053D01*
X96943750Y-83175000D01*
X97456250Y-83175000D01*
X97477691Y-83176053D01*
G37*
G36*
X97477691Y-84751053D02*
G01*
X97498926Y-84754203D01*
X97519750Y-84759419D01*
X97539962Y-84766651D01*
X97559368Y-84775830D01*
X97577781Y-84786866D01*
X97595024Y-84799654D01*
X97610930Y-84814070D01*
X97625346Y-84829976D01*
X97638134Y-84847219D01*
X97649170Y-84865632D01*
X97658349Y-84885038D01*
X97665581Y-84905250D01*
X97670797Y-84926074D01*
X97673947Y-84947309D01*
X97675000Y-84968750D01*
X97675000Y-85406250D01*
X97673947Y-85427691D01*
X97670797Y-85448926D01*
X97665581Y-85469750D01*
X97658349Y-85489962D01*
X97649170Y-85509368D01*
X97638134Y-85527781D01*
X97625346Y-85545024D01*
X97610930Y-85560930D01*
X97595024Y-85575346D01*
X97577781Y-85588134D01*
X97559368Y-85599170D01*
X97539962Y-85608349D01*
X97519750Y-85615581D01*
X97498926Y-85620797D01*
X97477691Y-85623947D01*
X97456250Y-85625000D01*
X96943750Y-85625000D01*
X96922309Y-85623947D01*
X96901074Y-85620797D01*
X96880250Y-85615581D01*
X96860038Y-85608349D01*
X96840632Y-85599170D01*
X96822219Y-85588134D01*
X96804976Y-85575346D01*
X96789070Y-85560930D01*
X96774654Y-85545024D01*
X96761866Y-85527781D01*
X96750830Y-85509368D01*
X96741651Y-85489962D01*
X96734419Y-85469750D01*
X96729203Y-85448926D01*
X96726053Y-85427691D01*
X96725000Y-85406250D01*
X96725000Y-84968750D01*
X96726053Y-84947309D01*
X96729203Y-84926074D01*
X96734419Y-84905250D01*
X96741651Y-84885038D01*
X96750830Y-84865632D01*
X96761866Y-84847219D01*
X96774654Y-84829976D01*
X96789070Y-84814070D01*
X96804976Y-84799654D01*
X96822219Y-84786866D01*
X96840632Y-84775830D01*
X96860038Y-84766651D01*
X96880250Y-84759419D01*
X96901074Y-84754203D01*
X96922309Y-84751053D01*
X96943750Y-84750000D01*
X97456250Y-84750000D01*
X97477691Y-84751053D01*
G37*
G36*
X103477691Y-83176053D02*
G01*
X103498926Y-83179203D01*
X103519750Y-83184419D01*
X103539962Y-83191651D01*
X103559368Y-83200830D01*
X103577781Y-83211866D01*
X103595024Y-83224654D01*
X103610930Y-83239070D01*
X103625346Y-83254976D01*
X103638134Y-83272219D01*
X103649170Y-83290632D01*
X103658349Y-83310038D01*
X103665581Y-83330250D01*
X103670797Y-83351074D01*
X103673947Y-83372309D01*
X103675000Y-83393750D01*
X103675000Y-83831250D01*
X103673947Y-83852691D01*
X103670797Y-83873926D01*
X103665581Y-83894750D01*
X103658349Y-83914962D01*
X103649170Y-83934368D01*
X103638134Y-83952781D01*
X103625346Y-83970024D01*
X103610930Y-83985930D01*
X103595024Y-84000346D01*
X103577781Y-84013134D01*
X103559368Y-84024170D01*
X103539962Y-84033349D01*
X103519750Y-84040581D01*
X103498926Y-84045797D01*
X103477691Y-84048947D01*
X103456250Y-84050000D01*
X102943750Y-84050000D01*
X102922309Y-84048947D01*
X102901074Y-84045797D01*
X102880250Y-84040581D01*
X102860038Y-84033349D01*
X102840632Y-84024170D01*
X102822219Y-84013134D01*
X102804976Y-84000346D01*
X102789070Y-83985930D01*
X102774654Y-83970024D01*
X102761866Y-83952781D01*
X102750830Y-83934368D01*
X102741651Y-83914962D01*
X102734419Y-83894750D01*
X102729203Y-83873926D01*
X102726053Y-83852691D01*
X102725000Y-83831250D01*
X102725000Y-83393750D01*
X102726053Y-83372309D01*
X102729203Y-83351074D01*
X102734419Y-83330250D01*
X102741651Y-83310038D01*
X102750830Y-83290632D01*
X102761866Y-83272219D01*
X102774654Y-83254976D01*
X102789070Y-83239070D01*
X102804976Y-83224654D01*
X102822219Y-83211866D01*
X102840632Y-83200830D01*
X102860038Y-83191651D01*
X102880250Y-83184419D01*
X102901074Y-83179203D01*
X102922309Y-83176053D01*
X102943750Y-83175000D01*
X103456250Y-83175000D01*
X103477691Y-83176053D01*
G37*
G36*
X103477691Y-84751053D02*
G01*
X103498926Y-84754203D01*
X103519750Y-84759419D01*
X103539962Y-84766651D01*
X103559368Y-84775830D01*
X103577781Y-84786866D01*
X103595024Y-84799654D01*
X103610930Y-84814070D01*
X103625346Y-84829976D01*
X103638134Y-84847219D01*
X103649170Y-84865632D01*
X103658349Y-84885038D01*
X103665581Y-84905250D01*
X103670797Y-84926074D01*
X103673947Y-84947309D01*
X103675000Y-84968750D01*
X103675000Y-85406250D01*
X103673947Y-85427691D01*
X103670797Y-85448926D01*
X103665581Y-85469750D01*
X103658349Y-85489962D01*
X103649170Y-85509368D01*
X103638134Y-85527781D01*
X103625346Y-85545024D01*
X103610930Y-85560930D01*
X103595024Y-85575346D01*
X103577781Y-85588134D01*
X103559368Y-85599170D01*
X103539962Y-85608349D01*
X103519750Y-85615581D01*
X103498926Y-85620797D01*
X103477691Y-85623947D01*
X103456250Y-85625000D01*
X102943750Y-85625000D01*
X102922309Y-85623947D01*
X102901074Y-85620797D01*
X102880250Y-85615581D01*
X102860038Y-85608349D01*
X102840632Y-85599170D01*
X102822219Y-85588134D01*
X102804976Y-85575346D01*
X102789070Y-85560930D01*
X102774654Y-85545024D01*
X102761866Y-85527781D01*
X102750830Y-85509368D01*
X102741651Y-85489962D01*
X102734419Y-85469750D01*
X102729203Y-85448926D01*
X102726053Y-85427691D01*
X102725000Y-85406250D01*
X102725000Y-84968750D01*
X102726053Y-84947309D01*
X102729203Y-84926074D01*
X102734419Y-84905250D01*
X102741651Y-84885038D01*
X102750830Y-84865632D01*
X102761866Y-84847219D01*
X102774654Y-84829976D01*
X102789070Y-84814070D01*
X102804976Y-84799654D01*
X102822219Y-84786866D01*
X102840632Y-84775830D01*
X102860038Y-84766651D01*
X102880250Y-84759419D01*
X102901074Y-84754203D01*
X102922309Y-84751053D01*
X102943750Y-84750000D01*
X103456250Y-84750000D01*
X103477691Y-84751053D01*
G37*
G36*
X101377691Y-83176053D02*
G01*
X101398926Y-83179203D01*
X101419750Y-83184419D01*
X101439962Y-83191651D01*
X101459368Y-83200830D01*
X101477781Y-83211866D01*
X101495024Y-83224654D01*
X101510930Y-83239070D01*
X101525346Y-83254976D01*
X101538134Y-83272219D01*
X101549170Y-83290632D01*
X101558349Y-83310038D01*
X101565581Y-83330250D01*
X101570797Y-83351074D01*
X101573947Y-83372309D01*
X101575000Y-83393750D01*
X101575000Y-83831250D01*
X101573947Y-83852691D01*
X101570797Y-83873926D01*
X101565581Y-83894750D01*
X101558349Y-83914962D01*
X101549170Y-83934368D01*
X101538134Y-83952781D01*
X101525346Y-83970024D01*
X101510930Y-83985930D01*
X101495024Y-84000346D01*
X101477781Y-84013134D01*
X101459368Y-84024170D01*
X101439962Y-84033349D01*
X101419750Y-84040581D01*
X101398926Y-84045797D01*
X101377691Y-84048947D01*
X101356250Y-84050000D01*
X100843750Y-84050000D01*
X100822309Y-84048947D01*
X100801074Y-84045797D01*
X100780250Y-84040581D01*
X100760038Y-84033349D01*
X100740632Y-84024170D01*
X100722219Y-84013134D01*
X100704976Y-84000346D01*
X100689070Y-83985930D01*
X100674654Y-83970024D01*
X100661866Y-83952781D01*
X100650830Y-83934368D01*
X100641651Y-83914962D01*
X100634419Y-83894750D01*
X100629203Y-83873926D01*
X100626053Y-83852691D01*
X100625000Y-83831250D01*
X100625000Y-83393750D01*
X100626053Y-83372309D01*
X100629203Y-83351074D01*
X100634419Y-83330250D01*
X100641651Y-83310038D01*
X100650830Y-83290632D01*
X100661866Y-83272219D01*
X100674654Y-83254976D01*
X100689070Y-83239070D01*
X100704976Y-83224654D01*
X100722219Y-83211866D01*
X100740632Y-83200830D01*
X100760038Y-83191651D01*
X100780250Y-83184419D01*
X100801074Y-83179203D01*
X100822309Y-83176053D01*
X100843750Y-83175000D01*
X101356250Y-83175000D01*
X101377691Y-83176053D01*
G37*
G36*
X101377691Y-84751053D02*
G01*
X101398926Y-84754203D01*
X101419750Y-84759419D01*
X101439962Y-84766651D01*
X101459368Y-84775830D01*
X101477781Y-84786866D01*
X101495024Y-84799654D01*
X101510930Y-84814070D01*
X101525346Y-84829976D01*
X101538134Y-84847219D01*
X101549170Y-84865632D01*
X101558349Y-84885038D01*
X101565581Y-84905250D01*
X101570797Y-84926074D01*
X101573947Y-84947309D01*
X101575000Y-84968750D01*
X101575000Y-85406250D01*
X101573947Y-85427691D01*
X101570797Y-85448926D01*
X101565581Y-85469750D01*
X101558349Y-85489962D01*
X101549170Y-85509368D01*
X101538134Y-85527781D01*
X101525346Y-85545024D01*
X101510930Y-85560930D01*
X101495024Y-85575346D01*
X101477781Y-85588134D01*
X101459368Y-85599170D01*
X101439962Y-85608349D01*
X101419750Y-85615581D01*
X101398926Y-85620797D01*
X101377691Y-85623947D01*
X101356250Y-85625000D01*
X100843750Y-85625000D01*
X100822309Y-85623947D01*
X100801074Y-85620797D01*
X100780250Y-85615581D01*
X100760038Y-85608349D01*
X100740632Y-85599170D01*
X100722219Y-85588134D01*
X100704976Y-85575346D01*
X100689070Y-85560930D01*
X100674654Y-85545024D01*
X100661866Y-85527781D01*
X100650830Y-85509368D01*
X100641651Y-85489962D01*
X100634419Y-85469750D01*
X100629203Y-85448926D01*
X100626053Y-85427691D01*
X100625000Y-85406250D01*
X100625000Y-84968750D01*
X100626053Y-84947309D01*
X100629203Y-84926074D01*
X100634419Y-84905250D01*
X100641651Y-84885038D01*
X100650830Y-84865632D01*
X100661866Y-84847219D01*
X100674654Y-84829976D01*
X100689070Y-84814070D01*
X100704976Y-84799654D01*
X100722219Y-84786866D01*
X100740632Y-84775830D01*
X100760038Y-84766651D01*
X100780250Y-84759419D01*
X100801074Y-84754203D01*
X100822309Y-84751053D01*
X100843750Y-84750000D01*
X101356250Y-84750000D01*
X101377691Y-84751053D01*
G37*
G36*
X99377691Y-83176053D02*
G01*
X99398926Y-83179203D01*
X99419750Y-83184419D01*
X99439962Y-83191651D01*
X99459368Y-83200830D01*
X99477781Y-83211866D01*
X99495024Y-83224654D01*
X99510930Y-83239070D01*
X99525346Y-83254976D01*
X99538134Y-83272219D01*
X99549170Y-83290632D01*
X99558349Y-83310038D01*
X99565581Y-83330250D01*
X99570797Y-83351074D01*
X99573947Y-83372309D01*
X99575000Y-83393750D01*
X99575000Y-83831250D01*
X99573947Y-83852691D01*
X99570797Y-83873926D01*
X99565581Y-83894750D01*
X99558349Y-83914962D01*
X99549170Y-83934368D01*
X99538134Y-83952781D01*
X99525346Y-83970024D01*
X99510930Y-83985930D01*
X99495024Y-84000346D01*
X99477781Y-84013134D01*
X99459368Y-84024170D01*
X99439962Y-84033349D01*
X99419750Y-84040581D01*
X99398926Y-84045797D01*
X99377691Y-84048947D01*
X99356250Y-84050000D01*
X98843750Y-84050000D01*
X98822309Y-84048947D01*
X98801074Y-84045797D01*
X98780250Y-84040581D01*
X98760038Y-84033349D01*
X98740632Y-84024170D01*
X98722219Y-84013134D01*
X98704976Y-84000346D01*
X98689070Y-83985930D01*
X98674654Y-83970024D01*
X98661866Y-83952781D01*
X98650830Y-83934368D01*
X98641651Y-83914962D01*
X98634419Y-83894750D01*
X98629203Y-83873926D01*
X98626053Y-83852691D01*
X98625000Y-83831250D01*
X98625000Y-83393750D01*
X98626053Y-83372309D01*
X98629203Y-83351074D01*
X98634419Y-83330250D01*
X98641651Y-83310038D01*
X98650830Y-83290632D01*
X98661866Y-83272219D01*
X98674654Y-83254976D01*
X98689070Y-83239070D01*
X98704976Y-83224654D01*
X98722219Y-83211866D01*
X98740632Y-83200830D01*
X98760038Y-83191651D01*
X98780250Y-83184419D01*
X98801074Y-83179203D01*
X98822309Y-83176053D01*
X98843750Y-83175000D01*
X99356250Y-83175000D01*
X99377691Y-83176053D01*
G37*
G36*
X99377691Y-84751053D02*
G01*
X99398926Y-84754203D01*
X99419750Y-84759419D01*
X99439962Y-84766651D01*
X99459368Y-84775830D01*
X99477781Y-84786866D01*
X99495024Y-84799654D01*
X99510930Y-84814070D01*
X99525346Y-84829976D01*
X99538134Y-84847219D01*
X99549170Y-84865632D01*
X99558349Y-84885038D01*
X99565581Y-84905250D01*
X99570797Y-84926074D01*
X99573947Y-84947309D01*
X99575000Y-84968750D01*
X99575000Y-85406250D01*
X99573947Y-85427691D01*
X99570797Y-85448926D01*
X99565581Y-85469750D01*
X99558349Y-85489962D01*
X99549170Y-85509368D01*
X99538134Y-85527781D01*
X99525346Y-85545024D01*
X99510930Y-85560930D01*
X99495024Y-85575346D01*
X99477781Y-85588134D01*
X99459368Y-85599170D01*
X99439962Y-85608349D01*
X99419750Y-85615581D01*
X99398926Y-85620797D01*
X99377691Y-85623947D01*
X99356250Y-85625000D01*
X98843750Y-85625000D01*
X98822309Y-85623947D01*
X98801074Y-85620797D01*
X98780250Y-85615581D01*
X98760038Y-85608349D01*
X98740632Y-85599170D01*
X98722219Y-85588134D01*
X98704976Y-85575346D01*
X98689070Y-85560930D01*
X98674654Y-85545024D01*
X98661866Y-85527781D01*
X98650830Y-85509368D01*
X98641651Y-85489962D01*
X98634419Y-85469750D01*
X98629203Y-85448926D01*
X98626053Y-85427691D01*
X98625000Y-85406250D01*
X98625000Y-84968750D01*
X98626053Y-84947309D01*
X98629203Y-84926074D01*
X98634419Y-84905250D01*
X98641651Y-84885038D01*
X98650830Y-84865632D01*
X98661866Y-84847219D01*
X98674654Y-84829976D01*
X98689070Y-84814070D01*
X98704976Y-84799654D01*
X98722219Y-84786866D01*
X98740632Y-84775830D01*
X98760038Y-84766651D01*
X98780250Y-84759419D01*
X98801074Y-84754203D01*
X98822309Y-84751053D01*
X98843750Y-84750000D01*
X99356250Y-84750000D01*
X99377691Y-84751053D01*
G37*
G36*
X84677691Y-83076053D02*
G01*
X84698926Y-83079203D01*
X84719750Y-83084419D01*
X84739962Y-83091651D01*
X84759368Y-83100830D01*
X84777781Y-83111866D01*
X84795024Y-83124654D01*
X84810930Y-83139070D01*
X84825346Y-83154976D01*
X84838134Y-83172219D01*
X84849170Y-83190632D01*
X84858349Y-83210038D01*
X84865581Y-83230250D01*
X84870797Y-83251074D01*
X84873947Y-83272309D01*
X84875000Y-83293750D01*
X84875000Y-83731250D01*
X84873947Y-83752691D01*
X84870797Y-83773926D01*
X84865581Y-83794750D01*
X84858349Y-83814962D01*
X84849170Y-83834368D01*
X84838134Y-83852781D01*
X84825346Y-83870024D01*
X84810930Y-83885930D01*
X84795024Y-83900346D01*
X84777781Y-83913134D01*
X84759368Y-83924170D01*
X84739962Y-83933349D01*
X84719750Y-83940581D01*
X84698926Y-83945797D01*
X84677691Y-83948947D01*
X84656250Y-83950000D01*
X84143750Y-83950000D01*
X84122309Y-83948947D01*
X84101074Y-83945797D01*
X84080250Y-83940581D01*
X84060038Y-83933349D01*
X84040632Y-83924170D01*
X84022219Y-83913134D01*
X84004976Y-83900346D01*
X83989070Y-83885930D01*
X83974654Y-83870024D01*
X83961866Y-83852781D01*
X83950830Y-83834368D01*
X83941651Y-83814962D01*
X83934419Y-83794750D01*
X83929203Y-83773926D01*
X83926053Y-83752691D01*
X83925000Y-83731250D01*
X83925000Y-83293750D01*
X83926053Y-83272309D01*
X83929203Y-83251074D01*
X83934419Y-83230250D01*
X83941651Y-83210038D01*
X83950830Y-83190632D01*
X83961866Y-83172219D01*
X83974654Y-83154976D01*
X83989070Y-83139070D01*
X84004976Y-83124654D01*
X84022219Y-83111866D01*
X84040632Y-83100830D01*
X84060038Y-83091651D01*
X84080250Y-83084419D01*
X84101074Y-83079203D01*
X84122309Y-83076053D01*
X84143750Y-83075000D01*
X84656250Y-83075000D01*
X84677691Y-83076053D01*
G37*
G36*
X84677691Y-84651053D02*
G01*
X84698926Y-84654203D01*
X84719750Y-84659419D01*
X84739962Y-84666651D01*
X84759368Y-84675830D01*
X84777781Y-84686866D01*
X84795024Y-84699654D01*
X84810930Y-84714070D01*
X84825346Y-84729976D01*
X84838134Y-84747219D01*
X84849170Y-84765632D01*
X84858349Y-84785038D01*
X84865581Y-84805250D01*
X84870797Y-84826074D01*
X84873947Y-84847309D01*
X84875000Y-84868750D01*
X84875000Y-85306250D01*
X84873947Y-85327691D01*
X84870797Y-85348926D01*
X84865581Y-85369750D01*
X84858349Y-85389962D01*
X84849170Y-85409368D01*
X84838134Y-85427781D01*
X84825346Y-85445024D01*
X84810930Y-85460930D01*
X84795024Y-85475346D01*
X84777781Y-85488134D01*
X84759368Y-85499170D01*
X84739962Y-85508349D01*
X84719750Y-85515581D01*
X84698926Y-85520797D01*
X84677691Y-85523947D01*
X84656250Y-85525000D01*
X84143750Y-85525000D01*
X84122309Y-85523947D01*
X84101074Y-85520797D01*
X84080250Y-85515581D01*
X84060038Y-85508349D01*
X84040632Y-85499170D01*
X84022219Y-85488134D01*
X84004976Y-85475346D01*
X83989070Y-85460930D01*
X83974654Y-85445024D01*
X83961866Y-85427781D01*
X83950830Y-85409368D01*
X83941651Y-85389962D01*
X83934419Y-85369750D01*
X83929203Y-85348926D01*
X83926053Y-85327691D01*
X83925000Y-85306250D01*
X83925000Y-84868750D01*
X83926053Y-84847309D01*
X83929203Y-84826074D01*
X83934419Y-84805250D01*
X83941651Y-84785038D01*
X83950830Y-84765632D01*
X83961866Y-84747219D01*
X83974654Y-84729976D01*
X83989070Y-84714070D01*
X84004976Y-84699654D01*
X84022219Y-84686866D01*
X84040632Y-84675830D01*
X84060038Y-84666651D01*
X84080250Y-84659419D01*
X84101074Y-84654203D01*
X84122309Y-84651053D01*
X84143750Y-84650000D01*
X84656250Y-84650000D01*
X84677691Y-84651053D01*
G37*
G36*
X86777691Y-83076053D02*
G01*
X86798926Y-83079203D01*
X86819750Y-83084419D01*
X86839962Y-83091651D01*
X86859368Y-83100830D01*
X86877781Y-83111866D01*
X86895024Y-83124654D01*
X86910930Y-83139070D01*
X86925346Y-83154976D01*
X86938134Y-83172219D01*
X86949170Y-83190632D01*
X86958349Y-83210038D01*
X86965581Y-83230250D01*
X86970797Y-83251074D01*
X86973947Y-83272309D01*
X86975000Y-83293750D01*
X86975000Y-83731250D01*
X86973947Y-83752691D01*
X86970797Y-83773926D01*
X86965581Y-83794750D01*
X86958349Y-83814962D01*
X86949170Y-83834368D01*
X86938134Y-83852781D01*
X86925346Y-83870024D01*
X86910930Y-83885930D01*
X86895024Y-83900346D01*
X86877781Y-83913134D01*
X86859368Y-83924170D01*
X86839962Y-83933349D01*
X86819750Y-83940581D01*
X86798926Y-83945797D01*
X86777691Y-83948947D01*
X86756250Y-83950000D01*
X86243750Y-83950000D01*
X86222309Y-83948947D01*
X86201074Y-83945797D01*
X86180250Y-83940581D01*
X86160038Y-83933349D01*
X86140632Y-83924170D01*
X86122219Y-83913134D01*
X86104976Y-83900346D01*
X86089070Y-83885930D01*
X86074654Y-83870024D01*
X86061866Y-83852781D01*
X86050830Y-83834368D01*
X86041651Y-83814962D01*
X86034419Y-83794750D01*
X86029203Y-83773926D01*
X86026053Y-83752691D01*
X86025000Y-83731250D01*
X86025000Y-83293750D01*
X86026053Y-83272309D01*
X86029203Y-83251074D01*
X86034419Y-83230250D01*
X86041651Y-83210038D01*
X86050830Y-83190632D01*
X86061866Y-83172219D01*
X86074654Y-83154976D01*
X86089070Y-83139070D01*
X86104976Y-83124654D01*
X86122219Y-83111866D01*
X86140632Y-83100830D01*
X86160038Y-83091651D01*
X86180250Y-83084419D01*
X86201074Y-83079203D01*
X86222309Y-83076053D01*
X86243750Y-83075000D01*
X86756250Y-83075000D01*
X86777691Y-83076053D01*
G37*
G36*
X86777691Y-84651053D02*
G01*
X86798926Y-84654203D01*
X86819750Y-84659419D01*
X86839962Y-84666651D01*
X86859368Y-84675830D01*
X86877781Y-84686866D01*
X86895024Y-84699654D01*
X86910930Y-84714070D01*
X86925346Y-84729976D01*
X86938134Y-84747219D01*
X86949170Y-84765632D01*
X86958349Y-84785038D01*
X86965581Y-84805250D01*
X86970797Y-84826074D01*
X86973947Y-84847309D01*
X86975000Y-84868750D01*
X86975000Y-85306250D01*
X86973947Y-85327691D01*
X86970797Y-85348926D01*
X86965581Y-85369750D01*
X86958349Y-85389962D01*
X86949170Y-85409368D01*
X86938134Y-85427781D01*
X86925346Y-85445024D01*
X86910930Y-85460930D01*
X86895024Y-85475346D01*
X86877781Y-85488134D01*
X86859368Y-85499170D01*
X86839962Y-85508349D01*
X86819750Y-85515581D01*
X86798926Y-85520797D01*
X86777691Y-85523947D01*
X86756250Y-85525000D01*
X86243750Y-85525000D01*
X86222309Y-85523947D01*
X86201074Y-85520797D01*
X86180250Y-85515581D01*
X86160038Y-85508349D01*
X86140632Y-85499170D01*
X86122219Y-85488134D01*
X86104976Y-85475346D01*
X86089070Y-85460930D01*
X86074654Y-85445024D01*
X86061866Y-85427781D01*
X86050830Y-85409368D01*
X86041651Y-85389962D01*
X86034419Y-85369750D01*
X86029203Y-85348926D01*
X86026053Y-85327691D01*
X86025000Y-85306250D01*
X86025000Y-84868750D01*
X86026053Y-84847309D01*
X86029203Y-84826074D01*
X86034419Y-84805250D01*
X86041651Y-84785038D01*
X86050830Y-84765632D01*
X86061866Y-84747219D01*
X86074654Y-84729976D01*
X86089070Y-84714070D01*
X86104976Y-84699654D01*
X86122219Y-84686866D01*
X86140632Y-84675830D01*
X86160038Y-84666651D01*
X86180250Y-84659419D01*
X86201074Y-84654203D01*
X86222309Y-84651053D01*
X86243750Y-84650000D01*
X86756250Y-84650000D01*
X86777691Y-84651053D01*
G37*
M02*
