G04 #@! TF.GenerationSoftware,KiCad,Pcbnew,(5.1.5)-3*
G04 #@! TF.CreationDate,2021-08-11T14:03:33+02:00*
G04 #@! TF.ProjectId,18650_UPS_TOP,31383635-305f-4555-9053-5f544f502e6b,rev?*
G04 #@! TF.SameCoordinates,Original*
G04 #@! TF.FileFunction,Soldermask,Top*
G04 #@! TF.FilePolarity,Negative*
%FSLAX46Y46*%
G04 Gerber Fmt 4.6, Leading zero omitted, Abs format (unit mm)*
G04 Created by KiCad (PCBNEW (5.1.5)-3) date 2021-08-11 14:03:33*
%MOMM*%
%LPD*%
G04 APERTURE LIST*
%ADD10C,0.100000*%
G04 APERTURE END LIST*
D10*
G36*
X70475256Y-91391298D02*
G01*
X70581579Y-91412447D01*
X70882042Y-91536903D01*
X71152451Y-91717585D01*
X71382415Y-91947549D01*
X71563097Y-92217958D01*
X71687553Y-92518421D01*
X71751000Y-92837391D01*
X71751000Y-93162609D01*
X71687553Y-93481579D01*
X71563097Y-93782042D01*
X71382415Y-94052451D01*
X71152451Y-94282415D01*
X70882042Y-94463097D01*
X70581579Y-94587553D01*
X70475256Y-94608702D01*
X70262611Y-94651000D01*
X69937389Y-94651000D01*
X69724744Y-94608702D01*
X69618421Y-94587553D01*
X69317958Y-94463097D01*
X69047549Y-94282415D01*
X68817585Y-94052451D01*
X68636903Y-93782042D01*
X68512447Y-93481579D01*
X68449000Y-93162609D01*
X68449000Y-92837391D01*
X68512447Y-92518421D01*
X68636903Y-92217958D01*
X68817585Y-91947549D01*
X69047549Y-91717585D01*
X69317958Y-91536903D01*
X69618421Y-91412447D01*
X69724744Y-91391298D01*
X69937389Y-91349000D01*
X70262611Y-91349000D01*
X70475256Y-91391298D01*
G37*
G36*
X70475256Y-75391298D02*
G01*
X70581579Y-75412447D01*
X70882042Y-75536903D01*
X71152451Y-75717585D01*
X71382415Y-75947549D01*
X71563097Y-76217958D01*
X71687553Y-76518421D01*
X71751000Y-76837391D01*
X71751000Y-77162609D01*
X71687553Y-77481579D01*
X71563097Y-77782042D01*
X71382415Y-78052451D01*
X71152451Y-78282415D01*
X70882042Y-78463097D01*
X70581579Y-78587553D01*
X70475256Y-78608702D01*
X70262611Y-78651000D01*
X69937389Y-78651000D01*
X69724744Y-78608702D01*
X69618421Y-78587553D01*
X69317958Y-78463097D01*
X69047549Y-78282415D01*
X68817585Y-78052451D01*
X68636903Y-77782042D01*
X68512447Y-77481579D01*
X68449000Y-77162609D01*
X68449000Y-76837391D01*
X68512447Y-76518421D01*
X68636903Y-76217958D01*
X68817585Y-75947549D01*
X69047549Y-75717585D01*
X69317958Y-75536903D01*
X69618421Y-75412447D01*
X69724744Y-75391298D01*
X69937389Y-75349000D01*
X70262611Y-75349000D01*
X70475256Y-75391298D01*
G37*
M02*
