G04 #@! TF.GenerationSoftware,KiCad,Pcbnew,(5.1.5)-3*
G04 #@! TF.CreationDate,2021-08-08T19:40:10+02:00*
G04 #@! TF.ProjectId,18650_UPS_TOP,31383635-305f-4555-9053-5f544f502e6b,rev?*
G04 #@! TF.SameCoordinates,Original*
G04 #@! TF.FileFunction,Copper,L2,Bot*
G04 #@! TF.FilePolarity,Positive*
%FSLAX46Y46*%
G04 Gerber Fmt 4.6, Leading zero omitted, Abs format (unit mm)*
G04 Created by KiCad (PCBNEW (5.1.5)-3) date 2021-08-08 19:40:10*
%MOMM*%
%LPD*%
G04 APERTURE LIST*
%ADD10R,0.400000X3.000000*%
%ADD11R,0.800000X0.900000*%
%ADD12C,2.500000*%
%ADD13C,0.100000*%
%ADD14C,0.250000*%
G04 APERTURE END LIST*
D10*
X101200000Y-89500000D03*
X100500000Y-89500000D03*
X99800000Y-89500000D03*
X99100000Y-89500000D03*
X98400000Y-89500000D03*
X97700000Y-89500000D03*
X97000000Y-89500000D03*
X96300000Y-89500000D03*
X95600000Y-89500000D03*
X94900000Y-89500000D03*
X94200000Y-89500000D03*
X93500000Y-89500000D03*
X92800000Y-89500000D03*
X92100000Y-89500000D03*
X91400000Y-89500000D03*
X90700000Y-89500000D03*
X90000000Y-89500000D03*
X89300000Y-89500000D03*
X88600000Y-89500000D03*
X87900000Y-89500000D03*
X87200000Y-89500000D03*
X86500000Y-89500000D03*
X85800000Y-89500000D03*
X85100000Y-89500000D03*
X84400000Y-89500000D03*
X83700000Y-89500000D03*
X83000000Y-89500000D03*
X82300000Y-89500000D03*
X81600000Y-89500000D03*
X80900000Y-89500000D03*
D11*
X90700000Y-83300000D03*
X89750000Y-85300000D03*
X91650000Y-85300000D03*
D12*
X77400000Y-90400000D03*
X77400000Y-86800000D03*
X77400000Y-83200000D03*
X77400000Y-79600000D03*
G04 #@! TA.AperFunction,SMDPad,CuDef*
D13*
G36*
X97477691Y-83176053D02*
G01*
X97498926Y-83179203D01*
X97519750Y-83184419D01*
X97539962Y-83191651D01*
X97559368Y-83200830D01*
X97577781Y-83211866D01*
X97595024Y-83224654D01*
X97610930Y-83239070D01*
X97625346Y-83254976D01*
X97638134Y-83272219D01*
X97649170Y-83290632D01*
X97658349Y-83310038D01*
X97665581Y-83330250D01*
X97670797Y-83351074D01*
X97673947Y-83372309D01*
X97675000Y-83393750D01*
X97675000Y-83831250D01*
X97673947Y-83852691D01*
X97670797Y-83873926D01*
X97665581Y-83894750D01*
X97658349Y-83914962D01*
X97649170Y-83934368D01*
X97638134Y-83952781D01*
X97625346Y-83970024D01*
X97610930Y-83985930D01*
X97595024Y-84000346D01*
X97577781Y-84013134D01*
X97559368Y-84024170D01*
X97539962Y-84033349D01*
X97519750Y-84040581D01*
X97498926Y-84045797D01*
X97477691Y-84048947D01*
X97456250Y-84050000D01*
X96943750Y-84050000D01*
X96922309Y-84048947D01*
X96901074Y-84045797D01*
X96880250Y-84040581D01*
X96860038Y-84033349D01*
X96840632Y-84024170D01*
X96822219Y-84013134D01*
X96804976Y-84000346D01*
X96789070Y-83985930D01*
X96774654Y-83970024D01*
X96761866Y-83952781D01*
X96750830Y-83934368D01*
X96741651Y-83914962D01*
X96734419Y-83894750D01*
X96729203Y-83873926D01*
X96726053Y-83852691D01*
X96725000Y-83831250D01*
X96725000Y-83393750D01*
X96726053Y-83372309D01*
X96729203Y-83351074D01*
X96734419Y-83330250D01*
X96741651Y-83310038D01*
X96750830Y-83290632D01*
X96761866Y-83272219D01*
X96774654Y-83254976D01*
X96789070Y-83239070D01*
X96804976Y-83224654D01*
X96822219Y-83211866D01*
X96840632Y-83200830D01*
X96860038Y-83191651D01*
X96880250Y-83184419D01*
X96901074Y-83179203D01*
X96922309Y-83176053D01*
X96943750Y-83175000D01*
X97456250Y-83175000D01*
X97477691Y-83176053D01*
G37*
G04 #@! TD.AperFunction*
G04 #@! TA.AperFunction,SMDPad,CuDef*
G36*
X97477691Y-84751053D02*
G01*
X97498926Y-84754203D01*
X97519750Y-84759419D01*
X97539962Y-84766651D01*
X97559368Y-84775830D01*
X97577781Y-84786866D01*
X97595024Y-84799654D01*
X97610930Y-84814070D01*
X97625346Y-84829976D01*
X97638134Y-84847219D01*
X97649170Y-84865632D01*
X97658349Y-84885038D01*
X97665581Y-84905250D01*
X97670797Y-84926074D01*
X97673947Y-84947309D01*
X97675000Y-84968750D01*
X97675000Y-85406250D01*
X97673947Y-85427691D01*
X97670797Y-85448926D01*
X97665581Y-85469750D01*
X97658349Y-85489962D01*
X97649170Y-85509368D01*
X97638134Y-85527781D01*
X97625346Y-85545024D01*
X97610930Y-85560930D01*
X97595024Y-85575346D01*
X97577781Y-85588134D01*
X97559368Y-85599170D01*
X97539962Y-85608349D01*
X97519750Y-85615581D01*
X97498926Y-85620797D01*
X97477691Y-85623947D01*
X97456250Y-85625000D01*
X96943750Y-85625000D01*
X96922309Y-85623947D01*
X96901074Y-85620797D01*
X96880250Y-85615581D01*
X96860038Y-85608349D01*
X96840632Y-85599170D01*
X96822219Y-85588134D01*
X96804976Y-85575346D01*
X96789070Y-85560930D01*
X96774654Y-85545024D01*
X96761866Y-85527781D01*
X96750830Y-85509368D01*
X96741651Y-85489962D01*
X96734419Y-85469750D01*
X96729203Y-85448926D01*
X96726053Y-85427691D01*
X96725000Y-85406250D01*
X96725000Y-84968750D01*
X96726053Y-84947309D01*
X96729203Y-84926074D01*
X96734419Y-84905250D01*
X96741651Y-84885038D01*
X96750830Y-84865632D01*
X96761866Y-84847219D01*
X96774654Y-84829976D01*
X96789070Y-84814070D01*
X96804976Y-84799654D01*
X96822219Y-84786866D01*
X96840632Y-84775830D01*
X96860038Y-84766651D01*
X96880250Y-84759419D01*
X96901074Y-84754203D01*
X96922309Y-84751053D01*
X96943750Y-84750000D01*
X97456250Y-84750000D01*
X97477691Y-84751053D01*
G37*
G04 #@! TD.AperFunction*
G04 #@! TA.AperFunction,SMDPad,CuDef*
G36*
X103477691Y-83176053D02*
G01*
X103498926Y-83179203D01*
X103519750Y-83184419D01*
X103539962Y-83191651D01*
X103559368Y-83200830D01*
X103577781Y-83211866D01*
X103595024Y-83224654D01*
X103610930Y-83239070D01*
X103625346Y-83254976D01*
X103638134Y-83272219D01*
X103649170Y-83290632D01*
X103658349Y-83310038D01*
X103665581Y-83330250D01*
X103670797Y-83351074D01*
X103673947Y-83372309D01*
X103675000Y-83393750D01*
X103675000Y-83831250D01*
X103673947Y-83852691D01*
X103670797Y-83873926D01*
X103665581Y-83894750D01*
X103658349Y-83914962D01*
X103649170Y-83934368D01*
X103638134Y-83952781D01*
X103625346Y-83970024D01*
X103610930Y-83985930D01*
X103595024Y-84000346D01*
X103577781Y-84013134D01*
X103559368Y-84024170D01*
X103539962Y-84033349D01*
X103519750Y-84040581D01*
X103498926Y-84045797D01*
X103477691Y-84048947D01*
X103456250Y-84050000D01*
X102943750Y-84050000D01*
X102922309Y-84048947D01*
X102901074Y-84045797D01*
X102880250Y-84040581D01*
X102860038Y-84033349D01*
X102840632Y-84024170D01*
X102822219Y-84013134D01*
X102804976Y-84000346D01*
X102789070Y-83985930D01*
X102774654Y-83970024D01*
X102761866Y-83952781D01*
X102750830Y-83934368D01*
X102741651Y-83914962D01*
X102734419Y-83894750D01*
X102729203Y-83873926D01*
X102726053Y-83852691D01*
X102725000Y-83831250D01*
X102725000Y-83393750D01*
X102726053Y-83372309D01*
X102729203Y-83351074D01*
X102734419Y-83330250D01*
X102741651Y-83310038D01*
X102750830Y-83290632D01*
X102761866Y-83272219D01*
X102774654Y-83254976D01*
X102789070Y-83239070D01*
X102804976Y-83224654D01*
X102822219Y-83211866D01*
X102840632Y-83200830D01*
X102860038Y-83191651D01*
X102880250Y-83184419D01*
X102901074Y-83179203D01*
X102922309Y-83176053D01*
X102943750Y-83175000D01*
X103456250Y-83175000D01*
X103477691Y-83176053D01*
G37*
G04 #@! TD.AperFunction*
G04 #@! TA.AperFunction,SMDPad,CuDef*
G36*
X103477691Y-84751053D02*
G01*
X103498926Y-84754203D01*
X103519750Y-84759419D01*
X103539962Y-84766651D01*
X103559368Y-84775830D01*
X103577781Y-84786866D01*
X103595024Y-84799654D01*
X103610930Y-84814070D01*
X103625346Y-84829976D01*
X103638134Y-84847219D01*
X103649170Y-84865632D01*
X103658349Y-84885038D01*
X103665581Y-84905250D01*
X103670797Y-84926074D01*
X103673947Y-84947309D01*
X103675000Y-84968750D01*
X103675000Y-85406250D01*
X103673947Y-85427691D01*
X103670797Y-85448926D01*
X103665581Y-85469750D01*
X103658349Y-85489962D01*
X103649170Y-85509368D01*
X103638134Y-85527781D01*
X103625346Y-85545024D01*
X103610930Y-85560930D01*
X103595024Y-85575346D01*
X103577781Y-85588134D01*
X103559368Y-85599170D01*
X103539962Y-85608349D01*
X103519750Y-85615581D01*
X103498926Y-85620797D01*
X103477691Y-85623947D01*
X103456250Y-85625000D01*
X102943750Y-85625000D01*
X102922309Y-85623947D01*
X102901074Y-85620797D01*
X102880250Y-85615581D01*
X102860038Y-85608349D01*
X102840632Y-85599170D01*
X102822219Y-85588134D01*
X102804976Y-85575346D01*
X102789070Y-85560930D01*
X102774654Y-85545024D01*
X102761866Y-85527781D01*
X102750830Y-85509368D01*
X102741651Y-85489962D01*
X102734419Y-85469750D01*
X102729203Y-85448926D01*
X102726053Y-85427691D01*
X102725000Y-85406250D01*
X102725000Y-84968750D01*
X102726053Y-84947309D01*
X102729203Y-84926074D01*
X102734419Y-84905250D01*
X102741651Y-84885038D01*
X102750830Y-84865632D01*
X102761866Y-84847219D01*
X102774654Y-84829976D01*
X102789070Y-84814070D01*
X102804976Y-84799654D01*
X102822219Y-84786866D01*
X102840632Y-84775830D01*
X102860038Y-84766651D01*
X102880250Y-84759419D01*
X102901074Y-84754203D01*
X102922309Y-84751053D01*
X102943750Y-84750000D01*
X103456250Y-84750000D01*
X103477691Y-84751053D01*
G37*
G04 #@! TD.AperFunction*
G04 #@! TA.AperFunction,SMDPad,CuDef*
G36*
X101377691Y-83176053D02*
G01*
X101398926Y-83179203D01*
X101419750Y-83184419D01*
X101439962Y-83191651D01*
X101459368Y-83200830D01*
X101477781Y-83211866D01*
X101495024Y-83224654D01*
X101510930Y-83239070D01*
X101525346Y-83254976D01*
X101538134Y-83272219D01*
X101549170Y-83290632D01*
X101558349Y-83310038D01*
X101565581Y-83330250D01*
X101570797Y-83351074D01*
X101573947Y-83372309D01*
X101575000Y-83393750D01*
X101575000Y-83831250D01*
X101573947Y-83852691D01*
X101570797Y-83873926D01*
X101565581Y-83894750D01*
X101558349Y-83914962D01*
X101549170Y-83934368D01*
X101538134Y-83952781D01*
X101525346Y-83970024D01*
X101510930Y-83985930D01*
X101495024Y-84000346D01*
X101477781Y-84013134D01*
X101459368Y-84024170D01*
X101439962Y-84033349D01*
X101419750Y-84040581D01*
X101398926Y-84045797D01*
X101377691Y-84048947D01*
X101356250Y-84050000D01*
X100843750Y-84050000D01*
X100822309Y-84048947D01*
X100801074Y-84045797D01*
X100780250Y-84040581D01*
X100760038Y-84033349D01*
X100740632Y-84024170D01*
X100722219Y-84013134D01*
X100704976Y-84000346D01*
X100689070Y-83985930D01*
X100674654Y-83970024D01*
X100661866Y-83952781D01*
X100650830Y-83934368D01*
X100641651Y-83914962D01*
X100634419Y-83894750D01*
X100629203Y-83873926D01*
X100626053Y-83852691D01*
X100625000Y-83831250D01*
X100625000Y-83393750D01*
X100626053Y-83372309D01*
X100629203Y-83351074D01*
X100634419Y-83330250D01*
X100641651Y-83310038D01*
X100650830Y-83290632D01*
X100661866Y-83272219D01*
X100674654Y-83254976D01*
X100689070Y-83239070D01*
X100704976Y-83224654D01*
X100722219Y-83211866D01*
X100740632Y-83200830D01*
X100760038Y-83191651D01*
X100780250Y-83184419D01*
X100801074Y-83179203D01*
X100822309Y-83176053D01*
X100843750Y-83175000D01*
X101356250Y-83175000D01*
X101377691Y-83176053D01*
G37*
G04 #@! TD.AperFunction*
G04 #@! TA.AperFunction,SMDPad,CuDef*
G36*
X101377691Y-84751053D02*
G01*
X101398926Y-84754203D01*
X101419750Y-84759419D01*
X101439962Y-84766651D01*
X101459368Y-84775830D01*
X101477781Y-84786866D01*
X101495024Y-84799654D01*
X101510930Y-84814070D01*
X101525346Y-84829976D01*
X101538134Y-84847219D01*
X101549170Y-84865632D01*
X101558349Y-84885038D01*
X101565581Y-84905250D01*
X101570797Y-84926074D01*
X101573947Y-84947309D01*
X101575000Y-84968750D01*
X101575000Y-85406250D01*
X101573947Y-85427691D01*
X101570797Y-85448926D01*
X101565581Y-85469750D01*
X101558349Y-85489962D01*
X101549170Y-85509368D01*
X101538134Y-85527781D01*
X101525346Y-85545024D01*
X101510930Y-85560930D01*
X101495024Y-85575346D01*
X101477781Y-85588134D01*
X101459368Y-85599170D01*
X101439962Y-85608349D01*
X101419750Y-85615581D01*
X101398926Y-85620797D01*
X101377691Y-85623947D01*
X101356250Y-85625000D01*
X100843750Y-85625000D01*
X100822309Y-85623947D01*
X100801074Y-85620797D01*
X100780250Y-85615581D01*
X100760038Y-85608349D01*
X100740632Y-85599170D01*
X100722219Y-85588134D01*
X100704976Y-85575346D01*
X100689070Y-85560930D01*
X100674654Y-85545024D01*
X100661866Y-85527781D01*
X100650830Y-85509368D01*
X100641651Y-85489962D01*
X100634419Y-85469750D01*
X100629203Y-85448926D01*
X100626053Y-85427691D01*
X100625000Y-85406250D01*
X100625000Y-84968750D01*
X100626053Y-84947309D01*
X100629203Y-84926074D01*
X100634419Y-84905250D01*
X100641651Y-84885038D01*
X100650830Y-84865632D01*
X100661866Y-84847219D01*
X100674654Y-84829976D01*
X100689070Y-84814070D01*
X100704976Y-84799654D01*
X100722219Y-84786866D01*
X100740632Y-84775830D01*
X100760038Y-84766651D01*
X100780250Y-84759419D01*
X100801074Y-84754203D01*
X100822309Y-84751053D01*
X100843750Y-84750000D01*
X101356250Y-84750000D01*
X101377691Y-84751053D01*
G37*
G04 #@! TD.AperFunction*
G04 #@! TA.AperFunction,SMDPad,CuDef*
G36*
X99377691Y-83176053D02*
G01*
X99398926Y-83179203D01*
X99419750Y-83184419D01*
X99439962Y-83191651D01*
X99459368Y-83200830D01*
X99477781Y-83211866D01*
X99495024Y-83224654D01*
X99510930Y-83239070D01*
X99525346Y-83254976D01*
X99538134Y-83272219D01*
X99549170Y-83290632D01*
X99558349Y-83310038D01*
X99565581Y-83330250D01*
X99570797Y-83351074D01*
X99573947Y-83372309D01*
X99575000Y-83393750D01*
X99575000Y-83831250D01*
X99573947Y-83852691D01*
X99570797Y-83873926D01*
X99565581Y-83894750D01*
X99558349Y-83914962D01*
X99549170Y-83934368D01*
X99538134Y-83952781D01*
X99525346Y-83970024D01*
X99510930Y-83985930D01*
X99495024Y-84000346D01*
X99477781Y-84013134D01*
X99459368Y-84024170D01*
X99439962Y-84033349D01*
X99419750Y-84040581D01*
X99398926Y-84045797D01*
X99377691Y-84048947D01*
X99356250Y-84050000D01*
X98843750Y-84050000D01*
X98822309Y-84048947D01*
X98801074Y-84045797D01*
X98780250Y-84040581D01*
X98760038Y-84033349D01*
X98740632Y-84024170D01*
X98722219Y-84013134D01*
X98704976Y-84000346D01*
X98689070Y-83985930D01*
X98674654Y-83970024D01*
X98661866Y-83952781D01*
X98650830Y-83934368D01*
X98641651Y-83914962D01*
X98634419Y-83894750D01*
X98629203Y-83873926D01*
X98626053Y-83852691D01*
X98625000Y-83831250D01*
X98625000Y-83393750D01*
X98626053Y-83372309D01*
X98629203Y-83351074D01*
X98634419Y-83330250D01*
X98641651Y-83310038D01*
X98650830Y-83290632D01*
X98661866Y-83272219D01*
X98674654Y-83254976D01*
X98689070Y-83239070D01*
X98704976Y-83224654D01*
X98722219Y-83211866D01*
X98740632Y-83200830D01*
X98760038Y-83191651D01*
X98780250Y-83184419D01*
X98801074Y-83179203D01*
X98822309Y-83176053D01*
X98843750Y-83175000D01*
X99356250Y-83175000D01*
X99377691Y-83176053D01*
G37*
G04 #@! TD.AperFunction*
G04 #@! TA.AperFunction,SMDPad,CuDef*
G36*
X99377691Y-84751053D02*
G01*
X99398926Y-84754203D01*
X99419750Y-84759419D01*
X99439962Y-84766651D01*
X99459368Y-84775830D01*
X99477781Y-84786866D01*
X99495024Y-84799654D01*
X99510930Y-84814070D01*
X99525346Y-84829976D01*
X99538134Y-84847219D01*
X99549170Y-84865632D01*
X99558349Y-84885038D01*
X99565581Y-84905250D01*
X99570797Y-84926074D01*
X99573947Y-84947309D01*
X99575000Y-84968750D01*
X99575000Y-85406250D01*
X99573947Y-85427691D01*
X99570797Y-85448926D01*
X99565581Y-85469750D01*
X99558349Y-85489962D01*
X99549170Y-85509368D01*
X99538134Y-85527781D01*
X99525346Y-85545024D01*
X99510930Y-85560930D01*
X99495024Y-85575346D01*
X99477781Y-85588134D01*
X99459368Y-85599170D01*
X99439962Y-85608349D01*
X99419750Y-85615581D01*
X99398926Y-85620797D01*
X99377691Y-85623947D01*
X99356250Y-85625000D01*
X98843750Y-85625000D01*
X98822309Y-85623947D01*
X98801074Y-85620797D01*
X98780250Y-85615581D01*
X98760038Y-85608349D01*
X98740632Y-85599170D01*
X98722219Y-85588134D01*
X98704976Y-85575346D01*
X98689070Y-85560930D01*
X98674654Y-85545024D01*
X98661866Y-85527781D01*
X98650830Y-85509368D01*
X98641651Y-85489962D01*
X98634419Y-85469750D01*
X98629203Y-85448926D01*
X98626053Y-85427691D01*
X98625000Y-85406250D01*
X98625000Y-84968750D01*
X98626053Y-84947309D01*
X98629203Y-84926074D01*
X98634419Y-84905250D01*
X98641651Y-84885038D01*
X98650830Y-84865632D01*
X98661866Y-84847219D01*
X98674654Y-84829976D01*
X98689070Y-84814070D01*
X98704976Y-84799654D01*
X98722219Y-84786866D01*
X98740632Y-84775830D01*
X98760038Y-84766651D01*
X98780250Y-84759419D01*
X98801074Y-84754203D01*
X98822309Y-84751053D01*
X98843750Y-84750000D01*
X99356250Y-84750000D01*
X99377691Y-84751053D01*
G37*
G04 #@! TD.AperFunction*
G04 #@! TA.AperFunction,SMDPad,CuDef*
G36*
X84677691Y-83076053D02*
G01*
X84698926Y-83079203D01*
X84719750Y-83084419D01*
X84739962Y-83091651D01*
X84759368Y-83100830D01*
X84777781Y-83111866D01*
X84795024Y-83124654D01*
X84810930Y-83139070D01*
X84825346Y-83154976D01*
X84838134Y-83172219D01*
X84849170Y-83190632D01*
X84858349Y-83210038D01*
X84865581Y-83230250D01*
X84870797Y-83251074D01*
X84873947Y-83272309D01*
X84875000Y-83293750D01*
X84875000Y-83731250D01*
X84873947Y-83752691D01*
X84870797Y-83773926D01*
X84865581Y-83794750D01*
X84858349Y-83814962D01*
X84849170Y-83834368D01*
X84838134Y-83852781D01*
X84825346Y-83870024D01*
X84810930Y-83885930D01*
X84795024Y-83900346D01*
X84777781Y-83913134D01*
X84759368Y-83924170D01*
X84739962Y-83933349D01*
X84719750Y-83940581D01*
X84698926Y-83945797D01*
X84677691Y-83948947D01*
X84656250Y-83950000D01*
X84143750Y-83950000D01*
X84122309Y-83948947D01*
X84101074Y-83945797D01*
X84080250Y-83940581D01*
X84060038Y-83933349D01*
X84040632Y-83924170D01*
X84022219Y-83913134D01*
X84004976Y-83900346D01*
X83989070Y-83885930D01*
X83974654Y-83870024D01*
X83961866Y-83852781D01*
X83950830Y-83834368D01*
X83941651Y-83814962D01*
X83934419Y-83794750D01*
X83929203Y-83773926D01*
X83926053Y-83752691D01*
X83925000Y-83731250D01*
X83925000Y-83293750D01*
X83926053Y-83272309D01*
X83929203Y-83251074D01*
X83934419Y-83230250D01*
X83941651Y-83210038D01*
X83950830Y-83190632D01*
X83961866Y-83172219D01*
X83974654Y-83154976D01*
X83989070Y-83139070D01*
X84004976Y-83124654D01*
X84022219Y-83111866D01*
X84040632Y-83100830D01*
X84060038Y-83091651D01*
X84080250Y-83084419D01*
X84101074Y-83079203D01*
X84122309Y-83076053D01*
X84143750Y-83075000D01*
X84656250Y-83075000D01*
X84677691Y-83076053D01*
G37*
G04 #@! TD.AperFunction*
G04 #@! TA.AperFunction,SMDPad,CuDef*
G36*
X84677691Y-84651053D02*
G01*
X84698926Y-84654203D01*
X84719750Y-84659419D01*
X84739962Y-84666651D01*
X84759368Y-84675830D01*
X84777781Y-84686866D01*
X84795024Y-84699654D01*
X84810930Y-84714070D01*
X84825346Y-84729976D01*
X84838134Y-84747219D01*
X84849170Y-84765632D01*
X84858349Y-84785038D01*
X84865581Y-84805250D01*
X84870797Y-84826074D01*
X84873947Y-84847309D01*
X84875000Y-84868750D01*
X84875000Y-85306250D01*
X84873947Y-85327691D01*
X84870797Y-85348926D01*
X84865581Y-85369750D01*
X84858349Y-85389962D01*
X84849170Y-85409368D01*
X84838134Y-85427781D01*
X84825346Y-85445024D01*
X84810930Y-85460930D01*
X84795024Y-85475346D01*
X84777781Y-85488134D01*
X84759368Y-85499170D01*
X84739962Y-85508349D01*
X84719750Y-85515581D01*
X84698926Y-85520797D01*
X84677691Y-85523947D01*
X84656250Y-85525000D01*
X84143750Y-85525000D01*
X84122309Y-85523947D01*
X84101074Y-85520797D01*
X84080250Y-85515581D01*
X84060038Y-85508349D01*
X84040632Y-85499170D01*
X84022219Y-85488134D01*
X84004976Y-85475346D01*
X83989070Y-85460930D01*
X83974654Y-85445024D01*
X83961866Y-85427781D01*
X83950830Y-85409368D01*
X83941651Y-85389962D01*
X83934419Y-85369750D01*
X83929203Y-85348926D01*
X83926053Y-85327691D01*
X83925000Y-85306250D01*
X83925000Y-84868750D01*
X83926053Y-84847309D01*
X83929203Y-84826074D01*
X83934419Y-84805250D01*
X83941651Y-84785038D01*
X83950830Y-84765632D01*
X83961866Y-84747219D01*
X83974654Y-84729976D01*
X83989070Y-84714070D01*
X84004976Y-84699654D01*
X84022219Y-84686866D01*
X84040632Y-84675830D01*
X84060038Y-84666651D01*
X84080250Y-84659419D01*
X84101074Y-84654203D01*
X84122309Y-84651053D01*
X84143750Y-84650000D01*
X84656250Y-84650000D01*
X84677691Y-84651053D01*
G37*
G04 #@! TD.AperFunction*
G04 #@! TA.AperFunction,SMDPad,CuDef*
G36*
X86777691Y-83076053D02*
G01*
X86798926Y-83079203D01*
X86819750Y-83084419D01*
X86839962Y-83091651D01*
X86859368Y-83100830D01*
X86877781Y-83111866D01*
X86895024Y-83124654D01*
X86910930Y-83139070D01*
X86925346Y-83154976D01*
X86938134Y-83172219D01*
X86949170Y-83190632D01*
X86958349Y-83210038D01*
X86965581Y-83230250D01*
X86970797Y-83251074D01*
X86973947Y-83272309D01*
X86975000Y-83293750D01*
X86975000Y-83731250D01*
X86973947Y-83752691D01*
X86970797Y-83773926D01*
X86965581Y-83794750D01*
X86958349Y-83814962D01*
X86949170Y-83834368D01*
X86938134Y-83852781D01*
X86925346Y-83870024D01*
X86910930Y-83885930D01*
X86895024Y-83900346D01*
X86877781Y-83913134D01*
X86859368Y-83924170D01*
X86839962Y-83933349D01*
X86819750Y-83940581D01*
X86798926Y-83945797D01*
X86777691Y-83948947D01*
X86756250Y-83950000D01*
X86243750Y-83950000D01*
X86222309Y-83948947D01*
X86201074Y-83945797D01*
X86180250Y-83940581D01*
X86160038Y-83933349D01*
X86140632Y-83924170D01*
X86122219Y-83913134D01*
X86104976Y-83900346D01*
X86089070Y-83885930D01*
X86074654Y-83870024D01*
X86061866Y-83852781D01*
X86050830Y-83834368D01*
X86041651Y-83814962D01*
X86034419Y-83794750D01*
X86029203Y-83773926D01*
X86026053Y-83752691D01*
X86025000Y-83731250D01*
X86025000Y-83293750D01*
X86026053Y-83272309D01*
X86029203Y-83251074D01*
X86034419Y-83230250D01*
X86041651Y-83210038D01*
X86050830Y-83190632D01*
X86061866Y-83172219D01*
X86074654Y-83154976D01*
X86089070Y-83139070D01*
X86104976Y-83124654D01*
X86122219Y-83111866D01*
X86140632Y-83100830D01*
X86160038Y-83091651D01*
X86180250Y-83084419D01*
X86201074Y-83079203D01*
X86222309Y-83076053D01*
X86243750Y-83075000D01*
X86756250Y-83075000D01*
X86777691Y-83076053D01*
G37*
G04 #@! TD.AperFunction*
G04 #@! TA.AperFunction,SMDPad,CuDef*
G36*
X86777691Y-84651053D02*
G01*
X86798926Y-84654203D01*
X86819750Y-84659419D01*
X86839962Y-84666651D01*
X86859368Y-84675830D01*
X86877781Y-84686866D01*
X86895024Y-84699654D01*
X86910930Y-84714070D01*
X86925346Y-84729976D01*
X86938134Y-84747219D01*
X86949170Y-84765632D01*
X86958349Y-84785038D01*
X86965581Y-84805250D01*
X86970797Y-84826074D01*
X86973947Y-84847309D01*
X86975000Y-84868750D01*
X86975000Y-85306250D01*
X86973947Y-85327691D01*
X86970797Y-85348926D01*
X86965581Y-85369750D01*
X86958349Y-85389962D01*
X86949170Y-85409368D01*
X86938134Y-85427781D01*
X86925346Y-85445024D01*
X86910930Y-85460930D01*
X86895024Y-85475346D01*
X86877781Y-85488134D01*
X86859368Y-85499170D01*
X86839962Y-85508349D01*
X86819750Y-85515581D01*
X86798926Y-85520797D01*
X86777691Y-85523947D01*
X86756250Y-85525000D01*
X86243750Y-85525000D01*
X86222309Y-85523947D01*
X86201074Y-85520797D01*
X86180250Y-85515581D01*
X86160038Y-85508349D01*
X86140632Y-85499170D01*
X86122219Y-85488134D01*
X86104976Y-85475346D01*
X86089070Y-85460930D01*
X86074654Y-85445024D01*
X86061866Y-85427781D01*
X86050830Y-85409368D01*
X86041651Y-85389962D01*
X86034419Y-85369750D01*
X86029203Y-85348926D01*
X86026053Y-85327691D01*
X86025000Y-85306250D01*
X86025000Y-84868750D01*
X86026053Y-84847309D01*
X86029203Y-84826074D01*
X86034419Y-84805250D01*
X86041651Y-84785038D01*
X86050830Y-84765632D01*
X86061866Y-84747219D01*
X86074654Y-84729976D01*
X86089070Y-84714070D01*
X86104976Y-84699654D01*
X86122219Y-84686866D01*
X86140632Y-84675830D01*
X86160038Y-84666651D01*
X86180250Y-84659419D01*
X86201074Y-84654203D01*
X86222309Y-84651053D01*
X86243750Y-84650000D01*
X86756250Y-84650000D01*
X86777691Y-84651053D01*
G37*
G04 #@! TD.AperFunction*
D14*
X100625000Y-85187500D02*
X101100000Y-85187500D01*
X99800000Y-86012500D02*
X100625000Y-85187500D01*
X99800000Y-89500000D02*
X99800000Y-86012500D01*
X101100000Y-85187500D02*
X103200000Y-85187500D01*
X86500000Y-89500000D02*
X86500000Y-85087500D01*
X84400000Y-89500000D02*
X84400000Y-85087500D01*
X79112500Y-85087500D02*
X77400000Y-86800000D01*
X84400000Y-85087500D02*
X79112500Y-85087500D01*
X88762500Y-83300000D02*
X90050000Y-83300000D01*
X90050000Y-83300000D02*
X90700000Y-83300000D01*
X86975000Y-85087500D02*
X88762500Y-83300000D01*
X86500000Y-85087500D02*
X86975000Y-85087500D01*
X87900000Y-86925000D02*
X87900000Y-87750000D01*
X86500000Y-85525000D02*
X87900000Y-86925000D01*
X87900000Y-87750000D02*
X87900000Y-89500000D01*
X86500000Y-85087500D02*
X86500000Y-85525000D01*
X99800000Y-91250000D02*
X99800000Y-89500000D01*
X99450000Y-91600000D02*
X99800000Y-91250000D01*
X87900000Y-89500000D02*
X87900000Y-91250000D01*
X88250000Y-91600000D02*
X99450000Y-91600000D01*
X87900000Y-91250000D02*
X88250000Y-91600000D01*
X84400000Y-85087500D02*
X86500000Y-85087500D01*
X99100000Y-89500000D02*
X99100000Y-85187500D01*
X97675000Y-85187500D02*
X97200000Y-85187500D01*
X98400000Y-85912500D02*
X97675000Y-85187500D01*
X98400000Y-89500000D02*
X98400000Y-85912500D01*
X93500000Y-87750000D02*
X93500000Y-89500000D01*
X94200000Y-86500000D02*
X93500000Y-85800000D01*
X94200000Y-89500000D02*
X94200000Y-86500000D01*
X93500000Y-85800000D02*
X93500000Y-87750000D01*
X93500000Y-82700000D02*
X93500000Y-85800000D01*
X77400000Y-79600000D02*
X90400000Y-79600000D01*
X90400000Y-79600000D02*
X93500000Y-82700000D01*
X92800000Y-87750000D02*
X92800000Y-89500000D01*
X92800000Y-82900000D02*
X92800000Y-87750000D01*
X91850001Y-81950001D02*
X92800000Y-82900000D01*
X77400000Y-83200000D02*
X78649999Y-81950001D01*
X78649999Y-81950001D02*
X91850001Y-81950001D01*
X90000000Y-85550000D02*
X89750000Y-85300000D01*
X90000000Y-89500000D02*
X90000000Y-85550000D01*
G36*
X107800001Y-96100000D02*
G01*
X103541013Y-96100000D01*
X103524997Y-96101577D01*
X103520562Y-96101531D01*
X103515002Y-96102057D01*
X103223752Y-96131641D01*
X103188216Y-96138806D01*
X103152577Y-96145476D01*
X103147225Y-96147071D01*
X102867268Y-96232663D01*
X102833786Y-96246600D01*
X102800138Y-96260059D01*
X102795197Y-96262663D01*
X102537197Y-96401001D01*
X102507045Y-96421186D01*
X102476665Y-96440915D01*
X102472324Y-96444430D01*
X102247350Y-96629227D01*
X102231049Y-96642605D01*
X100591654Y-98282001D01*
X100410861Y-98430507D01*
X100221986Y-98531780D01*
X100017041Y-98594439D01*
X99784888Y-98618020D01*
X99200000Y-98618020D01*
X99200000Y-96519647D01*
X99201935Y-96500000D01*
X99194212Y-96421586D01*
X99171340Y-96346186D01*
X99134197Y-96276697D01*
X99084211Y-96215789D01*
X99023303Y-96165803D01*
X98953814Y-96128660D01*
X98878414Y-96105788D01*
X98819647Y-96100000D01*
X98800000Y-96098065D01*
X98780354Y-96100000D01*
X83280307Y-96100000D01*
X83260660Y-96098065D01*
X83241014Y-96100000D01*
X83241013Y-96100000D01*
X83182246Y-96105788D01*
X83106846Y-96128660D01*
X83037357Y-96165803D01*
X82976449Y-96215789D01*
X82926463Y-96276697D01*
X82889320Y-96346186D01*
X82866448Y-96421586D01*
X82858725Y-96500000D01*
X82860661Y-96519657D01*
X82860660Y-98618020D01*
X82280223Y-98618020D01*
X82047376Y-98595189D01*
X81842213Y-98533247D01*
X81652992Y-98432636D01*
X81472154Y-98285148D01*
X79829610Y-96642605D01*
X79817166Y-96632393D01*
X79814066Y-96629227D01*
X79809763Y-96625666D01*
X79582899Y-96440640D01*
X79552676Y-96420560D01*
X79522789Y-96400096D01*
X79517876Y-96397439D01*
X79259395Y-96260002D01*
X79225857Y-96246178D01*
X79192555Y-96231905D01*
X79187219Y-96230253D01*
X78906965Y-96145639D01*
X78871373Y-96138592D01*
X78835939Y-96131060D01*
X78830385Y-96130476D01*
X78539033Y-96101909D01*
X78539030Y-96101909D01*
X78519647Y-96100000D01*
X70119564Y-96100000D01*
X69498248Y-96039079D01*
X68919410Y-95864318D01*
X68385546Y-95580457D01*
X67916984Y-95198308D01*
X67531574Y-94732426D01*
X67243992Y-94200555D01*
X67065197Y-93622960D01*
X67000013Y-93002778D01*
X67000000Y-92999184D01*
X67000000Y-92805479D01*
X68125000Y-92805479D01*
X68125000Y-93194521D01*
X68200898Y-93576086D01*
X68349778Y-93935513D01*
X68565917Y-94258989D01*
X68841011Y-94534083D01*
X69164487Y-94750222D01*
X69523914Y-94899102D01*
X69905479Y-94975000D01*
X70294521Y-94975000D01*
X70676086Y-94899102D01*
X71035513Y-94750222D01*
X71358989Y-94534083D01*
X71634083Y-94258989D01*
X71850222Y-93935513D01*
X71999102Y-93576086D01*
X72075000Y-93194521D01*
X72075000Y-92805479D01*
X71999102Y-92423914D01*
X71850222Y-92064487D01*
X71634083Y-91741011D01*
X71425615Y-91532543D01*
X76302813Y-91532543D01*
X76431030Y-91776205D01*
X76718133Y-91938798D01*
X77031440Y-92042256D01*
X77358910Y-92082603D01*
X77687959Y-92058288D01*
X78005942Y-91970247D01*
X78300639Y-91821862D01*
X78368970Y-91776205D01*
X78497187Y-91532543D01*
X77400000Y-90435355D01*
X76302813Y-91532543D01*
X71425615Y-91532543D01*
X71358989Y-91465917D01*
X71035513Y-91249778D01*
X70676086Y-91100898D01*
X70294521Y-91025000D01*
X69905479Y-91025000D01*
X69523914Y-91100898D01*
X69164487Y-91249778D01*
X68841011Y-91465917D01*
X68565917Y-91741011D01*
X68349778Y-92064487D01*
X68200898Y-92423914D01*
X68125000Y-92805479D01*
X67000000Y-92805479D01*
X67000000Y-90358910D01*
X75717397Y-90358910D01*
X75741712Y-90687959D01*
X75829753Y-91005942D01*
X75978138Y-91300639D01*
X76023795Y-91368970D01*
X76267457Y-91497187D01*
X77364645Y-90400000D01*
X77435355Y-90400000D01*
X78532543Y-91497187D01*
X78776205Y-91368970D01*
X78938798Y-91081867D01*
X79042256Y-90768560D01*
X79082603Y-90441090D01*
X79058288Y-90112041D01*
X78970247Y-89794058D01*
X78821862Y-89499361D01*
X78776205Y-89431030D01*
X78532543Y-89302813D01*
X77435355Y-90400000D01*
X77364645Y-90400000D01*
X76267457Y-89302813D01*
X76023795Y-89431030D01*
X75861202Y-89718133D01*
X75757744Y-90031440D01*
X75717397Y-90358910D01*
X67000000Y-90358910D01*
X67000000Y-89267457D01*
X76302813Y-89267457D01*
X77400000Y-90364645D01*
X78497187Y-89267457D01*
X78368970Y-89023795D01*
X78081867Y-88861202D01*
X77768560Y-88757744D01*
X77441090Y-88717397D01*
X77112041Y-88741712D01*
X76794058Y-88829753D01*
X76499361Y-88978138D01*
X76431030Y-89023795D01*
X76302813Y-89267457D01*
X67000000Y-89267457D01*
X67000000Y-79439951D01*
X75775000Y-79439951D01*
X75775000Y-79760049D01*
X75837448Y-80073995D01*
X75959943Y-80369726D01*
X76137780Y-80635877D01*
X76364123Y-80862220D01*
X76630274Y-81040057D01*
X76926005Y-81162552D01*
X77239951Y-81225000D01*
X77560049Y-81225000D01*
X77873995Y-81162552D01*
X78169726Y-81040057D01*
X78435877Y-80862220D01*
X78662220Y-80635877D01*
X78840057Y-80369726D01*
X78951780Y-80100000D01*
X90192895Y-80100000D01*
X91542896Y-81450001D01*
X78674559Y-81450001D01*
X78649999Y-81447582D01*
X78625439Y-81450001D01*
X78551982Y-81457236D01*
X78457732Y-81485826D01*
X78370870Y-81532255D01*
X78294735Y-81594737D01*
X78279079Y-81613814D01*
X78143722Y-81749172D01*
X77873995Y-81637448D01*
X77560049Y-81575000D01*
X77239951Y-81575000D01*
X76926005Y-81637448D01*
X76630274Y-81759943D01*
X76364123Y-81937780D01*
X76137780Y-82164123D01*
X75959943Y-82430274D01*
X75837448Y-82726005D01*
X75775000Y-83039951D01*
X75775000Y-83360049D01*
X75837448Y-83673995D01*
X75959943Y-83969726D01*
X76137780Y-84235877D01*
X76364123Y-84462220D01*
X76630274Y-84640057D01*
X76926005Y-84762552D01*
X77239951Y-84825000D01*
X77560049Y-84825000D01*
X77873995Y-84762552D01*
X78169726Y-84640057D01*
X78435877Y-84462220D01*
X78662220Y-84235877D01*
X78840057Y-83969726D01*
X78962552Y-83673995D01*
X79025000Y-83360049D01*
X79025000Y-83075000D01*
X83497944Y-83075000D01*
X83500000Y-83381250D01*
X83606250Y-83487500D01*
X84375000Y-83487500D01*
X84375000Y-82756250D01*
X84425000Y-82756250D01*
X84425000Y-83487500D01*
X85193750Y-83487500D01*
X85300000Y-83381250D01*
X85302056Y-83075000D01*
X85597944Y-83075000D01*
X85600000Y-83381250D01*
X85706250Y-83487500D01*
X86475000Y-83487500D01*
X86475000Y-82756250D01*
X86525000Y-82756250D01*
X86525000Y-83487500D01*
X87293750Y-83487500D01*
X87400000Y-83381250D01*
X87402056Y-83075000D01*
X87393850Y-82991686D01*
X87369548Y-82911573D01*
X87330084Y-82837740D01*
X87276974Y-82773026D01*
X87212260Y-82719916D01*
X87138427Y-82680452D01*
X87058314Y-82656150D01*
X86975000Y-82647944D01*
X86631250Y-82650000D01*
X86525000Y-82756250D01*
X86475000Y-82756250D01*
X86368750Y-82650000D01*
X86025000Y-82647944D01*
X85941686Y-82656150D01*
X85861573Y-82680452D01*
X85787740Y-82719916D01*
X85723026Y-82773026D01*
X85669916Y-82837740D01*
X85630452Y-82911573D01*
X85606150Y-82991686D01*
X85597944Y-83075000D01*
X85302056Y-83075000D01*
X85293850Y-82991686D01*
X85269548Y-82911573D01*
X85230084Y-82837740D01*
X85176974Y-82773026D01*
X85112260Y-82719916D01*
X85038427Y-82680452D01*
X84958314Y-82656150D01*
X84875000Y-82647944D01*
X84531250Y-82650000D01*
X84425000Y-82756250D01*
X84375000Y-82756250D01*
X84268750Y-82650000D01*
X83925000Y-82647944D01*
X83841686Y-82656150D01*
X83761573Y-82680452D01*
X83687740Y-82719916D01*
X83623026Y-82773026D01*
X83569916Y-82837740D01*
X83530452Y-82911573D01*
X83506150Y-82991686D01*
X83497944Y-83075000D01*
X79025000Y-83075000D01*
X79025000Y-83039951D01*
X78962552Y-82726005D01*
X78850828Y-82456278D01*
X78857106Y-82450001D01*
X91642896Y-82450001D01*
X92300000Y-83107107D01*
X92300000Y-84505372D01*
X92287260Y-84494916D01*
X92213427Y-84455452D01*
X92133314Y-84431150D01*
X92050000Y-84422944D01*
X91781250Y-84425000D01*
X91675000Y-84531250D01*
X91675000Y-85275000D01*
X91695000Y-85275000D01*
X91695000Y-85325000D01*
X91675000Y-85325000D01*
X91675000Y-86068750D01*
X91781250Y-86175000D01*
X92050000Y-86177056D01*
X92133314Y-86168850D01*
X92213427Y-86144548D01*
X92287260Y-86105084D01*
X92300001Y-86094628D01*
X92300001Y-87572944D01*
X92300000Y-87572944D01*
X92231250Y-87575000D01*
X92125000Y-87681250D01*
X92125000Y-89475000D01*
X92145000Y-89475000D01*
X92145000Y-89525000D01*
X92125000Y-89525000D01*
X92125000Y-89545000D01*
X92075000Y-89545000D01*
X92075000Y-89525000D01*
X91425000Y-89525000D01*
X91425000Y-89545000D01*
X91375000Y-89545000D01*
X91375000Y-89525000D01*
X90725000Y-89525000D01*
X90725000Y-89545000D01*
X90675000Y-89545000D01*
X90675000Y-89525000D01*
X90655000Y-89525000D01*
X90655000Y-89475000D01*
X90675000Y-89475000D01*
X90675000Y-87681250D01*
X90725000Y-87681250D01*
X90725000Y-89475000D01*
X91375000Y-89475000D01*
X91375000Y-87681250D01*
X91425000Y-87681250D01*
X91425000Y-89475000D01*
X92075000Y-89475000D01*
X92075000Y-87681250D01*
X91968750Y-87575000D01*
X91900000Y-87572944D01*
X91816686Y-87581150D01*
X91750000Y-87601379D01*
X91683314Y-87581150D01*
X91600000Y-87572944D01*
X91531250Y-87575000D01*
X91425000Y-87681250D01*
X91375000Y-87681250D01*
X91268750Y-87575000D01*
X91200000Y-87572944D01*
X91116686Y-87581150D01*
X91050000Y-87601379D01*
X90983314Y-87581150D01*
X90900000Y-87572944D01*
X90831250Y-87575000D01*
X90725000Y-87681250D01*
X90675000Y-87681250D01*
X90568750Y-87575000D01*
X90500000Y-87572944D01*
X90500000Y-85888039D01*
X90519574Y-85823513D01*
X90526814Y-85750000D01*
X90822944Y-85750000D01*
X90831150Y-85833314D01*
X90855452Y-85913427D01*
X90894916Y-85987260D01*
X90948026Y-86051974D01*
X91012740Y-86105084D01*
X91086573Y-86144548D01*
X91166686Y-86168850D01*
X91250000Y-86177056D01*
X91518750Y-86175000D01*
X91625000Y-86068750D01*
X91625000Y-85325000D01*
X90931250Y-85325000D01*
X90825000Y-85431250D01*
X90822944Y-85750000D01*
X90526814Y-85750000D01*
X90526814Y-84850000D01*
X90822944Y-84850000D01*
X90825000Y-85168750D01*
X90931250Y-85275000D01*
X91625000Y-85275000D01*
X91625000Y-84531250D01*
X91518750Y-84425000D01*
X91250000Y-84422944D01*
X91166686Y-84431150D01*
X91086573Y-84455452D01*
X91012740Y-84494916D01*
X90948026Y-84548026D01*
X90894916Y-84612740D01*
X90855452Y-84686573D01*
X90831150Y-84766686D01*
X90822944Y-84850000D01*
X90526814Y-84850000D01*
X90519574Y-84776487D01*
X90498131Y-84705800D01*
X90463309Y-84640653D01*
X90416448Y-84583552D01*
X90359347Y-84536691D01*
X90294200Y-84501869D01*
X90223513Y-84480426D01*
X90150000Y-84473186D01*
X89350000Y-84473186D01*
X89276487Y-84480426D01*
X89205800Y-84501869D01*
X89140653Y-84536691D01*
X89083552Y-84583552D01*
X89036691Y-84640653D01*
X89001869Y-84705800D01*
X88980426Y-84776487D01*
X88973186Y-84850000D01*
X88973186Y-85750000D01*
X88980426Y-85823513D01*
X89001869Y-85894200D01*
X89036691Y-85959347D01*
X89083552Y-86016448D01*
X89140653Y-86063309D01*
X89205800Y-86098131D01*
X89276487Y-86119574D01*
X89350000Y-86126814D01*
X89500001Y-86126814D01*
X89500000Y-87572944D01*
X89431250Y-87575000D01*
X89325000Y-87681250D01*
X89325000Y-89475000D01*
X89345000Y-89475000D01*
X89345000Y-89525000D01*
X89325000Y-89525000D01*
X89325000Y-89545000D01*
X89275000Y-89545000D01*
X89275000Y-89525000D01*
X88625000Y-89525000D01*
X88625000Y-89545000D01*
X88575000Y-89545000D01*
X88575000Y-89525000D01*
X88555000Y-89525000D01*
X88555000Y-89475000D01*
X88575000Y-89475000D01*
X88575000Y-87681250D01*
X88625000Y-87681250D01*
X88625000Y-89475000D01*
X89275000Y-89475000D01*
X89275000Y-87681250D01*
X89168750Y-87575000D01*
X89100000Y-87572944D01*
X89016686Y-87581150D01*
X88950000Y-87601379D01*
X88883314Y-87581150D01*
X88800000Y-87572944D01*
X88731250Y-87575000D01*
X88625000Y-87681250D01*
X88575000Y-87681250D01*
X88468750Y-87575000D01*
X88400000Y-87572944D01*
X88400000Y-86949560D01*
X88402419Y-86925000D01*
X88392765Y-86826982D01*
X88384092Y-86798392D01*
X88364175Y-86732733D01*
X88317746Y-86645871D01*
X88255264Y-86569736D01*
X88236181Y-86554075D01*
X87275056Y-85592951D01*
X87306479Y-85534162D01*
X87336515Y-85435147D01*
X87345929Y-85423676D01*
X88969607Y-83800000D01*
X89928110Y-83800000D01*
X89930426Y-83823513D01*
X89951869Y-83894200D01*
X89986691Y-83959347D01*
X90033552Y-84016448D01*
X90090653Y-84063309D01*
X90155800Y-84098131D01*
X90226487Y-84119574D01*
X90300000Y-84126814D01*
X91100000Y-84126814D01*
X91173513Y-84119574D01*
X91244200Y-84098131D01*
X91309347Y-84063309D01*
X91366448Y-84016448D01*
X91413309Y-83959347D01*
X91448131Y-83894200D01*
X91469574Y-83823513D01*
X91476814Y-83750000D01*
X91476814Y-82850000D01*
X91469574Y-82776487D01*
X91448131Y-82705800D01*
X91413309Y-82640653D01*
X91366448Y-82583552D01*
X91309347Y-82536691D01*
X91244200Y-82501869D01*
X91173513Y-82480426D01*
X91100000Y-82473186D01*
X90300000Y-82473186D01*
X90226487Y-82480426D01*
X90155800Y-82501869D01*
X90090653Y-82536691D01*
X90033552Y-82583552D01*
X89986691Y-82640653D01*
X89951869Y-82705800D01*
X89930426Y-82776487D01*
X89928110Y-82800000D01*
X88787060Y-82800000D01*
X88762500Y-82797581D01*
X88737940Y-82800000D01*
X88664483Y-82807235D01*
X88570233Y-82835825D01*
X88483371Y-82882254D01*
X88407236Y-82944736D01*
X88391580Y-82963813D01*
X87401691Y-83953703D01*
X87402056Y-83950000D01*
X87400000Y-83643750D01*
X87293750Y-83537500D01*
X86525000Y-83537500D01*
X86525000Y-83557500D01*
X86475000Y-83557500D01*
X86475000Y-83537500D01*
X85706250Y-83537500D01*
X85600000Y-83643750D01*
X85597944Y-83950000D01*
X85606150Y-84033314D01*
X85630452Y-84113427D01*
X85669916Y-84187260D01*
X85723026Y-84251974D01*
X85787740Y-84305084D01*
X85861573Y-84344548D01*
X85928922Y-84364978D01*
X85912872Y-84373557D01*
X85822623Y-84447623D01*
X85748557Y-84537872D01*
X85722031Y-84587500D01*
X85177969Y-84587500D01*
X85151443Y-84537872D01*
X85077377Y-84447623D01*
X84987128Y-84373557D01*
X84971078Y-84364978D01*
X85038427Y-84344548D01*
X85112260Y-84305084D01*
X85176974Y-84251974D01*
X85230084Y-84187260D01*
X85269548Y-84113427D01*
X85293850Y-84033314D01*
X85302056Y-83950000D01*
X85300000Y-83643750D01*
X85193750Y-83537500D01*
X84425000Y-83537500D01*
X84425000Y-83557500D01*
X84375000Y-83557500D01*
X84375000Y-83537500D01*
X83606250Y-83537500D01*
X83500000Y-83643750D01*
X83497944Y-83950000D01*
X83506150Y-84033314D01*
X83530452Y-84113427D01*
X83569916Y-84187260D01*
X83623026Y-84251974D01*
X83687740Y-84305084D01*
X83761573Y-84344548D01*
X83828922Y-84364978D01*
X83812872Y-84373557D01*
X83722623Y-84447623D01*
X83648557Y-84537872D01*
X83622031Y-84587500D01*
X79137060Y-84587500D01*
X79112500Y-84585081D01*
X79087940Y-84587500D01*
X79014483Y-84594735D01*
X78920233Y-84623325D01*
X78833371Y-84669754D01*
X78757236Y-84732236D01*
X78741580Y-84751313D01*
X78143722Y-85349172D01*
X77873995Y-85237448D01*
X77560049Y-85175000D01*
X77239951Y-85175000D01*
X76926005Y-85237448D01*
X76630274Y-85359943D01*
X76364123Y-85537780D01*
X76137780Y-85764123D01*
X75959943Y-86030274D01*
X75837448Y-86326005D01*
X75775000Y-86639951D01*
X75775000Y-86960049D01*
X75837448Y-87273995D01*
X75959943Y-87569726D01*
X76137780Y-87835877D01*
X76364123Y-88062220D01*
X76630274Y-88240057D01*
X76926005Y-88362552D01*
X77239951Y-88425000D01*
X77560049Y-88425000D01*
X77873995Y-88362552D01*
X78169726Y-88240057D01*
X78435877Y-88062220D01*
X78662220Y-87835877D01*
X78840057Y-87569726D01*
X78962552Y-87273995D01*
X79025000Y-86960049D01*
X79025000Y-86639951D01*
X78962552Y-86326005D01*
X78850828Y-86056278D01*
X79319607Y-85587500D01*
X83622031Y-85587500D01*
X83648557Y-85637128D01*
X83722623Y-85727377D01*
X83812872Y-85801443D01*
X83900001Y-85848014D01*
X83900000Y-87623186D01*
X83500000Y-87623186D01*
X83426487Y-87630426D01*
X83355800Y-87651869D01*
X83350000Y-87654969D01*
X83344200Y-87651869D01*
X83273513Y-87630426D01*
X83200000Y-87623186D01*
X82800000Y-87623186D01*
X82726487Y-87630426D01*
X82655800Y-87651869D01*
X82650000Y-87654969D01*
X82644200Y-87651869D01*
X82573513Y-87630426D01*
X82500000Y-87623186D01*
X82100000Y-87623186D01*
X82026487Y-87630426D01*
X81955800Y-87651869D01*
X81950000Y-87654969D01*
X81944200Y-87651869D01*
X81873513Y-87630426D01*
X81800000Y-87623186D01*
X81400000Y-87623186D01*
X81326487Y-87630426D01*
X81255800Y-87651869D01*
X81250000Y-87654969D01*
X81244200Y-87651869D01*
X81173513Y-87630426D01*
X81100000Y-87623186D01*
X80700000Y-87623186D01*
X80626487Y-87630426D01*
X80555800Y-87651869D01*
X80490653Y-87686691D01*
X80433552Y-87733552D01*
X80386691Y-87790653D01*
X80351869Y-87855800D01*
X80330426Y-87926487D01*
X80323186Y-88000000D01*
X80323186Y-91000000D01*
X80330426Y-91073513D01*
X80351869Y-91144200D01*
X80386691Y-91209347D01*
X80433552Y-91266448D01*
X80490653Y-91313309D01*
X80555800Y-91348131D01*
X80626487Y-91369574D01*
X80700000Y-91376814D01*
X81100000Y-91376814D01*
X81173513Y-91369574D01*
X81244200Y-91348131D01*
X81250000Y-91345031D01*
X81255800Y-91348131D01*
X81326487Y-91369574D01*
X81400000Y-91376814D01*
X81800000Y-91376814D01*
X81873513Y-91369574D01*
X81944200Y-91348131D01*
X81950000Y-91345031D01*
X81955800Y-91348131D01*
X82026487Y-91369574D01*
X82100000Y-91376814D01*
X82500000Y-91376814D01*
X82573513Y-91369574D01*
X82644200Y-91348131D01*
X82650000Y-91345031D01*
X82655800Y-91348131D01*
X82726487Y-91369574D01*
X82800000Y-91376814D01*
X83200000Y-91376814D01*
X83273513Y-91369574D01*
X83344200Y-91348131D01*
X83350000Y-91345031D01*
X83355800Y-91348131D01*
X83426487Y-91369574D01*
X83500000Y-91376814D01*
X83900000Y-91376814D01*
X83973513Y-91369574D01*
X84044200Y-91348131D01*
X84050000Y-91345031D01*
X84055800Y-91348131D01*
X84126487Y-91369574D01*
X84200000Y-91376814D01*
X84600000Y-91376814D01*
X84673513Y-91369574D01*
X84744200Y-91348131D01*
X84750000Y-91345031D01*
X84755800Y-91348131D01*
X84826487Y-91369574D01*
X84900000Y-91376814D01*
X85300000Y-91376814D01*
X85373513Y-91369574D01*
X85383935Y-91366413D01*
X85436573Y-91394548D01*
X85516686Y-91418850D01*
X85600000Y-91427056D01*
X85668750Y-91425000D01*
X85775000Y-91318750D01*
X85775000Y-89525000D01*
X85755000Y-89525000D01*
X85755000Y-89475000D01*
X85775000Y-89475000D01*
X85775000Y-87681250D01*
X85668750Y-87575000D01*
X85600000Y-87572944D01*
X85516686Y-87581150D01*
X85436573Y-87605452D01*
X85383935Y-87633587D01*
X85373513Y-87630426D01*
X85300000Y-87623186D01*
X84900000Y-87623186D01*
X84900000Y-85848013D01*
X84987128Y-85801443D01*
X85077377Y-85727377D01*
X85151443Y-85637128D01*
X85177969Y-85587500D01*
X85722031Y-85587500D01*
X85748557Y-85637128D01*
X85822623Y-85727377D01*
X85912872Y-85801443D01*
X86000001Y-85848014D01*
X86000000Y-87572944D01*
X85931250Y-87575000D01*
X85825000Y-87681250D01*
X85825000Y-89475000D01*
X85845000Y-89475000D01*
X85845000Y-89525000D01*
X85825000Y-89525000D01*
X85825000Y-91318750D01*
X85931250Y-91425000D01*
X86000000Y-91427056D01*
X86083314Y-91418850D01*
X86163427Y-91394548D01*
X86216065Y-91366413D01*
X86226487Y-91369574D01*
X86300000Y-91376814D01*
X86700000Y-91376814D01*
X86773513Y-91369574D01*
X86783935Y-91366413D01*
X86836573Y-91394548D01*
X86916686Y-91418850D01*
X87000000Y-91427056D01*
X87068750Y-91425000D01*
X87175000Y-91318750D01*
X87175000Y-89525000D01*
X87155000Y-89525000D01*
X87155000Y-89475000D01*
X87175000Y-89475000D01*
X87175000Y-87681250D01*
X87068750Y-87575000D01*
X87000000Y-87572944D01*
X87000000Y-86732106D01*
X87400000Y-87132106D01*
X87400001Y-87572944D01*
X87400000Y-87572944D01*
X87331250Y-87575000D01*
X87225000Y-87681250D01*
X87225000Y-89475000D01*
X87245000Y-89475000D01*
X87245000Y-89525000D01*
X87225000Y-89525000D01*
X87225000Y-91318750D01*
X87331250Y-91425000D01*
X87400000Y-91427056D01*
X87430306Y-91424071D01*
X87430588Y-91425000D01*
X87435826Y-91442267D01*
X87482255Y-91529129D01*
X87544737Y-91605264D01*
X87563819Y-91620924D01*
X87879079Y-91936186D01*
X87894736Y-91955264D01*
X87970871Y-92017746D01*
X88057733Y-92064175D01*
X88151983Y-92092765D01*
X88250000Y-92102419D01*
X88274560Y-92100000D01*
X99425440Y-92100000D01*
X99450000Y-92102419D01*
X99474560Y-92100000D01*
X99548017Y-92092765D01*
X99642267Y-92064175D01*
X99729129Y-92017746D01*
X99805264Y-91955264D01*
X99820928Y-91936177D01*
X100136186Y-91620921D01*
X100155264Y-91605264D01*
X100217746Y-91529129D01*
X100264175Y-91442267D01*
X100269695Y-91424071D01*
X100300000Y-91427056D01*
X100368750Y-91425000D01*
X100475000Y-91318750D01*
X100475000Y-89525000D01*
X100455000Y-89525000D01*
X100455000Y-89475000D01*
X100475000Y-89475000D01*
X100475000Y-87681250D01*
X100525000Y-87681250D01*
X100525000Y-89475000D01*
X100545000Y-89475000D01*
X100545000Y-89525000D01*
X100525000Y-89525000D01*
X100525000Y-91318750D01*
X100631250Y-91425000D01*
X100700000Y-91427056D01*
X100783314Y-91418850D01*
X100863427Y-91394548D01*
X100916065Y-91366413D01*
X100926487Y-91369574D01*
X101000000Y-91376814D01*
X101400000Y-91376814D01*
X101473513Y-91369574D01*
X101544200Y-91348131D01*
X101609347Y-91313309D01*
X101666448Y-91266448D01*
X101713309Y-91209347D01*
X101748131Y-91144200D01*
X101769574Y-91073513D01*
X101776814Y-91000000D01*
X101776814Y-88000000D01*
X101769574Y-87926487D01*
X101748131Y-87855800D01*
X101713309Y-87790653D01*
X101666448Y-87733552D01*
X101609347Y-87686691D01*
X101544200Y-87651869D01*
X101473513Y-87630426D01*
X101400000Y-87623186D01*
X101000000Y-87623186D01*
X100926487Y-87630426D01*
X100916065Y-87633587D01*
X100863427Y-87605452D01*
X100783314Y-87581150D01*
X100700000Y-87572944D01*
X100631250Y-87575000D01*
X100525000Y-87681250D01*
X100475000Y-87681250D01*
X100368750Y-87575000D01*
X100300000Y-87572944D01*
X100300000Y-86219605D01*
X100581487Y-85938118D01*
X100615838Y-85956479D01*
X100727561Y-85990370D01*
X100843750Y-86001814D01*
X101356250Y-86001814D01*
X101472439Y-85990370D01*
X101584162Y-85956479D01*
X101687128Y-85901443D01*
X101777377Y-85827377D01*
X101851443Y-85737128D01*
X101877969Y-85687500D01*
X102422031Y-85687500D01*
X102448557Y-85737128D01*
X102522623Y-85827377D01*
X102612872Y-85901443D01*
X102715838Y-85956479D01*
X102827561Y-85990370D01*
X102943750Y-86001814D01*
X103456250Y-86001814D01*
X103572439Y-85990370D01*
X103684162Y-85956479D01*
X103787128Y-85901443D01*
X103877377Y-85827377D01*
X103951443Y-85737128D01*
X104006479Y-85634162D01*
X104040370Y-85522439D01*
X104051814Y-85406250D01*
X104051814Y-84968750D01*
X104040370Y-84852561D01*
X104006479Y-84740838D01*
X103951443Y-84637872D01*
X103877377Y-84547623D01*
X103787128Y-84473557D01*
X103771078Y-84464978D01*
X103838427Y-84444548D01*
X103912260Y-84405084D01*
X103976974Y-84351974D01*
X104030084Y-84287260D01*
X104069548Y-84213427D01*
X104093850Y-84133314D01*
X104102056Y-84050000D01*
X104100000Y-83743750D01*
X103993750Y-83637500D01*
X103225000Y-83637500D01*
X103225000Y-83657500D01*
X103175000Y-83657500D01*
X103175000Y-83637500D01*
X102406250Y-83637500D01*
X102300000Y-83743750D01*
X102297944Y-84050000D01*
X102306150Y-84133314D01*
X102330452Y-84213427D01*
X102369916Y-84287260D01*
X102423026Y-84351974D01*
X102487740Y-84405084D01*
X102561573Y-84444548D01*
X102628922Y-84464978D01*
X102612872Y-84473557D01*
X102522623Y-84547623D01*
X102448557Y-84637872D01*
X102422031Y-84687500D01*
X101877969Y-84687500D01*
X101851443Y-84637872D01*
X101777377Y-84547623D01*
X101687128Y-84473557D01*
X101671078Y-84464978D01*
X101738427Y-84444548D01*
X101812260Y-84405084D01*
X101876974Y-84351974D01*
X101930084Y-84287260D01*
X101969548Y-84213427D01*
X101993850Y-84133314D01*
X102002056Y-84050000D01*
X102000000Y-83743750D01*
X101893750Y-83637500D01*
X101125000Y-83637500D01*
X101125000Y-83657500D01*
X101075000Y-83657500D01*
X101075000Y-83637500D01*
X100306250Y-83637500D01*
X100200000Y-83743750D01*
X100197944Y-84050000D01*
X100206150Y-84133314D01*
X100230452Y-84213427D01*
X100269916Y-84287260D01*
X100323026Y-84351974D01*
X100387740Y-84405084D01*
X100461573Y-84444548D01*
X100528922Y-84464978D01*
X100512872Y-84473557D01*
X100422623Y-84547623D01*
X100348557Y-84637872D01*
X100293521Y-84740838D01*
X100263485Y-84839853D01*
X100254075Y-84851319D01*
X99951814Y-85153580D01*
X99951814Y-84968750D01*
X99940370Y-84852561D01*
X99906479Y-84740838D01*
X99851443Y-84637872D01*
X99777377Y-84547623D01*
X99687128Y-84473557D01*
X99671078Y-84464978D01*
X99738427Y-84444548D01*
X99812260Y-84405084D01*
X99876974Y-84351974D01*
X99930084Y-84287260D01*
X99969548Y-84213427D01*
X99993850Y-84133314D01*
X100002056Y-84050000D01*
X100000000Y-83743750D01*
X99893750Y-83637500D01*
X99125000Y-83637500D01*
X99125000Y-83657500D01*
X99075000Y-83657500D01*
X99075000Y-83637500D01*
X98306250Y-83637500D01*
X98200000Y-83743750D01*
X98197944Y-84050000D01*
X98206150Y-84133314D01*
X98230452Y-84213427D01*
X98269916Y-84287260D01*
X98323026Y-84351974D01*
X98387740Y-84405084D01*
X98461573Y-84444548D01*
X98528922Y-84464978D01*
X98512872Y-84473557D01*
X98422623Y-84547623D01*
X98348557Y-84637872D01*
X98293521Y-84740838D01*
X98259630Y-84852561D01*
X98248186Y-84968750D01*
X98248186Y-85053580D01*
X98045929Y-84851324D01*
X98036515Y-84839853D01*
X98006479Y-84740838D01*
X97951443Y-84637872D01*
X97877377Y-84547623D01*
X97787128Y-84473557D01*
X97771078Y-84464978D01*
X97838427Y-84444548D01*
X97912260Y-84405084D01*
X97976974Y-84351974D01*
X98030084Y-84287260D01*
X98069548Y-84213427D01*
X98093850Y-84133314D01*
X98102056Y-84050000D01*
X98100000Y-83743750D01*
X97993750Y-83637500D01*
X97225000Y-83637500D01*
X97225000Y-83657500D01*
X97175000Y-83657500D01*
X97175000Y-83637500D01*
X96406250Y-83637500D01*
X96300000Y-83743750D01*
X96297944Y-84050000D01*
X96306150Y-84133314D01*
X96330452Y-84213427D01*
X96369916Y-84287260D01*
X96423026Y-84351974D01*
X96487740Y-84405084D01*
X96561573Y-84444548D01*
X96628922Y-84464978D01*
X96612872Y-84473557D01*
X96522623Y-84547623D01*
X96448557Y-84637872D01*
X96393521Y-84740838D01*
X96359630Y-84852561D01*
X96348186Y-84968750D01*
X96348186Y-85406250D01*
X96359630Y-85522439D01*
X96393521Y-85634162D01*
X96448557Y-85737128D01*
X96522623Y-85827377D01*
X96612872Y-85901443D01*
X96715838Y-85956479D01*
X96827561Y-85990370D01*
X96943750Y-86001814D01*
X97456250Y-86001814D01*
X97572439Y-85990370D01*
X97684162Y-85956479D01*
X97718512Y-85938118D01*
X97900001Y-86119608D01*
X97900001Y-87572944D01*
X97900000Y-87572944D01*
X97831250Y-87575000D01*
X97725000Y-87681250D01*
X97725000Y-89475000D01*
X97745000Y-89475000D01*
X97745000Y-89525000D01*
X97725000Y-89525000D01*
X97725000Y-89545000D01*
X97675000Y-89545000D01*
X97675000Y-89525000D01*
X97025000Y-89525000D01*
X97025000Y-89545000D01*
X96975000Y-89545000D01*
X96975000Y-89525000D01*
X96325000Y-89525000D01*
X96325000Y-89545000D01*
X96275000Y-89545000D01*
X96275000Y-89525000D01*
X95625000Y-89525000D01*
X95625000Y-89545000D01*
X95575000Y-89545000D01*
X95575000Y-89525000D01*
X94925000Y-89525000D01*
X94925000Y-89545000D01*
X94875000Y-89545000D01*
X94875000Y-89525000D01*
X94855000Y-89525000D01*
X94855000Y-89475000D01*
X94875000Y-89475000D01*
X94875000Y-87681250D01*
X94925000Y-87681250D01*
X94925000Y-89475000D01*
X95575000Y-89475000D01*
X95575000Y-87681250D01*
X95625000Y-87681250D01*
X95625000Y-89475000D01*
X96275000Y-89475000D01*
X96275000Y-87681250D01*
X96325000Y-87681250D01*
X96325000Y-89475000D01*
X96975000Y-89475000D01*
X96975000Y-87681250D01*
X97025000Y-87681250D01*
X97025000Y-89475000D01*
X97675000Y-89475000D01*
X97675000Y-87681250D01*
X97568750Y-87575000D01*
X97500000Y-87572944D01*
X97416686Y-87581150D01*
X97350000Y-87601379D01*
X97283314Y-87581150D01*
X97200000Y-87572944D01*
X97131250Y-87575000D01*
X97025000Y-87681250D01*
X96975000Y-87681250D01*
X96868750Y-87575000D01*
X96800000Y-87572944D01*
X96716686Y-87581150D01*
X96650000Y-87601379D01*
X96583314Y-87581150D01*
X96500000Y-87572944D01*
X96431250Y-87575000D01*
X96325000Y-87681250D01*
X96275000Y-87681250D01*
X96168750Y-87575000D01*
X96100000Y-87572944D01*
X96016686Y-87581150D01*
X95950000Y-87601379D01*
X95883314Y-87581150D01*
X95800000Y-87572944D01*
X95731250Y-87575000D01*
X95625000Y-87681250D01*
X95575000Y-87681250D01*
X95468750Y-87575000D01*
X95400000Y-87572944D01*
X95316686Y-87581150D01*
X95250000Y-87601379D01*
X95183314Y-87581150D01*
X95100000Y-87572944D01*
X95031250Y-87575000D01*
X94925000Y-87681250D01*
X94875000Y-87681250D01*
X94768750Y-87575000D01*
X94700000Y-87572944D01*
X94700000Y-86524549D01*
X94702418Y-86499999D01*
X94700000Y-86475449D01*
X94700000Y-86475440D01*
X94692765Y-86401983D01*
X94664175Y-86307733D01*
X94617746Y-86220871D01*
X94555264Y-86144736D01*
X94536187Y-86129080D01*
X94000000Y-85592895D01*
X94000000Y-83175000D01*
X96297944Y-83175000D01*
X96300000Y-83481250D01*
X96406250Y-83587500D01*
X97175000Y-83587500D01*
X97175000Y-82856250D01*
X97225000Y-82856250D01*
X97225000Y-83587500D01*
X97993750Y-83587500D01*
X98100000Y-83481250D01*
X98102056Y-83175000D01*
X98197944Y-83175000D01*
X98200000Y-83481250D01*
X98306250Y-83587500D01*
X99075000Y-83587500D01*
X99075000Y-82856250D01*
X99125000Y-82856250D01*
X99125000Y-83587500D01*
X99893750Y-83587500D01*
X100000000Y-83481250D01*
X100002056Y-83175000D01*
X100197944Y-83175000D01*
X100200000Y-83481250D01*
X100306250Y-83587500D01*
X101075000Y-83587500D01*
X101075000Y-82856250D01*
X101125000Y-82856250D01*
X101125000Y-83587500D01*
X101893750Y-83587500D01*
X102000000Y-83481250D01*
X102002056Y-83175000D01*
X102297944Y-83175000D01*
X102300000Y-83481250D01*
X102406250Y-83587500D01*
X103175000Y-83587500D01*
X103175000Y-82856250D01*
X103225000Y-82856250D01*
X103225000Y-83587500D01*
X103993750Y-83587500D01*
X104100000Y-83481250D01*
X104102056Y-83175000D01*
X104093850Y-83091686D01*
X104069548Y-83011573D01*
X104030084Y-82937740D01*
X103976974Y-82873026D01*
X103912260Y-82819916D01*
X103838427Y-82780452D01*
X103758314Y-82756150D01*
X103675000Y-82747944D01*
X103331250Y-82750000D01*
X103225000Y-82856250D01*
X103175000Y-82856250D01*
X103068750Y-82750000D01*
X102725000Y-82747944D01*
X102641686Y-82756150D01*
X102561573Y-82780452D01*
X102487740Y-82819916D01*
X102423026Y-82873026D01*
X102369916Y-82937740D01*
X102330452Y-83011573D01*
X102306150Y-83091686D01*
X102297944Y-83175000D01*
X102002056Y-83175000D01*
X101993850Y-83091686D01*
X101969548Y-83011573D01*
X101930084Y-82937740D01*
X101876974Y-82873026D01*
X101812260Y-82819916D01*
X101738427Y-82780452D01*
X101658314Y-82756150D01*
X101575000Y-82747944D01*
X101231250Y-82750000D01*
X101125000Y-82856250D01*
X101075000Y-82856250D01*
X100968750Y-82750000D01*
X100625000Y-82747944D01*
X100541686Y-82756150D01*
X100461573Y-82780452D01*
X100387740Y-82819916D01*
X100323026Y-82873026D01*
X100269916Y-82937740D01*
X100230452Y-83011573D01*
X100206150Y-83091686D01*
X100197944Y-83175000D01*
X100002056Y-83175000D01*
X99993850Y-83091686D01*
X99969548Y-83011573D01*
X99930084Y-82937740D01*
X99876974Y-82873026D01*
X99812260Y-82819916D01*
X99738427Y-82780452D01*
X99658314Y-82756150D01*
X99575000Y-82747944D01*
X99231250Y-82750000D01*
X99125000Y-82856250D01*
X99075000Y-82856250D01*
X98968750Y-82750000D01*
X98625000Y-82747944D01*
X98541686Y-82756150D01*
X98461573Y-82780452D01*
X98387740Y-82819916D01*
X98323026Y-82873026D01*
X98269916Y-82937740D01*
X98230452Y-83011573D01*
X98206150Y-83091686D01*
X98197944Y-83175000D01*
X98102056Y-83175000D01*
X98093850Y-83091686D01*
X98069548Y-83011573D01*
X98030084Y-82937740D01*
X97976974Y-82873026D01*
X97912260Y-82819916D01*
X97838427Y-82780452D01*
X97758314Y-82756150D01*
X97675000Y-82747944D01*
X97331250Y-82750000D01*
X97225000Y-82856250D01*
X97175000Y-82856250D01*
X97068750Y-82750000D01*
X96725000Y-82747944D01*
X96641686Y-82756150D01*
X96561573Y-82780452D01*
X96487740Y-82819916D01*
X96423026Y-82873026D01*
X96369916Y-82937740D01*
X96330452Y-83011573D01*
X96306150Y-83091686D01*
X96297944Y-83175000D01*
X94000000Y-83175000D01*
X94000000Y-82724559D01*
X94002419Y-82699999D01*
X93992765Y-82601982D01*
X93980316Y-82560943D01*
X93964175Y-82507733D01*
X93917746Y-82420871D01*
X93855264Y-82344736D01*
X93836181Y-82329075D01*
X90770929Y-79263824D01*
X90755264Y-79244736D01*
X90679129Y-79182254D01*
X90592267Y-79135825D01*
X90498017Y-79107235D01*
X90424560Y-79100000D01*
X90400000Y-79097581D01*
X90375440Y-79100000D01*
X78951780Y-79100000D01*
X78840057Y-78830274D01*
X78662220Y-78564123D01*
X78435877Y-78337780D01*
X78169726Y-78159943D01*
X77873995Y-78037448D01*
X77560049Y-77975000D01*
X77239951Y-77975000D01*
X76926005Y-78037448D01*
X76630274Y-78159943D01*
X76364123Y-78337780D01*
X76137780Y-78564123D01*
X75959943Y-78830274D01*
X75837448Y-79126005D01*
X75775000Y-79439951D01*
X67000000Y-79439951D01*
X67000000Y-77019564D01*
X67020991Y-76805479D01*
X68125000Y-76805479D01*
X68125000Y-77194521D01*
X68200898Y-77576086D01*
X68349778Y-77935513D01*
X68565917Y-78258989D01*
X68841011Y-78534083D01*
X69164487Y-78750222D01*
X69523914Y-78899102D01*
X69905479Y-78975000D01*
X70294521Y-78975000D01*
X70676086Y-78899102D01*
X71035513Y-78750222D01*
X71358989Y-78534083D01*
X71634083Y-78258989D01*
X71850222Y-77935513D01*
X71999102Y-77576086D01*
X72075000Y-77194521D01*
X72075000Y-76805479D01*
X71999102Y-76423914D01*
X71850222Y-76064487D01*
X71634083Y-75741011D01*
X71358989Y-75465917D01*
X71035513Y-75249778D01*
X70676086Y-75100898D01*
X70294521Y-75025000D01*
X69905479Y-75025000D01*
X69523914Y-75100898D01*
X69164487Y-75249778D01*
X68841011Y-75465917D01*
X68565917Y-75741011D01*
X68349778Y-76064487D01*
X68200898Y-76423914D01*
X68125000Y-76805479D01*
X67020991Y-76805479D01*
X67060921Y-76398248D01*
X67235681Y-75819413D01*
X67519543Y-75285546D01*
X67901693Y-74816984D01*
X68367576Y-74431573D01*
X68899445Y-74143992D01*
X69477045Y-73965196D01*
X70097222Y-73900013D01*
X70100816Y-73900000D01*
X107800000Y-73900000D01*
X107800001Y-96100000D01*
G37*
X107800001Y-96100000D02*
X103541013Y-96100000D01*
X103524997Y-96101577D01*
X103520562Y-96101531D01*
X103515002Y-96102057D01*
X103223752Y-96131641D01*
X103188216Y-96138806D01*
X103152577Y-96145476D01*
X103147225Y-96147071D01*
X102867268Y-96232663D01*
X102833786Y-96246600D01*
X102800138Y-96260059D01*
X102795197Y-96262663D01*
X102537197Y-96401001D01*
X102507045Y-96421186D01*
X102476665Y-96440915D01*
X102472324Y-96444430D01*
X102247350Y-96629227D01*
X102231049Y-96642605D01*
X100591654Y-98282001D01*
X100410861Y-98430507D01*
X100221986Y-98531780D01*
X100017041Y-98594439D01*
X99784888Y-98618020D01*
X99200000Y-98618020D01*
X99200000Y-96519647D01*
X99201935Y-96500000D01*
X99194212Y-96421586D01*
X99171340Y-96346186D01*
X99134197Y-96276697D01*
X99084211Y-96215789D01*
X99023303Y-96165803D01*
X98953814Y-96128660D01*
X98878414Y-96105788D01*
X98819647Y-96100000D01*
X98800000Y-96098065D01*
X98780354Y-96100000D01*
X83280307Y-96100000D01*
X83260660Y-96098065D01*
X83241014Y-96100000D01*
X83241013Y-96100000D01*
X83182246Y-96105788D01*
X83106846Y-96128660D01*
X83037357Y-96165803D01*
X82976449Y-96215789D01*
X82926463Y-96276697D01*
X82889320Y-96346186D01*
X82866448Y-96421586D01*
X82858725Y-96500000D01*
X82860661Y-96519657D01*
X82860660Y-98618020D01*
X82280223Y-98618020D01*
X82047376Y-98595189D01*
X81842213Y-98533247D01*
X81652992Y-98432636D01*
X81472154Y-98285148D01*
X79829610Y-96642605D01*
X79817166Y-96632393D01*
X79814066Y-96629227D01*
X79809763Y-96625666D01*
X79582899Y-96440640D01*
X79552676Y-96420560D01*
X79522789Y-96400096D01*
X79517876Y-96397439D01*
X79259395Y-96260002D01*
X79225857Y-96246178D01*
X79192555Y-96231905D01*
X79187219Y-96230253D01*
X78906965Y-96145639D01*
X78871373Y-96138592D01*
X78835939Y-96131060D01*
X78830385Y-96130476D01*
X78539033Y-96101909D01*
X78539030Y-96101909D01*
X78519647Y-96100000D01*
X70119564Y-96100000D01*
X69498248Y-96039079D01*
X68919410Y-95864318D01*
X68385546Y-95580457D01*
X67916984Y-95198308D01*
X67531574Y-94732426D01*
X67243992Y-94200555D01*
X67065197Y-93622960D01*
X67000013Y-93002778D01*
X67000000Y-92999184D01*
X67000000Y-92805479D01*
X68125000Y-92805479D01*
X68125000Y-93194521D01*
X68200898Y-93576086D01*
X68349778Y-93935513D01*
X68565917Y-94258989D01*
X68841011Y-94534083D01*
X69164487Y-94750222D01*
X69523914Y-94899102D01*
X69905479Y-94975000D01*
X70294521Y-94975000D01*
X70676086Y-94899102D01*
X71035513Y-94750222D01*
X71358989Y-94534083D01*
X71634083Y-94258989D01*
X71850222Y-93935513D01*
X71999102Y-93576086D01*
X72075000Y-93194521D01*
X72075000Y-92805479D01*
X71999102Y-92423914D01*
X71850222Y-92064487D01*
X71634083Y-91741011D01*
X71425615Y-91532543D01*
X76302813Y-91532543D01*
X76431030Y-91776205D01*
X76718133Y-91938798D01*
X77031440Y-92042256D01*
X77358910Y-92082603D01*
X77687959Y-92058288D01*
X78005942Y-91970247D01*
X78300639Y-91821862D01*
X78368970Y-91776205D01*
X78497187Y-91532543D01*
X77400000Y-90435355D01*
X76302813Y-91532543D01*
X71425615Y-91532543D01*
X71358989Y-91465917D01*
X71035513Y-91249778D01*
X70676086Y-91100898D01*
X70294521Y-91025000D01*
X69905479Y-91025000D01*
X69523914Y-91100898D01*
X69164487Y-91249778D01*
X68841011Y-91465917D01*
X68565917Y-91741011D01*
X68349778Y-92064487D01*
X68200898Y-92423914D01*
X68125000Y-92805479D01*
X67000000Y-92805479D01*
X67000000Y-90358910D01*
X75717397Y-90358910D01*
X75741712Y-90687959D01*
X75829753Y-91005942D01*
X75978138Y-91300639D01*
X76023795Y-91368970D01*
X76267457Y-91497187D01*
X77364645Y-90400000D01*
X77435355Y-90400000D01*
X78532543Y-91497187D01*
X78776205Y-91368970D01*
X78938798Y-91081867D01*
X79042256Y-90768560D01*
X79082603Y-90441090D01*
X79058288Y-90112041D01*
X78970247Y-89794058D01*
X78821862Y-89499361D01*
X78776205Y-89431030D01*
X78532543Y-89302813D01*
X77435355Y-90400000D01*
X77364645Y-90400000D01*
X76267457Y-89302813D01*
X76023795Y-89431030D01*
X75861202Y-89718133D01*
X75757744Y-90031440D01*
X75717397Y-90358910D01*
X67000000Y-90358910D01*
X67000000Y-89267457D01*
X76302813Y-89267457D01*
X77400000Y-90364645D01*
X78497187Y-89267457D01*
X78368970Y-89023795D01*
X78081867Y-88861202D01*
X77768560Y-88757744D01*
X77441090Y-88717397D01*
X77112041Y-88741712D01*
X76794058Y-88829753D01*
X76499361Y-88978138D01*
X76431030Y-89023795D01*
X76302813Y-89267457D01*
X67000000Y-89267457D01*
X67000000Y-79439951D01*
X75775000Y-79439951D01*
X75775000Y-79760049D01*
X75837448Y-80073995D01*
X75959943Y-80369726D01*
X76137780Y-80635877D01*
X76364123Y-80862220D01*
X76630274Y-81040057D01*
X76926005Y-81162552D01*
X77239951Y-81225000D01*
X77560049Y-81225000D01*
X77873995Y-81162552D01*
X78169726Y-81040057D01*
X78435877Y-80862220D01*
X78662220Y-80635877D01*
X78840057Y-80369726D01*
X78951780Y-80100000D01*
X90192895Y-80100000D01*
X91542896Y-81450001D01*
X78674559Y-81450001D01*
X78649999Y-81447582D01*
X78625439Y-81450001D01*
X78551982Y-81457236D01*
X78457732Y-81485826D01*
X78370870Y-81532255D01*
X78294735Y-81594737D01*
X78279079Y-81613814D01*
X78143722Y-81749172D01*
X77873995Y-81637448D01*
X77560049Y-81575000D01*
X77239951Y-81575000D01*
X76926005Y-81637448D01*
X76630274Y-81759943D01*
X76364123Y-81937780D01*
X76137780Y-82164123D01*
X75959943Y-82430274D01*
X75837448Y-82726005D01*
X75775000Y-83039951D01*
X75775000Y-83360049D01*
X75837448Y-83673995D01*
X75959943Y-83969726D01*
X76137780Y-84235877D01*
X76364123Y-84462220D01*
X76630274Y-84640057D01*
X76926005Y-84762552D01*
X77239951Y-84825000D01*
X77560049Y-84825000D01*
X77873995Y-84762552D01*
X78169726Y-84640057D01*
X78435877Y-84462220D01*
X78662220Y-84235877D01*
X78840057Y-83969726D01*
X78962552Y-83673995D01*
X79025000Y-83360049D01*
X79025000Y-83075000D01*
X83497944Y-83075000D01*
X83500000Y-83381250D01*
X83606250Y-83487500D01*
X84375000Y-83487500D01*
X84375000Y-82756250D01*
X84425000Y-82756250D01*
X84425000Y-83487500D01*
X85193750Y-83487500D01*
X85300000Y-83381250D01*
X85302056Y-83075000D01*
X85597944Y-83075000D01*
X85600000Y-83381250D01*
X85706250Y-83487500D01*
X86475000Y-83487500D01*
X86475000Y-82756250D01*
X86525000Y-82756250D01*
X86525000Y-83487500D01*
X87293750Y-83487500D01*
X87400000Y-83381250D01*
X87402056Y-83075000D01*
X87393850Y-82991686D01*
X87369548Y-82911573D01*
X87330084Y-82837740D01*
X87276974Y-82773026D01*
X87212260Y-82719916D01*
X87138427Y-82680452D01*
X87058314Y-82656150D01*
X86975000Y-82647944D01*
X86631250Y-82650000D01*
X86525000Y-82756250D01*
X86475000Y-82756250D01*
X86368750Y-82650000D01*
X86025000Y-82647944D01*
X85941686Y-82656150D01*
X85861573Y-82680452D01*
X85787740Y-82719916D01*
X85723026Y-82773026D01*
X85669916Y-82837740D01*
X85630452Y-82911573D01*
X85606150Y-82991686D01*
X85597944Y-83075000D01*
X85302056Y-83075000D01*
X85293850Y-82991686D01*
X85269548Y-82911573D01*
X85230084Y-82837740D01*
X85176974Y-82773026D01*
X85112260Y-82719916D01*
X85038427Y-82680452D01*
X84958314Y-82656150D01*
X84875000Y-82647944D01*
X84531250Y-82650000D01*
X84425000Y-82756250D01*
X84375000Y-82756250D01*
X84268750Y-82650000D01*
X83925000Y-82647944D01*
X83841686Y-82656150D01*
X83761573Y-82680452D01*
X83687740Y-82719916D01*
X83623026Y-82773026D01*
X83569916Y-82837740D01*
X83530452Y-82911573D01*
X83506150Y-82991686D01*
X83497944Y-83075000D01*
X79025000Y-83075000D01*
X79025000Y-83039951D01*
X78962552Y-82726005D01*
X78850828Y-82456278D01*
X78857106Y-82450001D01*
X91642896Y-82450001D01*
X92300000Y-83107107D01*
X92300000Y-84505372D01*
X92287260Y-84494916D01*
X92213427Y-84455452D01*
X92133314Y-84431150D01*
X92050000Y-84422944D01*
X91781250Y-84425000D01*
X91675000Y-84531250D01*
X91675000Y-85275000D01*
X91695000Y-85275000D01*
X91695000Y-85325000D01*
X91675000Y-85325000D01*
X91675000Y-86068750D01*
X91781250Y-86175000D01*
X92050000Y-86177056D01*
X92133314Y-86168850D01*
X92213427Y-86144548D01*
X92287260Y-86105084D01*
X92300001Y-86094628D01*
X92300001Y-87572944D01*
X92300000Y-87572944D01*
X92231250Y-87575000D01*
X92125000Y-87681250D01*
X92125000Y-89475000D01*
X92145000Y-89475000D01*
X92145000Y-89525000D01*
X92125000Y-89525000D01*
X92125000Y-89545000D01*
X92075000Y-89545000D01*
X92075000Y-89525000D01*
X91425000Y-89525000D01*
X91425000Y-89545000D01*
X91375000Y-89545000D01*
X91375000Y-89525000D01*
X90725000Y-89525000D01*
X90725000Y-89545000D01*
X90675000Y-89545000D01*
X90675000Y-89525000D01*
X90655000Y-89525000D01*
X90655000Y-89475000D01*
X90675000Y-89475000D01*
X90675000Y-87681250D01*
X90725000Y-87681250D01*
X90725000Y-89475000D01*
X91375000Y-89475000D01*
X91375000Y-87681250D01*
X91425000Y-87681250D01*
X91425000Y-89475000D01*
X92075000Y-89475000D01*
X92075000Y-87681250D01*
X91968750Y-87575000D01*
X91900000Y-87572944D01*
X91816686Y-87581150D01*
X91750000Y-87601379D01*
X91683314Y-87581150D01*
X91600000Y-87572944D01*
X91531250Y-87575000D01*
X91425000Y-87681250D01*
X91375000Y-87681250D01*
X91268750Y-87575000D01*
X91200000Y-87572944D01*
X91116686Y-87581150D01*
X91050000Y-87601379D01*
X90983314Y-87581150D01*
X90900000Y-87572944D01*
X90831250Y-87575000D01*
X90725000Y-87681250D01*
X90675000Y-87681250D01*
X90568750Y-87575000D01*
X90500000Y-87572944D01*
X90500000Y-85888039D01*
X90519574Y-85823513D01*
X90526814Y-85750000D01*
X90822944Y-85750000D01*
X90831150Y-85833314D01*
X90855452Y-85913427D01*
X90894916Y-85987260D01*
X90948026Y-86051974D01*
X91012740Y-86105084D01*
X91086573Y-86144548D01*
X91166686Y-86168850D01*
X91250000Y-86177056D01*
X91518750Y-86175000D01*
X91625000Y-86068750D01*
X91625000Y-85325000D01*
X90931250Y-85325000D01*
X90825000Y-85431250D01*
X90822944Y-85750000D01*
X90526814Y-85750000D01*
X90526814Y-84850000D01*
X90822944Y-84850000D01*
X90825000Y-85168750D01*
X90931250Y-85275000D01*
X91625000Y-85275000D01*
X91625000Y-84531250D01*
X91518750Y-84425000D01*
X91250000Y-84422944D01*
X91166686Y-84431150D01*
X91086573Y-84455452D01*
X91012740Y-84494916D01*
X90948026Y-84548026D01*
X90894916Y-84612740D01*
X90855452Y-84686573D01*
X90831150Y-84766686D01*
X90822944Y-84850000D01*
X90526814Y-84850000D01*
X90519574Y-84776487D01*
X90498131Y-84705800D01*
X90463309Y-84640653D01*
X90416448Y-84583552D01*
X90359347Y-84536691D01*
X90294200Y-84501869D01*
X90223513Y-84480426D01*
X90150000Y-84473186D01*
X89350000Y-84473186D01*
X89276487Y-84480426D01*
X89205800Y-84501869D01*
X89140653Y-84536691D01*
X89083552Y-84583552D01*
X89036691Y-84640653D01*
X89001869Y-84705800D01*
X88980426Y-84776487D01*
X88973186Y-84850000D01*
X88973186Y-85750000D01*
X88980426Y-85823513D01*
X89001869Y-85894200D01*
X89036691Y-85959347D01*
X89083552Y-86016448D01*
X89140653Y-86063309D01*
X89205800Y-86098131D01*
X89276487Y-86119574D01*
X89350000Y-86126814D01*
X89500001Y-86126814D01*
X89500000Y-87572944D01*
X89431250Y-87575000D01*
X89325000Y-87681250D01*
X89325000Y-89475000D01*
X89345000Y-89475000D01*
X89345000Y-89525000D01*
X89325000Y-89525000D01*
X89325000Y-89545000D01*
X89275000Y-89545000D01*
X89275000Y-89525000D01*
X88625000Y-89525000D01*
X88625000Y-89545000D01*
X88575000Y-89545000D01*
X88575000Y-89525000D01*
X88555000Y-89525000D01*
X88555000Y-89475000D01*
X88575000Y-89475000D01*
X88575000Y-87681250D01*
X88625000Y-87681250D01*
X88625000Y-89475000D01*
X89275000Y-89475000D01*
X89275000Y-87681250D01*
X89168750Y-87575000D01*
X89100000Y-87572944D01*
X89016686Y-87581150D01*
X88950000Y-87601379D01*
X88883314Y-87581150D01*
X88800000Y-87572944D01*
X88731250Y-87575000D01*
X88625000Y-87681250D01*
X88575000Y-87681250D01*
X88468750Y-87575000D01*
X88400000Y-87572944D01*
X88400000Y-86949560D01*
X88402419Y-86925000D01*
X88392765Y-86826982D01*
X88384092Y-86798392D01*
X88364175Y-86732733D01*
X88317746Y-86645871D01*
X88255264Y-86569736D01*
X88236181Y-86554075D01*
X87275056Y-85592951D01*
X87306479Y-85534162D01*
X87336515Y-85435147D01*
X87345929Y-85423676D01*
X88969607Y-83800000D01*
X89928110Y-83800000D01*
X89930426Y-83823513D01*
X89951869Y-83894200D01*
X89986691Y-83959347D01*
X90033552Y-84016448D01*
X90090653Y-84063309D01*
X90155800Y-84098131D01*
X90226487Y-84119574D01*
X90300000Y-84126814D01*
X91100000Y-84126814D01*
X91173513Y-84119574D01*
X91244200Y-84098131D01*
X91309347Y-84063309D01*
X91366448Y-84016448D01*
X91413309Y-83959347D01*
X91448131Y-83894200D01*
X91469574Y-83823513D01*
X91476814Y-83750000D01*
X91476814Y-82850000D01*
X91469574Y-82776487D01*
X91448131Y-82705800D01*
X91413309Y-82640653D01*
X91366448Y-82583552D01*
X91309347Y-82536691D01*
X91244200Y-82501869D01*
X91173513Y-82480426D01*
X91100000Y-82473186D01*
X90300000Y-82473186D01*
X90226487Y-82480426D01*
X90155800Y-82501869D01*
X90090653Y-82536691D01*
X90033552Y-82583552D01*
X89986691Y-82640653D01*
X89951869Y-82705800D01*
X89930426Y-82776487D01*
X89928110Y-82800000D01*
X88787060Y-82800000D01*
X88762500Y-82797581D01*
X88737940Y-82800000D01*
X88664483Y-82807235D01*
X88570233Y-82835825D01*
X88483371Y-82882254D01*
X88407236Y-82944736D01*
X88391580Y-82963813D01*
X87401691Y-83953703D01*
X87402056Y-83950000D01*
X87400000Y-83643750D01*
X87293750Y-83537500D01*
X86525000Y-83537500D01*
X86525000Y-83557500D01*
X86475000Y-83557500D01*
X86475000Y-83537500D01*
X85706250Y-83537500D01*
X85600000Y-83643750D01*
X85597944Y-83950000D01*
X85606150Y-84033314D01*
X85630452Y-84113427D01*
X85669916Y-84187260D01*
X85723026Y-84251974D01*
X85787740Y-84305084D01*
X85861573Y-84344548D01*
X85928922Y-84364978D01*
X85912872Y-84373557D01*
X85822623Y-84447623D01*
X85748557Y-84537872D01*
X85722031Y-84587500D01*
X85177969Y-84587500D01*
X85151443Y-84537872D01*
X85077377Y-84447623D01*
X84987128Y-84373557D01*
X84971078Y-84364978D01*
X85038427Y-84344548D01*
X85112260Y-84305084D01*
X85176974Y-84251974D01*
X85230084Y-84187260D01*
X85269548Y-84113427D01*
X85293850Y-84033314D01*
X85302056Y-83950000D01*
X85300000Y-83643750D01*
X85193750Y-83537500D01*
X84425000Y-83537500D01*
X84425000Y-83557500D01*
X84375000Y-83557500D01*
X84375000Y-83537500D01*
X83606250Y-83537500D01*
X83500000Y-83643750D01*
X83497944Y-83950000D01*
X83506150Y-84033314D01*
X83530452Y-84113427D01*
X83569916Y-84187260D01*
X83623026Y-84251974D01*
X83687740Y-84305084D01*
X83761573Y-84344548D01*
X83828922Y-84364978D01*
X83812872Y-84373557D01*
X83722623Y-84447623D01*
X83648557Y-84537872D01*
X83622031Y-84587500D01*
X79137060Y-84587500D01*
X79112500Y-84585081D01*
X79087940Y-84587500D01*
X79014483Y-84594735D01*
X78920233Y-84623325D01*
X78833371Y-84669754D01*
X78757236Y-84732236D01*
X78741580Y-84751313D01*
X78143722Y-85349172D01*
X77873995Y-85237448D01*
X77560049Y-85175000D01*
X77239951Y-85175000D01*
X76926005Y-85237448D01*
X76630274Y-85359943D01*
X76364123Y-85537780D01*
X76137780Y-85764123D01*
X75959943Y-86030274D01*
X75837448Y-86326005D01*
X75775000Y-86639951D01*
X75775000Y-86960049D01*
X75837448Y-87273995D01*
X75959943Y-87569726D01*
X76137780Y-87835877D01*
X76364123Y-88062220D01*
X76630274Y-88240057D01*
X76926005Y-88362552D01*
X77239951Y-88425000D01*
X77560049Y-88425000D01*
X77873995Y-88362552D01*
X78169726Y-88240057D01*
X78435877Y-88062220D01*
X78662220Y-87835877D01*
X78840057Y-87569726D01*
X78962552Y-87273995D01*
X79025000Y-86960049D01*
X79025000Y-86639951D01*
X78962552Y-86326005D01*
X78850828Y-86056278D01*
X79319607Y-85587500D01*
X83622031Y-85587500D01*
X83648557Y-85637128D01*
X83722623Y-85727377D01*
X83812872Y-85801443D01*
X83900001Y-85848014D01*
X83900000Y-87623186D01*
X83500000Y-87623186D01*
X83426487Y-87630426D01*
X83355800Y-87651869D01*
X83350000Y-87654969D01*
X83344200Y-87651869D01*
X83273513Y-87630426D01*
X83200000Y-87623186D01*
X82800000Y-87623186D01*
X82726487Y-87630426D01*
X82655800Y-87651869D01*
X82650000Y-87654969D01*
X82644200Y-87651869D01*
X82573513Y-87630426D01*
X82500000Y-87623186D01*
X82100000Y-87623186D01*
X82026487Y-87630426D01*
X81955800Y-87651869D01*
X81950000Y-87654969D01*
X81944200Y-87651869D01*
X81873513Y-87630426D01*
X81800000Y-87623186D01*
X81400000Y-87623186D01*
X81326487Y-87630426D01*
X81255800Y-87651869D01*
X81250000Y-87654969D01*
X81244200Y-87651869D01*
X81173513Y-87630426D01*
X81100000Y-87623186D01*
X80700000Y-87623186D01*
X80626487Y-87630426D01*
X80555800Y-87651869D01*
X80490653Y-87686691D01*
X80433552Y-87733552D01*
X80386691Y-87790653D01*
X80351869Y-87855800D01*
X80330426Y-87926487D01*
X80323186Y-88000000D01*
X80323186Y-91000000D01*
X80330426Y-91073513D01*
X80351869Y-91144200D01*
X80386691Y-91209347D01*
X80433552Y-91266448D01*
X80490653Y-91313309D01*
X80555800Y-91348131D01*
X80626487Y-91369574D01*
X80700000Y-91376814D01*
X81100000Y-91376814D01*
X81173513Y-91369574D01*
X81244200Y-91348131D01*
X81250000Y-91345031D01*
X81255800Y-91348131D01*
X81326487Y-91369574D01*
X81400000Y-91376814D01*
X81800000Y-91376814D01*
X81873513Y-91369574D01*
X81944200Y-91348131D01*
X81950000Y-91345031D01*
X81955800Y-91348131D01*
X82026487Y-91369574D01*
X82100000Y-91376814D01*
X82500000Y-91376814D01*
X82573513Y-91369574D01*
X82644200Y-91348131D01*
X82650000Y-91345031D01*
X82655800Y-91348131D01*
X82726487Y-91369574D01*
X82800000Y-91376814D01*
X83200000Y-91376814D01*
X83273513Y-91369574D01*
X83344200Y-91348131D01*
X83350000Y-91345031D01*
X83355800Y-91348131D01*
X83426487Y-91369574D01*
X83500000Y-91376814D01*
X83900000Y-91376814D01*
X83973513Y-91369574D01*
X84044200Y-91348131D01*
X84050000Y-91345031D01*
X84055800Y-91348131D01*
X84126487Y-91369574D01*
X84200000Y-91376814D01*
X84600000Y-91376814D01*
X84673513Y-91369574D01*
X84744200Y-91348131D01*
X84750000Y-91345031D01*
X84755800Y-91348131D01*
X84826487Y-91369574D01*
X84900000Y-91376814D01*
X85300000Y-91376814D01*
X85373513Y-91369574D01*
X85383935Y-91366413D01*
X85436573Y-91394548D01*
X85516686Y-91418850D01*
X85600000Y-91427056D01*
X85668750Y-91425000D01*
X85775000Y-91318750D01*
X85775000Y-89525000D01*
X85755000Y-89525000D01*
X85755000Y-89475000D01*
X85775000Y-89475000D01*
X85775000Y-87681250D01*
X85668750Y-87575000D01*
X85600000Y-87572944D01*
X85516686Y-87581150D01*
X85436573Y-87605452D01*
X85383935Y-87633587D01*
X85373513Y-87630426D01*
X85300000Y-87623186D01*
X84900000Y-87623186D01*
X84900000Y-85848013D01*
X84987128Y-85801443D01*
X85077377Y-85727377D01*
X85151443Y-85637128D01*
X85177969Y-85587500D01*
X85722031Y-85587500D01*
X85748557Y-85637128D01*
X85822623Y-85727377D01*
X85912872Y-85801443D01*
X86000001Y-85848014D01*
X86000000Y-87572944D01*
X85931250Y-87575000D01*
X85825000Y-87681250D01*
X85825000Y-89475000D01*
X85845000Y-89475000D01*
X85845000Y-89525000D01*
X85825000Y-89525000D01*
X85825000Y-91318750D01*
X85931250Y-91425000D01*
X86000000Y-91427056D01*
X86083314Y-91418850D01*
X86163427Y-91394548D01*
X86216065Y-91366413D01*
X86226487Y-91369574D01*
X86300000Y-91376814D01*
X86700000Y-91376814D01*
X86773513Y-91369574D01*
X86783935Y-91366413D01*
X86836573Y-91394548D01*
X86916686Y-91418850D01*
X87000000Y-91427056D01*
X87068750Y-91425000D01*
X87175000Y-91318750D01*
X87175000Y-89525000D01*
X87155000Y-89525000D01*
X87155000Y-89475000D01*
X87175000Y-89475000D01*
X87175000Y-87681250D01*
X87068750Y-87575000D01*
X87000000Y-87572944D01*
X87000000Y-86732106D01*
X87400000Y-87132106D01*
X87400001Y-87572944D01*
X87400000Y-87572944D01*
X87331250Y-87575000D01*
X87225000Y-87681250D01*
X87225000Y-89475000D01*
X87245000Y-89475000D01*
X87245000Y-89525000D01*
X87225000Y-89525000D01*
X87225000Y-91318750D01*
X87331250Y-91425000D01*
X87400000Y-91427056D01*
X87430306Y-91424071D01*
X87430588Y-91425000D01*
X87435826Y-91442267D01*
X87482255Y-91529129D01*
X87544737Y-91605264D01*
X87563819Y-91620924D01*
X87879079Y-91936186D01*
X87894736Y-91955264D01*
X87970871Y-92017746D01*
X88057733Y-92064175D01*
X88151983Y-92092765D01*
X88250000Y-92102419D01*
X88274560Y-92100000D01*
X99425440Y-92100000D01*
X99450000Y-92102419D01*
X99474560Y-92100000D01*
X99548017Y-92092765D01*
X99642267Y-92064175D01*
X99729129Y-92017746D01*
X99805264Y-91955264D01*
X99820928Y-91936177D01*
X100136186Y-91620921D01*
X100155264Y-91605264D01*
X100217746Y-91529129D01*
X100264175Y-91442267D01*
X100269695Y-91424071D01*
X100300000Y-91427056D01*
X100368750Y-91425000D01*
X100475000Y-91318750D01*
X100475000Y-89525000D01*
X100455000Y-89525000D01*
X100455000Y-89475000D01*
X100475000Y-89475000D01*
X100475000Y-87681250D01*
X100525000Y-87681250D01*
X100525000Y-89475000D01*
X100545000Y-89475000D01*
X100545000Y-89525000D01*
X100525000Y-89525000D01*
X100525000Y-91318750D01*
X100631250Y-91425000D01*
X100700000Y-91427056D01*
X100783314Y-91418850D01*
X100863427Y-91394548D01*
X100916065Y-91366413D01*
X100926487Y-91369574D01*
X101000000Y-91376814D01*
X101400000Y-91376814D01*
X101473513Y-91369574D01*
X101544200Y-91348131D01*
X101609347Y-91313309D01*
X101666448Y-91266448D01*
X101713309Y-91209347D01*
X101748131Y-91144200D01*
X101769574Y-91073513D01*
X101776814Y-91000000D01*
X101776814Y-88000000D01*
X101769574Y-87926487D01*
X101748131Y-87855800D01*
X101713309Y-87790653D01*
X101666448Y-87733552D01*
X101609347Y-87686691D01*
X101544200Y-87651869D01*
X101473513Y-87630426D01*
X101400000Y-87623186D01*
X101000000Y-87623186D01*
X100926487Y-87630426D01*
X100916065Y-87633587D01*
X100863427Y-87605452D01*
X100783314Y-87581150D01*
X100700000Y-87572944D01*
X100631250Y-87575000D01*
X100525000Y-87681250D01*
X100475000Y-87681250D01*
X100368750Y-87575000D01*
X100300000Y-87572944D01*
X100300000Y-86219605D01*
X100581487Y-85938118D01*
X100615838Y-85956479D01*
X100727561Y-85990370D01*
X100843750Y-86001814D01*
X101356250Y-86001814D01*
X101472439Y-85990370D01*
X101584162Y-85956479D01*
X101687128Y-85901443D01*
X101777377Y-85827377D01*
X101851443Y-85737128D01*
X101877969Y-85687500D01*
X102422031Y-85687500D01*
X102448557Y-85737128D01*
X102522623Y-85827377D01*
X102612872Y-85901443D01*
X102715838Y-85956479D01*
X102827561Y-85990370D01*
X102943750Y-86001814D01*
X103456250Y-86001814D01*
X103572439Y-85990370D01*
X103684162Y-85956479D01*
X103787128Y-85901443D01*
X103877377Y-85827377D01*
X103951443Y-85737128D01*
X104006479Y-85634162D01*
X104040370Y-85522439D01*
X104051814Y-85406250D01*
X104051814Y-84968750D01*
X104040370Y-84852561D01*
X104006479Y-84740838D01*
X103951443Y-84637872D01*
X103877377Y-84547623D01*
X103787128Y-84473557D01*
X103771078Y-84464978D01*
X103838427Y-84444548D01*
X103912260Y-84405084D01*
X103976974Y-84351974D01*
X104030084Y-84287260D01*
X104069548Y-84213427D01*
X104093850Y-84133314D01*
X104102056Y-84050000D01*
X104100000Y-83743750D01*
X103993750Y-83637500D01*
X103225000Y-83637500D01*
X103225000Y-83657500D01*
X103175000Y-83657500D01*
X103175000Y-83637500D01*
X102406250Y-83637500D01*
X102300000Y-83743750D01*
X102297944Y-84050000D01*
X102306150Y-84133314D01*
X102330452Y-84213427D01*
X102369916Y-84287260D01*
X102423026Y-84351974D01*
X102487740Y-84405084D01*
X102561573Y-84444548D01*
X102628922Y-84464978D01*
X102612872Y-84473557D01*
X102522623Y-84547623D01*
X102448557Y-84637872D01*
X102422031Y-84687500D01*
X101877969Y-84687500D01*
X101851443Y-84637872D01*
X101777377Y-84547623D01*
X101687128Y-84473557D01*
X101671078Y-84464978D01*
X101738427Y-84444548D01*
X101812260Y-84405084D01*
X101876974Y-84351974D01*
X101930084Y-84287260D01*
X101969548Y-84213427D01*
X101993850Y-84133314D01*
X102002056Y-84050000D01*
X102000000Y-83743750D01*
X101893750Y-83637500D01*
X101125000Y-83637500D01*
X101125000Y-83657500D01*
X101075000Y-83657500D01*
X101075000Y-83637500D01*
X100306250Y-83637500D01*
X100200000Y-83743750D01*
X100197944Y-84050000D01*
X100206150Y-84133314D01*
X100230452Y-84213427D01*
X100269916Y-84287260D01*
X100323026Y-84351974D01*
X100387740Y-84405084D01*
X100461573Y-84444548D01*
X100528922Y-84464978D01*
X100512872Y-84473557D01*
X100422623Y-84547623D01*
X100348557Y-84637872D01*
X100293521Y-84740838D01*
X100263485Y-84839853D01*
X100254075Y-84851319D01*
X99951814Y-85153580D01*
X99951814Y-84968750D01*
X99940370Y-84852561D01*
X99906479Y-84740838D01*
X99851443Y-84637872D01*
X99777377Y-84547623D01*
X99687128Y-84473557D01*
X99671078Y-84464978D01*
X99738427Y-84444548D01*
X99812260Y-84405084D01*
X99876974Y-84351974D01*
X99930084Y-84287260D01*
X99969548Y-84213427D01*
X99993850Y-84133314D01*
X100002056Y-84050000D01*
X100000000Y-83743750D01*
X99893750Y-83637500D01*
X99125000Y-83637500D01*
X99125000Y-83657500D01*
X99075000Y-83657500D01*
X99075000Y-83637500D01*
X98306250Y-83637500D01*
X98200000Y-83743750D01*
X98197944Y-84050000D01*
X98206150Y-84133314D01*
X98230452Y-84213427D01*
X98269916Y-84287260D01*
X98323026Y-84351974D01*
X98387740Y-84405084D01*
X98461573Y-84444548D01*
X98528922Y-84464978D01*
X98512872Y-84473557D01*
X98422623Y-84547623D01*
X98348557Y-84637872D01*
X98293521Y-84740838D01*
X98259630Y-84852561D01*
X98248186Y-84968750D01*
X98248186Y-85053580D01*
X98045929Y-84851324D01*
X98036515Y-84839853D01*
X98006479Y-84740838D01*
X97951443Y-84637872D01*
X97877377Y-84547623D01*
X97787128Y-84473557D01*
X97771078Y-84464978D01*
X97838427Y-84444548D01*
X97912260Y-84405084D01*
X97976974Y-84351974D01*
X98030084Y-84287260D01*
X98069548Y-84213427D01*
X98093850Y-84133314D01*
X98102056Y-84050000D01*
X98100000Y-83743750D01*
X97993750Y-83637500D01*
X97225000Y-83637500D01*
X97225000Y-83657500D01*
X97175000Y-83657500D01*
X97175000Y-83637500D01*
X96406250Y-83637500D01*
X96300000Y-83743750D01*
X96297944Y-84050000D01*
X96306150Y-84133314D01*
X96330452Y-84213427D01*
X96369916Y-84287260D01*
X96423026Y-84351974D01*
X96487740Y-84405084D01*
X96561573Y-84444548D01*
X96628922Y-84464978D01*
X96612872Y-84473557D01*
X96522623Y-84547623D01*
X96448557Y-84637872D01*
X96393521Y-84740838D01*
X96359630Y-84852561D01*
X96348186Y-84968750D01*
X96348186Y-85406250D01*
X96359630Y-85522439D01*
X96393521Y-85634162D01*
X96448557Y-85737128D01*
X96522623Y-85827377D01*
X96612872Y-85901443D01*
X96715838Y-85956479D01*
X96827561Y-85990370D01*
X96943750Y-86001814D01*
X97456250Y-86001814D01*
X97572439Y-85990370D01*
X97684162Y-85956479D01*
X97718512Y-85938118D01*
X97900001Y-86119608D01*
X97900001Y-87572944D01*
X97900000Y-87572944D01*
X97831250Y-87575000D01*
X97725000Y-87681250D01*
X97725000Y-89475000D01*
X97745000Y-89475000D01*
X97745000Y-89525000D01*
X97725000Y-89525000D01*
X97725000Y-89545000D01*
X97675000Y-89545000D01*
X97675000Y-89525000D01*
X97025000Y-89525000D01*
X97025000Y-89545000D01*
X96975000Y-89545000D01*
X96975000Y-89525000D01*
X96325000Y-89525000D01*
X96325000Y-89545000D01*
X96275000Y-89545000D01*
X96275000Y-89525000D01*
X95625000Y-89525000D01*
X95625000Y-89545000D01*
X95575000Y-89545000D01*
X95575000Y-89525000D01*
X94925000Y-89525000D01*
X94925000Y-89545000D01*
X94875000Y-89545000D01*
X94875000Y-89525000D01*
X94855000Y-89525000D01*
X94855000Y-89475000D01*
X94875000Y-89475000D01*
X94875000Y-87681250D01*
X94925000Y-87681250D01*
X94925000Y-89475000D01*
X95575000Y-89475000D01*
X95575000Y-87681250D01*
X95625000Y-87681250D01*
X95625000Y-89475000D01*
X96275000Y-89475000D01*
X96275000Y-87681250D01*
X96325000Y-87681250D01*
X96325000Y-89475000D01*
X96975000Y-89475000D01*
X96975000Y-87681250D01*
X97025000Y-87681250D01*
X97025000Y-89475000D01*
X97675000Y-89475000D01*
X97675000Y-87681250D01*
X97568750Y-87575000D01*
X97500000Y-87572944D01*
X97416686Y-87581150D01*
X97350000Y-87601379D01*
X97283314Y-87581150D01*
X97200000Y-87572944D01*
X97131250Y-87575000D01*
X97025000Y-87681250D01*
X96975000Y-87681250D01*
X96868750Y-87575000D01*
X96800000Y-87572944D01*
X96716686Y-87581150D01*
X96650000Y-87601379D01*
X96583314Y-87581150D01*
X96500000Y-87572944D01*
X96431250Y-87575000D01*
X96325000Y-87681250D01*
X96275000Y-87681250D01*
X96168750Y-87575000D01*
X96100000Y-87572944D01*
X96016686Y-87581150D01*
X95950000Y-87601379D01*
X95883314Y-87581150D01*
X95800000Y-87572944D01*
X95731250Y-87575000D01*
X95625000Y-87681250D01*
X95575000Y-87681250D01*
X95468750Y-87575000D01*
X95400000Y-87572944D01*
X95316686Y-87581150D01*
X95250000Y-87601379D01*
X95183314Y-87581150D01*
X95100000Y-87572944D01*
X95031250Y-87575000D01*
X94925000Y-87681250D01*
X94875000Y-87681250D01*
X94768750Y-87575000D01*
X94700000Y-87572944D01*
X94700000Y-86524549D01*
X94702418Y-86499999D01*
X94700000Y-86475449D01*
X94700000Y-86475440D01*
X94692765Y-86401983D01*
X94664175Y-86307733D01*
X94617746Y-86220871D01*
X94555264Y-86144736D01*
X94536187Y-86129080D01*
X94000000Y-85592895D01*
X94000000Y-83175000D01*
X96297944Y-83175000D01*
X96300000Y-83481250D01*
X96406250Y-83587500D01*
X97175000Y-83587500D01*
X97175000Y-82856250D01*
X97225000Y-82856250D01*
X97225000Y-83587500D01*
X97993750Y-83587500D01*
X98100000Y-83481250D01*
X98102056Y-83175000D01*
X98197944Y-83175000D01*
X98200000Y-83481250D01*
X98306250Y-83587500D01*
X99075000Y-83587500D01*
X99075000Y-82856250D01*
X99125000Y-82856250D01*
X99125000Y-83587500D01*
X99893750Y-83587500D01*
X100000000Y-83481250D01*
X100002056Y-83175000D01*
X100197944Y-83175000D01*
X100200000Y-83481250D01*
X100306250Y-83587500D01*
X101075000Y-83587500D01*
X101075000Y-82856250D01*
X101125000Y-82856250D01*
X101125000Y-83587500D01*
X101893750Y-83587500D01*
X102000000Y-83481250D01*
X102002056Y-83175000D01*
X102297944Y-83175000D01*
X102300000Y-83481250D01*
X102406250Y-83587500D01*
X103175000Y-83587500D01*
X103175000Y-82856250D01*
X103225000Y-82856250D01*
X103225000Y-83587500D01*
X103993750Y-83587500D01*
X104100000Y-83481250D01*
X104102056Y-83175000D01*
X104093850Y-83091686D01*
X104069548Y-83011573D01*
X104030084Y-82937740D01*
X103976974Y-82873026D01*
X103912260Y-82819916D01*
X103838427Y-82780452D01*
X103758314Y-82756150D01*
X103675000Y-82747944D01*
X103331250Y-82750000D01*
X103225000Y-82856250D01*
X103175000Y-82856250D01*
X103068750Y-82750000D01*
X102725000Y-82747944D01*
X102641686Y-82756150D01*
X102561573Y-82780452D01*
X102487740Y-82819916D01*
X102423026Y-82873026D01*
X102369916Y-82937740D01*
X102330452Y-83011573D01*
X102306150Y-83091686D01*
X102297944Y-83175000D01*
X102002056Y-83175000D01*
X101993850Y-83091686D01*
X101969548Y-83011573D01*
X101930084Y-82937740D01*
X101876974Y-82873026D01*
X101812260Y-82819916D01*
X101738427Y-82780452D01*
X101658314Y-82756150D01*
X101575000Y-82747944D01*
X101231250Y-82750000D01*
X101125000Y-82856250D01*
X101075000Y-82856250D01*
X100968750Y-82750000D01*
X100625000Y-82747944D01*
X100541686Y-82756150D01*
X100461573Y-82780452D01*
X100387740Y-82819916D01*
X100323026Y-82873026D01*
X100269916Y-82937740D01*
X100230452Y-83011573D01*
X100206150Y-83091686D01*
X100197944Y-83175000D01*
X100002056Y-83175000D01*
X99993850Y-83091686D01*
X99969548Y-83011573D01*
X99930084Y-82937740D01*
X99876974Y-82873026D01*
X99812260Y-82819916D01*
X99738427Y-82780452D01*
X99658314Y-82756150D01*
X99575000Y-82747944D01*
X99231250Y-82750000D01*
X99125000Y-82856250D01*
X99075000Y-82856250D01*
X98968750Y-82750000D01*
X98625000Y-82747944D01*
X98541686Y-82756150D01*
X98461573Y-82780452D01*
X98387740Y-82819916D01*
X98323026Y-82873026D01*
X98269916Y-82937740D01*
X98230452Y-83011573D01*
X98206150Y-83091686D01*
X98197944Y-83175000D01*
X98102056Y-83175000D01*
X98093850Y-83091686D01*
X98069548Y-83011573D01*
X98030084Y-82937740D01*
X97976974Y-82873026D01*
X97912260Y-82819916D01*
X97838427Y-82780452D01*
X97758314Y-82756150D01*
X97675000Y-82747944D01*
X97331250Y-82750000D01*
X97225000Y-82856250D01*
X97175000Y-82856250D01*
X97068750Y-82750000D01*
X96725000Y-82747944D01*
X96641686Y-82756150D01*
X96561573Y-82780452D01*
X96487740Y-82819916D01*
X96423026Y-82873026D01*
X96369916Y-82937740D01*
X96330452Y-83011573D01*
X96306150Y-83091686D01*
X96297944Y-83175000D01*
X94000000Y-83175000D01*
X94000000Y-82724559D01*
X94002419Y-82699999D01*
X93992765Y-82601982D01*
X93980316Y-82560943D01*
X93964175Y-82507733D01*
X93917746Y-82420871D01*
X93855264Y-82344736D01*
X93836181Y-82329075D01*
X90770929Y-79263824D01*
X90755264Y-79244736D01*
X90679129Y-79182254D01*
X90592267Y-79135825D01*
X90498017Y-79107235D01*
X90424560Y-79100000D01*
X90400000Y-79097581D01*
X90375440Y-79100000D01*
X78951780Y-79100000D01*
X78840057Y-78830274D01*
X78662220Y-78564123D01*
X78435877Y-78337780D01*
X78169726Y-78159943D01*
X77873995Y-78037448D01*
X77560049Y-77975000D01*
X77239951Y-77975000D01*
X76926005Y-78037448D01*
X76630274Y-78159943D01*
X76364123Y-78337780D01*
X76137780Y-78564123D01*
X75959943Y-78830274D01*
X75837448Y-79126005D01*
X75775000Y-79439951D01*
X67000000Y-79439951D01*
X67000000Y-77019564D01*
X67020991Y-76805479D01*
X68125000Y-76805479D01*
X68125000Y-77194521D01*
X68200898Y-77576086D01*
X68349778Y-77935513D01*
X68565917Y-78258989D01*
X68841011Y-78534083D01*
X69164487Y-78750222D01*
X69523914Y-78899102D01*
X69905479Y-78975000D01*
X70294521Y-78975000D01*
X70676086Y-78899102D01*
X71035513Y-78750222D01*
X71358989Y-78534083D01*
X71634083Y-78258989D01*
X71850222Y-77935513D01*
X71999102Y-77576086D01*
X72075000Y-77194521D01*
X72075000Y-76805479D01*
X71999102Y-76423914D01*
X71850222Y-76064487D01*
X71634083Y-75741011D01*
X71358989Y-75465917D01*
X71035513Y-75249778D01*
X70676086Y-75100898D01*
X70294521Y-75025000D01*
X69905479Y-75025000D01*
X69523914Y-75100898D01*
X69164487Y-75249778D01*
X68841011Y-75465917D01*
X68565917Y-75741011D01*
X68349778Y-76064487D01*
X68200898Y-76423914D01*
X68125000Y-76805479D01*
X67020991Y-76805479D01*
X67060921Y-76398248D01*
X67235681Y-75819413D01*
X67519543Y-75285546D01*
X67901693Y-74816984D01*
X68367576Y-74431573D01*
X68899445Y-74143992D01*
X69477045Y-73965196D01*
X70097222Y-73900013D01*
X70100816Y-73900000D01*
X107800000Y-73900000D01*
X107800001Y-96100000D01*
M02*
