G04 #@! TF.GenerationSoftware,KiCad,Pcbnew,(5.1.5)-3*
G04 #@! TF.CreationDate,2021-08-11T14:03:33+02:00*
G04 #@! TF.ProjectId,18650_UPS_TOP,31383635-305f-4555-9053-5f544f502e6b,rev?*
G04 #@! TF.SameCoordinates,Original*
G04 #@! TF.FileFunction,Legend,Bot*
G04 #@! TF.FilePolarity,Positive*
%FSLAX46Y46*%
G04 Gerber Fmt 4.6, Leading zero omitted, Abs format (unit mm)*
G04 Created by KiCad (PCBNEW (5.1.5)-3) date 2021-08-11 14:03:33*
%MOMM*%
%LPD*%
G04 APERTURE LIST*
%ADD10C,0.300000*%
%ADD11C,0.120000*%
G04 APERTURE END LIST*
D10*
X75221428Y-80157142D02*
X75007142Y-80228571D01*
X74650000Y-80228571D01*
X74507142Y-80157142D01*
X74435714Y-80085714D01*
X74364285Y-79942857D01*
X74364285Y-79800000D01*
X74435714Y-79657142D01*
X74507142Y-79585714D01*
X74650000Y-79514285D01*
X74935714Y-79442857D01*
X75078571Y-79371428D01*
X75150000Y-79300000D01*
X75221428Y-79157142D01*
X75221428Y-79014285D01*
X75150000Y-78871428D01*
X75078571Y-78800000D01*
X74935714Y-78728571D01*
X74578571Y-78728571D01*
X74364285Y-78800000D01*
X73721428Y-80228571D02*
X73721428Y-78728571D01*
X73364285Y-78728571D01*
X73150000Y-78800000D01*
X73007142Y-78942857D01*
X72935714Y-79085714D01*
X72864285Y-79371428D01*
X72864285Y-79585714D01*
X72935714Y-79871428D01*
X73007142Y-80014285D01*
X73150000Y-80157142D01*
X73364285Y-80228571D01*
X73721428Y-80228571D01*
X72292857Y-79800000D02*
X71578571Y-79800000D01*
X72435714Y-80228571D02*
X71935714Y-78728571D01*
X71435714Y-80228571D01*
X75285714Y-83832142D02*
X75071428Y-83903571D01*
X74714285Y-83903571D01*
X74571428Y-83832142D01*
X74500000Y-83760714D01*
X74428571Y-83617857D01*
X74428571Y-83475000D01*
X74500000Y-83332142D01*
X74571428Y-83260714D01*
X74714285Y-83189285D01*
X75000000Y-83117857D01*
X75142857Y-83046428D01*
X75214285Y-82975000D01*
X75285714Y-82832142D01*
X75285714Y-82689285D01*
X75214285Y-82546428D01*
X75142857Y-82475000D01*
X75000000Y-82403571D01*
X74642857Y-82403571D01*
X74428571Y-82475000D01*
X72928571Y-83760714D02*
X73000000Y-83832142D01*
X73214285Y-83903571D01*
X73357142Y-83903571D01*
X73571428Y-83832142D01*
X73714285Y-83689285D01*
X73785714Y-83546428D01*
X73857142Y-83260714D01*
X73857142Y-83046428D01*
X73785714Y-82760714D01*
X73714285Y-82617857D01*
X73571428Y-82475000D01*
X73357142Y-82403571D01*
X73214285Y-82403571D01*
X73000000Y-82475000D01*
X72928571Y-82546428D01*
X71571428Y-83903571D02*
X72285714Y-83903571D01*
X72285714Y-82403571D01*
X75382142Y-85953571D02*
X74453571Y-85953571D01*
X74953571Y-86525000D01*
X74739285Y-86525000D01*
X74596428Y-86596428D01*
X74525000Y-86667857D01*
X74453571Y-86810714D01*
X74453571Y-87167857D01*
X74525000Y-87310714D01*
X74596428Y-87382142D01*
X74739285Y-87453571D01*
X75167857Y-87453571D01*
X75310714Y-87382142D01*
X75382142Y-87310714D01*
X74025000Y-85953571D02*
X73525000Y-87453571D01*
X73025000Y-85953571D01*
X72667857Y-85953571D02*
X71739285Y-85953571D01*
X72239285Y-86525000D01*
X72025000Y-86525000D01*
X71882142Y-86596428D01*
X71810714Y-86667857D01*
X71739285Y-86810714D01*
X71739285Y-87167857D01*
X71810714Y-87310714D01*
X71882142Y-87382142D01*
X72025000Y-87453571D01*
X72453571Y-87453571D01*
X72596428Y-87382142D01*
X72667857Y-87310714D01*
X74767857Y-89625000D02*
X74910714Y-89553571D01*
X75125000Y-89553571D01*
X75339285Y-89625000D01*
X75482142Y-89767857D01*
X75553571Y-89910714D01*
X75625000Y-90196428D01*
X75625000Y-90410714D01*
X75553571Y-90696428D01*
X75482142Y-90839285D01*
X75339285Y-90982142D01*
X75125000Y-91053571D01*
X74982142Y-91053571D01*
X74767857Y-90982142D01*
X74696428Y-90910714D01*
X74696428Y-90410714D01*
X74982142Y-90410714D01*
X74053571Y-91053571D02*
X74053571Y-89553571D01*
X73196428Y-91053571D01*
X73196428Y-89553571D01*
X72482142Y-91053571D02*
X72482142Y-89553571D01*
X72125000Y-89553571D01*
X71910714Y-89625000D01*
X71767857Y-89767857D01*
X71696428Y-89910714D01*
X71625000Y-90196428D01*
X71625000Y-90410714D01*
X71696428Y-90696428D01*
X71767857Y-90839285D01*
X71910714Y-90982142D01*
X72125000Y-91053571D01*
X72482142Y-91053571D01*
D11*
X83900000Y-97500000D02*
X84900000Y-98500000D01*
X98200000Y-97500000D02*
X97200000Y-98500000D01*
X84900000Y-98500000D02*
X97200000Y-98500000D01*
X102200000Y-93500000D02*
X98200000Y-97500000D01*
X79900000Y-93500000D02*
X83900000Y-97500000D01*
X102200000Y-89500000D02*
X102200000Y-93500000D01*
X79900000Y-89500000D02*
X79900000Y-93500000D01*
X89120000Y-83540000D02*
X89120000Y-85000000D01*
X92280000Y-83540000D02*
X92280000Y-85700000D01*
X92280000Y-83540000D02*
X91350000Y-83540000D01*
X89120000Y-83540000D02*
X90050000Y-83540000D01*
X78850000Y-90400000D02*
G75*
G03X78850000Y-90400000I-1450000J0D01*
G01*
X78850000Y-86800000D02*
G75*
G03X78850000Y-86800000I-1450000J0D01*
G01*
X78850000Y-83200000D02*
G75*
G03X78850000Y-83200000I-1450000J0D01*
G01*
X78850000Y-79600000D02*
G75*
G03X78850000Y-79600000I-1450000J0D01*
G01*
X96690000Y-84562779D02*
X96690000Y-84237221D01*
X97710000Y-84562779D02*
X97710000Y-84237221D01*
X102690000Y-84562779D02*
X102690000Y-84237221D01*
X103710000Y-84562779D02*
X103710000Y-84237221D01*
X100590000Y-84562779D02*
X100590000Y-84237221D01*
X101610000Y-84562779D02*
X101610000Y-84237221D01*
X98590000Y-84562779D02*
X98590000Y-84237221D01*
X99610000Y-84562779D02*
X99610000Y-84237221D01*
X83890000Y-84462779D02*
X83890000Y-84137221D01*
X84910000Y-84462779D02*
X84910000Y-84137221D01*
X85990000Y-84462779D02*
X85990000Y-84137221D01*
X87010000Y-84462779D02*
X87010000Y-84137221D01*
M02*
